<?xml version="1.0" encoding="utf-8" ?>
<svg baseProfile="tiny" height="1080px" version="1.2" viewBox="0 0 1080 1080" width="1080px" xmlns="http://www.w3.org/2000/svg" xmlns:ev="http://www.w3.org/2001/xml-events" xmlns:xlink="http://www.w3.org/1999/xlink"><defs /><rect fill="white" height="1080px" width="1080px" x="0" y="0" /><polygon fill="rgb(164,164,164)" points="520,128 392,128 392,236 360,236 360,264 520,264" stroke="black" stroke-width="9" /><polygon fill="rgb(199,199,199)" points="756,224 520,224 520,444 756,444" stroke="black" stroke-width="9" /><polygon fill="rgb(171,171,171)" points="632,596 756,596 756,444 632,444" stroke="black" stroke-width="9" /><polygon fill="rgb(213,213,213)" points="272,900 476,900 476,816 272,816" stroke="black" stroke-width="9" /><polygon fill="rgb(157,157,157)" points="532,816 756,816 756,596 532,596" stroke="black" stroke-width="9" /><polygon fill="rgb(150,150,150)" points="272,816 532,816 532,596 632,596 632,444 520,444 520,264 360,264 360,236 272,236" stroke="black" stroke-width="9" /><polygon fill="none" points="280,236 352,236 392,236 392,128 520,128 520,224 756,224 756,816 476,816 476,900 272,900 272,236" stroke="black" stroke-width="9" /><line stroke="rgb(255,255,255)" stroke-width="3" x1="420" x2="492" y1="125" y2="125" /><line stroke="rgb(255,255,255)" stroke-width="3" x1="420" x2="492" y1="131" y2="131" /><line stroke="rgb(255,255,255)" stroke-width="3" x1="600" x2="672" y1="221" y2="221" /><line stroke="rgb(255,255,255)" stroke-width="3" x1="600" x2="672" y1="227" y2="227" /><line stroke="rgb(255,255,255)" stroke-width="3" x1="759" x2="759" y1="500" y2="540" /><line stroke="rgb(255,255,255)" stroke-width="3" x1="753" x2="753" y1="500" y2="540" /><line stroke="rgb(255,255,255)" stroke-width="3" x1="292" x2="452" y1="903" y2="903" /><line stroke="rgb(255,255,255)" stroke-width="3" x1="292" x2="452" y1="897" y2="897" /><line stroke="rgb(255,255,255)" stroke-width="3" x1="479" x2="479" y1="824" y2="888" /><line stroke="rgb(255,255,255)" stroke-width="3" x1="473" x2="473" y1="824" y2="888" /><line stroke="rgb(255,255,255)" stroke-width="3" x1="269" x2="269" y1="824" y2="888" /><line stroke="rgb(255,255,255)" stroke-width="3" x1="275" x2="275" y1="824" y2="888" /><line stroke="rgb(255,255,255)" stroke-width="3" x1="608" x2="680" y1="819" y2="819" /><line stroke="rgb(255,255,255)" stroke-width="3" x1="608" x2="680" y1="813" y2="813" /><line stroke="rgb(255,255,255)" stroke-width="3" x1="269" x2="269" y1="476" y2="572" /><line stroke="rgb(255,255,255)" stroke-width="3" x1="275" x2="275" y1="476" y2="572" /><line stroke="rgb(164,164,164)" stroke-width="9" x1="360" x2="408" y1="264" y2="264" /><line stroke="rgb(199,199,199)" stroke-width="9" x1="520" x2="520" y1="264" y2="312" /><line stroke="rgb(171,171,171)" stroke-width="9" x1="632" x2="632" y1="444" y2="492" /><line stroke="rgb(213,213,213)" stroke-width="9" x1="296" x2="448" y1="816" y2="816" /><line stroke="rgb(157,157,157)" stroke-width="9" x1="532" x2="580" y1="596" y2="596" /><line stroke="rgb(150,150,150)" stroke-width="9" x1="280" x2="352" y1="236" y2="236" /><g><image height="72px" transform="translate(280,223) rotate(180,36,36)" width="72px" xlink:href="asset_data/double_door.svg" /></g><g><image height="90px" preserveAspectRatio="none" transform="rotate(90,333.0,521.0)" width="120px" x="273" xlink:href="asset_data/sofa.svg" y="476" /></g><g><image height="70px" preserveAspectRatio="none" transform="rotate(0,414.0,769.0)" width="110px" x="359" xlink:href="asset_data/dinning-table.svg" y="734" /></g><g><image height="48px" transform="translate(360,216) rotate(180,24,24)" width="48px" xlink:href="asset_data/left_door.svg" /></g><g><image height="40px" preserveAspectRatio="none" transform="rotate(0,493.0,155.0)" width="40px" x="473" xlink:href="asset_data/stove.svg" y="135" /></g><g><image height="30px" preserveAspectRatio="none" transform="rotate(270,416.5,150.0)" width="35px" x="399" xlink:href="asset_data/kitchen-sink.svg" y="135" /></g><g><image height="28px" preserveAspectRatio="none" transform="rotate(90,456.0,149.0)" width="28px" x="442" xlink:href="asset_data/fridge.svg" y="135" /></g><g><image height="28px" preserveAspectRatio="none" transform="rotate(270,413.0,182.0)" width="28px" x="399" xlink:href="asset_data/dish-washer.svg" y="168" /></g><g><image height="48px" transform="translate(520,264) rotate(270,24,24)" width="48px" xlink:href="asset_data/left_door.svg" /></g><g><image height="90px" preserveAspectRatio="none" transform="rotate(0,655,271)" width="110px" x="600" xlink:href="asset_data/bed.svg" y="226" /></g><g><image height="10px" preserveAspectRatio="none" transform="rotate(180,530,334)" width="10px" x="525" xlink:href="asset_data/closet_vert_vert.svg" y="329" /></g><g><image height="48px" transform="translate(632,444) rotate(270,24,24)" width="48px" xlink:href="asset_data/left_door.svg" /></g><g><image height="35px" preserveAspectRatio="none" transform="rotate(90,736.5,576.5)" width="35px" x="719" xlink:href="asset_data/sink.svg" y="559" /></g><g><image height="40px" preserveAspectRatio="none" transform="rotate(0,734.0,466.0)" width="40px" x="714" xlink:href="asset_data/toilet.svg" y="446" /></g><g><image height="38px" preserveAspectRatio="none" transform="rotate(180,653.0,575.0)" width="38px" x="634" xlink:href="asset_data/shower.svg" y="556" /></g><g><image height="152px" transform="translate(296,740) rotate(180,76,76)" width="152px" xlink:href="asset_data/sliding_door.svg" /></g><g><image height="25px" preserveAspectRatio="none" transform="rotate(180,380.5,860.0)" width="60px" x="368" xlink:href="asset_data/coffetable.svg" y="830" /></g><g><image height="15px" preserveAspectRatio="none" transform="rotate(0,284.5,887.5)" width="15px" x="277" xlink:href="asset_data/plant.svg" y="880" /></g><g><image height="15px" preserveAspectRatio="none" transform="rotate(0,463.5,887.5)" width="15px" x="456" xlink:href="asset_data/plant.svg" y="880" /></g><g><image height="15px" preserveAspectRatio="none" transform="rotate(0,463.5,828.5)" width="15px" x="456" xlink:href="asset_data/plant.svg" y="821" /></g><g><image height="15px" preserveAspectRatio="none" transform="rotate(0,284.5,828.5)" width="15px" x="277" xlink:href="asset_data/plant.svg" y="821" /></g><g><image height="48px" transform="translate(532,596) rotate(0,24,24)" width="48px" xlink:href="asset_data/right_door.svg" /></g><g><image height="90px" preserveAspectRatio="none" transform="rotate(180,663,769)" width="110px" x="608" xlink:href="asset_data/bed.svg" y="724" /></g><g><image height="10px" preserveAspectRatio="none" transform="rotate(0,746,706)" width="10px" x="741" xlink:href="asset_data/closet_vert_vert.svg" y="701" /></g><text fill="black" font-size="28" x="400.8" y="210.0">Kitchen</text><text fill="black" font-size="28" x="598.8" y="348.0">BedRoom</text><text fill="black" font-size="23" x="657.2" y="531.5">BathRoom</text><text fill="black" font-size="28" x="334.8" y="872.0">Balcony</text><text fill="black" font-size="28" x="588.0" y="720.0">MasterRoom</text><text fill="black" font-size="28" x="346.0" y="540.0">LivingRoom</text><text fill="black" font-family="Helvetica" font-size="28" x="850" y="35">LR: Living Room</text><text fill="black" font-family="Helvetica" font-size="28" x="850" y="85">MR: Master Room</text><text fill="black" font-family="Helvetica" font-size="28" x="850" y="135">Ki: Kitchen</text><text fill="black" font-family="Helvetica" font-size="28" x="850" y="185">Ba: Bathroom</text><text fill="black" font-family="Helvetica" font-size="28" x="850" y="235">Be: Bedroom</text><text fill="black" font-family="Helvetica" font-size="28" x="850" y="285">Bl: Balcony</text></svg>