<?xml version="1.0" encoding="utf-8" ?>
<svg baseProfile="tiny" height="1080px" version="1.2" viewBox="0 0 1080 1080" width="1080px" xmlns="http://www.w3.org/2000/svg" xmlns:ev="http://www.w3.org/2001/xml-events" xmlns:xlink="http://www.w3.org/1999/xlink"><defs /><rect fill="white" height="1080px" width="1080px" x="0" y="0" /><polygon fill="rgb(157,157,157)" points="308,816 532,816 532,620 308,620" stroke="black" stroke-width="9" /><polygon fill="rgb(199,199,199)" points="532,816 720,816 720,620 532,620" stroke="black" stroke-width="9" /><polygon fill="rgb(171,171,171)" points="432,212 308,212 308,336 440,336 440,296 432,296" stroke="black" stroke-width="9" /><polygon fill="rgb(150,150,150)" points="308,620 720,620 720,408 540,408 540,296 440,296 440,336 308,336" stroke="black" stroke-width="9" /><polygon fill="rgb(227,227,227)" points="540,408 720,408 720,296 540,296" stroke="black" stroke-width="9" /><polygon fill="none" points="456,296 512,296 720,296 720,816 308,816 308,212 432,212 432,296" stroke="black" stroke-width="9" /><line stroke="rgb(255,255,255)" stroke-width="3" x1="384" x2="456" y1="819" y2="819" /><line stroke="rgb(255,255,255)" stroke-width="3" x1="384" x2="456" y1="813" y2="813" /><line stroke="rgb(255,255,255)" stroke-width="3" x1="723" x2="723" y1="680" y2="752" /><line stroke="rgb(255,255,255)" stroke-width="3" x1="717" x2="717" y1="680" y2="752" /><line stroke="rgb(255,255,255)" stroke-width="3" x1="435" x2="435" y1="232" y2="272" /><line stroke="rgb(255,255,255)" stroke-width="3" x1="429" x2="429" y1="232" y2="272" /><line stroke="rgb(255,255,255)" stroke-width="3" x1="723" x2="723" y1="464" y2="560" /><line stroke="rgb(255,255,255)" stroke-width="3" x1="717" x2="717" y1="464" y2="560" /><line stroke="rgb(255,255,255)" stroke-width="3" x1="305" x2="305" y1="428" y2="524" /><line stroke="rgb(255,255,255)" stroke-width="3" x1="311" x2="311" y1="428" y2="524" /><line stroke="rgb(255,255,255)" stroke-width="3" x1="592" x2="664" y1="293" y2="293" /><line stroke="rgb(255,255,255)" stroke-width="3" x1="592" x2="664" y1="299" y2="299" /><line stroke="rgb(157,157,157)" stroke-width="9" x1="308" x2="356" y1="620" y2="620" /><line stroke="rgb(199,199,199)" stroke-width="9" x1="532" x2="580" y1="620" y2="620" /><line stroke="rgb(171,171,171)" stroke-width="9" x1="308" x2="356" y1="336" y2="336" /><line stroke="rgb(227,227,227)" stroke-width="9" x1="564" x2="696" y1="408" y2="408" /><line stroke="rgb(150,150,150)" stroke-width="9" x1="456" x2="512" y1="296" y2="296" /><g><image height="56px" transform="translate(456,283) rotate(180,28,28)" width="56px" xlink:href="asset_data/double_door.svg" /></g><g><image height="90px" preserveAspectRatio="none" transform="rotate(270,659.0,509.0)" width="120px" x="599" xlink:href="asset_data/sofa.svg" y="464" /></g><g><image height="70px" preserveAspectRatio="none" transform="rotate(90,375.0,478.0)" width="110px" x="320" xlink:href="asset_data/dinning-table.svg" y="443" /></g><g><image height="48px" transform="translate(308,620) rotate(0,24,24)" width="48px" xlink:href="asset_data/right_door.svg" /></g><g><image height="90px" preserveAspectRatio="none" transform="rotate(180,439,769)" width="110px" x="384" xlink:href="asset_data/bed.svg" y="724" /></g><g><image height="10px" preserveAspectRatio="none" transform="rotate(0,522,718)" width="10px" x="517" xlink:href="asset_data/closet_vert_vert.svg" y="713" /></g><g><image height="48px" transform="translate(532,620) rotate(0,24,24)" width="48px" xlink:href="asset_data/right_door.svg" /></g><g><image height="90px" preserveAspectRatio="none" transform="rotate(90,669,725)" width="110px" x="614" xlink:href="asset_data/bed.svg" y="680" /></g><g><image height="10px" preserveAspectRatio="none" transform="rotate(180,631,806)" width="10px" x="626" xlink:href="asset_data/closet_vert_vert.svg" y="801" /></g><g><image height="48px" transform="translate(308,288) rotate(180,24,24)" width="48px" xlink:href="asset_data/left_door.svg" /></g><g><image height="35px" preserveAspectRatio="none" transform="rotate(0,412.5,231.5)" width="35px" x="395" xlink:href="asset_data/sink.svg" y="214" /></g><g><image height="40px" preserveAspectRatio="none" transform="rotate(270,330.0,234.0)" width="40px" x="310" xlink:href="asset_data/toilet.svg" y="214" /></g><g><image height="38px" preserveAspectRatio="none" transform="rotate(90,411.0,275.0)" width="38px" x="392" xlink:href="asset_data/shower.svg" y="256" /></g><g><image height="132px" transform="translate(564,342) rotate(0,66,66)" width="132px" xlink:href="asset_data/sliding_door.svg" /></g><text fill="black" font-family="Helvetica" font-size="18" x="420" y="718">MR</text><text fill="black" font-family="Helvetica" font-size="18" x="626" y="718">BR</text><text fill="black" font-family="Helvetica" font-size="18" x="374" y="274">Bt</text><text fill="black" font-family="Helvetica" font-size="18" x="514" y="478">LR</text><text fill="black" font-family="Helvetica" font-size="18" x="630" y="352">St</text><text fill="black" font-family="Helvetica" font-size="28" x="850" y="35">LR: Living Room</text><text fill="black" font-family="Helvetica" font-size="28" x="850" y="85">MR: Master Room</text><text fill="black" font-family="Helvetica" font-size="28" x="850" y="135">Ki: Kitchen</text><text fill="black" font-family="Helvetica" font-size="28" x="850" y="185">Ba: Bathroom</text><text fill="black" font-family="Helvetica" font-size="28" x="850" y="235">Be: Bedroom</text><text fill="black" font-family="Helvetica" font-size="28" x="850" y="285">Bl: Balcony</text></svg>