<?xml version="1.0" encoding="utf-8" ?>
<svg baseProfile="tiny" height="1080px" version="1.2" viewBox="0 0 1080 1080" width="1080px" xmlns="http://www.w3.org/2000/svg" xmlns:ev="http://www.w3.org/2001/xml-events" xmlns:xlink="http://www.w3.org/1999/xlink"><defs /><rect fill="white" height="1080px" width="1080px" x="0" y="0" /><polygon fill="rgb(199,199,199)" points="768,232 616,232 616,388 768,388" stroke="black" stroke-width="9" /><polygon fill="rgb(157,157,157)" points="600,848 768,848 768,548 600,548" stroke="black" stroke-width="9" /><polygon fill="rgb(234,234,234)" points="676,548 768,548 768,388 676,388" stroke="black" stroke-width="9" /><polygon fill="rgb(150,150,150)" points="468,816 600,816 600,548 676,548 676,388 616,388 616,368 372,368 372,528 468,528" stroke="black" stroke-width="9" /><polygon fill="rgb(192,192,192)" points="448,180 260,180 260,368 448,368" stroke="black" stroke-width="9" /><polygon fill="rgb(171,171,171)" points="372,368 260,368 260,528 372,528" stroke="black" stroke-width="9" /><polygon fill="rgb(164,164,164)" points="616,284 448,284 448,368 616,368" stroke="black" stroke-width="9" /><polygon fill="none" points="316,528 260,528 260,180 448,180 448,284 616,284 616,232 768,232 768,848 600,848 600,816 468,816 468,528" stroke="black" stroke-width="9" /><line stroke="rgb(255,255,255)" stroke-width="3" x1="771" x2="771" y1="272" y2="344" /><line stroke="rgb(255,255,255)" stroke-width="3" x1="765" x2="765" y1="272" y2="344" /><line stroke="rgb(255,255,255)" stroke-width="3" x1="771" x2="771" y1="660" y2="732" /><line stroke="rgb(255,255,255)" stroke-width="3" x1="765" x2="765" y1="660" y2="732" /><line stroke="rgb(255,255,255)" stroke-width="3" x1="771" x2="771" y1="432" y2="504" /><line stroke="rgb(255,255,255)" stroke-width="3" x1="765" x2="765" y1="432" y2="504" /><line stroke="rgb(255,255,255)" stroke-width="3" x1="496" x2="568" y1="819" y2="819" /><line stroke="rgb(255,255,255)" stroke-width="3" x1="496" x2="568" y1="813" y2="813" /><line stroke="rgb(255,255,255)" stroke-width="3" x1="465" x2="465" y1="624" y2="720" /><line stroke="rgb(255,255,255)" stroke-width="3" x1="471" x2="471" y1="624" y2="720" /><line stroke="rgb(255,255,255)" stroke-width="3" x1="257" x2="257" y1="236" y2="308" /><line stroke="rgb(255,255,255)" stroke-width="3" x1="263" x2="263" y1="236" y2="308" /><line stroke="rgb(255,255,255)" stroke-width="3" x1="324" x2="364" y1="531" y2="531" /><line stroke="rgb(255,255,255)" stroke-width="3" x1="324" x2="364" y1="525" y2="525" /><line stroke="rgb(255,255,255)" stroke-width="3" x1="496" x2="568" y1="281" y2="281" /><line stroke="rgb(255,255,255)" stroke-width="3" x1="496" x2="568" y1="287" y2="287" /><line stroke="rgb(199,199,199)" stroke-width="9" x1="616" x2="664" y1="388" y2="388" /><line stroke="rgb(157,157,157)" stroke-width="9" x1="600" x2="600" y1="548" y2="596" /><line stroke="rgb(234,234,234)" stroke-width="9" x1="676" x2="676" y1="408" y2="524" /><line stroke="rgb(192,192,192)" stroke-width="9" x1="372" x2="420" y1="368" y2="368" /><line stroke="rgb(171,171,171)" stroke-width="9" x1="372" x2="372" y1="368" y2="416" /><line stroke="rgb(164,164,164)" stroke-width="9" x1="448" x2="496" y1="368" y2="368" /><line stroke="rgb(150,150,150)" stroke-width="9" x1="316" x2="260" y1="528" y2="528" /><g><image height="48px" transform="translate(616,340) rotate(180,24,24)" width="48px" xlink:href="asset_data/left_door.svg" /></g><g><image height="100px" preserveAspectRatio="none" transform="rotate(0,692.0,287.0)" width="110px" x="637" xlink:href="asset_data/bed.svg" y="237" /></g><g><image height="40px" preserveAspectRatio="none" transform="rotate(90,746.0,361.0)" width="80px" x="706" xlink:href="asset_data/closet.svg" y="341" /></g><g><image height="48px" transform="translate(600,548) rotate(270,24,24)" width="48px" xlink:href="asset_data/left_door.svg" /></g><g><image height="100px" preserveAspectRatio="none" transform="rotate(90,711.0,710.0)" width="110px" x="656" xlink:href="asset_data/bed.svg" y="660" /></g><g><image height="40px" preserveAspectRatio="none" transform="rotate(180,689.0,823.0)" width="80px" x="649" xlink:href="asset_data/closet.svg" y="803" /></g><g><image height="56px" transform="translate(260,482) rotate(0,28,28)" width="56px" xlink:href="asset_data/double_door.svg" /></g><g><image height="90px" preserveAspectRatio="none" transform="rotate(90,529.0,669.0)" width="120px" x="469" xlink:href="asset_data/sofa.svg" y="624" /></g><g><image height="70px" preserveAspectRatio="none" transform="rotate(270,609.0,468.0)" width="110px" x="554" xlink:href="asset_data/dinning-table.svg" y="433" /></g><g><image height="48px" transform="translate(372,320) rotate(180,24,24)" width="48px" xlink:href="asset_data/right_door.svg" /></g><g><image height="48px" transform="translate(324,368) rotate(90,24,24)" width="48px" xlink:href="asset_data/right_door.svg" /></g><g><image height="35px" preserveAspectRatio="none" transform="rotate(180,279.5,508.5)" width="35px" x="262" xlink:href="asset_data/sink.svg" y="491" /></g><g><image height="40px" preserveAspectRatio="none" transform="rotate(270,282.0,390.0)" width="40px" x="262" xlink:href="asset_data/toilet.svg" y="370" /></g><g><image height="38px" preserveAspectRatio="none" transform="rotate(90,351.0,507.0)" width="38px" x="332" xlink:href="asset_data/shower.svg" y="488" /></g><g><image height="48px" transform="translate(448,320) rotate(180,24,24)" width="48px" xlink:href="asset_data/left_door.svg" /></g><g><image height="40px" preserveAspectRatio="none" transform="rotate(0,589.0,311.0)" width="40px" x="569" xlink:href="asset_data/stove.svg" y="291" /></g><g><image height="30px" preserveAspectRatio="none" transform="rotate(0,532.5,306.0)" width="35px" x="515" xlink:href="asset_data/kitchen-sink.svg" y="291" /></g><g><image height="28px" preserveAspectRatio="none" transform="rotate(180,595.0,347.0)" width="28px" x="581" xlink:href="asset_data/fridge.svg" y="333" /></g><g><image height="28px" preserveAspectRatio="none" transform="rotate(270,469.0,305.0)" width="28px" x="455" xlink:href="asset_data/dish-washer.svg" y="291" /></g><text fill="black" font-family="Helvetica" font-size="18" x="692" y="310">BedRoom</text><text fill="black" font-family="Helvetica" font-size="18" x="684" y="698">MasterRoom</text><text fill="black" font-family="Helvetica" font-size="18" x="722" y="468">Wall-in</text><text fill="black" font-family="Helvetica" font-size="18" x="494" y="672">LivingRoom</text><text fill="black" font-family="Helvetica" font-size="18" x="354" y="274">BedRoom</text><text fill="black" font-family="Helvetica" font-size="18" x="316" y="448">BathRoom</text><text fill="black" font-family="Helvetica" font-size="18" x="532" y="326">Kitchen</text><text fill="black" font-family="Helvetica" font-size="28" x="850" y="35">LR: Living Room</text><text fill="black" font-family="Helvetica" font-size="28" x="850" y="85">MR: Master Room</text><text fill="black" font-family="Helvetica" font-size="28" x="850" y="135">Ki: Kitchen</text><text fill="black" font-family="Helvetica" font-size="28" x="850" y="185">Ba: Bathroom</text><text fill="black" font-family="Helvetica" font-size="28" x="850" y="235">Be: Bedroom</text><text fill="black" font-family="Helvetica" font-size="28" x="850" y="285">Bl: Balcony</text></svg>