<?xml version="1.0" encoding="utf-8" ?>
<svg baseProfile="tiny" height="1080px" version="1.2" width="1080px" xmlns="http://www.w3.org/2000/svg" xmlns:ev="http://www.w3.org/2001/xml-events" xmlns:xlink="http://www.w3.org/1999/xlink"><defs /><rect fill="white" height="1080px" width="1080px" x="0" y="0" /><polygon fill="rgb(213,213,213)" points="476,852 596,852 596,752 476,752" stroke="black" stroke-width="9" /><polygon fill="rgb(164,164,164)" points="596,852 700,852 700,752 596,752" stroke="black" stroke-width="9" /><polygon fill="rgb(199,199,199)" points="316,752 480,752 480,580 316,580" stroke="black" stroke-width="9" /><polygon fill="rgb(171,171,171)" points="596,580 480,580 480,752 596,752" stroke="black" stroke-width="9" /><polygon fill="rgb(157,157,157)" points="284,580 440,580 440,284 356,284 356,380 244,380 244,492 284,492" stroke="black" stroke-width="9" /><polygon fill="rgb(150,150,150)" points="596,752 784,752 784,276 604,276 604,480 440,480 440,580 596,580" stroke="black" stroke-width="9" /><polygon fill="rgb(199,199,199)" points="464,176 356,176 356,284 440,284 440,480 604,480 604,276 556,276 556,216 464,216" stroke="black" stroke-width="9" /><polygon fill="rgb(213,213,213)" points="784,176 556,176 556,276 784,276" stroke="black" stroke-width="9" /><polygon fill="none" points="764,752 716,752 700,752 700,852 476,852 476,752 316,752 316,580 284,580 284,492 244,492 244,380 356,380 356,176 464,176 464,216 556,216 556,176 784,176 784,752" stroke="black" stroke-width="9" /><line stroke="rgb(255,255,255)" stroke-width="3" x1="488" x2="584" y1="855" y2="855" /><line stroke="rgb(255,255,255)" stroke-width="3" x1="488" x2="584" y1="849" y2="849" /><line stroke="rgb(255,255,255)" stroke-width="3" x1="473" x2="473" y1="760" y2="840" /><line stroke="rgb(255,255,255)" stroke-width="3" x1="479" x2="479" y1="760" y2="840" /><line stroke="rgb(255,255,255)" stroke-width="3" x1="313" x2="313" y1="628" y2="700" /><line stroke="rgb(255,255,255)" stroke-width="3" x1="319" x2="319" y1="628" y2="700" /><line stroke="rgb(255,255,255)" stroke-width="3" x1="264" x2="336" y1="377" y2="377" /><line stroke="rgb(255,255,255)" stroke-width="3" x1="264" x2="336" y1="383" y2="383" /><line stroke="rgb(255,255,255)" stroke-width="3" x1="787" x2="787" y1="464" y2="560" /><line stroke="rgb(255,255,255)" stroke-width="3" x1="781" x2="781" y1="464" y2="560" /><line stroke="rgb(255,255,255)" stroke-width="3" x1="353" x2="353" y1="192" y2="264" /><line stroke="rgb(255,255,255)" stroke-width="3" x1="359" x2="359" y1="192" y2="264" /><line stroke="rgb(255,255,255)" stroke-width="3" x1="576" x2="756" y1="173" y2="173" /><line stroke="rgb(255,255,255)" stroke-width="3" x1="576" x2="756" y1="179" y2="179" /><line stroke="rgb(255,255,255)" stroke-width="3" x1="787" x2="787" y1="184" y2="264" /><line stroke="rgb(255,255,255)" stroke-width="3" x1="781" x2="781" y1="184" y2="264" /><line stroke="rgb(213,213,213)" stroke-width="9" x1="492" x2="576" y1="752" y2="752" /><line stroke="rgb(164,164,164)" stroke-width="9" x1="596" x2="644" y1="752" y2="752" /><line stroke="rgb(199,199,199)" stroke-width="9" x1="440" x2="476" y1="580" y2="580" /><line stroke="rgb(171,171,171)" stroke-width="9" x1="596" x2="596" y1="580" y2="628" /><line stroke="rgb(157,157,157)" stroke-width="9" x1="440" x2="440" y1="480" y2="528" /><line stroke="rgb(199,199,199)" stroke-width="9" x1="440" x2="488" y1="480" y2="480" /><line stroke="rgb(213,213,213)" stroke-width="9" x1="624" x2="756" y1="276" y2="276" /><line stroke="rgb(150,150,150)" stroke-width="9" x1="764" x2="716" y1="752" y2="752" /><g><image height="84px" transform="translate(492,710) rotate(180,42,42)" width="84px" xlink:href="asset_data/sliding_door.svg" /></g><g><image height="25px" preserveAspectRatio="none" transform="rotate(180,542.5,812.0)" width="60px" x="530" xlink:href="asset_data/coffetable.svg" y="782" /></g><g><image height="15px" preserveAspectRatio="none" transform="rotate(0,488.5,839.5)" width="15px" x="481" xlink:href="asset_data/plant.svg" y="832" /></g><g><image height="15px" preserveAspectRatio="none" transform="rotate(0,583.5,839.5)" width="15px" x="576" xlink:href="asset_data/plant.svg" y="832" /></g><g><image height="15px" preserveAspectRatio="none" transform="rotate(0,583.5,764.5)" width="15px" x="576" xlink:href="asset_data/plant.svg" y="757" /></g><g><image height="15px" preserveAspectRatio="none" transform="rotate(0,488.5,764.5)" width="15px" x="481" xlink:href="asset_data/plant.svg" y="757" /></g><g><image height="48px" transform="translate(596,752) rotate(0,24,24)" width="48px" xlink:href="asset_data/right_door.svg" /></g><g><image height="40px" preserveAspectRatio="none" transform="rotate(0,623.0,825.0)" width="40px" x="603" xlink:href="asset_data/stove.svg" y="805" /></g><g><image height="36px" transform="translate(440,580) rotate(0,18,18)" width="36px" xlink:href="asset_data/left_door.svg" /></g><g><image height="70px" preserveAspectRatio="none" transform="rotate(270,359.0,663.0)" width="90px" x="314" xlink:href="asset_data/bed.svg" y="628" /></g><g><image height="48px" transform="translate(548,580) rotate(90,24,24)" width="48px" xlink:href="asset_data/right_door.svg" /></g><g><image height="40px" preserveAspectRatio="none" transform="rotate(270,507.0,607.0)" width="40px" x="487" xlink:href="asset_data/sink.svg" y="587" /></g><g><image height="48px" transform="translate(392,480) rotate(90,24,24)" width="48px" xlink:href="asset_data/left_door.svg" /></g><g><image height="70px" preserveAspectRatio="none" transform="rotate(0,309.0,423.0)" width="90px" x="264" xlink:href="asset_data/bed.svg" y="388" /></g><g><image height="48px" transform="translate(716,714) rotate(0,24,24)" width="48px" xlink:href="asset_data/double_door.svg" /></g><g><image height="48px" transform="translate(440,432) rotate(180,24,24)" width="48px" xlink:href="asset_data/left_door.svg" /></g><g><image height="70px" preserveAspectRatio="none" transform="rotate(270,399.0,227.0)" width="90px" x="354" xlink:href="asset_data/bed.svg" y="192" /></g><g><image height="132px" transform="translate(624,210) rotate(0,66,66)" width="132px" xlink:href="asset_data/sliding_door.svg" /></g><g><image height="25px" preserveAspectRatio="none" transform="rotate(0,657.5,216.0)" width="60px" x="645" xlink:href="asset_data/coffetable.svg" y="186" /></g><g><image height="15px" preserveAspectRatio="none" transform="rotate(0,771.5,188.5)" width="15px" x="764" xlink:href="asset_data/plant.svg" y="181" /></g><g><image height="15px" preserveAspectRatio="none" transform="rotate(0,568.5,188.5)" width="15px" x="561" xlink:href="asset_data/plant.svg" y="181" /></g><g><image height="15px" preserveAspectRatio="none" transform="rotate(0,568.5,263.5)" width="15px" x="561" xlink:href="asset_data/plant.svg" y="256" /></g><g><image height="15px" preserveAspectRatio="none" transform="rotate(0,771.5,263.5)" width="15px" x="764" xlink:href="asset_data/plant.svg" y="256" /></g></svg>