<?xml version="1.0" encoding="utf-8" ?>
<svg baseProfile="tiny" height="1080px" version="1.2" viewBox="0 0 1080 1080" width="1080px" xmlns="http://www.w3.org/2000/svg" xmlns:ev="http://www.w3.org/2001/xml-events" xmlns:xlink="http://www.w3.org/1999/xlink"><defs /><rect fill="white" height="1080px" width="1080px" x="0" y="0" /><polygon fill="rgb(199,199,199)" points="832,736 796,736 796,668 588,668 588,760 688,760 688,804 832,804" stroke="black" stroke-width="9" /><polygon fill="rgb(164,164,164)" points="384,804 588,804 588,668 384,668" stroke="black" stroke-width="9" /><polygon fill="rgb(171,171,171)" points="196,744 384,744 384,668 196,668" stroke="black" stroke-width="9" /><polygon fill="rgb(150,150,150)" points="196,668 796,668 796,472 300,472 300,592 196,592" stroke="black" stroke-width="9" /><polygon fill="rgb(157,157,157)" points="680,224 588,224 588,260 516,260 516,472 796,472 796,444 724,444 724,260 680,260" stroke="black" stroke-width="9" /><polygon fill="rgb(199,199,199)" points="276,456 300,456 300,472 516,472 516,260 276,260" stroke="black" stroke-width="9" /><polygon fill="rgb(213,213,213)" points="516,224 276,224 276,260 516,260" stroke="black" stroke-width="9" /><polygon fill="none" points="300,528 300,472 300,456 276,456 276,224 516,224 516,260 588,260 588,224 680,224 680,260 724,260 724,444 796,444 796,736 832,736 832,804 688,804 688,760 588,760 588,804 384,804 384,744 196,744 196,592 300,592" stroke="black" stroke-width="9" /><line stroke="rgb(255,255,255)" stroke-width="3" x1="724" x2="796" y1="807" y2="807" /><line stroke="rgb(255,255,255)" stroke-width="3" x1="724" x2="796" y1="801" y2="801" /><line stroke="rgb(255,255,255)" stroke-width="3" x1="448" x2="520" y1="807" y2="807" /><line stroke="rgb(255,255,255)" stroke-width="3" x1="448" x2="520" y1="801" y2="801" /><line stroke="rgb(255,255,255)" stroke-width="3" x1="193" x2="193" y1="684" y2="724" /><line stroke="rgb(255,255,255)" stroke-width="3" x1="199" x2="199" y1="684" y2="724" /><line stroke="rgb(255,255,255)" stroke-width="3" x1="799" x2="799" y1="520" y2="616" /><line stroke="rgb(255,255,255)" stroke-width="3" x1="793" x2="793" y1="520" y2="616" /><line stroke="rgb(255,255,255)" stroke-width="3" x1="727" x2="727" y1="316" y2="388" /><line stroke="rgb(255,255,255)" stroke-width="3" x1="721" x2="721" y1="316" y2="388" /><line stroke="rgb(255,255,255)" stroke-width="3" x1="273" x2="273" y1="320" y2="392" /><line stroke="rgb(255,255,255)" stroke-width="3" x1="279" x2="279" y1="320" y2="392" /><line stroke="rgb(255,255,255)" stroke-width="3" x1="300" x2="492" y1="221" y2="221" /><line stroke="rgb(255,255,255)" stroke-width="3" x1="300" x2="492" y1="227" y2="227" /><line stroke="rgb(199,199,199)" stroke-width="9" x1="588" x2="636" y1="668" y2="668" /><line stroke="rgb(164,164,164)" stroke-width="9" x1="384" x2="432" y1="668" y2="668" /><line stroke="rgb(171,171,171)" stroke-width="9" x1="196" x2="244" y1="668" y2="668" /><line stroke="rgb(157,157,157)" stroke-width="9" x1="516" x2="564" y1="472" y2="472" /><line stroke="rgb(199,199,199)" stroke-width="9" x1="300" x2="348" y1="472" y2="472" /><line stroke="rgb(213,213,213)" stroke-width="9" x1="304" x2="484" y1="260" y2="260" /><line stroke="rgb(150,150,150)" stroke-width="9" x1="300" x2="300" y1="528" y2="472" /><g><image height="56px" preserveAspectRatio="none" transform="rotate(90,328.0,500.0)" width="56px" x="300" xlink:href="asset_data/double_door.svg" y="472" /></g><g><image height="120px" preserveAspectRatio="none" transform="rotate(180,750.0,580.0)" width="90px" x="705" xlink:href="asset_data/sofa_rot.svg" y="520" /></g><g><image height="70px" preserveAspectRatio="none" transform="rotate(0,508.0,621.0)" width="110px" x="453" xlink:href="asset_data/dinning-table.svg" y="586" /></g><g><image height="48px" preserveAspectRatio="none" transform="rotate(0,612.0,692.0)" width="48px" x="588" xlink:href="asset_data/right_door.svg" y="668" /></g><g><image height="40px" preserveAspectRatio="none" transform="rotate(0,692,693)" width="80px" x="652" xlink:href="asset_data/closet.svg" y="673" /></g><g><image height="48px" preserveAspectRatio="none" transform="rotate(0,408.0,692.0)" width="48px" x="384" xlink:href="asset_data/right_door.svg" y="668" /></g><g><image height="35px" preserveAspectRatio="none" transform="rotate(180,406.5,781.5)" width="35px" x="389" xlink:href="asset_data/stove.svg" y="764" /></g><g><image height="35px" preserveAspectRatio="none" transform="rotate(180,568.0,781.5)" width="30px" x="553" xlink:href="asset_data/kitchen-sink_rot.svg" y="764" /></g><g><image height="28px" preserveAspectRatio="none" transform="rotate(90,486.0,785.0)" width="28px" x="472" xlink:href="asset_data/fridge_rot.svg" y="771" /></g><g><image height="28px" preserveAspectRatio="none" transform="rotate(0,569.0,736.0)" width="28px" x="555" xlink:href="asset_data/dish-washer_rot.svg" y="722" /></g><g><image height="48px" preserveAspectRatio="none" transform="rotate(0,220.0,692.0)" width="48px" x="196" xlink:href="asset_data/right_door.svg" y="668" /></g><g><image height="40px" preserveAspectRatio="none" transform="rotate(0,359.0,719.0)" width="40px" x="339" xlink:href="asset_data/toilet_rot.svg" y="699" /></g><g><image height="35px" preserveAspectRatio="none" transform="rotate(180,290.5,721.5)" width="35px" x="273" xlink:href="asset_data/shower.svg" y="704" /></g><g><image height="48px" preserveAspectRatio="none" transform="rotate(180,540.0,448.0)" width="48px" x="516" xlink:href="asset_data/left_door.svg" y="424" /></g><g><image height="110px" preserveAspectRatio="none" transform="rotate(0,674,371)" width="90px" x="629" xlink:href="asset_data/bed_rot.svg" y="316" /></g><g><image height="40px" preserveAspectRatio="none" transform="rotate(0,634,249)" width="80px" x="594" xlink:href="asset_data/closet.svg" y="229" /></g><g><image height="48px" preserveAspectRatio="none" transform="rotate(180,324.0,448.0)" width="48px" x="300" xlink:href="asset_data/left_door.svg" y="424" /></g><g><image height="90px" preserveAspectRatio="none" transform="rotate(180,413,422)" width="110px" x="358" xlink:href="asset_data/bed.svg" y="377" /></g><g><image height="80px" preserveAspectRatio="none" transform="rotate(0,491,366)" width="40px" x="471" xlink:href="asset_data/closet_rot.svg" y="326" /></g><g><image height="10px" preserveAspectRatio="none" transform="rotate(0,394.0,260.0)" width="180px" x="304" xlink:href="asset_data/sliding_door.svg" y="255" /></g><g><image height="15px" preserveAspectRatio="none" transform="rotate(0,396.0,241.5)" width="50px" x="371" xlink:href="asset_data/coffetable.svg" y="234" /></g><g><image height="15px" preserveAspectRatio="none" transform="rotate(0,503.5,236.5)" width="15px" x="496" xlink:href="asset_data/plant.svg" y="229" /></g><g><image height="15px" preserveAspectRatio="none" transform="rotate(0,288.5,236.5)" width="15px" x="281" xlink:href="asset_data/plant.svg" y="229" /></g><g><image height="15px" preserveAspectRatio="none" transform="rotate(0,288.5,247.5)" width="15px" x="281" xlink:href="asset_data/plant.svg" y="240" /></g><g><image height="15px" preserveAspectRatio="none" transform="rotate(0,503.5,247.5)" width="15px" x="496" xlink:href="asset_data/plant.svg" y="240" /></g><text fill="black" font-family="Helvetica" font-size="18" x="692" y="714">BR</text><text fill="black" font-family="Helvetica" font-size="18" x="486" y="736">Kc</text><text fill="black" font-family="Helvetica" font-size="18" x="290" y="706">Bt</text><text fill="black" font-family="Helvetica" font-size="18" x="496" y="570">LR</text><text fill="black" font-family="Helvetica" font-size="18" x="656" y="366">MR</text><text fill="black" font-family="Helvetica" font-size="18" x="396" y="366">BR</text><text fill="black" font-family="Helvetica" font-size="18" x="396" y="242">Bl</text><text fill="black" font-family="Helvetica" font-size="28" x="850" y="35">LR: Living Room</text><text fill="black" font-family="Helvetica" font-size="28" x="850" y="85">MR: Master Room</text><text fill="black" font-family="Helvetica" font-size="28" x="850" y="135">Ki: Kitchen</text><text fill="black" font-family="Helvetica" font-size="28" x="850" y="185">Ba: Bathroom</text><text fill="black" font-family="Helvetica" font-size="28" x="850" y="235">Be: Bedroom</text><text fill="black" font-family="Helvetica" font-size="28" x="850" y="285">Bl: Balcony</text></svg>