<svg xmlns="http://www.w3.org/2000/svg" version="1.1" viewBox="171.86 140.23 456.23 319.65">
<path d="M172.11 140.48L627.84 140.48" fill="none" stroke="black" stroke-width="4.0"/>
<path d="M174.6 142.96L259.39 142.96" fill="none" stroke="black" stroke-width="4.0"/>
<path d="M261.88 142.96L538.08 142.96" fill="none" stroke="black" stroke-width="4.0"/>
<path d="M540.57 142.96L625.36 142.96" fill="none" stroke="black" stroke-width="4.0"/>
<path d="M174.6 153.32L259.39 153.32" fill="none" stroke="black" stroke-width="4.0"/>
<path d="M540.57 153.32L625.36 153.32" fill="none" stroke="black" stroke-width="4.0"/>
<path d="M172.11 155.81L627.84 155.81" fill="none" stroke="black" stroke-width="4.0"/>
<path d="M627.84 155.81L627.84 140.48Z" fill="none" stroke="black" stroke-width="4.0"/>
<path d="M625.36 153.32L625.36 142.96Z" fill="none" stroke="black" stroke-width="4.0"/>
<path d="M172.11 155.81L172.11 140.48Z" fill="none" stroke="black" stroke-width="4.0"/>
<path d="M174.6 153.32L174.6 142.96Z" fill="none" stroke="black" stroke-width="4.0"/>
<path d="M538.08 155.81L538.08 142.96Z" fill="none" stroke="black" stroke-width="4.0"/>
<path d="M540.57 153.32L540.57 142.96Z" fill="none" stroke="black" stroke-width="4.0"/>
<path d="M261.88 155.81L261.88 142.96Z" fill="none" stroke="black" stroke-width="4.0"/>
<path d="M259.39 153.32L259.39 142.96Z" fill="none" stroke="black" stroke-width="4.0"/>
<path d="M624.39 155.81L541.53 155.81" fill="none" stroke="black" stroke-width="4.0"/>
<path d="M541.53 155.81L541.53 231.76Z" fill="none" stroke="black" stroke-width="4.0"/>
<path d="M541.53 231.76L624.39 231.76" fill="none" stroke="black" stroke-width="4.0"/>
<path d="M624.39 231.76L624.39 155.81Z" fill="none" stroke="black" stroke-width="4.0"/>
<path d="M523.98 228.31L521.18 227.8" fill="none" stroke="black" stroke-width="4.0"/>
<path d="M 523.98 228.31 A 6.777 6.777 0 0 0 533.44 224.02" fill="none" stroke="black" stroke-width="4.0"/>
<path d="M 393.48 222.8 A 4.081 4.081 0 0 0 398.05 228.35" fill="none" stroke="black" stroke-width="4.0"/>
<path d="M 404.65 207.48 A 39.811 39.811 0 0 0 393.48 222.8" fill="none" stroke="black" stroke-width="4.0"/>
<path d="M 504.55 165.34 A 749.459 749.459 0 0 0 523.37 164.13" fill="none" stroke="black" stroke-width="4.0"/>
<path d="M 529.91 215.8 A 47.423 47.423 0 0 0 528 180.07" fill="none" stroke="black" stroke-width="4.0"/>
<path d="M 533.44 224.02 A 14.121 14.121 0 0 0 524.86 210.69" fill="none" stroke="black" stroke-width="4.0"/>
<path d="M 407.56 226.43 A 394.115 394.115 0 0 0 408.6 226.54" fill="none" stroke="black" stroke-width="4.0"/>
<path d="M 528 180.07 A 20.586 20.586 0 0 0 535.3 166.68" fill="none" stroke="black" stroke-width="4.0"/>
<path d="M 535.3 166.68 A 7.379 7.379 0 0 0 523.37 164.13" fill="none" stroke="black" stroke-width="4.0"/>
<path d="M 398.05 228.35 A 989.023 989.023 0 0 0 407.56 226.43" fill="none" stroke="black" stroke-width="4.0"/>
<path d="M 399.6 181.55 A 47.423 47.423 0 0 0 399.6 212.59" fill="none" stroke="black" stroke-width="4.0"/>
<path d="M 392.31 168.16 A 20.586 20.586 0 0 0 399.6 181.55" fill="none" stroke="black" stroke-width="4.0"/>
<path d="M 404.24 165.6 A 7.379 7.379 0 0 0 392.31 168.16" fill="none" stroke="black" stroke-width="4.0"/>
<path d="M 443.36 170.59 A 744.479 744.479 0 0 0 504.55 165.34" fill="none" stroke="black" stroke-width="4.0"/>
<path d="M 472.05 168.77 A 3088.627 3088.627 0 0 0 402.76 164.68" fill="none" stroke="black" stroke-width="4.0"/>
<path d="M514.51 245.02L491.95 240.93" fill="none" stroke="black" stroke-width="4.0"/>
<path d="M 514.51 245.02 A 5.693 5.693 0 0 0 522.46 241.42" fill="none" stroke="black" stroke-width="4.0"/>
<path d="M 404.89 240.39 A 3.428 3.428 0 0 0 408.73 245.06" fill="none" stroke="black" stroke-width="4.0"/>
<path d="M 414.28 227.53 A 33.441 33.441 0 0 0 404.89 240.39" fill="none" stroke="black" stroke-width="4.0"/>
<path d="M 498.19 192.13 A 629.546 629.546 0 0 0 513.99 191.11" fill="none" stroke="black" stroke-width="4.0"/>
<path d="M 519.49 234.51 A 39.835 39.835 0 0 0 517.89 204.5" fill="none" stroke="black" stroke-width="4.0"/>
<path d="M 522.46 241.42 A 11.862 11.862 0 0 0 515.25 230.22" fill="none" stroke="black" stroke-width="4.0"/>
<path d="M 416.72 243.44 A 331.057 331.057 0 0 0 498.15 241.59" fill="none" stroke="black" stroke-width="4.0"/>
<path d="M 517.89 204.5 A 17.292 17.292 0 0 0 524.02 193.25" fill="none" stroke="black" stroke-width="4.0"/>
<path d="M 524.02 193.25 A 6.199 6.199 0 0 0 513.99 191.11" fill="none" stroke="black" stroke-width="4.0"/>
<path d="M 408.73 245.06 A 830.78 830.78 0 0 0 416.72 243.44" fill="none" stroke="black" stroke-width="4.0"/>
<path d="M 410.03 205.74 A 39.835 39.835 0 0 0 410.03 231.81" fill="none" stroke="black" stroke-width="4.0"/>
<path d="M 403.9 194.49 A 17.292 17.292 0 0 0 410.03 205.74" fill="none" stroke="black" stroke-width="4.0"/>
<path d="M 413.93 192.35 A 6.199 6.199 0 0 0 403.9 194.49" fill="none" stroke="black" stroke-width="4.0"/>
<path d="M 446.79 196.54 A 625.362 625.362 0 0 0 498.19 192.13" fill="none" stroke="black" stroke-width="4.0"/>
<path d="M 470.89 195 A 2594.446 2594.446 0 0 0 412.69 191.57" fill="none" stroke="black" stroke-width="4.0"/>
<path d="M396.62 229.6L393.82 229.09" fill="none" stroke="black" stroke-width="4.0"/>
<path d="M 396.62 229.6 A 6.777 6.777 0 0 0 405.43 226.87" fill="none" stroke="black" stroke-width="4.0"/>
<path d="M 266.13 224.09 A 4.081 4.081 0 0 0 270.69 229.65" fill="none" stroke="black" stroke-width="4.0"/>
<path d="M 277.3 208.78 A 39.811 39.811 0 0 0 266.13 224.09" fill="none" stroke="black" stroke-width="4.0"/>
<path d="M 377.2 166.64 A 749.459 749.459 0 0 0 394.09 165.56" fill="none" stroke="black" stroke-width="4.0"/>
<path d="M 280.21 227.73 A 394.115 394.115 0 0 0 281.24 227.83" fill="none" stroke="black" stroke-width="4.0"/>
<path d="M 270.69 229.65 A 989.023 989.023 0 0 0 280.21 227.73" fill="none" stroke="black" stroke-width="4.0"/>
<path d="M 272.25 182.84 A 47.423 47.423 0 0 0 272.25 213.88" fill="none" stroke="black" stroke-width="4.0"/>
<path d="M 264.95 169.45 A 20.586 20.586 0 0 0 272.25 182.84" fill="none" stroke="black" stroke-width="4.0"/>
<path d="M 276.88 166.9 A 7.379 7.379 0 0 0 264.95 169.45" fill="none" stroke="black" stroke-width="4.0"/>
<path d="M 316 171.89 A 744.479 744.479 0 0 0 377.2 166.64" fill="none" stroke="black" stroke-width="4.0"/>
<path d="M 344.69 170.06 A 3088.627 3088.627 0 0 0 275.41 165.97" fill="none" stroke="black" stroke-width="4.0"/>
<path d="M387.15 246.31L364.59 242.22" fill="none" stroke="black" stroke-width="4.0"/>
<path d="M 387.15 246.31 A 5.693 5.693 0 0 0 395.1 242.71" fill="none" stroke="black" stroke-width="4.0"/>
<path d="M 277.53 241.69 A 3.428 3.428 0 0 0 281.37 246.35" fill="none" stroke="black" stroke-width="4.0"/>
<path d="M 286.92 228.82 A 33.441 33.441 0 0 0 277.53 241.69" fill="none" stroke="black" stroke-width="4.0"/>
<path d="M 370.84 193.42 A 629.546 629.546 0 0 0 386.64 192.4" fill="none" stroke="black" stroke-width="4.0"/>
<path d="M 392.14 235.8 A 39.835 39.835 0 0 0 394.11 226.95" fill="none" stroke="black" stroke-width="4.0"/>
<path d="M 394.29 220.97 A 39.835 39.835 0 0 0 390.53 205.79" fill="none" stroke="black" stroke-width="4.0"/>
<path d="M 395.1 242.71 A 11.862 11.862 0 0 0 387.89 231.52" fill="none" stroke="black" stroke-width="4.0"/>
<path d="M 289.36 244.74 A 331.057 331.057 0 0 0 370.79 242.88" fill="none" stroke="black" stroke-width="4.0"/>
<path d="M 390.53 205.79 A 17.292 17.292 0 0 0 396.66 194.55" fill="none" stroke="black" stroke-width="4.0"/>
<path d="M 396.66 194.55 A 6.199 6.199 0 0 0 386.64 192.4" fill="none" stroke="black" stroke-width="4.0"/>
<path d="M 281.37 246.35 A 830.78 830.78 0 0 0 289.36 244.74" fill="none" stroke="black" stroke-width="4.0"/>
<path d="M 282.68 207.03 A 39.835 39.835 0 0 0 282.68 233.11" fill="none" stroke="black" stroke-width="4.0"/>
<path d="M 276.55 195.79 A 17.292 17.292 0 0 0 282.68 207.03" fill="none" stroke="black" stroke-width="4.0"/>
<path d="M 286.57 193.64 A 6.199 6.199 0 0 0 276.55 195.79" fill="none" stroke="black" stroke-width="4.0"/>
<path d="M 319.43 197.83 A 625.362 625.362 0 0 0 370.84 193.42" fill="none" stroke="black" stroke-width="4.0"/>
<path d="M 343.53 196.3 A 2594.446 2594.446 0 0 0 285.33 192.86" fill="none" stroke="black" stroke-width="4.0"/>
<path d="M536.7 459.63L538.08 459.63" fill="none" stroke="black" stroke-width="4.0"/>
<path d="M538.08 459.63L538.08 421.95Z" fill="none" stroke="black" stroke-width="4.0"/>
<path d="M538.08 339.06L538.08 155.81Z" fill="none" stroke="black" stroke-width="4.0"/>
<path d="M261.88 422.81L261.88 459.63Z" fill="none" stroke="black" stroke-width="4.0"/>
<path d="M261.88 459.63L263.26 459.63" fill="none" stroke="black" stroke-width="4.0"/>
<path d="M 536.41 307.79 A 808.075 808.075 0 0 0 534.05 339.54" fill="none" stroke="black" stroke-width="4.0"/>
<path d="M 533.74 421.7 A 808.075 808.075 0 0 0 536.41 459.43" fill="none" stroke="black" stroke-width="4.0"/>
<path d="M 264.4 459.43 A 1605.291 1605.291 0 0 0 266.52 422.52" fill="none" stroke="black" stroke-width="4.0"/>
<path d="M 268.16 338.76 A 1605.291 1605.291 0 0 0 264.4 238.74" fill="none" stroke="black" stroke-width="4.0"/>
<path d="M 536.41 459.43 A 2424.015 2424.015 0 0 0 264.4 459.43" fill="none" stroke="black" stroke-width="4.0"/>
<path d="M538.08 459.63L261.88 459.63" fill="none" stroke="black" stroke-width="4.0"/>
<path d="M 264.4 459.43 A 32.354 32.354 0 0 0 273.18 435.81" fill="none" stroke="black" stroke-width="4.0"/>
<path d="M 307.91 453.7 A 113.429 113.429 0 0 0 264.4 459.43" fill="none" stroke="black" stroke-width="4.0"/>
<path d="M 527.63 435.81 A 32.354 32.354 0 0 0 536.41 459.43" fill="none" stroke="black" stroke-width="4.0"/>
<path d="M 536.41 459.43 A 54.45 54.45 0 0 0 506.71 453.7" fill="none" stroke="black" stroke-width="4.0"/>
<path d="M 536.41 307.79 A 116.811 116.811 0 0 0 490.29 242.54" fill="none" stroke="black" stroke-width="4.0"/>
<path d="M 486.86 307.79 A 95.581 95.581 0 0 0 490.29 242.54" fill="none" stroke="black" stroke-width="4.0"/>
<path d="M 486.86 307.79 A 70.142 70.142 0 0 0 490.29 242.54" fill="none" stroke="black" stroke-width="4.0"/>
<path d="M 536.41 307.79 A 66.385 66.385 0 0 0 486.86 307.79" fill="none" stroke="black" stroke-width="4.0"/>
<path d="M 536.41 307.79 A 50.393 50.393 0 0 0 486.86 307.79" fill="none" stroke="black" stroke-width="4.0"/>
<path d="M 527.63 291.04 A 18.495 18.495 0 0 0 502.75 294.53" fill="none" stroke="black" stroke-width="4.0"/>
<path d="M 498.12 293.22 A 29.02 29.02 0 0 0 506.24 265.1" fill="none" stroke="black" stroke-width="4.0"/>
<path d="M 527.4 285.57 A 111.116 111.116 0 0 0 490.29 242.54" fill="none" stroke="black" stroke-width="4.0"/>
<path d="M 536.41 307.79 A 131.698 131.698 0 0 0 527.4 285.57" fill="none" stroke="black" stroke-width="4.0"/>
<path d="M536.41 307.79L538.08 307.79" fill="none" stroke="black" stroke-width="4.0"/>
<path d="M538.08 307.79L538.08 155.81Z" fill="none" stroke="black" stroke-width="4.0"/>
<path d="M538.08 155.81L261.88 155.81" fill="none" stroke="black" stroke-width="4.0"/>
<path d="M261.88 155.81L261.88 238.72Z" fill="none" stroke="black" stroke-width="4.0"/>
<path d="M261.88 238.72L264.4 238.74" fill="none" stroke="black" stroke-width="4.0"/>
<path d="M 279.24 238.14 A 2865.872 2865.872 0 0 0 264.4 238.74" fill="none" stroke="black" stroke-width="4.0"/>
<path d="M 488.19 242.9 A 25.354 25.354 0 0 0 490.29 242.54" fill="none" stroke="black" stroke-width="4.0"/>
<path d="M 486.86 307.79 A 95.118 95.118 0 0 0 491.62 246.7" fill="none" stroke="black" stroke-width="4.0"/>
<path d="M 494.78 268.48 A 57.169 57.169 0 0 0 490.29 242.54" fill="none" stroke="black" stroke-width="4.0"/>
<path d="M 492.32 293.27 A 77.862 77.862 0 0 0 494.78 268.48" fill="none" stroke="black" stroke-width="4.0"/>
<path d="M 486.86 307.79 A 77.862 77.862 0 0 0 492.32 293.27" fill="none" stroke="black" stroke-width="4.0"/>
<path d="M 515.06 301.4 A 50.393 50.393 0 0 0 486.86 307.79" fill="none" stroke="black" stroke-width="4.0"/>
<path d="M 532.2 305.67 A 50.393 50.393 0 0 0 515.06 301.4" fill="none" stroke="black" stroke-width="4.0"/>
<path d="M 536.41 307.79 A 50.406 50.406 0 0 0 532.2 305.67" fill="none" stroke="black" stroke-width="4.0"/>
<path d="M 536.41 307.79 A 131.698 131.698 0 0 0 524.93 281.01" fill="none" stroke="black" stroke-width="4.0"/>
<path d="M 524.93 281.01 A 131.698 131.698 0 0 0 515.37 266.47" fill="none" stroke="black" stroke-width="4.0"/>
<path d="M 515.37 266.47 A 131.698 131.698 0 0 0 506.16 255.57" fill="none" stroke="black" stroke-width="4.0"/>
<path d="M 506.16 255.57 A 75.489 75.489 0 0 0 492.63 243.69" fill="none" stroke="black" stroke-width="4.0"/>
<path d="M 492.63 243.69 A 3.083 3.083 0 0 0 490.29 242.54" fill="none" stroke="black" stroke-width="4.0"/>
<path d="M 538.08 421.95 A 2248.452 2248.452 0 0 0 261.11 422.86" fill="none" stroke="black" stroke-width="4.0"/>
<path d="M 259.75 339.22 A 1426.06 1426.06 0 0 0 384.49 342.14" fill="none" stroke="black" stroke-width="4.0"/>
<path d="M 540.55 389.89 A 224.241 224.241 0 0 0 539.43 339.13" fill="none" stroke="black" stroke-width="4.0"/>
<path d="M 538.08 422.77 A 219.772 219.772 0 0 0 540.55 389.89" fill="none" stroke="black" stroke-width="4.0"/>
<path d="M 259.75 339.22 A 147.989 147.989 0 0 0 258.12 363.23" fill="none" stroke="black" stroke-width="4.0"/>
<path d="M 258.13 362.37 A 496.526 496.526 0 0 0 261.11 422.86" fill="none" stroke="black" stroke-width="4.0"/>
<path d="M 540.12 403.71 A 2248.452 2248.452 0 0 0 261.11 404.5" fill="none" stroke="black" stroke-width="4.0"/>
<path d="M 384.49 342.14 A 1333.247 1333.247 0 0 0 539.43 339.13" fill="none" stroke="black" stroke-width="4.0"/>
<path d="M 541.08 383.03 A 224.241 224.241 0 0 0 541.49 369.22" fill="none" stroke="black" stroke-width="4.0"/>
<path d="M 541.49 369.22 A 2276.072 2276.072 0 0 0 258.1 370.11" fill="none" stroke="black" stroke-width="4.0"/>
<path d="M 258.1 370.11 A 496.526 496.526 0 0 0 258.34 383.94" fill="none" stroke="black" stroke-width="4.0"/>
<path d="M 541.08 383.03 A 2262.262 2262.262 0 0 0 258.34 383.94" fill="none" stroke="black" stroke-width="4.0"/>
<path d="M175.57 155.81L258.43 155.81" fill="none" stroke="black" stroke-width="4.0"/>
<path d="M258.43 155.81L258.43 231.76Z" fill="none" stroke="black" stroke-width="4.0"/>
<path d="M258.43 231.76L175.57 231.76" fill="none" stroke="black" stroke-width="4.0"/>
<path d="M175.57 231.76L175.57 155.81Z" fill="none" stroke="black" stroke-width="4.0"/>
<path d="M582.96 155.81L582.24 155.81" fill="none" stroke="black" stroke-width="4.0"/>
<path d="M261.88 238.72L261.88 339.36Z" fill="none" stroke="black" stroke-width="4.0"/>
<path d="M172.11 140.48L627.84 140.48" fill="none" stroke="black" stroke-width="4.0"/>
<path d="M174.6 142.96L259.39 142.96" fill="none" stroke="black" stroke-width="4.0"/>
<path d="M261.88 142.96L538.08 142.96" fill="none" stroke="black" stroke-width="4.0"/>
<path d="M540.57 142.96L625.36 142.96" fill="none" stroke="black" stroke-width="4.0"/>
<path d="M174.6 153.32L259.39 153.32" fill="none" stroke="black" stroke-width="4.0"/>
<path d="M540.57 153.32L625.36 153.32" fill="none" stroke="black" stroke-width="4.0"/>
<path d="M172.11 155.81L627.84 155.81" fill="none" stroke="black" stroke-width="4.0"/>
<path d="M627.84 155.81L627.84 140.48Z" fill="none" stroke="black" stroke-width="4.0"/>
<path d="M625.36 153.32L625.36 142.96Z" fill="none" stroke="black" stroke-width="4.0"/>
<path d="M172.11 155.81L172.11 140.48Z" fill="none" stroke="black" stroke-width="4.0"/>
<path d="M174.6 153.32L174.6 142.96Z" fill="none" stroke="black" stroke-width="4.0"/>
<path d="M538.08 155.81L538.08 142.96Z" fill="none" stroke="black" stroke-width="4.0"/>
<path d="M540.57 153.32L540.57 142.96Z" fill="none" stroke="black" stroke-width="4.0"/>
<path d="M261.88 155.81L261.88 142.96Z" fill="none" stroke="black" stroke-width="4.0"/>
<path d="M259.39 153.32L259.39 142.96Z" fill="none" stroke="black" stroke-width="4.0"/>
<path d="M624.39 155.81L541.53 155.81" fill="none" stroke="black" stroke-width="4.0"/>
<path d="M541.53 155.81L541.53 231.76Z" fill="none" stroke="black" stroke-width="4.0"/>
<path d="M541.53 231.76L624.39 231.76" fill="none" stroke="black" stroke-width="4.0"/>
<path d="M624.39 231.76L624.39 155.81Z" fill="none" stroke="black" stroke-width="4.0"/>
<path d="M523.98 228.31L521.18 227.8" fill="none" stroke="black" stroke-width="4.0"/>
<path d="M 523.98 228.31 A 6.777 6.777 0 0 0 533.44 224.02" fill="none" stroke="black" stroke-width="4.0"/>
<path d="M 393.48 222.8 A 4.081 4.081 0 0 0 398.05 228.35" fill="none" stroke="black" stroke-width="4.0"/>
<path d="M 404.65 207.48 A 39.811 39.811 0 0 0 393.48 222.8" fill="none" stroke="black" stroke-width="4.0"/>
<path d="M 504.55 165.34 A 749.459 749.459 0 0 0 523.37 164.13" fill="none" stroke="black" stroke-width="4.0"/>
<path d="M 529.91 215.8 A 47.423 47.423 0 0 0 528 180.07" fill="none" stroke="black" stroke-width="4.0"/>
<path d="M 533.44 224.02 A 14.121 14.121 0 0 0 524.86 210.69" fill="none" stroke="black" stroke-width="4.0"/>
<path d="M 407.56 226.43 A 394.115 394.115 0 0 0 408.6 226.54" fill="none" stroke="black" stroke-width="4.0"/>
<path d="M 528 180.07 A 20.586 20.586 0 0 0 535.3 166.68" fill="none" stroke="black" stroke-width="4.0"/>
<path d="M 535.3 166.68 A 7.379 7.379 0 0 0 523.37 164.13" fill="none" stroke="black" stroke-width="4.0"/>
<path d="M 398.05 228.35 A 989.023 989.023 0 0 0 407.56 226.43" fill="none" stroke="black" stroke-width="4.0"/>
<path d="M 399.6 181.55 A 47.423 47.423 0 0 0 399.6 212.59" fill="none" stroke="black" stroke-width="4.0"/>
<path d="M 392.31 168.16 A 20.586 20.586 0 0 0 399.6 181.55" fill="none" stroke="black" stroke-width="4.0"/>
<path d="M 404.24 165.6 A 7.379 7.379 0 0 0 392.31 168.16" fill="none" stroke="black" stroke-width="4.0"/>
<path d="M 443.36 170.59 A 744.479 744.479 0 0 0 504.55 165.34" fill="none" stroke="black" stroke-width="4.0"/>
<path d="M 472.05 168.77 A 3088.627 3088.627 0 0 0 402.76 164.68" fill="none" stroke="black" stroke-width="4.0"/>
<path d="M514.51 245.02L491.95 240.93" fill="none" stroke="black" stroke-width="4.0"/>
<path d="M 514.51 245.02 A 5.693 5.693 0 0 0 522.46 241.42" fill="none" stroke="black" stroke-width="4.0"/>
<path d="M 404.89 240.39 A 3.428 3.428 0 0 0 408.73 245.06" fill="none" stroke="black" stroke-width="4.0"/>
<path d="M 414.28 227.53 A 33.441 33.441 0 0 0 404.89 240.39" fill="none" stroke="black" stroke-width="4.0"/>
<path d="M 498.19 192.13 A 629.546 629.546 0 0 0 513.99 191.11" fill="none" stroke="black" stroke-width="4.0"/>
<path d="M 519.49 234.51 A 39.835 39.835 0 0 0 517.89 204.5" fill="none" stroke="black" stroke-width="4.0"/>
<path d="M 522.46 241.42 A 11.862 11.862 0 0 0 515.25 230.22" fill="none" stroke="black" stroke-width="4.0"/>
<path d="M 416.72 243.44 A 331.057 331.057 0 0 0 498.15 241.59" fill="none" stroke="black" stroke-width="4.0"/>
<path d="M 517.89 204.5 A 17.292 17.292 0 0 0 524.02 193.25" fill="none" stroke="black" stroke-width="4.0"/>
<path d="M 524.02 193.25 A 6.199 6.199 0 0 0 513.99 191.11" fill="none" stroke="black" stroke-width="4.0"/>
<path d="M 408.73 245.06 A 830.78 830.78 0 0 0 416.72 243.44" fill="none" stroke="black" stroke-width="4.0"/>
<path d="M 410.03 205.74 A 39.835 39.835 0 0 0 410.03 231.81" fill="none" stroke="black" stroke-width="4.0"/>
<path d="M 403.9 194.49 A 17.292 17.292 0 0 0 410.03 205.74" fill="none" stroke="black" stroke-width="4.0"/>
<path d="M 413.93 192.35 A 6.199 6.199 0 0 0 403.9 194.49" fill="none" stroke="black" stroke-width="4.0"/>
<path d="M 446.79 196.54 A 625.362 625.362 0 0 0 498.19 192.13" fill="none" stroke="black" stroke-width="4.0"/>
<path d="M 470.89 195 A 2594.446 2594.446 0 0 0 412.69 191.57" fill="none" stroke="black" stroke-width="4.0"/>
<path d="M396.62 229.6L393.82 229.09" fill="none" stroke="black" stroke-width="4.0"/>
<path d="M 396.62 229.6 A 6.777 6.777 0 0 0 405.43 226.87" fill="none" stroke="black" stroke-width="4.0"/>
<path d="M 266.13 224.09 A 4.081 4.081 0 0 0 270.69 229.65" fill="none" stroke="black" stroke-width="4.0"/>
<path d="M 277.3 208.78 A 39.811 39.811 0 0 0 266.13 224.09" fill="none" stroke="black" stroke-width="4.0"/>
<path d="M 377.2 166.64 A 749.459 749.459 0 0 0 394.09 165.56" fill="none" stroke="black" stroke-width="4.0"/>
<path d="M 280.21 227.73 A 394.115 394.115 0 0 0 281.24 227.83" fill="none" stroke="black" stroke-width="4.0"/>
<path d="M 270.69 229.65 A 989.023 989.023 0 0 0 280.21 227.73" fill="none" stroke="black" stroke-width="4.0"/>
<path d="M 272.25 182.84 A 47.423 47.423 0 0 0 272.25 213.88" fill="none" stroke="black" stroke-width="4.0"/>
<path d="M 264.95 169.45 A 20.586 20.586 0 0 0 272.25 182.84" fill="none" stroke="black" stroke-width="4.0"/>
<path d="M 276.88 166.9 A 7.379 7.379 0 0 0 264.95 169.45" fill="none" stroke="black" stroke-width="4.0"/>
<path d="M 316 171.89 A 744.479 744.479 0 0 0 377.2 166.64" fill="none" stroke="black" stroke-width="4.0"/>
<path d="M 344.69 170.06 A 3088.627 3088.627 0 0 0 275.41 165.97" fill="none" stroke="black" stroke-width="4.0"/>
<path d="M387.15 246.31L364.59 242.22" fill="none" stroke="black" stroke-width="4.0"/>
<path d="M 387.15 246.31 A 5.693 5.693 0 0 0 395.1 242.71" fill="none" stroke="black" stroke-width="4.0"/>
<path d="M 277.53 241.69 A 3.428 3.428 0 0 0 281.37 246.35" fill="none" stroke="black" stroke-width="4.0"/>
<path d="M 286.92 228.82 A 33.441 33.441 0 0 0 277.53 241.69" fill="none" stroke="black" stroke-width="4.0"/>
<path d="M 370.84 193.42 A 629.546 629.546 0 0 0 386.64 192.4" fill="none" stroke="black" stroke-width="4.0"/>
<path d="M 392.14 235.8 A 39.835 39.835 0 0 0 394.11 226.95" fill="none" stroke="black" stroke-width="4.0"/>
<path d="M 394.29 220.97 A 39.835 39.835 0 0 0 390.53 205.79" fill="none" stroke="black" stroke-width="4.0"/>
<path d="M 395.1 242.71 A 11.862 11.862 0 0 0 387.89 231.52" fill="none" stroke="black" stroke-width="4.0"/>
<path d="M 289.36 244.74 A 331.057 331.057 0 0 0 370.79 242.88" fill="none" stroke="black" stroke-width="4.0"/>
<path d="M 390.53 205.79 A 17.292 17.292 0 0 0 396.66 194.55" fill="none" stroke="black" stroke-width="4.0"/>
<path d="M 396.66 194.55 A 6.199 6.199 0 0 0 386.64 192.4" fill="none" stroke="black" stroke-width="4.0"/>
<path d="M 281.37 246.35 A 830.78 830.78 0 0 0 289.36 244.74" fill="none" stroke="black" stroke-width="4.0"/>
<path d="M 282.68 207.03 A 39.835 39.835 0 0 0 282.68 233.11" fill="none" stroke="black" stroke-width="4.0"/>
<path d="M 276.55 195.79 A 17.292 17.292 0 0 0 282.68 207.03" fill="none" stroke="black" stroke-width="4.0"/>
<path d="M 286.57 193.64 A 6.199 6.199 0 0 0 276.55 195.79" fill="none" stroke="black" stroke-width="4.0"/>
<path d="M 319.43 197.83 A 625.362 625.362 0 0 0 370.84 193.42" fill="none" stroke="black" stroke-width="4.0"/>
<path d="M 343.53 196.3 A 2594.446 2594.446 0 0 0 285.33 192.86" fill="none" stroke="black" stroke-width="4.0"/>
<path d="M536.7 459.63L538.08 459.63" fill="none" stroke="black" stroke-width="4.0"/>
<path d="M538.08 459.63L538.08 421.95Z" fill="none" stroke="black" stroke-width="4.0"/>
<path d="M538.08 339.06L538.08 155.81Z" fill="none" stroke="black" stroke-width="4.0"/>
<path d="M261.88 422.81L261.88 459.63Z" fill="none" stroke="black" stroke-width="4.0"/>
<path d="M261.88 459.63L263.26 459.63" fill="none" stroke="black" stroke-width="4.0"/>
<path d="M 536.41 307.79 A 808.075 808.075 0 0 0 534.05 339.54" fill="none" stroke="black" stroke-width="4.0"/>
<path d="M 533.74 421.7 A 808.075 808.075 0 0 0 536.41 459.43" fill="none" stroke="black" stroke-width="4.0"/>
<path d="M 264.4 459.43 A 1605.291 1605.291 0 0 0 266.52 422.52" fill="none" stroke="black" stroke-width="4.0"/>
<path d="M 268.16 338.76 A 1605.291 1605.291 0 0 0 264.4 238.74" fill="none" stroke="black" stroke-width="4.0"/>
<path d="M 536.41 459.43 A 2424.015 2424.015 0 0 0 264.4 459.43" fill="none" stroke="black" stroke-width="4.0"/>
<path d="M538.08 459.63L261.88 459.63" fill="none" stroke="black" stroke-width="4.0"/>
<path d="M 264.4 459.43 A 32.354 32.354 0 0 0 273.18 435.81" fill="none" stroke="black" stroke-width="4.0"/>
<path d="M 307.91 453.7 A 113.429 113.429 0 0 0 264.4 459.43" fill="none" stroke="black" stroke-width="4.0"/>
<path d="M 527.63 435.81 A 32.354 32.354 0 0 0 536.41 459.43" fill="none" stroke="black" stroke-width="4.0"/>
<path d="M 536.41 459.43 A 54.45 54.45 0 0 0 506.71 453.7" fill="none" stroke="black" stroke-width="4.0"/>
<path d="M 536.41 307.79 A 116.811 116.811 0 0 0 490.29 242.54" fill="none" stroke="black" stroke-width="4.0"/>
<path d="M 486.86 307.79 A 95.581 95.581 0 0 0 490.29 242.54" fill="none" stroke="black" stroke-width="4.0"/>
<path d="M 486.86 307.79 A 70.142 70.142 0 0 0 490.29 242.54" fill="none" stroke="black" stroke-width="4.0"/>
<path d="M 536.41 307.79 A 66.385 66.385 0 0 0 486.86 307.79" fill="none" stroke="black" stroke-width="4.0"/>
<path d="M 536.41 307.79 A 50.393 50.393 0 0 0 486.86 307.79" fill="none" stroke="black" stroke-width="4.0"/>
<path d="M 527.63 291.04 A 18.495 18.495 0 0 0 502.75 294.53" fill="none" stroke="black" stroke-width="4.0"/>
<path d="M 498.12 293.22 A 29.02 29.02 0 0 0 506.24 265.1" fill="none" stroke="black" stroke-width="4.0"/>
<path d="M 527.4 285.57 A 111.116 111.116 0 0 0 490.29 242.54" fill="none" stroke="black" stroke-width="4.0"/>
<path d="M 536.41 307.79 A 131.698 131.698 0 0 0 527.4 285.57" fill="none" stroke="black" stroke-width="4.0"/>
<path d="M536.41 307.79L538.08 307.79" fill="none" stroke="black" stroke-width="4.0"/>
<path d="M538.08 307.79L538.08 155.81Z" fill="none" stroke="black" stroke-width="4.0"/>
<path d="M538.08 155.81L261.88 155.81" fill="none" stroke="black" stroke-width="4.0"/>
<path d="M261.88 155.81L261.88 238.72Z" fill="none" stroke="black" stroke-width="4.0"/>
<path d="M261.88 238.72L264.4 238.74" fill="none" stroke="black" stroke-width="4.0"/>
<path d="M 279.24 238.14 A 2865.872 2865.872 0 0 0 264.4 238.74" fill="none" stroke="black" stroke-width="4.0"/>
<path d="M 488.19 242.9 A 25.354 25.354 0 0 0 490.29 242.54" fill="none" stroke="black" stroke-width="4.0"/>
<path d="M 486.86 307.79 A 95.118 95.118 0 0 0 491.62 246.7" fill="none" stroke="black" stroke-width="4.0"/>
<path d="M 494.78 268.48 A 57.169 57.169 0 0 0 490.29 242.54" fill="none" stroke="black" stroke-width="4.0"/>
<path d="M 492.32 293.27 A 77.862 77.862 0 0 0 494.78 268.48" fill="none" stroke="black" stroke-width="4.0"/>
<path d="M 486.86 307.79 A 77.862 77.862 0 0 0 492.32 293.27" fill="none" stroke="black" stroke-width="4.0"/>
<path d="M 515.06 301.4 A 50.393 50.393 0 0 0 486.86 307.79" fill="none" stroke="black" stroke-width="4.0"/>
<path d="M 532.2 305.67 A 50.393 50.393 0 0 0 515.06 301.4" fill="none" stroke="black" stroke-width="4.0"/>
<path d="M 536.41 307.79 A 50.406 50.406 0 0 0 532.2 305.67" fill="none" stroke="black" stroke-width="4.0"/>
<path d="M 536.41 307.79 A 131.698 131.698 0 0 0 524.93 281.01" fill="none" stroke="black" stroke-width="4.0"/>
<path d="M 524.93 281.01 A 131.698 131.698 0 0 0 515.37 266.47" fill="none" stroke="black" stroke-width="4.0"/>
<path d="M 515.37 266.47 A 131.698 131.698 0 0 0 506.16 255.57" fill="none" stroke="black" stroke-width="4.0"/>
<path d="M 506.16 255.57 A 75.489 75.489 0 0 0 492.63 243.69" fill="none" stroke="black" stroke-width="4.0"/>
<path d="M 492.63 243.69 A 3.083 3.083 0 0 0 490.29 242.54" fill="none" stroke="black" stroke-width="4.0"/>
<path d="M 538.08 421.95 A 2248.452 2248.452 0 0 0 261.11 422.86" fill="none" stroke="black" stroke-width="4.0"/>
<path d="M 259.75 339.22 A 1426.06 1426.06 0 0 0 384.49 342.14" fill="none" stroke="black" stroke-width="4.0"/>
<path d="M 540.55 389.89 A 224.241 224.241 0 0 0 539.43 339.13" fill="none" stroke="black" stroke-width="4.0"/>
<path d="M 538.08 422.77 A 219.772 219.772 0 0 0 540.55 389.89" fill="none" stroke="black" stroke-width="4.0"/>
<path d="M 259.75 339.22 A 147.989 147.989 0 0 0 258.12 363.23" fill="none" stroke="black" stroke-width="4.0"/>
<path d="M 258.13 362.37 A 496.526 496.526 0 0 0 261.11 422.86" fill="none" stroke="black" stroke-width="4.0"/>
<path d="M 540.12 403.71 A 2248.452 2248.452 0 0 0 261.11 404.5" fill="none" stroke="black" stroke-width="4.0"/>
<path d="M 384.49 342.14 A 1333.247 1333.247 0 0 0 539.43 339.13" fill="none" stroke="black" stroke-width="4.0"/>
<path d="M 541.08 383.03 A 224.241 224.241 0 0 0 541.49 369.22" fill="none" stroke="black" stroke-width="4.0"/>
<path d="M 541.49 369.22 A 2276.072 2276.072 0 0 0 258.1 370.11" fill="none" stroke="black" stroke-width="4.0"/>
<path d="M 258.1 370.11 A 496.526 496.526 0 0 0 258.34 383.94" fill="none" stroke="black" stroke-width="4.0"/>
<path d="M 541.08 383.03 A 2262.262 2262.262 0 0 0 258.34 383.94" fill="none" stroke="black" stroke-width="4.0"/>
<path d="M175.57 155.81L258.43 155.81" fill="none" stroke="black" stroke-width="4.0"/>
<path d="M258.43 155.81L258.43 231.76Z" fill="none" stroke="black" stroke-width="4.0"/>
<path d="M258.43 231.76L175.57 231.76" fill="none" stroke="black" stroke-width="4.0"/>
<path d="M175.57 231.76L175.57 155.81Z" fill="none" stroke="black" stroke-width="4.0"/>
<path d="M582.96 155.81L582.24 155.81" fill="none" stroke="black" stroke-width="4.0"/>
<path d="M261.88 238.72L261.88 339.36Z" fill="none" stroke="black" stroke-width="4.0"/>
</svg>