<svg xmlns="http://www.w3.org/2000/svg" xmlns:ev="http://www.w3.org/2001/xml-events" xmlns:xlink="http://www.w3.org/1999/xlink" baseProfile="full" version="1.1" viewBox="-461.63 170.11 323.15 459.73">
	<defs/>
	<path d="M -140.48,172.11 L -140.47999999999996,627.84" fill="none" stroke="black" stroke-width="4.0"/>
	<path d="M -142.96,174.6 L -142.95999999999998,259.39" fill="none" stroke="black" stroke-width="4.0"/>
	<path d="M -142.95999999999998,261.88 L -142.95999999999998,538.08" fill="none" stroke="black" stroke-width="4.0"/>
	<path d="M -142.95999999999998,540.57 L -142.95999999999998,625.36" fill="none" stroke="black" stroke-width="4.0"/>
	<path d="M -153.32,174.6 L -153.31999999999996,259.39" fill="none" stroke="black" stroke-width="4.0"/>
	<path d="M -153.31999999999996,540.57 L -153.31999999999996,625.36" fill="none" stroke="black" stroke-width="4.0"/>
	<path d="M -155.81,172.11 L -155.80999999999997,627.84" fill="none" stroke="black" stroke-width="4.0"/>
	<path d="M -155.80999999999997,627.84 L -140.47999999999996,627.84 L -155.80999999999997,627.84" fill="none" stroke="black" stroke-width="4.0"/>
	<path d="M -153.31999999999996,625.36 L -142.95999999999998,625.36 L -153.31999999999996,625.36" fill="none" stroke="black" stroke-width="4.0"/>
	<path d="M -155.81,172.11 L -140.48,172.11 L -155.81,172.11" fill="none" stroke="black" stroke-width="4.0"/>
	<path d="M -153.32,174.6 L -142.96,174.6 L -153.32,174.6" fill="none" stroke="black" stroke-width="4.0"/>
	<path d="M -155.80999999999997,538.08 L -142.95999999999998,538.08 L -155.80999999999997,538.08" fill="none" stroke="black" stroke-width="4.0"/>
	<path d="M -153.31999999999996,540.57 L -142.95999999999998,540.57 L -153.31999999999996,540.57" fill="none" stroke="black" stroke-width="4.0"/>
	<path d="M -155.80999999999997,261.88 L -142.95999999999998,261.88 L -155.80999999999997,261.88" fill="none" stroke="black" stroke-width="4.0"/>
	<path d="M -153.31999999999996,259.39 L -142.95999999999998,259.39 L -153.31999999999996,259.39" fill="none" stroke="black" stroke-width="4.0"/>
	<path d="M -155.80999999999997,624.39 L -155.80999999999997,541.53" fill="none" stroke="black" stroke-width="4.0"/>
	<path d="M -155.80999999999997,541.53 L -231.75999999999996,541.53 L -155.80999999999997,541.53" fill="none" stroke="black" stroke-width="4.0"/>
	<path d="M -231.75999999999996,541.53 L -231.75999999999996,624.39" fill="none" stroke="black" stroke-width="4.0"/>
	<path d="M -231.75999999999996,624.39 L -155.80999999999997,624.39 L -231.75999999999996,624.39" fill="none" stroke="black" stroke-width="4.0"/>
	<path d="M -228.30999999999997,523.98 L -227.79999999999998,521.18" fill="none" stroke="black" stroke-width="4.0"/>
	<path d="M -228.30999999999997,523.98 A 6.777,6.777 0.0 0,0 -224.01999999999998,533.44" fill="none" stroke="black" stroke-width="4.0"/>
	<path d="M -222.79999999999998,393.48 A 4.081,4.081 0.0 0,0 -228.34999999999997,398.05" fill="none" stroke="black" stroke-width="4.0"/>
	<path d="M -207.47999999999996,404.65 A 39.811,39.811 0.0 0,0 -222.79999999999998,393.48" fill="none" stroke="black" stroke-width="4.0"/>
	<path d="M -165.33999999999997,504.55 A 749.459,749.459 0.0 0,0 -164.12999999999997,523.37" fill="none" stroke="black" stroke-width="4.0"/>
	<path d="M -215.79999999999998,529.91 A 47.423,47.423 0.0 0,0 -180.06999999999996,528.0" fill="none" stroke="black" stroke-width="4.0"/>
	<path d="M -224.01999999999998,533.44 A 14.121,14.121 0.0 0,0 -210.68999999999997,524.86" fill="none" stroke="black" stroke-width="4.0"/>
	<path d="M -226.42999999999998,407.56 A 394.115,394.115 0.0 0,0 -226.53999999999996,408.6" fill="none" stroke="black" stroke-width="4.0"/>
	<path d="M -180.06999999999996,528.0 A 20.586,20.586 0.0 0,0 -166.67999999999998,535.3" fill="none" stroke="black" stroke-width="4.0"/>
	<path d="M -166.67999999999998,535.3 A 7.379,7.379 0.0 0,0 -164.12999999999997,523.37" fill="none" stroke="black" stroke-width="4.0"/>
	<path d="M -228.34999999999997,398.05 A 989.023,989.023 0.0 0,0 -226.42999999999998,407.56" fill="none" stroke="black" stroke-width="4.0"/>
	<path d="M -181.54999999999998,399.6 A 47.423,47.423 0.0 0,0 -212.58999999999997,399.6" fill="none" stroke="black" stroke-width="4.0"/>
	<path d="M -168.15999999999997,392.31 A 20.586,20.586 0.0 0,0 -181.54999999999998,399.6" fill="none" stroke="black" stroke-width="4.0"/>
	<path d="M -165.59999999999997,404.24 A 7.379,7.379 0.0 0,0 -168.15999999999997,392.31" fill="none" stroke="black" stroke-width="4.0"/>
	<path d="M -170.58999999999997,443.36 A 744.479,744.479 0.0 0,0 -165.33999999999997,504.55" fill="none" stroke="black" stroke-width="4.0"/>
	<path d="M -168.76999999999998,472.05 A 3088.627,3088.627 0.0 0,0 -164.67999999999998,402.76" fill="none" stroke="black" stroke-width="4.0"/>
	<path d="M -245.01999999999998,514.51 L -240.92999999999998,491.95" fill="none" stroke="black" stroke-width="4.0"/>
	<path d="M -245.01999999999998,514.51 A 5.693,5.693 0.0 0,0 -241.41999999999996,522.46" fill="none" stroke="black" stroke-width="4.0"/>
	<path d="M -240.38999999999996,404.89 A 3.428,3.428 0.0 0,0 -245.05999999999997,408.73" fill="none" stroke="black" stroke-width="4.0"/>
	<path d="M -227.52999999999997,414.28 A 33.441,33.441 0.0 0,0 -240.38999999999996,404.89" fill="none" stroke="black" stroke-width="4.0"/>
	<path d="M -192.12999999999997,498.19 A 629.546,629.546 0.0 0,0 -191.10999999999999,513.99" fill="none" stroke="black" stroke-width="4.0"/>
	<path d="M -234.50999999999996,519.49 A 39.835,39.835 0.0 0,0 -204.49999999999997,517.89" fill="none" stroke="black" stroke-width="4.0"/>
	<path d="M -241.41999999999996,522.46 A 11.862,11.862 0.0 0,0 -230.21999999999997,515.25" fill="none" stroke="black" stroke-width="4.0"/>
	<path d="M -243.43999999999997,416.72 A 331.057,331.057 0.0 0,0 -241.58999999999997,498.15" fill="none" stroke="black" stroke-width="4.0"/>
	<path d="M -204.49999999999997,517.89 A 17.292,17.292 0.0 0,0 -193.24999999999997,524.02" fill="none" stroke="black" stroke-width="4.0"/>
	<path d="M -193.24999999999997,524.02 A 6.199,6.199 0.0 0,0 -191.10999999999999,513.99" fill="none" stroke="black" stroke-width="4.0"/>
	<path d="M -245.05999999999997,408.73 A 830.78,830.78 0.0 0,0 -243.43999999999997,416.72" fill="none" stroke="black" stroke-width="4.0"/>
	<path d="M -205.73999999999998,410.03 A 39.835,39.835 0.0 0,0 -231.80999999999997,410.03" fill="none" stroke="black" stroke-width="4.0"/>
	<path d="M -194.48999999999998,403.9 A 17.292,17.292 0.0 0,0 -205.73999999999998,410.03" fill="none" stroke="black" stroke-width="4.0"/>
	<path d="M -192.34999999999997,413.93 A 6.199,6.199 0.0 0,0 -194.48999999999998,403.9" fill="none" stroke="black" stroke-width="4.0"/>
	<path d="M -196.53999999999996,446.79 A 625.362,625.362 0.0 0,0 -192.12999999999997,498.19" fill="none" stroke="black" stroke-width="4.0"/>
	<path d="M -194.99999999999997,470.89 A 2594.446,2594.446 0.0 0,0 -191.56999999999996,412.69" fill="none" stroke="black" stroke-width="4.0"/>
	<path d="M -229.59999999999997,396.62 L -229.08999999999997,393.82" fill="none" stroke="black" stroke-width="4.0"/>
	<path d="M -229.59999999999997,396.62 A 6.777,6.777 0.0 0,0 -226.86999999999998,405.43" fill="none" stroke="black" stroke-width="4.0"/>
	<path d="M -224.08999999999997,266.13 A 4.081,4.081 0.0 0,0 -229.64999999999998,270.69" fill="none" stroke="black" stroke-width="4.0"/>
	<path d="M -208.77999999999997,277.3 A 39.811,39.811 0.0 0,0 -224.08999999999997,266.13" fill="none" stroke="black" stroke-width="4.0"/>
	<path d="M -166.63999999999996,377.2 A 749.459,749.459 0.0 0,0 -165.55999999999997,394.09" fill="none" stroke="black" stroke-width="4.0"/>
	<path d="M -227.72999999999996,280.21 A 394.115,394.115 0.0 0,0 -227.82999999999998,281.24" fill="none" stroke="black" stroke-width="4.0"/>
	<path d="M -229.64999999999998,270.69 A 989.023,989.023 0.0 0,0 -227.72999999999996,280.21" fill="none" stroke="black" stroke-width="4.0"/>
	<path d="M -182.83999999999997,272.25 A 47.423,47.423 0.0 0,0 -213.87999999999997,272.25" fill="none" stroke="black" stroke-width="4.0"/>
	<path d="M -169.44999999999996,264.95 A 20.586,20.586 0.0 0,0 -182.83999999999997,272.25" fill="none" stroke="black" stroke-width="4.0"/>
	<path d="M -166.89999999999998,276.88 A 7.379,7.379 0.0 0,0 -169.44999999999996,264.95" fill="none" stroke="black" stroke-width="4.0"/>
	<path d="M -171.88999999999996,316.0 A 744.479,744.479 0.0 0,0 -166.63999999999996,377.2" fill="none" stroke="black" stroke-width="4.0"/>
	<path d="M -170.05999999999997,344.69 A 3088.627,3088.627 0.0 0,0 -165.96999999999997,275.41" fill="none" stroke="black" stroke-width="4.0"/>
	<path d="M -246.30999999999997,387.15 L -242.21999999999997,364.59" fill="none" stroke="black" stroke-width="4.0"/>
	<path d="M -246.30999999999997,387.15 A 5.693,5.693 0.0 0,0 -242.70999999999998,395.1" fill="none" stroke="black" stroke-width="4.0"/>
	<path d="M -241.68999999999997,277.53 A 3.428,3.428 0.0 0,0 -246.34999999999997,281.37" fill="none" stroke="black" stroke-width="4.0"/>
	<path d="M -228.81999999999996,286.92 A 33.441,33.441 0.0 0,0 -241.68999999999997,277.53" fill="none" stroke="black" stroke-width="4.0"/>
	<path d="M -193.41999999999996,370.84 A 629.546,629.546 0.0 0,0 -192.39999999999998,386.64" fill="none" stroke="black" stroke-width="4.0"/>
	<path d="M -235.79999999999998,392.14 A 39.835,39.835 0.0 0,0 -226.94999999999996,394.11" fill="none" stroke="black" stroke-width="4.0"/>
	<path d="M -220.96999999999997,394.29 A 39.835,39.835 0.0 0,0 -205.78999999999996,390.53" fill="none" stroke="black" stroke-width="4.0"/>
	<path d="M -242.70999999999998,395.1 A 11.862,11.862 0.0 0,0 -231.51999999999998,387.89" fill="none" stroke="black" stroke-width="4.0"/>
	<path d="M -244.73999999999998,289.36 A 331.057,331.057 0.0 0,0 -242.87999999999997,370.79" fill="none" stroke="black" stroke-width="4.0"/>
	<path d="M -205.78999999999996,390.53 A 17.292,17.292 0.0 0,0 -194.54999999999998,396.66" fill="none" stroke="black" stroke-width="4.0"/>
	<path d="M -194.54999999999998,396.66 A 6.199,6.199 0.0 0,0 -192.39999999999998,386.64" fill="none" stroke="black" stroke-width="4.0"/>
	<path d="M -246.34999999999997,281.37 A 830.78,830.78 0.0 0,0 -244.73999999999998,289.36" fill="none" stroke="black" stroke-width="4.0"/>
	<path d="M -207.02999999999997,282.68 A 39.835,39.835 0.0 0,0 -233.10999999999999,282.68" fill="none" stroke="black" stroke-width="4.0"/>
	<path d="M -195.78999999999996,276.55 A 17.292,17.292 0.0 0,0 -207.02999999999997,282.68" fill="none" stroke="black" stroke-width="4.0"/>
	<path d="M -193.63999999999996,286.57 A 6.199,6.199 0.0 0,0 -195.78999999999996,276.55" fill="none" stroke="black" stroke-width="4.0"/>
	<path d="M -197.82999999999998,319.43 A 625.362,625.362 0.0 0,0 -193.41999999999996,370.84" fill="none" stroke="black" stroke-width="4.0"/>
	<path d="M -196.29999999999998,343.53 A 2594.446,2594.446 0.0 0,0 -192.85999999999999,285.33" fill="none" stroke="black" stroke-width="4.0"/>
	<path d="M -459.62999999999994,536.7 L -459.62999999999994,538.08" fill="none" stroke="black" stroke-width="4.0"/>
	<path d="M -459.62999999999994,538.08 L -421.94999999999993,538.08 L -459.62999999999994,538.08" fill="none" stroke="black" stroke-width="4.0"/>
	<path d="M -339.05999999999995,538.08 L -155.80999999999997,538.08 L -339.05999999999995,538.08" fill="none" stroke="black" stroke-width="4.0"/>
	<path d="M -422.81,261.88 L -459.63,261.88 L -422.81,261.88" fill="none" stroke="black" stroke-width="4.0"/>
	<path d="M -459.63,261.88 L -459.63,263.26" fill="none" stroke="black" stroke-width="4.0"/>
	<path d="M -307.78999999999996,536.41 A 808.075,808.075 0.0 0,0 -339.53999999999996,534.05" fill="none" stroke="black" stroke-width="4.0"/>
	<path d="M -421.69999999999993,533.74 A 808.075,808.075 0.0 0,0 -459.42999999999995,536.41" fill="none" stroke="black" stroke-width="4.0"/>
	<path d="M -459.43,264.4 A 1605.291,1605.291 0.0 0,0 -422.52,266.52" fill="none" stroke="black" stroke-width="4.0"/>
	<path d="M -338.76,268.16 A 1605.291,1605.291 0.0 0,0 -238.73999999999998,264.4" fill="none" stroke="black" stroke-width="4.0"/>
	<path d="M -459.42999999999995,536.41 A 2424.015,2424.015 0.0 0,0 -459.43,264.4" fill="none" stroke="black" stroke-width="4.0"/>
	<path d="M -459.62999999999994,538.08 L -459.63,261.88" fill="none" stroke="black" stroke-width="4.0"/>
	<path d="M -459.43,264.4 A 32.354,32.354 0.0 0,0 -435.81,273.18" fill="none" stroke="black" stroke-width="4.0"/>
	<path d="M -453.7,307.91 A 113.429,113.429 0.0 0,0 -459.43,264.4" fill="none" stroke="black" stroke-width="4.0"/>
	<path d="M -435.80999999999995,527.63 A 32.354,32.354 0.0 0,0 -459.42999999999995,536.41" fill="none" stroke="black" stroke-width="4.0"/>
	<path d="M -459.42999999999995,536.41 A 54.45,54.45 0.0 0,0 -453.69999999999993,506.71" fill="none" stroke="black" stroke-width="4.0"/>
	<path d="M -307.78999999999996,536.41 A 116.811,116.811 0.0 0,0 -242.53999999999996,490.29" fill="none" stroke="black" stroke-width="4.0"/>
	<path d="M -307.78999999999996,486.86 A 95.581,95.581 0.0 0,0 -242.53999999999996,490.29" fill="none" stroke="black" stroke-width="4.0"/>
	<path d="M -307.78999999999996,486.86 A 70.142,70.142 0.0 0,0 -242.53999999999996,490.29" fill="none" stroke="black" stroke-width="4.0"/>
	<path d="M -307.78999999999996,536.41 A 66.385,66.385 0.0 0,0 -307.78999999999996,486.86" fill="none" stroke="black" stroke-width="4.0"/>
	<path d="M -307.78999999999996,536.41 A 50.393,50.393 0.0 0,0 -307.78999999999996,486.86" fill="none" stroke="black" stroke-width="4.0"/>
	<path d="M -291.03999999999996,527.63 A 18.495,18.495 0.0 0,0 -294.5299999999999,502.75" fill="none" stroke="black" stroke-width="4.0"/>
	<path d="M -293.21999999999997,498.12 A 29.02,29.02 0.0 0,0 -265.09999999999997,506.24" fill="none" stroke="black" stroke-width="4.0"/>
	<path d="M -285.56999999999994,527.4 A 111.116,111.116 0.0 0,0 -242.53999999999996,490.29" fill="none" stroke="black" stroke-width="4.0"/>
	<path d="M -307.78999999999996,536.41 A 131.698,131.698 0.0 0,0 -285.56999999999994,527.4" fill="none" stroke="black" stroke-width="4.0"/>
	<path d="M -307.78999999999996,536.41 L -307.78999999999996,538.08" fill="none" stroke="black" stroke-width="4.0"/>
	<path d="M -307.78999999999996,538.08 L -155.80999999999997,538.08 L -307.78999999999996,538.08" fill="none" stroke="black" stroke-width="4.0"/>
	<path d="M -155.80999999999997,538.08 L -155.80999999999997,261.88" fill="none" stroke="black" stroke-width="4.0"/>
	<path d="M -155.80999999999997,261.88 L -238.71999999999997,261.88 L -155.80999999999997,261.88" fill="none" stroke="black" stroke-width="4.0"/>
	<path d="M -238.71999999999997,261.88 L -238.73999999999998,264.4" fill="none" stroke="black" stroke-width="4.0"/>
	<path d="M -238.13999999999996,279.24 A 2865.872,2865.872 0.0 0,0 -238.73999999999998,264.4" fill="none" stroke="black" stroke-width="4.0"/>
	<path d="M -242.89999999999998,488.19 A 25.354,25.354 0.0 0,0 -242.53999999999996,490.29" fill="none" stroke="black" stroke-width="4.0"/>
	<path d="M -307.78999999999996,486.86 A 95.118,95.118 0.0 0,0 -246.69999999999996,491.62" fill="none" stroke="black" stroke-width="4.0"/>
	<path d="M -268.47999999999996,494.78 A 57.169,57.169 0.0 0,0 -242.53999999999996,490.29" fill="none" stroke="black" stroke-width="4.0"/>
	<path d="M -293.2699999999999,492.32 A 77.862,77.862 0.0 0,0 -268.47999999999996,494.78" fill="none" stroke="black" stroke-width="4.0"/>
	<path d="M -307.78999999999996,486.86 A 77.862,77.862 0.0 0,0 -293.2699999999999,492.32" fill="none" stroke="black" stroke-width="4.0"/>
	<path d="M -301.3999999999999,515.06 A 50.393,50.393 0.0 0,0 -307.78999999999996,486.86" fill="none" stroke="black" stroke-width="4.0"/>
	<path d="M -305.66999999999996,532.2 A 50.393,50.393 0.0 0,0 -301.3999999999999,515.06" fill="none" stroke="black" stroke-width="4.0"/>
	<path d="M -307.78999999999996,536.41 A 50.406,50.406 0.0 0,0 -305.66999999999996,532.2" fill="none" stroke="black" stroke-width="4.0"/>
	<path d="M -307.78999999999996,536.41 A 131.698,131.698 0.0 0,0 -281.00999999999993,524.93" fill="none" stroke="black" stroke-width="4.0"/>
	<path d="M -281.00999999999993,524.93 A 131.698,131.698 0.0 0,0 -266.46999999999997,515.37" fill="none" stroke="black" stroke-width="4.0"/>
	<path d="M -266.46999999999997,515.37 A 131.698,131.698 0.0 0,0 -255.56999999999996,506.16" fill="none" stroke="black" stroke-width="4.0"/>
	<path d="M -255.56999999999996,506.16 A 75.489,75.489 0.0 0,0 -243.68999999999997,492.63" fill="none" stroke="black" stroke-width="4.0"/>
	<path d="M -243.68999999999997,492.63 A 3.083,3.083 0.0 0,0 -242.53999999999996,490.29" fill="none" stroke="black" stroke-width="4.0"/>
	<path d="M -421.94999999999993,538.08 A 2248.452,2248.452 0.0 0,0 -422.86,261.11" fill="none" stroke="black" stroke-width="4.0"/>
	<path d="M -339.22,259.75 A 1426.06,1426.06 0.0 0,0 -342.14,384.49" fill="none" stroke="black" stroke-width="4.0"/>
	<path d="M -389.88999999999993,540.55 A 224.241,224.241 0.0 0,0 -339.12999999999994,539.43" fill="none" stroke="black" stroke-width="4.0"/>
	<path d="M -422.7699999999999,538.08 A 219.772,219.772 0.0 0,0 -389.88999999999993,540.55" fill="none" stroke="black" stroke-width="4.0"/>
	<path d="M -339.22,259.75 A 147.989,147.989 0.0 0,0 -363.23,258.12" fill="none" stroke="black" stroke-width="4.0"/>
	<path d="M -362.37,258.13 A 496.526,496.526 0.0 0,0 -422.86,261.11" fill="none" stroke="black" stroke-width="4.0"/>
	<path d="M -403.7099999999999,540.12 A 2248.452,2248.452 0.0 0,0 -404.5,261.11" fill="none" stroke="black" stroke-width="4.0"/>
	<path d="M -342.14,384.49 A 1333.247,1333.247 0.0 0,0 -339.12999999999994,539.43" fill="none" stroke="black" stroke-width="4.0"/>
	<path d="M -383.0299999999999,541.08 A 224.241,224.241 0.0 0,0 -369.21999999999997,541.49" fill="none" stroke="black" stroke-width="4.0"/>
	<path d="M -369.21999999999997,541.49 A 2276.072,2276.072 0.0 0,0 -370.11,258.1" fill="none" stroke="black" stroke-width="4.0"/>
	<path d="M -370.11,258.1 A 496.526,496.526 0.0 0,0 -383.94,258.34" fill="none" stroke="black" stroke-width="4.0"/>
	<path d="M -383.0299999999999,541.08 A 2262.262,2262.262 0.0 0,0 -383.94,258.34" fill="none" stroke="black" stroke-width="4.0"/>
	<path d="M -155.81,175.57 L -155.80999999999997,258.43" fill="none" stroke="black" stroke-width="4.0"/>
	<path d="M -155.80999999999997,258.43 L -231.75999999999996,258.43 L -155.80999999999997,258.43" fill="none" stroke="black" stroke-width="4.0"/>
	<path d="M -231.75999999999996,258.43 L -231.76,175.57" fill="none" stroke="black" stroke-width="4.0"/>
	<path d="M -231.76,175.57 L -155.81,175.57 L -231.76,175.57" fill="none" stroke="black" stroke-width="4.0"/>
	<path d="M -155.80999999999997,582.96 L -155.80999999999997,582.24" fill="none" stroke="black" stroke-width="4.0"/>
	<path d="M -238.71999999999997,261.88 L -339.36,261.88 L -238.71999999999997,261.88" fill="none" stroke="black" stroke-width="4.0"/>
	<path d="M -140.48,172.11 L -140.47999999999996,627.84" fill="none" stroke="black" stroke-width="4.0"/>
	<path d="M -142.96,174.6 L -142.95999999999998,259.39" fill="none" stroke="black" stroke-width="4.0"/>
	<path d="M -142.95999999999998,261.88 L -142.95999999999998,538.08" fill="none" stroke="black" stroke-width="4.0"/>
	<path d="M -142.95999999999998,540.57 L -142.95999999999998,625.36" fill="none" stroke="black" stroke-width="4.0"/>
	<path d="M -153.32,174.6 L -153.31999999999996,259.39" fill="none" stroke="black" stroke-width="4.0"/>
	<path d="M -153.31999999999996,540.57 L -153.31999999999996,625.36" fill="none" stroke="black" stroke-width="4.0"/>
	<path d="M -155.81,172.11 L -155.80999999999997,627.84" fill="none" stroke="black" stroke-width="4.0"/>
	<path d="M -155.80999999999997,627.84 L -140.47999999999996,627.84 L -155.80999999999997,627.84" fill="none" stroke="black" stroke-width="4.0"/>
	<path d="M -153.31999999999996,625.36 L -142.95999999999998,625.36 L -153.31999999999996,625.36" fill="none" stroke="black" stroke-width="4.0"/>
	<path d="M -155.81,172.11 L -140.48,172.11 L -155.81,172.11" fill="none" stroke="black" stroke-width="4.0"/>
	<path d="M -153.32,174.6 L -142.96,174.6 L -153.32,174.6" fill="none" stroke="black" stroke-width="4.0"/>
	<path d="M -155.80999999999997,538.08 L -142.95999999999998,538.08 L -155.80999999999997,538.08" fill="none" stroke="black" stroke-width="4.0"/>
	<path d="M -153.31999999999996,540.57 L -142.95999999999998,540.57 L -153.31999999999996,540.57" fill="none" stroke="black" stroke-width="4.0"/>
	<path d="M -155.80999999999997,261.88 L -142.95999999999998,261.88 L -155.80999999999997,261.88" fill="none" stroke="black" stroke-width="4.0"/>
	<path d="M -153.31999999999996,259.39 L -142.95999999999998,259.39 L -153.31999999999996,259.39" fill="none" stroke="black" stroke-width="4.0"/>
	<path d="M -155.80999999999997,624.39 L -155.80999999999997,541.53" fill="none" stroke="black" stroke-width="4.0"/>
	<path d="M -155.80999999999997,541.53 L -231.75999999999996,541.53 L -155.80999999999997,541.53" fill="none" stroke="black" stroke-width="4.0"/>
	<path d="M -231.75999999999996,541.53 L -231.75999999999996,624.39" fill="none" stroke="black" stroke-width="4.0"/>
	<path d="M -231.75999999999996,624.39 L -155.80999999999997,624.39 L -231.75999999999996,624.39" fill="none" stroke="black" stroke-width="4.0"/>
	<path d="M -228.30999999999997,523.98 L -227.79999999999998,521.18" fill="none" stroke="black" stroke-width="4.0"/>
	<path d="M -228.30999999999997,523.98 A 6.777,6.777 0.0 0,0 -224.01999999999998,533.44" fill="none" stroke="black" stroke-width="4.0"/>
	<path d="M -222.79999999999998,393.48 A 4.081,4.081 0.0 0,0 -228.34999999999997,398.05" fill="none" stroke="black" stroke-width="4.0"/>
	<path d="M -207.47999999999996,404.65 A 39.811,39.811 0.0 0,0 -222.79999999999998,393.48" fill="none" stroke="black" stroke-width="4.0"/>
	<path d="M -165.33999999999997,504.55 A 749.459,749.459 0.0 0,0 -164.12999999999997,523.37" fill="none" stroke="black" stroke-width="4.0"/>
	<path d="M -215.79999999999998,529.91 A 47.423,47.423 0.0 0,0 -180.06999999999996,528.0" fill="none" stroke="black" stroke-width="4.0"/>
	<path d="M -224.01999999999998,533.44 A 14.121,14.121 0.0 0,0 -210.68999999999997,524.86" fill="none" stroke="black" stroke-width="4.0"/>
	<path d="M -226.42999999999998,407.56 A 394.115,394.115 0.0 0,0 -226.53999999999996,408.6" fill="none" stroke="black" stroke-width="4.0"/>
	<path d="M -180.06999999999996,528.0 A 20.586,20.586 0.0 0,0 -166.67999999999998,535.3" fill="none" stroke="black" stroke-width="4.0"/>
	<path d="M -166.67999999999998,535.3 A 7.379,7.379 0.0 0,0 -164.12999999999997,523.37" fill="none" stroke="black" stroke-width="4.0"/>
	<path d="M -228.34999999999997,398.05 A 989.023,989.023 0.0 0,0 -226.42999999999998,407.56" fill="none" stroke="black" stroke-width="4.0"/>
	<path d="M -181.54999999999998,399.6 A 47.423,47.423 0.0 0,0 -212.58999999999997,399.6" fill="none" stroke="black" stroke-width="4.0"/>
	<path d="M -168.15999999999997,392.31 A 20.586,20.586 0.0 0,0 -181.54999999999998,399.6" fill="none" stroke="black" stroke-width="4.0"/>
	<path d="M -165.59999999999997,404.24 A 7.379,7.379 0.0 0,0 -168.15999999999997,392.31" fill="none" stroke="black" stroke-width="4.0"/>
	<path d="M -170.58999999999997,443.36 A 744.479,744.479 0.0 0,0 -165.33999999999997,504.55" fill="none" stroke="black" stroke-width="4.0"/>
	<path d="M -168.76999999999998,472.05 A 3088.627,3088.627 0.0 0,0 -164.67999999999998,402.76" fill="none" stroke="black" stroke-width="4.0"/>
	<path d="M -245.01999999999998,514.51 L -240.92999999999998,491.95" fill="none" stroke="black" stroke-width="4.0"/>
	<path d="M -245.01999999999998,514.51 A 5.693,5.693 0.0 0,0 -241.41999999999996,522.46" fill="none" stroke="black" stroke-width="4.0"/>
	<path d="M -240.38999999999996,404.89 A 3.428,3.428 0.0 0,0 -245.05999999999997,408.73" fill="none" stroke="black" stroke-width="4.0"/>
	<path d="M -227.52999999999997,414.28 A 33.441,33.441 0.0 0,0 -240.38999999999996,404.89" fill="none" stroke="black" stroke-width="4.0"/>
	<path d="M -192.12999999999997,498.19 A 629.546,629.546 0.0 0,0 -191.10999999999999,513.99" fill="none" stroke="black" stroke-width="4.0"/>
	<path d="M -234.50999999999996,519.49 A 39.835,39.835 0.0 0,0 -204.49999999999997,517.89" fill="none" stroke="black" stroke-width="4.0"/>
	<path d="M -241.41999999999996,522.46 A 11.862,11.862 0.0 0,0 -230.21999999999997,515.25" fill="none" stroke="black" stroke-width="4.0"/>
	<path d="M -243.43999999999997,416.72 A 331.057,331.057 0.0 0,0 -241.58999999999997,498.15" fill="none" stroke="black" stroke-width="4.0"/>
	<path d="M -204.49999999999997,517.89 A 17.292,17.292 0.0 0,0 -193.24999999999997,524.02" fill="none" stroke="black" stroke-width="4.0"/>
	<path d="M -193.24999999999997,524.02 A 6.199,6.199 0.0 0,0 -191.10999999999999,513.99" fill="none" stroke="black" stroke-width="4.0"/>
	<path d="M -245.05999999999997,408.73 A 830.78,830.78 0.0 0,0 -243.43999999999997,416.72" fill="none" stroke="black" stroke-width="4.0"/>
	<path d="M -205.73999999999998,410.03 A 39.835,39.835 0.0 0,0 -231.80999999999997,410.03" fill="none" stroke="black" stroke-width="4.0"/>
	<path d="M -194.48999999999998,403.9 A 17.292,17.292 0.0 0,0 -205.73999999999998,410.03" fill="none" stroke="black" stroke-width="4.0"/>
	<path d="M -192.34999999999997,413.93 A 6.199,6.199 0.0 0,0 -194.48999999999998,403.9" fill="none" stroke="black" stroke-width="4.0"/>
	<path d="M -196.53999999999996,446.79 A 625.362,625.362 0.0 0,0 -192.12999999999997,498.19" fill="none" stroke="black" stroke-width="4.0"/>
	<path d="M -194.99999999999997,470.89 A 2594.446,2594.446 0.0 0,0 -191.56999999999996,412.69" fill="none" stroke="black" stroke-width="4.0"/>
	<path d="M -229.59999999999997,396.62 L -229.08999999999997,393.82" fill="none" stroke="black" stroke-width="4.0"/>
	<path d="M -229.59999999999997,396.62 A 6.777,6.777 0.0 0,0 -226.86999999999998,405.43" fill="none" stroke="black" stroke-width="4.0"/>
	<path d="M -224.08999999999997,266.13 A 4.081,4.081 0.0 0,0 -229.64999999999998,270.69" fill="none" stroke="black" stroke-width="4.0"/>
	<path d="M -208.77999999999997,277.3 A 39.811,39.811 0.0 0,0 -224.08999999999997,266.13" fill="none" stroke="black" stroke-width="4.0"/>
	<path d="M -166.63999999999996,377.2 A 749.459,749.459 0.0 0,0 -165.55999999999997,394.09" fill="none" stroke="black" stroke-width="4.0"/>
	<path d="M -227.72999999999996,280.21 A 394.115,394.115 0.0 0,0 -227.82999999999998,281.24" fill="none" stroke="black" stroke-width="4.0"/>
	<path d="M -229.64999999999998,270.69 A 989.023,989.023 0.0 0,0 -227.72999999999996,280.21" fill="none" stroke="black" stroke-width="4.0"/>
	<path d="M -182.83999999999997,272.25 A 47.423,47.423 0.0 0,0 -213.87999999999997,272.25" fill="none" stroke="black" stroke-width="4.0"/>
	<path d="M -169.44999999999996,264.95 A 20.586,20.586 0.0 0,0 -182.83999999999997,272.25" fill="none" stroke="black" stroke-width="4.0"/>
	<path d="M -166.89999999999998,276.88 A 7.379,7.379 0.0 0,0 -169.44999999999996,264.95" fill="none" stroke="black" stroke-width="4.0"/>
	<path d="M -171.88999999999996,316.0 A 744.479,744.479 0.0 0,0 -166.63999999999996,377.2" fill="none" stroke="black" stroke-width="4.0"/>
	<path d="M -170.05999999999997,344.69 A 3088.627,3088.627 0.0 0,0 -165.96999999999997,275.41" fill="none" stroke="black" stroke-width="4.0"/>
	<path d="M -246.30999999999997,387.15 L -242.21999999999997,364.59" fill="none" stroke="black" stroke-width="4.0"/>
	<path d="M -246.30999999999997,387.15 A 5.693,5.693 0.0 0,0 -242.70999999999998,395.1" fill="none" stroke="black" stroke-width="4.0"/>
	<path d="M -241.68999999999997,277.53 A 3.428,3.428 0.0 0,0 -246.34999999999997,281.37" fill="none" stroke="black" stroke-width="4.0"/>
	<path d="M -228.81999999999996,286.92 A 33.441,33.441 0.0 0,0 -241.68999999999997,277.53" fill="none" stroke="black" stroke-width="4.0"/>
	<path d="M -193.41999999999996,370.84 A 629.546,629.546 0.0 0,0 -192.39999999999998,386.64" fill="none" stroke="black" stroke-width="4.0"/>
	<path d="M -235.79999999999998,392.14 A 39.835,39.835 0.0 0,0 -226.94999999999996,394.11" fill="none" stroke="black" stroke-width="4.0"/>
	<path d="M -220.96999999999997,394.29 A 39.835,39.835 0.0 0,0 -205.78999999999996,390.53" fill="none" stroke="black" stroke-width="4.0"/>
	<path d="M -242.70999999999998,395.1 A 11.862,11.862 0.0 0,0 -231.51999999999998,387.89" fill="none" stroke="black" stroke-width="4.0"/>
	<path d="M -244.73999999999998,289.36 A 331.057,331.057 0.0 0,0 -242.87999999999997,370.79" fill="none" stroke="black" stroke-width="4.0"/>
	<path d="M -205.78999999999996,390.53 A 17.292,17.292 0.0 0,0 -194.54999999999998,396.66" fill="none" stroke="black" stroke-width="4.0"/>
	<path d="M -194.54999999999998,396.66 A 6.199,6.199 0.0 0,0 -192.39999999999998,386.64" fill="none" stroke="black" stroke-width="4.0"/>
	<path d="M -246.34999999999997,281.37 A 830.78,830.78 0.0 0,0 -244.73999999999998,289.36" fill="none" stroke="black" stroke-width="4.0"/>
	<path d="M -207.02999999999997,282.68 A 39.835,39.835 0.0 0,0 -233.10999999999999,282.68" fill="none" stroke="black" stroke-width="4.0"/>
	<path d="M -195.78999999999996,276.55 A 17.292,17.292 0.0 0,0 -207.02999999999997,282.68" fill="none" stroke="black" stroke-width="4.0"/>
	<path d="M -193.63999999999996,286.57 A 6.199,6.199 0.0 0,0 -195.78999999999996,276.55" fill="none" stroke="black" stroke-width="4.0"/>
	<path d="M -197.82999999999998,319.43 A 625.362,625.362 0.0 0,0 -193.41999999999996,370.84" fill="none" stroke="black" stroke-width="4.0"/>
	<path d="M -196.29999999999998,343.53 A 2594.446,2594.446 0.0 0,0 -192.85999999999999,285.33" fill="none" stroke="black" stroke-width="4.0"/>
	<path d="M -459.62999999999994,536.7 L -459.62999999999994,538.08" fill="none" stroke="black" stroke-width="4.0"/>
	<path d="M -459.62999999999994,538.08 L -421.94999999999993,538.08 L -459.62999999999994,538.08" fill="none" stroke="black" stroke-width="4.0"/>
	<path d="M -339.05999999999995,538.08 L -155.80999999999997,538.08 L -339.05999999999995,538.08" fill="none" stroke="black" stroke-width="4.0"/>
	<path d="M -422.81,261.88 L -459.63,261.88 L -422.81,261.88" fill="none" stroke="black" stroke-width="4.0"/>
	<path d="M -459.63,261.88 L -459.63,263.26" fill="none" stroke="black" stroke-width="4.0"/>
	<path d="M -307.78999999999996,536.41 A 808.075,808.075 0.0 0,0 -339.53999999999996,534.05" fill="none" stroke="black" stroke-width="4.0"/>
	<path d="M -421.69999999999993,533.74 A 808.075,808.075 0.0 0,0 -459.42999999999995,536.41" fill="none" stroke="black" stroke-width="4.0"/>
	<path d="M -459.43,264.4 A 1605.291,1605.291 0.0 0,0 -422.52,266.52" fill="none" stroke="black" stroke-width="4.0"/>
	<path d="M -338.76,268.16 A 1605.291,1605.291 0.0 0,0 -238.73999999999998,264.4" fill="none" stroke="black" stroke-width="4.0"/>
	<path d="M -459.42999999999995,536.41 A 2424.015,2424.015 0.0 0,0 -459.43,264.4" fill="none" stroke="black" stroke-width="4.0"/>
	<path d="M -459.62999999999994,538.08 L -459.63,261.88" fill="none" stroke="black" stroke-width="4.0"/>
	<path d="M -459.43,264.4 A 32.354,32.354 0.0 0,0 -435.81,273.18" fill="none" stroke="black" stroke-width="4.0"/>
	<path d="M -453.7,307.91 A 113.429,113.429 0.0 0,0 -459.43,264.4" fill="none" stroke="black" stroke-width="4.0"/>
	<path d="M -435.80999999999995,527.63 A 32.354,32.354 0.0 0,0 -459.42999999999995,536.41" fill="none" stroke="black" stroke-width="4.0"/>
	<path d="M -459.42999999999995,536.41 A 54.45,54.45 0.0 0,0 -453.69999999999993,506.71" fill="none" stroke="black" stroke-width="4.0"/>
	<path d="M -307.78999999999996,536.41 A 116.811,116.811 0.0 0,0 -242.53999999999996,490.29" fill="none" stroke="black" stroke-width="4.0"/>
	<path d="M -307.78999999999996,486.86 A 95.581,95.581 0.0 0,0 -242.53999999999996,490.29" fill="none" stroke="black" stroke-width="4.0"/>
	<path d="M -307.78999999999996,486.86 A 70.142,70.142 0.0 0,0 -242.53999999999996,490.29" fill="none" stroke="black" stroke-width="4.0"/>
	<path d="M -307.78999999999996,536.41 A 66.385,66.385 0.0 0,0 -307.78999999999996,486.86" fill="none" stroke="black" stroke-width="4.0"/>
	<path d="M -307.78999999999996,536.41 A 50.393,50.393 0.0 0,0 -307.78999999999996,486.86" fill="none" stroke="black" stroke-width="4.0"/>
	<path d="M -291.03999999999996,527.63 A 18.495,18.495 0.0 0,0 -294.5299999999999,502.75" fill="none" stroke="black" stroke-width="4.0"/>
	<path d="M -293.21999999999997,498.12 A 29.02,29.02 0.0 0,0 -265.09999999999997,506.24" fill="none" stroke="black" stroke-width="4.0"/>
	<path d="M -285.56999999999994,527.4 A 111.116,111.116 0.0 0,0 -242.53999999999996,490.29" fill="none" stroke="black" stroke-width="4.0"/>
	<path d="M -307.78999999999996,536.41 A 131.698,131.698 0.0 0,0 -285.56999999999994,527.4" fill="none" stroke="black" stroke-width="4.0"/>
	<path d="M -307.78999999999996,536.41 L -307.78999999999996,538.08" fill="none" stroke="black" stroke-width="4.0"/>
	<path d="M -307.78999999999996,538.08 L -155.80999999999997,538.08 L -307.78999999999996,538.08" fill="none" stroke="black" stroke-width="4.0"/>
	<path d="M -155.80999999999997,538.08 L -155.80999999999997,261.88" fill="none" stroke="black" stroke-width="4.0"/>
	<path d="M -155.80999999999997,261.88 L -238.71999999999997,261.88 L -155.80999999999997,261.88" fill="none" stroke="black" stroke-width="4.0"/>
	<path d="M -238.71999999999997,261.88 L -238.73999999999998,264.4" fill="none" stroke="black" stroke-width="4.0"/>
	<path d="M -238.13999999999996,279.24 A 2865.872,2865.872 0.0 0,0 -238.73999999999998,264.4" fill="none" stroke="black" stroke-width="4.0"/>
	<path d="M -242.89999999999998,488.19 A 25.354,25.354 0.0 0,0 -242.53999999999996,490.29" fill="none" stroke="black" stroke-width="4.0"/>
	<path d="M -307.78999999999996,486.86 A 95.118,95.118 0.0 0,0 -246.69999999999996,491.62" fill="none" stroke="black" stroke-width="4.0"/>
	<path d="M -268.47999999999996,494.78 A 57.169,57.169 0.0 0,0 -242.53999999999996,490.29" fill="none" stroke="black" stroke-width="4.0"/>
	<path d="M -293.2699999999999,492.32 A 77.862,77.862 0.0 0,0 -268.47999999999996,494.78" fill="none" stroke="black" stroke-width="4.0"/>
	<path d="M -307.78999999999996,486.86 A 77.862,77.862 0.0 0,0 -293.2699999999999,492.32" fill="none" stroke="black" stroke-width="4.0"/>
	<path d="M -301.3999999999999,515.06 A 50.393,50.393 0.0 0,0 -307.78999999999996,486.86" fill="none" stroke="black" stroke-width="4.0"/>
	<path d="M -305.66999999999996,532.2 A 50.393,50.393 0.0 0,0 -301.3999999999999,515.06" fill="none" stroke="black" stroke-width="4.0"/>
	<path d="M -307.78999999999996,536.41 A 50.406,50.406 0.0 0,0 -305.66999999999996,532.2" fill="none" stroke="black" stroke-width="4.0"/>
	<path d="M -307.78999999999996,536.41 A 131.698,131.698 0.0 0,0 -281.00999999999993,524.93" fill="none" stroke="black" stroke-width="4.0"/>
	<path d="M -281.00999999999993,524.93 A 131.698,131.698 0.0 0,0 -266.46999999999997,515.37" fill="none" stroke="black" stroke-width="4.0"/>
	<path d="M -266.46999999999997,515.37 A 131.698,131.698 0.0 0,0 -255.56999999999996,506.16" fill="none" stroke="black" stroke-width="4.0"/>
	<path d="M -255.56999999999996,506.16 A 75.489,75.489 0.0 0,0 -243.68999999999997,492.63" fill="none" stroke="black" stroke-width="4.0"/>
	<path d="M -243.68999999999997,492.63 A 3.083,3.083 0.0 0,0 -242.53999999999996,490.29" fill="none" stroke="black" stroke-width="4.0"/>
	<path d="M -421.94999999999993,538.08 A 2248.452,2248.452 0.0 0,0 -422.86,261.11" fill="none" stroke="black" stroke-width="4.0"/>
	<path d="M -339.22,259.75 A 1426.06,1426.06 0.0 0,0 -342.14,384.49" fill="none" stroke="black" stroke-width="4.0"/>
	<path d="M -389.88999999999993,540.55 A 224.241,224.241 0.0 0,0 -339.12999999999994,539.43" fill="none" stroke="black" stroke-width="4.0"/>
	<path d="M -422.7699999999999,538.08 A 219.772,219.772 0.0 0,0 -389.88999999999993,540.55" fill="none" stroke="black" stroke-width="4.0"/>
	<path d="M -339.22,259.75 A 147.989,147.989 0.0 0,0 -363.23,258.12" fill="none" stroke="black" stroke-width="4.0"/>
	<path d="M -362.37,258.13 A 496.526,496.526 0.0 0,0 -422.86,261.11" fill="none" stroke="black" stroke-width="4.0"/>
	<path d="M -403.7099999999999,540.12 A 2248.452,2248.452 0.0 0,0 -404.5,261.11" fill="none" stroke="black" stroke-width="4.0"/>
	<path d="M -342.14,384.49 A 1333.247,1333.247 0.0 0,0 -339.12999999999994,539.43" fill="none" stroke="black" stroke-width="4.0"/>
	<path d="M -383.0299999999999,541.08 A 224.241,224.241 0.0 0,0 -369.21999999999997,541.49" fill="none" stroke="black" stroke-width="4.0"/>
	<path d="M -369.21999999999997,541.49 A 2276.072,2276.072 0.0 0,0 -370.11,258.1" fill="none" stroke="black" stroke-width="4.0"/>
	<path d="M -370.11,258.1 A 496.526,496.526 0.0 0,0 -383.94,258.34" fill="none" stroke="black" stroke-width="4.0"/>
	<path d="M -383.0299999999999,541.08 A 2262.262,2262.262 0.0 0,0 -383.94,258.34" fill="none" stroke="black" stroke-width="4.0"/>
	<path d="M -155.81,175.57 L -155.80999999999997,258.43" fill="none" stroke="black" stroke-width="4.0"/>
	<path d="M -155.80999999999997,258.43 L -231.75999999999996,258.43 L -155.80999999999997,258.43" fill="none" stroke="black" stroke-width="4.0"/>
	<path d="M -231.75999999999996,258.43 L -231.76,175.57" fill="none" stroke="black" stroke-width="4.0"/>
	<path d="M -231.76,175.57 L -155.81,175.57 L -231.76,175.57" fill="none" stroke="black" stroke-width="4.0"/>
	<path d="M -155.80999999999997,582.96 L -155.80999999999997,582.24" fill="none" stroke="black" stroke-width="4.0"/>
	<path d="M -238.71999999999997,261.88 L -339.36,261.88 L -238.71999999999997,261.88" fill="none" stroke="black" stroke-width="4.0"/>
</svg>