<svg xmlns="http://www.w3.org/2000/svg" version="1.1" viewBox="113.76 146.7 569.86 308.27">
  <desc>Produce by Acme CAD Converter</desc>
<path d="M123.12 150.6L114.01 150.6" fill="none" stroke="black" stroke-width="4.0"/>
<path d="M114.01 150.6L114.01 410.68Z" fill="none" stroke="black" stroke-width="4.0"/>
<path d="M114.01 410.68L123.12 410.68" fill="none" stroke="black" stroke-width="4.0"/>
<path d="M123.12 410.68L123.12 150.6Z" fill="none" stroke="black" stroke-width="4.0"/>
<path d="M674.26 150.6L683.37 150.6" fill="none" stroke="black" stroke-width="4.0"/>
<path d="M683.37 150.6L683.37 410.22Z" fill="none" stroke="black" stroke-width="4.0"/>
<path d="M683.37 410.22L674.26 410.22" fill="none" stroke="black" stroke-width="4.0"/>
<path d="M674.26 410.22L674.26 150.6Z" fill="none" stroke="black" stroke-width="4.0"/>
<path d="M114.01 146.95L683.37 146.95" fill="none" stroke="black" stroke-width="4.0"/>
<path d="M683.37 146.95L683.37 150.6Z" fill="none" stroke="black" stroke-width="4.0"/>
<path d="M683.37 150.6L114.01 150.6" fill="none" stroke="black" stroke-width="4.0"/>
<path d="M114.01 150.6L114.01 146.95Z" fill="none" stroke="black" stroke-width="4.0"/>
<path d="M306.02 411.13L121.75 411.13" fill="none" stroke="black" stroke-width="4.0"/>
<path d="M121.75 411.13L121.75 420.24Z" fill="none" stroke="black" stroke-width="4.0"/>
<path d="M121.75 420.24L306.02 420.24" fill="none" stroke="black" stroke-width="4.0"/>
<path d="M306.02 420.24L306.02 411.13Z" fill="none" stroke="black" stroke-width="4.0"/>
<path d="M310.8 150.6L301.69 150.6" fill="none" stroke="black" stroke-width="4.0"/>
<path d="M301.69 150.6L301.69 410.68Z" fill="none" stroke="black" stroke-width="4.0"/>
<path d="M301.69 410.68L310.8 410.68" fill="none" stroke="black" stroke-width="4.0"/>
<path d="M310.8 410.68L310.8 150.6Z" fill="none" stroke="black" stroke-width="4.0"/>
<path d="M491.36 411.13L675.62 411.13" fill="none" stroke="black" stroke-width="4.0"/>
<path d="M675.62 411.13L675.62 420.24Z" fill="none" stroke="black" stroke-width="4.0"/>
<path d="M675.62 420.24L491.36 420.24" fill="none" stroke="black" stroke-width="4.0"/>
<path d="M491.36 420.24L491.36 411.13Z" fill="none" stroke="black" stroke-width="4.0"/>
<path d="M490.91 411.13L306.64 411.13" fill="none" stroke="black" stroke-width="4.0"/>
<path d="M306.64 411.13L306.64 420.24Z" fill="none" stroke="black" stroke-width="4.0"/>
<path d="M306.64 420.24L490.91 420.24" fill="none" stroke="black" stroke-width="4.0"/>
<path d="M490.91 420.24L490.91 411.13Z" fill="none" stroke="black" stroke-width="4.0"/>
<path d="M312.62 285.19L672.43 285.19" fill="none" stroke="black" stroke-width="4.0"/>
<path d="M312.62 276.08L672.43 276.08" fill="none" stroke="black" stroke-width="4.0"/>
<path d="M449.49 287.74L428.03 384.31" fill="none" stroke="black" stroke-width="4.0"/>
<path d="M438.44 386.62L460.41 287.74" fill="none" stroke="black" stroke-width="4.0"/>
<path d="M473.77 178.45L452.65 273.53" fill="none" stroke="black" stroke-width="4.0"/>
<path d="M463.56 273.53L484.17 180.77" fill="none" stroke="black" stroke-width="4.0"/>
<path d="M454.98 289.87L459.08 271.4" fill="none" stroke="black" stroke-width="4.0"/>
<path d="M329.62 181.4L352.24 273.53" fill="none" stroke="black" stroke-width="4.0"/>
<path d="M363.21 273.53L339.98 178.86" fill="none" stroke="black" stroke-width="4.0"/>
<path d="M390.24 383.66L366.7 287.74" fill="none" stroke="black" stroke-width="4.0"/>
<path d="M355.73 287.74L379.89 386.2" fill="none" stroke="black" stroke-width="4.0"/>
<path d="M361.35 288.8L357.34 272.47" fill="none" stroke="black" stroke-width="4.0"/>
<path d="M398.19 287.74L410.18 387.9" fill="none" stroke="black" stroke-width="4.0"/>
<path d="M420.76 386.63L408.92 287.74" fill="none" stroke="black" stroke-width="4.0"/>
<path d="M385.11 178.51L396.49 273.53" fill="none" stroke="black" stroke-width="4.0"/>
<path d="M407.22 273.53L395.7 177.25" fill="none" stroke="black" stroke-width="4.0"/>
<path d="M403.75 289.87L401.54 271.4" fill="none" stroke="black" stroke-width="4.0"/>
<path d="M438.44 386.62L428.03 384.31" fill="none" stroke="black" stroke-width="4.0"/>
<path d="M420.76 386.63L410.18 387.9" fill="none" stroke="black" stroke-width="4.0"/>
<path d="M390.24 383.66L379.89 386.2" fill="none" stroke="black" stroke-width="4.0"/>
<path d="M524.96 287.74L503.5 384.31" fill="none" stroke="black" stroke-width="4.0"/>
<path d="M513.91 386.62L535.88 287.74" fill="none" stroke="black" stroke-width="4.0"/>
<path d="M549.24 178.45L528.12 273.53" fill="none" stroke="black" stroke-width="4.0"/>
<path d="M539.04 273.53L559.65 180.77" fill="none" stroke="black" stroke-width="4.0"/>
<path d="M530.45 289.87L534.56 271.4" fill="none" stroke="black" stroke-width="4.0"/>
<path d="M513.91 386.62L503.5 384.31" fill="none" stroke="black" stroke-width="4.0"/>
<path d="M554.83 287.74L533.37 384.31" fill="none" stroke="black" stroke-width="4.0"/>
<path d="M543.78 386.62L565.74 287.74" fill="none" stroke="black" stroke-width="4.0"/>
<path d="M579.11 178.45L557.98 273.53" fill="none" stroke="black" stroke-width="4.0"/>
<path d="M568.9 273.53L589.51 180.77" fill="none" stroke="black" stroke-width="4.0"/>
<path d="M560.32 289.87L564.42 271.4" fill="none" stroke="black" stroke-width="4.0"/>
<path d="M543.78 386.62L533.37 384.31" fill="none" stroke="black" stroke-width="4.0"/>
<path d="M312.62 289.75L310.8 289.75" fill="none" stroke="black" stroke-width="4.0"/>
<path d="M310.8 289.75L310.8 271.53Z" fill="none" stroke="black" stroke-width="4.0"/>
<path d="M310.8 271.53L312.62 271.53" fill="none" stroke="black" stroke-width="4.0"/>
<path d="M312.62 271.53L312.62 289.75Z" fill="none" stroke="black" stroke-width="4.0"/>
<path d="M310.89 276.08L310.89 285.19Z" fill="none" stroke="black" stroke-width="4.0"/>
<path d="M312.39 280.61L311.77 280.57" fill="none" stroke="black" stroke-width="4.0"/>
<path d="M 312.39 280.61 A 0.683 0.683 0 0 0 311.73 279.95" fill="none" stroke="black" stroke-width="4.0"/>
<path d="M 311.73 281.32 A 0.683 0.683 0 0 0 312.39 280.66" fill="none" stroke="black" stroke-width="4.0"/>
<path d="M 311.03 280.66 A 0.683 0.683 0 0 0 311.69 281.32" fill="none" stroke="black" stroke-width="4.0"/>
<path d="M 311.69 279.95 A 0.683 0.683 0 0 0 311.03 280.61" fill="none" stroke="black" stroke-width="4.0"/>
<path d="M311.77 280.57L311.73 279.95" fill="none" stroke="black" stroke-width="4.0"/>
<path d="M311.73 281.32L311.77 280.7" fill="none" stroke="black" stroke-width="4.0"/>
<path d="M311.77 280.7L312.39 280.66" fill="none" stroke="black" stroke-width="4.0"/>
<path d="M311.03 280.66L311.65 280.7" fill="none" stroke="black" stroke-width="4.0"/>
<path d="M311.65 280.7L311.69 281.32" fill="none" stroke="black" stroke-width="4.0"/>
<path d="M311.69 279.95L311.65 280.57" fill="none" stroke="black" stroke-width="4.0"/>
<path d="M311.65 280.57L311.03 280.61" fill="none" stroke="black" stroke-width="4.0"/>
<path d="M312.62 276.08L310.89 276.08" fill="none" stroke="black" stroke-width="4.0"/>
<path d="M310.89 285.19L312.62 285.19" fill="none" stroke="black" stroke-width="4.0"/>
<path d="M311.71 280.64L311.71 280.4Z" fill="none" stroke="black" stroke-width="4.0"/>
<path d="M311.71 280.64L311.47 280.64" fill="none" stroke="black" stroke-width="4.0"/>
<path d="M311.71 280.64L311.95 280.64" fill="none" stroke="black" stroke-width="4.0"/>
<path d="M311.71 280.64L311.71 280.88Z" fill="none" stroke="black" stroke-width="4.0"/>
<path d="M672.43 289.75L674.26 289.75" fill="none" stroke="black" stroke-width="4.0"/>
<path d="M674.26 289.75L674.26 271.53Z" fill="none" stroke="black" stroke-width="4.0"/>
<path d="M674.26 271.53L672.43 271.53" fill="none" stroke="black" stroke-width="4.0"/>
<path d="M672.43 271.53L672.43 289.75Z" fill="none" stroke="black" stroke-width="4.0"/>
<path d="M674.17 276.08L674.17 285.19Z" fill="none" stroke="black" stroke-width="4.0"/>
<path d="M672.66 280.61L673.28 280.57" fill="none" stroke="black" stroke-width="4.0"/>
<path d="M 673.32 279.95 A 0.683 0.683 0 0 0 672.66 280.61" fill="none" stroke="black" stroke-width="4.0"/>
<path d="M 672.66 280.66 A 0.683 0.683 0 0 0 673.32 281.32" fill="none" stroke="black" stroke-width="4.0"/>
<path d="M 673.37 281.32 A 0.683 0.683 0 0 0 674.03 280.66" fill="none" stroke="black" stroke-width="4.0"/>
<path d="M 674.03 280.61 A 0.683 0.683 0 0 0 673.37 279.95" fill="none" stroke="black" stroke-width="4.0"/>
<path d="M673.28 280.57L673.32 279.95" fill="none" stroke="black" stroke-width="4.0"/>
<path d="M673.32 281.32L673.28 280.7" fill="none" stroke="black" stroke-width="4.0"/>
<path d="M673.28 280.7L672.66 280.66" fill="none" stroke="black" stroke-width="4.0"/>
<path d="M674.03 280.66L673.41 280.7" fill="none" stroke="black" stroke-width="4.0"/>
<path d="M673.41 280.7L673.37 281.32" fill="none" stroke="black" stroke-width="4.0"/>
<path d="M673.37 279.95L673.41 280.57" fill="none" stroke="black" stroke-width="4.0"/>
<path d="M673.41 280.57L674.03 280.61" fill="none" stroke="black" stroke-width="4.0"/>
<path d="M672.43 276.08L674.17 276.08" fill="none" stroke="black" stroke-width="4.0"/>
<path d="M674.17 285.19L672.43 285.19" fill="none" stroke="black" stroke-width="4.0"/>
<path d="M673.34 280.64L673.34 280.4Z" fill="none" stroke="black" stroke-width="4.0"/>
<path d="M673.34 280.64L673.58 280.64" fill="none" stroke="black" stroke-width="4.0"/>
<path d="M673.34 280.64L673.11 280.64" fill="none" stroke="black" stroke-width="4.0"/>
<path d="M673.34 280.64L673.34 280.88Z" fill="none" stroke="black" stroke-width="4.0"/>
<path d="M312.62 276.24L672.43 276.24" fill="none" stroke="black" stroke-width="4.0"/>
<path d="M312.62 276.64L672.43 276.64" fill="none" stroke="black" stroke-width="4.0"/>
<path d="M312.62 278.67L672.43 278.67" fill="none" stroke="black" stroke-width="4.0"/>
<path d="M312.62 277.34L672.43 277.34" fill="none" stroke="black" stroke-width="4.0"/>
<path d="M312.62 285.02L672.43 285.02" fill="none" stroke="black" stroke-width="4.0"/>
<path d="M312.62 284.62L672.43 284.62" fill="none" stroke="black" stroke-width="4.0"/>
<path d="M312.62 282.59L672.43 282.59" fill="none" stroke="black" stroke-width="4.0"/>
<path d="M312.62 283.92L672.43 283.92" fill="none" stroke="black" stroke-width="4.0"/>
<path d="M339.98 178.86L329.62 181.4" fill="none" stroke="black" stroke-width="4.0"/>
<path d="M395.7 177.25L385.11 178.51" fill="none" stroke="black" stroke-width="4.0"/>
<path d="M473.77 178.45L484.17 180.77" fill="none" stroke="black" stroke-width="4.0"/>
<path d="M549.24 178.45L559.65 180.77" fill="none" stroke="black" stroke-width="4.0"/>
<path d="M579.11 178.45L589.51 180.77" fill="none" stroke="black" stroke-width="4.0"/>
<path d="M623.34 287.74L601.88 384.31" fill="none" stroke="black" stroke-width="4.0"/>
<path d="M612.29 386.62L634.26 287.74" fill="none" stroke="black" stroke-width="4.0"/>
<path d="M647.62 178.45L626.5 273.53" fill="none" stroke="black" stroke-width="4.0"/>
<path d="M637.42 273.53L658.03 180.77" fill="none" stroke="black" stroke-width="4.0"/>
<path d="M628.83 289.87L632.94 271.4" fill="none" stroke="black" stroke-width="4.0"/>
<path d="M612.29 386.62L601.88 384.31" fill="none" stroke="black" stroke-width="4.0"/>
<path d="M647.62 178.45L658.03 180.77" fill="none" stroke="black" stroke-width="4.0"/>
<path d="M121.75 420.24L303.88 448.88" fill="none" stroke="black" stroke-width="4.0"/>
<path d="M 303.88 448.88 A 182.909 182.909 0 0 0 306.02 420.24" fill="none" stroke="black" stroke-width="4.0"/>
<path d="M306.64 420.24L488.06 452.39" fill="none" stroke="black" stroke-width="4.0"/>
<path d="M 487.63 454.72 A 183.35 183.35 0 0 0 490.91 420.24" fill="none" stroke="black" stroke-width="4.0"/>
<path d="M675.62 420.24L500.32 452.39" fill="none" stroke="black" stroke-width="4.0"/>
<path d="M 491.36 420.24 A 183.35 183.35 0 0 0 494.4 453.51" fill="none" stroke="black" stroke-width="4.0"/>
</svg>