<svg xmlns="http://www.w3.org/2000/svg" version="1.1" viewBox="175.35 140.09 449.34 319.87">
  <desc>Produce by Acme CAD Converter</desc>
<path d="M555.39 259.27L607.18 265.02" fill="none" stroke="black" stroke-width="4.0"/>
<path d="M607.18 265.02L620.12 258.55" fill="none" stroke="black" stroke-width="4.0"/>
<path d="M620.12 258.55L624.44 258.55" fill="none" stroke="black" stroke-width="4.0"/>
<path d="M624.44 258.55L624.44 341.5Z" fill="none" stroke="black" stroke-width="4.0"/>
<path d="M624.44 341.5L620.12 341.5" fill="none" stroke="black" stroke-width="4.0"/>
<path d="M620.12 341.5L607.18 335.03" fill="none" stroke="black" stroke-width="4.0"/>
<path d="M607.18 335.03L555.39 340.79" fill="none" stroke="black" stroke-width="4.0"/>
<path d="M620.12 341.5L620.12 258.55Z" fill="none" stroke="black" stroke-width="4.0"/>
<path d="M358.78 390.66L353.03 442.45" fill="none" stroke="black" stroke-width="4.0"/>
<path d="M353.03 442.45L359.5 455.39" fill="none" stroke="black" stroke-width="4.0"/>
<path d="M359.5 455.39L359.5 459.71Z" fill="none" stroke="black" stroke-width="4.0"/>
<path d="M359.5 459.71L276.54 459.71" fill="none" stroke="black" stroke-width="4.0"/>
<path d="M276.54 459.71L276.54 455.39Z" fill="none" stroke="black" stroke-width="4.0"/>
<path d="M276.54 455.39L283.01 442.45" fill="none" stroke="black" stroke-width="4.0"/>
<path d="M283.01 442.45L277.26 390.66" fill="none" stroke="black" stroke-width="4.0"/>
<path d="M276.54 455.39L359.5 455.39" fill="none" stroke="black" stroke-width="4.0"/>
<path d="M353.03 442.45L283.01 442.45" fill="none" stroke="black" stroke-width="4.0"/>
<path d="M244.65 259.27L192.86 265.02" fill="none" stroke="black" stroke-width="4.0"/>
<path d="M192.86 265.02L179.91 258.55" fill="none" stroke="black" stroke-width="4.0"/>
<path d="M179.91 258.55L175.6 258.55" fill="none" stroke="black" stroke-width="4.0"/>
<path d="M175.6 258.55L175.6 341.51Z" fill="none" stroke="black" stroke-width="4.0"/>
<path d="M175.6 341.51L179.91 341.51" fill="none" stroke="black" stroke-width="4.0"/>
<path d="M179.91 341.51L192.86 335.03" fill="none" stroke="black" stroke-width="4.0"/>
<path d="M192.86 335.03L244.65 340.79" fill="none" stroke="black" stroke-width="4.0"/>
<path d="M179.91 341.51L179.91 258.55Z" fill="none" stroke="black" stroke-width="4.0"/>
<path d="M192.86 265.02L192.86 335.03Z" fill="none" stroke="black" stroke-width="4.0"/>
<path d="M358.78 209.4L353.02 157.61" fill="none" stroke="black" stroke-width="4.0"/>
<path d="M353.02 157.61L359.5 144.66" fill="none" stroke="black" stroke-width="4.0"/>
<path d="M359.5 144.66L359.5 140.34Z" fill="none" stroke="black" stroke-width="4.0"/>
<path d="M359.5 140.34L276.54 140.34" fill="none" stroke="black" stroke-width="4.0"/>
<path d="M276.54 140.34L276.54 144.66Z" fill="none" stroke="black" stroke-width="4.0"/>
<path d="M276.54 144.66L283.01 157.61" fill="none" stroke="black" stroke-width="4.0"/>
<path d="M283.01 157.61L277.26 209.4" fill="none" stroke="black" stroke-width="4.0"/>
<path d="M353.02 157.61L283.01 157.61" fill="none" stroke="black" stroke-width="4.0"/>
<path d="M276.54 144.66L359.5 144.66" fill="none" stroke="black" stroke-width="4.0"/>
<path d="M607.18 265.02L607.18 335.03Z" fill="none" stroke="black" stroke-width="4.0"/>
<path d="M441.26 390.66L447.01 442.45" fill="none" stroke="black" stroke-width="4.0"/>
<path d="M447.01 442.45L440.54 455.39" fill="none" stroke="black" stroke-width="4.0"/>
<path d="M440.54 455.39L440.54 459.71Z" fill="none" stroke="black" stroke-width="4.0"/>
<path d="M440.54 459.71L523.5 459.71" fill="none" stroke="black" stroke-width="4.0"/>
<path d="M523.5 459.71L523.5 455.39Z" fill="none" stroke="black" stroke-width="4.0"/>
<path d="M523.5 455.39L517.02 442.45" fill="none" stroke="black" stroke-width="4.0"/>
<path d="M517.02 442.45L522.78 390.66" fill="none" stroke="black" stroke-width="4.0"/>
<path d="M523.5 455.39L440.54 455.39" fill="none" stroke="black" stroke-width="4.0"/>
<path d="M447.01 442.45L517.02 442.45" fill="none" stroke="black" stroke-width="4.0"/>
<path d="M244.65 209.4L555.39 209.39" fill="none" stroke="black" stroke-width="4.0"/>
<path d="M555.39 209.39L555.39 390.66Z" fill="none" stroke="black" stroke-width="4.0"/>
<path d="M555.39 390.66L244.65 390.66" fill="none" stroke="black" stroke-width="4.0"/>
<path d="M244.65 390.66L244.65 209.4Z" fill="none" stroke="black" stroke-width="4.0"/>
<path d="M441.26 209.4L447.01 157.61" fill="none" stroke="black" stroke-width="4.0"/>
<path d="M447.01 157.61L440.54 144.66" fill="none" stroke="black" stroke-width="4.0"/>
<path d="M440.54 144.66L440.54 140.34Z" fill="none" stroke="black" stroke-width="4.0"/>
<path d="M440.54 140.34L523.5 140.34" fill="none" stroke="black" stroke-width="4.0"/>
<path d="M523.5 140.34L523.5 144.66Z" fill="none" stroke="black" stroke-width="4.0"/>
<path d="M523.5 144.66L517.02 157.61" fill="none" stroke="black" stroke-width="4.0"/>
<path d="M517.02 157.61L522.78 209.39" fill="none" stroke="black" stroke-width="4.0"/>
<path d="M523.5 144.66L440.54 144.66" fill="none" stroke="black" stroke-width="4.0"/>
<path d="M447.01 157.61L517.02 157.61" fill="none" stroke="black" stroke-width="4.0"/>
</svg>