<svg xmlns="http://www.w3.org/2000/svg" xmlns:ev="http://www.w3.org/2001/xml-events" xmlns:xlink="http://www.w3.org/1999/xlink" baseProfile="full" version="1.1" viewBox="-461.71 173.6 323.37 452.84">
	<defs/>
	<path d="M -259.2699999999999,555.39 L -265.0199999999999,607.18" fill="none" stroke="black" stroke-width="4.0"/>
	<path d="M -265.0199999999999,607.18 L -258.54999999999995,620.12" fill="none" stroke="black" stroke-width="4.0"/>
	<path d="M -258.54999999999995,620.12 L -258.54999999999995,624.44" fill="none" stroke="black" stroke-width="4.0"/>
	<path d="M -258.54999999999995,624.44 L -341.49999999999994,624.44 L -258.54999999999995,624.44" fill="none" stroke="black" stroke-width="4.0"/>
	<path d="M -341.49999999999994,624.44 L -341.49999999999994,620.12" fill="none" stroke="black" stroke-width="4.0"/>
	<path d="M -341.49999999999994,620.12 L -335.0299999999999,607.18" fill="none" stroke="black" stroke-width="4.0"/>
	<path d="M -335.0299999999999,607.18 L -340.78999999999996,555.39" fill="none" stroke="black" stroke-width="4.0"/>
	<path d="M -341.49999999999994,620.12 L -258.54999999999995,620.12 L -341.49999999999994,620.12" fill="none" stroke="black" stroke-width="4.0"/>
	<path d="M -390.66,358.78 L -442.45,353.03" fill="none" stroke="black" stroke-width="4.0"/>
	<path d="M -442.45,353.03 L -455.39,359.5" fill="none" stroke="black" stroke-width="4.0"/>
	<path d="M -455.39,359.5 L -459.71,359.5 L -455.39,359.5" fill="none" stroke="black" stroke-width="4.0"/>
	<path d="M -459.71,359.5 L -459.71,276.54" fill="none" stroke="black" stroke-width="4.0"/>
	<path d="M -459.71,276.54 L -455.39,276.54 L -459.71,276.54" fill="none" stroke="black" stroke-width="4.0"/>
	<path d="M -455.39,276.54 L -442.45,283.01" fill="none" stroke="black" stroke-width="4.0"/>
	<path d="M -442.45,283.01 L -390.66,277.26" fill="none" stroke="black" stroke-width="4.0"/>
	<path d="M -455.39,276.54 L -455.39,359.5" fill="none" stroke="black" stroke-width="4.0"/>
	<path d="M -442.45,353.03 L -442.45,283.01" fill="none" stroke="black" stroke-width="4.0"/>
	<path d="M -259.27,244.65000000000003 L -265.02,192.86000000000004" fill="none" stroke="black" stroke-width="4.0"/>
	<path d="M -265.02,192.86000000000004 L -258.55,179.91000000000003" fill="none" stroke="black" stroke-width="4.0"/>
	<path d="M -258.55,179.91000000000003 L -258.55,175.60000000000002" fill="none" stroke="black" stroke-width="4.0"/>
	<path d="M -258.55,175.60000000000002 L -341.51,175.60000000000002 L -258.55,175.60000000000002" fill="none" stroke="black" stroke-width="4.0"/>
	<path d="M -341.51,175.60000000000002 L -341.51,179.91000000000003" fill="none" stroke="black" stroke-width="4.0"/>
	<path d="M -341.51,179.91000000000003 L -335.03,192.86000000000004" fill="none" stroke="black" stroke-width="4.0"/>
	<path d="M -335.03,192.86000000000004 L -340.79,244.65000000000003" fill="none" stroke="black" stroke-width="4.0"/>
	<path d="M -341.51,179.91000000000003 L -258.55,179.91000000000003 L -341.51,179.91000000000003" fill="none" stroke="black" stroke-width="4.0"/>
	<path d="M -265.02,192.86000000000004 L -335.03,192.86000000000004 L -265.02,192.86000000000004" fill="none" stroke="black" stroke-width="4.0"/>
	<path d="M -209.39999999999998,358.78 L -157.60999999999999,353.02" fill="none" stroke="black" stroke-width="4.0"/>
	<path d="M -157.60999999999999,353.02 L -144.65999999999997,359.5" fill="none" stroke="black" stroke-width="4.0"/>
	<path d="M -144.65999999999997,359.5 L -140.33999999999997,359.5 L -144.65999999999997,359.5" fill="none" stroke="black" stroke-width="4.0"/>
	<path d="M -140.33999999999997,359.5 L -140.33999999999997,276.54" fill="none" stroke="black" stroke-width="4.0"/>
	<path d="M -140.33999999999997,276.54 L -144.65999999999997,276.54 L -140.33999999999997,276.54" fill="none" stroke="black" stroke-width="4.0"/>
	<path d="M -144.65999999999997,276.54 L -157.60999999999999,283.01" fill="none" stroke="black" stroke-width="4.0"/>
	<path d="M -157.60999999999999,283.01 L -209.39999999999998,277.26" fill="none" stroke="black" stroke-width="4.0"/>
	<path d="M -157.60999999999999,353.02 L -157.60999999999999,283.01" fill="none" stroke="black" stroke-width="4.0"/>
	<path d="M -144.65999999999997,276.54 L -144.65999999999997,359.5" fill="none" stroke="black" stroke-width="4.0"/>
	<path d="M -265.0199999999999,607.18 L -335.0299999999999,607.18 L -265.0199999999999,607.18" fill="none" stroke="black" stroke-width="4.0"/>
	<path d="M -390.66,441.26 L -442.45,447.01" fill="none" stroke="black" stroke-width="4.0"/>
	<path d="M -442.45,447.01 L -455.39,440.54" fill="none" stroke="black" stroke-width="4.0"/>
	<path d="M -455.39,440.54 L -459.71,440.54 L -455.39,440.54" fill="none" stroke="black" stroke-width="4.0"/>
	<path d="M -459.71,440.54 L -459.7099999999999,523.5" fill="none" stroke="black" stroke-width="4.0"/>
	<path d="M -459.7099999999999,523.5 L -455.38999999999993,523.5 L -459.7099999999999,523.5" fill="none" stroke="black" stroke-width="4.0"/>
	<path d="M -455.38999999999993,523.5 L -442.44999999999993,517.02" fill="none" stroke="black" stroke-width="4.0"/>
	<path d="M -442.44999999999993,517.02 L -390.65999999999997,522.78" fill="none" stroke="black" stroke-width="4.0"/>
	<path d="M -455.38999999999993,523.5 L -455.39,440.54" fill="none" stroke="black" stroke-width="4.0"/>
	<path d="M -442.45,447.01 L -442.44999999999993,517.02" fill="none" stroke="black" stroke-width="4.0"/>
	<path d="M -209.39999999999998,244.65 L -209.38999999999996,555.39" fill="none" stroke="black" stroke-width="4.0"/>
	<path d="M -209.38999999999996,555.39 L -390.65999999999997,555.39 L -209.38999999999996,555.39" fill="none" stroke="black" stroke-width="4.0"/>
	<path d="M -390.65999999999997,555.39 L -390.66,244.65000000000003" fill="none" stroke="black" stroke-width="4.0"/>
	<path d="M -390.66,244.65000000000003 L -209.39999999999998,244.65 L -390.66,244.65000000000003" fill="none" stroke="black" stroke-width="4.0"/>
	<path d="M -209.39999999999998,441.26 L -157.60999999999999,447.01" fill="none" stroke="black" stroke-width="4.0"/>
	<path d="M -157.60999999999999,447.01 L -144.65999999999997,440.54" fill="none" stroke="black" stroke-width="4.0"/>
	<path d="M -144.65999999999997,440.54 L -140.33999999999997,440.54 L -144.65999999999997,440.54" fill="none" stroke="black" stroke-width="4.0"/>
	<path d="M -140.33999999999997,440.54 L -140.33999999999997,523.5" fill="none" stroke="black" stroke-width="4.0"/>
	<path d="M -140.33999999999997,523.5 L -144.65999999999997,523.5 L -140.33999999999997,523.5" fill="none" stroke="black" stroke-width="4.0"/>
	<path d="M -144.65999999999997,523.5 L -157.60999999999999,517.02" fill="none" stroke="black" stroke-width="4.0"/>
	<path d="M -157.60999999999999,517.02 L -209.38999999999996,522.78" fill="none" stroke="black" stroke-width="4.0"/>
	<path d="M -144.65999999999997,523.5 L -144.65999999999997,440.54" fill="none" stroke="black" stroke-width="4.0"/>
	<path d="M -157.60999999999999,447.01 L -157.60999999999999,517.02" fill="none" stroke="black" stroke-width="4.0"/>
</svg>