<svg xmlns="http://www.w3.org/2000/svg" xmlns:ev="http://www.w3.org/2001/xml-events" xmlns:xlink="http://www.w3.org/1999/xlink" baseProfile="full" version="1.1" viewBox="-426.5 144.44 253.24 511.29">
	<defs/>
	<path d="M -400.6499999999999,631.33 L -414.00999999999993,631.33 L -400.6499999999999,631.33" fill="none" stroke="black" stroke-width="4.0"/>
	<path d="M -406.5299999999999,625.12 L -406.5299999999999,638.17" fill="none" stroke="black" stroke-width="4.0"/>
	<path d="M -175.53999999999996,632.96 L -424.21999999999997,632.96 L -175.53999999999996,632.96" fill="none" stroke="black" stroke-width="4.0"/>
	<path d="M -424.21999999999997,632.96 L -424.49999999999994,632.68" fill="none" stroke="black" stroke-width="4.0"/>
	<path d="M -424.49999999999994,632.68 L -424.49999999999994,629.92" fill="none" stroke="black" stroke-width="4.0"/>
	<path d="M -424.49999999999994,629.92 L -424.21999999999997,629.64" fill="none" stroke="black" stroke-width="4.0"/>
	<path d="M -424.21999999999997,629.64 L -175.53999999999996,629.64 L -424.21999999999997,629.64" fill="none" stroke="black" stroke-width="4.0"/>
	<path d="M -175.53999999999996,629.64 L -175.25999999999996,629.92" fill="none" stroke="black" stroke-width="4.0"/>
	<path d="M -175.25999999999996,629.92 L -175.25999999999996,632.68" fill="none" stroke="black" stroke-width="4.0"/>
	<path d="M -175.25999999999996,632.68 L -175.53999999999996,632.96" fill="none" stroke="black" stroke-width="4.0"/>
	<path d="M -190.76999999999998,634.35 L -190.76999999999998,643.84" fill="none" stroke="black" stroke-width="4.0"/>
	<path d="M -195.74999999999997,634.35 L -195.74999999999997,643.84" fill="none" stroke="black" stroke-width="4.0"/>
	<path d="M -193.25999999999996,653.73 L -194.67999999999998,653.54" fill="none" stroke="black" stroke-width="4.0"/>
	<path d="M -194.67999999999998,653.54 L -195.98999999999998,652.97" fill="none" stroke="black" stroke-width="4.0"/>
	<path d="M -195.98999999999998,652.97 L -197.10999999999999,652.06" fill="none" stroke="black" stroke-width="4.0"/>
	<path d="M -197.10999999999999,652.06 L -197.92999999999998,650.89" fill="none" stroke="black" stroke-width="4.0"/>
	<path d="M -197.92999999999998,650.89 L -198.40999999999997,649.54" fill="none" stroke="black" stroke-width="4.0"/>
	<path d="M -198.40999999999997,649.54 L -198.50999999999996,648.11" fill="none" stroke="black" stroke-width="4.0"/>
	<path d="M -198.50999999999996,648.11 L -198.21999999999997,646.71" fill="none" stroke="black" stroke-width="4.0"/>
	<path d="M -198.21999999999997,646.71 L -197.55999999999997,645.44" fill="none" stroke="black" stroke-width="4.0"/>
	<path d="M -197.55999999999997,645.44 L -196.57999999999998,644.39" fill="none" stroke="black" stroke-width="4.0"/>
	<path d="M -196.57999999999998,644.39 L -195.35999999999999,643.64" fill="none" stroke="black" stroke-width="4.0"/>
	<path d="M -195.35999999999999,643.64 L -193.97999999999996,643.26" fill="none" stroke="black" stroke-width="4.0"/>
	<path d="M -193.97999999999996,643.26 L -192.53999999999996,643.26 L -193.97999999999996,643.26" fill="none" stroke="black" stroke-width="4.0"/>
	<path d="M -192.53999999999996,643.26 L -191.15999999999997,643.64" fill="none" stroke="black" stroke-width="4.0"/>
	<path d="M -191.15999999999997,643.64 L -189.93999999999997,644.39" fill="none" stroke="black" stroke-width="4.0"/>
	<path d="M -189.93999999999997,644.39 L -188.95999999999998,645.44" fill="none" stroke="black" stroke-width="4.0"/>
	<path d="M -188.95999999999998,645.44 L -188.29999999999998,646.71" fill="none" stroke="black" stroke-width="4.0"/>
	<path d="M -188.29999999999998,646.71 L -188.00999999999996,648.11" fill="none" stroke="black" stroke-width="4.0"/>
	<path d="M -188.00999999999996,648.11 L -188.10999999999999,649.54" fill="none" stroke="black" stroke-width="4.0"/>
	<path d="M -188.10999999999999,649.54 L -188.58999999999997,650.89" fill="none" stroke="black" stroke-width="4.0"/>
	<path d="M -188.58999999999997,650.89 L -189.40999999999997,652.06" fill="none" stroke="black" stroke-width="4.0"/>
	<path d="M -189.40999999999997,652.06 L -190.52999999999997,652.97" fill="none" stroke="black" stroke-width="4.0"/>
	<path d="M -190.52999999999997,652.97 L -191.83999999999997,653.54" fill="none" stroke="black" stroke-width="4.0"/>
	<path d="M -191.83999999999997,653.54 L -193.25999999999996,653.73" fill="none" stroke="black" stroke-width="4.0"/>
	<path d="M -198.51999999999998,634.35 L -187.99999999999997,634.35 L -198.51999999999998,634.35" fill="none" stroke="black" stroke-width="4.0"/>
	<path d="M -187.99999999999997,632.96 L -187.99999999999997,634.35" fill="none" stroke="black" stroke-width="4.0"/>
	<path d="M -198.51999999999998,632.96 L -198.51999999999998,634.35" fill="none" stroke="black" stroke-width="4.0"/>
	<path d="M -190.76999999999998,628.25 L -190.76999999999998,618.76" fill="none" stroke="black" stroke-width="4.0"/>
	<path d="M -195.74999999999997,628.25 L -195.74999999999997,618.76" fill="none" stroke="black" stroke-width="4.0"/>
	<path d="M -193.25999999999996,619.39 L -194.67999999999998,619.2" fill="none" stroke="black" stroke-width="4.0"/>
	<path d="M -194.67999999999998,619.2 L -195.98999999999998,618.63" fill="none" stroke="black" stroke-width="4.0"/>
	<path d="M -195.98999999999998,618.63 L -197.10999999999999,617.72" fill="none" stroke="black" stroke-width="4.0"/>
	<path d="M -197.10999999999999,617.72 L -197.92999999999998,616.55" fill="none" stroke="black" stroke-width="4.0"/>
	<path d="M -197.92999999999998,616.55 L -198.40999999999997,615.2" fill="none" stroke="black" stroke-width="4.0"/>
	<path d="M -198.40999999999997,615.2 L -198.50999999999996,613.77" fill="none" stroke="black" stroke-width="4.0"/>
	<path d="M -198.50999999999996,613.77 L -198.21999999999997,612.37" fill="none" stroke="black" stroke-width="4.0"/>
	<path d="M -198.21999999999997,612.37 L -197.55999999999997,611.1" fill="none" stroke="black" stroke-width="4.0"/>
	<path d="M -197.55999999999997,611.1 L -196.57999999999998,610.05" fill="none" stroke="black" stroke-width="4.0"/>
	<path d="M -196.57999999999998,610.05 L -195.35999999999999,609.3" fill="none" stroke="black" stroke-width="4.0"/>
	<path d="M -195.35999999999999,609.3 L -193.97999999999996,608.92" fill="none" stroke="black" stroke-width="4.0"/>
	<path d="M -193.97999999999996,608.92 L -192.53999999999996,608.92 L -193.97999999999996,608.92" fill="none" stroke="black" stroke-width="4.0"/>
	<path d="M -192.53999999999996,608.92 L -191.15999999999997,609.3" fill="none" stroke="black" stroke-width="4.0"/>
	<path d="M -191.15999999999997,609.3 L -189.93999999999997,610.05" fill="none" stroke="black" stroke-width="4.0"/>
	<path d="M -189.93999999999997,610.05 L -188.95999999999998,611.1" fill="none" stroke="black" stroke-width="4.0"/>
	<path d="M -188.95999999999998,611.1 L -188.29999999999998,612.37" fill="none" stroke="black" stroke-width="4.0"/>
	<path d="M -188.29999999999998,612.37 L -188.00999999999996,613.77" fill="none" stroke="black" stroke-width="4.0"/>
	<path d="M -188.00999999999996,613.77 L -188.10999999999999,615.2" fill="none" stroke="black" stroke-width="4.0"/>
	<path d="M -188.10999999999999,615.2 L -188.58999999999997,616.55" fill="none" stroke="black" stroke-width="4.0"/>
	<path d="M -188.58999999999997,616.55 L -189.40999999999997,617.72" fill="none" stroke="black" stroke-width="4.0"/>
	<path d="M -189.40999999999997,617.72 L -190.52999999999997,618.63" fill="none" stroke="black" stroke-width="4.0"/>
	<path d="M -190.52999999999997,618.63 L -191.83999999999997,619.2" fill="none" stroke="black" stroke-width="4.0"/>
	<path d="M -191.83999999999997,619.2 L -193.25999999999996,619.39" fill="none" stroke="black" stroke-width="4.0"/>
	<path d="M -198.51999999999998,628.25 L -187.99999999999997,628.25 L -198.51999999999998,628.25" fill="none" stroke="black" stroke-width="4.0"/>
	<path d="M -187.99999999999997,629.64 L -187.99999999999997,628.25" fill="none" stroke="black" stroke-width="4.0"/>
	<path d="M -198.51999999999998,629.64 L -198.51999999999998,628.25" fill="none" stroke="black" stroke-width="4.0"/>
	<path d="M -175.25999999999996,631.29 A 231.271,231.271 0.0 0,0 -406.83,400.06" fill="none" stroke="black" stroke-width="4.0"/>
	<path d="M -395.92999999999995,629.64 L -395.92999999999995,566.22" fill="none" stroke="black" stroke-width="4.0"/>
	<path d="M -395.92999999999995,566.22 L -416.94999999999993,566.22 L -395.92999999999995,566.22" fill="none" stroke="black" stroke-width="4.0"/>
	<path d="M -416.94999999999993,566.22 L -416.94999999999993,629.64" fill="none" stroke="black" stroke-width="4.0"/>
	<path d="M -416.94999999999993,632.96 L -416.94999999999993,649.3" fill="none" stroke="black" stroke-width="4.0"/>
	<path d="M -416.94999999999993,649.3 L -395.92999999999995,649.3 L -416.94999999999993,649.3" fill="none" stroke="black" stroke-width="4.0"/>
	<path d="M -395.92999999999995,649.3 L -395.92999999999995,632.96" fill="none" stroke="black" stroke-width="4.0"/>
	<path d="M -405.01,400.06 L -408.05,400.06 L -405.01,400.06" fill="none" stroke="black" stroke-width="4.0"/>
	<path d="M -400.65,168.79000000000002 L -414.01,168.79000000000002 L -400.65,168.79000000000002" fill="none" stroke="black" stroke-width="4.0"/>
	<path d="M -406.53,175.00000000000003 L -406.53,161.95000000000002" fill="none" stroke="black" stroke-width="4.0"/>
	<path d="M -175.54,167.16 L -424.22,167.16000000000003 L -175.54,167.16" fill="none" stroke="black" stroke-width="4.0"/>
	<path d="M -424.22,167.16000000000003 L -424.5,167.44000000000003" fill="none" stroke="black" stroke-width="4.0"/>
	<path d="M -424.5,167.44000000000003 L -424.5,170.21000000000004" fill="none" stroke="black" stroke-width="4.0"/>
	<path d="M -424.5,170.21000000000004 L -424.22,170.48000000000002" fill="none" stroke="black" stroke-width="4.0"/>
	<path d="M -424.22,170.48000000000002 L -175.54,170.48 L -424.22,170.48000000000002" fill="none" stroke="black" stroke-width="4.0"/>
	<path d="M -175.54,170.48 L -175.26,170.21" fill="none" stroke="black" stroke-width="4.0"/>
	<path d="M -175.26,170.21 L -175.26,167.44" fill="none" stroke="black" stroke-width="4.0"/>
	<path d="M -175.26,167.44 L -175.54,167.16" fill="none" stroke="black" stroke-width="4.0"/>
	<path d="M -190.77,165.78 L -190.77,156.29" fill="none" stroke="black" stroke-width="4.0"/>
	<path d="M -195.75,165.78 L -195.75,156.29" fill="none" stroke="black" stroke-width="4.0"/>
	<path d="M -193.26,156.91 L -194.68,156.72" fill="none" stroke="black" stroke-width="4.0"/>
	<path d="M -194.68,156.72 L -195.99,156.15" fill="none" stroke="black" stroke-width="4.0"/>
	<path d="M -195.99,156.15 L -197.11,155.24" fill="none" stroke="black" stroke-width="4.0"/>
	<path d="M -197.11,155.24 L -197.93,154.07" fill="none" stroke="black" stroke-width="4.0"/>
	<path d="M -197.93,154.07 L -198.41,152.72" fill="none" stroke="black" stroke-width="4.0"/>
	<path d="M -198.41,152.72 L -198.51,151.29" fill="none" stroke="black" stroke-width="4.0"/>
	<path d="M -198.51,151.29 L -198.22,149.89" fill="none" stroke="black" stroke-width="4.0"/>
	<path d="M -198.22,149.89 L -197.56,148.62" fill="none" stroke="black" stroke-width="4.0"/>
	<path d="M -197.56,148.62 L -196.58,147.57" fill="none" stroke="black" stroke-width="4.0"/>
	<path d="M -196.58,147.57 L -195.36,146.83" fill="none" stroke="black" stroke-width="4.0"/>
	<path d="M -195.36,146.83 L -193.98,146.44" fill="none" stroke="black" stroke-width="4.0"/>
	<path d="M -193.98,146.44 L -192.54,146.44 L -193.98,146.44" fill="none" stroke="black" stroke-width="4.0"/>
	<path d="M -192.54,146.44 L -191.16,146.83" fill="none" stroke="black" stroke-width="4.0"/>
	<path d="M -191.16,146.83 L -189.94,147.57" fill="none" stroke="black" stroke-width="4.0"/>
	<path d="M -189.94,147.57 L -188.96,148.62" fill="none" stroke="black" stroke-width="4.0"/>
	<path d="M -188.96,148.62 L -188.3,149.89" fill="none" stroke="black" stroke-width="4.0"/>
	<path d="M -188.3,149.89 L -188.01,151.29" fill="none" stroke="black" stroke-width="4.0"/>
	<path d="M -188.01,151.29 L -188.11,152.72" fill="none" stroke="black" stroke-width="4.0"/>
	<path d="M -188.11,152.72 L -188.59,154.07" fill="none" stroke="black" stroke-width="4.0"/>
	<path d="M -188.59,154.07 L -189.41,155.24" fill="none" stroke="black" stroke-width="4.0"/>
	<path d="M -189.41,155.24 L -190.53,156.15" fill="none" stroke="black" stroke-width="4.0"/>
	<path d="M -190.53,156.15 L -191.84,156.72" fill="none" stroke="black" stroke-width="4.0"/>
	<path d="M -191.84,156.72 L -193.26,156.91" fill="none" stroke="black" stroke-width="4.0"/>
	<path d="M -198.52,165.78 L -188.0,165.78 L -198.52,165.78" fill="none" stroke="black" stroke-width="4.0"/>
	<path d="M -188.0,167.16 L -188.0,165.78" fill="none" stroke="black" stroke-width="4.0"/>
	<path d="M -198.52,167.16 L -198.52,165.78" fill="none" stroke="black" stroke-width="4.0"/>
	<path d="M -190.77,171.87 L -190.77,181.36" fill="none" stroke="black" stroke-width="4.0"/>
	<path d="M -195.75,171.87 L -195.75,181.36" fill="none" stroke="black" stroke-width="4.0"/>
	<path d="M -193.26,191.25 L -194.68,191.06" fill="none" stroke="black" stroke-width="4.0"/>
	<path d="M -194.68,191.06 L -195.99,190.49" fill="none" stroke="black" stroke-width="4.0"/>
	<path d="M -195.99,190.49 L -197.11,189.58" fill="none" stroke="black" stroke-width="4.0"/>
	<path d="M -197.11,189.58 L -197.93,188.41" fill="none" stroke="black" stroke-width="4.0"/>
	<path d="M -197.93,188.41 L -198.41,187.06" fill="none" stroke="black" stroke-width="4.0"/>
	<path d="M -198.41,187.06 L -198.51,185.63" fill="none" stroke="black" stroke-width="4.0"/>
	<path d="M -198.51,185.63 L -198.22,184.23" fill="none" stroke="black" stroke-width="4.0"/>
	<path d="M -198.22,184.23 L -197.56,182.96" fill="none" stroke="black" stroke-width="4.0"/>
	<path d="M -197.56,182.96 L -196.58,181.91" fill="none" stroke="black" stroke-width="4.0"/>
	<path d="M -196.58,181.91 L -195.36,181.17" fill="none" stroke="black" stroke-width="4.0"/>
	<path d="M -195.36,181.17 L -193.98,180.78" fill="none" stroke="black" stroke-width="4.0"/>
	<path d="M -193.98,180.78 L -192.54,180.78 L -193.98,180.78" fill="none" stroke="black" stroke-width="4.0"/>
	<path d="M -192.54,180.78 L -191.16,181.17" fill="none" stroke="black" stroke-width="4.0"/>
	<path d="M -191.16,181.17 L -189.94,181.91" fill="none" stroke="black" stroke-width="4.0"/>
	<path d="M -189.94,181.91 L -188.96,182.96" fill="none" stroke="black" stroke-width="4.0"/>
	<path d="M -188.96,182.96 L -188.3,184.23" fill="none" stroke="black" stroke-width="4.0"/>
	<path d="M -188.3,184.23 L -188.01,185.63" fill="none" stroke="black" stroke-width="4.0"/>
	<path d="M -188.01,185.63 L -188.11,187.06" fill="none" stroke="black" stroke-width="4.0"/>
	<path d="M -188.11,187.06 L -188.59,188.41" fill="none" stroke="black" stroke-width="4.0"/>
	<path d="M -188.59,188.41 L -189.41,189.58" fill="none" stroke="black" stroke-width="4.0"/>
	<path d="M -189.41,189.58 L -190.53,190.49" fill="none" stroke="black" stroke-width="4.0"/>
	<path d="M -190.53,190.49 L -191.84,191.06" fill="none" stroke="black" stroke-width="4.0"/>
	<path d="M -191.84,191.06 L -193.26,191.25" fill="none" stroke="black" stroke-width="4.0"/>
	<path d="M -198.52,171.87 L -188.0,171.87 L -198.52,171.87" fill="none" stroke="black" stroke-width="4.0"/>
	<path d="M -188.0,170.48 L -188.0,171.87" fill="none" stroke="black" stroke-width="4.0"/>
	<path d="M -198.52,170.48 L -198.52,171.87" fill="none" stroke="black" stroke-width="4.0"/>
	<path d="M -406.83,400.06 A 231.271,231.271 0.0 0,0 -175.26,168.83" fill="none" stroke="black" stroke-width="4.0"/>
	<path d="M -395.93,170.48000000000002 L -395.93,233.90000000000003" fill="none" stroke="black" stroke-width="4.0"/>
	<path d="M -395.93,233.90000000000003 L -416.95,233.90000000000003 L -395.93,233.90000000000003" fill="none" stroke="black" stroke-width="4.0"/>
	<path d="M -416.95,233.90000000000003 L -416.95,170.48000000000002" fill="none" stroke="black" stroke-width="4.0"/>
	<path d="M -416.95,167.16000000000003 L -416.95,150.82000000000002" fill="none" stroke="black" stroke-width="4.0"/>
	<path d="M -416.95,150.82000000000002 L -395.93,150.82000000000002 L -416.95,150.82000000000002" fill="none" stroke="black" stroke-width="4.0"/>
	<path d="M -395.93,150.82000000000002 L -395.93,167.16000000000003" fill="none" stroke="black" stroke-width="4.0"/>
	<path d="M -405.01,400.06 L -408.05,400.06 L -405.01,400.06" fill="none" stroke="black" stroke-width="4.0"/>
</svg>