<svg xmlns="http://www.w3.org/2000/svg" version="1.1" viewBox="146.19 175.01 507.79 249.74">
  <desc>Produce by Acme CAD Converter</desc>
<path d="M631.33 400.65L631.33 414.01Z" fill="none" stroke="black" stroke-width="4.0"/>
<path d="M625.12 406.53L638.17 406.53" fill="none" stroke="black" stroke-width="4.0"/>
<path d="M632.96 175.54L632.96 424.22Z" fill="none" stroke="black" stroke-width="4.0"/>
<path d="M632.96 424.22L632.68 424.5" fill="none" stroke="black" stroke-width="4.0"/>
<path d="M632.68 424.5L629.92 424.5" fill="none" stroke="black" stroke-width="4.0"/>
<path d="M629.92 424.5L629.64 424.22" fill="none" stroke="black" stroke-width="4.0"/>
<path d="M629.64 424.22L629.64 175.54Z" fill="none" stroke="black" stroke-width="4.0"/>
<path d="M629.64 175.54L629.92 175.26" fill="none" stroke="black" stroke-width="4.0"/>
<path d="M629.92 175.26L632.68 175.26" fill="none" stroke="black" stroke-width="4.0"/>
<path d="M632.68 175.26L632.96 175.54" fill="none" stroke="black" stroke-width="4.0"/>
<path d="M634.35 190.77L643.84 190.77" fill="none" stroke="black" stroke-width="4.0"/>
<path d="M634.35 195.75L643.84 195.75" fill="none" stroke="black" stroke-width="4.0"/>
<path d="M653.73 193.26L653.54 194.68" fill="none" stroke="black" stroke-width="4.0"/>
<path d="M653.54 194.68L652.97 195.99" fill="none" stroke="black" stroke-width="4.0"/>
<path d="M652.97 195.99L652.06 197.11" fill="none" stroke="black" stroke-width="4.0"/>
<path d="M652.06 197.11L650.89 197.93" fill="none" stroke="black" stroke-width="4.0"/>
<path d="M650.89 197.93L649.54 198.41" fill="none" stroke="black" stroke-width="4.0"/>
<path d="M649.54 198.41L648.11 198.51" fill="none" stroke="black" stroke-width="4.0"/>
<path d="M648.11 198.51L646.71 198.22" fill="none" stroke="black" stroke-width="4.0"/>
<path d="M646.71 198.22L645.44 197.56" fill="none" stroke="black" stroke-width="4.0"/>
<path d="M645.44 197.56L644.39 196.58" fill="none" stroke="black" stroke-width="4.0"/>
<path d="M644.39 196.58L643.64 195.36" fill="none" stroke="black" stroke-width="4.0"/>
<path d="M643.64 195.36L643.26 193.98" fill="none" stroke="black" stroke-width="4.0"/>
<path d="M643.26 193.98L643.26 192.54Z" fill="none" stroke="black" stroke-width="4.0"/>
<path d="M643.26 192.54L643.64 191.16" fill="none" stroke="black" stroke-width="4.0"/>
<path d="M643.64 191.16L644.39 189.94" fill="none" stroke="black" stroke-width="4.0"/>
<path d="M644.39 189.94L645.44 188.96" fill="none" stroke="black" stroke-width="4.0"/>
<path d="M645.44 188.96L646.71 188.3" fill="none" stroke="black" stroke-width="4.0"/>
<path d="M646.71 188.3L648.11 188.01" fill="none" stroke="black" stroke-width="4.0"/>
<path d="M648.11 188.01L649.54 188.11" fill="none" stroke="black" stroke-width="4.0"/>
<path d="M649.54 188.11L650.89 188.59" fill="none" stroke="black" stroke-width="4.0"/>
<path d="M650.89 188.59L652.06 189.41" fill="none" stroke="black" stroke-width="4.0"/>
<path d="M652.06 189.41L652.97 190.53" fill="none" stroke="black" stroke-width="4.0"/>
<path d="M652.97 190.53L653.54 191.84" fill="none" stroke="black" stroke-width="4.0"/>
<path d="M653.54 191.84L653.73 193.26" fill="none" stroke="black" stroke-width="4.0"/>
<path d="M634.35 198.52L634.35 188Z" fill="none" stroke="black" stroke-width="4.0"/>
<path d="M632.96 188L634.35 188" fill="none" stroke="black" stroke-width="4.0"/>
<path d="M632.96 198.52L634.35 198.52" fill="none" stroke="black" stroke-width="4.0"/>
<path d="M628.25 190.77L618.76 190.77" fill="none" stroke="black" stroke-width="4.0"/>
<path d="M628.25 195.75L618.76 195.75" fill="none" stroke="black" stroke-width="4.0"/>
<path d="M619.39 193.26L619.2 194.68" fill="none" stroke="black" stroke-width="4.0"/>
<path d="M619.2 194.68L618.63 195.99" fill="none" stroke="black" stroke-width="4.0"/>
<path d="M618.63 195.99L617.72 197.11" fill="none" stroke="black" stroke-width="4.0"/>
<path d="M617.72 197.11L616.55 197.93" fill="none" stroke="black" stroke-width="4.0"/>
<path d="M616.55 197.93L615.2 198.41" fill="none" stroke="black" stroke-width="4.0"/>
<path d="M615.2 198.41L613.77 198.51" fill="none" stroke="black" stroke-width="4.0"/>
<path d="M613.77 198.51L612.37 198.22" fill="none" stroke="black" stroke-width="4.0"/>
<path d="M612.37 198.22L611.1 197.56" fill="none" stroke="black" stroke-width="4.0"/>
<path d="M611.1 197.56L610.05 196.58" fill="none" stroke="black" stroke-width="4.0"/>
<path d="M610.05 196.58L609.3 195.36" fill="none" stroke="black" stroke-width="4.0"/>
<path d="M609.3 195.36L608.92 193.98" fill="none" stroke="black" stroke-width="4.0"/>
<path d="M608.92 193.98L608.92 192.54Z" fill="none" stroke="black" stroke-width="4.0"/>
<path d="M608.92 192.54L609.3 191.16" fill="none" stroke="black" stroke-width="4.0"/>
<path d="M609.3 191.16L610.05 189.94" fill="none" stroke="black" stroke-width="4.0"/>
<path d="M610.05 189.94L611.1 188.96" fill="none" stroke="black" stroke-width="4.0"/>
<path d="M611.1 188.96L612.37 188.3" fill="none" stroke="black" stroke-width="4.0"/>
<path d="M612.37 188.3L613.77 188.01" fill="none" stroke="black" stroke-width="4.0"/>
<path d="M613.77 188.01L615.2 188.11" fill="none" stroke="black" stroke-width="4.0"/>
<path d="M615.2 188.11L616.55 188.59" fill="none" stroke="black" stroke-width="4.0"/>
<path d="M616.55 188.59L617.72 189.41" fill="none" stroke="black" stroke-width="4.0"/>
<path d="M617.72 189.41L618.63 190.53" fill="none" stroke="black" stroke-width="4.0"/>
<path d="M618.63 190.53L619.2 191.84" fill="none" stroke="black" stroke-width="4.0"/>
<path d="M619.2 191.84L619.39 193.26" fill="none" stroke="black" stroke-width="4.0"/>
<path d="M628.25 198.52L628.25 188Z" fill="none" stroke="black" stroke-width="4.0"/>
<path d="M629.64 188L628.25 188" fill="none" stroke="black" stroke-width="4.0"/>
<path d="M629.64 198.52L628.25 198.52" fill="none" stroke="black" stroke-width="4.0"/>
<path d="M 631.29 175.26 A 231.271 231.271 0 0 0 400.06 406.83" fill="none" stroke="black" stroke-width="4.0"/>
<path d="M629.64 395.93L566.22 395.93" fill="none" stroke="black" stroke-width="4.0"/>
<path d="M566.22 395.93L566.22 416.95Z" fill="none" stroke="black" stroke-width="4.0"/>
<path d="M566.22 416.95L629.64 416.95" fill="none" stroke="black" stroke-width="4.0"/>
<path d="M632.96 416.95L649.3 416.95" fill="none" stroke="black" stroke-width="4.0"/>
<path d="M649.3 416.95L649.3 395.93Z" fill="none" stroke="black" stroke-width="4.0"/>
<path d="M649.3 395.93L632.96 395.93" fill="none" stroke="black" stroke-width="4.0"/>
<path d="M400.06 405.01L400.06 408.05Z" fill="none" stroke="black" stroke-width="4.0"/>
<path d="M168.79 400.65L168.79 414.01Z" fill="none" stroke="black" stroke-width="4.0"/>
<path d="M175 406.53L161.95 406.53" fill="none" stroke="black" stroke-width="4.0"/>
<path d="M167.16 175.54L167.16 424.22Z" fill="none" stroke="black" stroke-width="4.0"/>
<path d="M167.16 424.22L167.44 424.5" fill="none" stroke="black" stroke-width="4.0"/>
<path d="M167.44 424.5L170.21 424.5" fill="none" stroke="black" stroke-width="4.0"/>
<path d="M170.21 424.5L170.48 424.22" fill="none" stroke="black" stroke-width="4.0"/>
<path d="M170.48 424.22L170.48 175.54Z" fill="none" stroke="black" stroke-width="4.0"/>
<path d="M170.48 175.54L170.21 175.26" fill="none" stroke="black" stroke-width="4.0"/>
<path d="M170.21 175.26L167.44 175.26" fill="none" stroke="black" stroke-width="4.0"/>
<path d="M167.44 175.26L167.16 175.54" fill="none" stroke="black" stroke-width="4.0"/>
<path d="M165.78 190.77L156.29 190.77" fill="none" stroke="black" stroke-width="4.0"/>
<path d="M165.78 195.75L156.29 195.75" fill="none" stroke="black" stroke-width="4.0"/>
<path d="M156.91 193.26L156.72 194.68" fill="none" stroke="black" stroke-width="4.0"/>
<path d="M156.72 194.68L156.15 195.99" fill="none" stroke="black" stroke-width="4.0"/>
<path d="M156.15 195.99L155.24 197.11" fill="none" stroke="black" stroke-width="4.0"/>
<path d="M155.24 197.11L154.07 197.93" fill="none" stroke="black" stroke-width="4.0"/>
<path d="M154.07 197.93L152.72 198.41" fill="none" stroke="black" stroke-width="4.0"/>
<path d="M152.72 198.41L151.29 198.51" fill="none" stroke="black" stroke-width="4.0"/>
<path d="M151.29 198.51L149.89 198.22" fill="none" stroke="black" stroke-width="4.0"/>
<path d="M149.89 198.22L148.62 197.56" fill="none" stroke="black" stroke-width="4.0"/>
<path d="M148.62 197.56L147.57 196.58" fill="none" stroke="black" stroke-width="4.0"/>
<path d="M147.57 196.58L146.83 195.36" fill="none" stroke="black" stroke-width="4.0"/>
<path d="M146.83 195.36L146.44 193.98" fill="none" stroke="black" stroke-width="4.0"/>
<path d="M146.44 193.98L146.44 192.54Z" fill="none" stroke="black" stroke-width="4.0"/>
<path d="M146.44 192.54L146.83 191.16" fill="none" stroke="black" stroke-width="4.0"/>
<path d="M146.83 191.16L147.57 189.94" fill="none" stroke="black" stroke-width="4.0"/>
<path d="M147.57 189.94L148.62 188.96" fill="none" stroke="black" stroke-width="4.0"/>
<path d="M148.62 188.96L149.89 188.3" fill="none" stroke="black" stroke-width="4.0"/>
<path d="M149.89 188.3L151.29 188.01" fill="none" stroke="black" stroke-width="4.0"/>
<path d="M151.29 188.01L152.72 188.11" fill="none" stroke="black" stroke-width="4.0"/>
<path d="M152.72 188.11L154.07 188.59" fill="none" stroke="black" stroke-width="4.0"/>
<path d="M154.07 188.59L155.24 189.41" fill="none" stroke="black" stroke-width="4.0"/>
<path d="M155.24 189.41L156.15 190.53" fill="none" stroke="black" stroke-width="4.0"/>
<path d="M156.15 190.53L156.72 191.84" fill="none" stroke="black" stroke-width="4.0"/>
<path d="M156.72 191.84L156.91 193.26" fill="none" stroke="black" stroke-width="4.0"/>
<path d="M165.78 198.52L165.78 188Z" fill="none" stroke="black" stroke-width="4.0"/>
<path d="M167.16 188L165.78 188" fill="none" stroke="black" stroke-width="4.0"/>
<path d="M167.16 198.52L165.78 198.52" fill="none" stroke="black" stroke-width="4.0"/>
<path d="M171.87 190.77L181.36 190.77" fill="none" stroke="black" stroke-width="4.0"/>
<path d="M171.87 195.75L181.36 195.75" fill="none" stroke="black" stroke-width="4.0"/>
<path d="M191.25 193.26L191.06 194.68" fill="none" stroke="black" stroke-width="4.0"/>
<path d="M191.06 194.68L190.49 195.99" fill="none" stroke="black" stroke-width="4.0"/>
<path d="M190.49 195.99L189.58 197.11" fill="none" stroke="black" stroke-width="4.0"/>
<path d="M189.58 197.11L188.41 197.93" fill="none" stroke="black" stroke-width="4.0"/>
<path d="M188.41 197.93L187.06 198.41" fill="none" stroke="black" stroke-width="4.0"/>
<path d="M187.06 198.41L185.63 198.51" fill="none" stroke="black" stroke-width="4.0"/>
<path d="M185.63 198.51L184.23 198.22" fill="none" stroke="black" stroke-width="4.0"/>
<path d="M184.23 198.22L182.96 197.56" fill="none" stroke="black" stroke-width="4.0"/>
<path d="M182.96 197.56L181.91 196.58" fill="none" stroke="black" stroke-width="4.0"/>
<path d="M181.91 196.58L181.17 195.36" fill="none" stroke="black" stroke-width="4.0"/>
<path d="M181.17 195.36L180.78 193.98" fill="none" stroke="black" stroke-width="4.0"/>
<path d="M180.78 193.98L180.78 192.54Z" fill="none" stroke="black" stroke-width="4.0"/>
<path d="M180.78 192.54L181.17 191.16" fill="none" stroke="black" stroke-width="4.0"/>
<path d="M181.17 191.16L181.91 189.94" fill="none" stroke="black" stroke-width="4.0"/>
<path d="M181.91 189.94L182.96 188.96" fill="none" stroke="black" stroke-width="4.0"/>
<path d="M182.96 188.96L184.23 188.3" fill="none" stroke="black" stroke-width="4.0"/>
<path d="M184.23 188.3L185.63 188.01" fill="none" stroke="black" stroke-width="4.0"/>
<path d="M185.63 188.01L187.06 188.11" fill="none" stroke="black" stroke-width="4.0"/>
<path d="M187.06 188.11L188.41 188.59" fill="none" stroke="black" stroke-width="4.0"/>
<path d="M188.41 188.59L189.58 189.41" fill="none" stroke="black" stroke-width="4.0"/>
<path d="M189.58 189.41L190.49 190.53" fill="none" stroke="black" stroke-width="4.0"/>
<path d="M190.49 190.53L191.06 191.84" fill="none" stroke="black" stroke-width="4.0"/>
<path d="M191.06 191.84L191.25 193.26" fill="none" stroke="black" stroke-width="4.0"/>
<path d="M171.87 198.52L171.87 188Z" fill="none" stroke="black" stroke-width="4.0"/>
<path d="M170.48 188L171.87 188" fill="none" stroke="black" stroke-width="4.0"/>
<path d="M170.48 198.52L171.87 198.52" fill="none" stroke="black" stroke-width="4.0"/>
<path d="M 400.06 406.83 A 231.271 231.271 0 0 0 168.83 175.26" fill="none" stroke="black" stroke-width="4.0"/>
<path d="M170.48 395.93L233.9 395.93" fill="none" stroke="black" stroke-width="4.0"/>
<path d="M233.9 395.93L233.9 416.95Z" fill="none" stroke="black" stroke-width="4.0"/>
<path d="M233.9 416.95L170.48 416.95" fill="none" stroke="black" stroke-width="4.0"/>
<path d="M167.16 416.95L150.82 416.95" fill="none" stroke="black" stroke-width="4.0"/>
<path d="M150.82 416.95L150.82 395.93Z" fill="none" stroke="black" stroke-width="4.0"/>
<path d="M150.82 395.93L167.16 395.93" fill="none" stroke="black" stroke-width="4.0"/>
<path d="M400.06 405.01L400.06 408.05Z" fill="none" stroke="black" stroke-width="4.0"/>
</svg>