<svg xmlns="http://www.w3.org/2000/svg" xmlns:ev="http://www.w3.org/2001/xml-events" xmlns:xlink="http://www.w3.org/1999/xlink" baseProfile="full" version="1.1" viewBox="-461.79 230.43 323.3 338.99">
	<defs/>
	<path d="M -436.39,247.40000000000003 A 508.75,508.75 0.0 0,0 -436.38999999999993,552.45" fill="none" stroke="black" stroke-width="4.0"/>
	<path d="M -436.39,305.47 A 277.197,277.197 0.0 0,0 -436.38999999999993,494.38" fill="none" stroke="black" stroke-width="4.0"/>
	<path d="M -429.69999999999993,564.77 L -430.90999999999997,564.58" fill="none" stroke="black" stroke-width="4.0"/>
	<path d="M -430.90999999999997,564.58 L -431.98999999999995,564.03" fill="none" stroke="black" stroke-width="4.0"/>
	<path d="M -431.98999999999995,564.03 L -432.85999999999996,563.16" fill="none" stroke="black" stroke-width="4.0"/>
	<path d="M -432.85999999999996,563.16 L -433.40999999999997,562.08" fill="none" stroke="black" stroke-width="4.0"/>
	<path d="M -433.40999999999997,562.08 L -433.59999999999997,560.87" fill="none" stroke="black" stroke-width="4.0"/>
	<path d="M -433.59999999999997,560.87 L -433.40999999999997,559.67" fill="none" stroke="black" stroke-width="4.0"/>
	<path d="M -433.40999999999997,559.67 L -432.85999999999996,558.58" fill="none" stroke="black" stroke-width="4.0"/>
	<path d="M -432.85999999999996,558.58 L -431.98999999999995,557.72" fill="none" stroke="black" stroke-width="4.0"/>
	<path d="M -431.98999999999995,557.72 L -430.90999999999997,557.17" fill="none" stroke="black" stroke-width="4.0"/>
	<path d="M -430.90999999999997,557.17 L -429.69999999999993,556.98" fill="none" stroke="black" stroke-width="4.0"/>
	<path d="M -429.69999999999993,556.98 L -428.49999999999994,557.17" fill="none" stroke="black" stroke-width="4.0"/>
	<path d="M -428.49999999999994,557.17 L -427.40999999999997,557.72" fill="none" stroke="black" stroke-width="4.0"/>
	<path d="M -427.40999999999997,557.72 L -426.54999999999995,558.58" fill="none" stroke="black" stroke-width="4.0"/>
	<path d="M -426.54999999999995,558.58 L -425.99999999999994,559.67" fill="none" stroke="black" stroke-width="4.0"/>
	<path d="M -425.99999999999994,559.67 L -425.80999999999995,560.87" fill="none" stroke="black" stroke-width="4.0"/>
	<path d="M -425.80999999999995,560.87 L -425.99999999999994,562.08" fill="none" stroke="black" stroke-width="4.0"/>
	<path d="M -425.99999999999994,562.08 L -426.54999999999995,563.16" fill="none" stroke="black" stroke-width="4.0"/>
	<path d="M -426.54999999999995,563.16 L -427.40999999999997,564.03" fill="none" stroke="black" stroke-width="4.0"/>
	<path d="M -427.40999999999997,564.03 L -428.49999999999994,564.58" fill="none" stroke="black" stroke-width="4.0"/>
	<path d="M -428.49999999999994,564.58 L -429.69999999999993,564.77" fill="none" stroke="black" stroke-width="4.0"/>
	<path d="M -394.25999999999993,550.67 L -395.3999999999999,550.48" fill="none" stroke="black" stroke-width="4.0"/>
	<path d="M -395.3999999999999,550.48 L -396.42999999999995,549.96" fill="none" stroke="black" stroke-width="4.0"/>
	<path d="M -396.42999999999995,549.96 L -397.24999999999994,549.14" fill="none" stroke="black" stroke-width="4.0"/>
	<path d="M -397.24999999999994,549.14 L -397.7799999999999,548.11" fill="none" stroke="black" stroke-width="4.0"/>
	<path d="M -397.7799999999999,548.11 L -397.9599999999999,546.96" fill="none" stroke="black" stroke-width="4.0"/>
	<path d="M -397.9599999999999,546.96 L -397.7799999999999,545.82" fill="none" stroke="black" stroke-width="4.0"/>
	<path d="M -397.7799999999999,545.82 L -397.24999999999994,544.79" fill="none" stroke="black" stroke-width="4.0"/>
	<path d="M -397.24999999999994,544.79 L -396.42999999999995,543.97" fill="none" stroke="black" stroke-width="4.0"/>
	<path d="M -396.42999999999995,543.97 L -395.3999999999999,543.44" fill="none" stroke="black" stroke-width="4.0"/>
	<path d="M -395.3999999999999,543.44 L -394.25999999999993,543.26" fill="none" stroke="black" stroke-width="4.0"/>
	<path d="M -394.25999999999993,543.26 L -393.10999999999996,543.44" fill="none" stroke="black" stroke-width="4.0"/>
	<path d="M -393.10999999999996,543.44 L -392.0799999999999,543.97" fill="none" stroke="black" stroke-width="4.0"/>
	<path d="M -392.0799999999999,543.97 L -391.25999999999993,544.79" fill="none" stroke="black" stroke-width="4.0"/>
	<path d="M -391.25999999999993,544.79 L -390.73999999999995,545.82" fill="none" stroke="black" stroke-width="4.0"/>
	<path d="M -390.73999999999995,545.82 L -390.55999999999995,546.96" fill="none" stroke="black" stroke-width="4.0"/>
	<path d="M -390.55999999999995,546.96 L -390.73999999999995,548.11" fill="none" stroke="black" stroke-width="4.0"/>
	<path d="M -390.73999999999995,548.11 L -391.25999999999993,549.14" fill="none" stroke="black" stroke-width="4.0"/>
	<path d="M -391.25999999999993,549.14 L -392.0799999999999,549.96" fill="none" stroke="black" stroke-width="4.0"/>
	<path d="M -392.0799999999999,549.96 L -393.10999999999996,550.48" fill="none" stroke="black" stroke-width="4.0"/>
	<path d="M -393.10999999999996,550.48 L -394.25999999999993,550.67" fill="none" stroke="black" stroke-width="4.0"/>
	<path d="M -394.25999999999993,564.58 L -395.3999999999999,564.39" fill="none" stroke="black" stroke-width="4.0"/>
	<path d="M -395.3999999999999,564.39 L -396.42999999999995,563.87" fill="none" stroke="black" stroke-width="4.0"/>
	<path d="M -396.42999999999995,563.87 L -397.24999999999994,563.05" fill="none" stroke="black" stroke-width="4.0"/>
	<path d="M -397.24999999999994,563.05 L -397.7799999999999,562.02" fill="none" stroke="black" stroke-width="4.0"/>
	<path d="M -397.7799999999999,562.02 L -397.9599999999999,560.87" fill="none" stroke="black" stroke-width="4.0"/>
	<path d="M -397.9599999999999,560.87 L -397.7799999999999,559.73" fill="none" stroke="black" stroke-width="4.0"/>
	<path d="M -397.7799999999999,559.73 L -397.24999999999994,558.7" fill="none" stroke="black" stroke-width="4.0"/>
	<path d="M -397.24999999999994,558.7 L -396.42999999999995,557.88" fill="none" stroke="black" stroke-width="4.0"/>
	<path d="M -396.42999999999995,557.88 L -395.3999999999999,557.35" fill="none" stroke="black" stroke-width="4.0"/>
	<path d="M -395.3999999999999,557.35 L -394.25999999999993,557.17" fill="none" stroke="black" stroke-width="4.0"/>
	<path d="M -394.25999999999993,557.17 L -393.10999999999996,557.35" fill="none" stroke="black" stroke-width="4.0"/>
	<path d="M -393.10999999999996,557.35 L -392.0799999999999,557.88" fill="none" stroke="black" stroke-width="4.0"/>
	<path d="M -392.0799999999999,557.88 L -391.25999999999993,558.7" fill="none" stroke="black" stroke-width="4.0"/>
	<path d="M -391.25999999999993,558.7 L -390.73999999999995,559.73" fill="none" stroke="black" stroke-width="4.0"/>
	<path d="M -390.73999999999995,559.73 L -390.55999999999995,560.87" fill="none" stroke="black" stroke-width="4.0"/>
	<path d="M -390.55999999999995,560.87 L -390.73999999999995,562.02" fill="none" stroke="black" stroke-width="4.0"/>
	<path d="M -390.73999999999995,562.02 L -391.25999999999993,563.05" fill="none" stroke="black" stroke-width="4.0"/>
	<path d="M -391.25999999999993,563.05 L -392.0799999999999,563.87" fill="none" stroke="black" stroke-width="4.0"/>
	<path d="M -392.0799999999999,563.87 L -393.10999999999996,564.39" fill="none" stroke="black" stroke-width="4.0"/>
	<path d="M -393.10999999999996,564.39 L -394.25999999999993,564.58" fill="none" stroke="black" stroke-width="4.0"/>
	<path d="M -407.66999999999996,557.62 L -408.81999999999994,557.44" fill="none" stroke="black" stroke-width="4.0"/>
	<path d="M -408.81999999999994,557.44 L -409.84999999999997,556.91" fill="none" stroke="black" stroke-width="4.0"/>
	<path d="M -409.84999999999997,556.91 L -410.66999999999996,556.09" fill="none" stroke="black" stroke-width="4.0"/>
	<path d="M -410.66999999999996,556.09 L -411.19999999999993,555.06" fill="none" stroke="black" stroke-width="4.0"/>
	<path d="M -411.19999999999993,555.06 L -411.37999999999994,553.92" fill="none" stroke="black" stroke-width="4.0"/>
	<path d="M -411.37999999999994,553.92 L -411.19999999999993,552.77" fill="none" stroke="black" stroke-width="4.0"/>
	<path d="M -411.19999999999993,552.77 L -410.66999999999996,551.74" fill="none" stroke="black" stroke-width="4.0"/>
	<path d="M -410.66999999999996,551.74 L -409.84999999999997,550.92" fill="none" stroke="black" stroke-width="4.0"/>
	<path d="M -409.84999999999997,550.92 L -408.81999999999994,550.4" fill="none" stroke="black" stroke-width="4.0"/>
	<path d="M -408.81999999999994,550.4 L -407.66999999999996,550.22" fill="none" stroke="black" stroke-width="4.0"/>
	<path d="M -407.66999999999996,550.22 L -406.5299999999999,550.4" fill="none" stroke="black" stroke-width="4.0"/>
	<path d="M -406.5299999999999,550.4 L -405.49999999999994,550.92" fill="none" stroke="black" stroke-width="4.0"/>
	<path d="M -405.49999999999994,550.92 L -404.67999999999995,551.74" fill="none" stroke="black" stroke-width="4.0"/>
	<path d="M -404.67999999999995,551.74 L -404.1499999999999,552.77" fill="none" stroke="black" stroke-width="4.0"/>
	<path d="M -404.1499999999999,552.77 L -403.96999999999997,553.92" fill="none" stroke="black" stroke-width="4.0"/>
	<path d="M -403.96999999999997,553.92 L -404.1499999999999,555.06" fill="none" stroke="black" stroke-width="4.0"/>
	<path d="M -404.1499999999999,555.06 L -404.67999999999995,556.09" fill="none" stroke="black" stroke-width="4.0"/>
	<path d="M -404.67999999999995,556.09 L -405.49999999999994,556.91" fill="none" stroke="black" stroke-width="4.0"/>
	<path d="M -405.49999999999994,556.91 L -406.5299999999999,557.44" fill="none" stroke="black" stroke-width="4.0"/>
	<path d="M -406.5299999999999,557.44 L -407.66999999999996,557.62" fill="none" stroke="black" stroke-width="4.0"/>
	<path d="M -415.04999999999995,544.01 L -418.29999999999995,544.01 L -415.04999999999995,544.01" fill="none" stroke="black" stroke-width="4.0"/>
	<path d="M -420.06999999999994,544.01 L -423.3299999999999,544.01 L -420.06999999999994,544.01" fill="none" stroke="black" stroke-width="4.0"/>
	<path d="M -423.3299999999999,544.01 L -423.3299999999999,541.99" fill="none" stroke="black" stroke-width="4.0"/>
	<path d="M -423.3299999999999,540.21 L -423.3299999999999,536.67" fill="none" stroke="black" stroke-width="4.0"/>
	<path d="M -423.3299999999999,534.9 L -423.3299999999999,531.35" fill="none" stroke="black" stroke-width="4.0"/>
	<path d="M -423.3299999999999,529.58 L -423.3299999999999,526.03" fill="none" stroke="black" stroke-width="4.0"/>
	<path d="M -423.3299999999999,524.26 L -423.3299999999999,520.72" fill="none" stroke="black" stroke-width="4.0"/>
	<path d="M -423.3299999999999,518.94 L -423.3299999999999,515.4" fill="none" stroke="black" stroke-width="4.0"/>
	<path d="M -423.3299999999999,513.62 L -423.3299999999999,510.08" fill="none" stroke="black" stroke-width="4.0"/>
	<path d="M -423.3299999999999,508.31 L -423.3299999999999,504.76" fill="none" stroke="black" stroke-width="4.0"/>
	<path d="M -423.3299999999999,502.99 L -423.3299999999999,499.44" fill="none" stroke="black" stroke-width="4.0"/>
	<path d="M -423.3299999999999,497.67 L -423.3299999999999,494.13" fill="none" stroke="black" stroke-width="4.0"/>
	<path d="M -423.3299999999999,492.35 L -423.3299999999999,488.81" fill="none" stroke="black" stroke-width="4.0"/>
	<path d="M -423.3299999999999,487.03 L -423.3299999999999,483.49" fill="none" stroke="black" stroke-width="4.0"/>
	<path d="M -423.3299999999999,481.72 L -423.3299999999999,478.17" fill="none" stroke="black" stroke-width="4.0"/>
	<path d="M -423.3299999999999,476.4 L -423.3299999999999,472.85" fill="none" stroke="black" stroke-width="4.0"/>
	<path d="M -423.3299999999999,471.08 L -423.3299999999999,467.54" fill="none" stroke="black" stroke-width="4.0"/>
	<path d="M -423.3299999999999,465.76 L -423.33,462.22" fill="none" stroke="black" stroke-width="4.0"/>
	<path d="M -423.33,460.44 L -423.33,456.9" fill="none" stroke="black" stroke-width="4.0"/>
	<path d="M -423.33,455.13 L -423.33,451.58" fill="none" stroke="black" stroke-width="4.0"/>
	<path d="M -423.33,449.81 L -423.33,446.26" fill="none" stroke="black" stroke-width="4.0"/>
	<path d="M -423.33,444.49 L -423.33,440.95" fill="none" stroke="black" stroke-width="4.0"/>
	<path d="M -423.33,439.17 L -423.33,435.63" fill="none" stroke="black" stroke-width="4.0"/>
	<path d="M -423.33,433.85 L -423.33,430.31" fill="none" stroke="black" stroke-width="4.0"/>
	<path d="M -423.33,428.54 L -423.33,424.99" fill="none" stroke="black" stroke-width="4.0"/>
	<path d="M -423.33,423.22 L -423.33,419.67" fill="none" stroke="black" stroke-width="4.0"/>
	<path d="M -423.33,417.9 L -423.33,414.36" fill="none" stroke="black" stroke-width="4.0"/>
	<path d="M -423.33,412.58 L -423.33,409.04" fill="none" stroke="black" stroke-width="4.0"/>
	<path d="M -423.33,407.26 L -423.33,403.72" fill="none" stroke="black" stroke-width="4.0"/>
	<path d="M -423.33,401.95 L -423.33,399.93" fill="none" stroke="black" stroke-width="4.0"/>
	<path d="M -436.38999999999993,541.89 L -433.5899999999999,541.89 L -436.38999999999993,541.89" fill="none" stroke="black" stroke-width="4.0"/>
	<path d="M -431.81999999999994,541.89 L -429.00999999999993,541.89 L -431.81999999999994,541.89" fill="none" stroke="black" stroke-width="4.0"/>
	<path d="M -429.00999999999993,541.89 L -429.00999999999993,538.27" fill="none" stroke="black" stroke-width="4.0"/>
	<path d="M -429.00999999999993,536.49 L -429.00999999999993,532.95" fill="none" stroke="black" stroke-width="4.0"/>
	<path d="M -429.00999999999993,531.18 L -429.00999999999993,527.63" fill="none" stroke="black" stroke-width="4.0"/>
	<path d="M -429.00999999999993,525.86 L -429.00999999999993,522.31" fill="none" stroke="black" stroke-width="4.0"/>
	<path d="M -429.00999999999993,520.54 L -429.00999999999993,516.99" fill="none" stroke="black" stroke-width="4.0"/>
	<path d="M -429.00999999999993,515.22 L -429.00999999999993,511.68" fill="none" stroke="black" stroke-width="4.0"/>
	<path d="M -429.00999999999993,509.9 L -429.00999999999993,506.36" fill="none" stroke="black" stroke-width="4.0"/>
	<path d="M -429.00999999999993,504.59 L -429.00999999999993,501.04" fill="none" stroke="black" stroke-width="4.0"/>
	<path d="M -429.00999999999993,499.27 L -429.00999999999993,495.72" fill="none" stroke="black" stroke-width="4.0"/>
	<path d="M -429.00999999999993,493.95 L -429.00999999999993,490.4" fill="none" stroke="black" stroke-width="4.0"/>
	<path d="M -429.00999999999993,488.63 L -429.00999999999993,485.09" fill="none" stroke="black" stroke-width="4.0"/>
	<path d="M -429.00999999999993,483.31 L -429.00999999999993,479.77" fill="none" stroke="black" stroke-width="4.0"/>
	<path d="M -429.00999999999993,478.0 L -429.00999999999993,474.45" fill="none" stroke="black" stroke-width="4.0"/>
	<path d="M -429.00999999999993,472.68 L -429.00999999999993,469.13" fill="none" stroke="black" stroke-width="4.0"/>
	<path d="M -429.00999999999993,467.36 L -429.01,463.81" fill="none" stroke="black" stroke-width="4.0"/>
	<path d="M -429.01,462.04 L -429.01,458.5" fill="none" stroke="black" stroke-width="4.0"/>
	<path d="M -429.01,456.72 L -429.01,453.18" fill="none" stroke="black" stroke-width="4.0"/>
	<path d="M -429.01,451.41 L -429.01,447.86" fill="none" stroke="black" stroke-width="4.0"/>
	<path d="M -429.01,446.09 L -429.01,442.54" fill="none" stroke="black" stroke-width="4.0"/>
	<path d="M -429.01,440.77 L -429.01,437.22" fill="none" stroke="black" stroke-width="4.0"/>
	<path d="M -429.01,435.45 L -429.01,431.91" fill="none" stroke="black" stroke-width="4.0"/>
	<path d="M -429.01,430.13 L -429.01,426.59" fill="none" stroke="black" stroke-width="4.0"/>
	<path d="M -429.01,424.82 L -429.01,421.27" fill="none" stroke="black" stroke-width="4.0"/>
	<path d="M -429.01,419.5 L -429.01,415.95" fill="none" stroke="black" stroke-width="4.0"/>
	<path d="M -429.01,414.18 L -429.01,410.64" fill="none" stroke="black" stroke-width="4.0"/>
	<path d="M -429.01,408.86 L -429.01,405.32" fill="none" stroke="black" stroke-width="4.0"/>
	<path d="M -429.01,403.54 L -429.01,399.93" fill="none" stroke="black" stroke-width="4.0"/>
	<path d="M -415.05,255.84000000000003 L -418.3,255.84000000000003 L -415.05,255.84000000000003" fill="none" stroke="black" stroke-width="4.0"/>
	<path d="M -420.07,255.84000000000003 L -423.33,255.84000000000003 L -420.07,255.84000000000003" fill="none" stroke="black" stroke-width="4.0"/>
	<path d="M -423.33,255.84000000000003 L -423.33,257.86" fill="none" stroke="black" stroke-width="4.0"/>
	<path d="M -423.33,259.64 L -423.33,263.18" fill="none" stroke="black" stroke-width="4.0"/>
	<path d="M -423.33,264.96 L -423.33,268.5" fill="none" stroke="black" stroke-width="4.0"/>
	<path d="M -423.33,270.27 L -423.33,273.82" fill="none" stroke="black" stroke-width="4.0"/>
	<path d="M -423.33,275.59 L -423.33,279.14" fill="none" stroke="black" stroke-width="4.0"/>
	<path d="M -423.33,280.91 L -423.33,284.45" fill="none" stroke="black" stroke-width="4.0"/>
	<path d="M -423.33,286.23 L -423.33,289.77" fill="none" stroke="black" stroke-width="4.0"/>
	<path d="M -423.33,291.55 L -423.33,295.09" fill="none" stroke="black" stroke-width="4.0"/>
	<path d="M -423.33,296.86 L -423.33,300.41" fill="none" stroke="black" stroke-width="4.0"/>
	<path d="M -423.33,302.18 L -423.33,305.73" fill="none" stroke="black" stroke-width="4.0"/>
	<path d="M -423.33,307.5 L -423.33,311.04" fill="none" stroke="black" stroke-width="4.0"/>
	<path d="M -423.33,312.82 L -423.33,316.36" fill="none" stroke="black" stroke-width="4.0"/>
	<path d="M -423.33,318.14 L -423.33,321.68" fill="none" stroke="black" stroke-width="4.0"/>
	<path d="M -423.33,323.45 L -423.33,327.0" fill="none" stroke="black" stroke-width="4.0"/>
	<path d="M -423.33,328.77 L -423.33,332.32" fill="none" stroke="black" stroke-width="4.0"/>
	<path d="M -423.33,334.09 L -423.33,337.63" fill="none" stroke="black" stroke-width="4.0"/>
	<path d="M -423.33,339.41 L -423.33,342.95" fill="none" stroke="black" stroke-width="4.0"/>
	<path d="M -423.33,344.73 L -423.33,348.27" fill="none" stroke="black" stroke-width="4.0"/>
	<path d="M -423.33,350.04 L -423.33,353.59" fill="none" stroke="black" stroke-width="4.0"/>
	<path d="M -423.33,355.36 L -423.33,358.91" fill="none" stroke="black" stroke-width="4.0"/>
	<path d="M -423.33,360.68 L -423.33,364.22" fill="none" stroke="black" stroke-width="4.0"/>
	<path d="M -423.33,366.0 L -423.33,369.54" fill="none" stroke="black" stroke-width="4.0"/>
	<path d="M -423.33,371.31 L -423.33,374.86" fill="none" stroke="black" stroke-width="4.0"/>
	<path d="M -423.33,376.63 L -423.33,380.18" fill="none" stroke="black" stroke-width="4.0"/>
	<path d="M -423.33,381.95 L -423.33,385.5" fill="none" stroke="black" stroke-width="4.0"/>
	<path d="M -423.33,387.27 L -423.33,390.81" fill="none" stroke="black" stroke-width="4.0"/>
	<path d="M -423.33,392.59 L -423.33,396.13" fill="none" stroke="black" stroke-width="4.0"/>
	<path d="M -423.33,397.9 L -423.33,399.93" fill="none" stroke="black" stroke-width="4.0"/>
	<path d="M -436.39,257.97 L -433.59,257.97 L -436.39,257.97" fill="none" stroke="black" stroke-width="4.0"/>
	<path d="M -431.82,257.97 L -429.01,257.97 L -431.82,257.97" fill="none" stroke="black" stroke-width="4.0"/>
	<path d="M -429.01,257.97 L -429.01,261.59" fill="none" stroke="black" stroke-width="4.0"/>
	<path d="M -429.01,263.36 L -429.01,266.9" fill="none" stroke="black" stroke-width="4.0"/>
	<path d="M -429.01,268.68 L -429.01,272.22" fill="none" stroke="black" stroke-width="4.0"/>
	<path d="M -429.01,273.99 L -429.01,277.54" fill="none" stroke="black" stroke-width="4.0"/>
	<path d="M -429.01,279.31 L -429.01,282.86" fill="none" stroke="black" stroke-width="4.0"/>
	<path d="M -429.01,284.63 L -429.01,288.17" fill="none" stroke="black" stroke-width="4.0"/>
	<path d="M -429.01,289.95 L -429.01,293.49" fill="none" stroke="black" stroke-width="4.0"/>
	<path d="M -429.01,295.27 L -429.01,298.81" fill="none" stroke="black" stroke-width="4.0"/>
	<path d="M -429.01,300.58 L -429.01,304.13" fill="none" stroke="black" stroke-width="4.0"/>
	<path d="M -429.01,305.9 L -429.01,309.45" fill="none" stroke="black" stroke-width="4.0"/>
	<path d="M -429.01,311.22 L -429.01,314.76" fill="none" stroke="black" stroke-width="4.0"/>
	<path d="M -429.01,316.54 L -429.01,320.08" fill="none" stroke="black" stroke-width="4.0"/>
	<path d="M -429.01,321.86 L -429.01,325.4" fill="none" stroke="black" stroke-width="4.0"/>
	<path d="M -429.01,327.17 L -429.01,330.72" fill="none" stroke="black" stroke-width="4.0"/>
	<path d="M -429.01,332.49 L -429.01,336.04" fill="none" stroke="black" stroke-width="4.0"/>
	<path d="M -429.01,337.81 L -429.01,341.35" fill="none" stroke="black" stroke-width="4.0"/>
	<path d="M -429.01,343.13 L -429.01,346.67" fill="none" stroke="black" stroke-width="4.0"/>
	<path d="M -429.01,348.45 L -429.01,351.99" fill="none" stroke="black" stroke-width="4.0"/>
	<path d="M -429.01,353.76 L -429.01,357.31" fill="none" stroke="black" stroke-width="4.0"/>
	<path d="M -429.01,359.08 L -429.01,362.63" fill="none" stroke="black" stroke-width="4.0"/>
	<path d="M -429.01,364.4 L -429.01,367.94" fill="none" stroke="black" stroke-width="4.0"/>
	<path d="M -429.01,369.72 L -429.01,373.26" fill="none" stroke="black" stroke-width="4.0"/>
	<path d="M -429.01,375.04 L -429.01,378.58" fill="none" stroke="black" stroke-width="4.0"/>
	<path d="M -429.01,380.35 L -429.01,383.9" fill="none" stroke="black" stroke-width="4.0"/>
	<path d="M -429.01,385.67 L -429.01,389.22" fill="none" stroke="black" stroke-width="4.0"/>
	<path d="M -429.01,390.99 L -429.01,394.53" fill="none" stroke="black" stroke-width="4.0"/>
	<path d="M -429.01,396.31 L -429.01,399.93" fill="none" stroke="black" stroke-width="4.0"/>
	<path d="M -405.44999999999993,542.56 L -394.25999999999993,542.56 L -405.44999999999993,542.56" fill="none" stroke="black" stroke-width="4.0"/>
	<path d="M -389.85999999999996,546.96 A 4.402,4.402 0.0 0,0 -394.25999999999993,542.56" fill="none" stroke="black" stroke-width="4.0"/>
	<path d="M -389.85999999999996,546.96 L -389.85999999999996,560.87" fill="none" stroke="black" stroke-width="4.0"/>
	<path d="M -394.25999999999993,565.27 A 4.402,4.402 0.0 0,0 -389.85999999999996,560.87" fill="none" stroke="black" stroke-width="4.0"/>
	<path d="M -394.25999999999993,565.27 L -429.69999999999993,565.27 L -394.25999999999993,565.27" fill="none" stroke="black" stroke-width="4.0"/>
	<path d="M -434.10999999999996,560.87 A 4.402,4.402 0.0 0,0 -429.69999999999993,565.27" fill="none" stroke="black" stroke-width="4.0"/>
	<path d="M -434.10999999999996,560.87 L -434.10999999999996,560.27" fill="none" stroke="black" stroke-width="4.0"/>
	<path d="M -431.81999999999994,556.41 A 4.402,4.402 0.0 0,0 -434.10999999999996,560.27" fill="none" stroke="black" stroke-width="4.0"/>
	<path d="M -431.81999999999994,556.41 L -407.55999999999995,543.1" fill="none" stroke="black" stroke-width="4.0"/>
	<path d="M -405.44999999999993,542.56 A 4.402,4.402 0.0 0,0 -407.55999999999995,543.1" fill="none" stroke="black" stroke-width="4.0"/>
	<path d="M -415.04999999999995,547.21 L -415.05,232.43000000000004" fill="none" stroke="black" stroke-width="4.0"/>
	<path d="M -415.05,232.43000000000004 L -430.23,232.43000000000004 L -415.05,232.43000000000004" fill="none" stroke="black" stroke-width="4.0"/>
	<path d="M -430.23,232.43000000000004 A 6.167,6.167 0.0 0,0 -436.39,238.60000000000002" fill="none" stroke="black" stroke-width="4.0"/>
	<path d="M -436.39,238.60000000000002 L -436.38999999999993,561.25" fill="none" stroke="black" stroke-width="4.0"/>
	<path d="M -436.38999999999993,561.25 A 6.167,6.167 0.0 0,0 -430.22999999999996,567.42" fill="none" stroke="black" stroke-width="4.0"/>
	<path d="M -430.22999999999996,567.42 L -415.04999999999995,567.42 L -430.22999999999996,567.42" fill="none" stroke="black" stroke-width="4.0"/>
	<path d="M -415.04999999999995,567.42 L -415.04999999999995,565.27" fill="none" stroke="black" stroke-width="4.0"/>
	<path d="M -436.39,238.60000000000002 L -436.38999999999993,561.25" fill="none" stroke="black" stroke-width="4.0"/>
	<path d="M -436.38999999999993,561.25 A 6.167,6.167 0.0 0,0 -430.22999999999996,567.42" fill="none" stroke="black" stroke-width="4.0"/>
	<path d="M -430.22999999999996,567.42 L -140.48999999999998,567.42 L -430.22999999999996,567.42" fill="none" stroke="black" stroke-width="4.0"/>
	<path d="M -140.48999999999998,567.42 L -140.48999999999998,232.43" fill="none" stroke="black" stroke-width="4.0"/>
	<path d="M -140.48999999999998,232.43 L -430.23,232.43000000000004 L -140.48999999999998,232.43" fill="none" stroke="black" stroke-width="4.0"/>
	<path d="M -430.23,232.43000000000004 A 6.167,6.167 0.0 0,0 -436.39,238.60000000000002" fill="none" stroke="black" stroke-width="4.0"/>
	<path d="M -413.60999999999996,567.42 L -428.78999999999996,567.42 L -413.60999999999996,567.42" fill="none" stroke="black" stroke-width="4.0"/>
</svg>