<svg xmlns="http://www.w3.org/2000/svg" version="1.1" viewBox="232.18 140.24 335.49 319.8">
  <desc>Produce by Acme CAD Converter</desc>
<path d="M 247.4 436.39 A 508.75 508.75 0 0 0 552.45 436.39" fill="none" stroke="black" stroke-width="4.0"/>
<path d="M 305.47 436.39 A 277.197 277.197 0 0 0 494.38 436.39" fill="none" stroke="black" stroke-width="4.0"/>
<path d="M564.77 429.7L564.58 430.91" fill="none" stroke="black" stroke-width="4.0"/>
<path d="M564.58 430.91L564.03 431.99" fill="none" stroke="black" stroke-width="4.0"/>
<path d="M564.03 431.99L563.16 432.86" fill="none" stroke="black" stroke-width="4.0"/>
<path d="M563.16 432.86L562.08 433.41" fill="none" stroke="black" stroke-width="4.0"/>
<path d="M562.08 433.41L560.87 433.6" fill="none" stroke="black" stroke-width="4.0"/>
<path d="M560.87 433.6L559.67 433.41" fill="none" stroke="black" stroke-width="4.0"/>
<path d="M559.67 433.41L558.58 432.86" fill="none" stroke="black" stroke-width="4.0"/>
<path d="M558.58 432.86L557.72 431.99" fill="none" stroke="black" stroke-width="4.0"/>
<path d="M557.72 431.99L557.17 430.91" fill="none" stroke="black" stroke-width="4.0"/>
<path d="M557.17 430.91L556.98 429.7" fill="none" stroke="black" stroke-width="4.0"/>
<path d="M556.98 429.7L557.17 428.5" fill="none" stroke="black" stroke-width="4.0"/>
<path d="M557.17 428.5L557.72 427.41" fill="none" stroke="black" stroke-width="4.0"/>
<path d="M557.72 427.41L558.58 426.55" fill="none" stroke="black" stroke-width="4.0"/>
<path d="M558.58 426.55L559.67 426" fill="none" stroke="black" stroke-width="4.0"/>
<path d="M559.67 426L560.87 425.81" fill="none" stroke="black" stroke-width="4.0"/>
<path d="M560.87 425.81L562.08 426" fill="none" stroke="black" stroke-width="4.0"/>
<path d="M562.08 426L563.16 426.55" fill="none" stroke="black" stroke-width="4.0"/>
<path d="M563.16 426.55L564.03 427.41" fill="none" stroke="black" stroke-width="4.0"/>
<path d="M564.03 427.41L564.58 428.5" fill="none" stroke="black" stroke-width="4.0"/>
<path d="M564.58 428.5L564.77 429.7" fill="none" stroke="black" stroke-width="4.0"/>
<path d="M550.67 394.26L550.48 395.4" fill="none" stroke="black" stroke-width="4.0"/>
<path d="M550.48 395.4L549.96 396.43" fill="none" stroke="black" stroke-width="4.0"/>
<path d="M549.96 396.43L549.14 397.25" fill="none" stroke="black" stroke-width="4.0"/>
<path d="M549.14 397.25L548.11 397.78" fill="none" stroke="black" stroke-width="4.0"/>
<path d="M548.11 397.78L546.96 397.96" fill="none" stroke="black" stroke-width="4.0"/>
<path d="M546.96 397.96L545.82 397.78" fill="none" stroke="black" stroke-width="4.0"/>
<path d="M545.82 397.78L544.79 397.25" fill="none" stroke="black" stroke-width="4.0"/>
<path d="M544.79 397.25L543.97 396.43" fill="none" stroke="black" stroke-width="4.0"/>
<path d="M543.97 396.43L543.44 395.4" fill="none" stroke="black" stroke-width="4.0"/>
<path d="M543.44 395.4L543.26 394.26" fill="none" stroke="black" stroke-width="4.0"/>
<path d="M543.26 394.26L543.44 393.11" fill="none" stroke="black" stroke-width="4.0"/>
<path d="M543.44 393.11L543.97 392.08" fill="none" stroke="black" stroke-width="4.0"/>
<path d="M543.97 392.08L544.79 391.26" fill="none" stroke="black" stroke-width="4.0"/>
<path d="M544.79 391.26L545.82 390.74" fill="none" stroke="black" stroke-width="4.0"/>
<path d="M545.82 390.74L546.96 390.56" fill="none" stroke="black" stroke-width="4.0"/>
<path d="M546.96 390.56L548.11 390.74" fill="none" stroke="black" stroke-width="4.0"/>
<path d="M548.11 390.74L549.14 391.26" fill="none" stroke="black" stroke-width="4.0"/>
<path d="M549.14 391.26L549.96 392.08" fill="none" stroke="black" stroke-width="4.0"/>
<path d="M549.96 392.08L550.48 393.11" fill="none" stroke="black" stroke-width="4.0"/>
<path d="M550.48 393.11L550.67 394.26" fill="none" stroke="black" stroke-width="4.0"/>
<path d="M564.58 394.26L564.39 395.4" fill="none" stroke="black" stroke-width="4.0"/>
<path d="M564.39 395.4L563.87 396.43" fill="none" stroke="black" stroke-width="4.0"/>
<path d="M563.87 396.43L563.05 397.25" fill="none" stroke="black" stroke-width="4.0"/>
<path d="M563.05 397.25L562.02 397.78" fill="none" stroke="black" stroke-width="4.0"/>
<path d="M562.02 397.78L560.87 397.96" fill="none" stroke="black" stroke-width="4.0"/>
<path d="M560.87 397.96L559.73 397.78" fill="none" stroke="black" stroke-width="4.0"/>
<path d="M559.73 397.78L558.7 397.25" fill="none" stroke="black" stroke-width="4.0"/>
<path d="M558.7 397.25L557.88 396.43" fill="none" stroke="black" stroke-width="4.0"/>
<path d="M557.88 396.43L557.35 395.4" fill="none" stroke="black" stroke-width="4.0"/>
<path d="M557.35 395.4L557.17 394.26" fill="none" stroke="black" stroke-width="4.0"/>
<path d="M557.17 394.26L557.35 393.11" fill="none" stroke="black" stroke-width="4.0"/>
<path d="M557.35 393.11L557.88 392.08" fill="none" stroke="black" stroke-width="4.0"/>
<path d="M557.88 392.08L558.7 391.26" fill="none" stroke="black" stroke-width="4.0"/>
<path d="M558.7 391.26L559.73 390.74" fill="none" stroke="black" stroke-width="4.0"/>
<path d="M559.73 390.74L560.87 390.56" fill="none" stroke="black" stroke-width="4.0"/>
<path d="M560.87 390.56L562.02 390.74" fill="none" stroke="black" stroke-width="4.0"/>
<path d="M562.02 390.74L563.05 391.26" fill="none" stroke="black" stroke-width="4.0"/>
<path d="M563.05 391.26L563.87 392.08" fill="none" stroke="black" stroke-width="4.0"/>
<path d="M563.87 392.08L564.39 393.11" fill="none" stroke="black" stroke-width="4.0"/>
<path d="M564.39 393.11L564.58 394.26" fill="none" stroke="black" stroke-width="4.0"/>
<path d="M557.62 407.67L557.44 408.82" fill="none" stroke="black" stroke-width="4.0"/>
<path d="M557.44 408.82L556.91 409.85" fill="none" stroke="black" stroke-width="4.0"/>
<path d="M556.91 409.85L556.09 410.67" fill="none" stroke="black" stroke-width="4.0"/>
<path d="M556.09 410.67L555.06 411.2" fill="none" stroke="black" stroke-width="4.0"/>
<path d="M555.06 411.2L553.92 411.38" fill="none" stroke="black" stroke-width="4.0"/>
<path d="M553.92 411.38L552.77 411.2" fill="none" stroke="black" stroke-width="4.0"/>
<path d="M552.77 411.2L551.74 410.67" fill="none" stroke="black" stroke-width="4.0"/>
<path d="M551.74 410.67L550.92 409.85" fill="none" stroke="black" stroke-width="4.0"/>
<path d="M550.92 409.85L550.4 408.82" fill="none" stroke="black" stroke-width="4.0"/>
<path d="M550.4 408.82L550.22 407.67" fill="none" stroke="black" stroke-width="4.0"/>
<path d="M550.22 407.67L550.4 406.53" fill="none" stroke="black" stroke-width="4.0"/>
<path d="M550.4 406.53L550.92 405.5" fill="none" stroke="black" stroke-width="4.0"/>
<path d="M550.92 405.5L551.74 404.68" fill="none" stroke="black" stroke-width="4.0"/>
<path d="M551.74 404.68L552.77 404.15" fill="none" stroke="black" stroke-width="4.0"/>
<path d="M552.77 404.15L553.92 403.97" fill="none" stroke="black" stroke-width="4.0"/>
<path d="M553.92 403.97L555.06 404.15" fill="none" stroke="black" stroke-width="4.0"/>
<path d="M555.06 404.15L556.09 404.68" fill="none" stroke="black" stroke-width="4.0"/>
<path d="M556.09 404.68L556.91 405.5" fill="none" stroke="black" stroke-width="4.0"/>
<path d="M556.91 405.5L557.44 406.53" fill="none" stroke="black" stroke-width="4.0"/>
<path d="M557.44 406.53L557.62 407.67" fill="none" stroke="black" stroke-width="4.0"/>
<path d="M544.01 415.05L544.01 418.3Z" fill="none" stroke="black" stroke-width="4.0"/>
<path d="M544.01 420.07L544.01 423.33Z" fill="none" stroke="black" stroke-width="4.0"/>
<path d="M544.01 423.33L541.99 423.33" fill="none" stroke="black" stroke-width="4.0"/>
<path d="M540.21 423.33L536.67 423.33" fill="none" stroke="black" stroke-width="4.0"/>
<path d="M534.9 423.33L531.35 423.33" fill="none" stroke="black" stroke-width="4.0"/>
<path d="M529.58 423.33L526.03 423.33" fill="none" stroke="black" stroke-width="4.0"/>
<path d="M524.26 423.33L520.72 423.33" fill="none" stroke="black" stroke-width="4.0"/>
<path d="M518.94 423.33L515.4 423.33" fill="none" stroke="black" stroke-width="4.0"/>
<path d="M513.62 423.33L510.08 423.33" fill="none" stroke="black" stroke-width="4.0"/>
<path d="M508.31 423.33L504.76 423.33" fill="none" stroke="black" stroke-width="4.0"/>
<path d="M502.99 423.33L499.44 423.33" fill="none" stroke="black" stroke-width="4.0"/>
<path d="M497.67 423.33L494.13 423.33" fill="none" stroke="black" stroke-width="4.0"/>
<path d="M492.35 423.33L488.81 423.33" fill="none" stroke="black" stroke-width="4.0"/>
<path d="M487.03 423.33L483.49 423.33" fill="none" stroke="black" stroke-width="4.0"/>
<path d="M481.72 423.33L478.17 423.33" fill="none" stroke="black" stroke-width="4.0"/>
<path d="M476.4 423.33L472.85 423.33" fill="none" stroke="black" stroke-width="4.0"/>
<path d="M471.08 423.33L467.54 423.33" fill="none" stroke="black" stroke-width="4.0"/>
<path d="M465.76 423.33L462.22 423.33" fill="none" stroke="black" stroke-width="4.0"/>
<path d="M460.44 423.33L456.9 423.33" fill="none" stroke="black" stroke-width="4.0"/>
<path d="M455.13 423.33L451.58 423.33" fill="none" stroke="black" stroke-width="4.0"/>
<path d="M449.81 423.33L446.26 423.33" fill="none" stroke="black" stroke-width="4.0"/>
<path d="M444.49 423.33L440.95 423.33" fill="none" stroke="black" stroke-width="4.0"/>
<path d="M439.17 423.33L435.63 423.33" fill="none" stroke="black" stroke-width="4.0"/>
<path d="M433.85 423.33L430.31 423.33" fill="none" stroke="black" stroke-width="4.0"/>
<path d="M428.54 423.33L424.99 423.33" fill="none" stroke="black" stroke-width="4.0"/>
<path d="M423.22 423.33L419.67 423.33" fill="none" stroke="black" stroke-width="4.0"/>
<path d="M417.9 423.33L414.36 423.33" fill="none" stroke="black" stroke-width="4.0"/>
<path d="M412.58 423.33L409.04 423.33" fill="none" stroke="black" stroke-width="4.0"/>
<path d="M407.26 423.33L403.72 423.33" fill="none" stroke="black" stroke-width="4.0"/>
<path d="M401.95 423.33L399.93 423.33" fill="none" stroke="black" stroke-width="4.0"/>
<path d="M541.89 436.39L541.89 433.59Z" fill="none" stroke="black" stroke-width="4.0"/>
<path d="M541.89 431.82L541.89 429.01Z" fill="none" stroke="black" stroke-width="4.0"/>
<path d="M541.89 429.01L538.27 429.01" fill="none" stroke="black" stroke-width="4.0"/>
<path d="M536.49 429.01L532.95 429.01" fill="none" stroke="black" stroke-width="4.0"/>
<path d="M531.18 429.01L527.63 429.01" fill="none" stroke="black" stroke-width="4.0"/>
<path d="M525.86 429.01L522.31 429.01" fill="none" stroke="black" stroke-width="4.0"/>
<path d="M520.54 429.01L516.99 429.01" fill="none" stroke="black" stroke-width="4.0"/>
<path d="M515.22 429.01L511.68 429.01" fill="none" stroke="black" stroke-width="4.0"/>
<path d="M509.9 429.01L506.36 429.01" fill="none" stroke="black" stroke-width="4.0"/>
<path d="M504.59 429.01L501.04 429.01" fill="none" stroke="black" stroke-width="4.0"/>
<path d="M499.27 429.01L495.72 429.01" fill="none" stroke="black" stroke-width="4.0"/>
<path d="M493.95 429.01L490.4 429.01" fill="none" stroke="black" stroke-width="4.0"/>
<path d="M488.63 429.01L485.09 429.01" fill="none" stroke="black" stroke-width="4.0"/>
<path d="M483.31 429.01L479.77 429.01" fill="none" stroke="black" stroke-width="4.0"/>
<path d="M478 429.01L474.45 429.01" fill="none" stroke="black" stroke-width="4.0"/>
<path d="M472.68 429.01L469.13 429.01" fill="none" stroke="black" stroke-width="4.0"/>
<path d="M467.36 429.01L463.81 429.01" fill="none" stroke="black" stroke-width="4.0"/>
<path d="M462.04 429.01L458.5 429.01" fill="none" stroke="black" stroke-width="4.0"/>
<path d="M456.72 429.01L453.18 429.01" fill="none" stroke="black" stroke-width="4.0"/>
<path d="M451.41 429.01L447.86 429.01" fill="none" stroke="black" stroke-width="4.0"/>
<path d="M446.09 429.01L442.54 429.01" fill="none" stroke="black" stroke-width="4.0"/>
<path d="M440.77 429.01L437.22 429.01" fill="none" stroke="black" stroke-width="4.0"/>
<path d="M435.45 429.01L431.91 429.01" fill="none" stroke="black" stroke-width="4.0"/>
<path d="M430.13 429.01L426.59 429.01" fill="none" stroke="black" stroke-width="4.0"/>
<path d="M424.82 429.01L421.27 429.01" fill="none" stroke="black" stroke-width="4.0"/>
<path d="M419.5 429.01L415.95 429.01" fill="none" stroke="black" stroke-width="4.0"/>
<path d="M414.18 429.01L410.64 429.01" fill="none" stroke="black" stroke-width="4.0"/>
<path d="M408.86 429.01L405.32 429.01" fill="none" stroke="black" stroke-width="4.0"/>
<path d="M403.54 429.01L399.93 429.01" fill="none" stroke="black" stroke-width="4.0"/>
<path d="M255.84 415.05L255.84 418.3Z" fill="none" stroke="black" stroke-width="4.0"/>
<path d="M255.84 420.07L255.84 423.33Z" fill="none" stroke="black" stroke-width="4.0"/>
<path d="M255.84 423.33L257.86 423.33" fill="none" stroke="black" stroke-width="4.0"/>
<path d="M259.64 423.33L263.18 423.33" fill="none" stroke="black" stroke-width="4.0"/>
<path d="M264.96 423.33L268.5 423.33" fill="none" stroke="black" stroke-width="4.0"/>
<path d="M270.27 423.33L273.82 423.33" fill="none" stroke="black" stroke-width="4.0"/>
<path d="M275.59 423.33L279.14 423.33" fill="none" stroke="black" stroke-width="4.0"/>
<path d="M280.91 423.33L284.45 423.33" fill="none" stroke="black" stroke-width="4.0"/>
<path d="M286.23 423.33L289.77 423.33" fill="none" stroke="black" stroke-width="4.0"/>
<path d="M291.55 423.33L295.09 423.33" fill="none" stroke="black" stroke-width="4.0"/>
<path d="M296.86 423.33L300.41 423.33" fill="none" stroke="black" stroke-width="4.0"/>
<path d="M302.18 423.33L305.73 423.33" fill="none" stroke="black" stroke-width="4.0"/>
<path d="M307.5 423.33L311.04 423.33" fill="none" stroke="black" stroke-width="4.0"/>
<path d="M312.82 423.33L316.36 423.33" fill="none" stroke="black" stroke-width="4.0"/>
<path d="M318.14 423.33L321.68 423.33" fill="none" stroke="black" stroke-width="4.0"/>
<path d="M323.45 423.33L327 423.33" fill="none" stroke="black" stroke-width="4.0"/>
<path d="M328.77 423.33L332.32 423.33" fill="none" stroke="black" stroke-width="4.0"/>
<path d="M334.09 423.33L337.63 423.33" fill="none" stroke="black" stroke-width="4.0"/>
<path d="M339.41 423.33L342.95 423.33" fill="none" stroke="black" stroke-width="4.0"/>
<path d="M344.73 423.33L348.27 423.33" fill="none" stroke="black" stroke-width="4.0"/>
<path d="M350.04 423.33L353.59 423.33" fill="none" stroke="black" stroke-width="4.0"/>
<path d="M355.36 423.33L358.91 423.33" fill="none" stroke="black" stroke-width="4.0"/>
<path d="M360.68 423.33L364.22 423.33" fill="none" stroke="black" stroke-width="4.0"/>
<path d="M366 423.33L369.54 423.33" fill="none" stroke="black" stroke-width="4.0"/>
<path d="M371.31 423.33L374.86 423.33" fill="none" stroke="black" stroke-width="4.0"/>
<path d="M376.63 423.33L380.18 423.33" fill="none" stroke="black" stroke-width="4.0"/>
<path d="M381.95 423.33L385.5 423.33" fill="none" stroke="black" stroke-width="4.0"/>
<path d="M387.27 423.33L390.81 423.33" fill="none" stroke="black" stroke-width="4.0"/>
<path d="M392.59 423.33L396.13 423.33" fill="none" stroke="black" stroke-width="4.0"/>
<path d="M397.9 423.33L399.93 423.33" fill="none" stroke="black" stroke-width="4.0"/>
<path d="M257.97 436.39L257.97 433.59Z" fill="none" stroke="black" stroke-width="4.0"/>
<path d="M257.97 431.82L257.97 429.01Z" fill="none" stroke="black" stroke-width="4.0"/>
<path d="M257.97 429.01L261.59 429.01" fill="none" stroke="black" stroke-width="4.0"/>
<path d="M263.36 429.01L266.9 429.01" fill="none" stroke="black" stroke-width="4.0"/>
<path d="M268.68 429.01L272.22 429.01" fill="none" stroke="black" stroke-width="4.0"/>
<path d="M273.99 429.01L277.54 429.01" fill="none" stroke="black" stroke-width="4.0"/>
<path d="M279.31 429.01L282.86 429.01" fill="none" stroke="black" stroke-width="4.0"/>
<path d="M284.63 429.01L288.17 429.01" fill="none" stroke="black" stroke-width="4.0"/>
<path d="M289.95 429.01L293.49 429.01" fill="none" stroke="black" stroke-width="4.0"/>
<path d="M295.27 429.01L298.81 429.01" fill="none" stroke="black" stroke-width="4.0"/>
<path d="M300.58 429.01L304.13 429.01" fill="none" stroke="black" stroke-width="4.0"/>
<path d="M305.9 429.01L309.45 429.01" fill="none" stroke="black" stroke-width="4.0"/>
<path d="M311.22 429.01L314.76 429.01" fill="none" stroke="black" stroke-width="4.0"/>
<path d="M316.54 429.01L320.08 429.01" fill="none" stroke="black" stroke-width="4.0"/>
<path d="M321.86 429.01L325.4 429.01" fill="none" stroke="black" stroke-width="4.0"/>
<path d="M327.17 429.01L330.72 429.01" fill="none" stroke="black" stroke-width="4.0"/>
<path d="M332.49 429.01L336.04 429.01" fill="none" stroke="black" stroke-width="4.0"/>
<path d="M337.81 429.01L341.35 429.01" fill="none" stroke="black" stroke-width="4.0"/>
<path d="M343.13 429.01L346.67 429.01" fill="none" stroke="black" stroke-width="4.0"/>
<path d="M348.45 429.01L351.99 429.01" fill="none" stroke="black" stroke-width="4.0"/>
<path d="M353.76 429.01L357.31 429.01" fill="none" stroke="black" stroke-width="4.0"/>
<path d="M359.08 429.01L362.63 429.01" fill="none" stroke="black" stroke-width="4.0"/>
<path d="M364.4 429.01L367.94 429.01" fill="none" stroke="black" stroke-width="4.0"/>
<path d="M369.72 429.01L373.26 429.01" fill="none" stroke="black" stroke-width="4.0"/>
<path d="M375.04 429.01L378.58 429.01" fill="none" stroke="black" stroke-width="4.0"/>
<path d="M380.35 429.01L383.9 429.01" fill="none" stroke="black" stroke-width="4.0"/>
<path d="M385.67 429.01L389.22 429.01" fill="none" stroke="black" stroke-width="4.0"/>
<path d="M390.99 429.01L394.53 429.01" fill="none" stroke="black" stroke-width="4.0"/>
<path d="M396.31 429.01L399.93 429.01" fill="none" stroke="black" stroke-width="4.0"/>
<path d="M542.56 405.45L542.56 394.26Z" fill="none" stroke="black" stroke-width="4.0"/>
<path d="M 546.96 389.86 A 4.402 4.402 0 0 0 542.56 394.26" fill="none" stroke="black" stroke-width="4.0"/>
<path d="M546.96 389.86L560.87 389.86" fill="none" stroke="black" stroke-width="4.0"/>
<path d="M 565.27 394.26 A 4.402 4.402 0 0 0 560.87 389.86" fill="none" stroke="black" stroke-width="4.0"/>
<path d="M565.27 394.26L565.27 429.7Z" fill="none" stroke="black" stroke-width="4.0"/>
<path d="M 560.87 434.11 A 4.402 4.402 0 0 0 565.27 429.7" fill="none" stroke="black" stroke-width="4.0"/>
<path d="M560.87 434.11L560.27 434.11" fill="none" stroke="black" stroke-width="4.0"/>
<path d="M 556.41 431.82 A 4.402 4.402 0 0 0 560.27 434.11" fill="none" stroke="black" stroke-width="4.0"/>
<path d="M556.41 431.82L543.1 407.56" fill="none" stroke="black" stroke-width="4.0"/>
<path d="M 542.56 405.45 A 4.402 4.402 0 0 0 543.1 407.56" fill="none" stroke="black" stroke-width="4.0"/>
<path d="M547.21 415.05L232.43 415.05" fill="none" stroke="black" stroke-width="4.0"/>
<path d="M232.43 415.05L232.43 430.23Z" fill="none" stroke="black" stroke-width="4.0"/>
<path d="M 232.43 430.23 A 6.167 6.167 0 0 0 238.6 436.39" fill="none" stroke="black" stroke-width="4.0"/>
<path d="M238.6 436.39L561.25 436.39" fill="none" stroke="black" stroke-width="4.0"/>
<path d="M 561.25 436.39 A 6.167 6.167 0 0 0 567.42 430.23" fill="none" stroke="black" stroke-width="4.0"/>
<path d="M567.42 430.23L567.42 415.05Z" fill="none" stroke="black" stroke-width="4.0"/>
<path d="M567.42 415.05L565.27 415.05" fill="none" stroke="black" stroke-width="4.0"/>
<path d="M238.6 436.39L561.25 436.39" fill="none" stroke="black" stroke-width="4.0"/>
<path d="M 561.25 436.39 A 6.167 6.167 0 0 0 567.42 430.23" fill="none" stroke="black" stroke-width="4.0"/>
<path d="M567.42 430.23L567.42 140.49Z" fill="none" stroke="black" stroke-width="4.0"/>
<path d="M567.42 140.49L232.43 140.49" fill="none" stroke="black" stroke-width="4.0"/>
<path d="M232.43 140.49L232.43 430.23Z" fill="none" stroke="black" stroke-width="4.0"/>
<path d="M 232.43 430.23 A 6.167 6.167 0 0 0 238.6 436.39" fill="none" stroke="black" stroke-width="4.0"/>
<path d="M567.42 413.61L567.42 428.79Z" fill="none" stroke="black" stroke-width="4.0"/>
</svg>