<svg xmlns="http://www.w3.org/2000/svg" xmlns:ev="http://www.w3.org/2001/xml-events" xmlns:xlink="http://www.w3.org/1999/xlink" baseProfile="full" version="1.1" viewBox="-461.8 81.61 323.6 636.78">
	<defs/>
	<path d="M -140.2,83.61000000000001 L -140.19999999999993,716.39" fill="none" stroke="black" stroke-width="4.0"/>
	<path d="M -140.19999999999993,716.39 L -459.79999999999995,716.39 L -140.19999999999993,716.39" fill="none" stroke="black" stroke-width="4.0"/>
	<path d="M -459.79999999999995,716.39 L -459.8,83.61000000000003" fill="none" stroke="black" stroke-width="4.0"/>
	<path d="M -459.8,83.61000000000003 L -140.2,83.61000000000001 L -459.8,83.61000000000003" fill="none" stroke="black" stroke-width="4.0"/>
	<path d="M -179.93999999999997,389.45 L -179.94,100.87000000000002" fill="none" stroke="black" stroke-width="4.0"/>
	<path d="M -208.69999999999996,389.45 L -208.7,100.87000000000002" fill="none" stroke="black" stroke-width="4.0"/>
	<path d="M -237.46999999999997,389.45 L -237.47,100.87000000000002" fill="none" stroke="black" stroke-width="4.0"/>
	<path d="M -266.23,389.45 L -266.23,100.87000000000002" fill="none" stroke="black" stroke-width="4.0"/>
	<path d="M -294.99,389.45 L -294.99,100.87000000000002" fill="none" stroke="black" stroke-width="4.0"/>
	<path d="M -323.76,389.45 L -323.76,100.87000000000002" fill="none" stroke="black" stroke-width="4.0"/>
	<path d="M -438.81,389.45 L -438.81,100.87000000000003" fill="none" stroke="black" stroke-width="4.0"/>
	<path d="M -410.05,389.45 L -410.05,100.87000000000003" fill="none" stroke="black" stroke-width="4.0"/>
	<path d="M -381.28,389.45 L -381.28,100.87000000000003" fill="none" stroke="black" stroke-width="4.0"/>
	<path d="M -352.52,389.45 L -352.52,100.87000000000003" fill="none" stroke="black" stroke-width="4.0"/>
	<path d="M -162.73999999999998,534.17 L -165.14999999999998,533.98" fill="none" stroke="black" stroke-width="4.0"/>
	<path d="M -165.14999999999998,533.98 L -167.48999999999998,533.4" fill="none" stroke="black" stroke-width="4.0"/>
	<path d="M -167.48999999999998,533.4 L -169.71999999999997,532.45" fill="none" stroke="black" stroke-width="4.0"/>
	<path d="M -169.71999999999997,532.45 L -171.75999999999996,531.16" fill="none" stroke="black" stroke-width="4.0"/>
	<path d="M -171.75999999999996,531.16 L -173.55999999999997,529.56" fill="none" stroke="black" stroke-width="4.0"/>
	<path d="M -173.55999999999997,529.56 L -175.08999999999997,527.69" fill="none" stroke="black" stroke-width="4.0"/>
	<path d="M -175.08999999999997,527.69 L -176.29999999999998,525.6" fill="none" stroke="black" stroke-width="4.0"/>
	<path d="M -176.29999999999998,525.6 L -177.15999999999997,523.34" fill="none" stroke="black" stroke-width="4.0"/>
	<path d="M -177.15999999999997,523.34 L -177.63999999999996,520.97" fill="none" stroke="black" stroke-width="4.0"/>
	<path d="M -177.63999999999996,520.97 L -177.73999999999998,518.56" fill="none" stroke="black" stroke-width="4.0"/>
	<path d="M -177.73999999999998,518.56 L -177.44999999999996,516.16" fill="none" stroke="black" stroke-width="4.0"/>
	<path d="M -177.44999999999996,516.16 L -176.76999999999998,513.84" fill="none" stroke="black" stroke-width="4.0"/>
	<path d="M -176.76999999999998,513.84 L -175.73999999999998,511.66" fill="none" stroke="black" stroke-width="4.0"/>
	<path d="M -175.73999999999998,511.66 L -174.36999999999998,509.67" fill="none" stroke="black" stroke-width="4.0"/>
	<path d="M -174.36999999999998,509.67 L -172.68999999999997,507.93" fill="none" stroke="black" stroke-width="4.0"/>
	<path d="M -172.68999999999997,507.93 L -170.75999999999996,506.48" fill="none" stroke="black" stroke-width="4.0"/>
	<path d="M -170.75999999999996,506.48 L -168.61999999999998,505.36" fill="none" stroke="black" stroke-width="4.0"/>
	<path d="M -168.61999999999998,505.36 L -166.32999999999998,504.59" fill="none" stroke="black" stroke-width="4.0"/>
	<path d="M -166.32999999999998,504.59 L -163.94999999999996,504.21" fill="none" stroke="black" stroke-width="4.0"/>
	<path d="M -163.94999999999996,504.21 L -161.52999999999997,504.21 L -163.94999999999996,504.21" fill="none" stroke="black" stroke-width="4.0"/>
	<path d="M -161.52999999999997,504.21 L -159.14999999999998,504.59" fill="none" stroke="black" stroke-width="4.0"/>
	<path d="M -159.14999999999998,504.59 L -156.85999999999999,505.36" fill="none" stroke="black" stroke-width="4.0"/>
	<path d="M -156.85999999999999,505.36 L -154.71999999999997,506.48" fill="none" stroke="black" stroke-width="4.0"/>
	<path d="M -154.71999999999997,506.48 L -152.78999999999996,507.93" fill="none" stroke="black" stroke-width="4.0"/>
	<path d="M -152.78999999999996,507.93 L -151.11999999999998,509.67" fill="none" stroke="black" stroke-width="4.0"/>
	<path d="M -151.11999999999998,509.67 L -149.74999999999997,511.66" fill="none" stroke="black" stroke-width="4.0"/>
	<path d="M -149.74999999999997,511.66 L -148.70999999999998,513.84" fill="none" stroke="black" stroke-width="4.0"/>
	<path d="M -148.70999999999998,513.84 L -148.03999999999996,516.16" fill="none" stroke="black" stroke-width="4.0"/>
	<path d="M -148.03999999999996,516.16 L -147.74999999999997,518.56" fill="none" stroke="black" stroke-width="4.0"/>
	<path d="M -147.74999999999997,518.56 L -147.83999999999997,520.97" fill="none" stroke="black" stroke-width="4.0"/>
	<path d="M -147.83999999999997,520.97 L -148.32999999999998,523.34" fill="none" stroke="black" stroke-width="4.0"/>
	<path d="M -148.32999999999998,523.34 L -149.17999999999998,525.6" fill="none" stroke="black" stroke-width="4.0"/>
	<path d="M -149.17999999999998,525.6 L -150.38999999999996,527.69" fill="none" stroke="black" stroke-width="4.0"/>
	<path d="M -150.38999999999996,527.69 L -151.91999999999996,529.56" fill="none" stroke="black" stroke-width="4.0"/>
	<path d="M -151.91999999999996,529.56 L -153.72999999999996,531.16" fill="none" stroke="black" stroke-width="4.0"/>
	<path d="M -153.72999999999996,531.16 L -155.76999999999998,532.45" fill="none" stroke="black" stroke-width="4.0"/>
	<path d="M -155.76999999999998,532.45 L -157.98999999999998,533.4" fill="none" stroke="black" stroke-width="4.0"/>
	<path d="M -157.98999999999998,533.4 L -160.32999999999998,533.98" fill="none" stroke="black" stroke-width="4.0"/>
	<path d="M -160.32999999999998,533.98 L -162.73999999999998,534.17" fill="none" stroke="black" stroke-width="4.0"/>
	<path d="M -162.73999999999998,629.96 L -165.14999999999998,629.76" fill="none" stroke="black" stroke-width="4.0"/>
	<path d="M -165.14999999999998,629.76 L -167.48999999999998,629.18" fill="none" stroke="black" stroke-width="4.0"/>
	<path d="M -167.48999999999998,629.18 L -169.71999999999997,628.24" fill="none" stroke="black" stroke-width="4.0"/>
	<path d="M -169.71999999999997,628.24 L -171.75999999999996,626.95" fill="none" stroke="black" stroke-width="4.0"/>
	<path d="M -171.75999999999996,626.95 L -173.55999999999997,625.34" fill="none" stroke="black" stroke-width="4.0"/>
	<path d="M -173.55999999999997,625.34 L -175.08999999999997,623.47" fill="none" stroke="black" stroke-width="4.0"/>
	<path d="M -175.08999999999997,623.47 L -176.29999999999998,621.38" fill="none" stroke="black" stroke-width="4.0"/>
	<path d="M -176.29999999999998,621.38 L -177.15999999999997,619.12" fill="none" stroke="black" stroke-width="4.0"/>
	<path d="M -177.15999999999997,619.12 L -177.63999999999996,616.76" fill="none" stroke="black" stroke-width="4.0"/>
	<path d="M -177.63999999999996,616.76 L -177.73999999999998,614.34" fill="none" stroke="black" stroke-width="4.0"/>
	<path d="M -177.73999999999998,614.34 L -177.44999999999996,611.95" fill="none" stroke="black" stroke-width="4.0"/>
	<path d="M -177.44999999999996,611.95 L -176.76999999999998,609.63" fill="none" stroke="black" stroke-width="4.0"/>
	<path d="M -176.76999999999998,609.63 L -175.73999999999998,607.45" fill="none" stroke="black" stroke-width="4.0"/>
	<path d="M -175.73999999999998,607.45 L -174.36999999999998,605.46" fill="none" stroke="black" stroke-width="4.0"/>
	<path d="M -174.36999999999998,605.46 L -172.68999999999997,603.72" fill="none" stroke="black" stroke-width="4.0"/>
	<path d="M -172.68999999999997,603.72 L -170.75999999999996,602.27" fill="none" stroke="black" stroke-width="4.0"/>
	<path d="M -170.75999999999996,602.27 L -168.61999999999998,601.14" fill="none" stroke="black" stroke-width="4.0"/>
	<path d="M -168.61999999999998,601.14 L -166.32999999999998,600.38" fill="none" stroke="black" stroke-width="4.0"/>
	<path d="M -166.32999999999998,600.38 L -163.94999999999996,599.99" fill="none" stroke="black" stroke-width="4.0"/>
	<path d="M -163.94999999999996,599.99 L -161.52999999999997,599.99 L -163.94999999999996,599.99" fill="none" stroke="black" stroke-width="4.0"/>
	<path d="M -161.52999999999997,599.99 L -159.14999999999998,600.38" fill="none" stroke="black" stroke-width="4.0"/>
	<path d="M -159.14999999999998,600.38 L -156.85999999999999,601.14" fill="none" stroke="black" stroke-width="4.0"/>
	<path d="M -156.85999999999999,601.14 L -154.71999999999997,602.27" fill="none" stroke="black" stroke-width="4.0"/>
	<path d="M -154.71999999999997,602.27 L -152.78999999999996,603.72" fill="none" stroke="black" stroke-width="4.0"/>
	<path d="M -152.78999999999996,603.72 L -151.11999999999998,605.46" fill="none" stroke="black" stroke-width="4.0"/>
	<path d="M -151.11999999999998,605.46 L -149.74999999999997,607.45" fill="none" stroke="black" stroke-width="4.0"/>
	<path d="M -149.74999999999997,607.45 L -148.70999999999998,609.63" fill="none" stroke="black" stroke-width="4.0"/>
	<path d="M -148.70999999999998,609.63 L -148.03999999999996,611.95" fill="none" stroke="black" stroke-width="4.0"/>
	<path d="M -148.03999999999996,611.95 L -147.74999999999997,614.34" fill="none" stroke="black" stroke-width="4.0"/>
	<path d="M -147.74999999999997,614.34 L -147.83999999999997,616.76" fill="none" stroke="black" stroke-width="4.0"/>
	<path d="M -147.83999999999997,616.76 L -148.32999999999998,619.12" fill="none" stroke="black" stroke-width="4.0"/>
	<path d="M -148.32999999999998,619.12 L -149.17999999999998,621.38" fill="none" stroke="black" stroke-width="4.0"/>
	<path d="M -149.17999999999998,621.38 L -150.38999999999996,623.47" fill="none" stroke="black" stroke-width="4.0"/>
	<path d="M -150.38999999999996,623.47 L -151.91999999999996,625.34" fill="none" stroke="black" stroke-width="4.0"/>
	<path d="M -151.91999999999996,625.34 L -153.72999999999996,626.95" fill="none" stroke="black" stroke-width="4.0"/>
	<path d="M -153.72999999999996,626.95 L -155.76999999999998,628.24" fill="none" stroke="black" stroke-width="4.0"/>
	<path d="M -155.76999999999998,628.24 L -157.98999999999998,629.18" fill="none" stroke="black" stroke-width="4.0"/>
	<path d="M -157.98999999999998,629.18 L -160.32999999999998,629.76" fill="none" stroke="black" stroke-width="4.0"/>
	<path d="M -160.32999999999998,629.76 L -162.73999999999998,629.96" fill="none" stroke="black" stroke-width="4.0"/>
	<path d="M -162.75999999999996,585.55 L -165.42999999999998,585.36" fill="none" stroke="black" stroke-width="4.0"/>
	<path d="M -165.42999999999998,585.36 L -168.04999999999998,584.79" fill="none" stroke="black" stroke-width="4.0"/>
	<path d="M -168.04999999999998,584.79 L -170.54999999999998,583.85" fill="none" stroke="black" stroke-width="4.0"/>
	<path d="M -170.54999999999998,583.85 L -172.89999999999998,582.57" fill="none" stroke="black" stroke-width="4.0"/>
	<path d="M -172.89999999999998,582.57 L -175.04999999999998,580.97" fill="none" stroke="black" stroke-width="4.0"/>
	<path d="M -175.04999999999998,580.97 L -176.93999999999997,579.07" fill="none" stroke="black" stroke-width="4.0"/>
	<path d="M -176.93999999999997,579.07 L -178.53999999999996,576.93" fill="none" stroke="black" stroke-width="4.0"/>
	<path d="M -178.53999999999996,576.93 L -179.81999999999996,574.58" fill="none" stroke="black" stroke-width="4.0"/>
	<path d="M -179.81999999999996,574.58 L -180.75999999999996,572.07" fill="none" stroke="black" stroke-width="4.0"/>
	<path d="M -180.75999999999996,572.07 L -181.32999999999998,569.46" fill="none" stroke="black" stroke-width="4.0"/>
	<path d="M -181.32999999999998,569.46 L -181.51999999999998,566.79" fill="none" stroke="black" stroke-width="4.0"/>
	<path d="M -181.51999999999998,566.79 L -181.32999999999998,564.12" fill="none" stroke="black" stroke-width="4.0"/>
	<path d="M -181.32999999999998,564.12 L -180.75999999999996,561.5" fill="none" stroke="black" stroke-width="4.0"/>
	<path d="M -180.75999999999996,561.5 L -179.81999999999996,559.0" fill="none" stroke="black" stroke-width="4.0"/>
	<path d="M -179.81999999999996,559.0 L -178.53999999999996,556.65" fill="none" stroke="black" stroke-width="4.0"/>
	<path d="M -178.53999999999996,556.65 L -176.93999999999997,554.5" fill="none" stroke="black" stroke-width="4.0"/>
	<path d="M -176.93999999999997,554.5 L -175.04999999999998,552.61" fill="none" stroke="black" stroke-width="4.0"/>
	<path d="M -175.04999999999998,552.61 L -172.89999999999998,551.01" fill="none" stroke="black" stroke-width="4.0"/>
	<path d="M -172.89999999999998,551.01 L -170.54999999999998,549.73" fill="none" stroke="black" stroke-width="4.0"/>
	<path d="M -170.54999999999998,549.73 L -168.04999999999998,548.79" fill="none" stroke="black" stroke-width="4.0"/>
	<path d="M -168.04999999999998,548.79 L -165.42999999999998,548.22" fill="none" stroke="black" stroke-width="4.0"/>
	<path d="M -165.42999999999998,548.22 L -162.75999999999996,548.03" fill="none" stroke="black" stroke-width="4.0"/>
	<path d="M -162.75999999999996,548.03 L -160.08999999999997,548.22" fill="none" stroke="black" stroke-width="4.0"/>
	<path d="M -160.08999999999997,548.22 L -157.47999999999996,548.79" fill="none" stroke="black" stroke-width="4.0"/>
	<path d="M -157.47999999999996,548.79 L -154.96999999999997,549.73" fill="none" stroke="black" stroke-width="4.0"/>
	<path d="M -154.96999999999997,549.73 L -152.61999999999998,551.01" fill="none" stroke="black" stroke-width="4.0"/>
	<path d="M -152.61999999999998,551.01 L -150.47999999999996,552.61" fill="none" stroke="black" stroke-width="4.0"/>
	<path d="M -150.47999999999996,552.61 L -148.57999999999998,554.5" fill="none" stroke="black" stroke-width="4.0"/>
	<path d="M -148.57999999999998,554.5 L -146.97999999999996,556.65" fill="none" stroke="black" stroke-width="4.0"/>
	<path d="M -146.97999999999996,556.65 L -145.69999999999996,559.0" fill="none" stroke="black" stroke-width="4.0"/>
	<path d="M -145.69999999999996,559.0 L -144.75999999999996,561.5" fill="none" stroke="black" stroke-width="4.0"/>
	<path d="M -144.75999999999996,561.5 L -144.18999999999997,564.12" fill="none" stroke="black" stroke-width="4.0"/>
	<path d="M -144.18999999999997,564.12 L -143.99999999999997,566.79" fill="none" stroke="black" stroke-width="4.0"/>
	<path d="M -143.99999999999997,566.79 L -144.18999999999997,569.46" fill="none" stroke="black" stroke-width="4.0"/>
	<path d="M -144.18999999999997,569.46 L -144.75999999999996,572.07" fill="none" stroke="black" stroke-width="4.0"/>
	<path d="M -144.75999999999996,572.07 L -145.69999999999996,574.58" fill="none" stroke="black" stroke-width="4.0"/>
	<path d="M -145.69999999999996,574.58 L -146.97999999999996,576.93" fill="none" stroke="black" stroke-width="4.0"/>
	<path d="M -146.97999999999996,576.93 L -148.57999999999998,579.07" fill="none" stroke="black" stroke-width="4.0"/>
	<path d="M -148.57999999999998,579.07 L -150.47999999999996,580.97" fill="none" stroke="black" stroke-width="4.0"/>
	<path d="M -150.47999999999996,580.97 L -152.61999999999998,582.57" fill="none" stroke="black" stroke-width="4.0"/>
	<path d="M -152.61999999999998,582.57 L -154.96999999999997,583.85" fill="none" stroke="black" stroke-width="4.0"/>
	<path d="M -154.96999999999997,583.85 L -157.47999999999996,584.79" fill="none" stroke="black" stroke-width="4.0"/>
	<path d="M -157.47999999999996,584.79 L -160.08999999999997,585.36" fill="none" stroke="black" stroke-width="4.0"/>
	<path d="M -160.08999999999997,585.36 L -162.75999999999996,585.55" fill="none" stroke="black" stroke-width="4.0"/>
	<path d="M -162.75999999999996,582.1 L -165.21999999999997,581.9" fill="none" stroke="black" stroke-width="4.0"/>
	<path d="M -165.21999999999997,581.9 L -167.60999999999999,581.31" fill="none" stroke="black" stroke-width="4.0"/>
	<path d="M -167.60999999999999,581.31 L -169.86999999999998,580.34" fill="none" stroke="black" stroke-width="4.0"/>
	<path d="M -169.86999999999998,580.34 L -171.95999999999998,579.03" fill="none" stroke="black" stroke-width="4.0"/>
	<path d="M -171.95999999999998,579.03 L -173.79999999999998,577.39" fill="none" stroke="black" stroke-width="4.0"/>
	<path d="M -173.79999999999998,577.39 L -175.35999999999999,575.48" fill="none" stroke="black" stroke-width="4.0"/>
	<path d="M -175.35999999999999,575.48 L -176.58999999999997,573.35" fill="none" stroke="black" stroke-width="4.0"/>
	<path d="M -176.58999999999997,573.35 L -177.45999999999998,571.05" fill="none" stroke="black" stroke-width="4.0"/>
	<path d="M -177.45999999999998,571.05 L -177.95999999999998,568.63" fill="none" stroke="black" stroke-width="4.0"/>
	<path d="M -177.95999999999998,568.63 L -178.05999999999997,566.17" fill="none" stroke="black" stroke-width="4.0"/>
	<path d="M -178.05999999999997,566.17 L -177.75999999999996,563.73" fill="none" stroke="black" stroke-width="4.0"/>
	<path d="M -177.75999999999996,563.73 L -177.06999999999996,561.36" fill="none" stroke="black" stroke-width="4.0"/>
	<path d="M -177.06999999999996,561.36 L -176.01999999999998,559.14" fill="none" stroke="black" stroke-width="4.0"/>
	<path d="M -176.01999999999998,559.14 L -174.61999999999998,557.11" fill="none" stroke="black" stroke-width="4.0"/>
	<path d="M -174.61999999999998,557.11 L -172.90999999999997,555.33" fill="none" stroke="black" stroke-width="4.0"/>
	<path d="M -172.90999999999997,555.33 L -170.93999999999997,553.85" fill="none" stroke="black" stroke-width="4.0"/>
	<path d="M -170.93999999999997,553.85 L -168.75999999999996,552.71" fill="none" stroke="black" stroke-width="4.0"/>
	<path d="M -168.75999999999996,552.71 L -166.41999999999996,551.93" fill="none" stroke="black" stroke-width="4.0"/>
	<path d="M -166.41999999999996,551.93 L -163.98999999999998,551.53" fill="none" stroke="black" stroke-width="4.0"/>
	<path d="M -163.98999999999998,551.53 L -161.52999999999997,551.53 L -163.98999999999998,551.53" fill="none" stroke="black" stroke-width="4.0"/>
	<path d="M -161.52999999999997,551.53 L -159.09999999999997,551.93" fill="none" stroke="black" stroke-width="4.0"/>
	<path d="M -159.09999999999997,551.93 L -156.75999999999996,552.71" fill="none" stroke="black" stroke-width="4.0"/>
	<path d="M -156.75999999999996,552.71 L -154.57999999999998,553.85" fill="none" stroke="black" stroke-width="4.0"/>
	<path d="M -154.57999999999998,553.85 L -152.60999999999999,555.33" fill="none" stroke="black" stroke-width="4.0"/>
	<path d="M -152.60999999999999,555.33 L -150.89999999999998,557.11" fill="none" stroke="black" stroke-width="4.0"/>
	<path d="M -150.89999999999998,557.11 L -149.50999999999996,559.14" fill="none" stroke="black" stroke-width="4.0"/>
	<path d="M -149.50999999999996,559.14 L -148.44999999999996,561.36" fill="none" stroke="black" stroke-width="4.0"/>
	<path d="M -148.44999999999996,561.36 L -147.75999999999996,563.73" fill="none" stroke="black" stroke-width="4.0"/>
	<path d="M -147.75999999999996,563.73 L -147.46999999999997,566.17" fill="none" stroke="black" stroke-width="4.0"/>
	<path d="M -147.46999999999997,566.17 L -147.56999999999996,568.63" fill="none" stroke="black" stroke-width="4.0"/>
	<path d="M -147.56999999999996,568.63 L -148.05999999999997,571.05" fill="none" stroke="black" stroke-width="4.0"/>
	<path d="M -148.05999999999997,571.05 L -148.92999999999998,573.35" fill="none" stroke="black" stroke-width="4.0"/>
	<path d="M -148.92999999999998,573.35 L -150.15999999999997,575.48" fill="none" stroke="black" stroke-width="4.0"/>
	<path d="M -150.15999999999997,575.48 L -151.71999999999997,577.39" fill="none" stroke="black" stroke-width="4.0"/>
	<path d="M -151.71999999999997,577.39 L -153.56999999999996,579.03" fill="none" stroke="black" stroke-width="4.0"/>
	<path d="M -153.56999999999996,579.03 L -155.64999999999998,580.34" fill="none" stroke="black" stroke-width="4.0"/>
	<path d="M -155.64999999999998,580.34 L -157.90999999999997,581.31" fill="none" stroke="black" stroke-width="4.0"/>
	<path d="M -157.90999999999997,581.31 L -160.30999999999997,581.9" fill="none" stroke="black" stroke-width="4.0"/>
	<path d="M -160.30999999999997,581.9 L -162.75999999999996,582.1" fill="none" stroke="black" stroke-width="4.0"/>
	<path d="M -179.76999999999998,673.81 L -179.76999999999998,574.7" fill="none" stroke="black" stroke-width="4.0"/>
	<path d="M -443.03,442.76 L -443.0299999999999,673.81" fill="none" stroke="black" stroke-width="4.0"/>
	<path d="M -179.76999999999998,442.76 A 16.108,16.108 0.0 0,0 -195.87999999999997,426.65" fill="none" stroke="black" stroke-width="4.0"/>
	<path d="M -426.92,426.65 A 16.108,16.108 0.0 0,0 -443.03,442.76" fill="none" stroke="black" stroke-width="4.0"/>
	<path d="M -195.87999999999997,426.65 L -426.92,426.65 L -195.87999999999997,426.65" fill="none" stroke="black" stroke-width="4.0"/>
	<path d="M -179.76999999999998,537.6 L -179.76999999999998,442.76" fill="none" stroke="black" stroke-width="4.0"/>
	<path d="M -162.73999999999998,531.41 L -164.92999999999998,531.21" fill="none" stroke="black" stroke-width="4.0"/>
	<path d="M -164.92999999999998,531.21 L -167.03999999999996,530.63" fill="none" stroke="black" stroke-width="4.0"/>
	<path d="M -167.03999999999996,530.63 L -169.01999999999998,529.68" fill="none" stroke="black" stroke-width="4.0"/>
	<path d="M -169.01999999999998,529.68 L -170.79999999999998,528.39" fill="none" stroke="black" stroke-width="4.0"/>
	<path d="M -170.79999999999998,528.39 L -172.31999999999996,526.8" fill="none" stroke="black" stroke-width="4.0"/>
	<path d="M -172.31999999999996,526.8 L -173.52999999999997,524.97" fill="none" stroke="black" stroke-width="4.0"/>
	<path d="M -173.52999999999997,524.97 L -174.38999999999996,522.95" fill="none" stroke="black" stroke-width="4.0"/>
	<path d="M -174.38999999999996,522.95 L -174.87999999999997,520.81" fill="none" stroke="black" stroke-width="4.0"/>
	<path d="M -174.87999999999997,520.81 L -174.96999999999997,518.61" fill="none" stroke="black" stroke-width="4.0"/>
	<path d="M -174.96999999999997,518.61 L -174.67999999999998,516.44" fill="none" stroke="black" stroke-width="4.0"/>
	<path d="M -174.67999999999998,516.44 L -173.99999999999997,514.35" fill="none" stroke="black" stroke-width="4.0"/>
	<path d="M -173.99999999999997,514.35 L -172.95999999999998,512.42" fill="none" stroke="black" stroke-width="4.0"/>
	<path d="M -172.95999999999998,512.42 L -171.58999999999997,510.7" fill="none" stroke="black" stroke-width="4.0"/>
	<path d="M -171.58999999999997,510.7 L -169.93999999999997,509.26" fill="none" stroke="black" stroke-width="4.0"/>
	<path d="M -169.93999999999997,509.26 L -168.04999999999998,508.13" fill="none" stroke="black" stroke-width="4.0"/>
	<path d="M -168.04999999999998,508.13 L -165.99999999999997,507.36" fill="none" stroke="black" stroke-width="4.0"/>
	<path d="M -165.99999999999997,507.36 L -163.83999999999997,506.97" fill="none" stroke="black" stroke-width="4.0"/>
	<path d="M -163.83999999999997,506.97 L -161.63999999999996,506.97 L -163.83999999999997,506.97" fill="none" stroke="black" stroke-width="4.0"/>
	<path d="M -161.63999999999996,506.97 L -159.47999999999996,507.36" fill="none" stroke="black" stroke-width="4.0"/>
	<path d="M -159.47999999999996,507.36 L -157.42999999999998,508.13" fill="none" stroke="black" stroke-width="4.0"/>
	<path d="M -157.42999999999998,508.13 L -155.53999999999996,509.26" fill="none" stroke="black" stroke-width="4.0"/>
	<path d="M -155.53999999999996,509.26 L -153.88999999999996,510.7" fill="none" stroke="black" stroke-width="4.0"/>
	<path d="M -153.88999999999996,510.7 L -152.51999999999998,512.42" fill="none" stroke="black" stroke-width="4.0"/>
	<path d="M -152.51999999999998,512.42 L -151.47999999999996,514.35" fill="none" stroke="black" stroke-width="4.0"/>
	<path d="M -151.47999999999996,514.35 L -150.79999999999998,516.44" fill="none" stroke="black" stroke-width="4.0"/>
	<path d="M -150.79999999999998,516.44 L -150.50999999999996,518.61" fill="none" stroke="black" stroke-width="4.0"/>
	<path d="M -150.50999999999996,518.61 L -150.60999999999999,520.81" fill="none" stroke="black" stroke-width="4.0"/>
	<path d="M -150.60999999999999,520.81 L -151.09999999999997,522.95" fill="none" stroke="black" stroke-width="4.0"/>
	<path d="M -151.09999999999997,522.95 L -151.95999999999998,524.97" fill="none" stroke="black" stroke-width="4.0"/>
	<path d="M -151.95999999999998,524.97 L -153.16999999999996,526.8" fill="none" stroke="black" stroke-width="4.0"/>
	<path d="M -153.16999999999996,526.8 L -154.67999999999998,528.39" fill="none" stroke="black" stroke-width="4.0"/>
	<path d="M -154.67999999999998,528.39 L -156.45999999999998,529.68" fill="none" stroke="black" stroke-width="4.0"/>
	<path d="M -156.45999999999998,529.68 L -158.43999999999997,530.63" fill="none" stroke="black" stroke-width="4.0"/>
	<path d="M -158.43999999999997,530.63 L -160.55999999999997,531.21" fill="none" stroke="black" stroke-width="4.0"/>
	<path d="M -160.55999999999997,531.21 L -162.73999999999998,531.41" fill="none" stroke="black" stroke-width="4.0"/>
	<path d="M -162.73999999999998,531.41 L -162.73999999999998,506.92" fill="none" stroke="black" stroke-width="4.0"/>
	<path d="M -180.63999999999996,561.12 L -277.28999999999996,464.57" fill="none" stroke="black" stroke-width="4.0"/>
	<path d="M -168.44999999999996,548.91 L -265.56,451.89" fill="none" stroke="black" stroke-width="4.0"/>
	<path d="M -265.56,451.89 A 9.054,9.054 0.0 1,0 -277.28999999999996,464.57" fill="none" stroke="black" stroke-width="4.0"/>
	<path d="M -260.92,456.53 A 12.506,12.506 0.0 1,0 -272.97999999999996,468.88" fill="none" stroke="black" stroke-width="4.0"/>
	<path d="M -174.98999999999998,519.16 L -150.49999999999997,519.16 L -174.98999999999998,519.16" fill="none" stroke="black" stroke-width="4.0"/>
	<path d="M -310.10999999999996,577.99 L -312.5199999999999,577.79" fill="none" stroke="black" stroke-width="4.0"/>
	<path d="M -312.5199999999999,577.79 L -314.85999999999996,577.21" fill="none" stroke="black" stroke-width="4.0"/>
	<path d="M -314.85999999999996,577.21 L -317.0899999999999,576.27" fill="none" stroke="black" stroke-width="4.0"/>
	<path d="M -317.0899999999999,576.27 L -319.12999999999994,574.98" fill="none" stroke="black" stroke-width="4.0"/>
	<path d="M -319.12999999999994,574.98 L -320.93999999999994,573.38" fill="none" stroke="black" stroke-width="4.0"/>
	<path d="M -320.93999999999994,573.38 L -322.4599999999999,571.51" fill="none" stroke="black" stroke-width="4.0"/>
	<path d="M -322.4599999999999,571.51 L -323.66999999999996,569.41" fill="none" stroke="black" stroke-width="4.0"/>
	<path d="M -323.66999999999996,569.41 L -324.5299999999999,567.16" fill="none" stroke="black" stroke-width="4.0"/>
	<path d="M -324.5299999999999,567.16 L -325.00999999999993,564.79" fill="none" stroke="black" stroke-width="4.0"/>
	<path d="M -325.00999999999993,564.79 L -325.10999999999996,562.38" fill="none" stroke="black" stroke-width="4.0"/>
	<path d="M -325.10999999999996,562.38 L -324.81999999999994,559.98" fill="none" stroke="black" stroke-width="4.0"/>
	<path d="M -324.81999999999994,559.98 L -324.13999999999993,557.66" fill="none" stroke="black" stroke-width="4.0"/>
	<path d="M -324.13999999999993,557.66 L -323.10999999999996,555.48" fill="none" stroke="black" stroke-width="4.0"/>
	<path d="M -323.10999999999996,555.48 L -321.73999999999995,553.49" fill="none" stroke="black" stroke-width="4.0"/>
	<path d="M -321.73999999999995,553.49 L -320.05999999999995,551.75" fill="none" stroke="black" stroke-width="4.0"/>
	<path d="M -320.05999999999995,551.75 L -318.12999999999994,550.3" fill="none" stroke="black" stroke-width="4.0"/>
	<path d="M -318.12999999999994,550.3 L -315.98999999999995,549.17" fill="none" stroke="black" stroke-width="4.0"/>
	<path d="M -315.98999999999995,549.17 L -313.69999999999993,548.41" fill="none" stroke="black" stroke-width="4.0"/>
	<path d="M -313.69999999999993,548.41 L -311.31999999999994,548.02" fill="none" stroke="black" stroke-width="4.0"/>
	<path d="M -311.31999999999994,548.02 L -308.8999999999999,548.02 L -311.31999999999994,548.02" fill="none" stroke="black" stroke-width="4.0"/>
	<path d="M -308.8999999999999,548.02 L -306.5199999999999,548.41" fill="none" stroke="black" stroke-width="4.0"/>
	<path d="M -306.5199999999999,548.41 L -304.22999999999996,549.17" fill="none" stroke="black" stroke-width="4.0"/>
	<path d="M -304.22999999999996,549.17 L -302.0899999999999,550.3" fill="none" stroke="black" stroke-width="4.0"/>
	<path d="M -302.0899999999999,550.3 L -300.15999999999997,551.75" fill="none" stroke="black" stroke-width="4.0"/>
	<path d="M -300.15999999999997,551.75 L -298.48999999999995,553.49" fill="none" stroke="black" stroke-width="4.0"/>
	<path d="M -298.48999999999995,553.49 L -297.11999999999995,555.48" fill="none" stroke="black" stroke-width="4.0"/>
	<path d="M -297.11999999999995,555.48 L -296.0799999999999,557.66" fill="none" stroke="black" stroke-width="4.0"/>
	<path d="M -296.0799999999999,557.66 L -295.40999999999997,559.98" fill="none" stroke="black" stroke-width="4.0"/>
	<path d="M -295.40999999999997,559.98 L -295.11999999999995,562.38" fill="none" stroke="black" stroke-width="4.0"/>
	<path d="M -295.11999999999995,562.38 L -295.2099999999999,564.79" fill="none" stroke="black" stroke-width="4.0"/>
	<path d="M -295.2099999999999,564.79 L -295.69999999999993,567.16" fill="none" stroke="black" stroke-width="4.0"/>
	<path d="M -295.69999999999993,567.16 L -296.54999999999995,569.41" fill="none" stroke="black" stroke-width="4.0"/>
	<path d="M -296.54999999999995,569.41 L -297.75999999999993,571.51" fill="none" stroke="black" stroke-width="4.0"/>
	<path d="M -297.75999999999993,571.51 L -299.28999999999996,573.38" fill="none" stroke="black" stroke-width="4.0"/>
	<path d="M -299.28999999999996,573.38 L -301.09999999999997,574.98" fill="none" stroke="black" stroke-width="4.0"/>
	<path d="M -301.09999999999997,574.98 L -303.13999999999993,576.27" fill="none" stroke="black" stroke-width="4.0"/>
	<path d="M -303.13999999999993,576.27 L -305.35999999999996,577.21" fill="none" stroke="black" stroke-width="4.0"/>
	<path d="M -305.35999999999996,577.21 L -307.69999999999993,577.79" fill="none" stroke="black" stroke-width="4.0"/>
	<path d="M -307.69999999999993,577.79 L -310.10999999999996,577.99" fill="none" stroke="black" stroke-width="4.0"/>
	<path d="M -426.91999999999996,689.92 L -195.87999999999997,689.92 L -426.91999999999996,689.92" fill="none" stroke="black" stroke-width="4.0"/>
	<path d="M -443.0299999999999,673.81 A 16.108,16.108 0.0 0,0 -426.91999999999996,689.92" fill="none" stroke="black" stroke-width="4.0"/>
	<path d="M -195.87999999999997,689.92 A 16.108,16.108 0.0 0,0 -179.76999999999998,673.81" fill="none" stroke="black" stroke-width="4.0"/>
	<path d="M -162.73999999999998,627.19 L -164.92999999999998,627.0" fill="none" stroke="black" stroke-width="4.0"/>
	<path d="M -164.92999999999998,627.0 L -167.03999999999996,626.41" fill="none" stroke="black" stroke-width="4.0"/>
	<path d="M -167.03999999999996,626.41 L -169.01999999999998,625.46" fill="none" stroke="black" stroke-width="4.0"/>
	<path d="M -169.01999999999998,625.46 L -170.79999999999998,624.17" fill="none" stroke="black" stroke-width="4.0"/>
	<path d="M -170.79999999999998,624.17 L -172.31999999999996,622.58" fill="none" stroke="black" stroke-width="4.0"/>
	<path d="M -172.31999999999996,622.58 L -173.52999999999997,620.75" fill="none" stroke="black" stroke-width="4.0"/>
	<path d="M -173.52999999999997,620.75 L -174.38999999999996,618.73" fill="none" stroke="black" stroke-width="4.0"/>
	<path d="M -174.38999999999996,618.73 L -174.87999999999997,616.59" fill="none" stroke="black" stroke-width="4.0"/>
	<path d="M -174.87999999999997,616.59 L -174.96999999999997,614.4" fill="none" stroke="black" stroke-width="4.0"/>
	<path d="M -174.96999999999997,614.4 L -174.67999999999998,612.22" fill="none" stroke="black" stroke-width="4.0"/>
	<path d="M -174.67999999999998,612.22 L -173.99999999999997,610.14" fill="none" stroke="black" stroke-width="4.0"/>
	<path d="M -173.99999999999997,610.14 L -172.95999999999998,608.2" fill="none" stroke="black" stroke-width="4.0"/>
	<path d="M -172.95999999999998,608.2 L -171.58999999999997,606.49" fill="none" stroke="black" stroke-width="4.0"/>
	<path d="M -171.58999999999997,606.49 L -169.93999999999997,605.04" fill="none" stroke="black" stroke-width="4.0"/>
	<path d="M -169.93999999999997,605.04 L -168.04999999999998,603.92" fill="none" stroke="black" stroke-width="4.0"/>
	<path d="M -168.04999999999998,603.92 L -165.99999999999997,603.14" fill="none" stroke="black" stroke-width="4.0"/>
	<path d="M -165.99999999999997,603.14 L -163.83999999999997,602.75" fill="none" stroke="black" stroke-width="4.0"/>
	<path d="M -163.83999999999997,602.75 L -161.63999999999996,602.75 L -163.83999999999997,602.75" fill="none" stroke="black" stroke-width="4.0"/>
	<path d="M -161.63999999999996,602.75 L -159.47999999999996,603.14" fill="none" stroke="black" stroke-width="4.0"/>
	<path d="M -159.47999999999996,603.14 L -157.42999999999998,603.92" fill="none" stroke="black" stroke-width="4.0"/>
	<path d="M -157.42999999999998,603.92 L -155.53999999999996,605.04" fill="none" stroke="black" stroke-width="4.0"/>
	<path d="M -155.53999999999996,605.04 L -153.88999999999996,606.49" fill="none" stroke="black" stroke-width="4.0"/>
	<path d="M -153.88999999999996,606.49 L -152.51999999999998,608.2" fill="none" stroke="black" stroke-width="4.0"/>
	<path d="M -152.51999999999998,608.2 L -151.47999999999996,610.14" fill="none" stroke="black" stroke-width="4.0"/>
	<path d="M -151.47999999999996,610.14 L -150.79999999999998,612.22" fill="none" stroke="black" stroke-width="4.0"/>
	<path d="M -150.79999999999998,612.22 L -150.50999999999996,614.4" fill="none" stroke="black" stroke-width="4.0"/>
	<path d="M -150.50999999999996,614.4 L -150.60999999999999,616.59" fill="none" stroke="black" stroke-width="4.0"/>
	<path d="M -150.60999999999999,616.59 L -151.09999999999997,618.73" fill="none" stroke="black" stroke-width="4.0"/>
	<path d="M -151.09999999999997,618.73 L -151.95999999999998,620.75" fill="none" stroke="black" stroke-width="4.0"/>
	<path d="M -151.95999999999998,620.75 L -153.16999999999996,622.58" fill="none" stroke="black" stroke-width="4.0"/>
	<path d="M -153.16999999999996,622.58 L -154.67999999999998,624.17" fill="none" stroke="black" stroke-width="4.0"/>
	<path d="M -154.67999999999998,624.17 L -156.45999999999998,625.46" fill="none" stroke="black" stroke-width="4.0"/>
	<path d="M -156.45999999999998,625.46 L -158.43999999999997,626.41" fill="none" stroke="black" stroke-width="4.0"/>
	<path d="M -158.43999999999997,626.41 L -160.55999999999997,627.0" fill="none" stroke="black" stroke-width="4.0"/>
	<path d="M -160.55999999999997,627.0 L -162.73999999999998,627.19" fill="none" stroke="black" stroke-width="4.0"/>
	<path d="M -174.98999999999998,614.95 L -150.49999999999997,614.95 L -174.98999999999998,614.95" fill="none" stroke="black" stroke-width="4.0"/>
	<path d="M -162.73999999999998,627.19 L -162.73999999999998,602.7" fill="none" stroke="black" stroke-width="4.0"/>
</svg>