<svg xmlns="http://www.w3.org/2000/svg" version="1.1" viewBox="83.36 139.95 633.28 320.1">
  <desc>Produce by Acme CAD Converter</desc>
<path d="M83.61 140.2L716.39 140.2" fill="none" stroke="black" stroke-width="4.0"/>
<path d="M716.39 140.2L716.39 459.8Z" fill="none" stroke="black" stroke-width="4.0"/>
<path d="M716.39 459.8L83.61 459.8" fill="none" stroke="black" stroke-width="4.0"/>
<path d="M83.61 459.8L83.61 140.2Z" fill="none" stroke="black" stroke-width="4.0"/>
<path d="M389.45 179.94L100.87 179.94" fill="none" stroke="black" stroke-width="4.0"/>
<path d="M389.45 208.7L100.87 208.7" fill="none" stroke="black" stroke-width="4.0"/>
<path d="M389.45 237.47L100.87 237.47" fill="none" stroke="black" stroke-width="4.0"/>
<path d="M389.45 266.23L100.87 266.23" fill="none" stroke="black" stroke-width="4.0"/>
<path d="M389.45 294.99L100.87 294.99" fill="none" stroke="black" stroke-width="4.0"/>
<path d="M389.45 323.76L100.87 323.76" fill="none" stroke="black" stroke-width="4.0"/>
<path d="M389.45 438.81L100.87 438.81" fill="none" stroke="black" stroke-width="4.0"/>
<path d="M389.45 410.05L100.87 410.05" fill="none" stroke="black" stroke-width="4.0"/>
<path d="M389.45 381.28L100.87 381.28" fill="none" stroke="black" stroke-width="4.0"/>
<path d="M389.45 352.52L100.87 352.52" fill="none" stroke="black" stroke-width="4.0"/>
<path d="M534.17 162.74L533.98 165.15" fill="none" stroke="black" stroke-width="4.0"/>
<path d="M533.98 165.15L533.4 167.49" fill="none" stroke="black" stroke-width="4.0"/>
<path d="M533.4 167.49L532.45 169.72" fill="none" stroke="black" stroke-width="4.0"/>
<path d="M532.45 169.72L531.16 171.76" fill="none" stroke="black" stroke-width="4.0"/>
<path d="M531.16 171.76L529.56 173.56" fill="none" stroke="black" stroke-width="4.0"/>
<path d="M529.56 173.56L527.69 175.09" fill="none" stroke="black" stroke-width="4.0"/>
<path d="M527.69 175.09L525.6 176.3" fill="none" stroke="black" stroke-width="4.0"/>
<path d="M525.6 176.3L523.34 177.16" fill="none" stroke="black" stroke-width="4.0"/>
<path d="M523.34 177.16L520.97 177.64" fill="none" stroke="black" stroke-width="4.0"/>
<path d="M520.97 177.64L518.56 177.74" fill="none" stroke="black" stroke-width="4.0"/>
<path d="M518.56 177.74L516.16 177.45" fill="none" stroke="black" stroke-width="4.0"/>
<path d="M516.16 177.45L513.84 176.77" fill="none" stroke="black" stroke-width="4.0"/>
<path d="M513.84 176.77L511.66 175.74" fill="none" stroke="black" stroke-width="4.0"/>
<path d="M511.66 175.74L509.67 174.37" fill="none" stroke="black" stroke-width="4.0"/>
<path d="M509.67 174.37L507.93 172.69" fill="none" stroke="black" stroke-width="4.0"/>
<path d="M507.93 172.69L506.48 170.76" fill="none" stroke="black" stroke-width="4.0"/>
<path d="M506.48 170.76L505.36 168.62" fill="none" stroke="black" stroke-width="4.0"/>
<path d="M505.36 168.62L504.59 166.33" fill="none" stroke="black" stroke-width="4.0"/>
<path d="M504.59 166.33L504.21 163.95" fill="none" stroke="black" stroke-width="4.0"/>
<path d="M504.21 163.95L504.21 161.53Z" fill="none" stroke="black" stroke-width="4.0"/>
<path d="M504.21 161.53L504.59 159.15" fill="none" stroke="black" stroke-width="4.0"/>
<path d="M504.59 159.15L505.36 156.86" fill="none" stroke="black" stroke-width="4.0"/>
<path d="M505.36 156.86L506.48 154.72" fill="none" stroke="black" stroke-width="4.0"/>
<path d="M506.48 154.72L507.93 152.79" fill="none" stroke="black" stroke-width="4.0"/>
<path d="M507.93 152.79L509.67 151.12" fill="none" stroke="black" stroke-width="4.0"/>
<path d="M509.67 151.12L511.66 149.75" fill="none" stroke="black" stroke-width="4.0"/>
<path d="M511.66 149.75L513.84 148.71" fill="none" stroke="black" stroke-width="4.0"/>
<path d="M513.84 148.71L516.16 148.04" fill="none" stroke="black" stroke-width="4.0"/>
<path d="M516.16 148.04L518.56 147.75" fill="none" stroke="black" stroke-width="4.0"/>
<path d="M518.56 147.75L520.97 147.84" fill="none" stroke="black" stroke-width="4.0"/>
<path d="M520.97 147.84L523.34 148.33" fill="none" stroke="black" stroke-width="4.0"/>
<path d="M523.34 148.33L525.6 149.18" fill="none" stroke="black" stroke-width="4.0"/>
<path d="M525.6 149.18L527.69 150.39" fill="none" stroke="black" stroke-width="4.0"/>
<path d="M527.69 150.39L529.56 151.92" fill="none" stroke="black" stroke-width="4.0"/>
<path d="M529.56 151.92L531.16 153.73" fill="none" stroke="black" stroke-width="4.0"/>
<path d="M531.16 153.73L532.45 155.77" fill="none" stroke="black" stroke-width="4.0"/>
<path d="M532.45 155.77L533.4 157.99" fill="none" stroke="black" stroke-width="4.0"/>
<path d="M533.4 157.99L533.98 160.33" fill="none" stroke="black" stroke-width="4.0"/>
<path d="M533.98 160.33L534.17 162.74" fill="none" stroke="black" stroke-width="4.0"/>
<path d="M629.96 162.74L629.76 165.15" fill="none" stroke="black" stroke-width="4.0"/>
<path d="M629.76 165.15L629.18 167.49" fill="none" stroke="black" stroke-width="4.0"/>
<path d="M629.18 167.49L628.24 169.72" fill="none" stroke="black" stroke-width="4.0"/>
<path d="M628.24 169.72L626.95 171.76" fill="none" stroke="black" stroke-width="4.0"/>
<path d="M626.95 171.76L625.34 173.56" fill="none" stroke="black" stroke-width="4.0"/>
<path d="M625.34 173.56L623.47 175.09" fill="none" stroke="black" stroke-width="4.0"/>
<path d="M623.47 175.09L621.38 176.3" fill="none" stroke="black" stroke-width="4.0"/>
<path d="M621.38 176.3L619.12 177.16" fill="none" stroke="black" stroke-width="4.0"/>
<path d="M619.12 177.16L616.76 177.64" fill="none" stroke="black" stroke-width="4.0"/>
<path d="M616.76 177.64L614.34 177.74" fill="none" stroke="black" stroke-width="4.0"/>
<path d="M614.34 177.74L611.95 177.45" fill="none" stroke="black" stroke-width="4.0"/>
<path d="M611.95 177.45L609.63 176.77" fill="none" stroke="black" stroke-width="4.0"/>
<path d="M609.63 176.77L607.45 175.74" fill="none" stroke="black" stroke-width="4.0"/>
<path d="M607.45 175.74L605.46 174.37" fill="none" stroke="black" stroke-width="4.0"/>
<path d="M605.46 174.37L603.72 172.69" fill="none" stroke="black" stroke-width="4.0"/>
<path d="M603.72 172.69L602.27 170.76" fill="none" stroke="black" stroke-width="4.0"/>
<path d="M602.27 170.76L601.14 168.62" fill="none" stroke="black" stroke-width="4.0"/>
<path d="M601.14 168.62L600.38 166.33" fill="none" stroke="black" stroke-width="4.0"/>
<path d="M600.38 166.33L599.99 163.95" fill="none" stroke="black" stroke-width="4.0"/>
<path d="M599.99 163.95L599.99 161.53Z" fill="none" stroke="black" stroke-width="4.0"/>
<path d="M599.99 161.53L600.38 159.15" fill="none" stroke="black" stroke-width="4.0"/>
<path d="M600.38 159.15L601.14 156.86" fill="none" stroke="black" stroke-width="4.0"/>
<path d="M601.14 156.86L602.27 154.72" fill="none" stroke="black" stroke-width="4.0"/>
<path d="M602.27 154.72L603.72 152.79" fill="none" stroke="black" stroke-width="4.0"/>
<path d="M603.72 152.79L605.46 151.12" fill="none" stroke="black" stroke-width="4.0"/>
<path d="M605.46 151.12L607.45 149.75" fill="none" stroke="black" stroke-width="4.0"/>
<path d="M607.45 149.75L609.63 148.71" fill="none" stroke="black" stroke-width="4.0"/>
<path d="M609.63 148.71L611.95 148.04" fill="none" stroke="black" stroke-width="4.0"/>
<path d="M611.95 148.04L614.34 147.75" fill="none" stroke="black" stroke-width="4.0"/>
<path d="M614.34 147.75L616.76 147.84" fill="none" stroke="black" stroke-width="4.0"/>
<path d="M616.76 147.84L619.12 148.33" fill="none" stroke="black" stroke-width="4.0"/>
<path d="M619.12 148.33L621.38 149.18" fill="none" stroke="black" stroke-width="4.0"/>
<path d="M621.38 149.18L623.47 150.39" fill="none" stroke="black" stroke-width="4.0"/>
<path d="M623.47 150.39L625.34 151.92" fill="none" stroke="black" stroke-width="4.0"/>
<path d="M625.34 151.92L626.95 153.73" fill="none" stroke="black" stroke-width="4.0"/>
<path d="M626.95 153.73L628.24 155.77" fill="none" stroke="black" stroke-width="4.0"/>
<path d="M628.24 155.77L629.18 157.99" fill="none" stroke="black" stroke-width="4.0"/>
<path d="M629.18 157.99L629.76 160.33" fill="none" stroke="black" stroke-width="4.0"/>
<path d="M629.76 160.33L629.96 162.74" fill="none" stroke="black" stroke-width="4.0"/>
<path d="M585.55 162.76L585.36 165.43" fill="none" stroke="black" stroke-width="4.0"/>
<path d="M585.36 165.43L584.79 168.05" fill="none" stroke="black" stroke-width="4.0"/>
<path d="M584.79 168.05L583.85 170.55" fill="none" stroke="black" stroke-width="4.0"/>
<path d="M583.85 170.55L582.57 172.9" fill="none" stroke="black" stroke-width="4.0"/>
<path d="M582.57 172.9L580.97 175.05" fill="none" stroke="black" stroke-width="4.0"/>
<path d="M580.97 175.05L579.07 176.94" fill="none" stroke="black" stroke-width="4.0"/>
<path d="M579.07 176.94L576.93 178.54" fill="none" stroke="black" stroke-width="4.0"/>
<path d="M576.93 178.54L574.58 179.82" fill="none" stroke="black" stroke-width="4.0"/>
<path d="M574.58 179.82L572.07 180.76" fill="none" stroke="black" stroke-width="4.0"/>
<path d="M572.07 180.76L569.46 181.33" fill="none" stroke="black" stroke-width="4.0"/>
<path d="M569.46 181.33L566.79 181.52" fill="none" stroke="black" stroke-width="4.0"/>
<path d="M566.79 181.52L564.12 181.33" fill="none" stroke="black" stroke-width="4.0"/>
<path d="M564.12 181.33L561.5 180.76" fill="none" stroke="black" stroke-width="4.0"/>
<path d="M561.5 180.76L559 179.82" fill="none" stroke="black" stroke-width="4.0"/>
<path d="M559 179.82L556.65 178.54" fill="none" stroke="black" stroke-width="4.0"/>
<path d="M556.65 178.54L554.5 176.94" fill="none" stroke="black" stroke-width="4.0"/>
<path d="M554.5 176.94L552.61 175.05" fill="none" stroke="black" stroke-width="4.0"/>
<path d="M552.61 175.05L551.01 172.9" fill="none" stroke="black" stroke-width="4.0"/>
<path d="M551.01 172.9L549.73 170.55" fill="none" stroke="black" stroke-width="4.0"/>
<path d="M549.73 170.55L548.79 168.05" fill="none" stroke="black" stroke-width="4.0"/>
<path d="M548.79 168.05L548.22 165.43" fill="none" stroke="black" stroke-width="4.0"/>
<path d="M548.22 165.43L548.03 162.76" fill="none" stroke="black" stroke-width="4.0"/>
<path d="M548.03 162.76L548.22 160.09" fill="none" stroke="black" stroke-width="4.0"/>
<path d="M548.22 160.09L548.79 157.48" fill="none" stroke="black" stroke-width="4.0"/>
<path d="M548.79 157.48L549.73 154.97" fill="none" stroke="black" stroke-width="4.0"/>
<path d="M549.73 154.97L551.01 152.62" fill="none" stroke="black" stroke-width="4.0"/>
<path d="M551.01 152.62L552.61 150.48" fill="none" stroke="black" stroke-width="4.0"/>
<path d="M552.61 150.48L554.5 148.58" fill="none" stroke="black" stroke-width="4.0"/>
<path d="M554.5 148.58L556.65 146.98" fill="none" stroke="black" stroke-width="4.0"/>
<path d="M556.65 146.98L559 145.7" fill="none" stroke="black" stroke-width="4.0"/>
<path d="M559 145.7L561.5 144.76" fill="none" stroke="black" stroke-width="4.0"/>
<path d="M561.5 144.76L564.12 144.19" fill="none" stroke="black" stroke-width="4.0"/>
<path d="M564.12 144.19L566.79 144" fill="none" stroke="black" stroke-width="4.0"/>
<path d="M566.79 144L569.46 144.19" fill="none" stroke="black" stroke-width="4.0"/>
<path d="M569.46 144.19L572.07 144.76" fill="none" stroke="black" stroke-width="4.0"/>
<path d="M572.07 144.76L574.58 145.7" fill="none" stroke="black" stroke-width="4.0"/>
<path d="M574.58 145.7L576.93 146.98" fill="none" stroke="black" stroke-width="4.0"/>
<path d="M576.93 146.98L579.07 148.58" fill="none" stroke="black" stroke-width="4.0"/>
<path d="M579.07 148.58L580.97 150.48" fill="none" stroke="black" stroke-width="4.0"/>
<path d="M580.97 150.48L582.57 152.62" fill="none" stroke="black" stroke-width="4.0"/>
<path d="M582.57 152.62L583.85 154.97" fill="none" stroke="black" stroke-width="4.0"/>
<path d="M583.85 154.97L584.79 157.48" fill="none" stroke="black" stroke-width="4.0"/>
<path d="M584.79 157.48L585.36 160.09" fill="none" stroke="black" stroke-width="4.0"/>
<path d="M585.36 160.09L585.55 162.76" fill="none" stroke="black" stroke-width="4.0"/>
<path d="M582.1 162.76L581.9 165.22" fill="none" stroke="black" stroke-width="4.0"/>
<path d="M581.9 165.22L581.31 167.61" fill="none" stroke="black" stroke-width="4.0"/>
<path d="M581.31 167.61L580.34 169.87" fill="none" stroke="black" stroke-width="4.0"/>
<path d="M580.34 169.87L579.03 171.96" fill="none" stroke="black" stroke-width="4.0"/>
<path d="M579.03 171.96L577.39 173.8" fill="none" stroke="black" stroke-width="4.0"/>
<path d="M577.39 173.8L575.48 175.36" fill="none" stroke="black" stroke-width="4.0"/>
<path d="M575.48 175.36L573.35 176.59" fill="none" stroke="black" stroke-width="4.0"/>
<path d="M573.35 176.59L571.05 177.46" fill="none" stroke="black" stroke-width="4.0"/>
<path d="M571.05 177.46L568.63 177.96" fill="none" stroke="black" stroke-width="4.0"/>
<path d="M568.63 177.96L566.17 178.06" fill="none" stroke="black" stroke-width="4.0"/>
<path d="M566.17 178.06L563.73 177.76" fill="none" stroke="black" stroke-width="4.0"/>
<path d="M563.73 177.76L561.36 177.07" fill="none" stroke="black" stroke-width="4.0"/>
<path d="M561.36 177.07L559.14 176.02" fill="none" stroke="black" stroke-width="4.0"/>
<path d="M559.14 176.02L557.11 174.62" fill="none" stroke="black" stroke-width="4.0"/>
<path d="M557.11 174.62L555.33 172.91" fill="none" stroke="black" stroke-width="4.0"/>
<path d="M555.33 172.91L553.85 170.94" fill="none" stroke="black" stroke-width="4.0"/>
<path d="M553.85 170.94L552.71 168.76" fill="none" stroke="black" stroke-width="4.0"/>
<path d="M552.71 168.76L551.93 166.42" fill="none" stroke="black" stroke-width="4.0"/>
<path d="M551.93 166.42L551.53 163.99" fill="none" stroke="black" stroke-width="4.0"/>
<path d="M551.53 163.99L551.53 161.53Z" fill="none" stroke="black" stroke-width="4.0"/>
<path d="M551.53 161.53L551.93 159.1" fill="none" stroke="black" stroke-width="4.0"/>
<path d="M551.93 159.1L552.71 156.76" fill="none" stroke="black" stroke-width="4.0"/>
<path d="M552.71 156.76L553.85 154.58" fill="none" stroke="black" stroke-width="4.0"/>
<path d="M553.85 154.58L555.33 152.61" fill="none" stroke="black" stroke-width="4.0"/>
<path d="M555.33 152.61L557.11 150.9" fill="none" stroke="black" stroke-width="4.0"/>
<path d="M557.11 150.9L559.14 149.51" fill="none" stroke="black" stroke-width="4.0"/>
<path d="M559.14 149.51L561.36 148.45" fill="none" stroke="black" stroke-width="4.0"/>
<path d="M561.36 148.45L563.73 147.76" fill="none" stroke="black" stroke-width="4.0"/>
<path d="M563.73 147.76L566.17 147.47" fill="none" stroke="black" stroke-width="4.0"/>
<path d="M566.17 147.47L568.63 147.57" fill="none" stroke="black" stroke-width="4.0"/>
<path d="M568.63 147.57L571.05 148.06" fill="none" stroke="black" stroke-width="4.0"/>
<path d="M571.05 148.06L573.35 148.93" fill="none" stroke="black" stroke-width="4.0"/>
<path d="M573.35 148.93L575.48 150.16" fill="none" stroke="black" stroke-width="4.0"/>
<path d="M575.48 150.16L577.39 151.72" fill="none" stroke="black" stroke-width="4.0"/>
<path d="M577.39 151.72L579.03 153.57" fill="none" stroke="black" stroke-width="4.0"/>
<path d="M579.03 153.57L580.34 155.65" fill="none" stroke="black" stroke-width="4.0"/>
<path d="M580.34 155.65L581.31 157.91" fill="none" stroke="black" stroke-width="4.0"/>
<path d="M581.31 157.91L581.9 160.31" fill="none" stroke="black" stroke-width="4.0"/>
<path d="M581.9 160.31L582.1 162.76" fill="none" stroke="black" stroke-width="4.0"/>
<path d="M673.81 179.77L574.7 179.77" fill="none" stroke="black" stroke-width="4.0"/>
<path d="M442.76 443.03L673.81 443.03" fill="none" stroke="black" stroke-width="4.0"/>
<path d="M 442.76 179.77 A 16.108 16.108 0 0 0 426.65 195.88" fill="none" stroke="black" stroke-width="4.0"/>
<path d="M 426.65 426.92 A 16.108 16.108 0 0 0 442.76 443.03" fill="none" stroke="black" stroke-width="4.0"/>
<path d="M426.65 195.88L426.65 426.92Z" fill="none" stroke="black" stroke-width="4.0"/>
<path d="M537.6 179.77L442.76 179.77" fill="none" stroke="black" stroke-width="4.0"/>
<path d="M531.41 162.74L531.21 164.93" fill="none" stroke="black" stroke-width="4.0"/>
<path d="M531.21 164.93L530.63 167.04" fill="none" stroke="black" stroke-width="4.0"/>
<path d="M530.63 167.04L529.68 169.02" fill="none" stroke="black" stroke-width="4.0"/>
<path d="M529.68 169.02L528.39 170.8" fill="none" stroke="black" stroke-width="4.0"/>
<path d="M528.39 170.8L526.8 172.32" fill="none" stroke="black" stroke-width="4.0"/>
<path d="M526.8 172.32L524.97 173.53" fill="none" stroke="black" stroke-width="4.0"/>
<path d="M524.97 173.53L522.95 174.39" fill="none" stroke="black" stroke-width="4.0"/>
<path d="M522.95 174.39L520.81 174.88" fill="none" stroke="black" stroke-width="4.0"/>
<path d="M520.81 174.88L518.61 174.97" fill="none" stroke="black" stroke-width="4.0"/>
<path d="M518.61 174.97L516.44 174.68" fill="none" stroke="black" stroke-width="4.0"/>
<path d="M516.44 174.68L514.35 174" fill="none" stroke="black" stroke-width="4.0"/>
<path d="M514.35 174L512.42 172.96" fill="none" stroke="black" stroke-width="4.0"/>
<path d="M512.42 172.96L510.7 171.59" fill="none" stroke="black" stroke-width="4.0"/>
<path d="M510.7 171.59L509.26 169.94" fill="none" stroke="black" stroke-width="4.0"/>
<path d="M509.26 169.94L508.13 168.05" fill="none" stroke="black" stroke-width="4.0"/>
<path d="M508.13 168.05L507.36 166" fill="none" stroke="black" stroke-width="4.0"/>
<path d="M507.36 166L506.97 163.84" fill="none" stroke="black" stroke-width="4.0"/>
<path d="M506.97 163.84L506.97 161.64Z" fill="none" stroke="black" stroke-width="4.0"/>
<path d="M506.97 161.64L507.36 159.48" fill="none" stroke="black" stroke-width="4.0"/>
<path d="M507.36 159.48L508.13 157.43" fill="none" stroke="black" stroke-width="4.0"/>
<path d="M508.13 157.43L509.26 155.54" fill="none" stroke="black" stroke-width="4.0"/>
<path d="M509.26 155.54L510.7 153.89" fill="none" stroke="black" stroke-width="4.0"/>
<path d="M510.7 153.89L512.42 152.52" fill="none" stroke="black" stroke-width="4.0"/>
<path d="M512.42 152.52L514.35 151.48" fill="none" stroke="black" stroke-width="4.0"/>
<path d="M514.35 151.48L516.44 150.8" fill="none" stroke="black" stroke-width="4.0"/>
<path d="M516.44 150.8L518.61 150.51" fill="none" stroke="black" stroke-width="4.0"/>
<path d="M518.61 150.51L520.81 150.61" fill="none" stroke="black" stroke-width="4.0"/>
<path d="M520.81 150.61L522.95 151.1" fill="none" stroke="black" stroke-width="4.0"/>
<path d="M522.95 151.1L524.97 151.96" fill="none" stroke="black" stroke-width="4.0"/>
<path d="M524.97 151.96L526.8 153.17" fill="none" stroke="black" stroke-width="4.0"/>
<path d="M526.8 153.17L528.39 154.68" fill="none" stroke="black" stroke-width="4.0"/>
<path d="M528.39 154.68L529.68 156.46" fill="none" stroke="black" stroke-width="4.0"/>
<path d="M529.68 156.46L530.63 158.44" fill="none" stroke="black" stroke-width="4.0"/>
<path d="M530.63 158.44L531.21 160.56" fill="none" stroke="black" stroke-width="4.0"/>
<path d="M531.21 160.56L531.41 162.74" fill="none" stroke="black" stroke-width="4.0"/>
<path d="M531.41 162.74L506.92 162.74" fill="none" stroke="black" stroke-width="4.0"/>
<path d="M561.12 180.64L464.57 277.29" fill="none" stroke="black" stroke-width="4.0"/>
<path d="M548.91 168.45L451.89 265.56" fill="none" stroke="black" stroke-width="4.0"/>
<path d="M 451.89 265.56 A 9.054 9.054 0 1 0 464.57 277.29" fill="none" stroke="black" stroke-width="4.0"/>
<path d="M 456.53 260.92 A 12.506 12.506 0 1 0 468.88 272.98" fill="none" stroke="black" stroke-width="4.0"/>
<path d="M519.16 174.99L519.16 150.5Z" fill="none" stroke="black" stroke-width="4.0"/>
<path d="M577.99 310.11L577.79 312.52" fill="none" stroke="black" stroke-width="4.0"/>
<path d="M577.79 312.52L577.21 314.86" fill="none" stroke="black" stroke-width="4.0"/>
<path d="M577.21 314.86L576.27 317.09" fill="none" stroke="black" stroke-width="4.0"/>
<path d="M576.27 317.09L574.98 319.13" fill="none" stroke="black" stroke-width="4.0"/>
<path d="M574.98 319.13L573.38 320.94" fill="none" stroke="black" stroke-width="4.0"/>
<path d="M573.38 320.94L571.51 322.46" fill="none" stroke="black" stroke-width="4.0"/>
<path d="M571.51 322.46L569.41 323.67" fill="none" stroke="black" stroke-width="4.0"/>
<path d="M569.41 323.67L567.16 324.53" fill="none" stroke="black" stroke-width="4.0"/>
<path d="M567.16 324.53L564.79 325.01" fill="none" stroke="black" stroke-width="4.0"/>
<path d="M564.79 325.01L562.38 325.11" fill="none" stroke="black" stroke-width="4.0"/>
<path d="M562.38 325.11L559.98 324.82" fill="none" stroke="black" stroke-width="4.0"/>
<path d="M559.98 324.82L557.66 324.14" fill="none" stroke="black" stroke-width="4.0"/>
<path d="M557.66 324.14L555.48 323.11" fill="none" stroke="black" stroke-width="4.0"/>
<path d="M555.48 323.11L553.49 321.74" fill="none" stroke="black" stroke-width="4.0"/>
<path d="M553.49 321.74L551.75 320.06" fill="none" stroke="black" stroke-width="4.0"/>
<path d="M551.75 320.06L550.3 318.13" fill="none" stroke="black" stroke-width="4.0"/>
<path d="M550.3 318.13L549.17 315.99" fill="none" stroke="black" stroke-width="4.0"/>
<path d="M549.17 315.99L548.41 313.7" fill="none" stroke="black" stroke-width="4.0"/>
<path d="M548.41 313.7L548.02 311.32" fill="none" stroke="black" stroke-width="4.0"/>
<path d="M548.02 311.32L548.02 308.9Z" fill="none" stroke="black" stroke-width="4.0"/>
<path d="M548.02 308.9L548.41 306.52" fill="none" stroke="black" stroke-width="4.0"/>
<path d="M548.41 306.52L549.17 304.23" fill="none" stroke="black" stroke-width="4.0"/>
<path d="M549.17 304.23L550.3 302.09" fill="none" stroke="black" stroke-width="4.0"/>
<path d="M550.3 302.09L551.75 300.16" fill="none" stroke="black" stroke-width="4.0"/>
<path d="M551.75 300.16L553.49 298.49" fill="none" stroke="black" stroke-width="4.0"/>
<path d="M553.49 298.49L555.48 297.12" fill="none" stroke="black" stroke-width="4.0"/>
<path d="M555.48 297.12L557.66 296.08" fill="none" stroke="black" stroke-width="4.0"/>
<path d="M557.66 296.08L559.98 295.41" fill="none" stroke="black" stroke-width="4.0"/>
<path d="M559.98 295.41L562.38 295.12" fill="none" stroke="black" stroke-width="4.0"/>
<path d="M562.38 295.12L564.79 295.21" fill="none" stroke="black" stroke-width="4.0"/>
<path d="M564.79 295.21L567.16 295.7" fill="none" stroke="black" stroke-width="4.0"/>
<path d="M567.16 295.7L569.41 296.55" fill="none" stroke="black" stroke-width="4.0"/>
<path d="M569.41 296.55L571.51 297.76" fill="none" stroke="black" stroke-width="4.0"/>
<path d="M571.51 297.76L573.38 299.29" fill="none" stroke="black" stroke-width="4.0"/>
<path d="M573.38 299.29L574.98 301.1" fill="none" stroke="black" stroke-width="4.0"/>
<path d="M574.98 301.1L576.27 303.14" fill="none" stroke="black" stroke-width="4.0"/>
<path d="M576.27 303.14L577.21 305.36" fill="none" stroke="black" stroke-width="4.0"/>
<path d="M577.21 305.36L577.79 307.7" fill="none" stroke="black" stroke-width="4.0"/>
<path d="M577.79 307.7L577.99 310.11" fill="none" stroke="black" stroke-width="4.0"/>
<path d="M689.92 426.92L689.92 195.88Z" fill="none" stroke="black" stroke-width="4.0"/>
<path d="M 673.81 443.03 A 16.108 16.108 0 0 0 689.92 426.92" fill="none" stroke="black" stroke-width="4.0"/>
<path d="M 689.92 195.88 A 16.108 16.108 0 0 0 673.81 179.77" fill="none" stroke="black" stroke-width="4.0"/>
<path d="M627.19 162.74L627 164.93" fill="none" stroke="black" stroke-width="4.0"/>
<path d="M627 164.93L626.41 167.04" fill="none" stroke="black" stroke-width="4.0"/>
<path d="M626.41 167.04L625.46 169.02" fill="none" stroke="black" stroke-width="4.0"/>
<path d="M625.46 169.02L624.17 170.8" fill="none" stroke="black" stroke-width="4.0"/>
<path d="M624.17 170.8L622.58 172.32" fill="none" stroke="black" stroke-width="4.0"/>
<path d="M622.58 172.32L620.75 173.53" fill="none" stroke="black" stroke-width="4.0"/>
<path d="M620.75 173.53L618.73 174.39" fill="none" stroke="black" stroke-width="4.0"/>
<path d="M618.73 174.39L616.59 174.88" fill="none" stroke="black" stroke-width="4.0"/>
<path d="M616.59 174.88L614.4 174.97" fill="none" stroke="black" stroke-width="4.0"/>
<path d="M614.4 174.97L612.22 174.68" fill="none" stroke="black" stroke-width="4.0"/>
<path d="M612.22 174.68L610.14 174" fill="none" stroke="black" stroke-width="4.0"/>
<path d="M610.14 174L608.2 172.96" fill="none" stroke="black" stroke-width="4.0"/>
<path d="M608.2 172.96L606.49 171.59" fill="none" stroke="black" stroke-width="4.0"/>
<path d="M606.49 171.59L605.04 169.94" fill="none" stroke="black" stroke-width="4.0"/>
<path d="M605.04 169.94L603.92 168.05" fill="none" stroke="black" stroke-width="4.0"/>
<path d="M603.92 168.05L603.14 166" fill="none" stroke="black" stroke-width="4.0"/>
<path d="M603.14 166L602.75 163.84" fill="none" stroke="black" stroke-width="4.0"/>
<path d="M602.75 163.84L602.75 161.64Z" fill="none" stroke="black" stroke-width="4.0"/>
<path d="M602.75 161.64L603.14 159.48" fill="none" stroke="black" stroke-width="4.0"/>
<path d="M603.14 159.48L603.92 157.43" fill="none" stroke="black" stroke-width="4.0"/>
<path d="M603.92 157.43L605.04 155.54" fill="none" stroke="black" stroke-width="4.0"/>
<path d="M605.04 155.54L606.49 153.89" fill="none" stroke="black" stroke-width="4.0"/>
<path d="M606.49 153.89L608.2 152.52" fill="none" stroke="black" stroke-width="4.0"/>
<path d="M608.2 152.52L610.14 151.48" fill="none" stroke="black" stroke-width="4.0"/>
<path d="M610.14 151.48L612.22 150.8" fill="none" stroke="black" stroke-width="4.0"/>
<path d="M612.22 150.8L614.4 150.51" fill="none" stroke="black" stroke-width="4.0"/>
<path d="M614.4 150.51L616.59 150.61" fill="none" stroke="black" stroke-width="4.0"/>
<path d="M616.59 150.61L618.73 151.1" fill="none" stroke="black" stroke-width="4.0"/>
<path d="M618.73 151.1L620.75 151.96" fill="none" stroke="black" stroke-width="4.0"/>
<path d="M620.75 151.96L622.58 153.17" fill="none" stroke="black" stroke-width="4.0"/>
<path d="M622.58 153.17L624.17 154.68" fill="none" stroke="black" stroke-width="4.0"/>
<path d="M624.17 154.68L625.46 156.46" fill="none" stroke="black" stroke-width="4.0"/>
<path d="M625.46 156.46L626.41 158.44" fill="none" stroke="black" stroke-width="4.0"/>
<path d="M626.41 158.44L627 160.56" fill="none" stroke="black" stroke-width="4.0"/>
<path d="M627 160.56L627.19 162.74" fill="none" stroke="black" stroke-width="4.0"/>
<path d="M614.95 174.99L614.95 150.5Z" fill="none" stroke="black" stroke-width="4.0"/>
<path d="M627.19 162.74L602.7 162.74" fill="none" stroke="black" stroke-width="4.0"/>
</svg>