<svg xmlns="http://www.w3.org/2000/svg" version="1.1" viewBox="248.7 139.95 302.6 320.1">
  <desc>Produce by Acme CAD Converter</desc>
<path d="M543.53 199.48L542.69 199.48" fill="none" stroke="black" stroke-width="4.0"/>
<path d="M542.69 199.48L542.69 140.76Z" fill="none" stroke="black" stroke-width="4.0"/>
<path d="M542.69 140.76L543.53 140.76" fill="none" stroke="black" stroke-width="4.0"/>
<path d="M543.53 140.76L543.53 199.48Z" fill="none" stroke="black" stroke-width="4.0"/>
<path d="M256.36 199.48L257.2 199.48" fill="none" stroke="black" stroke-width="4.0"/>
<path d="M257.2 199.48L257.2 140.76Z" fill="none" stroke="black" stroke-width="4.0"/>
<path d="M257.2 140.76L256.36 140.76" fill="none" stroke="black" stroke-width="4.0"/>
<path d="M256.36 140.76L256.36 199.48Z" fill="none" stroke="black" stroke-width="4.0"/>
<path d="M530.8 186.9L530.8 172.13Z" fill="none" stroke="black" stroke-width="4.0"/>
<path d="M530.8 168.11L530.8 153.34Z" fill="none" stroke="black" stroke-width="4.0"/>
<path d="M530.8 153.34L535.28 153.34" fill="none" stroke="black" stroke-width="4.0"/>
<path d="M535.28 186.9L530.8 186.9" fill="none" stroke="black" stroke-width="4.0"/>
<path d="M535.28 153.34L535.28 140.2Z" fill="none" stroke="black" stroke-width="4.0"/>
<path d="M535.28 200.32L535.28 186.9Z" fill="none" stroke="black" stroke-width="4.0"/>
<path d="M535.28 140.2L550.94 140.2" fill="none" stroke="black" stroke-width="4.0"/>
<path d="M543.95 200.32L535.28 200.32" fill="none" stroke="black" stroke-width="4.0"/>
<path d="M550.94 140.2L550.94 144.39Z" fill="none" stroke="black" stroke-width="4.0"/>
<path d="M543.95 195.84L543.95 200.32Z" fill="none" stroke="black" stroke-width="4.0"/>
<path d="M550.94 144.39L551.52 144.39" fill="none" stroke="black" stroke-width="4.0"/>
<path d="M543.95 195.84L543.53 195.84" fill="none" stroke="black" stroke-width="4.0"/>
<path d="M551.52 140.62L551.52 144.39Z" fill="none" stroke="black" stroke-width="4.0"/>
<path d="M543.53 195.84L543.53 199.9Z" fill="none" stroke="black" stroke-width="4.0"/>
<path d="M535.7 140.62L551.52 140.62" fill="none" stroke="black" stroke-width="4.0"/>
<path d="M543.53 199.9L535.7 199.9" fill="none" stroke="black" stroke-width="4.0"/>
<path d="M535.7 153.76L535.7 140.62Z" fill="none" stroke="black" stroke-width="4.0"/>
<path d="M535.7 199.9L535.7 186.48Z" fill="none" stroke="black" stroke-width="4.0"/>
<path d="M531.22 153.76L535.7 153.76" fill="none" stroke="black" stroke-width="4.0"/>
<path d="M535.7 186.48L531.22 186.48" fill="none" stroke="black" stroke-width="4.0"/>
<path d="M531.22 186.48L531.22 171.91Z" fill="none" stroke="black" stroke-width="4.0"/>
<path d="M531.22 168.33L531.22 153.76Z" fill="none" stroke="black" stroke-width="4.0"/>
<path d="M268.67 186.48L268.67 172.38Z" fill="none" stroke="black" stroke-width="4.0"/>
<path d="M268.67 167.86L268.67 153.76Z" fill="none" stroke="black" stroke-width="4.0"/>
<path d="M268.67 153.76L264.19 153.76" fill="none" stroke="black" stroke-width="4.0"/>
<path d="M264.19 186.48L268.67 186.48" fill="none" stroke="black" stroke-width="4.0"/>
<path d="M264.19 153.76L264.19 140.62Z" fill="none" stroke="black" stroke-width="4.0"/>
<path d="M264.19 199.9L264.19 186.48Z" fill="none" stroke="black" stroke-width="4.0"/>
<path d="M264.19 140.62L249.37 140.62" fill="none" stroke="black" stroke-width="4.0"/>
<path d="M256.36 199.9L264.19 199.9" fill="none" stroke="black" stroke-width="4.0"/>
<path d="M249.37 140.62L249.37 144.39Z" fill="none" stroke="black" stroke-width="4.0"/>
<path d="M256.36 195.84L256.36 199.9Z" fill="none" stroke="black" stroke-width="4.0"/>
<path d="M248.95 144.39L249.37 144.39" fill="none" stroke="black" stroke-width="4.0"/>
<path d="M255.94 195.84L256.36 195.84" fill="none" stroke="black" stroke-width="4.0"/>
<path d="M248.95 140.2L248.95 144.39Z" fill="none" stroke="black" stroke-width="4.0"/>
<path d="M255.94 195.84L255.94 200.32Z" fill="none" stroke="black" stroke-width="4.0"/>
<path d="M264.61 140.2L248.95 140.2" fill="none" stroke="black" stroke-width="4.0"/>
<path d="M255.94 200.32L264.61 200.32" fill="none" stroke="black" stroke-width="4.0"/>
<path d="M264.61 153.34L264.61 140.2Z" fill="none" stroke="black" stroke-width="4.0"/>
<path d="M264.61 200.32L264.61 186.9Z" fill="none" stroke="black" stroke-width="4.0"/>
<path d="M269.08 153.34L264.61 153.34" fill="none" stroke="black" stroke-width="4.0"/>
<path d="M264.61 186.9L269.08 186.9" fill="none" stroke="black" stroke-width="4.0"/>
<path d="M269.08 186.9L269.08 172.13Z" fill="none" stroke="black" stroke-width="4.0"/>
<path d="M269.08 168.11L269.08 153.34Z" fill="none" stroke="black" stroke-width="4.0"/>
<path d="M 533.42 206.19 A 2.275 2.275 0 1 0 536.15 206.19" fill="none" stroke="black" stroke-width="4.0"/>
<path d="M533.93 209.35L533.45 208.86" fill="none" stroke="black" stroke-width="4.0"/>
<path d="M534.94 209.59L533.2 207.85" fill="none" stroke="black" stroke-width="4.0"/>
<path d="M535.53 209.42L533.38 207.26" fill="none" stroke="black" stroke-width="4.0"/>
<path d="M535.96 209.08L533.71 206.83" fill="none" stroke="black" stroke-width="4.0"/>
<path d="M536.26 208.61L534.18 206.53" fill="none" stroke="black" stroke-width="4.0"/>
<path d="M536.38 207.97L534.83 206.41" fill="none" stroke="black" stroke-width="4.0"/>
<path d="M534.69 209.6L533.2 208.11" fill="none" stroke="black" stroke-width="4.0"/>
<path d="M535.35 209.49L533.3 207.44" fill="none" stroke="black" stroke-width="4.0"/>
<path d="M535.83 209.21L533.58 206.96" fill="none" stroke="black" stroke-width="4.0"/>
<path d="M536.18 208.79L534.01 206.62" fill="none" stroke="black" stroke-width="4.0"/>
<path d="M536.37 208.21L534.58 206.43" fill="none" stroke="black" stroke-width="4.0"/>
<path d="M536.21 207.28L535.51 206.59" fill="none" stroke="black" stroke-width="4.0"/>
<path d="M 534.56 206.43 A 1.593 1.593 0 1 0 535.01 206.43" fill="none" stroke="black" stroke-width="4.0"/>
<path d="M 533.42 206.19 A 1.138 1.138 0 0 0 533.88 205.28" fill="none" stroke="black" stroke-width="4.0"/>
<path d="M 535.7 205.28 A 1.138 1.138 0 0 0 536.15 206.19" fill="none" stroke="black" stroke-width="4.0"/>
<path d="M534.56 206.43L534.56 196.4Z" fill="none" stroke="black" stroke-width="4.0"/>
<path d="M533.88 205.28L533.88 196.4Z" fill="none" stroke="black" stroke-width="4.0"/>
<path d="M535.01 205.73L535.01 196.4Z" fill="none" stroke="black" stroke-width="4.0"/>
<path d="M535.01 206.43L535.01 196.4Z" fill="none" stroke="black" stroke-width="4.0"/>
<path d="M535.7 205.28L535.7 196.4Z" fill="none" stroke="black" stroke-width="4.0"/>
<path d="M535.7 196.4L535.01 196.4" fill="none" stroke="black" stroke-width="4.0"/>
<path d="M534.56 196.4L533.88 196.4" fill="none" stroke="black" stroke-width="4.0"/>
<path d="M536.38 208.01L536.2 208.75" fill="none" stroke="black" stroke-width="4.0"/>
<path d="M536.2 208.75L535.69 209.32" fill="none" stroke="black" stroke-width="4.0"/>
<path d="M535.69 209.32L534.98 209.59" fill="none" stroke="black" stroke-width="4.0"/>
<path d="M534.98 209.59L534.22 209.49" fill="none" stroke="black" stroke-width="4.0"/>
<path d="M534.22 209.49L533.59 209.06" fill="none" stroke="black" stroke-width="4.0"/>
<path d="M533.59 209.06L533.24 208.39" fill="none" stroke="black" stroke-width="4.0"/>
<path d="M533.24 208.39L533.24 207.62Z" fill="none" stroke="black" stroke-width="4.0"/>
<path d="M533.24 207.62L533.59 206.95" fill="none" stroke="black" stroke-width="4.0"/>
<path d="M533.59 206.95L534.22 206.52" fill="none" stroke="black" stroke-width="4.0"/>
<path d="M534.22 206.52L534.98 206.42" fill="none" stroke="black" stroke-width="4.0"/>
<path d="M534.98 206.42L535.69 206.7" fill="none" stroke="black" stroke-width="4.0"/>
<path d="M535.69 206.7L536.2 207.27" fill="none" stroke="black" stroke-width="4.0"/>
<path d="M536.2 207.27L536.38 208.01" fill="none" stroke="black" stroke-width="4.0"/>
<path d="M532.51 205.13L532.51 459.46Z" fill="none" stroke="black" stroke-width="4.0"/>
<path d="M 532.18 459.8 A 0.336 0.336 0 0 0 532.51 459.46" fill="none" stroke="black" stroke-width="4.0"/>
<path d="M521.55 459.8L532.18 459.8" fill="none" stroke="black" stroke-width="4.0"/>
<path d="M 521.22 459.46 A 0.336 0.336 0 0 0 521.55 459.8" fill="none" stroke="black" stroke-width="4.0"/>
<path d="M521.22 452.81L521.22 459.46Z" fill="none" stroke="black" stroke-width="4.0"/>
<path d="M 521.22 452.81 A 0.168 0.168 0 0 0 520.88 452.81" fill="none" stroke="black" stroke-width="4.0"/>
<path d="M520.88 452.81L520.88 457Z" fill="none" stroke="black" stroke-width="4.0"/>
<path d="M520.88 457L521.54 457" fill="none" stroke="black" stroke-width="4.0"/>
<path d="M521.54 452.81L521.54 457Z" fill="none" stroke="black" stroke-width="4.0"/>
<path d="M 521.55 452.81 A 1.503 1.503 0 0 0 521.54 452.81" fill="none" stroke="black" stroke-width="4.0"/>
<path d="M521.55 452.81L521.55 459.46Z" fill="none" stroke="black" stroke-width="4.0"/>
<path d="M521.55 459.46L532.18 459.46" fill="none" stroke="black" stroke-width="4.0"/>
<path d="M532.18 205.13L532.18 459.46Z" fill="none" stroke="black" stroke-width="4.0"/>
<path d="M520.21 205.29L520.21 459.3Z" fill="none" stroke="black" stroke-width="4.0"/>
<path d="M 521.22 205.29 A 1.503 1.503 0 0 0 520.21 205.29" fill="none" stroke="black" stroke-width="4.0"/>
<path d="M 520.21 459.3 A 1.503 1.503 0 0 0 521.22 459.3" fill="none" stroke="black" stroke-width="4.0"/>
<path d="M521.22 205.29L521.22 209.49Z" fill="none" stroke="black" stroke-width="4.0"/>
<path d="M521.22 459.3L521.22 455.1Z" fill="none" stroke="black" stroke-width="4.0"/>
<path d="M520.88 209.49L521.22 209.49" fill="none" stroke="black" stroke-width="4.0"/>
<path d="M520.88 455.1L521.22 455.1" fill="none" stroke="black" stroke-width="4.0"/>
<path d="M520.88 205.29L520.88 209.49Z" fill="none" stroke="black" stroke-width="4.0"/>
<path d="M520.88 459.3L520.88 455.1Z" fill="none" stroke="black" stroke-width="4.0"/>
<path d="M 520.88 205.29 A 0.168 0.168 0 0 0 521.54 205.29" fill="none" stroke="black" stroke-width="4.0"/>
<path d="M 521.54 459.3 A 0.168 0.168 0 0 0 520.88 459.3" fill="none" stroke="black" stroke-width="4.0"/>
<path d="M521.54 459.3L521.54 205.29Z" fill="none" stroke="black" stroke-width="4.0"/>
<path d="M 532.51 205.13 A 0.336 0.336 0 0 0 532.18 204.79" fill="none" stroke="black" stroke-width="4.0"/>
<path d="M521.55 204.79L532.18 204.79" fill="none" stroke="black" stroke-width="4.0"/>
<path d="M 521.55 204.79 A 0.336 0.336 0 0 0 521.22 205.13" fill="none" stroke="black" stroke-width="4.0"/>
<path d="M521.22 211.78L521.22 205.13Z" fill="none" stroke="black" stroke-width="4.0"/>
<path d="M 520.88 211.78 A 0.168 0.168 0 0 0 521.22 211.78" fill="none" stroke="black" stroke-width="4.0"/>
<path d="M520.88 211.78L520.88 207.59Z" fill="none" stroke="black" stroke-width="4.0"/>
<path d="M520.88 207.59L521.54 207.59" fill="none" stroke="black" stroke-width="4.0"/>
<path d="M521.54 211.78L521.54 207.59Z" fill="none" stroke="black" stroke-width="4.0"/>
<path d="M 521.54 211.78 A 1.503 1.503 0 0 0 521.55 211.78" fill="none" stroke="black" stroke-width="4.0"/>
<path d="M521.55 211.78L521.55 205.13Z" fill="none" stroke="black" stroke-width="4.0"/>
<path d="M521.55 205.13L532.18 205.13" fill="none" stroke="black" stroke-width="4.0"/>
<path d="M269.08 164.31L269.08 154.42Z" fill="none" stroke="black" stroke-width="4.0"/>
<path d="M531.22 172.38L532.03 171.96" fill="none" stroke="black" stroke-width="4.0"/>
<path d="M530.8 172.13L531.83 171.58" fill="none" stroke="black" stroke-width="4.0"/>
<path d="M531.22 167.86L532.03 168.28" fill="none" stroke="black" stroke-width="4.0"/>
<path d="M530.8 168.11L531.83 168.65" fill="none" stroke="black" stroke-width="4.0"/>
<path d="M534.69 448.15L534.69 433.43Z" fill="none" stroke="black" stroke-width="4.0"/>
<path d="M534.69 433.43L532.51 433.43" fill="none" stroke="black" stroke-width="4.0"/>
<path d="M532.51 433.43L532.51 448.15Z" fill="none" stroke="black" stroke-width="4.0"/>
<path d="M532.51 448.15L534.69 448.15" fill="none" stroke="black" stroke-width="4.0"/>
<path d="M534.69 438.2L541.78 438.2" fill="none" stroke="black" stroke-width="4.0"/>
<path d="M 541.78 438.2 A 4.089 4.089 0 0 0 545.87 434.11" fill="none" stroke="black" stroke-width="4.0"/>
<path d="M534.69 443.38L542.87 443.38" fill="none" stroke="black" stroke-width="4.0"/>
<path d="M 542.87 443.38 A 8.178 8.178 0 0 0 551.05 435.2" fill="none" stroke="black" stroke-width="4.0"/>
<path d="M551.05 435.2L551.05 413.39Z" fill="none" stroke="black" stroke-width="4.0"/>
<path d="M 551.05 413.39 A 8.178 8.178 0 0 0 542.87 405.21" fill="none" stroke="black" stroke-width="4.0"/>
<path d="M542.87 405.21L537.42 405.21" fill="none" stroke="black" stroke-width="4.0"/>
<path d="M537.42 405.21L537.42 410.39Z" fill="none" stroke="black" stroke-width="4.0"/>
<path d="M545.87 434.11L545.87 414.48Z" fill="none" stroke="black" stroke-width="4.0"/>
<path d="M541.78 410.39L537.42 410.39" fill="none" stroke="black" stroke-width="4.0"/>
<path d="M 545.87 414.48 A 4.089 4.089 0 0 0 541.78 410.39" fill="none" stroke="black" stroke-width="4.0"/>
<path d="M268.67 172.38L267.86 171.96" fill="none" stroke="black" stroke-width="4.0"/>
<path d="M269.08 172.13L268.06 171.58" fill="none" stroke="black" stroke-width="4.0"/>
<path d="M268.67 167.86L267.86 168.28" fill="none" stroke="black" stroke-width="4.0"/>
<path d="M269.08 168.11L268.06 168.65" fill="none" stroke="black" stroke-width="4.0"/>
<path d="M 269.08 204.79 A 262.323 262.323 0 0 0 521.55 459.8" fill="none" stroke="black" stroke-width="4.0"/>
<path d="M509.02 221.57L509.02 297.06Z" fill="none" stroke="black" stroke-width="4.0"/>
<path d="M509.02 297.06L520.21 297.06" fill="none" stroke="black" stroke-width="4.0"/>
<path d="M520.21 250.09L518.53 250.09" fill="none" stroke="black" stroke-width="4.0"/>
<path d="M518.53 250.09L515.47 253.93" fill="none" stroke="black" stroke-width="4.0"/>
<path d="M515.47 253.93L515.47 255.81Z" fill="none" stroke="black" stroke-width="4.0"/>
<path d="M515.47 255.81L519.32 267.36" fill="none" stroke="black" stroke-width="4.0"/>
<path d="M519.32 267.36L520.21 267.36" fill="none" stroke="black" stroke-width="4.0"/>
<path d="M517.44 254.91L517.26 255.43" fill="none" stroke="black" stroke-width="4.0"/>
<path d="M517.26 255.43L516.78 255.7" fill="none" stroke="black" stroke-width="4.0"/>
<path d="M516.78 255.7L516.24 255.61" fill="none" stroke="black" stroke-width="4.0"/>
<path d="M516.24 255.61L515.88 255.19" fill="none" stroke="black" stroke-width="4.0"/>
<path d="M515.88 255.19L515.88 254.64Z" fill="none" stroke="black" stroke-width="4.0"/>
<path d="M515.88 254.64L516.24 254.21" fill="none" stroke="black" stroke-width="4.0"/>
<path d="M516.24 254.21L516.78 254.12" fill="none" stroke="black" stroke-width="4.0"/>
<path d="M516.78 254.12L517.26 254.39" fill="none" stroke="black" stroke-width="4.0"/>
<path d="M517.26 254.39L517.44 254.91" fill="none" stroke="black" stroke-width="4.0"/>
<path d="M517.02 240.63L516.84 241.55" fill="none" stroke="black" stroke-width="4.0"/>
<path d="M516.84 241.55L516.32 242.33" fill="none" stroke="black" stroke-width="4.0"/>
<path d="M516.32 242.33L515.54 242.85" fill="none" stroke="black" stroke-width="4.0"/>
<path d="M515.54 242.85L514.62 243.03" fill="none" stroke="black" stroke-width="4.0"/>
<path d="M514.62 243.03L513.7 242.85" fill="none" stroke="black" stroke-width="4.0"/>
<path d="M513.7 242.85L512.92 242.33" fill="none" stroke="black" stroke-width="4.0"/>
<path d="M512.92 242.33L512.39 241.55" fill="none" stroke="black" stroke-width="4.0"/>
<path d="M512.39 241.55L512.21 240.63" fill="none" stroke="black" stroke-width="4.0"/>
<path d="M512.21 240.63L512.39 239.71" fill="none" stroke="black" stroke-width="4.0"/>
<path d="M512.39 239.71L512.92 238.93" fill="none" stroke="black" stroke-width="4.0"/>
<path d="M512.92 238.93L513.7 238.4" fill="none" stroke="black" stroke-width="4.0"/>
<path d="M513.7 238.4L514.62 238.22" fill="none" stroke="black" stroke-width="4.0"/>
<path d="M514.62 238.22L515.54 238.4" fill="none" stroke="black" stroke-width="4.0"/>
<path d="M515.54 238.4L516.32 238.93" fill="none" stroke="black" stroke-width="4.0"/>
<path d="M516.32 238.93L516.84 239.71" fill="none" stroke="black" stroke-width="4.0"/>
<path d="M516.84 239.71L517.02 240.63" fill="none" stroke="black" stroke-width="4.0"/>
<path d="M511.15 454.32L511.15 449.24Z" fill="none" stroke="black" stroke-width="4.0"/>
<path d="M511.15 447.71L511.15 349.34Z" fill="none" stroke="black" stroke-width="4.0"/>
<path d="M511.15 263.56L511.15 259.53Z" fill="none" stroke="black" stroke-width="4.0"/>
<path d="M511.15 353.24L520.21 353.24" fill="none" stroke="black" stroke-width="4.0"/>
<path d="M520.21 258.52L512.15 258.52" fill="none" stroke="black" stroke-width="4.0"/>
<path d="M 512.15 258.52 A 1.007 1.007 0 0 0 511.15 259.53" fill="none" stroke="black" stroke-width="4.0"/>
<path d="M520.21 263.56L511.15 263.56" fill="none" stroke="black" stroke-width="4.0"/>
<path d="M520.21 455.33L512.15 455.33" fill="none" stroke="black" stroke-width="4.0"/>
<path d="M 511.15 454.32 A 1.007 1.007 0 0 0 512.15 455.33" fill="none" stroke="black" stroke-width="4.0"/>
<path d="M 514.17 455.33 A 2.861 2.861 0 0 0 518.73 455.33" fill="none" stroke="black" stroke-width="4.0"/>
<path d="M514.17 455.33L514.17 445.35Z" fill="none" stroke="black" stroke-width="4.0"/>
<path d="M514.17 445.35L514.17 263.56Z" fill="none" stroke="black" stroke-width="4.0"/>
<path d="M520.21 445.35L514.17 445.35" fill="none" stroke="black" stroke-width="4.0"/>
<path d="M514.17 445.35L511.39 448.59" fill="none" stroke="black" stroke-width="4.0"/>
<path d="M 511.39 448.59 A 1.007 1.007 0 0 0 511.15 449.24" fill="none" stroke="black" stroke-width="4.0"/>
<path d="M514.17 444.73L511.5 447.84" fill="none" stroke="black" stroke-width="4.0"/>
<path d="M 511.15 447.71 A 0.201 0.201 0 0 0 511.5 447.84" fill="none" stroke="black" stroke-width="4.0"/>
<path d="M513.68 445.3L513.68 349.34Z" fill="none" stroke="black" stroke-width="4.0"/>
<path d="M520.21 449.5L516.13 449.5" fill="none" stroke="black" stroke-width="4.0"/>
<path d="M 515.5 449.27 A 1.007 1.007 0 0 0 516.13 449.5" fill="none" stroke="black" stroke-width="4.0"/>
<path d="M515.5 449.27L514.54 448.5" fill="none" stroke="black" stroke-width="4.0"/>
<path d="M 514.17 447.71 A 1.007 1.007 0 0 0 514.54 448.5" fill="none" stroke="black" stroke-width="4.0"/>
<path d="M516.57 455.33L516.57 449.5Z" fill="none" stroke="black" stroke-width="4.0"/>
<path d="M513.3 349.34L513.3 263.56Z" fill="none" stroke="black" stroke-width="4.0"/>
<path d="M509.02 221.57L520.21 221.57" fill="none" stroke="black" stroke-width="4.0"/>
<path d="M511.15 349.34L513.68 349.34" fill="none" stroke="black" stroke-width="4.0"/>
</svg>