<svg xmlns="http://www.w3.org/2000/svg" xmlns:ev="http://www.w3.org/2001/xml-events" xmlns:xlink="http://www.w3.org/1999/xlink" baseProfile="full" version="1.1" viewBox="-461.4 240.2 322.64 319.68">
	<defs/>
	<path d="M -306.29,279.02 A 126.294,126.294 0.0 0,0 -329.88,281.28" fill="none" stroke="black" stroke-width="4.0"/>
	<path d="M -220.58999999999997,485.99 A 117.573,117.573 0.0 0,0 -191.73999999999998,432.53" fill="none" stroke="black" stroke-width="4.0"/>
	<path d="M -410.52,334.24 A 126.294,126.294 0.0 0,0 -423.49,358.7" fill="none" stroke="black" stroke-width="4.0"/>
	<path d="M -452.59,374.51 L -457.26,376.11" fill="none" stroke="black" stroke-width="4.0"/>
	<path d="M -457.26,376.11 L -456.36,373.75" fill="none" stroke="black" stroke-width="4.0"/>
	<path d="M -456.36,373.75 L -458.18,373.82" fill="none" stroke="black" stroke-width="4.0"/>
	<path d="M -458.18,373.82 L -456.9,372.61" fill="none" stroke="black" stroke-width="4.0"/>
	<path d="M -456.9,372.61 L -459.4,370.14" fill="none" stroke="black" stroke-width="4.0"/>
	<path d="M -459.4,370.14 L -455.8,371.07" fill="none" stroke="black" stroke-width="4.0"/>
	<path d="M -455.8,371.07 L -455.22,369.06" fill="none" stroke="black" stroke-width="4.0"/>
	<path d="M -455.22,369.06 L -454.56,371.1" fill="none" stroke="black" stroke-width="4.0"/>
	<path d="M -454.56,371.1 L -452.71,369.45" fill="none" stroke="black" stroke-width="4.0"/>
	<path d="M -452.71,369.45 L -452.12,373.99" fill="none" stroke="black" stroke-width="4.0"/>
	<path d="M -359.87,315.39 L -367.97,322.35" fill="none" stroke="black" stroke-width="4.0"/>
	<path d="M -367.97,322.35 L -362.58,323.26" fill="none" stroke="black" stroke-width="4.0"/>
	<path d="M -362.58,323.26 L -364.72,326.58" fill="none" stroke="black" stroke-width="4.0"/>
	<path d="M -364.72,326.58 L -361.05,325.52" fill="none" stroke="black" stroke-width="4.0"/>
	<path d="M -361.05,325.52 L -359.18,332.91" fill="none" stroke="black" stroke-width="4.0"/>
	<path d="M -359.18,332.91 L -356.97,325.15" fill="none" stroke="black" stroke-width="4.0"/>
	<path d="M -356.97,325.15 L -352.57,326.28" fill="none" stroke="black" stroke-width="4.0"/>
	<path d="M -352.57,326.28 L -355.66,322.79" fill="none" stroke="black" stroke-width="4.0"/>
	<path d="M -355.66,322.79 L -350.56,321.16" fill="none" stroke="black" stroke-width="4.0"/>
	<path d="M -350.56,321.16 L -358.38,315.07" fill="none" stroke="black" stroke-width="4.0"/>
	<path d="M -407.78,346.25 A 117.573,117.573 0.0 0,0 -414.56,359.89" fill="none" stroke="black" stroke-width="4.0"/>
	<path d="M -349.07,328.63 L -341.91,336.55" fill="none" stroke="black" stroke-width="4.0"/>
	<path d="M -341.91,336.55 L -341.14,331.13" fill="none" stroke="black" stroke-width="4.0"/>
	<path d="M -341.14,331.13 L -337.76,333.18" fill="none" stroke="black" stroke-width="4.0"/>
	<path d="M -337.76,333.18 L -338.92,329.54" fill="none" stroke="black" stroke-width="4.0"/>
	<path d="M -338.92,329.54 L -331.58,327.48" fill="none" stroke="black" stroke-width="4.0"/>
	<path d="M -331.58,327.48 L -339.39,325.47" fill="none" stroke="black" stroke-width="4.0"/>
	<path d="M -339.39,325.47 L -338.38,321.04" fill="none" stroke="black" stroke-width="4.0"/>
	<path d="M -338.38,321.04 L -341.79,324.23" fill="none" stroke="black" stroke-width="4.0"/>
	<path d="M -341.79,324.23 L -343.55,319.17" fill="none" stroke="black" stroke-width="4.0"/>
	<path d="M -343.55,319.17 L -349.44,327.15" fill="none" stroke="black" stroke-width="4.0"/>
	<path d="M -361.58,304.7 L -371.78,301.51" fill="none" stroke="black" stroke-width="4.0"/>
	<path d="M -371.78,301.51 L -369.69,306.56" fill="none" stroke="black" stroke-width="4.0"/>
	<path d="M -369.69,306.56 L -373.64,306.51" fill="none" stroke="black" stroke-width="4.0"/>
	<path d="M -373.64,306.51 L -370.79,309.06" fill="none" stroke="black" stroke-width="4.0"/>
	<path d="M -370.79,309.06 L -376.07,314.56" fill="none" stroke="black" stroke-width="4.0"/>
	<path d="M -376.07,314.56 L -368.32,312.33" fill="none" stroke="black" stroke-width="4.0"/>
	<path d="M -368.32,312.33 L -366.94,316.66" fill="none" stroke="black" stroke-width="4.0"/>
	<path d="M -366.94,316.66 L -365.63,312.18" fill="none" stroke="black" stroke-width="4.0"/>
	<path d="M -365.63,312.18 L -361.54,315.65" fill="none" stroke="black" stroke-width="4.0"/>
	<path d="M -361.54,315.65 L -360.52,305.79" fill="none" stroke="black" stroke-width="4.0"/>
	<path d="M -374.01,298.46 L -377.92,305.69" fill="none" stroke="black" stroke-width="4.0"/>
	<path d="M -377.92,305.69 L -379.48,301.78" fill="none" stroke="black" stroke-width="4.0"/>
	<path d="M -379.48,301.78 L -381.63,303.92" fill="none" stroke="black" stroke-width="4.0"/>
	<path d="M -381.63,303.92 L -381.43,300.99" fill="none" stroke="black" stroke-width="4.0"/>
	<path d="M -381.43,300.99 L -387.29,300.79" fill="none" stroke="black" stroke-width="4.0"/>
	<path d="M -387.29,300.79 L -381.82,297.87" fill="none" stroke="black" stroke-width="4.0"/>
	<path d="M -381.82,297.87 L -383.38,294.74" fill="none" stroke="black" stroke-width="4.0"/>
	<path d="M -383.38,294.74 L -380.26,296.5" fill="none" stroke="black" stroke-width="4.0"/>
	<path d="M -380.26,296.5 L -379.86,292.4" fill="none" stroke="black" stroke-width="4.0"/>
	<path d="M -379.86,292.4 L -374.01,297.29" fill="none" stroke="black" stroke-width="4.0"/>
	<path d="M -366.26,298.54 L -360.76,292.44" fill="none" stroke="black" stroke-width="4.0"/>
	<path d="M -360.76,292.44 L -364.97,292.28" fill="none" stroke="black" stroke-width="4.0"/>
	<path d="M -364.97,292.28 L -363.66,289.53" fill="none" stroke="black" stroke-width="4.0"/>
	<path d="M -363.66,289.53 L -366.36,290.7" fill="none" stroke="black" stroke-width="4.0"/>
	<path d="M -366.36,290.7 L -368.51,285.25" fill="none" stroke="black" stroke-width="4.0"/>
	<path d="M -368.51,285.25 L -369.43,291.38" fill="none" stroke="black" stroke-width="4.0"/>
	<path d="M -369.43,291.38 L -372.9,290.96" fill="none" stroke="black" stroke-width="4.0"/>
	<path d="M -372.9,290.96 L -370.2,293.31" fill="none" stroke="black" stroke-width="4.0"/>
	<path d="M -370.2,293.31 L -373.93,295.06" fill="none" stroke="black" stroke-width="4.0"/>
	<path d="M -373.93,295.06 L -367.36,298.94" fill="none" stroke="black" stroke-width="4.0"/>
	<path d="M -377.09,290.29 L -372.95,285.72" fill="none" stroke="black" stroke-width="4.0"/>
	<path d="M -372.95,285.72 L -376.1,285.59" fill="none" stroke="black" stroke-width="4.0"/>
	<path d="M -376.1,285.59 L -375.12,283.54" fill="none" stroke="black" stroke-width="4.0"/>
	<path d="M -375.12,283.54 L -377.14,284.41" fill="none" stroke="black" stroke-width="4.0"/>
	<path d="M -377.14,284.41 L -378.74,280.31" fill="none" stroke="black" stroke-width="4.0"/>
	<path d="M -378.74,280.31 L -379.45,284.91" fill="none" stroke="black" stroke-width="4.0"/>
	<path d="M -379.45,284.91 L -382.05,284.58" fill="none" stroke="black" stroke-width="4.0"/>
	<path d="M -382.05,284.58 L -380.03,286.36" fill="none" stroke="black" stroke-width="4.0"/>
	<path d="M -380.03,286.36 L -382.83,287.65" fill="none" stroke="black" stroke-width="4.0"/>
	<path d="M -382.83,287.65 L -377.91,290.58" fill="none" stroke="black" stroke-width="4.0"/>
	<path d="M -391.42,284.37 L -394.68,279.14" fill="none" stroke="black" stroke-width="4.0"/>
	<path d="M -394.68,279.14 L -395.67,282.14" fill="none" stroke="black" stroke-width="4.0"/>
	<path d="M -395.67,282.14 L -397.38,280.63" fill="none" stroke="black" stroke-width="4.0"/>
	<path d="M -397.38,280.63 L -397.09,282.81" fill="none" stroke="black" stroke-width="4.0"/>
	<path d="M -397.09,282.81 L -401.47,283.23" fill="none" stroke="black" stroke-width="4.0"/>
	<path d="M -401.47,283.23 L -397.24,285.17" fill="none" stroke="black" stroke-width="4.0"/>
	<path d="M -397.24,285.17 L -398.27,287.58" fill="none" stroke="black" stroke-width="4.0"/>
	<path d="M -398.27,287.58 L -396.01,286.12" fill="none" stroke="black" stroke-width="4.0"/>
	<path d="M -396.01,286.12 L -395.53,289.17" fill="none" stroke="black" stroke-width="4.0"/>
	<path d="M -395.53,289.17 L -391.37,285.25" fill="none" stroke="black" stroke-width="4.0"/>
	<path d="M -394.13,274.17 L -397.82,279.11" fill="none" stroke="black" stroke-width="4.0"/>
	<path d="M -397.82,279.11 L -398.55,276.04" fill="none" stroke="black" stroke-width="4.0"/>
	<path d="M -398.55,276.04 L -400.38,277.4" fill="none" stroke="black" stroke-width="4.0"/>
	<path d="M -400.38,277.4 L -399.91,275.25" fill="none" stroke="black" stroke-width="4.0"/>
	<path d="M -399.91,275.25 L -404.24,274.47" fill="none" stroke="black" stroke-width="4.0"/>
	<path d="M -404.24,274.47 L -399.87,272.89" fill="none" stroke="black" stroke-width="4.0"/>
	<path d="M -399.87,272.89 L -400.69,270.4" fill="none" stroke="black" stroke-width="4.0"/>
	<path d="M -400.69,270.4 L -398.56,272.04" fill="none" stroke="black" stroke-width="4.0"/>
	<path d="M -398.56,272.04 L -397.82,269.04" fill="none" stroke="black" stroke-width="4.0"/>
	<path d="M -397.82,269.04 L -394.01,273.3" fill="none" stroke="black" stroke-width="4.0"/>
	<path d="M -396.23,266.38 L -400.96,264.99" fill="none" stroke="black" stroke-width="4.0"/>
	<path d="M -400.96,264.99 L -398.86,263.59" fill="none" stroke="black" stroke-width="4.0"/>
	<path d="M -398.86,263.59 L -400.39,262.59" fill="none" stroke="black" stroke-width="4.0"/>
	<path d="M -400.39,262.59 L -398.65,262.34" fill="none" stroke="black" stroke-width="4.0"/>
	<path d="M -398.65,262.34 L -399.27,258.88" fill="none" stroke="black" stroke-width="4.0"/>
	<path d="M -399.27,258.88 L -396.86,261.72" fill="none" stroke="black" stroke-width="4.0"/>
	<path d="M -396.86,261.72 L -395.22,260.41" fill="none" stroke="black" stroke-width="4.0"/>
	<path d="M -395.22,260.41 L -395.86,262.47" fill="none" stroke="black" stroke-width="4.0"/>
	<path d="M -395.86,262.47 L -393.41,262.18" fill="none" stroke="black" stroke-width="4.0"/>
	<path d="M -393.41,262.18 L -395.54,266.23" fill="none" stroke="black" stroke-width="4.0"/>
	<path d="M -400.31,257.33 L -405.04,255.95000000000002" fill="none" stroke="black" stroke-width="4.0"/>
	<path d="M -405.04,255.95000000000002 L -402.94,254.54000000000002" fill="none" stroke="black" stroke-width="4.0"/>
	<path d="M -402.94,254.54000000000002 L -404.47,253.55000000000004" fill="none" stroke="black" stroke-width="4.0"/>
	<path d="M -404.47,253.55000000000004 L -402.73,253.30000000000004" fill="none" stroke="black" stroke-width="4.0"/>
	<path d="M -402.73,253.30000000000004 L -403.35,249.83000000000004" fill="none" stroke="black" stroke-width="4.0"/>
	<path d="M -403.35,249.83000000000004 L -400.94,252.68000000000004" fill="none" stroke="black" stroke-width="4.0"/>
	<path d="M -400.94,252.68000000000004 L -399.3,251.37000000000003" fill="none" stroke="black" stroke-width="4.0"/>
	<path d="M -399.3,251.37000000000003 L -399.94,253.42000000000002" fill="none" stroke="black" stroke-width="4.0"/>
	<path d="M -399.94,253.42000000000002 L -397.49,253.14000000000001" fill="none" stroke="black" stroke-width="4.0"/>
	<path d="M -397.49,253.14000000000001 L -399.62,257.19" fill="none" stroke="black" stroke-width="4.0"/>
	<path d="M -355.47,311.15 L -348.31,319.07" fill="none" stroke="black" stroke-width="4.0"/>
	<path d="M -348.31,319.07 L -347.54,313.66" fill="none" stroke="black" stroke-width="4.0"/>
	<path d="M -347.54,313.66 L -344.17,315.71" fill="none" stroke="black" stroke-width="4.0"/>
	<path d="M -344.17,315.71 L -345.32,312.07" fill="none" stroke="black" stroke-width="4.0"/>
	<path d="M -345.32,312.07 L -337.98,310.01" fill="none" stroke="black" stroke-width="4.0"/>
	<path d="M -337.98,310.01 L -345.79,308.0" fill="none" stroke="black" stroke-width="4.0"/>
	<path d="M -345.79,308.0 L -344.78,303.57" fill="none" stroke="black" stroke-width="4.0"/>
	<path d="M -344.78,303.57 L -348.19,306.75" fill="none" stroke="black" stroke-width="4.0"/>
	<path d="M -348.19,306.75 L -349.95,301.69" fill="none" stroke="black" stroke-width="4.0"/>
	<path d="M -349.95,301.69 L -355.84,309.67" fill="none" stroke="black" stroke-width="4.0"/>
	<path d="M -345.66,285.37 A 126.294,126.294 0.0 0,0 -392.75,313.42" fill="none" stroke="black" stroke-width="4.0"/>
	<path d="M -344.61,294.22 A 117.573,117.573 0.0 0,0 -383.06,316.42" fill="none" stroke="black" stroke-width="4.0"/>
	<path d="M -306.93,287.74 A 117.573,117.573 0.0 0,0 -323.46,289.03" fill="none" stroke="black" stroke-width="4.0"/>
	<path d="M -385.53,283.56 L -381.78,278.66" fill="none" stroke="black" stroke-width="4.0"/>
	<path d="M -381.78,278.66 L -384.94,278.79" fill="none" stroke="black" stroke-width="4.0"/>
	<path d="M -384.94,278.79 L -384.13,276.66" fill="none" stroke="black" stroke-width="4.0"/>
	<path d="M -384.13,276.66 L -386.07,277.7" fill="none" stroke="black" stroke-width="4.0"/>
	<path d="M -386.07,277.7 L -388.01,273.75" fill="none" stroke="black" stroke-width="4.0"/>
	<path d="M -388.01,273.75 L -388.33,278.39" fill="none" stroke="black" stroke-width="4.0"/>
	<path d="M -388.33,278.39 L -390.95,278.28" fill="none" stroke="black" stroke-width="4.0"/>
	<path d="M -390.95,278.28 L -388.79,279.88" fill="none" stroke="black" stroke-width="4.0"/>
	<path d="M -388.79,279.88 L -391.47,281.41" fill="none" stroke="black" stroke-width="4.0"/>
	<path d="M -391.47,281.41 L -386.33,283.92" fill="none" stroke="black" stroke-width="4.0"/>
	<path d="M -261.43999999999994,523.44 A 126.294,126.294 0.0 0,0 -222.86999999999998,500.29" fill="none" stroke="black" stroke-width="4.0"/>
	<path d="M -318.44999999999993,531.0 A 126.294,126.294 0.0 0,0 -277.41999999999996,528.3" fill="none" stroke="black" stroke-width="4.0"/>
	<path d="M -258.0299999999999,505.32 L -264.50999999999993,517.61" fill="none" stroke="black" stroke-width="4.0"/>
	<path d="M -264.50999999999993,517.61 L -257.54999999999995,516.13" fill="none" stroke="black" stroke-width="4.0"/>
	<path d="M -257.54999999999995,516.13 L -258.54999999999995,521.16" fill="none" stroke="black" stroke-width="4.0"/>
	<path d="M -258.54999999999995,521.16 L -254.61999999999998,518.13" fill="none" stroke="black" stroke-width="4.0"/>
	<path d="M -254.61999999999998,518.13 L -248.83999999999997,526.18" fill="none" stroke="black" stroke-width="4.0"/>
	<path d="M -248.83999999999997,526.18 L -249.85999999999999,515.74" fill="none" stroke="black" stroke-width="4.0"/>
	<path d="M -249.85999999999999,515.74 L -243.99999999999997,515.0" fill="none" stroke="black" stroke-width="4.0"/>
	<path d="M -243.99999999999997,515.0 L -249.40999999999997,512.27" fill="none" stroke="black" stroke-width="4.0"/>
	<path d="M -249.40999999999997,512.27 L -244.00999999999996,507.86" fill="none" stroke="black" stroke-width="4.0"/>
	<path d="M -244.00999999999996,507.86 L -256.37999999999994,504.22" fill="none" stroke="black" stroke-width="4.0"/>
	<path d="M -307.62,368.8 L -307.62,368.8" fill="none" stroke="black" stroke-width="4.0"/>
	<path d="M -390.1,385.63 L -389.13,393.79" fill="none" stroke="black" stroke-width="4.0"/>
	<path d="M -389.13,393.79 L -392.66,391.49" fill="none" stroke="black" stroke-width="4.0"/>
	<path d="M -392.66,391.49 L -393.17,394.49" fill="none" stroke="black" stroke-width="4.0"/>
	<path d="M -393.17,394.49 L -394.7,391.98" fill="none" stroke="black" stroke-width="4.0"/>
	<path d="M -394.7,391.98 L -399.6,395.2" fill="none" stroke="black" stroke-width="4.0"/>
	<path d="M -399.6,395.2 L -396.82,389.65" fill="none" stroke="black" stroke-width="4.0"/>
	<path d="M -396.82,389.65 L -399.9,388.0" fill="none" stroke="black" stroke-width="4.0"/>
	<path d="M -399.9,388.0 L -396.34,387.63" fill="none" stroke="black" stroke-width="4.0"/>
	<path d="M -396.34,387.63 L -398.38,384.06" fill="none" stroke="black" stroke-width="4.0"/>
	<path d="M -398.38,384.06 L -390.78,384.67" fill="none" stroke="black" stroke-width="4.0"/>
	<path d="M -340.75,451.44 L -339.87,452.12" fill="none" stroke="black" stroke-width="4.0"/>
	<path d="M -339.87,452.12 L -343.36,456.88" fill="none" stroke="black" stroke-width="4.0"/>
	<path d="M -343.36,456.88 L -337.66,454.84" fill="none" stroke="black" stroke-width="4.0"/>
	<path d="M -337.66,454.84 L -338.17,461.79" fill="none" stroke="black" stroke-width="4.0"/>
	<path d="M -338.17,461.79 L -327.02,455.31" fill="none" stroke="black" stroke-width="4.0"/>
	<path d="M -326.69,453.36 L -331.15,440.21" fill="none" stroke="black" stroke-width="4.0"/>
	<path d="M -331.15,440.21 L -334.86,446.28" fill="none" stroke="black" stroke-width="4.0"/>
	<path d="M -334.86,446.28 L -335.81,444.93" fill="none" stroke="black" stroke-width="4.0"/>
	<path d="M -347.27,461.02 L -353.74999999999994,473.3" fill="none" stroke="black" stroke-width="4.0"/>
	<path d="M -353.74999999999994,473.3 L -346.79999999999995,471.82" fill="none" stroke="black" stroke-width="4.0"/>
	<path d="M -346.79999999999995,471.82 L -347.79999999999995,476.86" fill="none" stroke="black" stroke-width="4.0"/>
	<path d="M -347.79999999999995,476.86 L -343.85999999999996,473.83" fill="none" stroke="black" stroke-width="4.0"/>
	<path d="M -343.85999999999996,473.83 L -338.0799999999999,481.88" fill="none" stroke="black" stroke-width="4.0"/>
	<path d="M -338.0799999999999,481.88 L -339.10999999999996,471.44" fill="none" stroke="black" stroke-width="4.0"/>
	<path d="M -339.10999999999996,471.44 L -333.24999999999994,470.7" fill="none" stroke="black" stroke-width="4.0"/>
	<path d="M -333.24999999999994,470.7 L -338.65999999999997,467.96" fill="none" stroke="black" stroke-width="4.0"/>
	<path d="M -338.65999999999997,467.96 L -333.26,463.56" fill="none" stroke="black" stroke-width="4.0"/>
	<path d="M -333.26,463.56 L -345.63,459.92" fill="none" stroke="black" stroke-width="4.0"/>
	<path d="M -444.04,379.54 L -448.71,381.14" fill="none" stroke="black" stroke-width="4.0"/>
	<path d="M -448.71,381.14 L -447.81,378.78" fill="none" stroke="black" stroke-width="4.0"/>
	<path d="M -447.81,378.78 L -449.63,378.85" fill="none" stroke="black" stroke-width="4.0"/>
	<path d="M -449.63,378.85 L -448.35,377.64" fill="none" stroke="black" stroke-width="4.0"/>
	<path d="M -448.35,377.64 L -450.85,375.17" fill="none" stroke="black" stroke-width="4.0"/>
	<path d="M -450.85,375.17 L -447.25,376.1" fill="none" stroke="black" stroke-width="4.0"/>
	<path d="M -447.25,376.1 L -446.67,374.09" fill="none" stroke="black" stroke-width="4.0"/>
	<path d="M -446.67,374.09 L -446.0,376.13" fill="none" stroke="black" stroke-width="4.0"/>
	<path d="M -446.0,376.13 L -444.16,374.48" fill="none" stroke="black" stroke-width="4.0"/>
	<path d="M -444.16,374.48 L -443.57,379.02" fill="none" stroke="black" stroke-width="4.0"/>
	<path d="M -434.13,380.62 L -433.9,374.46" fill="none" stroke="black" stroke-width="4.0"/>
	<path d="M -433.9,374.46 L -436.4,376.39" fill="none" stroke="black" stroke-width="4.0"/>
	<path d="M -436.4,376.39 L -436.97,374.18" fill="none" stroke="black" stroke-width="4.0"/>
	<path d="M -436.97,374.18 L -437.96,376.15" fill="none" stroke="black" stroke-width="4.0"/>
	<path d="M -437.96,376.15 L -441.82,374.04" fill="none" stroke="black" stroke-width="4.0"/>
	<path d="M -441.82,374.04 L -439.4,378.02" fill="none" stroke="black" stroke-width="4.0"/>
	<path d="M -439.4,378.02 L -441.6,379.44" fill="none" stroke="black" stroke-width="4.0"/>
	<path d="M -441.6,379.44 L -438.91,379.5" fill="none" stroke="black" stroke-width="4.0"/>
	<path d="M -438.91,379.5 L -440.23,382.3" fill="none" stroke="black" stroke-width="4.0"/>
	<path d="M -440.23,382.3 L -434.58,381.38" fill="none" stroke="black" stroke-width="4.0"/>
	<path d="M -429.73,391.45 L -435.41,389.06" fill="none" stroke="black" stroke-width="4.0"/>
	<path d="M -435.41,389.06 L -434.49,392.08" fill="none" stroke="black" stroke-width="4.0"/>
	<path d="M -434.49,392.08 L -436.75,391.83" fill="none" stroke="black" stroke-width="4.0"/>
	<path d="M -436.75,391.83 L -435.26,393.46" fill="none" stroke="black" stroke-width="4.0"/>
	<path d="M -435.26,393.46 L -438.6,396.32" fill="none" stroke="black" stroke-width="4.0"/>
	<path d="M -438.6,396.32 L -434.02,395.47" fill="none" stroke="black" stroke-width="4.0"/>
	<path d="M -434.02,395.47 L -433.47,398.03" fill="none" stroke="black" stroke-width="4.0"/>
	<path d="M -433.47,398.03 L -432.47,395.53" fill="none" stroke="black" stroke-width="4.0"/>
	<path d="M -432.47,395.53 L -430.31,397.75" fill="none" stroke="black" stroke-width="4.0"/>
	<path d="M -430.31,397.75 L -429.18,392.14" fill="none" stroke="black" stroke-width="4.0"/>
	<path d="M -425.39,387.39 L -425.16,381.23" fill="none" stroke="black" stroke-width="4.0"/>
	<path d="M -425.16,381.23 L -427.65,383.16" fill="none" stroke="black" stroke-width="4.0"/>
	<path d="M -427.65,383.16 L -428.22,380.95" fill="none" stroke="black" stroke-width="4.0"/>
	<path d="M -428.22,380.95 L -429.21,382.92" fill="none" stroke="black" stroke-width="4.0"/>
	<path d="M -429.21,382.92 L -433.07,380.81" fill="none" stroke="black" stroke-width="4.0"/>
	<path d="M -433.07,380.81 L -430.66,384.79" fill="none" stroke="black" stroke-width="4.0"/>
	<path d="M -430.66,384.79 L -432.86,386.21" fill="none" stroke="black" stroke-width="4.0"/>
	<path d="M -432.86,386.21 L -430.17,386.27" fill="none" stroke="black" stroke-width="4.0"/>
	<path d="M -430.17,386.27 L -431.48,389.07" fill="none" stroke="black" stroke-width="4.0"/>
	<path d="M -431.48,389.07 L -425.84,388.14" fill="none" stroke="black" stroke-width="4.0"/>
	<path d="M -414.61,388.01 L -413.86,381.89" fill="none" stroke="black" stroke-width="4.0"/>
	<path d="M -413.86,381.89 L -416.51,383.61" fill="none" stroke="black" stroke-width="4.0"/>
	<path d="M -416.51,383.61 L -416.9,381.36" fill="none" stroke="black" stroke-width="4.0"/>
	<path d="M -416.9,381.36 L -418.05,383.24" fill="none" stroke="black" stroke-width="4.0"/>
	<path d="M -418.05,383.24 L -421.72,380.82" fill="none" stroke="black" stroke-width="4.0"/>
	<path d="M -421.72,380.82 L -419.64,384.98" fill="none" stroke="black" stroke-width="4.0"/>
	<path d="M -419.64,384.98 L -421.95,386.22" fill="none" stroke="black" stroke-width="4.0"/>
	<path d="M -421.95,386.22 L -419.28,386.5" fill="none" stroke="black" stroke-width="4.0"/>
	<path d="M -419.28,386.5 L -420.82,389.18" fill="none" stroke="black" stroke-width="4.0"/>
	<path d="M -420.82,389.18 L -415.12,388.73" fill="none" stroke="black" stroke-width="4.0"/>
	<path d="M -401.0,388.5 L -400.04,380.34" fill="none" stroke="black" stroke-width="4.0"/>
	<path d="M -400.04,380.34 L -403.56,382.64" fill="none" stroke="black" stroke-width="4.0"/>
	<path d="M -403.56,382.64 L -404.08,379.64" fill="none" stroke="black" stroke-width="4.0"/>
	<path d="M -404.08,379.64 L -405.61,382.15" fill="none" stroke="black" stroke-width="4.0"/>
	<path d="M -405.61,382.15 L -410.52,378.94" fill="none" stroke="black" stroke-width="4.0"/>
	<path d="M -410.52,378.94 L -407.73,384.49" fill="none" stroke="black" stroke-width="4.0"/>
	<path d="M -407.73,384.49 L -410.8,386.14" fill="none" stroke="black" stroke-width="4.0"/>
	<path d="M -410.8,386.14 L -407.24,386.5" fill="none" stroke="black" stroke-width="4.0"/>
	<path d="M -407.24,386.5 L -409.28,390.08" fill="none" stroke="black" stroke-width="4.0"/>
	<path d="M -409.28,390.08 L -401.67,389.46" fill="none" stroke="black" stroke-width="4.0"/>
	<path d="M -407.38,392.9 L -406.4,401.06" fill="none" stroke="black" stroke-width="4.0"/>
	<path d="M -406.4,401.06 L -409.93,398.77" fill="none" stroke="black" stroke-width="4.0"/>
	<path d="M -409.93,398.77 L -410.45,401.77" fill="none" stroke="black" stroke-width="4.0"/>
	<path d="M -410.45,401.77 L -411.98,399.26" fill="none" stroke="black" stroke-width="4.0"/>
	<path d="M -411.98,399.26 L -416.87,402.48" fill="none" stroke="black" stroke-width="4.0"/>
	<path d="M -416.87,402.48 L -414.1,396.93" fill="none" stroke="black" stroke-width="4.0"/>
	<path d="M -414.1,396.93 L -417.18,395.28" fill="none" stroke="black" stroke-width="4.0"/>
	<path d="M -417.18,395.28 L -413.61,394.91" fill="none" stroke="black" stroke-width="4.0"/>
	<path d="M -413.61,394.91 L -415.66,391.34" fill="none" stroke="black" stroke-width="4.0"/>
	<path d="M -415.66,391.34 L -408.05,391.95" fill="none" stroke="black" stroke-width="4.0"/>
	<path d="M -355.09999999999997,488.52 L -361.5799999999999,500.8" fill="none" stroke="black" stroke-width="4.0"/>
	<path d="M -361.5799999999999,500.8 L -354.62999999999994,499.33" fill="none" stroke="black" stroke-width="4.0"/>
	<path d="M -354.62999999999994,499.33 L -355.62999999999994,504.36" fill="none" stroke="black" stroke-width="4.0"/>
	<path d="M -355.62999999999994,504.36 L -351.68999999999994,501.33" fill="none" stroke="black" stroke-width="4.0"/>
	<path d="M -351.68999999999994,501.33 L -345.90999999999997,509.38" fill="none" stroke="black" stroke-width="4.0"/>
	<path d="M -345.90999999999997,509.38 L -346.93999999999994,498.94" fill="none" stroke="black" stroke-width="4.0"/>
	<path d="M -346.93999999999994,498.94 L -341.0799999999999,498.2" fill="none" stroke="black" stroke-width="4.0"/>
	<path d="M -341.0799999999999,498.2 L -346.48999999999995,495.46" fill="none" stroke="black" stroke-width="4.0"/>
	<path d="M -346.48999999999995,495.46 L -341.0899999999999,491.06" fill="none" stroke="black" stroke-width="4.0"/>
	<path d="M -341.0899999999999,491.06 L -353.4599999999999,487.42" fill="none" stroke="black" stroke-width="4.0"/>
	<path d="M -352.69999999999993,479.65 L -357.1499999999999,466.5" fill="none" stroke="black" stroke-width="4.0"/>
	<path d="M -357.1499999999999,466.5 L -360.85999999999996,472.56" fill="none" stroke="black" stroke-width="4.0"/>
	<path d="M -360.85999999999996,472.56 L -363.8299999999999,468.37" fill="none" stroke="black" stroke-width="4.0"/>
	<path d="M -363.8299999999999,468.37 L -364.3399999999999,473.31" fill="none" stroke="black" stroke-width="4.0"/>
	<path d="M -364.3399999999999,473.31 L -374.1499999999999,471.97" fill="none" stroke="black" stroke-width="4.0"/>
	<path d="M -374.1499999999999,471.97 L -365.87999999999994,478.41" fill="none" stroke="black" stroke-width="4.0"/>
	<path d="M -365.87999999999994,478.41 L -369.36999999999995,483.17" fill="none" stroke="black" stroke-width="4.0"/>
	<path d="M -369.36999999999995,483.17 L -363.65999999999997,481.13" fill="none" stroke="black" stroke-width="4.0"/>
	<path d="M -363.65999999999997,481.13 L -364.17999999999995,488.08" fill="none" stroke="black" stroke-width="4.0"/>
	<path d="M -364.17999999999995,488.08 L -353.0299999999999,481.6" fill="none" stroke="black" stroke-width="4.0"/>
	<path d="M -366.00999999999993,502.94 L -357.69999999999993,509.64" fill="none" stroke="black" stroke-width="4.0"/>
	<path d="M -357.69999999999993,509.64 L -363.05999999999995,510.71" fill="none" stroke="black" stroke-width="4.0"/>
	<path d="M -363.05999999999995,510.71 L -360.81999999999994,513.97" fill="none" stroke="black" stroke-width="4.0"/>
	<path d="M -360.81999999999994,513.97 L -364.5199999999999,513.02" fill="none" stroke="black" stroke-width="4.0"/>
	<path d="M -364.5199999999999,513.02 L -366.15999999999997,520.47" fill="none" stroke="black" stroke-width="4.0"/>
	<path d="M -366.15999999999997,520.47 L -368.60999999999996,512.78" fill="none" stroke="black" stroke-width="4.0"/>
	<path d="M -368.60999999999996,512.78 L -372.97999999999996,514.04" fill="none" stroke="black" stroke-width="4.0"/>
	<path d="M -372.97999999999996,514.04 L -369.98999999999995,510.46" fill="none" stroke="black" stroke-width="4.0"/>
	<path d="M -369.98999999999995,510.46 L -375.13999999999993,508.99" fill="none" stroke="black" stroke-width="4.0"/>
	<path d="M -375.13999999999993,508.99 L -367.50999999999993,502.66" fill="none" stroke="black" stroke-width="4.0"/>
	<path d="M -377.17999999999995,504.94 L -382.03999999999996,498.57" fill="none" stroke="black" stroke-width="4.0"/>
	<path d="M -382.03999999999996,498.57 L -382.94999999999993,502.57" fill="none" stroke="black" stroke-width="4.0"/>
	<path d="M -382.94999999999993,502.57 L -385.34999999999997,500.83" fill="none" stroke="black" stroke-width="4.0"/>
	<path d="M -385.34999999999997,500.83 L -384.71999999999997,503.62" fill="none" stroke="black" stroke-width="4.0"/>
	<path d="M -384.71999999999997,503.62 L -390.3299999999999,504.7" fill="none" stroke="black" stroke-width="4.0"/>
	<path d="M -390.3299999999999,504.7 L -384.61999999999995,506.69" fill="none" stroke="black" stroke-width="4.0"/>
	<path d="M -384.61999999999995,506.69 L -385.6499999999999,509.94" fill="none" stroke="black" stroke-width="4.0"/>
	<path d="M -385.6499999999999,509.94 L -382.8999999999999,507.77" fill="none" stroke="black" stroke-width="4.0"/>
	<path d="M -382.8999999999999,507.77 L -381.90999999999997,511.66" fill="none" stroke="black" stroke-width="4.0"/>
	<path d="M -381.90999999999997,511.66 L -376.99999999999994,506.07" fill="none" stroke="black" stroke-width="4.0"/>
	<path d="M -341.0299999999999,488.86 L -334.04999999999995,500.86" fill="none" stroke="black" stroke-width="4.0"/>
	<path d="M -334.04999999999995,500.86 L -331.60999999999996,494.18" fill="none" stroke="black" stroke-width="4.0"/>
	<path d="M -331.60999999999996,494.18 L -327.86999999999995,497.7" fill="none" stroke="black" stroke-width="4.0"/>
	<path d="M -327.86999999999995,497.7 L -328.35999999999996,492.76" fill="none" stroke="black" stroke-width="4.0"/>
	<path d="M -328.35999999999996,492.76 L -318.46999999999997,492.12" fill="none" stroke="black" stroke-width="4.0"/>
	<path d="M -318.46999999999997,492.12 L -327.85999999999996,487.46" fill="none" stroke="black" stroke-width="4.0"/>
	<path d="M -327.85999999999996,487.46 L -325.38999999999993,482.09" fill="none" stroke="black" stroke-width="4.0"/>
	<path d="M -325.38999999999993,482.09 L -330.56999999999994,485.23" fill="none" stroke="black" stroke-width="4.0"/>
	<path d="M -330.56999999999994,485.23 L -331.44999999999993,478.32" fill="none" stroke="black" stroke-width="4.0"/>
	<path d="M -331.44999999999993,478.32 L -341.0899999999999,486.88" fill="none" stroke="black" stroke-width="4.0"/>
	<path d="M -401.81999999999994,522.93 L -396.36999999999995,528.8" fill="none" stroke="black" stroke-width="4.0"/>
	<path d="M -396.36999999999995,528.8 L -400.46999999999997,529.02" fill="none" stroke="black" stroke-width="4.0"/>
	<path d="M -400.46999999999997,529.02 L -399.15999999999997,531.68" fill="none" stroke="black" stroke-width="4.0"/>
	<path d="M -399.15999999999997,531.68 L -401.79999999999995,530.58" fill="none" stroke="black" stroke-width="4.0"/>
	<path d="M -401.79999999999995,530.58 L -403.81999999999994,535.92" fill="none" stroke="black" stroke-width="4.0"/>
	<path d="M -403.81999999999994,535.92 L -404.80999999999995,529.95" fill="none" stroke="black" stroke-width="4.0"/>
	<path d="M -404.80999999999995,529.95 L -408.17999999999995,530.42" fill="none" stroke="black" stroke-width="4.0"/>
	<path d="M -408.17999999999995,530.42 L -405.5799999999999,528.08" fill="none" stroke="black" stroke-width="4.0"/>
	<path d="M -405.5799999999999,528.08 L -409.24999999999994,526.44" fill="none" stroke="black" stroke-width="4.0"/>
	<path d="M -409.24999999999994,526.44 L -402.8999999999999,522.56" fill="none" stroke="black" stroke-width="4.0"/>
	<path d="M -412.2699999999999,523.77 L -415.15999999999997,529.49" fill="none" stroke="black" stroke-width="4.0"/>
	<path d="M -415.15999999999997,529.49 L -416.4599999999999,526.48" fill="none" stroke="black" stroke-width="4.0"/>
	<path d="M -416.4599999999999,526.48 L -418.0899999999999,528.2" fill="none" stroke="black" stroke-width="4.0"/>
	<path d="M -418.0899999999999,528.2 L -417.99999999999994,525.91" fill="none" stroke="black" stroke-width="4.0"/>
	<path d="M -417.99999999999994,525.91 L -422.56999999999994,525.88" fill="none" stroke="black" stroke-width="4.0"/>
	<path d="M -422.56999999999994,525.88 L -418.36999999999995,523.48" fill="none" stroke="black" stroke-width="4.0"/>
	<path d="M -418.36999999999995,523.48 L -419.65999999999997,521.08" fill="none" stroke="black" stroke-width="4.0"/>
	<path d="M -419.65999999999997,521.08 L -417.17999999999995,522.38" fill="none" stroke="black" stroke-width="4.0"/>
	<path d="M -417.17999999999995,522.38 L -416.96999999999997,519.17" fill="none" stroke="black" stroke-width="4.0"/>
	<path d="M -416.96999999999997,519.17 L -412.28999999999996,522.86" fill="none" stroke="black" stroke-width="4.0"/>
	<path d="M -424.78999999999996,526.85 L -427.67999999999995,532.57" fill="none" stroke="black" stroke-width="4.0"/>
	<path d="M -427.67999999999995,532.57 L -428.98999999999995,529.56" fill="none" stroke="black" stroke-width="4.0"/>
	<path d="M -428.98999999999995,529.56 L -430.60999999999996,531.28" fill="none" stroke="black" stroke-width="4.0"/>
	<path d="M -430.60999999999996,531.28 L -430.5299999999999,528.99" fill="none" stroke="black" stroke-width="4.0"/>
	<path d="M -430.5299999999999,528.99 L -435.09999999999997,528.96" fill="none" stroke="black" stroke-width="4.0"/>
	<path d="M -435.09999999999997,528.96 L -430.8999999999999,526.56" fill="none" stroke="black" stroke-width="4.0"/>
	<path d="M -430.8999999999999,526.56 L -432.17999999999995,524.16" fill="none" stroke="black" stroke-width="4.0"/>
	<path d="M -432.17999999999995,524.16 L -429.7099999999999,525.46" fill="none" stroke="black" stroke-width="4.0"/>
	<path d="M -429.7099999999999,525.46 L -429.48999999999995,522.25" fill="none" stroke="black" stroke-width="4.0"/>
	<path d="M -429.48999999999995,522.25 L -424.81999999999994,525.93" fill="none" stroke="black" stroke-width="4.0"/>
	<path d="M -387.7799999999999,514.15 L -393.1499999999999,508.2" fill="none" stroke="black" stroke-width="4.0"/>
	<path d="M -393.1499999999999,508.2 L -393.72999999999996,512.27" fill="none" stroke="black" stroke-width="4.0"/>
	<path d="M -393.72999999999996,512.27 L -396.25999999999993,510.73" fill="none" stroke="black" stroke-width="4.0"/>
	<path d="M -396.25999999999993,510.73 L -395.3999999999999,513.46" fill="none" stroke="black" stroke-width="4.0"/>
	<path d="M -395.3999999999999,513.46 L -400.8999999999999,515.0" fill="none" stroke="black" stroke-width="4.0"/>
	<path d="M -400.8999999999999,515.0 L -395.04999999999995,516.51" fill="none" stroke="black" stroke-width="4.0"/>
	<path d="M -395.04999999999995,516.51 L -395.79999999999995,519.83" fill="none" stroke="black" stroke-width="4.0"/>
	<path d="M -395.79999999999995,519.83 L -393.24999999999994,517.44" fill="none" stroke="black" stroke-width="4.0"/>
	<path d="M -393.24999999999994,517.44 L -391.92999999999995,521.24" fill="none" stroke="black" stroke-width="4.0"/>
	<path d="M -391.92999999999995,521.24 L -387.50999999999993,515.26" fill="none" stroke="black" stroke-width="4.0"/>
	<path d="M -388.12999999999994,521.87 L -395.5899999999999,524.8" fill="none" stroke="black" stroke-width="4.0"/>
	<path d="M -395.5899999999999,524.8 L -391.98999999999995,526.77" fill="none" stroke="black" stroke-width="4.0"/>
	<path d="M -391.98999999999995,526.77 L -394.31999999999994,528.6" fill="none" stroke="black" stroke-width="4.0"/>
	<path d="M -394.31999999999994,528.6 L -391.4599999999999,528.76" fill="none" stroke="black" stroke-width="4.0"/>
	<path d="M -391.4599999999999,528.76 L -391.96999999999997,534.45" fill="none" stroke="black" stroke-width="4.0"/>
	<path d="M -391.96999999999997,534.45 L -388.48999999999995,529.5" fill="none" stroke="black" stroke-width="4.0"/>
	<path d="M -388.48999999999995,529.5 L -385.63999999999993,531.38" fill="none" stroke="black" stroke-width="4.0"/>
	<path d="M -385.63999999999993,531.38 L -386.97999999999996,528.15" fill="none" stroke="black" stroke-width="4.0"/>
	<path d="M -386.97999999999996,528.15 L -382.9599999999999,528.26" fill="none" stroke="black" stroke-width="4.0"/>
	<path d="M -382.9599999999999,528.26 L -386.99999999999994,522.01" fill="none" stroke="black" stroke-width="4.0"/>
	<path d="M -416.8399999999999,466.07 A 126.294,126.294 0.0 0,0 -327.62999999999994,529.76" fill="none" stroke="black" stroke-width="4.0"/>
	<path d="M -426.64,367.58 A 126.294,126.294 0.0 0,0 -427.18,441.27" fill="none" stroke="black" stroke-width="4.0"/>
	<path d="M -261.73999999999995,514.19 A 117.573,117.573 0.0 0,0 -234.20999999999998,498.34" fill="none" stroke="black" stroke-width="4.0"/>
	<path d="M -312.97999999999996,522.69 A 117.573,117.573 0.0 0,0 -278.4599999999999,519.59" fill="none" stroke="black" stroke-width="4.0"/>
	<path d="M -408.89,462.42 A 117.573,117.573 0.0 0,0 -324.5799999999999,521.43" fill="none" stroke="black" stroke-width="4.0"/>
	<path d="M -418.83,371.87 A 117.573,117.573 0.0 0,0 -419.9,434.92" fill="none" stroke="black" stroke-width="4.0"/>
	<path d="M -255.61999999999998,496.45 L -260.06999999999994,483.3" fill="none" stroke="black" stroke-width="4.0"/>
	<path d="M -260.06999999999994,483.3 L -263.78999999999996,489.37" fill="none" stroke="black" stroke-width="4.0"/>
	<path d="M -263.78999999999996,489.37 L -266.74999999999994,485.18" fill="none" stroke="black" stroke-width="4.0"/>
	<path d="M -266.74999999999994,485.18 L -267.25999999999993,490.11" fill="none" stroke="black" stroke-width="4.0"/>
	<path d="M -267.25999999999993,490.11 L -277.0799999999999,488.78" fill="none" stroke="black" stroke-width="4.0"/>
	<path d="M -277.0799999999999,488.78 L -268.79999999999995,495.21" fill="none" stroke="black" stroke-width="4.0"/>
	<path d="M -268.79999999999995,495.21 L -272.28999999999996,499.97" fill="none" stroke="black" stroke-width="4.0"/>
	<path d="M -272.28999999999996,499.97 L -266.5799999999999,497.93" fill="none" stroke="black" stroke-width="4.0"/>
	<path d="M -266.5799999999999,497.93 L -267.09999999999997,504.88" fill="none" stroke="black" stroke-width="4.0"/>
	<path d="M -267.09999999999997,504.88 L -255.94999999999996,498.4" fill="none" stroke="black" stroke-width="4.0"/>
	<path d="M -252.51999999999998,493.71 L -245.53999999999996,505.71" fill="none" stroke="black" stroke-width="4.0"/>
	<path d="M -245.53999999999996,505.71 L -243.10999999999999,499.03" fill="none" stroke="black" stroke-width="4.0"/>
	<path d="M -243.10999999999999,499.03 L -239.36999999999998,502.55" fill="none" stroke="black" stroke-width="4.0"/>
	<path d="M -239.36999999999998,502.55 L -239.84999999999997,497.61" fill="none" stroke="black" stroke-width="4.0"/>
	<path d="M -239.84999999999997,497.61 L -229.95999999999998,496.97" fill="none" stroke="black" stroke-width="4.0"/>
	<path d="M -229.95999999999998,496.97 L -239.35999999999999,492.3" fill="none" stroke="black" stroke-width="4.0"/>
	<path d="M -239.35999999999999,492.3 L -236.87999999999997,486.94" fill="none" stroke="black" stroke-width="4.0"/>
	<path d="M -236.87999999999997,486.94 L -242.06999999999996,490.08" fill="none" stroke="black" stroke-width="4.0"/>
	<path d="M -242.06999999999996,490.08 L -242.93999999999997,483.17" fill="none" stroke="black" stroke-width="4.0"/>
	<path d="M -242.93999999999997,483.17 L -252.57999999999998,491.73" fill="none" stroke="black" stroke-width="4.0"/>
	<path d="M -244.61999999999998,295.01 A 126.294,126.294 0.0 0,0 -295.43,279.47" fill="none" stroke="black" stroke-width="4.0"/>
	<path d="M -253.77999999999997,300.03 A 117.573,117.573 0.0 0,0 -286.38,289.41" fill="none" stroke="black" stroke-width="4.0"/>
	<path d="M -274.27,296.87 L -275.34,286.24" fill="none" stroke="black" stroke-width="4.0"/>
	<path d="M -275.34,286.24 L -279.17,290.15" fill="none" stroke="black" stroke-width="4.0"/>
	<path d="M -279.17,290.15 L -280.67,286.5" fill="none" stroke="black" stroke-width="4.0"/>
	<path d="M -280.67,286.5 L -281.91,290.11" fill="none" stroke="black" stroke-width="4.0"/>
	<path d="M -281.91,290.11 L -289.03,287.42" fill="none" stroke="black" stroke-width="4.0"/>
	<path d="M -289.03,287.42 L -283.94,293.67" fill="none" stroke="black" stroke-width="4.0"/>
	<path d="M -283.94,293.67 L -287.38,296.64" fill="none" stroke="black" stroke-width="4.0"/>
	<path d="M -287.38,296.64 L -282.75,296.09" fill="none" stroke="black" stroke-width="4.0"/>
	<path d="M -282.75,296.09 L -284.33,301.21" fill="none" stroke="black" stroke-width="4.0"/>
	<path d="M -284.33,301.21 L -274.86,298.28" fill="none" stroke="black" stroke-width="4.0"/>
	<path d="M -265.68,289.9 L -256.82,283.94" fill="none" stroke="black" stroke-width="4.0"/>
	<path d="M -256.82,283.94 L -262.07,282.41" fill="none" stroke="black" stroke-width="4.0"/>
	<path d="M -262.07,282.41 L -259.56,279.36" fill="none" stroke="black" stroke-width="4.0"/>
	<path d="M -259.56,279.36 L -263.33,279.98" fill="none" stroke="black" stroke-width="4.0"/>
	<path d="M -263.33,279.98 L -264.31,272.43" fill="none" stroke="black" stroke-width="4.0"/>
	<path d="M -264.31,272.43 L -267.42,279.87" fill="none" stroke="black" stroke-width="4.0"/>
	<path d="M -267.42,279.87 L -271.66,278.24" fill="none" stroke="black" stroke-width="4.0"/>
	<path d="M -271.66,278.24 L -268.99,282.06" fill="none" stroke="black" stroke-width="4.0"/>
	<path d="M -268.99,282.06 L -274.25,283.08" fill="none" stroke="black" stroke-width="4.0"/>
	<path d="M -274.25,283.08 L -267.2,290.05" fill="none" stroke="black" stroke-width="4.0"/>
	<path d="M -272.23,320.25 L -273.3,309.63" fill="none" stroke="black" stroke-width="4.0"/>
	<path d="M -273.3,309.63 L -277.13,313.53" fill="none" stroke="black" stroke-width="4.0"/>
	<path d="M -277.13,313.53 L -278.63,309.88" fill="none" stroke="black" stroke-width="4.0"/>
	<path d="M -278.63,309.88 L -279.86,313.49" fill="none" stroke="black" stroke-width="4.0"/>
	<path d="M -279.86,313.49 L -286.99,310.8" fill="none" stroke="black" stroke-width="4.0"/>
	<path d="M -286.99,310.8 L -281.89,317.05" fill="none" stroke="black" stroke-width="4.0"/>
	<path d="M -281.89,317.05 L -285.33,320.02" fill="none" stroke="black" stroke-width="4.0"/>
	<path d="M -285.33,320.02 L -280.7,319.47" fill="none" stroke="black" stroke-width="4.0"/>
	<path d="M -280.7,319.47 L -282.29,324.59" fill="none" stroke="black" stroke-width="4.0"/>
	<path d="M -282.29,324.59 L -272.81,321.66" fill="none" stroke="black" stroke-width="4.0"/>
	<path d="M -210.56999999999996,446.98 L -217.51999999999998,451.37" fill="none" stroke="black" stroke-width="4.0"/>
	<path d="M -217.51999999999998,451.37 L -213.50999999999996,452.66" fill="none" stroke="black" stroke-width="4.0"/>
	<path d="M -213.50999999999996,452.66 L -215.50999999999996,454.95" fill="none" stroke="black" stroke-width="4.0"/>
	<path d="M -215.50999999999996,454.95 L -212.59999999999997,454.56" fill="none" stroke="black" stroke-width="4.0"/>
	<path d="M -212.59999999999997,454.56 L -212.00999999999996,460.39" fill="none" stroke="black" stroke-width="4.0"/>
	<path d="M -212.00999999999996,460.39 L -209.44999999999996,454.74" fill="none" stroke="black" stroke-width="4.0"/>
	<path d="M -209.44999999999996,454.74 L -206.22999999999996,456.08" fill="none" stroke="black" stroke-width="4.0"/>
	<path d="M -206.22999999999996,456.08 L -208.19999999999996,453.08" fill="none" stroke="black" stroke-width="4.0"/>
	<path d="M -208.19999999999996,453.08 L -204.12999999999997,452.42" fill="none" stroke="black" stroke-width="4.0"/>
	<path d="M -204.12999999999997,452.42 L -209.39999999999998,446.9" fill="none" stroke="black" stroke-width="4.0"/>
	<path d="M -211.16999999999996,439.25 L -205.44999999999996,433.36" fill="none" stroke="black" stroke-width="4.0"/>
	<path d="M -205.44999999999996,433.36 L -205.00999999999996,437.55" fill="none" stroke="black" stroke-width="4.0"/>
	<path d="M -205.00999999999996,437.55 L -202.35999999999999,436.06" fill="none" stroke="black" stroke-width="4.0"/>
	<path d="M -202.35999999999999,436.06 L -203.33999999999997,438.83" fill="none" stroke="black" stroke-width="4.0"/>
	<path d="M -203.33999999999997,438.83 L -197.75999999999996,440.61" fill="none" stroke="black" stroke-width="4.0"/>
	<path d="M -197.75999999999996,440.61 L -203.81999999999996,441.94" fill="none" stroke="black" stroke-width="4.0"/>
	<path d="M -203.81999999999996,441.94 L -203.15999999999997,445.38" fill="none" stroke="black" stroke-width="4.0"/>
	<path d="M -203.15999999999997,445.38 L -205.68999999999997,442.83" fill="none" stroke="black" stroke-width="4.0"/>
	<path d="M -205.68999999999997,442.83 L -207.17999999999998,446.68" fill="none" stroke="black" stroke-width="4.0"/>
	<path d="M -207.17999999999998,446.68 L -211.48999999999998,440.38" fill="none" stroke="black" stroke-width="4.0"/>
	<path d="M -201.94999999999996,456.52 L -206.62999999999997,460.53" fill="none" stroke="black" stroke-width="4.0"/>
	<path d="M -206.62999999999997,460.53 L -203.51999999999998,461.05" fill="none" stroke="black" stroke-width="4.0"/>
	<path d="M -203.51999999999998,461.05 L -204.74999999999997,462.97" fill="none" stroke="black" stroke-width="4.0"/>
	<path d="M -204.74999999999997,462.97 L -202.63999999999996,462.36" fill="none" stroke="black" stroke-width="4.0"/>
	<path d="M -202.63999999999996,462.36 L -201.56999999999996,466.63" fill="none" stroke="black" stroke-width="4.0"/>
	<path d="M -201.56999999999996,466.63 L -200.27999999999997,462.15" fill="none" stroke="black" stroke-width="4.0"/>
	<path d="M -200.27999999999997,462.15 L -197.74999999999997,462.81" fill="none" stroke="black" stroke-width="4.0"/>
	<path d="M -197.74999999999997,462.81 L -199.52999999999997,460.79" fill="none" stroke="black" stroke-width="4.0"/>
	<path d="M -199.52999999999997,460.79 L -196.57999999999998,459.86" fill="none" stroke="black" stroke-width="4.0"/>
	<path d="M -196.57999999999998,459.86 L -201.08999999999997,456.33" fill="none" stroke="black" stroke-width="4.0"/>
	<path d="M -194.92999999999998,457.48 L -190.29999999999998,453.41" fill="none" stroke="black" stroke-width="4.0"/>
	<path d="M -190.29999999999998,453.41 L -190.21999999999997,456.57" fill="none" stroke="black" stroke-width="4.0"/>
	<path d="M -190.21999999999997,456.57 L -188.14999999999998,455.62" fill="none" stroke="black" stroke-width="4.0"/>
	<path d="M -188.14999999999998,455.62 L -189.04999999999998,457.63" fill="none" stroke="black" stroke-width="4.0"/>
	<path d="M -189.04999999999998,457.63 L -184.97999999999996,459.29" fill="none" stroke="black" stroke-width="4.0"/>
	<path d="M -184.97999999999996,459.29 L -189.58999999999997,459.93" fill="none" stroke="black" stroke-width="4.0"/>
	<path d="M -189.58999999999997,459.93 L -189.29999999999998,462.53" fill="none" stroke="black" stroke-width="4.0"/>
	<path d="M -189.29999999999998,462.53 L -191.03999999999996,460.48" fill="none" stroke="black" stroke-width="4.0"/>
	<path d="M -191.03999999999996,460.48 L -192.38999999999996,463.27" fill="none" stroke="black" stroke-width="4.0"/>
	<path d="M -192.38999999999996,463.27 L -195.22999999999996,458.3" fill="none" stroke="black" stroke-width="4.0"/>
	<path d="M -195.33999999999997,463.41 L -189.90999999999997,466.31" fill="none" stroke="black" stroke-width="4.0"/>
	<path d="M -189.90999999999997,466.31 L -192.82999999999998,467.5" fill="none" stroke="black" stroke-width="4.0"/>
	<path d="M -192.82999999999998,467.5 L -191.20999999999998,469.1" fill="none" stroke="black" stroke-width="4.0"/>
	<path d="M -191.20999999999998,469.1 L -193.40999999999997,468.97" fill="none" stroke="black" stroke-width="4.0"/>
	<path d="M -193.40999999999997,468.97 L -193.52999999999997,473.36" fill="none" stroke="black" stroke-width="4.0"/>
	<path d="M -193.52999999999997,473.36 L -195.74999999999997,469.27" fill="none" stroke="black" stroke-width="4.0"/>
	<path d="M -195.74999999999997,469.27 L -198.08999999999997,470.46" fill="none" stroke="black" stroke-width="4.0"/>
	<path d="M -198.08999999999997,470.46 L -196.77999999999997,468.11" fill="none" stroke="black" stroke-width="4.0"/>
	<path d="M -196.77999999999997,468.11 L -199.85999999999999,467.83" fill="none" stroke="black" stroke-width="4.0"/>
	<path d="M -199.85999999999999,467.83 L -196.21999999999997,463.42" fill="none" stroke="black" stroke-width="4.0"/>
	<path d="M -184.97999999999996,465.43 L -189.66999999999996,469.44" fill="none" stroke="black" stroke-width="4.0"/>
	<path d="M -189.66999999999996,469.44 L -186.54999999999998,469.97" fill="none" stroke="black" stroke-width="4.0"/>
	<path d="M -186.54999999999998,469.97 L -187.78999999999996,471.88" fill="none" stroke="black" stroke-width="4.0"/>
	<path d="M -187.78999999999996,471.88 L -185.66999999999996,471.27" fill="none" stroke="black" stroke-width="4.0"/>
	<path d="M -185.66999999999996,471.27 L -184.59999999999997,475.54" fill="none" stroke="black" stroke-width="4.0"/>
	<path d="M -184.59999999999997,475.54 L -183.31999999999996,471.07" fill="none" stroke="black" stroke-width="4.0"/>
	<path d="M -183.31999999999996,471.07 L -180.77999999999997,471.72" fill="none" stroke="black" stroke-width="4.0"/>
	<path d="M -180.77999999999997,471.72 L -182.55999999999997,469.71" fill="none" stroke="black" stroke-width="4.0"/>
	<path d="M -182.55999999999997,469.71 L -179.61999999999998,468.77" fill="none" stroke="black" stroke-width="4.0"/>
	<path d="M -179.61999999999998,468.77 L -184.11999999999998,465.25" fill="none" stroke="black" stroke-width="4.0"/>
	<path d="M -177.06999999999996,467.0 L -175.36999999999998,471.63" fill="none" stroke="black" stroke-width="4.0"/>
	<path d="M -175.36999999999998,471.63 L -174.10999999999999,469.44" fill="none" stroke="black" stroke-width="4.0"/>
	<path d="M -174.10999999999999,469.44 L -173.01999999999998,470.9" fill="none" stroke="black" stroke-width="4.0"/>
	<path d="M -173.01999999999998,470.9 L -172.87999999999997,469.15" fill="none" stroke="black" stroke-width="4.0"/>
	<path d="M -172.87999999999997,469.15 L -169.37999999999997,469.53" fill="none" stroke="black" stroke-width="4.0"/>
	<path d="M -169.37999999999997,469.53 L -172.37999999999997,467.32" fill="none" stroke="black" stroke-width="4.0"/>
	<path d="M -172.37999999999997,467.32 L -171.18999999999997,465.6" fill="none" stroke="black" stroke-width="4.0"/>
	<path d="M -171.18999999999997,465.6 L -173.18999999999997,466.38" fill="none" stroke="black" stroke-width="4.0"/>
	<path d="M -173.18999999999997,466.38 L -173.06999999999996,463.91" fill="none" stroke="black" stroke-width="4.0"/>
	<path d="M -173.06999999999996,463.91 L -176.96999999999997,466.31" fill="none" stroke="black" stroke-width="4.0"/>
	<path d="M -167.76999999999998,470.47 L -166.06999999999996,475.09" fill="none" stroke="black" stroke-width="4.0"/>
	<path d="M -166.06999999999996,475.09 L -164.80999999999997,472.91" fill="none" stroke="black" stroke-width="4.0"/>
	<path d="M -164.80999999999997,472.91 L -163.71999999999997,474.37" fill="none" stroke="black" stroke-width="4.0"/>
	<path d="M -163.71999999999997,474.37 L -163.57999999999998,472.61" fill="none" stroke="black" stroke-width="4.0"/>
	<path d="M -163.57999999999998,472.61 L -160.08999999999997,472.99" fill="none" stroke="black" stroke-width="4.0"/>
	<path d="M -160.08999999999997,472.99 L -163.07999999999998,470.79" fill="none" stroke="black" stroke-width="4.0"/>
	<path d="M -163.07999999999998,470.79 L -161.88999999999996,469.06" fill="none" stroke="black" stroke-width="4.0"/>
	<path d="M -161.88999999999996,469.06 L -163.88999999999996,469.84" fill="none" stroke="black" stroke-width="4.0"/>
	<path d="M -163.88999999999996,469.84 L -163.77999999999997,467.37" fill="none" stroke="black" stroke-width="4.0"/>
	<path d="M -163.77999999999997,467.37 L -167.66999999999996,469.77" fill="none" stroke="black" stroke-width="4.0"/>
	<path d="M -175.08999999999997,315.41 L -170.34999999999997,314.03" fill="none" stroke="black" stroke-width="4.0"/>
	<path d="M -170.34999999999997,314.03 L -172.44999999999996,312.62" fill="none" stroke="black" stroke-width="4.0"/>
	<path d="M -172.44999999999996,312.62 L -170.91999999999996,311.63" fill="none" stroke="black" stroke-width="4.0"/>
	<path d="M -170.91999999999996,311.63 L -172.65999999999997,311.38" fill="none" stroke="black" stroke-width="4.0"/>
	<path d="M -172.65999999999997,311.38 L -172.03999999999996,307.92" fill="none" stroke="black" stroke-width="4.0"/>
	<path d="M -172.03999999999996,307.92 L -174.44999999999996,310.76" fill="none" stroke="black" stroke-width="4.0"/>
	<path d="M -174.44999999999996,310.76 L -176.08999999999997,309.45" fill="none" stroke="black" stroke-width="4.0"/>
	<path d="M -176.08999999999997,309.45 L -175.44999999999996,311.5" fill="none" stroke="black" stroke-width="4.0"/>
	<path d="M -175.44999999999996,311.5 L -177.89999999999998,311.21" fill="none" stroke="black" stroke-width="4.0"/>
	<path d="M -177.89999999999998,311.21 L -175.76999999999998,315.27" fill="none" stroke="black" stroke-width="4.0"/>
	<path d="M -170.99999999999997,306.37 L -166.26999999999998,304.99" fill="none" stroke="black" stroke-width="4.0"/>
	<path d="M -166.26999999999998,304.99 L -168.35999999999999,303.58" fill="none" stroke="black" stroke-width="4.0"/>
	<path d="M -168.35999999999999,303.58 L -166.82999999999998,302.59" fill="none" stroke="black" stroke-width="4.0"/>
	<path d="M -166.82999999999998,302.59 L -168.57999999999998,302.34" fill="none" stroke="black" stroke-width="4.0"/>
	<path d="M -168.57999999999998,302.34 L -167.94999999999996,298.88" fill="none" stroke="black" stroke-width="4.0"/>
	<path d="M -167.94999999999996,298.88 L -170.35999999999999,301.72" fill="none" stroke="black" stroke-width="4.0"/>
	<path d="M -170.35999999999999,301.72 L -171.99999999999997,300.41" fill="none" stroke="black" stroke-width="4.0"/>
	<path d="M -171.99999999999997,300.41 L -171.35999999999999,302.46" fill="none" stroke="black" stroke-width="4.0"/>
	<path d="M -171.35999999999999,302.46 L -173.80999999999997,302.17" fill="none" stroke="black" stroke-width="4.0"/>
	<path d="M -173.80999999999997,302.17 L -171.68999999999997,306.23" fill="none" stroke="black" stroke-width="4.0"/>
	<path d="M -195.65999999999997,366.95 A 117.573,117.573 0.0 0,0 -211.52999999999997,333.31" fill="none" stroke="black" stroke-width="4.0"/>
	<path d="M -209.76999999999998,353.7 L -199.56999999999996,350.52" fill="none" stroke="black" stroke-width="4.0"/>
	<path d="M -199.56999999999996,350.52 L -201.66999999999996,355.57" fill="none" stroke="black" stroke-width="4.0"/>
	<path d="M -201.66999999999996,355.57 L -197.71999999999997,355.53" fill="none" stroke="black" stroke-width="4.0"/>
	<path d="M -197.71999999999997,355.53 L -200.55999999999997,358.07" fill="none" stroke="black" stroke-width="4.0"/>
	<path d="M -200.55999999999997,358.07 L -195.28999999999996,363.58" fill="none" stroke="black" stroke-width="4.0"/>
	<path d="M -195.28999999999996,363.58 L -203.03999999999996,361.34" fill="none" stroke="black" stroke-width="4.0"/>
	<path d="M -203.03999999999996,361.34 L -204.41999999999996,365.66" fill="none" stroke="black" stroke-width="4.0"/>
	<path d="M -204.41999999999996,365.66 L -205.72999999999996,361.19" fill="none" stroke="black" stroke-width="4.0"/>
	<path d="M -205.72999999999996,361.19 L -209.81999999999996,364.65" fill="none" stroke="black" stroke-width="4.0"/>
	<path d="M -209.81999999999996,364.65 L -210.83999999999997,354.79" fill="none" stroke="black" stroke-width="4.0"/>
	<path d="M -197.33999999999997,347.47 L -193.42999999999998,354.7" fill="none" stroke="black" stroke-width="4.0"/>
	<path d="M -193.42999999999998,354.7 L -191.86999999999998,350.8" fill="none" stroke="black" stroke-width="4.0"/>
	<path d="M -191.86999999999998,350.8 L -189.71999999999997,352.94" fill="none" stroke="black" stroke-width="4.0"/>
	<path d="M -189.71999999999997,352.94 L -189.91999999999996,350.01" fill="none" stroke="black" stroke-width="4.0"/>
	<path d="M -189.91999999999996,350.01 L -184.05999999999997,349.82" fill="none" stroke="black" stroke-width="4.0"/>
	<path d="M -184.05999999999997,349.82 L -189.52999999999997,346.89" fill="none" stroke="black" stroke-width="4.0"/>
	<path d="M -189.52999999999997,346.89 L -187.96999999999997,343.76" fill="none" stroke="black" stroke-width="4.0"/>
	<path d="M -187.96999999999997,343.76 L -191.08999999999997,345.52" fill="none" stroke="black" stroke-width="4.0"/>
	<path d="M -191.08999999999997,345.52 L -191.47999999999996,341.42" fill="none" stroke="black" stroke-width="4.0"/>
	<path d="M -191.47999999999996,341.42 L -197.33999999999997,346.3" fill="none" stroke="black" stroke-width="4.0"/>
	<path d="M -194.24999999999997,339.3 L -198.38999999999996,334.74" fill="none" stroke="black" stroke-width="4.0"/>
	<path d="M -198.38999999999996,334.74 L -195.23999999999998,334.61" fill="none" stroke="black" stroke-width="4.0"/>
	<path d="M -195.23999999999998,334.61 L -196.21999999999997,332.55" fill="none" stroke="black" stroke-width="4.0"/>
	<path d="M -196.21999999999997,332.55 L -194.18999999999997,333.42" fill="none" stroke="black" stroke-width="4.0"/>
	<path d="M -194.18999999999997,333.42 L -192.58999999999997,329.33" fill="none" stroke="black" stroke-width="4.0"/>
	<path d="M -192.58999999999997,329.33 L -191.88999999999996,333.93" fill="none" stroke="black" stroke-width="4.0"/>
	<path d="M -191.88999999999996,333.93 L -189.28999999999996,333.6" fill="none" stroke="black" stroke-width="4.0"/>
	<path d="M -189.28999999999996,333.6 L -191.30999999999997,335.37" fill="none" stroke="black" stroke-width="4.0"/>
	<path d="M -191.30999999999997,335.37 L -188.50999999999996,336.68" fill="none" stroke="black" stroke-width="4.0"/>
	<path d="M -188.50999999999996,336.68 L -193.42999999999998,339.6" fill="none" stroke="black" stroke-width="4.0"/>
	<path d="M -187.23999999999998,339.52 L -183.55999999999997,344.46" fill="none" stroke="black" stroke-width="4.0"/>
	<path d="M -183.55999999999997,344.46 L -182.81999999999996,341.4" fill="none" stroke="black" stroke-width="4.0"/>
	<path d="M -182.81999999999996,341.4 L -180.98999999999998,342.76" fill="none" stroke="black" stroke-width="4.0"/>
	<path d="M -180.98999999999998,342.76 L -181.45999999999998,340.61" fill="none" stroke="black" stroke-width="4.0"/>
	<path d="M -181.45999999999998,340.61 L -177.12999999999997,339.83" fill="none" stroke="black" stroke-width="4.0"/>
	<path d="M -177.12999999999997,339.83 L -181.49999999999997,338.24" fill="none" stroke="black" stroke-width="4.0"/>
	<path d="M -181.49999999999997,338.24 L -180.67999999999998,335.75" fill="none" stroke="black" stroke-width="4.0"/>
	<path d="M -180.67999999999998,335.75 L -182.80999999999997,337.4" fill="none" stroke="black" stroke-width="4.0"/>
	<path d="M -182.80999999999997,337.4 L -183.53999999999996,334.39" fill="none" stroke="black" stroke-width="4.0"/>
	<path d="M -183.53999999999996,334.39 L -187.35999999999999,338.65" fill="none" stroke="black" stroke-width="4.0"/>
	<path d="M -177.18999999999997,323.2 L -173.50999999999996,328.15" fill="none" stroke="black" stroke-width="4.0"/>
	<path d="M -173.50999999999996,328.15 L -172.76999999999998,325.08" fill="none" stroke="black" stroke-width="4.0"/>
	<path d="M -172.76999999999998,325.08 L -170.94999999999996,326.44" fill="none" stroke="black" stroke-width="4.0"/>
	<path d="M -170.94999999999996,326.44 L -171.40999999999997,324.29" fill="none" stroke="black" stroke-width="4.0"/>
	<path d="M -171.40999999999997,324.29 L -167.07999999999998,323.51" fill="none" stroke="black" stroke-width="4.0"/>
	<path d="M -167.07999999999998,323.51 L -171.45999999999998,321.92" fill="none" stroke="black" stroke-width="4.0"/>
	<path d="M -171.45999999999998,321.92 L -170.62999999999997,319.44" fill="none" stroke="black" stroke-width="4.0"/>
	<path d="M -170.62999999999997,319.44 L -172.75999999999996,321.08" fill="none" stroke="black" stroke-width="4.0"/>
	<path d="M -172.75999999999996,321.08 L -173.49999999999997,318.07" fill="none" stroke="black" stroke-width="4.0"/>
	<path d="M -173.49999999999997,318.07 L -177.31999999999996,322.33" fill="none" stroke="black" stroke-width="4.0"/>
	<path d="M -216.81999999999996,354.27 L -226.13999999999996,349.05" fill="none" stroke="black" stroke-width="4.0"/>
	<path d="M -226.13999999999996,349.05 L -221.02999999999997,347.1" fill="none" stroke="black" stroke-width="4.0"/>
	<path d="M -221.02999999999997,347.1 L -223.78999999999996,344.27" fill="none" stroke="black" stroke-width="4.0"/>
	<path d="M -223.78999999999996,344.27 L -219.97999999999996,344.58" fill="none" stroke="black" stroke-width="4.0"/>
	<path d="M -219.97999999999996,344.58 L -219.60999999999999,336.96" fill="none" stroke="black" stroke-width="4.0"/>
	<path d="M -219.60999999999999,336.96 L -215.90999999999997,344.13" fill="none" stroke="black" stroke-width="4.0"/>
	<path d="M -215.90999999999997,344.13 L -211.81999999999996,342.16" fill="none" stroke="black" stroke-width="4.0"/>
	<path d="M -211.81999999999996,342.16 L -214.15999999999997,346.19" fill="none" stroke="black" stroke-width="4.0"/>
	<path d="M -214.15999999999997,346.19 L -208.83999999999997,346.77" fill="none" stroke="black" stroke-width="4.0"/>
	<path d="M -208.83999999999997,346.77 L -215.29999999999998,354.29" fill="none" stroke="black" stroke-width="4.0"/>
	<path d="M -215.88999999999996,360.15 L -223.05999999999997,368.06" fill="none" stroke="black" stroke-width="4.0"/>
	<path d="M -223.05999999999997,368.06 L -223.81999999999996,362.64" fill="none" stroke="black" stroke-width="4.0"/>
	<path d="M -223.81999999999996,362.64 L -227.19999999999996,364.69" fill="none" stroke="black" stroke-width="4.0"/>
	<path d="M -227.19999999999996,364.69 L -226.03999999999996,361.05" fill="none" stroke="black" stroke-width="4.0"/>
	<path d="M -226.03999999999996,361.05 L -233.37999999999997,358.99" fill="none" stroke="black" stroke-width="4.0"/>
	<path d="M -233.37999999999997,358.99 L -225.56999999999996,356.98" fill="none" stroke="black" stroke-width="4.0"/>
	<path d="M -225.56999999999996,356.98 L -226.56999999999996,352.55" fill="none" stroke="black" stroke-width="4.0"/>
	<path d="M -226.56999999999996,352.55 L -223.16999999999996,355.74" fill="none" stroke="black" stroke-width="4.0"/>
	<path d="M -223.16999999999996,355.74 L -221.39999999999998,350.68" fill="none" stroke="black" stroke-width="4.0"/>
	<path d="M -221.39999999999998,350.68 L -215.51999999999998,358.67" fill="none" stroke="black" stroke-width="4.0"/>
	<path d="M -222.11999999999998,377.29 L -229.28999999999996,385.2" fill="none" stroke="black" stroke-width="4.0"/>
	<path d="M -229.28999999999996,385.2 L -230.04999999999998,379.79" fill="none" stroke="black" stroke-width="4.0"/>
	<path d="M -230.04999999999998,379.79 L -233.42999999999998,381.83" fill="none" stroke="black" stroke-width="4.0"/>
	<path d="M -233.42999999999998,381.83 L -232.26999999999998,378.19" fill="none" stroke="black" stroke-width="4.0"/>
	<path d="M -232.26999999999998,378.19 L -239.60999999999999,376.13" fill="none" stroke="black" stroke-width="4.0"/>
	<path d="M -239.60999999999999,376.13 L -231.79999999999998,374.13" fill="none" stroke="black" stroke-width="4.0"/>
	<path d="M -231.79999999999998,374.13 L -232.79999999999998,369.69" fill="none" stroke="black" stroke-width="4.0"/>
	<path d="M -232.79999999999998,369.69 L -229.39999999999998,372.88" fill="none" stroke="black" stroke-width="4.0"/>
	<path d="M -229.39999999999998,372.88 L -227.62999999999997,367.83" fill="none" stroke="black" stroke-width="4.0"/>
	<path d="M -227.62999999999997,367.83 L -221.74999999999997,375.81" fill="none" stroke="black" stroke-width="4.0"/>
	<path d="M -213.87999999999997,491.58 A 126.294,126.294 0.0 0,0 -182.16999999999996,429.54" fill="none" stroke="black" stroke-width="4.0"/>
	<path d="M -203.89999999999998,331.14 A 126.294,126.294 0.0 0,0 -229.80999999999997,304.68" fill="none" stroke="black" stroke-width="4.0"/>
	<path d="M -181.29999999999998,386.04 A 126.294,126.294 0.0 0,0 -200.53999999999996,336.0" fill="none" stroke="black" stroke-width="4.0"/>
	<path d="M -180.04999999999998,412.84 A 126.294,126.294 0.0 0,0 -180.24999999999997,394.89" fill="none" stroke="black" stroke-width="4.0"/>
	<path d="M -188.57999999999998,408.26 A 117.573,117.573 0.0 0,0 -189.37999999999997,391.32" fill="none" stroke="black" stroke-width="4.0"/>
	<path d="M -215.85999999999999,329.96 A 117.573,117.573 0.0 0,0 -232.04999999999998,314.01" fill="none" stroke="black" stroke-width="4.0"/>
	<path d="M -245.14999999999998,359.3 L -234.94999999999996,356.12" fill="none" stroke="black" stroke-width="4.0"/>
	<path d="M -234.94999999999996,356.12 L -237.03999999999996,361.17" fill="none" stroke="black" stroke-width="4.0"/>
	<path d="M -237.03999999999996,361.17 L -233.08999999999997,361.12" fill="none" stroke="black" stroke-width="4.0"/>
	<path d="M -233.08999999999997,361.12 L -235.93999999999997,363.67" fill="none" stroke="black" stroke-width="4.0"/>
	<path d="M -235.93999999999997,363.67 L -230.65999999999997,369.17" fill="none" stroke="black" stroke-width="4.0"/>
	<path d="M -230.65999999999997,369.17 L -238.40999999999997,366.93" fill="none" stroke="black" stroke-width="4.0"/>
	<path d="M -238.40999999999997,366.93 L -239.79999999999998,371.26" fill="none" stroke="black" stroke-width="4.0"/>
	<path d="M -239.79999999999998,371.26 L -241.10999999999999,366.79" fill="none" stroke="black" stroke-width="4.0"/>
	<path d="M -241.10999999999999,366.79 L -245.19999999999996,370.25" fill="none" stroke="black" stroke-width="4.0"/>
	<path d="M -245.19999999999996,370.25 L -246.20999999999998,360.39" fill="none" stroke="black" stroke-width="4.0"/>
	<path d="M -241.77999999999997,377.69 L -248.95999999999998,385.6" fill="none" stroke="black" stroke-width="4.0"/>
	<path d="M -248.95999999999998,385.6 L -249.71999999999997,380.19" fill="none" stroke="black" stroke-width="4.0"/>
	<path d="M -249.71999999999997,380.19 L -253.08999999999997,382.23" fill="none" stroke="black" stroke-width="4.0"/>
	<path d="M -253.08999999999997,382.23 L -251.93999999999997,378.59" fill="none" stroke="black" stroke-width="4.0"/>
	<path d="M -251.93999999999997,378.59 L -259.27,376.53" fill="none" stroke="black" stroke-width="4.0"/>
	<path d="M -259.27,376.53 L -251.45999999999998,374.53" fill="none" stroke="black" stroke-width="4.0"/>
	<path d="M -251.45999999999998,374.53 L -252.45999999999998,370.1" fill="none" stroke="black" stroke-width="4.0"/>
	<path d="M -252.45999999999998,370.1 L -249.05999999999997,373.29" fill="none" stroke="black" stroke-width="4.0"/>
	<path d="M -249.05999999999997,373.29 L -247.29999999999998,368.23" fill="none" stroke="black" stroke-width="4.0"/>
	<path d="M -247.29999999999998,368.23 L -241.41999999999996,376.21" fill="none" stroke="black" stroke-width="4.0"/>
	<path d="M -224.79999999999998,435.62 L -219.06999999999996,429.73" fill="none" stroke="black" stroke-width="4.0"/>
	<path d="M -219.06999999999996,429.73 L -218.62999999999997,433.91" fill="none" stroke="black" stroke-width="4.0"/>
	<path d="M -218.62999999999997,433.91 L -215.97999999999996,432.43" fill="none" stroke="black" stroke-width="4.0"/>
	<path d="M -215.97999999999996,432.43 L -216.96999999999997,435.2" fill="none" stroke="black" stroke-width="4.0"/>
	<path d="M -216.96999999999997,435.2 L -211.37999999999997,436.98" fill="none" stroke="black" stroke-width="4.0"/>
	<path d="M -211.37999999999997,436.98 L -217.43999999999997,438.31" fill="none" stroke="black" stroke-width="4.0"/>
	<path d="M -217.43999999999997,438.31 L -216.78999999999996,441.75" fill="none" stroke="black" stroke-width="4.0"/>
	<path d="M -216.78999999999996,441.75 L -219.31999999999996,439.2" fill="none" stroke="black" stroke-width="4.0"/>
	<path d="M -219.31999999999996,439.2 L -220.80999999999997,443.05" fill="none" stroke="black" stroke-width="4.0"/>
	<path d="M -220.80999999999997,443.05 L -225.11999999999998,436.75" fill="none" stroke="black" stroke-width="4.0"/>
	<path d="M -275.81,305.72 L -268.64,313.64" fill="none" stroke="black" stroke-width="4.0"/>
	<path d="M -268.64,313.64 L -267.87,308.23" fill="none" stroke="black" stroke-width="4.0"/>
	<path d="M -267.87,308.23 L -264.5,310.28" fill="none" stroke="black" stroke-width="4.0"/>
	<path d="M -264.5,310.28 L -265.65,306.64" fill="none" stroke="black" stroke-width="4.0"/>
	<path d="M -265.65,306.64 L -258.31,304.58" fill="none" stroke="black" stroke-width="4.0"/>
	<path d="M -258.31,304.58 L -266.12,302.57" fill="none" stroke="black" stroke-width="4.0"/>
	<path d="M -266.12,302.57 L -265.12,298.14" fill="none" stroke="black" stroke-width="4.0"/>
	<path d="M -265.12,298.14 L -268.52,301.32" fill="none" stroke="black" stroke-width="4.0"/>
	<path d="M -268.52,301.32 L -270.28,296.26" fill="none" stroke="black" stroke-width="4.0"/>
	<path d="M -270.28,296.26 L -276.17,304.24" fill="none" stroke="black" stroke-width="4.0"/>
	<path d="M -255.56999999999996,427.65 L -232.32999999999998,447.33" fill="none" stroke="black" stroke-width="4.0"/>
	<path d="M -232.32999999999998,447.33 L -217.32999999999998,483.71" fill="none" stroke="black" stroke-width="4.0"/>
	<path d="M -217.32999999999998,483.71 L -222.31999999999996,444.07" fill="none" stroke="black" stroke-width="4.0"/>
	<path d="M -222.31999999999996,444.07 L -230.93999999999997,428.78" fill="none" stroke="black" stroke-width="4.0"/>
	<path d="M -308.76,446.44 L -313.09,451.62" fill="none" stroke="black" stroke-width="4.0"/>
	<path d="M -313.09,451.62 L -331.48999999999995,480.75" fill="none" stroke="black" stroke-width="4.0"/>
	<path d="M -331.48999999999995,480.75 L -323.53,448.5" fill="none" stroke="black" stroke-width="4.0"/>
	<path d="M -323.53,448.5 L -323.29,417.9" fill="none" stroke="black" stroke-width="4.0"/>
	<path d="M -331.9,398.14 L -385.2,394.06" fill="none" stroke="black" stroke-width="4.0"/>
	<path d="M -385.2,394.06 L -415.8,405.3" fill="none" stroke="black" stroke-width="4.0"/>
	<path d="M -415.8,405.3 L -384.38,402.67" fill="none" stroke="black" stroke-width="4.0"/>
	<path d="M -384.38,402.67 L -361.09,405.63" fill="none" stroke="black" stroke-width="4.0"/>
	<path d="M -379.9,367.2 L -410.32,358.01" fill="none" stroke="black" stroke-width="4.0"/>
	<path d="M -410.32,358.01 L -446.38,365.11" fill="none" stroke="black" stroke-width="4.0"/>
	<path d="M -446.38,365.11 L -407.78,371.83" fill="none" stroke="black" stroke-width="4.0"/>
	<path d="M -407.78,371.83 L -364.19,392.47" fill="none" stroke="black" stroke-width="4.0"/>
	<path d="M -364.19,392.47 L -331.46,398.22" fill="none" stroke="black" stroke-width="4.0"/>
	<path d="M -418.06,290.85 L -399.26,328.91" fill="none" stroke="black" stroke-width="4.0"/>
	<path d="M -399.26,328.91 L -346.1,369.87" fill="none" stroke="black" stroke-width="4.0"/>
	<path d="M -277.14,347.33 L -249.33999999999997,323.11" fill="none" stroke="black" stroke-width="4.0"/>
	<path d="M -249.33999999999997,323.11 L -231.73999999999998,292.5" fill="none" stroke="black" stroke-width="4.0"/>
	<path d="M -300.64,391.49 L -279.5,372.96" fill="none" stroke="black" stroke-width="4.0"/>
	<path d="M -279.5,372.96 L -246.59999999999997,351.93" fill="none" stroke="black" stroke-width="4.0"/>
	<path d="M -273.62,406.76 L -222.74999999999997,409.59" fill="none" stroke="black" stroke-width="4.0"/>
	<path d="M -222.74999999999997,409.59 L -181.09999999999997,424.72" fill="none" stroke="black" stroke-width="4.0"/>
	<path d="M -181.09999999999997,424.72 L -162.71999999999997,424.72 L -181.09999999999997,424.72" fill="none" stroke="black" stroke-width="4.0"/>
	<path d="M -258.69,423.78 L -238.15999999999997,449.23" fill="none" stroke="black" stroke-width="4.0"/>
	<path d="M -238.15999999999997,449.23 L -226.48999999999998,479.54" fill="none" stroke="black" stroke-width="4.0"/>
	<path d="M -226.48999999999998,479.54 L -198.65999999999997,509.02" fill="none" stroke="black" stroke-width="4.0"/>
	<path d="M -198.65999999999997,509.02 L -231.28999999999996,493.51" fill="none" stroke="black" stroke-width="4.0"/>
	<path d="M -231.28999999999996,493.51 L -250.97999999999996,474.06" fill="none" stroke="black" stroke-width="4.0"/>
	<path d="M -250.97999999999996,474.06 L -275.64,433.16" fill="none" stroke="black" stroke-width="4.0"/>
	<path d="M -275.64,433.16 L -284.19,416.03" fill="none" stroke="black" stroke-width="4.0"/>
	<path d="M -299.47,437.4 L -283.49999999999994,479.45" fill="none" stroke="black" stroke-width="4.0"/>
	<path d="M -283.49999999999994,479.45 L -270.23999999999995,523.62" fill="none" stroke="black" stroke-width="4.0"/>
	<path d="M -270.23999999999995,523.62 L -265.09999999999997,541.35" fill="none" stroke="black" stroke-width="4.0"/>
	<path d="M -334.5,424.78 L -349.78,446.16" fill="none" stroke="black" stroke-width="4.0"/>
	<path d="M -349.78,446.16 L -378.5899999999999,468.1" fill="none" stroke="black" stroke-width="4.0"/>
	<path d="M -335.31,410.58 L -371.5,422.15" fill="none" stroke="black" stroke-width="4.0"/>
	<path d="M -371.5,422.15 L -404.55,438.7" fill="none" stroke="black" stroke-width="4.0"/>
	<path d="M -404.55,438.7 L -430.63,458.52" fill="none" stroke="black" stroke-width="4.0"/>
	<path d="M -198.65999999999997,509.02 L -237.07999999999998,497.01" fill="none" stroke="black" stroke-width="4.0"/>
	<path d="M -237.07999999999998,497.01 L -260.7699999999999,474.78" fill="none" stroke="black" stroke-width="4.0"/>
	<path d="M -260.7699999999999,474.78 L -298.08,420.11" fill="none" stroke="black" stroke-width="4.0"/>
	<path d="M -269.83,351.36 L -240.49999999999997,326.45" fill="none" stroke="black" stroke-width="4.0"/>
	<path d="M -240.49999999999997,326.45 L -213.97999999999996,266.38" fill="none" stroke="black" stroke-width="4.0"/>
	<path d="M -213.97999999999996,266.38 L -238.45999999999998,291.86" fill="none" stroke="black" stroke-width="4.0"/>
	<path d="M -238.45999999999998,291.86 L -261.73,307.69" fill="none" stroke="black" stroke-width="4.0"/>
	<path d="M -261.73,307.69 L -289.85,354.24" fill="none" stroke="black" stroke-width="4.0"/>
	<path d="M -306.02,362.93 L -315.25,313.33" fill="none" stroke="black" stroke-width="4.0"/>
	<path d="M -315.25,313.33 L -337.1,268.43" fill="none" stroke="black" stroke-width="4.0"/>
	<path d="M -337.1,268.43 L -368.29,254.11000000000004" fill="none" stroke="black" stroke-width="4.0"/>
	<path d="M -368.29,254.11000000000004 L -347.76,279.56" fill="none" stroke="black" stroke-width="4.0"/>
	<path d="M -347.76,279.56 L -330.85,325.74" fill="none" stroke="black" stroke-width="4.0"/>
	<path d="M -330.85,325.74 L -329.44,360.97" fill="none" stroke="black" stroke-width="4.0"/>
	<path d="M -295.48,370.07 L -281.61,331.11" fill="none" stroke="black" stroke-width="4.0"/>
	<path d="M -281.61,331.11 L -288.99,289.79" fill="none" stroke="black" stroke-width="4.0"/>
	<path d="M -288.99,289.79 L -312.96,242.20000000000002" fill="none" stroke="black" stroke-width="4.0"/>
	<path d="M -312.96,242.20000000000002 L -301.85,291.88" fill="none" stroke="black" stroke-width="4.0"/>
	<path d="M -301.85,291.88 L -305.71,340.94" fill="none" stroke="black" stroke-width="4.0"/>
	<path d="M -305.71,340.94 L -308.47,403.37" fill="none" stroke="black" stroke-width="4.0"/>
	<path d="M -308.47,403.37 L -267.43,379.42" fill="none" stroke="black" stroke-width="4.0"/>
	<path d="M -267.43,379.42 L -230.16999999999996,345.52" fill="none" stroke="black" stroke-width="4.0"/>
	<path d="M -230.16999999999996,345.52 L -178.55999999999997,325.26" fill="none" stroke="black" stroke-width="4.0"/>
	<path d="M -178.55999999999997,325.26 L -232.35999999999999,336.48" fill="none" stroke="black" stroke-width="4.0"/>
	<path d="M -232.35999999999999,336.48 L -282.86,357.16" fill="none" stroke="black" stroke-width="4.0"/>
	<path d="M -282.86,357.16 L -304.7,382.37" fill="none" stroke="black" stroke-width="4.0"/>
	<path d="M -304.7,382.37 L -308.47,403.37" fill="none" stroke="black" stroke-width="4.0"/>
	<path d="M -308.47,403.37 L -263.55,392.26" fill="none" stroke="black" stroke-width="4.0"/>
	<path d="M -263.55,392.26 L -219.81999999999996,395.54" fill="none" stroke="black" stroke-width="4.0"/>
	<path d="M -219.81999999999996,395.54 L -165.42999999999998,418.64" fill="none" stroke="black" stroke-width="4.0"/>
	<path d="M -165.42999999999998,418.64 L -140.75999999999996,420.4" fill="none" stroke="black" stroke-width="4.0"/>
	<path d="M -140.75999999999996,420.4 L -168.60999999999999,430.07" fill="none" stroke="black" stroke-width="4.0"/>
	<path d="M -168.60999999999999,430.07 L -206.45999999999998,429.64" fill="none" stroke="black" stroke-width="4.0"/>
	<path d="M -206.45999999999998,429.64 L -250.43999999999997,423.74" fill="none" stroke="black" stroke-width="4.0"/>
	<path d="M -250.43999999999997,423.74 L -308.47,403.37" fill="none" stroke="black" stroke-width="4.0"/>
	<path d="M -294.56999999999994,483.47 L -298.9599999999999,504.54" fill="none" stroke="black" stroke-width="4.0"/>
	<path d="M -298.9599999999999,504.54 L -318.24999999999994,531.35" fill="none" stroke="black" stroke-width="4.0"/>
	<path d="M -318.24999999999994,531.35 L -329.15999999999997,539.85" fill="none" stroke="black" stroke-width="4.0"/>
	<path d="M -329.15999999999997,539.85 L -322.37999999999994,515.89" fill="none" stroke="black" stroke-width="4.0"/>
	<path d="M -322.37999999999994,515.89 L -312.8299999999999,473.4" fill="none" stroke="black" stroke-width="4.0"/>
	<path d="M -312.8299999999999,473.4 L -308.54,437.68" fill="none" stroke="black" stroke-width="4.0"/>
	<path d="M -308.47,403.37 L -274.93,457.42" fill="none" stroke="black" stroke-width="4.0"/>
	<path d="M -274.93,457.42 L -263.46999999999997,499.66" fill="none" stroke="black" stroke-width="4.0"/>
	<path d="M -263.46999999999997,499.66 L -259.81999999999994,540.82" fill="none" stroke="black" stroke-width="4.0"/>
	<path d="M -259.81999999999994,540.82 L -253.13999999999996,557.88" fill="none" stroke="black" stroke-width="4.0"/>
	<path d="M -253.13999999999996,557.88 L -273.16999999999996,537.67" fill="none" stroke="black" stroke-width="4.0"/>
	<path d="M -273.16999999999996,537.67 L -292.36999999999995,492.51" fill="none" stroke="black" stroke-width="4.0"/>
	<path d="M -292.36999999999995,492.51 L -306.23,453.16" fill="none" stroke="black" stroke-width="4.0"/>
	<path d="M -306.23,453.16 L -309.92,428.4" fill="none" stroke="black" stroke-width="4.0"/>
	<path d="M -309.92,428.4 L -308.47,403.37" fill="none" stroke="black" stroke-width="4.0"/>
	<path d="M -313.94,402.88 L -338.39,451.1" fill="none" stroke="black" stroke-width="4.0"/>
	<path d="M -338.39,451.1 L -392.8299999999999,483.55" fill="none" stroke="black" stroke-width="4.0"/>
	<path d="M -392.8299999999999,483.55 L -370.28,441.05" fill="none" stroke="black" stroke-width="4.0"/>
	<path d="M -308.47,403.37 L -360.17,381.6" fill="none" stroke="black" stroke-width="4.0"/>
	<path d="M -360.17,381.6 L -405.1,348.81" fill="none" stroke="black" stroke-width="4.0"/>
	<path d="M -405.1,348.81 L -423.04,308.55" fill="none" stroke="black" stroke-width="4.0"/>
	<path d="M -423.04,308.55 L -421.6,278.78" fill="none" stroke="black" stroke-width="4.0"/>
	<path d="M -421.6,278.78 L -398.03,311.06" fill="none" stroke="black" stroke-width="4.0"/>
	<path d="M -398.03,311.06 L -345.17,334.85" fill="none" stroke="black" stroke-width="4.0"/>
	<path d="M -345.17,334.85 L -323.98,370.02" fill="none" stroke="black" stroke-width="4.0"/>
	<path d="M -323.98,370.02 L -308.47,403.37" fill="none" stroke="black" stroke-width="4.0"/>
	<path d="M -308.47,403.37 L -345.81,420.01" fill="none" stroke="black" stroke-width="4.0"/>
	<path d="M -345.81,420.01 L -371.72,442.28" fill="none" stroke="black" stroke-width="4.0"/>
	<path d="M -371.72,442.28 L -409.88,463.84" fill="none" stroke="black" stroke-width="4.0"/>
	<path d="M -409.88,463.84 L -451.84999999999997,470.7" fill="none" stroke="black" stroke-width="4.0"/>
	<path d="M -313.94,402.88 L -321.27,402.28" fill="none" stroke="black" stroke-width="4.0"/>
	<path d="M -321.27,402.28 L -328.63,402.06" fill="none" stroke="black" stroke-width="4.0"/>
	<path d="M -328.63,402.06 L -336.0,402.21" fill="none" stroke="black" stroke-width="4.0"/>
	<path d="M -336.0,402.21 L -343.35,402.75" fill="none" stroke="black" stroke-width="4.0"/>
	<path d="M -343.35,402.75 L -350.66,403.66" fill="none" stroke="black" stroke-width="4.0"/>
	<path d="M -350.66,403.66 L -357.92,404.95" fill="none" stroke="black" stroke-width="4.0"/>
	<path d="M -357.92,404.95 L -365.1,406.6" fill="none" stroke="black" stroke-width="4.0"/>
	<path d="M -365.1,406.6 L -372.2,408.62" fill="none" stroke="black" stroke-width="4.0"/>
	<path d="M -372.2,408.62 L -379.18,411.01" fill="none" stroke="black" stroke-width="4.0"/>
	<path d="M -379.18,411.01 L -386.03,413.75" fill="none" stroke="black" stroke-width="4.0"/>
	<path d="M -386.03,413.75 L -392.73,416.83" fill="none" stroke="black" stroke-width="4.0"/>
	<path d="M -392.73,416.83 L -399.26,420.25" fill="none" stroke="black" stroke-width="4.0"/>
	<path d="M -399.26,420.25 L -405.61,424.01" fill="none" stroke="black" stroke-width="4.0"/>
	<path d="M -405.61,424.01 L -411.75,428.08" fill="none" stroke="black" stroke-width="4.0"/>
	<path d="M -411.75,428.08 L -417.68,432.46" fill="none" stroke="black" stroke-width="4.0"/>
	<path d="M -417.68,432.46 L -423.38,437.14" fill="none" stroke="black" stroke-width="4.0"/>
	<path d="M -423.38,437.14 L -428.83,442.1" fill="none" stroke="black" stroke-width="4.0"/>
	<path d="M -428.83,442.1 L -434.01,447.34" fill="none" stroke="black" stroke-width="4.0"/>
	<path d="M -434.01,447.34 L -438.92,452.83" fill="none" stroke="black" stroke-width="4.0"/>
	<path d="M -438.92,452.83 L -443.53,458.56" fill="none" stroke="black" stroke-width="4.0"/>
	<path d="M -443.53,458.56 L -447.84999999999997,464.53" fill="none" stroke="black" stroke-width="4.0"/>
	<path d="M -447.84999999999997,464.53 L -451.84999999999997,470.7" fill="none" stroke="black" stroke-width="4.0"/>
	<path d="M -237.50999999999996,394.21 L -186.11999999999998,388.71" fill="none" stroke="black" stroke-width="4.0"/>
	<path d="M -186.11999999999998,388.71 L -168.36999999999998,401.74" fill="none" stroke="black" stroke-width="4.0"/>
	<path d="M -168.36999999999998,401.74 L -184.13999999999996,378.72" fill="none" stroke="black" stroke-width="4.0"/>
	<path d="M -184.13999999999996,378.72 L -219.69999999999996,377.27" fill="none" stroke="black" stroke-width="4.0"/>
	<path d="M -219.69999999999996,377.27 L -261.21,392.43" fill="none" stroke="black" stroke-width="4.0"/>
</svg>