<svg xmlns="http://www.w3.org/2000/svg" version="1.1" viewBox="94.32 140.53 612.29 318.63">
  <desc>Produce by Acme CAD Converter</desc>
<path d="M248.29 299.85L248.1 301.43" fill="none" stroke="black" stroke-width="4.0"/>
<path d="M248.1 301.43L247.55 302.94" fill="none" stroke="black" stroke-width="4.0"/>
<path d="M247.55 302.94L246.68 304.27" fill="none" stroke="black" stroke-width="4.0"/>
<path d="M246.68 304.27L245.51 305.37" fill="none" stroke="black" stroke-width="4.0"/>
<path d="M245.51 305.37L244.13 306.17" fill="none" stroke="black" stroke-width="4.0"/>
<path d="M244.13 306.17L242.6 306.62" fill="none" stroke="black" stroke-width="4.0"/>
<path d="M242.6 306.62L241 306.72" fill="none" stroke="black" stroke-width="4.0"/>
<path d="M241 306.72L239.43 306.44" fill="none" stroke="black" stroke-width="4.0"/>
<path d="M239.43 306.44L237.96 305.81" fill="none" stroke="black" stroke-width="4.0"/>
<path d="M237.96 305.81L236.68 304.85" fill="none" stroke="black" stroke-width="4.0"/>
<path d="M236.68 304.85L235.65 303.63" fill="none" stroke="black" stroke-width="4.0"/>
<path d="M235.65 303.63L234.94 302.2" fill="none" stroke="black" stroke-width="4.0"/>
<path d="M234.94 302.2L234.57 300.65" fill="none" stroke="black" stroke-width="4.0"/>
<path d="M234.57 300.65L234.57 299.05Z" fill="none" stroke="black" stroke-width="4.0"/>
<path d="M234.57 299.05L234.94 297.49" fill="none" stroke="black" stroke-width="4.0"/>
<path d="M234.94 297.49L235.65 296.06" fill="none" stroke="black" stroke-width="4.0"/>
<path d="M235.65 296.06L236.68 294.84" fill="none" stroke="black" stroke-width="4.0"/>
<path d="M236.68 294.84L237.96 293.89" fill="none" stroke="black" stroke-width="4.0"/>
<path d="M237.96 293.89L239.43 293.25" fill="none" stroke="black" stroke-width="4.0"/>
<path d="M239.43 293.25L241 292.98" fill="none" stroke="black" stroke-width="4.0"/>
<path d="M241 292.98L242.6 293.07" fill="none" stroke="black" stroke-width="4.0"/>
<path d="M242.6 293.07L244.13 293.53" fill="none" stroke="black" stroke-width="4.0"/>
<path d="M244.13 293.53L245.51 294.33" fill="none" stroke="black" stroke-width="4.0"/>
<path d="M245.51 294.33L246.68 295.42" fill="none" stroke="black" stroke-width="4.0"/>
<path d="M246.68 295.42L247.55 296.76" fill="none" stroke="black" stroke-width="4.0"/>
<path d="M247.55 296.76L248.1 298.26" fill="none" stroke="black" stroke-width="4.0"/>
<path d="M248.1 298.26L248.29 299.85" fill="none" stroke="black" stroke-width="4.0"/>
<path d="M234.52 292.96L234.33 294.55" fill="none" stroke="black" stroke-width="4.0"/>
<path d="M234.33 294.55L233.79 296.05" fill="none" stroke="black" stroke-width="4.0"/>
<path d="M233.79 296.05L232.91 297.39" fill="none" stroke="black" stroke-width="4.0"/>
<path d="M232.91 297.39L231.75 298.48" fill="none" stroke="black" stroke-width="4.0"/>
<path d="M231.75 298.48L230.36 299.28" fill="none" stroke="black" stroke-width="4.0"/>
<path d="M230.36 299.28L228.83 299.74" fill="none" stroke="black" stroke-width="4.0"/>
<path d="M228.83 299.74L227.24 299.84" fill="none" stroke="black" stroke-width="4.0"/>
<path d="M227.24 299.84L225.66 299.56" fill="none" stroke="black" stroke-width="4.0"/>
<path d="M225.66 299.56L224.2 298.92" fill="none" stroke="black" stroke-width="4.0"/>
<path d="M224.2 298.92L222.91 297.97" fill="none" stroke="black" stroke-width="4.0"/>
<path d="M222.91 297.97L221.89 296.75" fill="none" stroke="black" stroke-width="4.0"/>
<path d="M221.89 296.75L221.17 295.32" fill="none" stroke="black" stroke-width="4.0"/>
<path d="M221.17 295.32L220.8 293.76" fill="none" stroke="black" stroke-width="4.0"/>
<path d="M220.8 293.76L220.8 292.17Z" fill="none" stroke="black" stroke-width="4.0"/>
<path d="M220.8 292.17L221.17 290.61" fill="none" stroke="black" stroke-width="4.0"/>
<path d="M221.17 290.61L221.89 289.18" fill="none" stroke="black" stroke-width="4.0"/>
<path d="M221.89 289.18L222.91 287.96" fill="none" stroke="black" stroke-width="4.0"/>
<path d="M222.91 287.96L224.2 287" fill="none" stroke="black" stroke-width="4.0"/>
<path d="M224.2 287L225.66 286.37" fill="none" stroke="black" stroke-width="4.0"/>
<path d="M225.66 286.37L227.24 286.09" fill="none" stroke="black" stroke-width="4.0"/>
<path d="M227.24 286.09L228.83 286.19" fill="none" stroke="black" stroke-width="4.0"/>
<path d="M228.83 286.19L230.36 286.64" fill="none" stroke="black" stroke-width="4.0"/>
<path d="M230.36 286.64L231.75 287.44" fill="none" stroke="black" stroke-width="4.0"/>
<path d="M231.75 287.44L232.91 288.54" fill="none" stroke="black" stroke-width="4.0"/>
<path d="M232.91 288.54L233.79 289.88" fill="none" stroke="black" stroke-width="4.0"/>
<path d="M233.79 289.88L234.33 291.38" fill="none" stroke="black" stroke-width="4.0"/>
<path d="M234.33 291.38L234.52 292.96" fill="none" stroke="black" stroke-width="4.0"/>
<path d="M234.52 306.73L234.33 308.32" fill="none" stroke="black" stroke-width="4.0"/>
<path d="M234.33 308.32L233.79 309.82" fill="none" stroke="black" stroke-width="4.0"/>
<path d="M233.79 309.82L232.91 311.15" fill="none" stroke="black" stroke-width="4.0"/>
<path d="M232.91 311.15L231.75 312.25" fill="none" stroke="black" stroke-width="4.0"/>
<path d="M231.75 312.25L230.36 313.05" fill="none" stroke="black" stroke-width="4.0"/>
<path d="M230.36 313.05L228.83 313.51" fill="none" stroke="black" stroke-width="4.0"/>
<path d="M228.83 313.51L227.24 313.6" fill="none" stroke="black" stroke-width="4.0"/>
<path d="M227.24 313.6L225.66 313.32" fill="none" stroke="black" stroke-width="4.0"/>
<path d="M225.66 313.32L224.2 312.69" fill="none" stroke="black" stroke-width="4.0"/>
<path d="M224.2 312.69L222.91 311.74" fill="none" stroke="black" stroke-width="4.0"/>
<path d="M222.91 311.74L221.89 310.51" fill="none" stroke="black" stroke-width="4.0"/>
<path d="M221.89 310.51L221.17 309.08" fill="none" stroke="black" stroke-width="4.0"/>
<path d="M221.17 309.08L220.8 307.53" fill="none" stroke="black" stroke-width="4.0"/>
<path d="M220.8 307.53L220.8 305.93Z" fill="none" stroke="black" stroke-width="4.0"/>
<path d="M220.8 305.93L221.17 304.38" fill="none" stroke="black" stroke-width="4.0"/>
<path d="M221.17 304.38L221.89 302.95" fill="none" stroke="black" stroke-width="4.0"/>
<path d="M221.89 302.95L222.91 301.72" fill="none" stroke="black" stroke-width="4.0"/>
<path d="M222.91 301.72L224.2 300.77" fill="none" stroke="black" stroke-width="4.0"/>
<path d="M224.2 300.77L225.66 300.14" fill="none" stroke="black" stroke-width="4.0"/>
<path d="M225.66 300.14L227.24 299.86" fill="none" stroke="black" stroke-width="4.0"/>
<path d="M227.24 299.86L228.83 299.95" fill="none" stroke="black" stroke-width="4.0"/>
<path d="M228.83 299.95L230.36 300.41" fill="none" stroke="black" stroke-width="4.0"/>
<path d="M230.36 300.41L231.75 301.21" fill="none" stroke="black" stroke-width="4.0"/>
<path d="M231.75 301.21L232.91 302.31" fill="none" stroke="black" stroke-width="4.0"/>
<path d="M232.91 302.31L233.79 303.64" fill="none" stroke="black" stroke-width="4.0"/>
<path d="M233.79 303.64L234.33 305.14" fill="none" stroke="black" stroke-width="4.0"/>
<path d="M234.33 305.14L234.52 306.73" fill="none" stroke="black" stroke-width="4.0"/>
<path d="M220.75 286.08L220.57 287.67" fill="none" stroke="black" stroke-width="4.0"/>
<path d="M220.57 287.67L220.02 289.17" fill="none" stroke="black" stroke-width="4.0"/>
<path d="M220.02 289.17L219.14 290.51" fill="none" stroke="black" stroke-width="4.0"/>
<path d="M219.14 290.51L217.98 291.6" fill="none" stroke="black" stroke-width="4.0"/>
<path d="M217.98 291.6L216.6 292.4" fill="none" stroke="black" stroke-width="4.0"/>
<path d="M216.6 292.4L215.07 292.86" fill="none" stroke="black" stroke-width="4.0"/>
<path d="M215.07 292.86L213.47 292.95" fill="none" stroke="black" stroke-width="4.0"/>
<path d="M213.47 292.95L211.9 292.68" fill="none" stroke="black" stroke-width="4.0"/>
<path d="M211.9 292.68L210.43 292.04" fill="none" stroke="black" stroke-width="4.0"/>
<path d="M210.43 292.04L209.15 291.09" fill="none" stroke="black" stroke-width="4.0"/>
<path d="M209.15 291.09L208.12 289.86" fill="none" stroke="black" stroke-width="4.0"/>
<path d="M208.12 289.86L207.4 288.44" fill="none" stroke="black" stroke-width="4.0"/>
<path d="M207.4 288.44L207.04 286.88" fill="none" stroke="black" stroke-width="4.0"/>
<path d="M207.04 286.88L207.04 285.28Z" fill="none" stroke="black" stroke-width="4.0"/>
<path d="M207.04 285.28L207.4 283.73" fill="none" stroke="black" stroke-width="4.0"/>
<path d="M207.4 283.73L208.12 282.3" fill="none" stroke="black" stroke-width="4.0"/>
<path d="M208.12 282.3L209.15 281.08" fill="none" stroke="black" stroke-width="4.0"/>
<path d="M209.15 281.08L210.43 280.12" fill="none" stroke="black" stroke-width="4.0"/>
<path d="M210.43 280.12L211.9 279.49" fill="none" stroke="black" stroke-width="4.0"/>
<path d="M211.9 279.49L213.47 279.21" fill="none" stroke="black" stroke-width="4.0"/>
<path d="M213.47 279.21L215.07 279.3" fill="none" stroke="black" stroke-width="4.0"/>
<path d="M215.07 279.3L216.6 279.76" fill="none" stroke="black" stroke-width="4.0"/>
<path d="M216.6 279.76L217.98 280.56" fill="none" stroke="black" stroke-width="4.0"/>
<path d="M217.98 280.56L219.14 281.66" fill="none" stroke="black" stroke-width="4.0"/>
<path d="M219.14 281.66L220.02 282.99" fill="none" stroke="black" stroke-width="4.0"/>
<path d="M220.02 282.99L220.57 284.49" fill="none" stroke="black" stroke-width="4.0"/>
<path d="M220.57 284.49L220.75 286.08" fill="none" stroke="black" stroke-width="4.0"/>
<path d="M220.75 299.85L220.57 301.43" fill="none" stroke="black" stroke-width="4.0"/>
<path d="M220.57 301.43L220.02 302.94" fill="none" stroke="black" stroke-width="4.0"/>
<path d="M220.02 302.94L219.14 304.27" fill="none" stroke="black" stroke-width="4.0"/>
<path d="M219.14 304.27L217.98 305.37" fill="none" stroke="black" stroke-width="4.0"/>
<path d="M217.98 305.37L216.6 306.17" fill="none" stroke="black" stroke-width="4.0"/>
<path d="M216.6 306.17L215.07 306.62" fill="none" stroke="black" stroke-width="4.0"/>
<path d="M215.07 306.62L213.47 306.72" fill="none" stroke="black" stroke-width="4.0"/>
<path d="M213.47 306.72L211.9 306.44" fill="none" stroke="black" stroke-width="4.0"/>
<path d="M211.9 306.44L210.43 305.81" fill="none" stroke="black" stroke-width="4.0"/>
<path d="M210.43 305.81L209.15 304.85" fill="none" stroke="black" stroke-width="4.0"/>
<path d="M209.15 304.85L208.12 303.63" fill="none" stroke="black" stroke-width="4.0"/>
<path d="M208.12 303.63L207.4 302.2" fill="none" stroke="black" stroke-width="4.0"/>
<path d="M207.4 302.2L207.04 300.65" fill="none" stroke="black" stroke-width="4.0"/>
<path d="M207.04 300.65L207.04 299.05Z" fill="none" stroke="black" stroke-width="4.0"/>
<path d="M207.04 299.05L207.4 297.49" fill="none" stroke="black" stroke-width="4.0"/>
<path d="M207.4 297.49L208.12 296.06" fill="none" stroke="black" stroke-width="4.0"/>
<path d="M208.12 296.06L209.15 294.84" fill="none" stroke="black" stroke-width="4.0"/>
<path d="M209.15 294.84L210.43 293.89" fill="none" stroke="black" stroke-width="4.0"/>
<path d="M210.43 293.89L211.9 293.25" fill="none" stroke="black" stroke-width="4.0"/>
<path d="M211.9 293.25L213.47 292.98" fill="none" stroke="black" stroke-width="4.0"/>
<path d="M213.47 292.98L215.07 293.07" fill="none" stroke="black" stroke-width="4.0"/>
<path d="M215.07 293.07L216.6 293.53" fill="none" stroke="black" stroke-width="4.0"/>
<path d="M216.6 293.53L217.98 294.33" fill="none" stroke="black" stroke-width="4.0"/>
<path d="M217.98 294.33L219.14 295.42" fill="none" stroke="black" stroke-width="4.0"/>
<path d="M219.14 295.42L220.02 296.76" fill="none" stroke="black" stroke-width="4.0"/>
<path d="M220.02 296.76L220.57 298.26" fill="none" stroke="black" stroke-width="4.0"/>
<path d="M220.57 298.26L220.75 299.85" fill="none" stroke="black" stroke-width="4.0"/>
<path d="M220.75 313.61L220.57 315.2" fill="none" stroke="black" stroke-width="4.0"/>
<path d="M220.57 315.2L220.02 316.7" fill="none" stroke="black" stroke-width="4.0"/>
<path d="M220.02 316.7L219.14 318.04" fill="none" stroke="black" stroke-width="4.0"/>
<path d="M219.14 318.04L217.98 319.13" fill="none" stroke="black" stroke-width="4.0"/>
<path d="M217.98 319.13L216.6 319.93" fill="none" stroke="black" stroke-width="4.0"/>
<path d="M216.6 319.93L215.07 320.39" fill="none" stroke="black" stroke-width="4.0"/>
<path d="M215.07 320.39L213.47 320.48" fill="none" stroke="black" stroke-width="4.0"/>
<path d="M213.47 320.48L211.9 320.21" fill="none" stroke="black" stroke-width="4.0"/>
<path d="M211.9 320.21L210.43 319.57" fill="none" stroke="black" stroke-width="4.0"/>
<path d="M210.43 319.57L209.15 318.62" fill="none" stroke="black" stroke-width="4.0"/>
<path d="M209.15 318.62L208.12 317.39" fill="none" stroke="black" stroke-width="4.0"/>
<path d="M208.12 317.39L207.4 315.97" fill="none" stroke="black" stroke-width="4.0"/>
<path d="M207.4 315.97L207.04 314.41" fill="none" stroke="black" stroke-width="4.0"/>
<path d="M207.04 314.41L207.04 312.81Z" fill="none" stroke="black" stroke-width="4.0"/>
<path d="M207.04 312.81L207.4 311.26" fill="none" stroke="black" stroke-width="4.0"/>
<path d="M207.4 311.26L208.12 309.83" fill="none" stroke="black" stroke-width="4.0"/>
<path d="M208.12 309.83L209.15 308.61" fill="none" stroke="black" stroke-width="4.0"/>
<path d="M209.15 308.61L210.43 307.65" fill="none" stroke="black" stroke-width="4.0"/>
<path d="M210.43 307.65L211.9 307.02" fill="none" stroke="black" stroke-width="4.0"/>
<path d="M211.9 307.02L213.47 306.74" fill="none" stroke="black" stroke-width="4.0"/>
<path d="M213.47 306.74L215.07 306.83" fill="none" stroke="black" stroke-width="4.0"/>
<path d="M215.07 306.83L216.6 307.29" fill="none" stroke="black" stroke-width="4.0"/>
<path d="M216.6 307.29L217.98 308.09" fill="none" stroke="black" stroke-width="4.0"/>
<path d="M217.98 308.09L219.14 309.19" fill="none" stroke="black" stroke-width="4.0"/>
<path d="M219.14 309.19L220.02 310.52" fill="none" stroke="black" stroke-width="4.0"/>
<path d="M220.02 310.52L220.57 312.02" fill="none" stroke="black" stroke-width="4.0"/>
<path d="M220.57 312.02L220.75 313.61" fill="none" stroke="black" stroke-width="4.0"/>
<path d="M206.99 279.2L206.8 280.79" fill="none" stroke="black" stroke-width="4.0"/>
<path d="M206.8 280.79L206.26 282.29" fill="none" stroke="black" stroke-width="4.0"/>
<path d="M206.26 282.29L205.38 283.62" fill="none" stroke="black" stroke-width="4.0"/>
<path d="M205.38 283.62L204.22 284.72" fill="none" stroke="black" stroke-width="4.0"/>
<path d="M204.22 284.72L202.83 285.52" fill="none" stroke="black" stroke-width="4.0"/>
<path d="M202.83 285.52L201.3 285.98" fill="none" stroke="black" stroke-width="4.0"/>
<path d="M201.3 285.98L199.71 286.07" fill="none" stroke="black" stroke-width="4.0"/>
<path d="M199.71 286.07L198.13 285.79" fill="none" stroke="black" stroke-width="4.0"/>
<path d="M198.13 285.79L196.67 285.16" fill="none" stroke="black" stroke-width="4.0"/>
<path d="M196.67 285.16L195.38 284.21" fill="none" stroke="black" stroke-width="4.0"/>
<path d="M195.38 284.21L194.36 282.98" fill="none" stroke="black" stroke-width="4.0"/>
<path d="M194.36 282.98L193.64 281.55" fill="none" stroke="black" stroke-width="4.0"/>
<path d="M193.64 281.55L193.27 280" fill="none" stroke="black" stroke-width="4.0"/>
<path d="M193.27 280L193.27 278.4Z" fill="none" stroke="black" stroke-width="4.0"/>
<path d="M193.27 278.4L193.64 276.84" fill="none" stroke="black" stroke-width="4.0"/>
<path d="M193.64 276.84L194.36 275.42" fill="none" stroke="black" stroke-width="4.0"/>
<path d="M194.36 275.42L195.38 274.19" fill="none" stroke="black" stroke-width="4.0"/>
<path d="M195.38 274.19L196.67 273.24" fill="none" stroke="black" stroke-width="4.0"/>
<path d="M196.67 273.24L198.13 272.61" fill="none" stroke="black" stroke-width="4.0"/>
<path d="M198.13 272.61L199.71 272.33" fill="none" stroke="black" stroke-width="4.0"/>
<path d="M199.71 272.33L201.3 272.42" fill="none" stroke="black" stroke-width="4.0"/>
<path d="M201.3 272.42L202.83 272.88" fill="none" stroke="black" stroke-width="4.0"/>
<path d="M202.83 272.88L204.22 273.68" fill="none" stroke="black" stroke-width="4.0"/>
<path d="M204.22 273.68L205.38 274.77" fill="none" stroke="black" stroke-width="4.0"/>
<path d="M205.38 274.77L206.26 276.11" fill="none" stroke="black" stroke-width="4.0"/>
<path d="M206.26 276.11L206.8 277.61" fill="none" stroke="black" stroke-width="4.0"/>
<path d="M206.8 277.61L206.99 279.2" fill="none" stroke="black" stroke-width="4.0"/>
<path d="M206.99 292.96L206.8 294.55" fill="none" stroke="black" stroke-width="4.0"/>
<path d="M206.8 294.55L206.26 296.05" fill="none" stroke="black" stroke-width="4.0"/>
<path d="M206.26 296.05L205.38 297.39" fill="none" stroke="black" stroke-width="4.0"/>
<path d="M205.38 297.39L204.22 298.48" fill="none" stroke="black" stroke-width="4.0"/>
<path d="M204.22 298.48L202.83 299.28" fill="none" stroke="black" stroke-width="4.0"/>
<path d="M202.83 299.28L201.3 299.74" fill="none" stroke="black" stroke-width="4.0"/>
<path d="M201.3 299.74L199.71 299.84" fill="none" stroke="black" stroke-width="4.0"/>
<path d="M199.71 299.84L198.13 299.56" fill="none" stroke="black" stroke-width="4.0"/>
<path d="M198.13 299.56L196.67 298.92" fill="none" stroke="black" stroke-width="4.0"/>
<path d="M196.67 298.92L195.38 297.97" fill="none" stroke="black" stroke-width="4.0"/>
<path d="M195.38 297.97L194.36 296.75" fill="none" stroke="black" stroke-width="4.0"/>
<path d="M194.36 296.75L193.64 295.32" fill="none" stroke="black" stroke-width="4.0"/>
<path d="M193.64 295.32L193.27 293.76" fill="none" stroke="black" stroke-width="4.0"/>
<path d="M193.27 293.76L193.27 292.17Z" fill="none" stroke="black" stroke-width="4.0"/>
<path d="M193.27 292.17L193.64 290.61" fill="none" stroke="black" stroke-width="4.0"/>
<path d="M193.64 290.61L194.36 289.18" fill="none" stroke="black" stroke-width="4.0"/>
<path d="M194.36 289.18L195.38 287.96" fill="none" stroke="black" stroke-width="4.0"/>
<path d="M195.38 287.96L196.67 287" fill="none" stroke="black" stroke-width="4.0"/>
<path d="M196.67 287L198.13 286.37" fill="none" stroke="black" stroke-width="4.0"/>
<path d="M198.13 286.37L199.71 286.09" fill="none" stroke="black" stroke-width="4.0"/>
<path d="M199.71 286.09L201.3 286.19" fill="none" stroke="black" stroke-width="4.0"/>
<path d="M201.3 286.19L202.83 286.64" fill="none" stroke="black" stroke-width="4.0"/>
<path d="M202.83 286.64L204.22 287.44" fill="none" stroke="black" stroke-width="4.0"/>
<path d="M204.22 287.44L205.38 288.54" fill="none" stroke="black" stroke-width="4.0"/>
<path d="M205.38 288.54L206.26 289.88" fill="none" stroke="black" stroke-width="4.0"/>
<path d="M206.26 289.88L206.8 291.38" fill="none" stroke="black" stroke-width="4.0"/>
<path d="M206.8 291.38L206.99 292.96" fill="none" stroke="black" stroke-width="4.0"/>
<path d="M206.99 320.49L206.8 322.08" fill="none" stroke="black" stroke-width="4.0"/>
<path d="M206.8 322.08L206.26 323.58" fill="none" stroke="black" stroke-width="4.0"/>
<path d="M206.26 323.58L205.38 324.92" fill="none" stroke="black" stroke-width="4.0"/>
<path d="M205.38 324.92L204.22 326.02" fill="none" stroke="black" stroke-width="4.0"/>
<path d="M204.22 326.02L202.83 326.81" fill="none" stroke="black" stroke-width="4.0"/>
<path d="M202.83 326.81L201.3 327.27" fill="none" stroke="black" stroke-width="4.0"/>
<path d="M201.3 327.27L199.71 327.37" fill="none" stroke="black" stroke-width="4.0"/>
<path d="M199.71 327.37L198.13 327.09" fill="none" stroke="black" stroke-width="4.0"/>
<path d="M198.13 327.09L196.67 326.46" fill="none" stroke="black" stroke-width="4.0"/>
<path d="M196.67 326.46L195.38 325.5" fill="none" stroke="black" stroke-width="4.0"/>
<path d="M195.38 325.5L194.36 324.28" fill="none" stroke="black" stroke-width="4.0"/>
<path d="M194.36 324.28L193.64 322.85" fill="none" stroke="black" stroke-width="4.0"/>
<path d="M193.64 322.85L193.27 321.29" fill="none" stroke="black" stroke-width="4.0"/>
<path d="M193.27 321.29L193.27 319.7Z" fill="none" stroke="black" stroke-width="4.0"/>
<path d="M193.27 319.7L193.64 318.14" fill="none" stroke="black" stroke-width="4.0"/>
<path d="M193.64 318.14L194.36 316.71" fill="none" stroke="black" stroke-width="4.0"/>
<path d="M194.36 316.71L195.38 315.49" fill="none" stroke="black" stroke-width="4.0"/>
<path d="M195.38 315.49L196.67 314.53" fill="none" stroke="black" stroke-width="4.0"/>
<path d="M196.67 314.53L198.13 313.9" fill="none" stroke="black" stroke-width="4.0"/>
<path d="M198.13 313.9L199.71 313.62" fill="none" stroke="black" stroke-width="4.0"/>
<path d="M199.71 313.62L201.3 313.72" fill="none" stroke="black" stroke-width="4.0"/>
<path d="M201.3 313.72L202.83 314.17" fill="none" stroke="black" stroke-width="4.0"/>
<path d="M202.83 314.17L204.22 314.97" fill="none" stroke="black" stroke-width="4.0"/>
<path d="M204.22 314.97L205.38 316.07" fill="none" stroke="black" stroke-width="4.0"/>
<path d="M205.38 316.07L206.26 317.41" fill="none" stroke="black" stroke-width="4.0"/>
<path d="M206.26 317.41L206.8 318.91" fill="none" stroke="black" stroke-width="4.0"/>
<path d="M206.8 318.91L206.99 320.49" fill="none" stroke="black" stroke-width="4.0"/>
<path d="M206.99 306.73L206.8 308.32" fill="none" stroke="black" stroke-width="4.0"/>
<path d="M206.8 308.32L206.26 309.82" fill="none" stroke="black" stroke-width="4.0"/>
<path d="M206.26 309.82L205.38 311.15" fill="none" stroke="black" stroke-width="4.0"/>
<path d="M205.38 311.15L204.22 312.25" fill="none" stroke="black" stroke-width="4.0"/>
<path d="M204.22 312.25L202.83 313.05" fill="none" stroke="black" stroke-width="4.0"/>
<path d="M202.83 313.05L201.3 313.51" fill="none" stroke="black" stroke-width="4.0"/>
<path d="M201.3 313.51L199.71 313.6" fill="none" stroke="black" stroke-width="4.0"/>
<path d="M199.71 313.6L198.13 313.32" fill="none" stroke="black" stroke-width="4.0"/>
<path d="M198.13 313.32L196.67 312.69" fill="none" stroke="black" stroke-width="4.0"/>
<path d="M196.67 312.69L195.38 311.74" fill="none" stroke="black" stroke-width="4.0"/>
<path d="M195.38 311.74L194.36 310.51" fill="none" stroke="black" stroke-width="4.0"/>
<path d="M194.36 310.51L193.64 309.08" fill="none" stroke="black" stroke-width="4.0"/>
<path d="M193.64 309.08L193.27 307.53" fill="none" stroke="black" stroke-width="4.0"/>
<path d="M193.27 307.53L193.27 305.93Z" fill="none" stroke="black" stroke-width="4.0"/>
<path d="M193.27 305.93L193.64 304.38" fill="none" stroke="black" stroke-width="4.0"/>
<path d="M193.64 304.38L194.36 302.95" fill="none" stroke="black" stroke-width="4.0"/>
<path d="M194.36 302.95L195.38 301.72" fill="none" stroke="black" stroke-width="4.0"/>
<path d="M195.38 301.72L196.67 300.77" fill="none" stroke="black" stroke-width="4.0"/>
<path d="M196.67 300.77L198.13 300.14" fill="none" stroke="black" stroke-width="4.0"/>
<path d="M198.13 300.14L199.71 299.86" fill="none" stroke="black" stroke-width="4.0"/>
<path d="M199.71 299.86L201.3 299.95" fill="none" stroke="black" stroke-width="4.0"/>
<path d="M201.3 299.95L202.83 300.41" fill="none" stroke="black" stroke-width="4.0"/>
<path d="M202.83 300.41L204.22 301.21" fill="none" stroke="black" stroke-width="4.0"/>
<path d="M204.22 301.21L205.38 302.31" fill="none" stroke="black" stroke-width="4.0"/>
<path d="M205.38 302.31L206.26 303.64" fill="none" stroke="black" stroke-width="4.0"/>
<path d="M206.26 303.64L206.8 305.14" fill="none" stroke="black" stroke-width="4.0"/>
<path d="M206.8 305.14L206.99 306.73" fill="none" stroke="black" stroke-width="4.0"/>
<path d="M193.22 327.38L193.04 328.96" fill="none" stroke="black" stroke-width="4.0"/>
<path d="M193.04 328.96L192.49 330.47" fill="none" stroke="black" stroke-width="4.0"/>
<path d="M192.49 330.47L191.61 331.8" fill="none" stroke="black" stroke-width="4.0"/>
<path d="M191.61 331.8L190.45 332.9" fill="none" stroke="black" stroke-width="4.0"/>
<path d="M190.45 332.9L189.07 333.7" fill="none" stroke="black" stroke-width="4.0"/>
<path d="M189.07 333.7L187.54 334.16" fill="none" stroke="black" stroke-width="4.0"/>
<path d="M187.54 334.16L185.94 334.25" fill="none" stroke="black" stroke-width="4.0"/>
<path d="M185.94 334.25L184.37 333.97" fill="none" stroke="black" stroke-width="4.0"/>
<path d="M184.37 333.97L182.9 333.34" fill="none" stroke="black" stroke-width="4.0"/>
<path d="M182.9 333.34L181.62 332.38" fill="none" stroke="black" stroke-width="4.0"/>
<path d="M181.62 332.38L180.59 331.16" fill="none" stroke="black" stroke-width="4.0"/>
<path d="M180.59 331.16L179.87 329.73" fill="none" stroke="black" stroke-width="4.0"/>
<path d="M179.87 329.73L179.51 328.18" fill="none" stroke="black" stroke-width="4.0"/>
<path d="M179.51 328.18L179.51 326.58Z" fill="none" stroke="black" stroke-width="4.0"/>
<path d="M179.51 326.58L179.87 325.02" fill="none" stroke="black" stroke-width="4.0"/>
<path d="M179.87 325.02L180.59 323.6" fill="none" stroke="black" stroke-width="4.0"/>
<path d="M180.59 323.6L181.62 322.37" fill="none" stroke="black" stroke-width="4.0"/>
<path d="M181.62 322.37L182.9 321.42" fill="none" stroke="black" stroke-width="4.0"/>
<path d="M182.9 321.42L184.37 320.78" fill="none" stroke="black" stroke-width="4.0"/>
<path d="M184.37 320.78L185.94 320.51" fill="none" stroke="black" stroke-width="4.0"/>
<path d="M185.94 320.51L187.54 320.6" fill="none" stroke="black" stroke-width="4.0"/>
<path d="M187.54 320.6L189.07 321.06" fill="none" stroke="black" stroke-width="4.0"/>
<path d="M189.07 321.06L190.45 321.86" fill="none" stroke="black" stroke-width="4.0"/>
<path d="M190.45 321.86L191.61 322.95" fill="none" stroke="black" stroke-width="4.0"/>
<path d="M191.61 322.95L192.49 324.29" fill="none" stroke="black" stroke-width="4.0"/>
<path d="M192.49 324.29L193.04 325.79" fill="none" stroke="black" stroke-width="4.0"/>
<path d="M193.04 325.79L193.22 327.38" fill="none" stroke="black" stroke-width="4.0"/>
<path d="M193.22 313.61L193.04 315.2" fill="none" stroke="black" stroke-width="4.0"/>
<path d="M193.04 315.2L192.49 316.7" fill="none" stroke="black" stroke-width="4.0"/>
<path d="M192.49 316.7L191.61 318.04" fill="none" stroke="black" stroke-width="4.0"/>
<path d="M191.61 318.04L190.45 319.13" fill="none" stroke="black" stroke-width="4.0"/>
<path d="M190.45 319.13L189.07 319.93" fill="none" stroke="black" stroke-width="4.0"/>
<path d="M189.07 319.93L187.54 320.39" fill="none" stroke="black" stroke-width="4.0"/>
<path d="M187.54 320.39L185.94 320.48" fill="none" stroke="black" stroke-width="4.0"/>
<path d="M185.94 320.48L184.37 320.21" fill="none" stroke="black" stroke-width="4.0"/>
<path d="M184.37 320.21L182.9 319.57" fill="none" stroke="black" stroke-width="4.0"/>
<path d="M182.9 319.57L181.62 318.62" fill="none" stroke="black" stroke-width="4.0"/>
<path d="M181.62 318.62L180.59 317.39" fill="none" stroke="black" stroke-width="4.0"/>
<path d="M180.59 317.39L179.87 315.97" fill="none" stroke="black" stroke-width="4.0"/>
<path d="M179.87 315.97L179.51 314.41" fill="none" stroke="black" stroke-width="4.0"/>
<path d="M179.51 314.41L179.51 312.81Z" fill="none" stroke="black" stroke-width="4.0"/>
<path d="M179.51 312.81L179.87 311.26" fill="none" stroke="black" stroke-width="4.0"/>
<path d="M179.87 311.26L180.59 309.83" fill="none" stroke="black" stroke-width="4.0"/>
<path d="M180.59 309.83L181.62 308.61" fill="none" stroke="black" stroke-width="4.0"/>
<path d="M181.62 308.61L182.9 307.65" fill="none" stroke="black" stroke-width="4.0"/>
<path d="M182.9 307.65L184.37 307.02" fill="none" stroke="black" stroke-width="4.0"/>
<path d="M184.37 307.02L185.94 306.74" fill="none" stroke="black" stroke-width="4.0"/>
<path d="M185.94 306.74L187.54 306.83" fill="none" stroke="black" stroke-width="4.0"/>
<path d="M187.54 306.83L189.07 307.29" fill="none" stroke="black" stroke-width="4.0"/>
<path d="M189.07 307.29L190.45 308.09" fill="none" stroke="black" stroke-width="4.0"/>
<path d="M190.45 308.09L191.61 309.19" fill="none" stroke="black" stroke-width="4.0"/>
<path d="M191.61 309.19L192.49 310.52" fill="none" stroke="black" stroke-width="4.0"/>
<path d="M192.49 310.52L193.04 312.02" fill="none" stroke="black" stroke-width="4.0"/>
<path d="M193.04 312.02L193.22 313.61" fill="none" stroke="black" stroke-width="4.0"/>
<path d="M193.22 272.32L193.04 273.9" fill="none" stroke="black" stroke-width="4.0"/>
<path d="M193.04 273.9L192.49 275.41" fill="none" stroke="black" stroke-width="4.0"/>
<path d="M192.49 275.41L191.61 276.74" fill="none" stroke="black" stroke-width="4.0"/>
<path d="M191.61 276.74L190.45 277.84" fill="none" stroke="black" stroke-width="4.0"/>
<path d="M190.45 277.84L189.07 278.64" fill="none" stroke="black" stroke-width="4.0"/>
<path d="M189.07 278.64L187.54 279.09" fill="none" stroke="black" stroke-width="4.0"/>
<path d="M187.54 279.09L185.94 279.19" fill="none" stroke="black" stroke-width="4.0"/>
<path d="M185.94 279.19L184.37 278.91" fill="none" stroke="black" stroke-width="4.0"/>
<path d="M184.37 278.91L182.9 278.28" fill="none" stroke="black" stroke-width="4.0"/>
<path d="M182.9 278.28L181.62 277.32" fill="none" stroke="black" stroke-width="4.0"/>
<path d="M181.62 277.32L180.59 276.1" fill="none" stroke="black" stroke-width="4.0"/>
<path d="M180.59 276.1L179.87 274.67" fill="none" stroke="black" stroke-width="4.0"/>
<path d="M179.87 274.67L179.51 273.12" fill="none" stroke="black" stroke-width="4.0"/>
<path d="M179.51 273.12L179.51 271.52Z" fill="none" stroke="black" stroke-width="4.0"/>
<path d="M179.51 271.52L179.87 269.96" fill="none" stroke="black" stroke-width="4.0"/>
<path d="M179.87 269.96L180.59 268.53" fill="none" stroke="black" stroke-width="4.0"/>
<path d="M180.59 268.53L181.62 267.31" fill="none" stroke="black" stroke-width="4.0"/>
<path d="M181.62 267.31L182.9 266.36" fill="none" stroke="black" stroke-width="4.0"/>
<path d="M182.9 266.36L184.37 265.72" fill="none" stroke="black" stroke-width="4.0"/>
<path d="M184.37 265.72L185.94 265.45" fill="none" stroke="black" stroke-width="4.0"/>
<path d="M185.94 265.45L187.54 265.54" fill="none" stroke="black" stroke-width="4.0"/>
<path d="M187.54 265.54L189.07 266" fill="none" stroke="black" stroke-width="4.0"/>
<path d="M189.07 266L190.45 266.8" fill="none" stroke="black" stroke-width="4.0"/>
<path d="M190.45 266.8L191.61 267.89" fill="none" stroke="black" stroke-width="4.0"/>
<path d="M191.61 267.89L192.49 269.23" fill="none" stroke="black" stroke-width="4.0"/>
<path d="M192.49 269.23L193.04 270.73" fill="none" stroke="black" stroke-width="4.0"/>
<path d="M193.04 270.73L193.22 272.32" fill="none" stroke="black" stroke-width="4.0"/>
<path d="M193.22 286.08L193.04 287.67" fill="none" stroke="black" stroke-width="4.0"/>
<path d="M193.04 287.67L192.49 289.17" fill="none" stroke="black" stroke-width="4.0"/>
<path d="M192.49 289.17L191.61 290.51" fill="none" stroke="black" stroke-width="4.0"/>
<path d="M191.61 290.51L190.45 291.6" fill="none" stroke="black" stroke-width="4.0"/>
<path d="M190.45 291.6L189.07 292.4" fill="none" stroke="black" stroke-width="4.0"/>
<path d="M189.07 292.4L187.54 292.86" fill="none" stroke="black" stroke-width="4.0"/>
<path d="M187.54 292.86L185.94 292.95" fill="none" stroke="black" stroke-width="4.0"/>
<path d="M185.94 292.95L184.37 292.68" fill="none" stroke="black" stroke-width="4.0"/>
<path d="M184.37 292.68L182.9 292.04" fill="none" stroke="black" stroke-width="4.0"/>
<path d="M182.9 292.04L181.62 291.09" fill="none" stroke="black" stroke-width="4.0"/>
<path d="M181.62 291.09L180.59 289.86" fill="none" stroke="black" stroke-width="4.0"/>
<path d="M180.59 289.86L179.87 288.44" fill="none" stroke="black" stroke-width="4.0"/>
<path d="M179.87 288.44L179.51 286.88" fill="none" stroke="black" stroke-width="4.0"/>
<path d="M179.51 286.88L179.51 285.28Z" fill="none" stroke="black" stroke-width="4.0"/>
<path d="M179.51 285.28L179.87 283.73" fill="none" stroke="black" stroke-width="4.0"/>
<path d="M179.87 283.73L180.59 282.3" fill="none" stroke="black" stroke-width="4.0"/>
<path d="M180.59 282.3L181.62 281.08" fill="none" stroke="black" stroke-width="4.0"/>
<path d="M181.62 281.08L182.9 280.12" fill="none" stroke="black" stroke-width="4.0"/>
<path d="M182.9 280.12L184.37 279.49" fill="none" stroke="black" stroke-width="4.0"/>
<path d="M184.37 279.49L185.94 279.21" fill="none" stroke="black" stroke-width="4.0"/>
<path d="M185.94 279.21L187.54 279.3" fill="none" stroke="black" stroke-width="4.0"/>
<path d="M187.54 279.3L189.07 279.76" fill="none" stroke="black" stroke-width="4.0"/>
<path d="M189.07 279.76L190.45 280.56" fill="none" stroke="black" stroke-width="4.0"/>
<path d="M190.45 280.56L191.61 281.66" fill="none" stroke="black" stroke-width="4.0"/>
<path d="M191.61 281.66L192.49 282.99" fill="none" stroke="black" stroke-width="4.0"/>
<path d="M192.49 282.99L193.04 284.49" fill="none" stroke="black" stroke-width="4.0"/>
<path d="M193.04 284.49L193.22 286.08" fill="none" stroke="black" stroke-width="4.0"/>
<path d="M193.22 299.85L193.04 301.43" fill="none" stroke="black" stroke-width="4.0"/>
<path d="M193.04 301.43L192.49 302.94" fill="none" stroke="black" stroke-width="4.0"/>
<path d="M192.49 302.94L191.61 304.27" fill="none" stroke="black" stroke-width="4.0"/>
<path d="M191.61 304.27L190.45 305.37" fill="none" stroke="black" stroke-width="4.0"/>
<path d="M190.45 305.37L189.07 306.17" fill="none" stroke="black" stroke-width="4.0"/>
<path d="M189.07 306.17L187.54 306.62" fill="none" stroke="black" stroke-width="4.0"/>
<path d="M187.54 306.62L185.94 306.72" fill="none" stroke="black" stroke-width="4.0"/>
<path d="M185.94 306.72L184.37 306.44" fill="none" stroke="black" stroke-width="4.0"/>
<path d="M184.37 306.44L182.9 305.81" fill="none" stroke="black" stroke-width="4.0"/>
<path d="M182.9 305.81L181.62 304.85" fill="none" stroke="black" stroke-width="4.0"/>
<path d="M181.62 304.85L180.59 303.63" fill="none" stroke="black" stroke-width="4.0"/>
<path d="M180.59 303.63L179.87 302.2" fill="none" stroke="black" stroke-width="4.0"/>
<path d="M179.87 302.2L179.51 300.65" fill="none" stroke="black" stroke-width="4.0"/>
<path d="M179.51 300.65L179.51 299.05Z" fill="none" stroke="black" stroke-width="4.0"/>
<path d="M179.51 299.05L179.87 297.49" fill="none" stroke="black" stroke-width="4.0"/>
<path d="M179.87 297.49L180.59 296.06" fill="none" stroke="black" stroke-width="4.0"/>
<path d="M180.59 296.06L181.62 294.84" fill="none" stroke="black" stroke-width="4.0"/>
<path d="M181.62 294.84L182.9 293.89" fill="none" stroke="black" stroke-width="4.0"/>
<path d="M182.9 293.89L184.37 293.25" fill="none" stroke="black" stroke-width="4.0"/>
<path d="M184.37 293.25L185.94 292.98" fill="none" stroke="black" stroke-width="4.0"/>
<path d="M185.94 292.98L187.54 293.07" fill="none" stroke="black" stroke-width="4.0"/>
<path d="M187.54 293.07L189.07 293.53" fill="none" stroke="black" stroke-width="4.0"/>
<path d="M189.07 293.53L190.45 294.33" fill="none" stroke="black" stroke-width="4.0"/>
<path d="M190.45 294.33L191.61 295.42" fill="none" stroke="black" stroke-width="4.0"/>
<path d="M191.61 295.42L192.49 296.76" fill="none" stroke="black" stroke-width="4.0"/>
<path d="M192.49 296.76L193.04 298.26" fill="none" stroke="black" stroke-width="4.0"/>
<path d="M193.04 298.26L193.22 299.85" fill="none" stroke="black" stroke-width="4.0"/>
<path d="M580.69 299.85L580.51 301.43" fill="none" stroke="black" stroke-width="4.0"/>
<path d="M580.51 301.43L579.96 302.94" fill="none" stroke="black" stroke-width="4.0"/>
<path d="M579.96 302.94L579.08 304.27" fill="none" stroke="black" stroke-width="4.0"/>
<path d="M579.08 304.27L577.92 305.37" fill="none" stroke="black" stroke-width="4.0"/>
<path d="M577.92 305.37L576.53 306.17" fill="none" stroke="black" stroke-width="4.0"/>
<path d="M576.53 306.17L575 306.62" fill="none" stroke="black" stroke-width="4.0"/>
<path d="M575 306.62L573.41 306.72" fill="none" stroke="black" stroke-width="4.0"/>
<path d="M573.41 306.72L571.83 306.44" fill="none" stroke="black" stroke-width="4.0"/>
<path d="M571.83 306.44L570.37 305.81" fill="none" stroke="black" stroke-width="4.0"/>
<path d="M570.37 305.81L569.09 304.85" fill="none" stroke="black" stroke-width="4.0"/>
<path d="M569.09 304.85L568.06 303.63" fill="none" stroke="black" stroke-width="4.0"/>
<path d="M568.06 303.63L567.34 302.2" fill="none" stroke="black" stroke-width="4.0"/>
<path d="M567.34 302.2L566.97 300.65" fill="none" stroke="black" stroke-width="4.0"/>
<path d="M566.97 300.65L566.97 299.05Z" fill="none" stroke="black" stroke-width="4.0"/>
<path d="M566.97 299.05L567.34 297.49" fill="none" stroke="black" stroke-width="4.0"/>
<path d="M567.34 297.49L568.06 296.06" fill="none" stroke="black" stroke-width="4.0"/>
<path d="M568.06 296.06L569.09 294.84" fill="none" stroke="black" stroke-width="4.0"/>
<path d="M569.09 294.84L570.37 293.89" fill="none" stroke="black" stroke-width="4.0"/>
<path d="M570.37 293.89L571.83 293.25" fill="none" stroke="black" stroke-width="4.0"/>
<path d="M571.83 293.25L573.41 292.98" fill="none" stroke="black" stroke-width="4.0"/>
<path d="M573.41 292.98L575 293.07" fill="none" stroke="black" stroke-width="4.0"/>
<path d="M575 293.07L576.53 293.53" fill="none" stroke="black" stroke-width="4.0"/>
<path d="M576.53 293.53L577.92 294.33" fill="none" stroke="black" stroke-width="4.0"/>
<path d="M577.92 294.33L579.08 295.42" fill="none" stroke="black" stroke-width="4.0"/>
<path d="M579.08 295.42L579.96 296.76" fill="none" stroke="black" stroke-width="4.0"/>
<path d="M579.96 296.76L580.51 298.26" fill="none" stroke="black" stroke-width="4.0"/>
<path d="M580.51 298.26L580.69 299.85" fill="none" stroke="black" stroke-width="4.0"/>
<path d="M 675.77 190.5 A 19.125 19.125 0 1 0 656.65 171.37" fill="none" stroke="black" stroke-width="4.0"/>
<path d="M656.65 171.37L409.64 171.37" fill="none" stroke="black" stroke-width="4.0"/>
<path d="M 656.65 428.32 A 19.125 19.125 0 1 0 675.77 409.2" fill="none" stroke="black" stroke-width="4.0"/>
<path d="M409.64 428.32L656.65 428.32" fill="none" stroke="black" stroke-width="4.0"/>
<path d="M675.77 409.2L675.77 190.5Z" fill="none" stroke="black" stroke-width="4.0"/>
<path d="M372.94 171.37L144.29 171.37" fill="none" stroke="black" stroke-width="4.0"/>
<path d="M144.29 428.32L372.94 428.32" fill="none" stroke="black" stroke-width="4.0"/>
<path d="M 409.64 171.37 A 18.354 18.354 0 0 0 372.94 171.37" fill="none" stroke="black" stroke-width="4.0"/>
<path d="M 372.94 428.32 A 18.354 18.354 0 0 0 409.64 428.32" fill="none" stroke="black" stroke-width="4.0"/>
<path d="M125.16 190.5L125.16 409.2Z" fill="none" stroke="black" stroke-width="4.0"/>
<path d="M 144.29 171.37 A 19.125 19.125 0 1 0 125.16 190.5" fill="none" stroke="black" stroke-width="4.0"/>
<path d="M 125.16 409.2 A 19.125 19.125 0 1 0 144.29 428.32" fill="none" stroke="black" stroke-width="4.0"/>
<path d="M94.57 458.91L706.36 458.91" fill="none" stroke="black" stroke-width="4.0"/>
<path d="M706.36 458.91L706.36 140.78Z" fill="none" stroke="black" stroke-width="4.0"/>
<path d="M706.36 140.78L94.57 140.78" fill="none" stroke="black" stroke-width="4.0"/>
<path d="M94.57 140.78L94.57 458.91Z" fill="none" stroke="black" stroke-width="4.0"/>
<path d="M106.81 446.68L694.13 446.68" fill="none" stroke="black" stroke-width="4.0"/>
<path d="M694.13 446.68L694.13 153.02Z" fill="none" stroke="black" stroke-width="4.0"/>
<path d="M694.13 153.02L106.81 153.02" fill="none" stroke="black" stroke-width="4.0"/>
<path d="M106.81 153.02L106.81 446.68Z" fill="none" stroke="black" stroke-width="4.0"/>
</svg>