<svg xmlns="http://www.w3.org/2000/svg" version="1.0" preserveAspectRatio="xMidYMid meet" viewBox="397.05 222.9 485.45 513.6">
<metadata>
Created by potrace 1.16, written by Peter Selinger 2001-2019
</metadata>
<g transform="translate(0.000000,960.000000) scale(0.100000,-0.100000)" fill="#fffff" stroke="black" stroke-width="40.0">
<path d="M3980 7325 c0 -25 5 -45 10 -45 6 0 10 14 10 30 0 29 2 30 45 30 l45 0 0 -475 0 -475 65 0 65 0 0 -35 c0 -19 -5 -44 -11 -54 -7 -10 -9 -30 -5 -44 5 -22 12 -27 36 -27 l30 0 0 -1780 c0 -1576 -2 -1780 -15 -1780 -10 0 -15 -11 -15 -35 l0 -35 -64 0 c-97 0 -96 -3 -96 214 0 137 3 186 13 194 7 6 35 12 62 14 l50 3 3 54 3 54 -70 -6 c-80 -7 -120 -26 -147 -71 -16 -26 -19 -56 -22 -201 -5 -226 1 -267 43 -314 33 -36 34 -36 129 -39 l96 -4 0 -39 c0 -28 4 -39 15 -39 11 0 15 -19 17 -93 l3 -92 160 2 c393 6 825 85 1231 224 1402 479 2442 1657 2749 3112 47 222 85 532 85 687 -1 119 -17 61 -23 -85 -19 -405 -126 -878 -298 -1310 -61 -155 -202 -436 -299 -595 -574 -948 -1500 -1629 -2574 -1895 -254 -63 -518 -104 -753 -118 -59 -3 -63 -2 -63 19 0 20 4 22 39 17 23 -3 41 -1 45 6 4 6 18 11 32 11 l24 0 0 855 c0 753 -2 855 -15 855 -13 0 -15 52 -15 410 l0 410 30 0 30 0 0 610 0 610 -85 0 -84 0 -3 133 -3 132 -107 3 -108 3 0 65 c0 48 -4 66 -15 70 -11 5 -15 22 -15 70 l0 64 40 0 41 0 -3 127 c-2 104 -6 128 -18 131 -13 2 -15 -14 -12 -112 l4 -115 -34 -3 -33 -3 -3 -107 -3 -108 -44 0 -45 0 0 465 0 465 45 0 45 0 0 -105 0 -105 36 0 35 0 -1 -112 c-2 -140 -3 -133 15 -118 13 11 15 35 13 134 l-3 121 -37 3 -38 3 0 105 0 104 -130 0 -130 0 0 -45z m473 -1097 c4 -46 7 -920 7 -1943 0 -1023 -3 -1897 -7 -1942 l-6 -83 -78 0 -79 0 0 2025 0 2025 79 0 78 0 6 -82z m197 -773 l0 -595 -25 0 -25 0 0 255 c0 220 2 255 15 255 11 0 15 12 15 50 l0 50 -38 0 c-38 0 -38 0 -34 38 3 33 -1 44 -32 77 l-36 38 0 213 0 214 80 0 80 0 0 -595z m-90 -340 l0 -255 -35 0 -35 0 0 219 c0 237 9 291 50 291 19 0 20 -7 20 -255z m0 -715 l0 -440 -35 0 -35 0 0 440 0 440 35 0 35 0 0 -440z m0 -1190 l0 -730 -35 0 -35 0 0 730 0 730 35 0 35 0 0 -730z m50 -12 c0 -484 -4 -738 -10 -728 -13 21 -13 1470 0 1470 7 0 10 -254 10 -742z m-420 -123 c0 -35 0 -35 -45 -35 -32 0 -51 -6 -65 -20 -19 -19 -20 -33 -20 -210 0 -231 -1 -230 110 -230 l70 0 0 -36 0 -37 -79 5 c-88 5 -120 20 -151 71 -18 29 -20 51 -20 227 0 170 2 200 18 229 24 45 74 71 134 71 l48 0 0 -35z"/>
<path d="M8560 7265 l0 -105 -35 0 -36 0 3 -132 c2 -75 7 -132 12 -130 5 1 8 53 7 117 l-2 115 35 0 36 0 0 105 0 105 50 0 50 0 0 -465 0 -465 -50 0 -50 0 0 110 0 110 -36 0 -36 0 4 115 c2 87 0 115 -9 115 -10 0 -13 -33 -13 -130 l0 -130 35 0 35 0 0 -105 0 -105 75 0 75 0 0 475 0 475 45 0 c44 0 45 -1 45 -31 0 -20 4 -29 13 -26 7 2 12 20 12 43 l0 39 -132 3 -133 3 0 -106z"/>
</g>
</svg>