<svg xmlns="http://www.w3.org/2000/svg" xmlns:ev="http://www.w3.org/2001/xml-events" xmlns:xlink="http://www.w3.org/1999/xlink" baseProfile="full" version="1.1" viewBox="-461.64 186.37 323.11 427.17">
	<defs/>
	<path d="M -152.66999999999996,602.87 A 3.469,3.469 0.0 0,0 -149.19999999999996,599.37" fill="none" stroke="black" stroke-width="4.0"/>
	<path d="M -149.19999999999996,599.43 L -149.19999999999996,540.46" fill="none" stroke="black" stroke-width="4.0"/>
	<path d="M -149.19999999999996,593.06 L -149.86999999999998,593.22" fill="none" stroke="black" stroke-width="4.0"/>
	<path d="M -159.00999999999996,602.87 L -158.83999999999997,602.2" fill="none" stroke="black" stroke-width="4.0"/>
	<path d="M -150.92999999999998,592.87 A 1.041,1.041 0.0 0,0 -149.86999999999998,593.22" fill="none" stroke="black" stroke-width="4.0"/>
	<path d="M -158.83999999999997,602.2 A 1.041,1.041 0.0 0,0 -159.19999999999996,601.14" fill="none" stroke="black" stroke-width="4.0"/>
	<path d="M -150.92999999999998,564.38 L -187.68999999999997,601.14" fill="none" stroke="black" stroke-width="4.0"/>
	<path d="M -150.92999999999998,574.19 L -177.87999999999997,601.14" fill="none" stroke="black" stroke-width="4.0"/>
	<path d="M -150.92999999999998,584.0 L -168.06999999999996,601.14" fill="none" stroke="black" stroke-width="4.0"/>
	<path d="M -150.92999999999998,540.45 L -150.92999999999998,592.87" fill="none" stroke="black" stroke-width="4.0"/>
	<path d="M -150.92999999999998,540.45 A 3.469,3.469 0.0 0,0 -156.85999999999999,538.0" fill="none" stroke="black" stroke-width="4.0"/>
	<path d="M -149.19999999999996,540.45 A 5.203,5.203 0.0 0,0 -158.07999999999998,536.77" fill="none" stroke="black" stroke-width="4.0"/>
	<path d="M -158.07999999999998,536.77 L -215.29999999999998,593.99" fill="none" stroke="black" stroke-width="4.0"/>
	<path d="M -156.85999999999999,538.0 L -214.06999999999996,595.21" fill="none" stroke="black" stroke-width="4.0"/>
	<path d="M -150.92999999999998,544.76 L -207.30999999999997,601.14" fill="none" stroke="black" stroke-width="4.0"/>
	<path d="M -150.92999999999998,554.57 L -197.49999999999997,601.14" fill="none" stroke="black" stroke-width="4.0"/>
	<path d="M -159.19999999999996,601.14 L -211.61999999999998,601.14 L -159.19999999999996,601.14" fill="none" stroke="black" stroke-width="4.0"/>
	<path d="M -214.06999999999996,595.21 A 3.469,3.469 0.0 0,0 -211.61999999999998,601.14" fill="none" stroke="black" stroke-width="4.0"/>
	<path d="M -215.29999999999998,593.99 A 5.203,5.203 0.0 0,0 -211.61999999999998,602.87" fill="none" stroke="black" stroke-width="4.0"/>
	<path d="M -152.66999999999996,602.87 L -211.61999999999998,602.87 L -152.66999999999996,602.87" fill="none" stroke="black" stroke-width="4.0"/>
	<path d="M -212.45999999999998,557.74 L -214.97999999999996,557.55" fill="none" stroke="black" stroke-width="4.0"/>
	<path d="M -214.97999999999996,557.55 L -217.43999999999997,556.97" fill="none" stroke="black" stroke-width="4.0"/>
	<path d="M -217.43999999999997,556.97 L -219.77999999999997,556.03" fill="none" stroke="black" stroke-width="4.0"/>
	<path d="M -219.77999999999997,556.03 L -221.93999999999997,554.74" fill="none" stroke="black" stroke-width="4.0"/>
	<path d="M -221.93999999999997,554.74 L -223.88999999999996,553.14" fill="none" stroke="black" stroke-width="4.0"/>
	<path d="M -223.88999999999996,553.14 L -225.56999999999996,551.25" fill="none" stroke="black" stroke-width="4.0"/>
	<path d="M -225.56999999999996,551.25 L -226.93999999999997,549.14" fill="none" stroke="black" stroke-width="4.0"/>
	<path d="M -226.93999999999997,549.14 L -227.96999999999997,546.84" fill="none" stroke="black" stroke-width="4.0"/>
	<path d="M -227.96999999999997,546.84 L -228.63999999999996,544.4" fill="none" stroke="black" stroke-width="4.0"/>
	<path d="M -228.63999999999996,544.4 L -228.92999999999998,541.9" fill="none" stroke="black" stroke-width="4.0"/>
	<path d="M -228.92999999999998,541.9 L -228.82999999999998,539.38" fill="none" stroke="black" stroke-width="4.0"/>
	<path d="M -228.82999999999998,539.38 L -228.34999999999997,536.9" fill="none" stroke="black" stroke-width="4.0"/>
	<path d="M -228.34999999999997,536.9 L -227.49999999999997,534.53" fill="none" stroke="black" stroke-width="4.0"/>
	<path d="M -227.49999999999997,534.53 L -226.28999999999996,532.31" fill="none" stroke="black" stroke-width="4.0"/>
	<path d="M -226.28999999999996,532.31 L -224.75999999999996,530.3" fill="none" stroke="black" stroke-width="4.0"/>
	<path d="M -224.75999999999996,530.3 L -222.94999999999996,528.56" fill="none" stroke="black" stroke-width="4.0"/>
	<path d="M -222.94999999999996,528.56 L -220.87999999999997,527.1" fill="none" stroke="black" stroke-width="4.0"/>
	<path d="M -220.87999999999997,527.1 L -218.61999999999998,525.98" fill="none" stroke="black" stroke-width="4.0"/>
	<path d="M -218.61999999999998,525.98 L -216.21999999999997,525.22" fill="none" stroke="black" stroke-width="4.0"/>
	<path d="M -216.21999999999997,525.22 L -213.72999999999996,524.84" fill="none" stroke="black" stroke-width="4.0"/>
	<path d="M -213.72999999999996,524.84 L -211.19999999999996,524.84 L -213.72999999999996,524.84" fill="none" stroke="black" stroke-width="4.0"/>
	<path d="M -211.19999999999996,524.84 L -208.70999999999998,525.22" fill="none" stroke="black" stroke-width="4.0"/>
	<path d="M -208.70999999999998,525.22 L -206.30999999999997,525.98" fill="none" stroke="black" stroke-width="4.0"/>
	<path d="M -206.30999999999997,525.98 L -204.03999999999996,527.1" fill="none" stroke="black" stroke-width="4.0"/>
	<path d="M -204.03999999999996,527.1 L -201.97999999999996,528.56" fill="none" stroke="black" stroke-width="4.0"/>
	<path d="M -201.97999999999996,528.56 L -200.15999999999997,530.3" fill="none" stroke="black" stroke-width="4.0"/>
	<path d="M -200.15999999999997,530.3 L -198.63999999999996,532.31" fill="none" stroke="black" stroke-width="4.0"/>
	<path d="M -198.63999999999996,532.31 L -197.42999999999998,534.53" fill="none" stroke="black" stroke-width="4.0"/>
	<path d="M -197.42999999999998,534.53 L -196.57999999999998,536.9" fill="none" stroke="black" stroke-width="4.0"/>
	<path d="M -196.57999999999998,536.9 L -196.09999999999997,539.38" fill="none" stroke="black" stroke-width="4.0"/>
	<path d="M -196.09999999999997,539.38 L -195.99999999999997,541.9" fill="none" stroke="black" stroke-width="4.0"/>
	<path d="M -195.99999999999997,541.9 L -196.28999999999996,544.4" fill="none" stroke="black" stroke-width="4.0"/>
	<path d="M -196.28999999999996,544.4 L -196.95999999999998,546.84" fill="none" stroke="black" stroke-width="4.0"/>
	<path d="M -196.95999999999998,546.84 L -197.98999999999998,549.14" fill="none" stroke="black" stroke-width="4.0"/>
	<path d="M -197.98999999999998,549.14 L -199.35999999999999,551.25" fill="none" stroke="black" stroke-width="4.0"/>
	<path d="M -199.35999999999999,551.25 L -201.03999999999996,553.14" fill="none" stroke="black" stroke-width="4.0"/>
	<path d="M -201.03999999999996,553.14 L -202.98999999999998,554.74" fill="none" stroke="black" stroke-width="4.0"/>
	<path d="M -202.98999999999998,554.74 L -205.14999999999998,556.03" fill="none" stroke="black" stroke-width="4.0"/>
	<path d="M -205.14999999999998,556.03 L -207.48999999999998,556.97" fill="none" stroke="black" stroke-width="4.0"/>
	<path d="M -207.48999999999998,556.97 L -209.94999999999996,557.55" fill="none" stroke="black" stroke-width="4.0"/>
	<path d="M -209.94999999999996,557.55 L -212.45999999999998,557.74" fill="none" stroke="black" stroke-width="4.0"/>
	<path d="M -210.16999999999996,552.3 L -211.03999999999996,552.3 L -210.16999999999996,552.3" fill="none" stroke="black" stroke-width="4.0"/>
	<path d="M -213.19999999999996,552.3 L -214.28999999999996,552.3 L -213.19999999999996,552.3" fill="none" stroke="black" stroke-width="4.0"/>
	<path d="M -206.69999999999996,550.43 L -207.77999999999997,550.43 L -206.69999999999996,550.43" fill="none" stroke="black" stroke-width="4.0"/>
	<path d="M -209.94999999999996,550.43 L -211.03999999999996,550.43 L -209.94999999999996,550.43" fill="none" stroke="black" stroke-width="4.0"/>
	<path d="M -213.19999999999996,550.43 L -214.28999999999996,550.43 L -213.19999999999996,550.43" fill="none" stroke="black" stroke-width="4.0"/>
	<path d="M -216.44999999999996,550.43 L -217.53999999999996,550.43 L -216.44999999999996,550.43" fill="none" stroke="black" stroke-width="4.0"/>
	<path d="M -203.85999999999999,548.55 L -204.52999999999997,548.55 L -203.85999999999999,548.55" fill="none" stroke="black" stroke-width="4.0"/>
	<path d="M -206.69999999999996,548.55 L -207.77999999999997,548.55 L -206.69999999999996,548.55" fill="none" stroke="black" stroke-width="4.0"/>
	<path d="M -209.94999999999996,548.55 L -211.03999999999996,548.55 L -209.94999999999996,548.55" fill="none" stroke="black" stroke-width="4.0"/>
	<path d="M -213.19999999999996,548.55 L -214.28999999999996,548.55 L -213.19999999999996,548.55" fill="none" stroke="black" stroke-width="4.0"/>
	<path d="M -216.44999999999996,548.55 L -217.53999999999996,548.55 L -216.44999999999996,548.55" fill="none" stroke="black" stroke-width="4.0"/>
	<path d="M -219.70999999999998,548.55 L -220.78999999999996,548.55 L -219.70999999999998,548.55" fill="none" stroke="black" stroke-width="4.0"/>
	<path d="M -203.44999999999996,546.67 L -204.52999999999997,546.67 L -203.44999999999996,546.67" fill="none" stroke="black" stroke-width="4.0"/>
	<path d="M -206.69999999999996,546.67 L -207.77999999999997,546.67 L -206.69999999999996,546.67" fill="none" stroke="black" stroke-width="4.0"/>
	<path d="M -209.94999999999996,546.67 L -211.03999999999996,546.67 L -209.94999999999996,546.67" fill="none" stroke="black" stroke-width="4.0"/>
	<path d="M -213.19999999999996,546.67 L -214.28999999999996,546.67 L -213.19999999999996,546.67" fill="none" stroke="black" stroke-width="4.0"/>
	<path d="M -216.44999999999996,546.67 L -217.53999999999996,546.67 L -216.44999999999996,546.67" fill="none" stroke="black" stroke-width="4.0"/>
	<path d="M -219.70999999999998,546.67 L -220.78999999999996,546.67 L -219.70999999999998,546.67" fill="none" stroke="black" stroke-width="4.0"/>
	<path d="M -203.44999999999996,544.79 L -204.52999999999997,544.79 L -203.44999999999996,544.79" fill="none" stroke="black" stroke-width="4.0"/>
	<path d="M -206.69999999999996,544.79 L -207.77999999999997,544.79 L -206.69999999999996,544.79" fill="none" stroke="black" stroke-width="4.0"/>
	<path d="M -209.94999999999996,544.79 L -211.03999999999996,544.79 L -209.94999999999996,544.79" fill="none" stroke="black" stroke-width="4.0"/>
	<path d="M -213.19999999999996,544.79 L -214.28999999999996,544.79 L -213.19999999999996,544.79" fill="none" stroke="black" stroke-width="4.0"/>
	<path d="M -216.44999999999996,544.79 L -217.53999999999996,544.79 L -216.44999999999996,544.79" fill="none" stroke="black" stroke-width="4.0"/>
	<path d="M -219.70999999999998,544.79 L -220.78999999999996,544.79 L -219.70999999999998,544.79" fill="none" stroke="black" stroke-width="4.0"/>
	<path d="M -222.95999999999998,544.79 L -223.16999999999996,544.79 L -222.95999999999998,544.79" fill="none" stroke="black" stroke-width="4.0"/>
	<path d="M -203.44999999999996,542.92 L -204.52999999999997,542.92 L -203.44999999999996,542.92" fill="none" stroke="black" stroke-width="4.0"/>
	<path d="M -206.69999999999996,542.92 L -207.77999999999997,542.92 L -206.69999999999996,542.92" fill="none" stroke="black" stroke-width="4.0"/>
	<path d="M -209.94999999999996,542.92 L -211.03999999999996,542.92 L -209.94999999999996,542.92" fill="none" stroke="black" stroke-width="4.0"/>
	<path d="M -213.19999999999996,542.92 L -214.28999999999996,542.92 L -213.19999999999996,542.92" fill="none" stroke="black" stroke-width="4.0"/>
	<path d="M -216.44999999999996,542.92 L -217.53999999999996,542.92 L -216.44999999999996,542.92" fill="none" stroke="black" stroke-width="4.0"/>
	<path d="M -219.70999999999998,542.92 L -220.78999999999996,542.92 L -219.70999999999998,542.92" fill="none" stroke="black" stroke-width="4.0"/>
	<path d="M -222.95999999999998,542.92 L -223.61999999999998,542.92 L -222.95999999999998,542.92" fill="none" stroke="black" stroke-width="4.0"/>
	<path d="M -201.18999999999997,541.04 L -201.27999999999997,541.04 L -201.18999999999997,541.04" fill="none" stroke="black" stroke-width="4.0"/>
	<path d="M -203.44999999999996,541.04 L -204.52999999999997,541.04 L -203.44999999999996,541.04" fill="none" stroke="black" stroke-width="4.0"/>
	<path d="M -206.69999999999996,541.04 L -207.77999999999997,541.04 L -206.69999999999996,541.04" fill="none" stroke="black" stroke-width="4.0"/>
	<path d="M -209.94999999999996,541.04 L -211.03999999999996,541.04 L -209.94999999999996,541.04" fill="none" stroke="black" stroke-width="4.0"/>
	<path d="M -213.19999999999996,541.04 L -214.28999999999996,541.04 L -213.19999999999996,541.04" fill="none" stroke="black" stroke-width="4.0"/>
	<path d="M -216.44999999999996,541.04 L -217.53999999999996,541.04 L -216.44999999999996,541.04" fill="none" stroke="black" stroke-width="4.0"/>
	<path d="M -219.70999999999998,541.04 L -220.78999999999996,541.04 L -219.70999999999998,541.04" fill="none" stroke="black" stroke-width="4.0"/>
	<path d="M -222.95999999999998,541.04 L -223.73999999999998,541.04 L -222.95999999999998,541.04" fill="none" stroke="black" stroke-width="4.0"/>
	<path d="M -203.44999999999996,539.16 L -204.52999999999997,539.16 L -203.44999999999996,539.16" fill="none" stroke="black" stroke-width="4.0"/>
	<path d="M -206.69999999999996,539.16 L -207.77999999999997,539.16 L -206.69999999999996,539.16" fill="none" stroke="black" stroke-width="4.0"/>
	<path d="M -209.94999999999996,539.16 L -211.03999999999996,539.16 L -209.94999999999996,539.16" fill="none" stroke="black" stroke-width="4.0"/>
	<path d="M -213.19999999999996,539.16 L -214.28999999999996,539.16 L -213.19999999999996,539.16" fill="none" stroke="black" stroke-width="4.0"/>
	<path d="M -216.44999999999996,539.16 L -217.53999999999996,539.16 L -216.44999999999996,539.16" fill="none" stroke="black" stroke-width="4.0"/>
	<path d="M -219.70999999999998,539.16 L -220.78999999999996,539.16 L -219.70999999999998,539.16" fill="none" stroke="black" stroke-width="4.0"/>
	<path d="M -222.95999999999998,539.16 L -223.53999999999996,539.16 L -222.95999999999998,539.16" fill="none" stroke="black" stroke-width="4.0"/>
	<path d="M -203.44999999999996,537.28 L -204.52999999999997,537.28 L -203.44999999999996,537.28" fill="none" stroke="black" stroke-width="4.0"/>
	<path d="M -206.69999999999996,537.28 L -207.77999999999997,537.28 L -206.69999999999996,537.28" fill="none" stroke="black" stroke-width="4.0"/>
	<path d="M -209.94999999999996,537.28 L -211.03999999999996,537.28 L -209.94999999999996,537.28" fill="none" stroke="black" stroke-width="4.0"/>
	<path d="M -213.19999999999996,537.28 L -214.28999999999996,537.28 L -213.19999999999996,537.28" fill="none" stroke="black" stroke-width="4.0"/>
	<path d="M -216.44999999999996,537.28 L -217.53999999999996,537.28 L -216.44999999999996,537.28" fill="none" stroke="black" stroke-width="4.0"/>
	<path d="M -219.70999999999998,537.28 L -220.78999999999996,537.28 L -219.70999999999998,537.28" fill="none" stroke="black" stroke-width="4.0"/>
	<path d="M -222.95999999999998,537.28 L -223.00999999999996,537.28 L -222.95999999999998,537.28" fill="none" stroke="black" stroke-width="4.0"/>
	<path d="M -203.44999999999996,535.41 L -204.52999999999997,535.41 L -203.44999999999996,535.41" fill="none" stroke="black" stroke-width="4.0"/>
	<path d="M -206.69999999999996,535.41 L -207.77999999999997,535.41 L -206.69999999999996,535.41" fill="none" stroke="black" stroke-width="4.0"/>
	<path d="M -209.94999999999996,535.41 L -211.03999999999996,535.41 L -209.94999999999996,535.41" fill="none" stroke="black" stroke-width="4.0"/>
	<path d="M -213.19999999999996,535.41 L -214.28999999999996,535.41 L -213.19999999999996,535.41" fill="none" stroke="black" stroke-width="4.0"/>
	<path d="M -216.44999999999996,535.41 L -217.53999999999996,535.41 L -216.44999999999996,535.41" fill="none" stroke="black" stroke-width="4.0"/>
	<path d="M -219.70999999999998,535.41 L -220.78999999999996,535.41 L -219.70999999999998,535.41" fill="none" stroke="black" stroke-width="4.0"/>
	<path d="M -204.26999999999998,533.53 L -204.52999999999997,533.53 L -204.26999999999998,533.53" fill="none" stroke="black" stroke-width="4.0"/>
	<path d="M -206.69999999999996,533.53 L -207.77999999999997,533.53 L -206.69999999999996,533.53" fill="none" stroke="black" stroke-width="4.0"/>
	<path d="M -209.94999999999996,533.53 L -211.03999999999996,533.53 L -209.94999999999996,533.53" fill="none" stroke="black" stroke-width="4.0"/>
	<path d="M -213.19999999999996,533.53 L -214.28999999999996,533.53 L -213.19999999999996,533.53" fill="none" stroke="black" stroke-width="4.0"/>
	<path d="M -216.44999999999996,533.53 L -217.53999999999996,533.53 L -216.44999999999996,533.53" fill="none" stroke="black" stroke-width="4.0"/>
	<path d="M -219.70999999999998,533.53 L -220.65999999999997,533.53 L -219.70999999999998,533.53" fill="none" stroke="black" stroke-width="4.0"/>
	<path d="M -206.69999999999996,531.65 L -207.77999999999997,531.65 L -206.69999999999996,531.65" fill="none" stroke="black" stroke-width="4.0"/>
	<path d="M -209.94999999999996,531.65 L -211.03999999999996,531.65 L -209.94999999999996,531.65" fill="none" stroke="black" stroke-width="4.0"/>
	<path d="M -213.19999999999996,531.65 L -214.28999999999996,531.65 L -213.19999999999996,531.65" fill="none" stroke="black" stroke-width="4.0"/>
	<path d="M -216.44999999999996,531.65 L -217.53999999999996,531.65 L -216.44999999999996,531.65" fill="none" stroke="black" stroke-width="4.0"/>
	<path d="M -206.69999999999996,531.65 L -206.15999999999997,532.59" fill="none" stroke="black" stroke-width="4.0"/>
	<path d="M -205.06999999999996,534.47 L -204.52999999999997,535.41" fill="none" stroke="black" stroke-width="4.0"/>
	<path d="M -203.44999999999996,537.28 L -202.90999999999997,538.22" fill="none" stroke="black" stroke-width="4.0"/>
	<path d="M -201.81999999999996,540.1 L -201.27999999999997,541.04" fill="none" stroke="black" stroke-width="4.0"/>
	<path d="M -209.60999999999999,530.36 L -209.40999999999997,530.71" fill="none" stroke="black" stroke-width="4.0"/>
	<path d="M -208.32999999999998,532.59 L -207.77999999999997,533.53" fill="none" stroke="black" stroke-width="4.0"/>
	<path d="M -206.69999999999996,535.41 L -206.15999999999997,536.35" fill="none" stroke="black" stroke-width="4.0"/>
	<path d="M -205.06999999999996,538.22 L -204.52999999999997,539.16" fill="none" stroke="black" stroke-width="4.0"/>
	<path d="M -203.44999999999996,541.04 L -202.90999999999997,541.98" fill="none" stroke="black" stroke-width="4.0"/>
	<path d="M -201.81999999999996,543.85 L -201.58999999999997,544.25" fill="none" stroke="black" stroke-width="4.0"/>
	<path d="M -211.57999999999998,530.71 L -211.03999999999996,531.65" fill="none" stroke="black" stroke-width="4.0"/>
	<path d="M -209.94999999999996,533.53 L -209.40999999999997,534.47" fill="none" stroke="black" stroke-width="4.0"/>
	<path d="M -208.32999999999998,536.35 L -207.77999999999997,537.28" fill="none" stroke="black" stroke-width="4.0"/>
	<path d="M -206.69999999999996,539.16 L -206.15999999999997,540.1" fill="none" stroke="black" stroke-width="4.0"/>
	<path d="M -205.06999999999996,541.98 L -204.52999999999997,542.92" fill="none" stroke="black" stroke-width="4.0"/>
	<path d="M -203.44999999999996,544.79 L -202.90999999999997,545.73" fill="none" stroke="black" stroke-width="4.0"/>
	<path d="M -213.19999999999996,531.65 L -212.65999999999997,532.59" fill="none" stroke="black" stroke-width="4.0"/>
	<path d="M -211.57999999999998,534.47 L -211.03999999999996,535.41" fill="none" stroke="black" stroke-width="4.0"/>
	<path d="M -209.94999999999996,537.28 L -209.40999999999997,538.22" fill="none" stroke="black" stroke-width="4.0"/>
	<path d="M -208.32999999999998,540.1 L -207.77999999999997,541.04" fill="none" stroke="black" stroke-width="4.0"/>
	<path d="M -206.69999999999996,542.92 L -206.15999999999997,543.85" fill="none" stroke="black" stroke-width="4.0"/>
	<path d="M -205.06999999999996,545.73 L -204.52999999999997,546.67" fill="none" stroke="black" stroke-width="4.0"/>
	<path d="M -215.99999999999997,530.56 L -215.90999999999997,530.71" fill="none" stroke="black" stroke-width="4.0"/>
	<path d="M -214.82999999999998,532.59 L -214.28999999999996,533.53" fill="none" stroke="black" stroke-width="4.0"/>
	<path d="M -213.19999999999996,535.41 L -212.65999999999997,536.35" fill="none" stroke="black" stroke-width="4.0"/>
	<path d="M -211.57999999999998,538.22 L -211.03999999999996,539.16" fill="none" stroke="black" stroke-width="4.0"/>
	<path d="M -209.94999999999996,541.04 L -209.40999999999997,541.98" fill="none" stroke="black" stroke-width="4.0"/>
	<path d="M -208.32999999999998,543.85 L -207.77999999999997,544.79" fill="none" stroke="black" stroke-width="4.0"/>
	<path d="M -206.69999999999996,546.67 L -206.15999999999997,547.61" fill="none" stroke="black" stroke-width="4.0"/>
	<path d="M -205.06999999999996,549.49 L -204.95999999999998,549.68" fill="none" stroke="black" stroke-width="4.0"/>
	<path d="M -217.73999999999998,531.3 L -217.53999999999996,531.65" fill="none" stroke="black" stroke-width="4.0"/>
	<path d="M -216.44999999999996,533.53 L -215.90999999999997,534.47" fill="none" stroke="black" stroke-width="4.0"/>
	<path d="M -214.82999999999998,536.35 L -214.28999999999996,537.28" fill="none" stroke="black" stroke-width="4.0"/>
	<path d="M -213.19999999999996,539.16 L -212.65999999999997,540.1" fill="none" stroke="black" stroke-width="4.0"/>
	<path d="M -211.57999999999998,541.98 L -211.03999999999996,542.92" fill="none" stroke="black" stroke-width="4.0"/>
	<path d="M -209.94999999999996,544.79 L -209.40999999999997,545.73" fill="none" stroke="black" stroke-width="4.0"/>
	<path d="M -208.32999999999998,547.61 L -207.77999999999997,548.55" fill="none" stroke="black" stroke-width="4.0"/>
	<path d="M -206.69999999999996,550.43 L -206.46999999999997,550.82" fill="none" stroke="black" stroke-width="4.0"/>
	<path d="M -219.31999999999996,532.32 L -219.15999999999997,532.59" fill="none" stroke="black" stroke-width="4.0"/>
	<path d="M -218.07999999999998,534.47 L -217.53999999999996,535.41" fill="none" stroke="black" stroke-width="4.0"/>
	<path d="M -216.44999999999996,537.28 L -215.90999999999997,538.22" fill="none" stroke="black" stroke-width="4.0"/>
	<path d="M -214.82999999999998,540.1 L -214.28999999999996,541.04" fill="none" stroke="black" stroke-width="4.0"/>
	<path d="M -213.19999999999996,542.92 L -212.65999999999997,543.85" fill="none" stroke="black" stroke-width="4.0"/>
	<path d="M -211.57999999999998,545.73 L -211.03999999999996,546.67" fill="none" stroke="black" stroke-width="4.0"/>
	<path d="M -209.94999999999996,548.55 L -209.40999999999997,549.49" fill="none" stroke="black" stroke-width="4.0"/>
	<path d="M -208.32999999999998,551.36 L -208.13999999999996,551.68" fill="none" stroke="black" stroke-width="4.0"/>
	<path d="M -219.70999999999998,535.41 L -219.15999999999997,536.35" fill="none" stroke="black" stroke-width="4.0"/>
	<path d="M -218.07999999999998,538.22 L -217.53999999999996,539.16" fill="none" stroke="black" stroke-width="4.0"/>
	<path d="M -216.44999999999996,541.04 L -215.90999999999997,541.98" fill="none" stroke="black" stroke-width="4.0"/>
	<path d="M -214.82999999999998,543.85 L -214.28999999999996,544.79" fill="none" stroke="black" stroke-width="4.0"/>
	<path d="M -213.19999999999996,546.67 L -212.65999999999997,547.61" fill="none" stroke="black" stroke-width="4.0"/>
	<path d="M -211.57999999999998,549.49 L -211.03999999999996,550.43" fill="none" stroke="black" stroke-width="4.0"/>
	<path d="M -221.32999999999998,536.35 L -220.78999999999996,537.28" fill="none" stroke="black" stroke-width="4.0"/>
	<path d="M -219.70999999999998,539.16 L -219.15999999999997,540.1" fill="none" stroke="black" stroke-width="4.0"/>
	<path d="M -218.07999999999998,541.98 L -217.53999999999996,542.92" fill="none" stroke="black" stroke-width="4.0"/>
	<path d="M -216.44999999999996,544.79 L -215.90999999999997,545.73" fill="none" stroke="black" stroke-width="4.0"/>
	<path d="M -214.82999999999998,547.61 L -214.28999999999996,548.55" fill="none" stroke="black" stroke-width="4.0"/>
	<path d="M -213.19999999999996,550.43 L -212.65999999999997,551.36" fill="none" stroke="black" stroke-width="4.0"/>
	<path d="M -222.95999999999998,537.28 L -222.41999999999996,538.22" fill="none" stroke="black" stroke-width="4.0"/>
	<path d="M -221.32999999999998,540.1 L -220.78999999999996,541.04" fill="none" stroke="black" stroke-width="4.0"/>
	<path d="M -219.70999999999998,542.92 L -219.15999999999997,543.85" fill="none" stroke="black" stroke-width="4.0"/>
	<path d="M -218.07999999999998,545.73 L -217.53999999999996,546.67" fill="none" stroke="black" stroke-width="4.0"/>
	<path d="M -216.44999999999996,548.55 L -215.90999999999997,549.49" fill="none" stroke="black" stroke-width="4.0"/>
	<path d="M -214.82999999999998,551.36 L -214.28999999999996,552.3" fill="none" stroke="black" stroke-width="4.0"/>
	<path d="M -222.95999999999998,541.04 L -222.41999999999996,541.98" fill="none" stroke="black" stroke-width="4.0"/>
	<path d="M -221.32999999999998,543.85 L -220.78999999999996,544.79" fill="none" stroke="black" stroke-width="4.0"/>
	<path d="M -219.70999999999998,546.67 L -219.15999999999997,547.61" fill="none" stroke="black" stroke-width="4.0"/>
	<path d="M -218.07999999999998,549.49 L -217.53999999999996,550.43" fill="none" stroke="black" stroke-width="4.0"/>
	<path d="M -222.95999999999998,544.79 L -222.41999999999996,545.73" fill="none" stroke="black" stroke-width="4.0"/>
	<path d="M -221.32999999999998,547.61 L -220.78999999999996,548.55" fill="none" stroke="black" stroke-width="4.0"/>
	<path d="M -201.31999999999996,542.99 L -201.81999999999996,543.85" fill="none" stroke="black" stroke-width="4.0"/>
	<path d="M -202.90999999999997,545.73 L -203.44999999999996,546.67" fill="none" stroke="black" stroke-width="4.0"/>
	<path d="M -204.52999999999997,548.55 L -205.06999999999996,549.49" fill="none" stroke="black" stroke-width="4.0"/>
	<path d="M -201.35999999999999,539.31 L -201.81999999999996,540.1" fill="none" stroke="black" stroke-width="4.0"/>
	<path d="M -202.90999999999997,541.98 L -203.44999999999996,542.92" fill="none" stroke="black" stroke-width="4.0"/>
	<path d="M -204.52999999999997,544.79 L -205.06999999999996,545.73" fill="none" stroke="black" stroke-width="4.0"/>
	<path d="M -206.15999999999997,547.61 L -206.69999999999996,548.55" fill="none" stroke="black" stroke-width="4.0"/>
	<path d="M -207.77999999999997,550.43 L -208.32999999999998,551.36" fill="none" stroke="black" stroke-width="4.0"/>
	<path d="M -202.90999999999997,538.22 L -203.44999999999996,539.16" fill="none" stroke="black" stroke-width="4.0"/>
	<path d="M -204.52999999999997,541.04 L -205.06999999999996,541.98" fill="none" stroke="black" stroke-width="4.0"/>
	<path d="M -206.15999999999997,543.85 L -206.69999999999996,544.79" fill="none" stroke="black" stroke-width="4.0"/>
	<path d="M -207.77999999999997,546.67 L -208.32999999999998,547.61" fill="none" stroke="black" stroke-width="4.0"/>
	<path d="M -209.40999999999997,549.49 L -209.94999999999996,550.43" fill="none" stroke="black" stroke-width="4.0"/>
	<path d="M -211.03999999999996,552.3 L -211.12999999999997,552.46" fill="none" stroke="black" stroke-width="4.0"/>
	<path d="M -203.15999999999997,534.9 L -203.44999999999996,535.41" fill="none" stroke="black" stroke-width="4.0"/>
	<path d="M -204.52999999999997,537.28 L -205.06999999999996,538.22" fill="none" stroke="black" stroke-width="4.0"/>
	<path d="M -206.15999999999997,540.1 L -206.69999999999996,541.04" fill="none" stroke="black" stroke-width="4.0"/>
	<path d="M -207.77999999999997,542.92 L -208.32999999999998,543.85" fill="none" stroke="black" stroke-width="4.0"/>
	<path d="M -209.40999999999997,545.73 L -209.94999999999996,546.67" fill="none" stroke="black" stroke-width="4.0"/>
	<path d="M -211.03999999999996,548.55 L -211.57999999999998,549.49" fill="none" stroke="black" stroke-width="4.0"/>
	<path d="M -212.65999999999997,551.36 L -213.19999999999996,552.3" fill="none" stroke="black" stroke-width="4.0"/>
	<path d="M -204.52999999999997,533.53 L -205.06999999999996,534.47" fill="none" stroke="black" stroke-width="4.0"/>
	<path d="M -206.15999999999997,536.35 L -206.69999999999996,537.28" fill="none" stroke="black" stroke-width="4.0"/>
	<path d="M -207.77999999999997,539.16 L -208.32999999999998,540.1" fill="none" stroke="black" stroke-width="4.0"/>
	<path d="M -209.40999999999997,541.98 L -209.94999999999996,542.92" fill="none" stroke="black" stroke-width="4.0"/>
	<path d="M -211.03999999999996,544.79 L -211.57999999999998,545.73" fill="none" stroke="black" stroke-width="4.0"/>
	<path d="M -212.65999999999997,547.61 L -213.19999999999996,548.55" fill="none" stroke="black" stroke-width="4.0"/>
	<path d="M -214.28999999999996,550.43 L -214.82999999999998,551.36" fill="none" stroke="black" stroke-width="4.0"/>
	<path d="M -206.15999999999997,532.59 L -206.69999999999996,533.53" fill="none" stroke="black" stroke-width="4.0"/>
	<path d="M -207.77999999999997,535.41 L -208.32999999999998,536.35" fill="none" stroke="black" stroke-width="4.0"/>
	<path d="M -209.40999999999997,538.22 L -209.94999999999996,539.16" fill="none" stroke="black" stroke-width="4.0"/>
	<path d="M -211.03999999999996,541.04 L -211.57999999999998,541.98" fill="none" stroke="black" stroke-width="4.0"/>
	<path d="M -212.65999999999997,543.85 L -213.19999999999996,544.79" fill="none" stroke="black" stroke-width="4.0"/>
	<path d="M -214.28999999999996,546.67 L -214.82999999999998,547.61" fill="none" stroke="black" stroke-width="4.0"/>
	<path d="M -215.90999999999997,549.49 L -216.44999999999996,550.43" fill="none" stroke="black" stroke-width="4.0"/>
	<path d="M -207.77999999999997,531.65 L -208.32999999999998,532.59" fill="none" stroke="black" stroke-width="4.0"/>
	<path d="M -209.40999999999997,534.47 L -209.94999999999996,535.41" fill="none" stroke="black" stroke-width="4.0"/>
	<path d="M -211.03999999999996,537.28 L -211.57999999999998,538.22" fill="none" stroke="black" stroke-width="4.0"/>
	<path d="M -212.65999999999997,540.1 L -213.19999999999996,541.04" fill="none" stroke="black" stroke-width="4.0"/>
	<path d="M -214.28999999999996,542.92 L -214.82999999999998,543.85" fill="none" stroke="black" stroke-width="4.0"/>
	<path d="M -215.90999999999997,545.73 L -216.44999999999996,546.67" fill="none" stroke="black" stroke-width="4.0"/>
	<path d="M -217.53999999999996,548.55 L -218.07999999999998,549.49" fill="none" stroke="black" stroke-width="4.0"/>
	<path d="M -209.40999999999997,530.71 L -209.94999999999996,531.65" fill="none" stroke="black" stroke-width="4.0"/>
	<path d="M -211.03999999999996,533.53 L -211.57999999999998,534.47" fill="none" stroke="black" stroke-width="4.0"/>
	<path d="M -212.65999999999997,536.35 L -213.19999999999996,537.28" fill="none" stroke="black" stroke-width="4.0"/>
	<path d="M -214.28999999999996,539.16 L -214.82999999999998,540.1" fill="none" stroke="black" stroke-width="4.0"/>
	<path d="M -215.90999999999997,541.98 L -216.44999999999996,542.92" fill="none" stroke="black" stroke-width="4.0"/>
	<path d="M -217.53999999999996,544.79 L -218.07999999999998,545.73" fill="none" stroke="black" stroke-width="4.0"/>
	<path d="M -219.15999999999997,547.61 L -219.70999999999998,548.55" fill="none" stroke="black" stroke-width="4.0"/>
	<path d="M -211.19999999999996,530.06 L -211.57999999999998,530.71" fill="none" stroke="black" stroke-width="4.0"/>
	<path d="M -212.65999999999997,532.59 L -213.19999999999996,533.53" fill="none" stroke="black" stroke-width="4.0"/>
	<path d="M -214.28999999999996,535.41 L -214.82999999999998,536.35" fill="none" stroke="black" stroke-width="4.0"/>
	<path d="M -215.90999999999997,538.22 L -216.44999999999996,539.16" fill="none" stroke="black" stroke-width="4.0"/>
	<path d="M -217.53999999999996,541.04 L -218.07999999999998,541.98" fill="none" stroke="black" stroke-width="4.0"/>
	<path d="M -219.15999999999997,543.85 L -219.70999999999998,544.79" fill="none" stroke="black" stroke-width="4.0"/>
	<path d="M -220.78999999999996,546.67 L -221.32999999999998,547.61" fill="none" stroke="black" stroke-width="4.0"/>
	<path d="M -214.28999999999996,531.65 L -214.82999999999998,532.59" fill="none" stroke="black" stroke-width="4.0"/>
	<path d="M -215.90999999999997,534.47 L -216.44999999999996,535.41" fill="none" stroke="black" stroke-width="4.0"/>
	<path d="M -217.53999999999996,537.28 L -218.07999999999998,538.22" fill="none" stroke="black" stroke-width="4.0"/>
	<path d="M -219.15999999999997,540.1 L -219.70999999999998,541.04" fill="none" stroke="black" stroke-width="4.0"/>
	<path d="M -220.78999999999996,542.92 L -221.32999999999998,543.85" fill="none" stroke="black" stroke-width="4.0"/>
	<path d="M -222.41999999999996,545.73 L -222.63999999999996,546.12" fill="none" stroke="black" stroke-width="4.0"/>
	<path d="M -215.90999999999997,530.71 L -216.44999999999996,531.65" fill="none" stroke="black" stroke-width="4.0"/>
	<path d="M -217.53999999999996,533.53 L -218.07999999999998,534.47" fill="none" stroke="black" stroke-width="4.0"/>
	<path d="M -219.15999999999997,536.35 L -219.70999999999998,537.28" fill="none" stroke="black" stroke-width="4.0"/>
	<path d="M -220.78999999999996,539.16 L -221.32999999999998,540.1" fill="none" stroke="black" stroke-width="4.0"/>
	<path d="M -222.41999999999996,541.98 L -222.95999999999998,542.92" fill="none" stroke="black" stroke-width="4.0"/>
	<path d="M -219.15999999999997,532.59 L -219.70999999999998,533.53" fill="none" stroke="black" stroke-width="4.0"/>
	<path d="M -220.78999999999996,535.41 L -221.32999999999998,536.35" fill="none" stroke="black" stroke-width="4.0"/>
	<path d="M -222.41999999999996,538.22 L -222.95999999999998,539.16" fill="none" stroke="black" stroke-width="4.0"/>
	<path d="M -212.45999999999998,552.54 L -214.53999999999996,552.35" fill="none" stroke="black" stroke-width="4.0"/>
	<path d="M -214.53999999999996,552.35 L -216.53999999999996,551.78" fill="none" stroke="black" stroke-width="4.0"/>
	<path d="M -216.53999999999996,551.78 L -218.39999999999998,550.85" fill="none" stroke="black" stroke-width="4.0"/>
	<path d="M -218.39999999999998,550.85 L -220.05999999999997,549.6" fill="none" stroke="black" stroke-width="4.0"/>
	<path d="M -220.05999999999997,549.6 L -221.45999999999998,548.06" fill="none" stroke="black" stroke-width="4.0"/>
	<path d="M -221.45999999999998,548.06 L -222.55999999999997,546.29" fill="none" stroke="black" stroke-width="4.0"/>
	<path d="M -222.55999999999997,546.29 L -223.30999999999997,544.35" fill="none" stroke="black" stroke-width="4.0"/>
	<path d="M -223.30999999999997,544.35 L -223.68999999999997,542.31" fill="none" stroke="black" stroke-width="4.0"/>
	<path d="M -223.68999999999997,542.31 L -223.68999999999997,540.23" fill="none" stroke="black" stroke-width="4.0"/>
	<path d="M -223.68999999999997,540.23 L -223.30999999999997,538.18" fill="none" stroke="black" stroke-width="4.0"/>
	<path d="M -223.30999999999997,538.18 L -222.55999999999997,536.24" fill="none" stroke="black" stroke-width="4.0"/>
	<path d="M -222.55999999999997,536.24 L -221.45999999999998,534.47" fill="none" stroke="black" stroke-width="4.0"/>
	<path d="M -221.45999999999998,534.47 L -220.05999999999997,532.94" fill="none" stroke="black" stroke-width="4.0"/>
	<path d="M -220.05999999999997,532.94 L -218.39999999999998,531.68" fill="none" stroke="black" stroke-width="4.0"/>
	<path d="M -218.39999999999998,531.68 L -216.53999999999996,530.75" fill="none" stroke="black" stroke-width="4.0"/>
	<path d="M -216.53999999999996,530.75 L -214.53999999999996,530.19" fill="none" stroke="black" stroke-width="4.0"/>
	<path d="M -214.53999999999996,530.19 L -212.45999999999998,529.99" fill="none" stroke="black" stroke-width="4.0"/>
	<path d="M -212.45999999999998,529.99 L -210.38999999999996,530.19" fill="none" stroke="black" stroke-width="4.0"/>
	<path d="M -210.38999999999996,530.19 L -208.38999999999996,530.75" fill="none" stroke="black" stroke-width="4.0"/>
	<path d="M -208.38999999999996,530.75 L -206.52999999999997,531.68" fill="none" stroke="black" stroke-width="4.0"/>
	<path d="M -206.52999999999997,531.68 L -204.86999999999998,532.94" fill="none" stroke="black" stroke-width="4.0"/>
	<path d="M -204.86999999999998,532.94 L -203.46999999999997,534.47" fill="none" stroke="black" stroke-width="4.0"/>
	<path d="M -203.46999999999997,534.47 L -202.36999999999998,536.24" fill="none" stroke="black" stroke-width="4.0"/>
	<path d="M -202.36999999999998,536.24 L -201.61999999999998,538.18" fill="none" stroke="black" stroke-width="4.0"/>
	<path d="M -201.61999999999998,538.18 L -201.23999999999998,540.23" fill="none" stroke="black" stroke-width="4.0"/>
	<path d="M -201.23999999999998,540.23 L -201.23999999999998,542.31" fill="none" stroke="black" stroke-width="4.0"/>
	<path d="M -201.23999999999998,542.31 L -201.61999999999998,544.35" fill="none" stroke="black" stroke-width="4.0"/>
	<path d="M -201.61999999999998,544.35 L -202.36999999999998,546.29" fill="none" stroke="black" stroke-width="4.0"/>
	<path d="M -202.36999999999998,546.29 L -203.46999999999997,548.06" fill="none" stroke="black" stroke-width="4.0"/>
	<path d="M -203.46999999999997,548.06 L -204.86999999999998,549.6" fill="none" stroke="black" stroke-width="4.0"/>
	<path d="M -204.86999999999998,549.6 L -206.52999999999997,550.85" fill="none" stroke="black" stroke-width="4.0"/>
	<path d="M -206.52999999999997,550.85 L -208.38999999999996,551.78" fill="none" stroke="black" stroke-width="4.0"/>
	<path d="M -208.38999999999996,551.78 L -210.38999999999996,552.35" fill="none" stroke="black" stroke-width="4.0"/>
	<path d="M -210.38999999999996,552.35 L -212.45999999999998,552.54" fill="none" stroke="black" stroke-width="4.0"/>
	<path d="M -327.89,423.74 L -327.88999999999993,602.87" fill="none" stroke="black" stroke-width="4.0"/>
	<path d="M -314.18,423.74 L -314.17999999999995,602.87" fill="none" stroke="black" stroke-width="4.0"/>
	<path d="M -314.18,455.04 L -327.89,455.04 L -314.18,455.04" fill="none" stroke="black" stroke-width="4.0"/>
	<path d="M -314.18,446.18 L -327.89,446.18 L -314.18,446.18" fill="none" stroke="black" stroke-width="4.0"/>
	<path d="M -314.18,439.09 L -327.89,439.09 L -314.18,439.09" fill="none" stroke="black" stroke-width="4.0"/>
	<path d="M -314.18,434.41 L -327.89,434.41 L -314.18,434.41" fill="none" stroke="black" stroke-width="4.0"/>
	<path d="M -314.18,431.12 L -327.89,431.12 L -314.18,431.12" fill="none" stroke="black" stroke-width="4.0"/>
	<path d="M -314.18,428.84 L -327.89,428.84 L -314.18,428.84" fill="none" stroke="black" stroke-width="4.0"/>
	<path d="M -314.17999999999995,475.31 A 52.029,52.029 0.0 1,0 -327.88999999999993,475.31" fill="none" stroke="black" stroke-width="4.0"/>
	<path d="M -314.18,423.74 A 6.85499999999999,6.85499999999999 0.0 0,0 -327.89,423.74" fill="none" stroke="black" stroke-width="4.0"/>
	<path d="M -337.43999999999994,599.73 L -327.88999999999993,599.73 L -337.43999999999994,599.73" fill="none" stroke="black" stroke-width="4.0"/>
	<path d="M -337.43999999999994,602.87 L -337.43999999999994,599.73" fill="none" stroke="black" stroke-width="4.0"/>
	<path d="M -337.43999999999994,602.87 L -320.09999999999997,602.87 L -337.43999999999994,602.87" fill="none" stroke="black" stroke-width="4.0"/>
	<path d="M -333.8399999999999,597.13 L -327.88999999999993,597.13 L -333.8399999999999,597.13" fill="none" stroke="black" stroke-width="4.0"/>
	<path d="M -337.43999999999994,599.73 L -333.8399999999999,597.13" fill="none" stroke="black" stroke-width="4.0"/>
	<path d="M -333.1499999999999,595.39 L -327.88999999999993,595.39 L -333.1499999999999,595.39" fill="none" stroke="black" stroke-width="4.0"/>
	<path d="M -333.1499999999999,597.13 L -333.1499999999999,595.39" fill="none" stroke="black" stroke-width="4.0"/>
	<path d="M -328.7699999999999,597.13 L -328.7699999999999,595.39" fill="none" stroke="black" stroke-width="4.0"/>
	<path d="M -330.49999999999994,597.13 L -330.49999999999994,595.39" fill="none" stroke="black" stroke-width="4.0"/>
	<path d="M -332.23999999999995,597.13 L -332.23999999999995,595.39" fill="none" stroke="black" stroke-width="4.0"/>
	<path d="M -307.81999999999994,599.73 L -290.47999999999996,599.73 L -307.81999999999994,599.73" fill="none" stroke="black" stroke-width="4.0"/>
	<path d="M -307.81999999999994,602.87 L -307.81999999999994,599.73" fill="none" stroke="black" stroke-width="4.0"/>
	<path d="M -307.81999999999994,602.87 L -290.47999999999996,602.87 L -307.81999999999994,602.87" fill="none" stroke="black" stroke-width="4.0"/>
	<path d="M -290.47999999999996,602.87 L -290.47999999999996,599.73" fill="none" stroke="black" stroke-width="4.0"/>
	<path d="M -304.21999999999997,597.13 L -294.0799999999999,597.13 L -304.21999999999997,597.13" fill="none" stroke="black" stroke-width="4.0"/>
	<path d="M -290.47999999999996,599.73 L -294.0799999999999,597.13" fill="none" stroke="black" stroke-width="4.0"/>
	<path d="M -307.81999999999994,599.73 L -304.21999999999997,597.13" fill="none" stroke="black" stroke-width="4.0"/>
	<path d="M -303.5299999999999,595.39 L -294.7699999999999,595.39 L -303.5299999999999,595.39" fill="none" stroke="black" stroke-width="4.0"/>
	<path d="M -294.7699999999999,597.13 L -294.7699999999999,595.39" fill="none" stroke="black" stroke-width="4.0"/>
	<path d="M -303.5299999999999,597.13 L -303.5299999999999,595.39" fill="none" stroke="black" stroke-width="4.0"/>
	<path d="M -299.1499999999999,597.13 L -299.1499999999999,595.39" fill="none" stroke="black" stroke-width="4.0"/>
	<path d="M -297.40999999999997,597.13 L -297.40999999999997,595.39" fill="none" stroke="black" stroke-width="4.0"/>
	<path d="M -295.67999999999995,597.13 L -295.67999999999995,595.39" fill="none" stroke="black" stroke-width="4.0"/>
	<path d="M -300.87999999999994,597.13 L -300.87999999999994,595.39" fill="none" stroke="black" stroke-width="4.0"/>
	<path d="M -302.61999999999995,597.13 L -302.61999999999995,595.39" fill="none" stroke="black" stroke-width="4.0"/>
	<path d="M -310.8399999999999,588.46 L -310.8399999999999,555.16" fill="none" stroke="black" stroke-width="4.0"/>
	<path d="M -330.49999999999994,593.0 L -330.49999999999994,595.39" fill="none" stroke="black" stroke-width="4.0"/>
	<path d="M -314.17999999999995,555.16 L -310.8399999999999,555.16 L -314.17999999999995,555.16" fill="none" stroke="black" stroke-width="4.0"/>
	<path d="M -314.17999999999995,595.39 L -303.5299999999999,595.39 L -314.17999999999995,595.39" fill="none" stroke="black" stroke-width="4.0"/>
	<path d="M -336.12999999999994,602.87 L -336.12999999999994,599.73" fill="none" stroke="black" stroke-width="4.0"/>
	<path d="M -335.05999999999995,602.87 L -335.05999999999995,599.73" fill="none" stroke="black" stroke-width="4.0"/>
	<path d="M -333.42999999999995,602.87 L -333.42999999999995,599.73" fill="none" stroke="black" stroke-width="4.0"/>
	<path d="M -336.86999999999995,602.87 L -336.86999999999995,599.73" fill="none" stroke="black" stroke-width="4.0"/>
	<path d="M -306.50999999999993,602.87 L -306.50999999999993,599.73" fill="none" stroke="black" stroke-width="4.0"/>
	<path d="M -305.43999999999994,602.87 L -305.43999999999994,599.73" fill="none" stroke="black" stroke-width="4.0"/>
	<path d="M -303.80999999999995,602.87 L -303.80999999999995,599.73" fill="none" stroke="black" stroke-width="4.0"/>
	<path d="M -307.24999999999994,602.87 L -307.24999999999994,599.73" fill="none" stroke="black" stroke-width="4.0"/>
	<path d="M -291.78999999999996,602.87 L -291.78999999999996,599.73" fill="none" stroke="black" stroke-width="4.0"/>
	<path d="M -292.84999999999997,602.87 L -292.84999999999997,599.73" fill="none" stroke="black" stroke-width="4.0"/>
	<path d="M -294.48999999999995,602.87 L -294.48999999999995,599.73" fill="none" stroke="black" stroke-width="4.0"/>
	<path d="M -291.04999999999995,602.87 L -291.04999999999995,599.73" fill="none" stroke="black" stroke-width="4.0"/>
	<path d="M -314.17999999999995,588.46 L -310.8399999999999,588.46 L -314.17999999999995,588.46" fill="none" stroke="black" stroke-width="4.0"/>
	<path d="M -329.4599999999999,591.66 L -327.88999999999993,591.25" fill="none" stroke="black" stroke-width="4.0"/>
	<path d="M -329.4599999999999,591.66 A 1.387,1.387 0.0 0,0 -330.49999999999994,593.0" fill="none" stroke="black" stroke-width="4.0"/>
	<path d="M -297.40999999999997,593.0 L -297.40999999999997,595.39" fill="none" stroke="black" stroke-width="4.0"/>
	<path d="M -298.44999999999993,591.66 L -310.8399999999999,588.46" fill="none" stroke="black" stroke-width="4.0"/>
	<path d="M -297.40999999999997,593.0 A 1.387,1.387 0.0 0,0 -298.44999999999993,591.66" fill="none" stroke="black" stroke-width="4.0"/>
	<path d="M -314.17999999999995,566.81 L -313.53999999999996,566.81 L -314.17999999999995,566.81" fill="none" stroke="black" stroke-width="4.0"/>
	<path d="M -310.8399999999999,570.37 L -312.30999999999995,567.56" fill="none" stroke="black" stroke-width="4.0"/>
	<path d="M -312.30999999999995,567.56 A 1.387,1.387 0.0 0,0 -313.53999999999996,566.81" fill="none" stroke="black" stroke-width="4.0"/>
	<path d="M -314.17999999999995,557.66 L -310.8399999999999,557.66 L -314.17999999999995,557.66" fill="none" stroke="black" stroke-width="4.0"/>
	<path d="M -314.17999999999995,561.24 L -310.8399999999999,561.24 L -314.17999999999995,561.24" fill="none" stroke="black" stroke-width="4.0"/>
	<path d="M -314.17999999999995,559.21 L -310.8399999999999,559.21 L -314.17999999999995,559.21" fill="none" stroke="black" stroke-width="4.0"/>
	<path d="M -314.17999999999995,556.44 L -310.8399999999999,556.44 L -314.17999999999995,556.44" fill="none" stroke="black" stroke-width="4.0"/>
	<path d="M -381.73999999999995,593.35 L -381.73999999999995,591.63" fill="none" stroke="black" stroke-width="4.0"/>
	<path d="M -381.38999999999993,591.28 A 0.347,0.347 0.0 0,0 -381.73999999999995,591.63" fill="none" stroke="black" stroke-width="4.0"/>
	<path d="M -385.19999999999993,593.35 L -385.19999999999993,589.52" fill="none" stroke="black" stroke-width="4.0"/>
	<path d="M -383.49999999999994,587.79 A 1.734,1.734 0.0 0,0 -385.19999999999993,589.52" fill="none" stroke="black" stroke-width="4.0"/>
	<path d="M -378.9599999999999,598.55 L -378.9599999999999,595.08" fill="none" stroke="black" stroke-width="4.0"/>
	<path d="M -378.9599999999999,595.08 L -387.97999999999996,595.08 L -378.9599999999999,595.08" fill="none" stroke="black" stroke-width="4.0"/>
	<path d="M -387.97999999999996,595.08 L -387.97999999999996,598.55" fill="none" stroke="black" stroke-width="4.0"/>
	<path d="M -379.99999999999994,595.08 L -379.99999999999994,593.35" fill="none" stroke="black" stroke-width="4.0"/>
	<path d="M -379.99999999999994,593.35 L -386.93999999999994,593.35 L -379.99999999999994,593.35" fill="none" stroke="black" stroke-width="4.0"/>
	<path d="M -386.93999999999994,593.35 L -386.93999999999994,595.08" fill="none" stroke="black" stroke-width="4.0"/>
	<path d="M -361.9599999999999,591.28 L -361.9599999999999,587.81" fill="none" stroke="black" stroke-width="4.0"/>
	<path d="M -381.38999999999993,591.28 L -362.30999999999995,591.63" fill="none" stroke="black" stroke-width="4.0"/>
	<path d="M -383.49999999999994,587.79 L -362.30999999999995,587.46" fill="none" stroke="black" stroke-width="4.0"/>
	<path d="M -361.9599999999999,587.81 A 0.347,0.347 0.0 0,0 -362.30999999999995,587.46" fill="none" stroke="black" stroke-width="4.0"/>
	<path d="M -360.91999999999996,602.87 L -406.0199999999999,602.87 L -360.91999999999996,602.87" fill="none" stroke="black" stroke-width="4.0"/>
	<path d="M -406.0199999999999,602.87 L -406.0199999999999,601.14" fill="none" stroke="black" stroke-width="4.0"/>
	<path d="M -360.91999999999996,602.87 L -360.91999999999996,601.14" fill="none" stroke="black" stroke-width="4.0"/>
	<path d="M -369.47999999999996,598.55 L -397.4599999999999,598.55 L -369.47999999999996,598.55" fill="none" stroke="black" stroke-width="4.0"/>
	<path d="M -406.0199999999999,601.14 L -397.4599999999999,598.55" fill="none" stroke="black" stroke-width="4.0"/>
	<path d="M -360.91999999999996,601.14 L -369.47999999999996,598.55" fill="none" stroke="black" stroke-width="4.0"/>
	<path d="M -362.30999999999995,591.63 A 0.347,0.347 0.0 0,0 -361.9599999999999,591.28" fill="none" stroke="black" stroke-width="4.0"/>
	<path d="M -149.19999999999996,424.28 L -149.19999999999996,452.03" fill="none" stroke="black" stroke-width="4.0"/>
	<path d="M -149.19999999999996,452.03 L -152.66999999999996,452.03 L -149.19999999999996,452.03" fill="none" stroke="black" stroke-width="4.0"/>
	<path d="M -152.66999999999996,452.03 L -152.66999999999996,424.28" fill="none" stroke="black" stroke-width="4.0"/>
	<path d="M -152.66999999999996,424.28 L -149.19999999999996,424.28 L -152.66999999999996,424.28" fill="none" stroke="black" stroke-width="4.0"/>
	<path d="M -149.19999999999996,320.13 L -149.19999999999996,347.88" fill="none" stroke="black" stroke-width="4.0"/>
	<path d="M -149.19999999999996,347.88 L -152.66999999999996,347.88 L -149.19999999999996,347.88" fill="none" stroke="black" stroke-width="4.0"/>
	<path d="M -152.66999999999996,347.88 L -152.66999999999996,320.13" fill="none" stroke="black" stroke-width="4.0"/>
	<path d="M -152.66999999999996,320.13 L -149.19999999999996,320.13 L -152.66999999999996,320.13" fill="none" stroke="black" stroke-width="4.0"/>
	<path d="M -173.47999999999996,430.35 A 3.469,3.469 0.0 0,0 -170.00999999999996,433.82" fill="none" stroke="black" stroke-width="4.0"/>
	<path d="M -182.14999999999998,430.35 A 12.14,12.14 0.0 0,0 -170.00999999999996,442.49" fill="none" stroke="black" stroke-width="4.0"/>
	<path d="M -152.66999999999996,329.67 L -170.00999999999996,329.67 L -152.66999999999996,329.67" fill="none" stroke="black" stroke-width="4.0"/>
	<path d="M -170.00999999999996,338.34 A 3.469,3.469 0.0 0,0 -173.47999999999996,341.81" fill="none" stroke="black" stroke-width="4.0"/>
	<path d="M -170.00999999999996,329.67 A 12.14,12.14 0.0 0,0 -182.14999999999998,341.81" fill="none" stroke="black" stroke-width="4.0"/>
	<path d="M -173.47999999999996,430.35 L -173.47999999999996,341.81" fill="none" stroke="black" stroke-width="4.0"/>
	<path d="M -182.14999999999998,430.35 L -182.14999999999998,341.81" fill="none" stroke="black" stroke-width="4.0"/>
	<path d="M -152.66999999999996,433.82 L -170.00999999999996,433.82 L -152.66999999999996,433.82" fill="none" stroke="black" stroke-width="4.0"/>
	<path d="M -152.66999999999996,442.49 L -170.00999999999996,442.49 L -152.66999999999996,442.49" fill="none" stroke="black" stroke-width="4.0"/>
	<path d="M -152.66999999999996,338.34 L -170.00999999999996,338.34 L -152.66999999999996,338.34" fill="none" stroke="black" stroke-width="4.0"/>
	<path d="M -244.59,203.98000000000002 L -149.2,203.98 L -244.59,203.98000000000002" fill="none" stroke="black" stroke-width="4.0"/>
	<path d="M -149.2,203.98 L -149.19999999999996,602.87" fill="none" stroke="black" stroke-width="4.0"/>
	<path d="M -149.19999999999996,602.87 L -444.0299999999999,602.87 L -149.19999999999996,602.87" fill="none" stroke="black" stroke-width="4.0"/>
	<path d="M -444.0299999999999,602.87 L -444.03,403.42" fill="none" stroke="black" stroke-width="4.0"/>
	<path d="M -245.26,188.37000000000003 L -140.53,188.37 L -245.26,188.37000000000003" fill="none" stroke="black" stroke-width="4.0"/>
	<path d="M -241.8,223.06000000000003 L -140.53,223.06 L -241.8,223.06000000000003" fill="none" stroke="black" stroke-width="4.0"/>
	<path d="M -459.63999999999993,611.54 L -459.64,402.09" fill="none" stroke="black" stroke-width="4.0"/>
	<path d="M -424.94999999999993,611.54 L -424.95,405.6" fill="none" stroke="black" stroke-width="4.0"/>
	<path d="M -243.74,203.98000000000002 L -140.53,203.98 L -243.74,203.98000000000002" fill="none" stroke="black" stroke-width="4.0"/>
	<path d="M -444.0299999999999,611.54 L -444.03,404.28" fill="none" stroke="black" stroke-width="4.0"/>
	<path d="M -378.66,269.35 L -376.21,271.8" fill="none" stroke="black" stroke-width="4.0"/>
	<path d="M -376.21,271.8 L -378.66,269.35" fill="none" stroke="black" stroke-width="4.0"/>
	<path d="M -243.74,203.98000000000002 L -244.59,195.31000000000003" fill="none" stroke="black" stroke-width="4.0"/>
	<path d="M -244.03,200.99000000000004 A 257.934,257.934 0.0 0,0 -446.67,404.18" fill="none" stroke="black" stroke-width="4.0"/>
	<path d="M -244.37,197.52000000000004 A 261.402,261.402 0.0 0,0 -450.07,403.52" fill="none" stroke="black" stroke-width="4.0"/>
	<path d="M -444.03,404.28 L -452.7,404.28 L -444.03,404.28" fill="none" stroke="black" stroke-width="4.0"/>
	<path d="M -446.67,404.18 L -450.07,403.52" fill="none" stroke="black" stroke-width="4.0"/>
	<path d="M -243.74,203.98000000000002 A 255.332,255.332 0.0 0,0 -444.03,404.28" fill="none" stroke="black" stroke-width="4.0"/>
	<path d="M -424.94999999999993,611.54 L -459.63999999999993,611.54 L -424.94999999999993,611.54" fill="none" stroke="black" stroke-width="4.0"/>
	<path d="M -140.53,223.06 L -140.53,188.37" fill="none" stroke="black" stroke-width="4.0"/>
	<path d="M -244.59,195.31000000000003 A 264.004,264.004 0.0 0,0 -452.7,403.42" fill="none" stroke="black" stroke-width="4.0"/>
	<path d="M -245.26,188.37000000000003 A 271.304,271.304 0.0 0,0 -459.64,402.09" fill="none" stroke="black" stroke-width="4.0"/>
	<path d="M -241.8,223.06000000000003 A 236.618,236.618 0.0 0,0 -424.95,405.6" fill="none" stroke="black" stroke-width="4.0"/>
	<path d="M -244.59,195.31000000000003 L -140.53,195.31 L -244.59,195.31000000000003" fill="none" stroke="black" stroke-width="4.0"/>
	<path d="M -140.53,195.31 L -140.52999999999997,611.54" fill="none" stroke="black" stroke-width="4.0"/>
	<path d="M -140.52999999999997,611.54 L -452.69999999999993,611.54 L -140.52999999999997,611.54" fill="none" stroke="black" stroke-width="4.0"/>
	<path d="M -452.69999999999993,611.54 L -452.7,403.42" fill="none" stroke="black" stroke-width="4.0"/>
</svg>