<svg xmlns="http://www.w3.org/2000/svg" version="1.1" viewBox="188.12 140.28 423.67 319.61">
  <desc>Produce by Acme CAD Converter</desc>
<path d="M 602.87 152.67 A 3.469 3.469 0 0 0 599.37 149.2" fill="none" stroke="black" stroke-width="4.0"/>
<path d="M599.43 149.2L540.46 149.2" fill="none" stroke="black" stroke-width="4.0"/>
<path d="M593.06 149.2L593.22 149.87" fill="none" stroke="black" stroke-width="4.0"/>
<path d="M602.87 159.01L602.2 158.84" fill="none" stroke="black" stroke-width="4.0"/>
<path d="M 592.87 150.93 A 1.041 1.041 0 0 0 593.22 149.87" fill="none" stroke="black" stroke-width="4.0"/>
<path d="M 602.2 158.84 A 1.041 1.041 0 0 0 601.14 159.2" fill="none" stroke="black" stroke-width="4.0"/>
<path d="M564.38 150.93L601.14 187.69" fill="none" stroke="black" stroke-width="4.0"/>
<path d="M574.19 150.93L601.14 177.88" fill="none" stroke="black" stroke-width="4.0"/>
<path d="M584 150.93L601.14 168.07" fill="none" stroke="black" stroke-width="4.0"/>
<path d="M540.45 150.93L592.87 150.93" fill="none" stroke="black" stroke-width="4.0"/>
<path d="M 540.45 150.93 A 3.469 3.469 0 0 0 538 156.86" fill="none" stroke="black" stroke-width="4.0"/>
<path d="M 540.45 149.2 A 5.203 5.203 0 0 0 536.77 158.08" fill="none" stroke="black" stroke-width="4.0"/>
<path d="M536.77 158.08L593.99 215.3" fill="none" stroke="black" stroke-width="4.0"/>
<path d="M538 156.86L595.21 214.07" fill="none" stroke="black" stroke-width="4.0"/>
<path d="M544.76 150.93L601.14 207.31" fill="none" stroke="black" stroke-width="4.0"/>
<path d="M554.57 150.93L601.14 197.5" fill="none" stroke="black" stroke-width="4.0"/>
<path d="M601.14 159.2L601.14 211.62Z" fill="none" stroke="black" stroke-width="4.0"/>
<path d="M 595.21 214.07 A 3.469 3.469 0 0 0 601.14 211.62" fill="none" stroke="black" stroke-width="4.0"/>
<path d="M 593.99 215.3 A 5.203 5.203 0 0 0 602.87 211.62" fill="none" stroke="black" stroke-width="4.0"/>
<path d="M602.87 152.67L602.87 211.62Z" fill="none" stroke="black" stroke-width="4.0"/>
<path d="M557.74 212.46L557.55 214.98" fill="none" stroke="black" stroke-width="4.0"/>
<path d="M557.55 214.98L556.97 217.44" fill="none" stroke="black" stroke-width="4.0"/>
<path d="M556.97 217.44L556.03 219.78" fill="none" stroke="black" stroke-width="4.0"/>
<path d="M556.03 219.78L554.74 221.94" fill="none" stroke="black" stroke-width="4.0"/>
<path d="M554.74 221.94L553.14 223.89" fill="none" stroke="black" stroke-width="4.0"/>
<path d="M553.14 223.89L551.25 225.57" fill="none" stroke="black" stroke-width="4.0"/>
<path d="M551.25 225.57L549.14 226.94" fill="none" stroke="black" stroke-width="4.0"/>
<path d="M549.14 226.94L546.84 227.97" fill="none" stroke="black" stroke-width="4.0"/>
<path d="M546.84 227.97L544.4 228.64" fill="none" stroke="black" stroke-width="4.0"/>
<path d="M544.4 228.64L541.9 228.93" fill="none" stroke="black" stroke-width="4.0"/>
<path d="M541.9 228.93L539.38 228.83" fill="none" stroke="black" stroke-width="4.0"/>
<path d="M539.38 228.83L536.9 228.35" fill="none" stroke="black" stroke-width="4.0"/>
<path d="M536.9 228.35L534.53 227.5" fill="none" stroke="black" stroke-width="4.0"/>
<path d="M534.53 227.5L532.31 226.29" fill="none" stroke="black" stroke-width="4.0"/>
<path d="M532.31 226.29L530.3 224.76" fill="none" stroke="black" stroke-width="4.0"/>
<path d="M530.3 224.76L528.56 222.95" fill="none" stroke="black" stroke-width="4.0"/>
<path d="M528.56 222.95L527.1 220.88" fill="none" stroke="black" stroke-width="4.0"/>
<path d="M527.1 220.88L525.98 218.62" fill="none" stroke="black" stroke-width="4.0"/>
<path d="M525.98 218.62L525.22 216.22" fill="none" stroke="black" stroke-width="4.0"/>
<path d="M525.22 216.22L524.84 213.73" fill="none" stroke="black" stroke-width="4.0"/>
<path d="M524.84 213.73L524.84 211.2Z" fill="none" stroke="black" stroke-width="4.0"/>
<path d="M524.84 211.2L525.22 208.71" fill="none" stroke="black" stroke-width="4.0"/>
<path d="M525.22 208.71L525.98 206.31" fill="none" stroke="black" stroke-width="4.0"/>
<path d="M525.98 206.31L527.1 204.04" fill="none" stroke="black" stroke-width="4.0"/>
<path d="M527.1 204.04L528.56 201.98" fill="none" stroke="black" stroke-width="4.0"/>
<path d="M528.56 201.98L530.3 200.16" fill="none" stroke="black" stroke-width="4.0"/>
<path d="M530.3 200.16L532.31 198.64" fill="none" stroke="black" stroke-width="4.0"/>
<path d="M532.31 198.64L534.53 197.43" fill="none" stroke="black" stroke-width="4.0"/>
<path d="M534.53 197.43L536.9 196.58" fill="none" stroke="black" stroke-width="4.0"/>
<path d="M536.9 196.58L539.38 196.1" fill="none" stroke="black" stroke-width="4.0"/>
<path d="M539.38 196.1L541.9 196" fill="none" stroke="black" stroke-width="4.0"/>
<path d="M541.9 196L544.4 196.29" fill="none" stroke="black" stroke-width="4.0"/>
<path d="M544.4 196.29L546.84 196.96" fill="none" stroke="black" stroke-width="4.0"/>
<path d="M546.84 196.96L549.14 197.99" fill="none" stroke="black" stroke-width="4.0"/>
<path d="M549.14 197.99L551.25 199.36" fill="none" stroke="black" stroke-width="4.0"/>
<path d="M551.25 199.36L553.14 201.04" fill="none" stroke="black" stroke-width="4.0"/>
<path d="M553.14 201.04L554.74 202.99" fill="none" stroke="black" stroke-width="4.0"/>
<path d="M554.74 202.99L556.03 205.15" fill="none" stroke="black" stroke-width="4.0"/>
<path d="M556.03 205.15L556.97 207.49" fill="none" stroke="black" stroke-width="4.0"/>
<path d="M556.97 207.49L557.55 209.95" fill="none" stroke="black" stroke-width="4.0"/>
<path d="M557.55 209.95L557.74 212.46" fill="none" stroke="black" stroke-width="4.0"/>
<path d="M552.3 210.17L552.3 211.04Z" fill="none" stroke="black" stroke-width="4.0"/>
<path d="M552.3 213.2L552.3 214.29Z" fill="none" stroke="black" stroke-width="4.0"/>
<path d="M550.43 206.7L550.43 207.78Z" fill="none" stroke="black" stroke-width="4.0"/>
<path d="M550.43 209.95L550.43 211.04Z" fill="none" stroke="black" stroke-width="4.0"/>
<path d="M550.43 213.2L550.43 214.29Z" fill="none" stroke="black" stroke-width="4.0"/>
<path d="M550.43 216.45L550.43 217.54Z" fill="none" stroke="black" stroke-width="4.0"/>
<path d="M548.55 203.86L548.55 204.53Z" fill="none" stroke="black" stroke-width="4.0"/>
<path d="M548.55 206.7L548.55 207.78Z" fill="none" stroke="black" stroke-width="4.0"/>
<path d="M548.55 209.95L548.55 211.04Z" fill="none" stroke="black" stroke-width="4.0"/>
<path d="M548.55 213.2L548.55 214.29Z" fill="none" stroke="black" stroke-width="4.0"/>
<path d="M548.55 216.45L548.55 217.54Z" fill="none" stroke="black" stroke-width="4.0"/>
<path d="M548.55 219.71L548.55 220.79Z" fill="none" stroke="black" stroke-width="4.0"/>
<path d="M546.67 203.45L546.67 204.53Z" fill="none" stroke="black" stroke-width="4.0"/>
<path d="M546.67 206.7L546.67 207.78Z" fill="none" stroke="black" stroke-width="4.0"/>
<path d="M546.67 209.95L546.67 211.04Z" fill="none" stroke="black" stroke-width="4.0"/>
<path d="M546.67 213.2L546.67 214.29Z" fill="none" stroke="black" stroke-width="4.0"/>
<path d="M546.67 216.45L546.67 217.54Z" fill="none" stroke="black" stroke-width="4.0"/>
<path d="M546.67 219.71L546.67 220.79Z" fill="none" stroke="black" stroke-width="4.0"/>
<path d="M544.79 203.45L544.79 204.53Z" fill="none" stroke="black" stroke-width="4.0"/>
<path d="M544.79 206.7L544.79 207.78Z" fill="none" stroke="black" stroke-width="4.0"/>
<path d="M544.79 209.95L544.79 211.04Z" fill="none" stroke="black" stroke-width="4.0"/>
<path d="M544.79 213.2L544.79 214.29Z" fill="none" stroke="black" stroke-width="4.0"/>
<path d="M544.79 216.45L544.79 217.54Z" fill="none" stroke="black" stroke-width="4.0"/>
<path d="M544.79 219.71L544.79 220.79Z" fill="none" stroke="black" stroke-width="4.0"/>
<path d="M544.79 222.96L544.79 223.17Z" fill="none" stroke="black" stroke-width="4.0"/>
<path d="M542.92 203.45L542.92 204.53Z" fill="none" stroke="black" stroke-width="4.0"/>
<path d="M542.92 206.7L542.92 207.78Z" fill="none" stroke="black" stroke-width="4.0"/>
<path d="M542.92 209.95L542.92 211.04Z" fill="none" stroke="black" stroke-width="4.0"/>
<path d="M542.92 213.2L542.92 214.29Z" fill="none" stroke="black" stroke-width="4.0"/>
<path d="M542.92 216.45L542.92 217.54Z" fill="none" stroke="black" stroke-width="4.0"/>
<path d="M542.92 219.71L542.92 220.79Z" fill="none" stroke="black" stroke-width="4.0"/>
<path d="M542.92 222.96L542.92 223.62Z" fill="none" stroke="black" stroke-width="4.0"/>
<path d="M541.04 201.19L541.04 201.28Z" fill="none" stroke="black" stroke-width="4.0"/>
<path d="M541.04 203.45L541.04 204.53Z" fill="none" stroke="black" stroke-width="4.0"/>
<path d="M541.04 206.7L541.04 207.78Z" fill="none" stroke="black" stroke-width="4.0"/>
<path d="M541.04 209.95L541.04 211.04Z" fill="none" stroke="black" stroke-width="4.0"/>
<path d="M541.04 213.2L541.04 214.29Z" fill="none" stroke="black" stroke-width="4.0"/>
<path d="M541.04 216.45L541.04 217.54Z" fill="none" stroke="black" stroke-width="4.0"/>
<path d="M541.04 219.71L541.04 220.79Z" fill="none" stroke="black" stroke-width="4.0"/>
<path d="M541.04 222.96L541.04 223.74Z" fill="none" stroke="black" stroke-width="4.0"/>
<path d="M539.16 203.45L539.16 204.53Z" fill="none" stroke="black" stroke-width="4.0"/>
<path d="M539.16 206.7L539.16 207.78Z" fill="none" stroke="black" stroke-width="4.0"/>
<path d="M539.16 209.95L539.16 211.04Z" fill="none" stroke="black" stroke-width="4.0"/>
<path d="M539.16 213.2L539.16 214.29Z" fill="none" stroke="black" stroke-width="4.0"/>
<path d="M539.16 216.45L539.16 217.54Z" fill="none" stroke="black" stroke-width="4.0"/>
<path d="M539.16 219.71L539.16 220.79Z" fill="none" stroke="black" stroke-width="4.0"/>
<path d="M539.16 222.96L539.16 223.54Z" fill="none" stroke="black" stroke-width="4.0"/>
<path d="M537.28 203.45L537.28 204.53Z" fill="none" stroke="black" stroke-width="4.0"/>
<path d="M537.28 206.7L537.28 207.78Z" fill="none" stroke="black" stroke-width="4.0"/>
<path d="M537.28 209.95L537.28 211.04Z" fill="none" stroke="black" stroke-width="4.0"/>
<path d="M537.28 213.2L537.28 214.29Z" fill="none" stroke="black" stroke-width="4.0"/>
<path d="M537.28 216.45L537.28 217.54Z" fill="none" stroke="black" stroke-width="4.0"/>
<path d="M537.28 219.71L537.28 220.79Z" fill="none" stroke="black" stroke-width="4.0"/>
<path d="M537.28 222.96L537.28 223.01Z" fill="none" stroke="black" stroke-width="4.0"/>
<path d="M535.41 203.45L535.41 204.53Z" fill="none" stroke="black" stroke-width="4.0"/>
<path d="M535.41 206.7L535.41 207.78Z" fill="none" stroke="black" stroke-width="4.0"/>
<path d="M535.41 209.95L535.41 211.04Z" fill="none" stroke="black" stroke-width="4.0"/>
<path d="M535.41 213.2L535.41 214.29Z" fill="none" stroke="black" stroke-width="4.0"/>
<path d="M535.41 216.45L535.41 217.54Z" fill="none" stroke="black" stroke-width="4.0"/>
<path d="M535.41 219.71L535.41 220.79Z" fill="none" stroke="black" stroke-width="4.0"/>
<path d="M533.53 204.27L533.53 204.53Z" fill="none" stroke="black" stroke-width="4.0"/>
<path d="M533.53 206.7L533.53 207.78Z" fill="none" stroke="black" stroke-width="4.0"/>
<path d="M533.53 209.95L533.53 211.04Z" fill="none" stroke="black" stroke-width="4.0"/>
<path d="M533.53 213.2L533.53 214.29Z" fill="none" stroke="black" stroke-width="4.0"/>
<path d="M533.53 216.45L533.53 217.54Z" fill="none" stroke="black" stroke-width="4.0"/>
<path d="M533.53 219.71L533.53 220.66Z" fill="none" stroke="black" stroke-width="4.0"/>
<path d="M531.65 206.7L531.65 207.78Z" fill="none" stroke="black" stroke-width="4.0"/>
<path d="M531.65 209.95L531.65 211.04Z" fill="none" stroke="black" stroke-width="4.0"/>
<path d="M531.65 213.2L531.65 214.29Z" fill="none" stroke="black" stroke-width="4.0"/>
<path d="M531.65 216.45L531.65 217.54Z" fill="none" stroke="black" stroke-width="4.0"/>
<path d="M531.65 206.7L532.59 206.16" fill="none" stroke="black" stroke-width="4.0"/>
<path d="M534.47 205.07L535.41 204.53" fill="none" stroke="black" stroke-width="4.0"/>
<path d="M537.28 203.45L538.22 202.91" fill="none" stroke="black" stroke-width="4.0"/>
<path d="M540.1 201.82L541.04 201.28" fill="none" stroke="black" stroke-width="4.0"/>
<path d="M530.36 209.61L530.71 209.41" fill="none" stroke="black" stroke-width="4.0"/>
<path d="M532.59 208.33L533.53 207.78" fill="none" stroke="black" stroke-width="4.0"/>
<path d="M535.41 206.7L536.35 206.16" fill="none" stroke="black" stroke-width="4.0"/>
<path d="M538.22 205.07L539.16 204.53" fill="none" stroke="black" stroke-width="4.0"/>
<path d="M541.04 203.45L541.98 202.91" fill="none" stroke="black" stroke-width="4.0"/>
<path d="M543.85 201.82L544.25 201.59" fill="none" stroke="black" stroke-width="4.0"/>
<path d="M530.71 211.58L531.65 211.04" fill="none" stroke="black" stroke-width="4.0"/>
<path d="M533.53 209.95L534.47 209.41" fill="none" stroke="black" stroke-width="4.0"/>
<path d="M536.35 208.33L537.28 207.78" fill="none" stroke="black" stroke-width="4.0"/>
<path d="M539.16 206.7L540.1 206.16" fill="none" stroke="black" stroke-width="4.0"/>
<path d="M541.98 205.07L542.92 204.53" fill="none" stroke="black" stroke-width="4.0"/>
<path d="M544.79 203.45L545.73 202.91" fill="none" stroke="black" stroke-width="4.0"/>
<path d="M531.65 213.2L532.59 212.66" fill="none" stroke="black" stroke-width="4.0"/>
<path d="M534.47 211.58L535.41 211.04" fill="none" stroke="black" stroke-width="4.0"/>
<path d="M537.28 209.95L538.22 209.41" fill="none" stroke="black" stroke-width="4.0"/>
<path d="M540.1 208.33L541.04 207.78" fill="none" stroke="black" stroke-width="4.0"/>
<path d="M542.92 206.7L543.85 206.16" fill="none" stroke="black" stroke-width="4.0"/>
<path d="M545.73 205.07L546.67 204.53" fill="none" stroke="black" stroke-width="4.0"/>
<path d="M530.56 216L530.71 215.91" fill="none" stroke="black" stroke-width="4.0"/>
<path d="M532.59 214.83L533.53 214.29" fill="none" stroke="black" stroke-width="4.0"/>
<path d="M535.41 213.2L536.35 212.66" fill="none" stroke="black" stroke-width="4.0"/>
<path d="M538.22 211.58L539.16 211.04" fill="none" stroke="black" stroke-width="4.0"/>
<path d="M541.04 209.95L541.98 209.41" fill="none" stroke="black" stroke-width="4.0"/>
<path d="M543.85 208.33L544.79 207.78" fill="none" stroke="black" stroke-width="4.0"/>
<path d="M546.67 206.7L547.61 206.16" fill="none" stroke="black" stroke-width="4.0"/>
<path d="M549.49 205.07L549.68 204.96" fill="none" stroke="black" stroke-width="4.0"/>
<path d="M531.3 217.74L531.65 217.54" fill="none" stroke="black" stroke-width="4.0"/>
<path d="M533.53 216.45L534.47 215.91" fill="none" stroke="black" stroke-width="4.0"/>
<path d="M536.35 214.83L537.28 214.29" fill="none" stroke="black" stroke-width="4.0"/>
<path d="M539.16 213.2L540.1 212.66" fill="none" stroke="black" stroke-width="4.0"/>
<path d="M541.98 211.58L542.92 211.04" fill="none" stroke="black" stroke-width="4.0"/>
<path d="M544.79 209.95L545.73 209.41" fill="none" stroke="black" stroke-width="4.0"/>
<path d="M547.61 208.33L548.55 207.78" fill="none" stroke="black" stroke-width="4.0"/>
<path d="M550.43 206.7L550.82 206.47" fill="none" stroke="black" stroke-width="4.0"/>
<path d="M532.32 219.32L532.59 219.16" fill="none" stroke="black" stroke-width="4.0"/>
<path d="M534.47 218.08L535.41 217.54" fill="none" stroke="black" stroke-width="4.0"/>
<path d="M537.28 216.45L538.22 215.91" fill="none" stroke="black" stroke-width="4.0"/>
<path d="M540.1 214.83L541.04 214.29" fill="none" stroke="black" stroke-width="4.0"/>
<path d="M542.92 213.2L543.85 212.66" fill="none" stroke="black" stroke-width="4.0"/>
<path d="M545.73 211.58L546.67 211.04" fill="none" stroke="black" stroke-width="4.0"/>
<path d="M548.55 209.95L549.49 209.41" fill="none" stroke="black" stroke-width="4.0"/>
<path d="M551.36 208.33L551.68 208.14" fill="none" stroke="black" stroke-width="4.0"/>
<path d="M535.41 219.71L536.35 219.16" fill="none" stroke="black" stroke-width="4.0"/>
<path d="M538.22 218.08L539.16 217.54" fill="none" stroke="black" stroke-width="4.0"/>
<path d="M541.04 216.45L541.98 215.91" fill="none" stroke="black" stroke-width="4.0"/>
<path d="M543.85 214.83L544.79 214.29" fill="none" stroke="black" stroke-width="4.0"/>
<path d="M546.67 213.2L547.61 212.66" fill="none" stroke="black" stroke-width="4.0"/>
<path d="M549.49 211.58L550.43 211.04" fill="none" stroke="black" stroke-width="4.0"/>
<path d="M536.35 221.33L537.28 220.79" fill="none" stroke="black" stroke-width="4.0"/>
<path d="M539.16 219.71L540.1 219.16" fill="none" stroke="black" stroke-width="4.0"/>
<path d="M541.98 218.08L542.92 217.54" fill="none" stroke="black" stroke-width="4.0"/>
<path d="M544.79 216.45L545.73 215.91" fill="none" stroke="black" stroke-width="4.0"/>
<path d="M547.61 214.83L548.55 214.29" fill="none" stroke="black" stroke-width="4.0"/>
<path d="M550.43 213.2L551.36 212.66" fill="none" stroke="black" stroke-width="4.0"/>
<path d="M537.28 222.96L538.22 222.42" fill="none" stroke="black" stroke-width="4.0"/>
<path d="M540.1 221.33L541.04 220.79" fill="none" stroke="black" stroke-width="4.0"/>
<path d="M542.92 219.71L543.85 219.16" fill="none" stroke="black" stroke-width="4.0"/>
<path d="M545.73 218.08L546.67 217.54" fill="none" stroke="black" stroke-width="4.0"/>
<path d="M548.55 216.45L549.49 215.91" fill="none" stroke="black" stroke-width="4.0"/>
<path d="M551.36 214.83L552.3 214.29" fill="none" stroke="black" stroke-width="4.0"/>
<path d="M541.04 222.96L541.98 222.42" fill="none" stroke="black" stroke-width="4.0"/>
<path d="M543.85 221.33L544.79 220.79" fill="none" stroke="black" stroke-width="4.0"/>
<path d="M546.67 219.71L547.61 219.16" fill="none" stroke="black" stroke-width="4.0"/>
<path d="M549.49 218.08L550.43 217.54" fill="none" stroke="black" stroke-width="4.0"/>
<path d="M544.79 222.96L545.73 222.42" fill="none" stroke="black" stroke-width="4.0"/>
<path d="M547.61 221.33L548.55 220.79" fill="none" stroke="black" stroke-width="4.0"/>
<path d="M542.99 201.32L543.85 201.82" fill="none" stroke="black" stroke-width="4.0"/>
<path d="M545.73 202.91L546.67 203.45" fill="none" stroke="black" stroke-width="4.0"/>
<path d="M548.55 204.53L549.49 205.07" fill="none" stroke="black" stroke-width="4.0"/>
<path d="M539.31 201.36L540.1 201.82" fill="none" stroke="black" stroke-width="4.0"/>
<path d="M541.98 202.91L542.92 203.45" fill="none" stroke="black" stroke-width="4.0"/>
<path d="M544.79 204.53L545.73 205.07" fill="none" stroke="black" stroke-width="4.0"/>
<path d="M547.61 206.16L548.55 206.7" fill="none" stroke="black" stroke-width="4.0"/>
<path d="M550.43 207.78L551.36 208.33" fill="none" stroke="black" stroke-width="4.0"/>
<path d="M538.22 202.91L539.16 203.45" fill="none" stroke="black" stroke-width="4.0"/>
<path d="M541.04 204.53L541.98 205.07" fill="none" stroke="black" stroke-width="4.0"/>
<path d="M543.85 206.16L544.79 206.7" fill="none" stroke="black" stroke-width="4.0"/>
<path d="M546.67 207.78L547.61 208.33" fill="none" stroke="black" stroke-width="4.0"/>
<path d="M549.49 209.41L550.43 209.95" fill="none" stroke="black" stroke-width="4.0"/>
<path d="M552.3 211.04L552.46 211.13" fill="none" stroke="black" stroke-width="4.0"/>
<path d="M534.9 203.16L535.41 203.45" fill="none" stroke="black" stroke-width="4.0"/>
<path d="M537.28 204.53L538.22 205.07" fill="none" stroke="black" stroke-width="4.0"/>
<path d="M540.1 206.16L541.04 206.7" fill="none" stroke="black" stroke-width="4.0"/>
<path d="M542.92 207.78L543.85 208.33" fill="none" stroke="black" stroke-width="4.0"/>
<path d="M545.73 209.41L546.67 209.95" fill="none" stroke="black" stroke-width="4.0"/>
<path d="M548.55 211.04L549.49 211.58" fill="none" stroke="black" stroke-width="4.0"/>
<path d="M551.36 212.66L552.3 213.2" fill="none" stroke="black" stroke-width="4.0"/>
<path d="M533.53 204.53L534.47 205.07" fill="none" stroke="black" stroke-width="4.0"/>
<path d="M536.35 206.16L537.28 206.7" fill="none" stroke="black" stroke-width="4.0"/>
<path d="M539.16 207.78L540.1 208.33" fill="none" stroke="black" stroke-width="4.0"/>
<path d="M541.98 209.41L542.92 209.95" fill="none" stroke="black" stroke-width="4.0"/>
<path d="M544.79 211.04L545.73 211.58" fill="none" stroke="black" stroke-width="4.0"/>
<path d="M547.61 212.66L548.55 213.2" fill="none" stroke="black" stroke-width="4.0"/>
<path d="M550.43 214.29L551.36 214.83" fill="none" stroke="black" stroke-width="4.0"/>
<path d="M532.59 206.16L533.53 206.7" fill="none" stroke="black" stroke-width="4.0"/>
<path d="M535.41 207.78L536.35 208.33" fill="none" stroke="black" stroke-width="4.0"/>
<path d="M538.22 209.41L539.16 209.95" fill="none" stroke="black" stroke-width="4.0"/>
<path d="M541.04 211.04L541.98 211.58" fill="none" stroke="black" stroke-width="4.0"/>
<path d="M543.85 212.66L544.79 213.2" fill="none" stroke="black" stroke-width="4.0"/>
<path d="M546.67 214.29L547.61 214.83" fill="none" stroke="black" stroke-width="4.0"/>
<path d="M549.49 215.91L550.43 216.45" fill="none" stroke="black" stroke-width="4.0"/>
<path d="M531.65 207.78L532.59 208.33" fill="none" stroke="black" stroke-width="4.0"/>
<path d="M534.47 209.41L535.41 209.95" fill="none" stroke="black" stroke-width="4.0"/>
<path d="M537.28 211.04L538.22 211.58" fill="none" stroke="black" stroke-width="4.0"/>
<path d="M540.1 212.66L541.04 213.2" fill="none" stroke="black" stroke-width="4.0"/>
<path d="M542.92 214.29L543.85 214.83" fill="none" stroke="black" stroke-width="4.0"/>
<path d="M545.73 215.91L546.67 216.45" fill="none" stroke="black" stroke-width="4.0"/>
<path d="M548.55 217.54L549.49 218.08" fill="none" stroke="black" stroke-width="4.0"/>
<path d="M530.71 209.41L531.65 209.95" fill="none" stroke="black" stroke-width="4.0"/>
<path d="M533.53 211.04L534.47 211.58" fill="none" stroke="black" stroke-width="4.0"/>
<path d="M536.35 212.66L537.28 213.2" fill="none" stroke="black" stroke-width="4.0"/>
<path d="M539.16 214.29L540.1 214.83" fill="none" stroke="black" stroke-width="4.0"/>
<path d="M541.98 215.91L542.92 216.45" fill="none" stroke="black" stroke-width="4.0"/>
<path d="M544.79 217.54L545.73 218.08" fill="none" stroke="black" stroke-width="4.0"/>
<path d="M547.61 219.16L548.55 219.71" fill="none" stroke="black" stroke-width="4.0"/>
<path d="M530.06 211.2L530.71 211.58" fill="none" stroke="black" stroke-width="4.0"/>
<path d="M532.59 212.66L533.53 213.2" fill="none" stroke="black" stroke-width="4.0"/>
<path d="M535.41 214.29L536.35 214.83" fill="none" stroke="black" stroke-width="4.0"/>
<path d="M538.22 215.91L539.16 216.45" fill="none" stroke="black" stroke-width="4.0"/>
<path d="M541.04 217.54L541.98 218.08" fill="none" stroke="black" stroke-width="4.0"/>
<path d="M543.85 219.16L544.79 219.71" fill="none" stroke="black" stroke-width="4.0"/>
<path d="M546.67 220.79L547.61 221.33" fill="none" stroke="black" stroke-width="4.0"/>
<path d="M531.65 214.29L532.59 214.83" fill="none" stroke="black" stroke-width="4.0"/>
<path d="M534.47 215.91L535.41 216.45" fill="none" stroke="black" stroke-width="4.0"/>
<path d="M537.28 217.54L538.22 218.08" fill="none" stroke="black" stroke-width="4.0"/>
<path d="M540.1 219.16L541.04 219.71" fill="none" stroke="black" stroke-width="4.0"/>
<path d="M542.92 220.79L543.85 221.33" fill="none" stroke="black" stroke-width="4.0"/>
<path d="M545.73 222.42L546.12 222.64" fill="none" stroke="black" stroke-width="4.0"/>
<path d="M530.71 215.91L531.65 216.45" fill="none" stroke="black" stroke-width="4.0"/>
<path d="M533.53 217.54L534.47 218.08" fill="none" stroke="black" stroke-width="4.0"/>
<path d="M536.35 219.16L537.28 219.71" fill="none" stroke="black" stroke-width="4.0"/>
<path d="M539.16 220.79L540.1 221.33" fill="none" stroke="black" stroke-width="4.0"/>
<path d="M541.98 222.42L542.92 222.96" fill="none" stroke="black" stroke-width="4.0"/>
<path d="M532.59 219.16L533.53 219.71" fill="none" stroke="black" stroke-width="4.0"/>
<path d="M535.41 220.79L536.35 221.33" fill="none" stroke="black" stroke-width="4.0"/>
<path d="M538.22 222.42L539.16 222.96" fill="none" stroke="black" stroke-width="4.0"/>
<path d="M552.54 212.46L552.35 214.54" fill="none" stroke="black" stroke-width="4.0"/>
<path d="M552.35 214.54L551.78 216.54" fill="none" stroke="black" stroke-width="4.0"/>
<path d="M551.78 216.54L550.85 218.4" fill="none" stroke="black" stroke-width="4.0"/>
<path d="M550.85 218.4L549.6 220.06" fill="none" stroke="black" stroke-width="4.0"/>
<path d="M549.6 220.06L548.06 221.46" fill="none" stroke="black" stroke-width="4.0"/>
<path d="M548.06 221.46L546.29 222.56" fill="none" stroke="black" stroke-width="4.0"/>
<path d="M546.29 222.56L544.35 223.31" fill="none" stroke="black" stroke-width="4.0"/>
<path d="M544.35 223.31L542.31 223.69" fill="none" stroke="black" stroke-width="4.0"/>
<path d="M542.31 223.69L540.23 223.69" fill="none" stroke="black" stroke-width="4.0"/>
<path d="M540.23 223.69L538.18 223.31" fill="none" stroke="black" stroke-width="4.0"/>
<path d="M538.18 223.31L536.24 222.56" fill="none" stroke="black" stroke-width="4.0"/>
<path d="M536.24 222.56L534.47 221.46" fill="none" stroke="black" stroke-width="4.0"/>
<path d="M534.47 221.46L532.94 220.06" fill="none" stroke="black" stroke-width="4.0"/>
<path d="M532.94 220.06L531.68 218.4" fill="none" stroke="black" stroke-width="4.0"/>
<path d="M531.68 218.4L530.75 216.54" fill="none" stroke="black" stroke-width="4.0"/>
<path d="M530.75 216.54L530.19 214.54" fill="none" stroke="black" stroke-width="4.0"/>
<path d="M530.19 214.54L529.99 212.46" fill="none" stroke="black" stroke-width="4.0"/>
<path d="M529.99 212.46L530.19 210.39" fill="none" stroke="black" stroke-width="4.0"/>
<path d="M530.19 210.39L530.75 208.39" fill="none" stroke="black" stroke-width="4.0"/>
<path d="M530.75 208.39L531.68 206.53" fill="none" stroke="black" stroke-width="4.0"/>
<path d="M531.68 206.53L532.94 204.87" fill="none" stroke="black" stroke-width="4.0"/>
<path d="M532.94 204.87L534.47 203.47" fill="none" stroke="black" stroke-width="4.0"/>
<path d="M534.47 203.47L536.24 202.37" fill="none" stroke="black" stroke-width="4.0"/>
<path d="M536.24 202.37L538.18 201.62" fill="none" stroke="black" stroke-width="4.0"/>
<path d="M538.18 201.62L540.23 201.24" fill="none" stroke="black" stroke-width="4.0"/>
<path d="M540.23 201.24L542.31 201.24" fill="none" stroke="black" stroke-width="4.0"/>
<path d="M542.31 201.24L544.35 201.62" fill="none" stroke="black" stroke-width="4.0"/>
<path d="M544.35 201.62L546.29 202.37" fill="none" stroke="black" stroke-width="4.0"/>
<path d="M546.29 202.37L548.06 203.47" fill="none" stroke="black" stroke-width="4.0"/>
<path d="M548.06 203.47L549.6 204.87" fill="none" stroke="black" stroke-width="4.0"/>
<path d="M549.6 204.87L550.85 206.53" fill="none" stroke="black" stroke-width="4.0"/>
<path d="M550.85 206.53L551.78 208.39" fill="none" stroke="black" stroke-width="4.0"/>
<path d="M551.78 208.39L552.35 210.39" fill="none" stroke="black" stroke-width="4.0"/>
<path d="M552.35 210.39L552.54 212.46" fill="none" stroke="black" stroke-width="4.0"/>
<path d="M423.74 327.89L602.87 327.89" fill="none" stroke="black" stroke-width="4.0"/>
<path d="M423.74 314.18L602.87 314.18" fill="none" stroke="black" stroke-width="4.0"/>
<path d="M455.04 314.18L455.04 327.89Z" fill="none" stroke="black" stroke-width="4.0"/>
<path d="M446.18 314.18L446.18 327.89Z" fill="none" stroke="black" stroke-width="4.0"/>
<path d="M439.09 314.18L439.09 327.89Z" fill="none" stroke="black" stroke-width="4.0"/>
<path d="M434.41 314.18L434.41 327.89Z" fill="none" stroke="black" stroke-width="4.0"/>
<path d="M431.12 314.18L431.12 327.89Z" fill="none" stroke="black" stroke-width="4.0"/>
<path d="M428.84 314.18L428.84 327.89Z" fill="none" stroke="black" stroke-width="4.0"/>
<path d="M 475.31 314.18 A 52.029 52.029 0 1 0 475.31 327.89" fill="none" stroke="black" stroke-width="4.0"/>
<path d="M 423.74 314.18 A 6.851 6.851 0 0 0 423.74 327.89" fill="none" stroke="black" stroke-width="4.0"/>
<path d="M599.73 337.44L599.73 327.89Z" fill="none" stroke="black" stroke-width="4.0"/>
<path d="M602.87 337.44L599.73 337.44" fill="none" stroke="black" stroke-width="4.0"/>
<path d="M602.87 337.44L602.87 320.1Z" fill="none" stroke="black" stroke-width="4.0"/>
<path d="M597.13 333.84L597.13 327.89Z" fill="none" stroke="black" stroke-width="4.0"/>
<path d="M599.73 337.44L597.13 333.84" fill="none" stroke="black" stroke-width="4.0"/>
<path d="M595.39 333.15L595.39 327.89Z" fill="none" stroke="black" stroke-width="4.0"/>
<path d="M597.13 333.15L595.39 333.15" fill="none" stroke="black" stroke-width="4.0"/>
<path d="M597.13 328.77L595.39 328.77" fill="none" stroke="black" stroke-width="4.0"/>
<path d="M597.13 330.5L595.39 330.5" fill="none" stroke="black" stroke-width="4.0"/>
<path d="M597.13 332.24L595.39 332.24" fill="none" stroke="black" stroke-width="4.0"/>
<path d="M599.73 307.82L599.73 290.48Z" fill="none" stroke="black" stroke-width="4.0"/>
<path d="M602.87 307.82L599.73 307.82" fill="none" stroke="black" stroke-width="4.0"/>
<path d="M602.87 307.82L602.87 290.48Z" fill="none" stroke="black" stroke-width="4.0"/>
<path d="M602.87 290.48L599.73 290.48" fill="none" stroke="black" stroke-width="4.0"/>
<path d="M597.13 304.22L597.13 294.08Z" fill="none" stroke="black" stroke-width="4.0"/>
<path d="M599.73 290.48L597.13 294.08" fill="none" stroke="black" stroke-width="4.0"/>
<path d="M599.73 307.82L597.13 304.22" fill="none" stroke="black" stroke-width="4.0"/>
<path d="M595.39 303.53L595.39 294.77Z" fill="none" stroke="black" stroke-width="4.0"/>
<path d="M597.13 294.77L595.39 294.77" fill="none" stroke="black" stroke-width="4.0"/>
<path d="M597.13 303.53L595.39 303.53" fill="none" stroke="black" stroke-width="4.0"/>
<path d="M597.13 299.15L595.39 299.15" fill="none" stroke="black" stroke-width="4.0"/>
<path d="M597.13 297.41L595.39 297.41" fill="none" stroke="black" stroke-width="4.0"/>
<path d="M597.13 295.68L595.39 295.68" fill="none" stroke="black" stroke-width="4.0"/>
<path d="M597.13 300.88L595.39 300.88" fill="none" stroke="black" stroke-width="4.0"/>
<path d="M597.13 302.62L595.39 302.62" fill="none" stroke="black" stroke-width="4.0"/>
<path d="M588.46 310.84L555.16 310.84" fill="none" stroke="black" stroke-width="4.0"/>
<path d="M593 330.5L595.39 330.5" fill="none" stroke="black" stroke-width="4.0"/>
<path d="M555.16 314.18L555.16 310.84Z" fill="none" stroke="black" stroke-width="4.0"/>
<path d="M595.39 314.18L595.39 303.53Z" fill="none" stroke="black" stroke-width="4.0"/>
<path d="M602.87 336.13L599.73 336.13" fill="none" stroke="black" stroke-width="4.0"/>
<path d="M602.87 335.06L599.73 335.06" fill="none" stroke="black" stroke-width="4.0"/>
<path d="M602.87 333.43L599.73 333.43" fill="none" stroke="black" stroke-width="4.0"/>
<path d="M602.87 336.87L599.73 336.87" fill="none" stroke="black" stroke-width="4.0"/>
<path d="M602.87 306.51L599.73 306.51" fill="none" stroke="black" stroke-width="4.0"/>
<path d="M602.87 305.44L599.73 305.44" fill="none" stroke="black" stroke-width="4.0"/>
<path d="M602.87 303.81L599.73 303.81" fill="none" stroke="black" stroke-width="4.0"/>
<path d="M602.87 307.25L599.73 307.25" fill="none" stroke="black" stroke-width="4.0"/>
<path d="M602.87 291.79L599.73 291.79" fill="none" stroke="black" stroke-width="4.0"/>
<path d="M602.87 292.85L599.73 292.85" fill="none" stroke="black" stroke-width="4.0"/>
<path d="M602.87 294.49L599.73 294.49" fill="none" stroke="black" stroke-width="4.0"/>
<path d="M602.87 291.05L599.73 291.05" fill="none" stroke="black" stroke-width="4.0"/>
<path d="M588.46 314.18L588.46 310.84Z" fill="none" stroke="black" stroke-width="4.0"/>
<path d="M591.66 329.46L591.25 327.89" fill="none" stroke="black" stroke-width="4.0"/>
<path d="M 591.66 329.46 A 1.387 1.387 0 0 0 593 330.5" fill="none" stroke="black" stroke-width="4.0"/>
<path d="M593 297.41L595.39 297.41" fill="none" stroke="black" stroke-width="4.0"/>
<path d="M591.66 298.45L588.46 310.84" fill="none" stroke="black" stroke-width="4.0"/>
<path d="M 593 297.41 A 1.387 1.387 0 0 0 591.66 298.45" fill="none" stroke="black" stroke-width="4.0"/>
<path d="M566.81 314.18L566.81 313.54Z" fill="none" stroke="black" stroke-width="4.0"/>
<path d="M570.37 310.84L567.56 312.31" fill="none" stroke="black" stroke-width="4.0"/>
<path d="M 567.56 312.31 A 1.387 1.387 0 0 0 566.81 313.54" fill="none" stroke="black" stroke-width="4.0"/>
<path d="M557.66 314.18L557.66 310.84Z" fill="none" stroke="black" stroke-width="4.0"/>
<path d="M561.24 314.18L561.24 310.84Z" fill="none" stroke="black" stroke-width="4.0"/>
<path d="M559.21 314.18L559.21 310.84Z" fill="none" stroke="black" stroke-width="4.0"/>
<path d="M556.44 314.18L556.44 310.84Z" fill="none" stroke="black" stroke-width="4.0"/>
<path d="M593.35 381.74L591.63 381.74" fill="none" stroke="black" stroke-width="4.0"/>
<path d="M 591.28 381.39 A 0.347 0.347 0 0 0 591.63 381.74" fill="none" stroke="black" stroke-width="4.0"/>
<path d="M593.35 385.2L589.52 385.2" fill="none" stroke="black" stroke-width="4.0"/>
<path d="M 587.79 383.5 A 1.734 1.734 0 0 0 589.52 385.2" fill="none" stroke="black" stroke-width="4.0"/>
<path d="M598.55 378.96L595.08 378.96" fill="none" stroke="black" stroke-width="4.0"/>
<path d="M595.08 378.96L595.08 387.98Z" fill="none" stroke="black" stroke-width="4.0"/>
<path d="M595.08 387.98L598.55 387.98" fill="none" stroke="black" stroke-width="4.0"/>
<path d="M595.08 380L593.35 380" fill="none" stroke="black" stroke-width="4.0"/>
<path d="M593.35 380L593.35 386.94Z" fill="none" stroke="black" stroke-width="4.0"/>
<path d="M593.35 386.94L595.08 386.94" fill="none" stroke="black" stroke-width="4.0"/>
<path d="M591.28 361.96L587.81 361.96" fill="none" stroke="black" stroke-width="4.0"/>
<path d="M591.28 381.39L591.63 362.31" fill="none" stroke="black" stroke-width="4.0"/>
<path d="M587.79 383.5L587.46 362.31" fill="none" stroke="black" stroke-width="4.0"/>
<path d="M 587.81 361.96 A 0.347 0.347 0 0 0 587.46 362.31" fill="none" stroke="black" stroke-width="4.0"/>
<path d="M602.87 360.92L602.87 406.02Z" fill="none" stroke="black" stroke-width="4.0"/>
<path d="M602.87 406.02L601.14 406.02" fill="none" stroke="black" stroke-width="4.0"/>
<path d="M602.87 360.92L601.14 360.92" fill="none" stroke="black" stroke-width="4.0"/>
<path d="M598.55 369.48L598.55 397.46Z" fill="none" stroke="black" stroke-width="4.0"/>
<path d="M601.14 406.02L598.55 397.46" fill="none" stroke="black" stroke-width="4.0"/>
<path d="M601.14 360.92L598.55 369.48" fill="none" stroke="black" stroke-width="4.0"/>
<path d="M 591.63 362.31 A 0.347 0.347 0 0 0 591.28 361.96" fill="none" stroke="black" stroke-width="4.0"/>
<path d="M424.28 149.2L452.03 149.2" fill="none" stroke="black" stroke-width="4.0"/>
<path d="M452.03 149.2L452.03 152.67Z" fill="none" stroke="black" stroke-width="4.0"/>
<path d="M452.03 152.67L424.28 152.67" fill="none" stroke="black" stroke-width="4.0"/>
<path d="M424.28 152.67L424.28 149.2Z" fill="none" stroke="black" stroke-width="4.0"/>
<path d="M320.13 149.2L347.88 149.2" fill="none" stroke="black" stroke-width="4.0"/>
<path d="M347.88 149.2L347.88 152.67Z" fill="none" stroke="black" stroke-width="4.0"/>
<path d="M347.88 152.67L320.13 152.67" fill="none" stroke="black" stroke-width="4.0"/>
<path d="M320.13 152.67L320.13 149.2Z" fill="none" stroke="black" stroke-width="4.0"/>
<path d="M 430.35 173.48 A 3.469 3.469 0 0 0 433.82 170.01" fill="none" stroke="black" stroke-width="4.0"/>
<path d="M 430.35 182.15 A 12.14 12.14 0 0 0 442.49 170.01" fill="none" stroke="black" stroke-width="4.0"/>
<path d="M329.67 152.67L329.67 170.01Z" fill="none" stroke="black" stroke-width="4.0"/>
<path d="M 338.34 170.01 A 3.469 3.469 0 0 0 341.81 173.48" fill="none" stroke="black" stroke-width="4.0"/>
<path d="M 329.67 170.01 A 12.14 12.14 0 0 0 341.81 182.15" fill="none" stroke="black" stroke-width="4.0"/>
<path d="M430.35 173.48L341.81 173.48" fill="none" stroke="black" stroke-width="4.0"/>
<path d="M430.35 182.15L341.81 182.15" fill="none" stroke="black" stroke-width="4.0"/>
<path d="M433.82 152.67L433.82 170.01Z" fill="none" stroke="black" stroke-width="4.0"/>
<path d="M442.49 152.67L442.49 170.01Z" fill="none" stroke="black" stroke-width="4.0"/>
<path d="M338.34 152.67L338.34 170.01Z" fill="none" stroke="black" stroke-width="4.0"/>
<path d="M203.98 244.59L203.98 149.2Z" fill="none" stroke="black" stroke-width="4.0"/>
<path d="M203.98 149.2L602.87 149.2" fill="none" stroke="black" stroke-width="4.0"/>
<path d="M602.87 149.2L602.87 444.03Z" fill="none" stroke="black" stroke-width="4.0"/>
<path d="M602.87 444.03L403.42 444.03" fill="none" stroke="black" stroke-width="4.0"/>
<path d="M188.37 245.26L188.37 140.53Z" fill="none" stroke="black" stroke-width="4.0"/>
<path d="M223.06 241.8L223.06 140.53Z" fill="none" stroke="black" stroke-width="4.0"/>
<path d="M611.54 459.64L402.09 459.64" fill="none" stroke="black" stroke-width="4.0"/>
<path d="M611.54 424.95L405.6 424.95" fill="none" stroke="black" stroke-width="4.0"/>
<path d="M203.98 243.74L203.98 140.53Z" fill="none" stroke="black" stroke-width="4.0"/>
<path d="M611.54 444.03L404.28 444.03" fill="none" stroke="black" stroke-width="4.0"/>
<path d="M269.35 378.66L271.8 376.21" fill="none" stroke="black" stroke-width="4.0"/>
<path d="M271.8 376.21L269.35 378.66" fill="none" stroke="black" stroke-width="4.0"/>
<path d="M203.98 243.74L195.31 244.59" fill="none" stroke="black" stroke-width="4.0"/>
<path d="M 200.99 244.03 A 257.934 257.934 0 0 0 404.18 446.67" fill="none" stroke="black" stroke-width="4.0"/>
<path d="M 197.52 244.37 A 261.402 261.402 0 0 0 403.52 450.07" fill="none" stroke="black" stroke-width="4.0"/>
<path d="M404.28 444.03L404.28 452.7Z" fill="none" stroke="black" stroke-width="4.0"/>
<path d="M404.18 446.67L403.52 450.07" fill="none" stroke="black" stroke-width="4.0"/>
<path d="M 203.98 243.74 A 255.332 255.332 0 0 0 404.28 444.03" fill="none" stroke="black" stroke-width="4.0"/>
<path d="M611.54 424.95L611.54 459.64Z" fill="none" stroke="black" stroke-width="4.0"/>
<path d="M223.06 140.53L188.37 140.53" fill="none" stroke="black" stroke-width="4.0"/>
<path d="M 195.31 244.59 A 264.004 264.004 0 0 0 403.42 452.7" fill="none" stroke="black" stroke-width="4.0"/>
<path d="M 188.37 245.26 A 271.304 271.304 0 0 0 402.09 459.64" fill="none" stroke="black" stroke-width="4.0"/>
<path d="M 223.06 241.8 A 236.618 236.618 0 0 0 405.6 424.95" fill="none" stroke="black" stroke-width="4.0"/>
<path d="M195.31 244.59L195.31 140.53Z" fill="none" stroke="black" stroke-width="4.0"/>
<path d="M195.31 140.53L611.54 140.53" fill="none" stroke="black" stroke-width="4.0"/>
<path d="M611.54 140.53L611.54 452.7Z" fill="none" stroke="black" stroke-width="4.0"/>
<path d="M611.54 452.7L403.42 452.7" fill="none" stroke="black" stroke-width="4.0"/>
</svg>