<svg xmlns="http://www.w3.org/2000/svg" version="1.1" viewBox="213.7 150.73 369.37 305.77">
  <desc>Produce by Acme CAD Converter</desc>
<path d="M468.54 197.01L468.35 198.58" fill="none" stroke="black" stroke-width="4.0"/>
<path d="M468.35 198.58L467.79 200.06" fill="none" stroke="black" stroke-width="4.0"/>
<path d="M467.79 200.06L466.89 201.36" fill="none" stroke="black" stroke-width="4.0"/>
<path d="M466.89 201.36L465.71 202.41" fill="none" stroke="black" stroke-width="4.0"/>
<path d="M465.71 202.41L464.31 203.14" fill="none" stroke="black" stroke-width="4.0"/>
<path d="M464.31 203.14L462.77 203.52" fill="none" stroke="black" stroke-width="4.0"/>
<path d="M462.77 203.52L461.19 203.52" fill="none" stroke="black" stroke-width="4.0"/>
<path d="M461.19 203.52L459.66 203.14" fill="none" stroke="black" stroke-width="4.0"/>
<path d="M459.66 203.14L458.25 202.41" fill="none" stroke="black" stroke-width="4.0"/>
<path d="M458.25 202.41L457.07 201.36" fill="none" stroke="black" stroke-width="4.0"/>
<path d="M457.07 201.36L456.17 200.06" fill="none" stroke="black" stroke-width="4.0"/>
<path d="M456.17 200.06L455.61 198.58" fill="none" stroke="black" stroke-width="4.0"/>
<path d="M455.61 198.58L455.42 197.01" fill="none" stroke="black" stroke-width="4.0"/>
<path d="M455.42 197.01L455.61 195.44" fill="none" stroke="black" stroke-width="4.0"/>
<path d="M455.61 195.44L456.17 193.96" fill="none" stroke="black" stroke-width="4.0"/>
<path d="M456.17 193.96L457.07 192.66" fill="none" stroke="black" stroke-width="4.0"/>
<path d="M457.07 192.66L458.25 191.61" fill="none" stroke="black" stroke-width="4.0"/>
<path d="M458.25 191.61L459.66 190.88" fill="none" stroke="black" stroke-width="4.0"/>
<path d="M459.66 190.88L461.19 190.5" fill="none" stroke="black" stroke-width="4.0"/>
<path d="M461.19 190.5L462.77 190.5" fill="none" stroke="black" stroke-width="4.0"/>
<path d="M462.77 190.5L464.31 190.88" fill="none" stroke="black" stroke-width="4.0"/>
<path d="M464.31 190.88L465.71 191.61" fill="none" stroke="black" stroke-width="4.0"/>
<path d="M465.71 191.61L466.89 192.66" fill="none" stroke="black" stroke-width="4.0"/>
<path d="M466.89 192.66L467.79 193.96" fill="none" stroke="black" stroke-width="4.0"/>
<path d="M467.79 193.96L468.35 195.44" fill="none" stroke="black" stroke-width="4.0"/>
<path d="M468.35 195.44L468.54 197.01" fill="none" stroke="black" stroke-width="4.0"/>
<path d="M456 182.56L447.53 191.03" fill="none" stroke="black" stroke-width="4.0"/>
<path d="M447.53 191.03L447.53 203Z" fill="none" stroke="black" stroke-width="4.0"/>
<path d="M447.53 203L456 211.46" fill="none" stroke="black" stroke-width="4.0"/>
<path d="M456 211.46L467.97 211.46" fill="none" stroke="black" stroke-width="4.0"/>
<path d="M467.97 211.46L476.43 203" fill="none" stroke="black" stroke-width="4.0"/>
<path d="M476.43 203L476.43 191.03Z" fill="none" stroke="black" stroke-width="4.0"/>
<path d="M476.43 191.03L467.97 182.56" fill="none" stroke="black" stroke-width="4.0"/>
<path d="M467.97 182.56L456 182.56" fill="none" stroke="black" stroke-width="4.0"/>
<path d="M414.12 178.01L382.65 178.01" fill="none" stroke="black" stroke-width="4.0"/>
<path d="M405.38 197.01L405.19 198.63" fill="none" stroke="black" stroke-width="4.0"/>
<path d="M405.19 198.63L404.63 200.15" fill="none" stroke="black" stroke-width="4.0"/>
<path d="M404.63 200.15L403.74 201.51" fill="none" stroke="black" stroke-width="4.0"/>
<path d="M403.74 201.51L402.56 202.62" fill="none" stroke="black" stroke-width="4.0"/>
<path d="M402.56 202.62L401.15 203.44" fill="none" stroke="black" stroke-width="4.0"/>
<path d="M401.15 203.44L399.6 203.9" fill="none" stroke="black" stroke-width="4.0"/>
<path d="M399.6 203.9L397.98 204" fill="none" stroke="black" stroke-width="4.0"/>
<path d="M397.98 204L396.38 203.71" fill="none" stroke="black" stroke-width="4.0"/>
<path d="M396.38 203.71L394.89 203.07" fill="none" stroke="black" stroke-width="4.0"/>
<path d="M394.89 203.07L393.58 202.1" fill="none" stroke="black" stroke-width="4.0"/>
<path d="M393.58 202.1L392.54 200.86" fill="none" stroke="black" stroke-width="4.0"/>
<path d="M392.54 200.86L391.81 199.4" fill="none" stroke="black" stroke-width="4.0"/>
<path d="M391.81 199.4L391.43 197.82" fill="none" stroke="black" stroke-width="4.0"/>
<path d="M391.43 197.82L391.43 196.2Z" fill="none" stroke="black" stroke-width="4.0"/>
<path d="M391.43 196.2L391.81 194.62" fill="none" stroke="black" stroke-width="4.0"/>
<path d="M391.81 194.62L392.54 193.17" fill="none" stroke="black" stroke-width="4.0"/>
<path d="M392.54 193.17L393.58 191.92" fill="none" stroke="black" stroke-width="4.0"/>
<path d="M393.58 191.92L394.89 190.95" fill="none" stroke="black" stroke-width="4.0"/>
<path d="M394.89 190.95L396.38 190.31" fill="none" stroke="black" stroke-width="4.0"/>
<path d="M396.38 190.31L397.98 190.03" fill="none" stroke="black" stroke-width="4.0"/>
<path d="M397.98 190.03L399.6 190.12" fill="none" stroke="black" stroke-width="4.0"/>
<path d="M399.6 190.12L401.15 190.59" fill="none" stroke="black" stroke-width="4.0"/>
<path d="M401.15 190.59L402.56 191.4" fill="none" stroke="black" stroke-width="4.0"/>
<path d="M402.56 191.4L403.74 192.52" fill="none" stroke="black" stroke-width="4.0"/>
<path d="M403.74 192.52L404.63 193.87" fill="none" stroke="black" stroke-width="4.0"/>
<path d="M404.63 193.87L405.19 195.4" fill="none" stroke="black" stroke-width="4.0"/>
<path d="M405.19 195.4L405.38 197.01" fill="none" stroke="black" stroke-width="4.0"/>
<path d="M 385.75 230.6 A 618.433 618.433 0 0 0 346.14 232.68" fill="none" stroke="black" stroke-width="4.0"/>
<path d="M409.4 258.03L387.37 258.03" fill="none" stroke="black" stroke-width="4.0"/>
<path d="M414.28 284.53L414.09 287.02" fill="none" stroke="black" stroke-width="4.0"/>
<path d="M414.09 287.02L413.5 289.45" fill="none" stroke="black" stroke-width="4.0"/>
<path d="M413.5 289.45L412.55 291.75" fill="none" stroke="black" stroke-width="4.0"/>
<path d="M412.55 291.75L411.25 293.88" fill="none" stroke="black" stroke-width="4.0"/>
<path d="M411.25 293.88L409.63 295.78" fill="none" stroke="black" stroke-width="4.0"/>
<path d="M409.63 295.78L407.73 297.4" fill="none" stroke="black" stroke-width="4.0"/>
<path d="M407.73 297.4L405.6 298.7" fill="none" stroke="black" stroke-width="4.0"/>
<path d="M405.6 298.7L403.3 299.65" fill="none" stroke="black" stroke-width="4.0"/>
<path d="M403.3 299.65L400.87 300.24" fill="none" stroke="black" stroke-width="4.0"/>
<path d="M400.87 300.24L398.38 300.43" fill="none" stroke="black" stroke-width="4.0"/>
<path d="M398.38 300.43L395.9 300.24" fill="none" stroke="black" stroke-width="4.0"/>
<path d="M395.9 300.24L393.47 299.65" fill="none" stroke="black" stroke-width="4.0"/>
<path d="M393.47 299.65L391.16 298.7" fill="none" stroke="black" stroke-width="4.0"/>
<path d="M391.16 298.7L389.04 297.4" fill="none" stroke="black" stroke-width="4.0"/>
<path d="M389.04 297.4L387.14 295.78" fill="none" stroke="black" stroke-width="4.0"/>
<path d="M387.14 295.78L385.52 293.88" fill="none" stroke="black" stroke-width="4.0"/>
<path d="M385.52 293.88L384.22 291.75" fill="none" stroke="black" stroke-width="4.0"/>
<path d="M384.22 291.75L383.26 289.45" fill="none" stroke="black" stroke-width="4.0"/>
<path d="M383.26 289.45L382.68 287.02" fill="none" stroke="black" stroke-width="4.0"/>
<path d="M382.68 287.02L382.48 284.53" fill="none" stroke="black" stroke-width="4.0"/>
<path d="M382.48 284.53L382.68 282.05" fill="none" stroke="black" stroke-width="4.0"/>
<path d="M382.68 282.05L383.26 279.62" fill="none" stroke="black" stroke-width="4.0"/>
<path d="M383.26 279.62L384.22 277.31" fill="none" stroke="black" stroke-width="4.0"/>
<path d="M384.22 277.31L385.52 275.19" fill="none" stroke="black" stroke-width="4.0"/>
<path d="M385.52 275.19L387.14 273.29" fill="none" stroke="black" stroke-width="4.0"/>
<path d="M387.14 273.29L389.04 271.67" fill="none" stroke="black" stroke-width="4.0"/>
<path d="M389.04 271.67L391.16 270.37" fill="none" stroke="black" stroke-width="4.0"/>
<path d="M391.16 270.37L393.47 269.41" fill="none" stroke="black" stroke-width="4.0"/>
<path d="M393.47 269.41L395.9 268.83" fill="none" stroke="black" stroke-width="4.0"/>
<path d="M395.9 268.83L398.38 268.63" fill="none" stroke="black" stroke-width="4.0"/>
<path d="M398.38 268.63L400.87 268.83" fill="none" stroke="black" stroke-width="4.0"/>
<path d="M400.87 268.83L403.3 269.41" fill="none" stroke="black" stroke-width="4.0"/>
<path d="M403.3 269.41L405.6 270.37" fill="none" stroke="black" stroke-width="4.0"/>
<path d="M405.6 270.37L407.73 271.67" fill="none" stroke="black" stroke-width="4.0"/>
<path d="M407.73 271.67L409.63 273.29" fill="none" stroke="black" stroke-width="4.0"/>
<path d="M409.63 273.29L411.25 275.19" fill="none" stroke="black" stroke-width="4.0"/>
<path d="M411.25 275.19L412.55 277.31" fill="none" stroke="black" stroke-width="4.0"/>
<path d="M412.55 277.31L413.5 279.62" fill="none" stroke="black" stroke-width="4.0"/>
<path d="M413.5 279.62L414.09 282.05" fill="none" stroke="black" stroke-width="4.0"/>
<path d="M414.09 282.05L414.28 284.53" fill="none" stroke="black" stroke-width="4.0"/>
<path d="M 551.02 251.42 A 355.858 355.858 0 0 0 498.38 238.61" fill="none" stroke="black" stroke-width="4.0"/>
<path d="M 498.38 238.61 A 618.433 618.433 0 0 0 411.02 230.6" fill="none" stroke="black" stroke-width="4.0"/>
<path d="M382.65 178.01L387.37 258.03" fill="none" stroke="black" stroke-width="4.0"/>
<path d="M414.12 178.01L409.4 258.03" fill="none" stroke="black" stroke-width="4.0"/>
<path d="M 319.97 235.47 A 618.433 618.433 0 0 0 298.38 238.61" fill="none" stroke="black" stroke-width="4.0"/>
<path d="M 298.38 238.61 A 355.858 355.858 0 0 0 245.75 251.42" fill="none" stroke="black" stroke-width="4.0"/>
<path d="M325.08 205.24L329.75 229.96" fill="none" stroke="black" stroke-width="4.0"/>
<path d="M 398.38 150.98 A 222.251 222.251 0 0 0 326.31 162.99" fill="none" stroke="black" stroke-width="4.0"/>
<path d="M 326.31 162.99 A 186.23 186.23 0 0 0 267.97 195.68" fill="none" stroke="black" stroke-width="4.0"/>
<path d="M 267.97 195.68 A 158.079 158.079 0 0 0 227.39 246.71" fill="none" stroke="black" stroke-width="4.0"/>
<path d="M 227.39 246.71 A 127.126 127.126 0 0 0 213.95 303.61" fill="none" stroke="black" stroke-width="4.0"/>
<path d="M 213.95 303.61 A 127.126 127.126 0 0 0 227.39 360.51" fill="none" stroke="black" stroke-width="4.0"/>
<path d="M 227.39 360.51 A 158.079 158.079 0 0 0 267.97 411.54" fill="none" stroke="black" stroke-width="4.0"/>
<path d="M 267.97 411.54 A 186.23 186.23 0 0 0 326.31 444.24" fill="none" stroke="black" stroke-width="4.0"/>
<path d="M 326.31 444.24 A 222.251 222.251 0 0 0 398.38 456.25" fill="none" stroke="black" stroke-width="4.0"/>
<path d="M 398.38 456.25 A 222.251 222.251 0 0 0 470.45 444.24" fill="none" stroke="black" stroke-width="4.0"/>
<path d="M 470.45 444.24 A 186.23 186.23 0 0 0 528.8 411.54" fill="none" stroke="black" stroke-width="4.0"/>
<path d="M 528.8 411.54 A 158.079 158.079 0 0 0 569.37 360.51" fill="none" stroke="black" stroke-width="4.0"/>
<path d="M 569.37 360.51 A 127.126 127.126 0 0 0 582.82 303.61" fill="none" stroke="black" stroke-width="4.0"/>
<path d="M 582.82 303.61 A 127.126 127.126 0 0 0 569.37 246.71" fill="none" stroke="black" stroke-width="4.0"/>
<path d="M 569.37 246.71 A 158.079 158.079 0 0 0 528.8 195.68" fill="none" stroke="black" stroke-width="4.0"/>
<path d="M 528.8 195.68 A 186.23 186.23 0 0 0 470.45 162.99" fill="none" stroke="black" stroke-width="4.0"/>
<path d="M 470.45 162.99 A 222.251 222.251 0 0 0 398.38 150.98" fill="none" stroke="black" stroke-width="4.0"/>
<path d="M 344.06 207.49 A 13.992 13.992 0 1 0 325.51 207.49" fill="none" stroke="black" stroke-width="4.0"/>
<path d="M 344.49 205.24 A 12.72 12.72 0 1 0 325.08 205.24" fill="none" stroke="black" stroke-width="4.0"/>
<path d="M346.24 250.34L346.05 252.45" fill="none" stroke="black" stroke-width="4.0"/>
<path d="M346.05 252.45L345.47 254.48" fill="none" stroke="black" stroke-width="4.0"/>
<path d="M345.47 254.48L344.52 256.37" fill="none" stroke="black" stroke-width="4.0"/>
<path d="M344.52 256.37L343.25 258.06" fill="none" stroke="black" stroke-width="4.0"/>
<path d="M343.25 258.06L341.69 259.48" fill="none" stroke="black" stroke-width="4.0"/>
<path d="M341.69 259.48L339.89 260.6" fill="none" stroke="black" stroke-width="4.0"/>
<path d="M339.89 260.6L337.92 261.36" fill="none" stroke="black" stroke-width="4.0"/>
<path d="M337.92 261.36L335.84 261.75" fill="none" stroke="black" stroke-width="4.0"/>
<path d="M335.84 261.75L333.73 261.75" fill="none" stroke="black" stroke-width="4.0"/>
<path d="M333.73 261.75L331.65 261.36" fill="none" stroke="black" stroke-width="4.0"/>
<path d="M331.65 261.36L329.68 260.6" fill="none" stroke="black" stroke-width="4.0"/>
<path d="M329.68 260.6L327.88 259.48" fill="none" stroke="black" stroke-width="4.0"/>
<path d="M327.88 259.48L326.32 258.06" fill="none" stroke="black" stroke-width="4.0"/>
<path d="M326.32 258.06L325.05 256.37" fill="none" stroke="black" stroke-width="4.0"/>
<path d="M325.05 256.37L324.1 254.48" fill="none" stroke="black" stroke-width="4.0"/>
<path d="M324.1 254.48L323.52 252.45" fill="none" stroke="black" stroke-width="4.0"/>
<path d="M323.52 252.45L323.33 250.34" fill="none" stroke="black" stroke-width="4.0"/>
<path d="M323.33 250.34L323.52 248.24" fill="none" stroke="black" stroke-width="4.0"/>
<path d="M323.52 248.24L324.1 246.2" fill="none" stroke="black" stroke-width="4.0"/>
<path d="M324.1 246.2L325.05 244.31" fill="none" stroke="black" stroke-width="4.0"/>
<path d="M325.05 244.31L326.32 242.63" fill="none" stroke="black" stroke-width="4.0"/>
<path d="M326.32 242.63L327.88 241.2" fill="none" stroke="black" stroke-width="4.0"/>
<path d="M327.88 241.2L329.68 240.09" fill="none" stroke="black" stroke-width="4.0"/>
<path d="M329.68 240.09L331.65 239.32" fill="none" stroke="black" stroke-width="4.0"/>
<path d="M331.65 239.32L333.73 238.94" fill="none" stroke="black" stroke-width="4.0"/>
<path d="M333.73 238.94L335.84 238.94" fill="none" stroke="black" stroke-width="4.0"/>
<path d="M335.84 238.94L337.92 239.32" fill="none" stroke="black" stroke-width="4.0"/>
<path d="M337.92 239.32L339.89 240.09" fill="none" stroke="black" stroke-width="4.0"/>
<path d="M339.89 240.09L341.69 241.2" fill="none" stroke="black" stroke-width="4.0"/>
<path d="M341.69 241.2L343.25 242.63" fill="none" stroke="black" stroke-width="4.0"/>
<path d="M343.25 242.63L344.52 244.31" fill="none" stroke="black" stroke-width="4.0"/>
<path d="M344.52 244.31L345.47 246.2" fill="none" stroke="black" stroke-width="4.0"/>
<path d="M345.47 246.2L346.05 248.24" fill="none" stroke="black" stroke-width="4.0"/>
<path d="M346.05 248.24L346.24 250.34" fill="none" stroke="black" stroke-width="4.0"/>
<path d="M 317.11 239.02 A 136.666 136.666 0 0 0 303.94 248.02" fill="none" stroke="black" stroke-width="4.0"/>
<path d="M 303.94 248.02 A 109.613 109.613 0 0 0 274.39 282.98" fill="none" stroke="black" stroke-width="4.0"/>
<path d="M 274.39 282.98 A 80.769 80.769 0 0 0 264.83 321.1" fill="none" stroke="black" stroke-width="4.0"/>
<path d="M 264.83 321.1 A 80.769 80.769 0 0 0 274.39 359.22" fill="none" stroke="black" stroke-width="4.0"/>
<path d="M 274.39 359.22 A 109.613 109.613 0 0 0 303.94 394.18" fill="none" stroke="black" stroke-width="4.0"/>
<path d="M 303.94 394.18 A 136.666 136.666 0 0 0 345.87 416.24" fill="none" stroke="black" stroke-width="4.0"/>
<path d="M 345.87 416.24 A 172.052 172.052 0 0 0 398.38 424.45" fill="none" stroke="black" stroke-width="4.0"/>
<path d="M 398.38 424.45 A 172.052 172.052 0 0 0 450.9 416.24" fill="none" stroke="black" stroke-width="4.0"/>
<path d="M 450.9 416.24 A 136.666 136.666 0 0 0 492.82 394.18" fill="none" stroke="black" stroke-width="4.0"/>
<path d="M 492.82 394.18 A 109.613 109.613 0 0 0 522.38 359.22" fill="none" stroke="black" stroke-width="4.0"/>
<path d="M 522.38 359.22 A 80.769 80.769 0 0 0 531.94 321.1" fill="none" stroke="black" stroke-width="4.0"/>
<path d="M 531.94 321.1 A 80.769 80.769 0 0 0 522.38 282.98" fill="none" stroke="black" stroke-width="4.0"/>
<path d="M 522.38 282.98 A 109.613 109.613 0 0 0 492.82 248.02" fill="none" stroke="black" stroke-width="4.0"/>
<path d="M 492.82 248.02 A 136.666 136.666 0 0 0 472.34 234.91" fill="none" stroke="black" stroke-width="4.0"/>
<path d="M355.78 250.34L355.58 253.2" fill="none" stroke="black" stroke-width="4.0"/>
<path d="M355.58 253.2L355 256.01" fill="none" stroke="black" stroke-width="4.0"/>
<path d="M355 256.01L354.04 258.71" fill="none" stroke="black" stroke-width="4.0"/>
<path d="M354.04 258.71L352.72 261.25" fill="none" stroke="black" stroke-width="4.0"/>
<path d="M352.72 261.25L351.07 263.59" fill="none" stroke="black" stroke-width="4.0"/>
<path d="M351.07 263.59L349.12 265.69" fill="none" stroke="black" stroke-width="4.0"/>
<path d="M349.12 265.69L346.89 267.5" fill="none" stroke="black" stroke-width="4.0"/>
<path d="M346.89 267.5L344.44 268.98" fill="none" stroke="black" stroke-width="4.0"/>
<path d="M344.44 268.98L341.82 270.13" fill="none" stroke="black" stroke-width="4.0"/>
<path d="M341.82 270.13L339.06 270.9" fill="none" stroke="black" stroke-width="4.0"/>
<path d="M339.06 270.9L336.22 271.29" fill="none" stroke="black" stroke-width="4.0"/>
<path d="M336.22 271.29L333.35 271.29" fill="none" stroke="black" stroke-width="4.0"/>
<path d="M333.35 271.29L330.51 270.9" fill="none" stroke="black" stroke-width="4.0"/>
<path d="M330.51 270.9L327.75 270.13" fill="none" stroke="black" stroke-width="4.0"/>
<path d="M327.75 270.13L325.13 268.98" fill="none" stroke="black" stroke-width="4.0"/>
<path d="M325.13 268.98L322.68 267.5" fill="none" stroke="black" stroke-width="4.0"/>
<path d="M322.68 267.5L320.45 265.69" fill="none" stroke="black" stroke-width="4.0"/>
<path d="M320.45 265.69L318.5 263.59" fill="none" stroke="black" stroke-width="4.0"/>
<path d="M318.5 263.59L316.85 261.25" fill="none" stroke="black" stroke-width="4.0"/>
<path d="M316.85 261.25L315.53 258.71" fill="none" stroke="black" stroke-width="4.0"/>
<path d="M315.53 258.71L314.57 256.01" fill="none" stroke="black" stroke-width="4.0"/>
<path d="M314.57 256.01L313.99 253.2" fill="none" stroke="black" stroke-width="4.0"/>
<path d="M313.99 253.2L313.79 250.34" fill="none" stroke="black" stroke-width="4.0"/>
<path d="M313.79 250.34L313.99 247.48" fill="none" stroke="black" stroke-width="4.0"/>
<path d="M313.99 247.48L314.57 244.68" fill="none" stroke="black" stroke-width="4.0"/>
<path d="M314.57 244.68L315.53 241.98" fill="none" stroke="black" stroke-width="4.0"/>
<path d="M315.53 241.98L316.85 239.43" fill="none" stroke="black" stroke-width="4.0"/>
<path d="M316.85 239.43L318.5 237.09" fill="none" stroke="black" stroke-width="4.0"/>
<path d="M318.5 237.09L320.45 235" fill="none" stroke="black" stroke-width="4.0"/>
<path d="M320.45 235L322.68 233.19" fill="none" stroke="black" stroke-width="4.0"/>
<path d="M322.68 233.19L325.13 231.7" fill="none" stroke="black" stroke-width="4.0"/>
<path d="M325.13 231.7L327.75 230.56" fill="none" stroke="black" stroke-width="4.0"/>
<path d="M327.75 230.56L330.51 229.79" fill="none" stroke="black" stroke-width="4.0"/>
<path d="M330.51 229.79L333.35 229.4" fill="none" stroke="black" stroke-width="4.0"/>
<path d="M333.35 229.4L336.22 229.4" fill="none" stroke="black" stroke-width="4.0"/>
<path d="M336.22 229.4L339.06 229.79" fill="none" stroke="black" stroke-width="4.0"/>
<path d="M339.06 229.79L341.82 230.56" fill="none" stroke="black" stroke-width="4.0"/>
<path d="M341.82 230.56L344.44 231.7" fill="none" stroke="black" stroke-width="4.0"/>
<path d="M344.44 231.7L346.89 233.19" fill="none" stroke="black" stroke-width="4.0"/>
<path d="M346.89 233.19L349.12 235" fill="none" stroke="black" stroke-width="4.0"/>
<path d="M349.12 235L351.07 237.09" fill="none" stroke="black" stroke-width="4.0"/>
<path d="M351.07 237.09L352.72 239.43" fill="none" stroke="black" stroke-width="4.0"/>
<path d="M352.72 239.43L354.04 241.98" fill="none" stroke="black" stroke-width="4.0"/>
<path d="M354.04 241.98L355 244.68" fill="none" stroke="black" stroke-width="4.0"/>
<path d="M355 244.68L355.58 247.48" fill="none" stroke="black" stroke-width="4.0"/>
<path d="M355.58 247.48L355.78 250.34" fill="none" stroke="black" stroke-width="4.0"/>
<path d="M344.49 205.24L339.82 229.96" fill="none" stroke="black" stroke-width="4.0"/>
</svg>