<svg xmlns="http://www.w3.org/2000/svg" xmlns:ev="http://www.w3.org/2001/xml-events" xmlns:xlink="http://www.w3.org/1999/xlink" baseProfile="full" version="1.1" viewBox="-458.25 211.95 309.27 372.87">
	<defs/>
	<path d="M -197.00999999999996,468.54 L -198.57999999999998,468.35" fill="none" stroke="black" stroke-width="4.0"/>
	<path d="M -198.57999999999998,468.35 L -200.05999999999997,467.79" fill="none" stroke="black" stroke-width="4.0"/>
	<path d="M -200.05999999999997,467.79 L -201.35999999999999,466.89" fill="none" stroke="black" stroke-width="4.0"/>
	<path d="M -201.35999999999999,466.89 L -202.40999999999997,465.71" fill="none" stroke="black" stroke-width="4.0"/>
	<path d="M -202.40999999999997,465.71 L -203.13999999999996,464.31" fill="none" stroke="black" stroke-width="4.0"/>
	<path d="M -203.13999999999996,464.31 L -203.51999999999998,462.77" fill="none" stroke="black" stroke-width="4.0"/>
	<path d="M -203.51999999999998,462.77 L -203.51999999999998,461.19" fill="none" stroke="black" stroke-width="4.0"/>
	<path d="M -203.51999999999998,461.19 L -203.13999999999996,459.66" fill="none" stroke="black" stroke-width="4.0"/>
	<path d="M -203.13999999999996,459.66 L -202.40999999999997,458.25" fill="none" stroke="black" stroke-width="4.0"/>
	<path d="M -202.40999999999997,458.25 L -201.35999999999999,457.07" fill="none" stroke="black" stroke-width="4.0"/>
	<path d="M -201.35999999999999,457.07 L -200.05999999999997,456.17" fill="none" stroke="black" stroke-width="4.0"/>
	<path d="M -200.05999999999997,456.17 L -198.57999999999998,455.61" fill="none" stroke="black" stroke-width="4.0"/>
	<path d="M -198.57999999999998,455.61 L -197.00999999999996,455.42" fill="none" stroke="black" stroke-width="4.0"/>
	<path d="M -197.00999999999996,455.42 L -195.43999999999997,455.61" fill="none" stroke="black" stroke-width="4.0"/>
	<path d="M -195.43999999999997,455.61 L -193.95999999999998,456.17" fill="none" stroke="black" stroke-width="4.0"/>
	<path d="M -193.95999999999998,456.17 L -192.65999999999997,457.07" fill="none" stroke="black" stroke-width="4.0"/>
	<path d="M -192.65999999999997,457.07 L -191.60999999999999,458.25" fill="none" stroke="black" stroke-width="4.0"/>
	<path d="M -191.60999999999999,458.25 L -190.87999999999997,459.66" fill="none" stroke="black" stroke-width="4.0"/>
	<path d="M -190.87999999999997,459.66 L -190.49999999999997,461.19" fill="none" stroke="black" stroke-width="4.0"/>
	<path d="M -190.49999999999997,461.19 L -190.49999999999997,462.77" fill="none" stroke="black" stroke-width="4.0"/>
	<path d="M -190.49999999999997,462.77 L -190.87999999999997,464.31" fill="none" stroke="black" stroke-width="4.0"/>
	<path d="M -190.87999999999997,464.31 L -191.60999999999999,465.71" fill="none" stroke="black" stroke-width="4.0"/>
	<path d="M -191.60999999999999,465.71 L -192.65999999999997,466.89" fill="none" stroke="black" stroke-width="4.0"/>
	<path d="M -192.65999999999997,466.89 L -193.95999999999998,467.79" fill="none" stroke="black" stroke-width="4.0"/>
	<path d="M -193.95999999999998,467.79 L -195.43999999999997,468.35" fill="none" stroke="black" stroke-width="4.0"/>
	<path d="M -195.43999999999997,468.35 L -197.00999999999996,468.54" fill="none" stroke="black" stroke-width="4.0"/>
	<path d="M -182.55999999999997,456.0 L -191.02999999999997,447.53" fill="none" stroke="black" stroke-width="4.0"/>
	<path d="M -191.02999999999997,447.53 L -202.99999999999997,447.53 L -191.02999999999997,447.53" fill="none" stroke="black" stroke-width="4.0"/>
	<path d="M -202.99999999999997,447.53 L -211.45999999999998,456.0" fill="none" stroke="black" stroke-width="4.0"/>
	<path d="M -211.45999999999998,456.0 L -211.45999999999998,467.97" fill="none" stroke="black" stroke-width="4.0"/>
	<path d="M -211.45999999999998,467.97 L -202.99999999999997,476.43" fill="none" stroke="black" stroke-width="4.0"/>
	<path d="M -202.99999999999997,476.43 L -191.02999999999997,476.43 L -202.99999999999997,476.43" fill="none" stroke="black" stroke-width="4.0"/>
	<path d="M -191.02999999999997,476.43 L -182.55999999999997,467.97" fill="none" stroke="black" stroke-width="4.0"/>
	<path d="M -182.55999999999997,467.97 L -182.55999999999997,456.0" fill="none" stroke="black" stroke-width="4.0"/>
	<path d="M -178.00999999999996,414.12 L -178.00999999999996,382.65" fill="none" stroke="black" stroke-width="4.0"/>
	<path d="M -197.00999999999996,405.38 L -198.62999999999997,405.19" fill="none" stroke="black" stroke-width="4.0"/>
	<path d="M -198.62999999999997,405.19 L -200.14999999999998,404.63" fill="none" stroke="black" stroke-width="4.0"/>
	<path d="M -200.14999999999998,404.63 L -201.50999999999996,403.74" fill="none" stroke="black" stroke-width="4.0"/>
	<path d="M -201.50999999999996,403.74 L -202.61999999999998,402.56" fill="none" stroke="black" stroke-width="4.0"/>
	<path d="M -202.61999999999998,402.56 L -203.43999999999997,401.15" fill="none" stroke="black" stroke-width="4.0"/>
	<path d="M -203.43999999999997,401.15 L -203.89999999999998,399.6" fill="none" stroke="black" stroke-width="4.0"/>
	<path d="M -203.89999999999998,399.6 L -203.99999999999997,397.98" fill="none" stroke="black" stroke-width="4.0"/>
	<path d="M -203.99999999999997,397.98 L -203.70999999999998,396.38" fill="none" stroke="black" stroke-width="4.0"/>
	<path d="M -203.70999999999998,396.38 L -203.06999999999996,394.89" fill="none" stroke="black" stroke-width="4.0"/>
	<path d="M -203.06999999999996,394.89 L -202.09999999999997,393.58" fill="none" stroke="black" stroke-width="4.0"/>
	<path d="M -202.09999999999997,393.58 L -200.85999999999999,392.54" fill="none" stroke="black" stroke-width="4.0"/>
	<path d="M -200.85999999999999,392.54 L -199.39999999999998,391.81" fill="none" stroke="black" stroke-width="4.0"/>
	<path d="M -199.39999999999998,391.81 L -197.81999999999996,391.43" fill="none" stroke="black" stroke-width="4.0"/>
	<path d="M -197.81999999999996,391.43 L -196.19999999999996,391.43 L -197.81999999999996,391.43" fill="none" stroke="black" stroke-width="4.0"/>
	<path d="M -196.19999999999996,391.43 L -194.61999999999998,391.81" fill="none" stroke="black" stroke-width="4.0"/>
	<path d="M -194.61999999999998,391.81 L -193.16999999999996,392.54" fill="none" stroke="black" stroke-width="4.0"/>
	<path d="M -193.16999999999996,392.54 L -191.91999999999996,393.58" fill="none" stroke="black" stroke-width="4.0"/>
	<path d="M -191.91999999999996,393.58 L -190.94999999999996,394.89" fill="none" stroke="black" stroke-width="4.0"/>
	<path d="M -190.94999999999996,394.89 L -190.30999999999997,396.38" fill="none" stroke="black" stroke-width="4.0"/>
	<path d="M -190.30999999999997,396.38 L -190.02999999999997,397.98" fill="none" stroke="black" stroke-width="4.0"/>
	<path d="M -190.02999999999997,397.98 L -190.11999999999998,399.6" fill="none" stroke="black" stroke-width="4.0"/>
	<path d="M -190.11999999999998,399.6 L -190.58999999999997,401.15" fill="none" stroke="black" stroke-width="4.0"/>
	<path d="M -190.58999999999997,401.15 L -191.39999999999998,402.56" fill="none" stroke="black" stroke-width="4.0"/>
	<path d="M -191.39999999999998,402.56 L -192.51999999999998,403.74" fill="none" stroke="black" stroke-width="4.0"/>
	<path d="M -192.51999999999998,403.74 L -193.86999999999998,404.63" fill="none" stroke="black" stroke-width="4.0"/>
	<path d="M -193.86999999999998,404.63 L -195.39999999999998,405.19" fill="none" stroke="black" stroke-width="4.0"/>
	<path d="M -195.39999999999998,405.19 L -197.00999999999996,405.38" fill="none" stroke="black" stroke-width="4.0"/>
	<path d="M -230.59999999999997,385.75 A 618.433,618.433 0.0 0,0 -232.67999999999998,346.14" fill="none" stroke="black" stroke-width="4.0"/>
	<path d="M -258.03,409.4 L -258.03,387.37" fill="none" stroke="black" stroke-width="4.0"/>
	<path d="M -284.53,414.28 L -287.02,414.09" fill="none" stroke="black" stroke-width="4.0"/>
	<path d="M -287.02,414.09 L -289.45,413.5" fill="none" stroke="black" stroke-width="4.0"/>
	<path d="M -289.45,413.5 L -291.75,412.55" fill="none" stroke="black" stroke-width="4.0"/>
	<path d="M -291.75,412.55 L -293.88,411.25" fill="none" stroke="black" stroke-width="4.0"/>
	<path d="M -293.88,411.25 L -295.78,409.63" fill="none" stroke="black" stroke-width="4.0"/>
	<path d="M -295.78,409.63 L -297.4,407.73" fill="none" stroke="black" stroke-width="4.0"/>
	<path d="M -297.4,407.73 L -298.7,405.6" fill="none" stroke="black" stroke-width="4.0"/>
	<path d="M -298.7,405.6 L -299.65,403.3" fill="none" stroke="black" stroke-width="4.0"/>
	<path d="M -299.65,403.3 L -300.24,400.87" fill="none" stroke="black" stroke-width="4.0"/>
	<path d="M -300.24,400.87 L -300.43,398.38" fill="none" stroke="black" stroke-width="4.0"/>
	<path d="M -300.43,398.38 L -300.24,395.9" fill="none" stroke="black" stroke-width="4.0"/>
	<path d="M -300.24,395.9 L -299.65,393.47" fill="none" stroke="black" stroke-width="4.0"/>
	<path d="M -299.65,393.47 L -298.7,391.16" fill="none" stroke="black" stroke-width="4.0"/>
	<path d="M -298.7,391.16 L -297.4,389.04" fill="none" stroke="black" stroke-width="4.0"/>
	<path d="M -297.4,389.04 L -295.78,387.14" fill="none" stroke="black" stroke-width="4.0"/>
	<path d="M -295.78,387.14 L -293.88,385.52" fill="none" stroke="black" stroke-width="4.0"/>
	<path d="M -293.88,385.52 L -291.75,384.22" fill="none" stroke="black" stroke-width="4.0"/>
	<path d="M -291.75,384.22 L -289.45,383.26" fill="none" stroke="black" stroke-width="4.0"/>
	<path d="M -289.45,383.26 L -287.02,382.68" fill="none" stroke="black" stroke-width="4.0"/>
	<path d="M -287.02,382.68 L -284.53,382.48" fill="none" stroke="black" stroke-width="4.0"/>
	<path d="M -284.53,382.48 L -282.05,382.68" fill="none" stroke="black" stroke-width="4.0"/>
	<path d="M -282.05,382.68 L -279.62,383.26" fill="none" stroke="black" stroke-width="4.0"/>
	<path d="M -279.62,383.26 L -277.31,384.22" fill="none" stroke="black" stroke-width="4.0"/>
	<path d="M -277.31,384.22 L -275.19,385.52" fill="none" stroke="black" stroke-width="4.0"/>
	<path d="M -275.19,385.52 L -273.29,387.14" fill="none" stroke="black" stroke-width="4.0"/>
	<path d="M -273.29,387.14 L -271.67,389.04" fill="none" stroke="black" stroke-width="4.0"/>
	<path d="M -271.67,389.04 L -270.37,391.16" fill="none" stroke="black" stroke-width="4.0"/>
	<path d="M -270.37,391.16 L -269.41,393.47" fill="none" stroke="black" stroke-width="4.0"/>
	<path d="M -269.41,393.47 L -268.83,395.9" fill="none" stroke="black" stroke-width="4.0"/>
	<path d="M -268.83,395.9 L -268.63,398.38" fill="none" stroke="black" stroke-width="4.0"/>
	<path d="M -268.63,398.38 L -268.83,400.87" fill="none" stroke="black" stroke-width="4.0"/>
	<path d="M -268.83,400.87 L -269.41,403.3" fill="none" stroke="black" stroke-width="4.0"/>
	<path d="M -269.41,403.3 L -270.37,405.6" fill="none" stroke="black" stroke-width="4.0"/>
	<path d="M -270.37,405.6 L -271.67,407.73" fill="none" stroke="black" stroke-width="4.0"/>
	<path d="M -271.67,407.73 L -273.29,409.63" fill="none" stroke="black" stroke-width="4.0"/>
	<path d="M -273.29,409.63 L -275.19,411.25" fill="none" stroke="black" stroke-width="4.0"/>
	<path d="M -275.19,411.25 L -277.31,412.55" fill="none" stroke="black" stroke-width="4.0"/>
	<path d="M -277.31,412.55 L -279.62,413.5" fill="none" stroke="black" stroke-width="4.0"/>
	<path d="M -279.62,413.5 L -282.05,414.09" fill="none" stroke="black" stroke-width="4.0"/>
	<path d="M -282.05,414.09 L -284.53,414.28" fill="none" stroke="black" stroke-width="4.0"/>
	<path d="M -251.41999999999996,551.02 A 355.858,355.858 0.0 0,0 -238.60999999999999,498.38" fill="none" stroke="black" stroke-width="4.0"/>
	<path d="M -238.60999999999999,498.38 A 618.433,618.433 0.0 0,0 -230.59999999999997,411.02" fill="none" stroke="black" stroke-width="4.0"/>
	<path d="M -178.00999999999996,382.65 L -258.03,387.37" fill="none" stroke="black" stroke-width="4.0"/>
	<path d="M -178.00999999999996,414.12 L -258.03,409.4" fill="none" stroke="black" stroke-width="4.0"/>
	<path d="M -235.46999999999997,319.97 A 618.433,618.433 0.0 0,0 -238.60999999999999,298.38" fill="none" stroke="black" stroke-width="4.0"/>
	<path d="M -238.60999999999999,298.38 A 355.858,355.858 0.0 0,0 -251.41999999999996,245.75000000000003" fill="none" stroke="black" stroke-width="4.0"/>
	<path d="M -205.23999999999998,325.08 L -229.95999999999998,329.75" fill="none" stroke="black" stroke-width="4.0"/>
	<path d="M -150.97999999999996,398.38 A 222.251,222.251 0.0 0,0 -162.98999999999998,326.31" fill="none" stroke="black" stroke-width="4.0"/>
	<path d="M -162.98999999999998,326.31 A 186.23,186.23 0.0 0,0 -195.67999999999998,267.97" fill="none" stroke="black" stroke-width="4.0"/>
	<path d="M -195.67999999999998,267.97 A 158.079,158.079 0.0 0,0 -246.71,227.39000000000001" fill="none" stroke="black" stroke-width="4.0"/>
	<path d="M -246.71,227.39000000000001 A 127.126,127.126 0.0 0,0 -303.61,213.95000000000002" fill="none" stroke="black" stroke-width="4.0"/>
	<path d="M -303.61,213.95000000000002 A 127.126,127.126 0.0 0,0 -360.51,227.39000000000001" fill="none" stroke="black" stroke-width="4.0"/>
	<path d="M -360.51,227.39000000000001 A 158.079,158.079 0.0 0,0 -411.54,267.97" fill="none" stroke="black" stroke-width="4.0"/>
	<path d="M -411.54,267.97 A 186.23,186.23 0.0 0,0 -444.24,326.31" fill="none" stroke="black" stroke-width="4.0"/>
	<path d="M -444.24,326.31 A 222.251,222.251 0.0 0,0 -456.25,398.38" fill="none" stroke="black" stroke-width="4.0"/>
	<path d="M -456.25,398.38 A 222.251,222.251 0.0 0,0 -444.23999999999995,470.45" fill="none" stroke="black" stroke-width="4.0"/>
	<path d="M -444.23999999999995,470.45 A 186.23,186.23 0.0 0,0 -411.53999999999996,528.8" fill="none" stroke="black" stroke-width="4.0"/>
	<path d="M -411.53999999999996,528.8 A 158.079,158.079 0.0 0,0 -360.50999999999993,569.37" fill="none" stroke="black" stroke-width="4.0"/>
	<path d="M -360.50999999999993,569.37 A 127.126,127.126 0.0 0,0 -303.60999999999996,582.82" fill="none" stroke="black" stroke-width="4.0"/>
	<path d="M -303.60999999999996,582.82 A 127.126,127.126 0.0 0,0 -246.70999999999998,569.37" fill="none" stroke="black" stroke-width="4.0"/>
	<path d="M -246.70999999999998,569.37 A 158.079,158.079 0.0 0,0 -195.67999999999998,528.8" fill="none" stroke="black" stroke-width="4.0"/>
	<path d="M -195.67999999999998,528.8 A 186.23,186.23 0.0 0,0 -162.98999999999998,470.45" fill="none" stroke="black" stroke-width="4.0"/>
	<path d="M -162.98999999999998,470.45 A 222.251,222.251 0.0 0,0 -150.97999999999996,398.38" fill="none" stroke="black" stroke-width="4.0"/>
	<path d="M -207.48999999999998,344.06 A 13.992,13.992 0.0 1,0 -207.48999999999998,325.51" fill="none" stroke="black" stroke-width="4.0"/>
	<path d="M -205.23999999999998,344.49 A 12.72,12.72 0.0 1,0 -205.23999999999998,325.08" fill="none" stroke="black" stroke-width="4.0"/>
	<path d="M -250.33999999999997,346.24 L -252.44999999999996,346.05" fill="none" stroke="black" stroke-width="4.0"/>
	<path d="M -252.44999999999996,346.05 L -254.47999999999996,345.47" fill="none" stroke="black" stroke-width="4.0"/>
	<path d="M -254.47999999999996,345.47 L -256.37,344.52" fill="none" stroke="black" stroke-width="4.0"/>
	<path d="M -256.37,344.52 L -258.06,343.25" fill="none" stroke="black" stroke-width="4.0"/>
	<path d="M -258.06,343.25 L -259.48,341.69" fill="none" stroke="black" stroke-width="4.0"/>
	<path d="M -259.48,341.69 L -260.6,339.89" fill="none" stroke="black" stroke-width="4.0"/>
	<path d="M -260.6,339.89 L -261.36,337.92" fill="none" stroke="black" stroke-width="4.0"/>
	<path d="M -261.36,337.92 L -261.75,335.84" fill="none" stroke="black" stroke-width="4.0"/>
	<path d="M -261.75,335.84 L -261.75,333.73" fill="none" stroke="black" stroke-width="4.0"/>
	<path d="M -261.75,333.73 L -261.36,331.65" fill="none" stroke="black" stroke-width="4.0"/>
	<path d="M -261.36,331.65 L -260.6,329.68" fill="none" stroke="black" stroke-width="4.0"/>
	<path d="M -260.6,329.68 L -259.48,327.88" fill="none" stroke="black" stroke-width="4.0"/>
	<path d="M -259.48,327.88 L -258.06,326.32" fill="none" stroke="black" stroke-width="4.0"/>
	<path d="M -258.06,326.32 L -256.37,325.05" fill="none" stroke="black" stroke-width="4.0"/>
	<path d="M -256.37,325.05 L -254.47999999999996,324.1" fill="none" stroke="black" stroke-width="4.0"/>
	<path d="M -254.47999999999996,324.1 L -252.44999999999996,323.52" fill="none" stroke="black" stroke-width="4.0"/>
	<path d="M -252.44999999999996,323.52 L -250.33999999999997,323.33" fill="none" stroke="black" stroke-width="4.0"/>
	<path d="M -250.33999999999997,323.33 L -248.23999999999998,323.52" fill="none" stroke="black" stroke-width="4.0"/>
	<path d="M -248.23999999999998,323.52 L -246.19999999999996,324.1" fill="none" stroke="black" stroke-width="4.0"/>
	<path d="M -246.19999999999996,324.1 L -244.30999999999997,325.05" fill="none" stroke="black" stroke-width="4.0"/>
	<path d="M -244.30999999999997,325.05 L -242.62999999999997,326.32" fill="none" stroke="black" stroke-width="4.0"/>
	<path d="M -242.62999999999997,326.32 L -241.19999999999996,327.88" fill="none" stroke="black" stroke-width="4.0"/>
	<path d="M -241.19999999999996,327.88 L -240.08999999999997,329.68" fill="none" stroke="black" stroke-width="4.0"/>
	<path d="M -240.08999999999997,329.68 L -239.31999999999996,331.65" fill="none" stroke="black" stroke-width="4.0"/>
	<path d="M -239.31999999999996,331.65 L -238.93999999999997,333.73" fill="none" stroke="black" stroke-width="4.0"/>
	<path d="M -238.93999999999997,333.73 L -238.93999999999997,335.84" fill="none" stroke="black" stroke-width="4.0"/>
	<path d="M -238.93999999999997,335.84 L -239.31999999999996,337.92" fill="none" stroke="black" stroke-width="4.0"/>
	<path d="M -239.31999999999996,337.92 L -240.08999999999997,339.89" fill="none" stroke="black" stroke-width="4.0"/>
	<path d="M -240.08999999999997,339.89 L -241.19999999999996,341.69" fill="none" stroke="black" stroke-width="4.0"/>
	<path d="M -241.19999999999996,341.69 L -242.62999999999997,343.25" fill="none" stroke="black" stroke-width="4.0"/>
	<path d="M -242.62999999999997,343.25 L -244.30999999999997,344.52" fill="none" stroke="black" stroke-width="4.0"/>
	<path d="M -244.30999999999997,344.52 L -246.19999999999996,345.47" fill="none" stroke="black" stroke-width="4.0"/>
	<path d="M -246.19999999999996,345.47 L -248.23999999999998,346.05" fill="none" stroke="black" stroke-width="4.0"/>
	<path d="M -248.23999999999998,346.05 L -250.33999999999997,346.24" fill="none" stroke="black" stroke-width="4.0"/>
	<path d="M -239.01999999999998,317.11 A 136.666,136.666 0.0 0,0 -248.01999999999998,303.94" fill="none" stroke="black" stroke-width="4.0"/>
	<path d="M -248.01999999999998,303.94 A 109.613,109.613 0.0 0,0 -282.98,274.39" fill="none" stroke="black" stroke-width="4.0"/>
	<path d="M -282.98,274.39 A 80.769,80.769 0.0 0,0 -321.1,264.83" fill="none" stroke="black" stroke-width="4.0"/>
	<path d="M -321.1,264.83 A 80.769,80.769 0.0 0,0 -359.22,274.39" fill="none" stroke="black" stroke-width="4.0"/>
	<path d="M -359.22,274.39 A 109.613,109.613 0.0 0,0 -394.18,303.94" fill="none" stroke="black" stroke-width="4.0"/>
	<path d="M -394.18,303.94 A 136.666,136.666 0.0 0,0 -416.24,345.87" fill="none" stroke="black" stroke-width="4.0"/>
	<path d="M -416.24,345.87 A 172.052,172.052 0.0 0,0 -424.45,398.38" fill="none" stroke="black" stroke-width="4.0"/>
	<path d="M -424.45,398.38 A 172.052,172.052 0.0 0,0 -416.24,450.9" fill="none" stroke="black" stroke-width="4.0"/>
	<path d="M -416.24,450.9 A 136.666,136.666 0.0 0,0 -394.17999999999995,492.82" fill="none" stroke="black" stroke-width="4.0"/>
	<path d="M -394.17999999999995,492.82 A 109.613,109.613 0.0 0,0 -359.21999999999997,522.38" fill="none" stroke="black" stroke-width="4.0"/>
	<path d="M -359.21999999999997,522.38 A 80.769,80.769 0.0 0,0 -321.09999999999997,531.94" fill="none" stroke="black" stroke-width="4.0"/>
	<path d="M -321.09999999999997,531.94 A 80.769,80.769 0.0 0,0 -282.97999999999996,522.38" fill="none" stroke="black" stroke-width="4.0"/>
	<path d="M -282.97999999999996,522.38 A 109.613,109.613 0.0 0,0 -248.01999999999998,492.82" fill="none" stroke="black" stroke-width="4.0"/>
	<path d="M -248.01999999999998,492.82 A 136.666,136.666 0.0 0,0 -234.90999999999997,472.34" fill="none" stroke="black" stroke-width="4.0"/>
	<path d="M -250.33999999999997,355.78 L -253.19999999999996,355.58" fill="none" stroke="black" stroke-width="4.0"/>
	<path d="M -253.19999999999996,355.58 L -256.01,355.0" fill="none" stroke="black" stroke-width="4.0"/>
	<path d="M -256.01,355.0 L -258.71,354.04" fill="none" stroke="black" stroke-width="4.0"/>
	<path d="M -258.71,354.04 L -261.25,352.72" fill="none" stroke="black" stroke-width="4.0"/>
	<path d="M -261.25,352.72 L -263.59,351.07" fill="none" stroke="black" stroke-width="4.0"/>
	<path d="M -263.59,351.07 L -265.69,349.12" fill="none" stroke="black" stroke-width="4.0"/>
	<path d="M -265.69,349.12 L -267.5,346.89" fill="none" stroke="black" stroke-width="4.0"/>
	<path d="M -267.5,346.89 L -268.98,344.44" fill="none" stroke="black" stroke-width="4.0"/>
	<path d="M -268.98,344.44 L -270.13,341.82" fill="none" stroke="black" stroke-width="4.0"/>
	<path d="M -270.13,341.82 L -270.9,339.06" fill="none" stroke="black" stroke-width="4.0"/>
	<path d="M -270.9,339.06 L -271.29,336.22" fill="none" stroke="black" stroke-width="4.0"/>
	<path d="M -271.29,336.22 L -271.29,333.35" fill="none" stroke="black" stroke-width="4.0"/>
	<path d="M -271.29,333.35 L -270.9,330.51" fill="none" stroke="black" stroke-width="4.0"/>
	<path d="M -270.9,330.51 L -270.13,327.75" fill="none" stroke="black" stroke-width="4.0"/>
	<path d="M -270.13,327.75 L -268.98,325.13" fill="none" stroke="black" stroke-width="4.0"/>
	<path d="M -268.98,325.13 L -267.5,322.68" fill="none" stroke="black" stroke-width="4.0"/>
	<path d="M -267.5,322.68 L -265.69,320.45" fill="none" stroke="black" stroke-width="4.0"/>
	<path d="M -265.69,320.45 L -263.59,318.5" fill="none" stroke="black" stroke-width="4.0"/>
	<path d="M -263.59,318.5 L -261.25,316.85" fill="none" stroke="black" stroke-width="4.0"/>
	<path d="M -261.25,316.85 L -258.71,315.53" fill="none" stroke="black" stroke-width="4.0"/>
	<path d="M -258.71,315.53 L -256.01,314.57" fill="none" stroke="black" stroke-width="4.0"/>
	<path d="M -256.01,314.57 L -253.19999999999996,313.99" fill="none" stroke="black" stroke-width="4.0"/>
	<path d="M -253.19999999999996,313.99 L -250.33999999999997,313.79" fill="none" stroke="black" stroke-width="4.0"/>
	<path d="M -250.33999999999997,313.79 L -247.47999999999996,313.99" fill="none" stroke="black" stroke-width="4.0"/>
	<path d="M -247.47999999999996,313.99 L -244.67999999999998,314.57" fill="none" stroke="black" stroke-width="4.0"/>
	<path d="M -244.67999999999998,314.57 L -241.97999999999996,315.53" fill="none" stroke="black" stroke-width="4.0"/>
	<path d="M -241.97999999999996,315.53 L -239.42999999999998,316.85" fill="none" stroke="black" stroke-width="4.0"/>
	<path d="M -239.42999999999998,316.85 L -237.08999999999997,318.5" fill="none" stroke="black" stroke-width="4.0"/>
	<path d="M -237.08999999999997,318.5 L -234.99999999999997,320.45" fill="none" stroke="black" stroke-width="4.0"/>
	<path d="M -234.99999999999997,320.45 L -233.18999999999997,322.68" fill="none" stroke="black" stroke-width="4.0"/>
	<path d="M -233.18999999999997,322.68 L -231.69999999999996,325.13" fill="none" stroke="black" stroke-width="4.0"/>
	<path d="M -231.69999999999996,325.13 L -230.55999999999997,327.75" fill="none" stroke="black" stroke-width="4.0"/>
	<path d="M -230.55999999999997,327.75 L -229.78999999999996,330.51" fill="none" stroke="black" stroke-width="4.0"/>
	<path d="M -229.78999999999996,330.51 L -229.39999999999998,333.35" fill="none" stroke="black" stroke-width="4.0"/>
	<path d="M -229.39999999999998,333.35 L -229.39999999999998,336.22" fill="none" stroke="black" stroke-width="4.0"/>
	<path d="M -229.39999999999998,336.22 L -229.78999999999996,339.06" fill="none" stroke="black" stroke-width="4.0"/>
	<path d="M -229.78999999999996,339.06 L -230.55999999999997,341.82" fill="none" stroke="black" stroke-width="4.0"/>
	<path d="M -230.55999999999997,341.82 L -231.69999999999996,344.44" fill="none" stroke="black" stroke-width="4.0"/>
	<path d="M -231.69999999999996,344.44 L -233.18999999999997,346.89" fill="none" stroke="black" stroke-width="4.0"/>
	<path d="M -233.18999999999997,346.89 L -234.99999999999997,349.12" fill="none" stroke="black" stroke-width="4.0"/>
	<path d="M -234.99999999999997,349.12 L -237.08999999999997,351.07" fill="none" stroke="black" stroke-width="4.0"/>
	<path d="M -237.08999999999997,351.07 L -239.42999999999998,352.72" fill="none" stroke="black" stroke-width="4.0"/>
	<path d="M -239.42999999999998,352.72 L -241.97999999999996,354.04" fill="none" stroke="black" stroke-width="4.0"/>
	<path d="M -241.97999999999996,354.04 L -244.67999999999998,355.0" fill="none" stroke="black" stroke-width="4.0"/>
	<path d="M -244.67999999999998,355.0 L -247.47999999999996,355.58" fill="none" stroke="black" stroke-width="4.0"/>
	<path d="M -247.47999999999996,355.58 L -250.33999999999997,355.78" fill="none" stroke="black" stroke-width="4.0"/>
	<path d="M -205.23999999999998,344.49 L -229.95999999999998,339.82" fill="none" stroke="black" stroke-width="4.0"/>
</svg>