<svg xmlns="http://www.w3.org/2000/svg" version="1.1" viewBox="1.15 271.28 797.71 57.44">
  <desc>Produce by Acme CAD Converter</desc>
<path d="M770.14 319.93L770.14 319.93Z" fill="none" stroke="black" stroke-width="4.0"/>
<path d="M770.14 319.93L770.14 328.47Z" fill="none" stroke="black" stroke-width="4.0"/>
<path d="M770.14 328.47L770.14 301.55Z" fill="none" stroke="black" stroke-width="4.0"/>
<path d="M770.14 301.55L770.14 328.47Z" fill="none" stroke="black" stroke-width="4.0"/>
<path d="M770.14 328.47L798.61 328.47" fill="none" stroke="black" stroke-width="4.0"/>
<path d="M798.61 328.47L798.61 271.53Z" fill="none" stroke="black" stroke-width="4.0"/>
<path d="M798.61 271.53L770.14 271.53" fill="none" stroke="black" stroke-width="4.0"/>
<path d="M770.14 271.53L770.14 319.93Z" fill="none" stroke="black" stroke-width="4.0"/>
<path d="M414.24 328.47L385.77 328.47" fill="none" stroke="black" stroke-width="4.0"/>
<path d="M385.77 328.47L385.77 300Z" fill="none" stroke="black" stroke-width="4.0"/>
<path d="M385.77 300L414.24 300" fill="none" stroke="black" stroke-width="4.0"/>
<path d="M414.24 300L414.24 308.54Z" fill="none" stroke="black" stroke-width="4.0"/>
<path d="M414.24 308.54L402.85 308.54" fill="none" stroke="black" stroke-width="4.0"/>
<path d="M402.85 308.54L402.85 319.93Z" fill="none" stroke="black" stroke-width="4.0"/>
<path d="M402.85 319.93L414.24 319.93" fill="none" stroke="black" stroke-width="4.0"/>
<path d="M414.24 319.93L414.24 328.47Z" fill="none" stroke="black" stroke-width="4.0"/>
<path d="M741.66 328.47L770.14 328.47" fill="none" stroke="black" stroke-width="4.0"/>
<path d="M770.14 328.47L770.14 300Z" fill="none" stroke="black" stroke-width="4.0"/>
<path d="M770.14 300L741.66 300" fill="none" stroke="black" stroke-width="4.0"/>
<path d="M741.66 300L741.66 308.54Z" fill="none" stroke="black" stroke-width="4.0"/>
<path d="M741.66 308.54L753.05 308.54" fill="none" stroke="black" stroke-width="4.0"/>
<path d="M753.05 308.54L753.05 319.93Z" fill="none" stroke="black" stroke-width="4.0"/>
<path d="M753.05 319.93L741.66 319.93" fill="none" stroke="black" stroke-width="4.0"/>
<path d="M741.66 319.93L741.66 328.47Z" fill="none" stroke="black" stroke-width="4.0"/>
<path d="M741.66 319.93L414.24 319.93" fill="none" stroke="black" stroke-width="4.0"/>
<path d="M414.24 308.54L741.66 308.54" fill="none" stroke="black" stroke-width="4.0"/>
<path d="M414.24 271.53L414.24 300Z" fill="none" stroke="black" stroke-width="4.0"/>
<path d="M414.24 300L385.77 300" fill="none" stroke="black" stroke-width="4.0"/>
<path d="M385.77 300L385.77 291.46Z" fill="none" stroke="black" stroke-width="4.0"/>
<path d="M385.77 291.46L397.16 291.46" fill="none" stroke="black" stroke-width="4.0"/>
<path d="M397.16 291.46L397.16 280.07Z" fill="none" stroke="black" stroke-width="4.0"/>
<path d="M397.16 280.07L385.77 280.07" fill="none" stroke="black" stroke-width="4.0"/>
<path d="M385.77 280.07L385.77 271.53Z" fill="none" stroke="black" stroke-width="4.0"/>
<path d="M385.77 271.53L414.24 271.53" fill="none" stroke="black" stroke-width="4.0"/>
<path d="M58.34 271.53L29.87 271.53" fill="none" stroke="black" stroke-width="4.0"/>
<path d="M29.87 271.53L29.87 300Z" fill="none" stroke="black" stroke-width="4.0"/>
<path d="M29.87 300L58.34 300" fill="none" stroke="black" stroke-width="4.0"/>
<path d="M58.34 300L58.34 291.46Z" fill="none" stroke="black" stroke-width="4.0"/>
<path d="M58.34 291.46L46.95 291.46" fill="none" stroke="black" stroke-width="4.0"/>
<path d="M46.95 291.46L46.95 280.07Z" fill="none" stroke="black" stroke-width="4.0"/>
<path d="M46.95 280.07L58.34 280.07" fill="none" stroke="black" stroke-width="4.0"/>
<path d="M58.34 280.07L58.34 271.53Z" fill="none" stroke="black" stroke-width="4.0"/>
<path d="M385.77 291.46L58.34 291.46" fill="none" stroke="black" stroke-width="4.0"/>
<path d="M58.34 280.07L385.77 280.07" fill="none" stroke="black" stroke-width="4.0"/>
<path d="M775.83 319.93L775.83 322.78Z" fill="none" stroke="black" stroke-width="4.0"/>
<path d="M775.83 322.78L792.91 322.78" fill="none" stroke="black" stroke-width="4.0"/>
<path d="M792.91 322.78L792.91 277.22Z" fill="none" stroke="black" stroke-width="4.0"/>
<path d="M792.91 277.22L775.83 277.22" fill="none" stroke="black" stroke-width="4.0"/>
<path d="M775.83 277.22L775.83 322.78Z" fill="none" stroke="black" stroke-width="4.0"/>
<path d="M29.87 319.93L29.87 319.93Z" fill="none" stroke="black" stroke-width="4.0"/>
<path d="M29.87 319.93L29.87 328.47Z" fill="none" stroke="black" stroke-width="4.0"/>
<path d="M29.87 328.47L29.87 301.55Z" fill="none" stroke="black" stroke-width="4.0"/>
<path d="M29.87 301.55L29.87 328.47Z" fill="none" stroke="black" stroke-width="4.0"/>
<path d="M29.87 328.47L1.4 328.47" fill="none" stroke="black" stroke-width="4.0"/>
<path d="M1.4 328.47L1.4 271.53Z" fill="none" stroke="black" stroke-width="4.0"/>
<path d="M1.4 271.53L29.87 271.53" fill="none" stroke="black" stroke-width="4.0"/>
<path d="M29.87 271.53L29.87 319.93Z" fill="none" stroke="black" stroke-width="4.0"/>
<path d="M24.17 319.93L24.17 322.78Z" fill="none" stroke="black" stroke-width="4.0"/>
<path d="M24.17 322.78L7.09 322.78" fill="none" stroke="black" stroke-width="4.0"/>
<path d="M7.09 322.78L7.09 277.22Z" fill="none" stroke="black" stroke-width="4.0"/>
<path d="M7.09 277.22L24.17 277.22" fill="none" stroke="black" stroke-width="4.0"/>
<path d="M24.17 277.22L24.17 322.78Z" fill="none" stroke="black" stroke-width="4.0"/>
</svg>