<svg xmlns="http://www.w3.org/2000/svg" xmlns:ev="http://www.w3.org/2001/xml-events" xmlns:xlink="http://www.w3.org/1999/xlink" baseProfile="full" version="1.1" viewBox="-330.47 -0.6 60.94 801.21">
	<defs/>
	<path d="M -319.92999999999995,770.14 L -319.92999999999995,770.14" fill="none" stroke="black" stroke-width="4.0"/>
	<path d="M -319.92999999999995,770.14 L -328.46999999999997,770.14 L -319.92999999999995,770.14" fill="none" stroke="black" stroke-width="4.0"/>
	<path d="M -328.46999999999997,770.14 L -301.54999999999995,770.14 L -328.46999999999997,770.14" fill="none" stroke="black" stroke-width="4.0"/>
	<path d="M -301.54999999999995,770.14 L -328.46999999999997,770.14 L -301.54999999999995,770.14" fill="none" stroke="black" stroke-width="4.0"/>
	<path d="M -328.46999999999997,770.14 L -328.46999999999997,798.61" fill="none" stroke="black" stroke-width="4.0"/>
	<path d="M -328.46999999999997,798.61 L -271.5299999999999,798.61 L -328.46999999999997,798.61" fill="none" stroke="black" stroke-width="4.0"/>
	<path d="M -271.5299999999999,798.61 L -271.5299999999999,770.14" fill="none" stroke="black" stroke-width="4.0"/>
	<path d="M -271.5299999999999,770.14 L -319.92999999999995,770.14 L -271.5299999999999,770.14" fill="none" stroke="black" stroke-width="4.0"/>
	<path d="M -328.47,414.24 L -328.47,385.77" fill="none" stroke="black" stroke-width="4.0"/>
	<path d="M -328.47,385.77 L -300.0,385.77 L -328.47,385.77" fill="none" stroke="black" stroke-width="4.0"/>
	<path d="M -300.0,385.77 L -300.0,414.24" fill="none" stroke="black" stroke-width="4.0"/>
	<path d="M -300.0,414.24 L -308.54,414.24 L -300.0,414.24" fill="none" stroke="black" stroke-width="4.0"/>
	<path d="M -308.54,414.24 L -308.54,402.85" fill="none" stroke="black" stroke-width="4.0"/>
	<path d="M -308.54,402.85 L -319.93,402.85 L -308.54,402.85" fill="none" stroke="black" stroke-width="4.0"/>
	<path d="M -319.93,402.85 L -319.93,414.24" fill="none" stroke="black" stroke-width="4.0"/>
	<path d="M -319.93,414.24 L -328.47,414.24 L -319.93,414.24" fill="none" stroke="black" stroke-width="4.0"/>
	<path d="M -328.46999999999997,741.66 L -328.46999999999997,770.14" fill="none" stroke="black" stroke-width="4.0"/>
	<path d="M -328.46999999999997,770.14 L -299.99999999999994,770.14 L -328.46999999999997,770.14" fill="none" stroke="black" stroke-width="4.0"/>
	<path d="M -299.99999999999994,770.14 L -299.99999999999994,741.66" fill="none" stroke="black" stroke-width="4.0"/>
	<path d="M -299.99999999999994,741.66 L -308.53999999999996,741.66 L -299.99999999999994,741.66" fill="none" stroke="black" stroke-width="4.0"/>
	<path d="M -308.53999999999996,741.66 L -308.53999999999996,753.05" fill="none" stroke="black" stroke-width="4.0"/>
	<path d="M -308.53999999999996,753.05 L -319.92999999999995,753.05 L -308.53999999999996,753.05" fill="none" stroke="black" stroke-width="4.0"/>
	<path d="M -319.92999999999995,753.05 L -319.92999999999995,741.66" fill="none" stroke="black" stroke-width="4.0"/>
	<path d="M -319.92999999999995,741.66 L -328.46999999999997,741.66 L -319.92999999999995,741.66" fill="none" stroke="black" stroke-width="4.0"/>
	<path d="M -319.92999999999995,741.66 L -319.93,414.24" fill="none" stroke="black" stroke-width="4.0"/>
	<path d="M -308.54,414.24 L -308.53999999999996,741.66" fill="none" stroke="black" stroke-width="4.0"/>
	<path d="M -271.53,414.24 L -300.0,414.24 L -271.53,414.24" fill="none" stroke="black" stroke-width="4.0"/>
	<path d="M -300.0,414.24 L -300.0,385.77" fill="none" stroke="black" stroke-width="4.0"/>
	<path d="M -300.0,385.77 L -291.46,385.77 L -300.0,385.77" fill="none" stroke="black" stroke-width="4.0"/>
	<path d="M -291.46,385.77 L -291.46,397.16" fill="none" stroke="black" stroke-width="4.0"/>
	<path d="M -291.46,397.16 L -280.07,397.16 L -291.46,397.16" fill="none" stroke="black" stroke-width="4.0"/>
	<path d="M -280.07,397.16 L -280.07,385.77" fill="none" stroke="black" stroke-width="4.0"/>
	<path d="M -280.07,385.77 L -271.53,385.77 L -280.07,385.77" fill="none" stroke="black" stroke-width="4.0"/>
	<path d="M -271.53,385.77 L -271.53,414.24" fill="none" stroke="black" stroke-width="4.0"/>
	<path d="M -271.53,58.34000000000002 L -271.53,29.87000000000002" fill="none" stroke="black" stroke-width="4.0"/>
	<path d="M -271.53,29.87000000000002 L -300.0,29.87000000000002 L -271.53,29.87000000000002" fill="none" stroke="black" stroke-width="4.0"/>
	<path d="M -300.0,29.87000000000002 L -300.0,58.340000000000025" fill="none" stroke="black" stroke-width="4.0"/>
	<path d="M -300.0,58.340000000000025 L -291.46,58.340000000000025 L -300.0,58.340000000000025" fill="none" stroke="black" stroke-width="4.0"/>
	<path d="M -291.46,58.340000000000025 L -291.46,46.950000000000024" fill="none" stroke="black" stroke-width="4.0"/>
	<path d="M -291.46,46.950000000000024 L -280.07,46.95000000000002 L -291.46,46.950000000000024" fill="none" stroke="black" stroke-width="4.0"/>
	<path d="M -280.07,46.95000000000002 L -280.07,58.34000000000002" fill="none" stroke="black" stroke-width="4.0"/>
	<path d="M -280.07,58.34000000000002 L -271.53,58.34000000000002 L -280.07,58.34000000000002" fill="none" stroke="black" stroke-width="4.0"/>
	<path d="M -291.46,385.77 L -291.46,58.340000000000025" fill="none" stroke="black" stroke-width="4.0"/>
	<path d="M -280.07,58.34000000000002 L -280.07,385.77" fill="none" stroke="black" stroke-width="4.0"/>
	<path d="M -319.92999999999995,775.83 L -322.7799999999999,775.83 L -319.92999999999995,775.83" fill="none" stroke="black" stroke-width="4.0"/>
	<path d="M -322.7799999999999,775.83 L -322.7799999999999,792.91" fill="none" stroke="black" stroke-width="4.0"/>
	<path d="M -322.7799999999999,792.91 L -277.21999999999997,792.91 L -322.7799999999999,792.91" fill="none" stroke="black" stroke-width="4.0"/>
	<path d="M -277.21999999999997,792.91 L -277.21999999999997,775.83" fill="none" stroke="black" stroke-width="4.0"/>
	<path d="M -277.21999999999997,775.83 L -322.7799999999999,775.83 L -277.21999999999997,775.83" fill="none" stroke="black" stroke-width="4.0"/>
	<path d="M -319.93,29.870000000000022 L -319.93,29.870000000000022" fill="none" stroke="black" stroke-width="4.0"/>
	<path d="M -319.93,29.870000000000022 L -328.47,29.870000000000022 L -319.93,29.870000000000022" fill="none" stroke="black" stroke-width="4.0"/>
	<path d="M -328.47,29.870000000000022 L -301.55,29.87000000000002 L -328.47,29.870000000000022" fill="none" stroke="black" stroke-width="4.0"/>
	<path d="M -301.55,29.87000000000002 L -328.47,29.870000000000022 L -301.55,29.87000000000002" fill="none" stroke="black" stroke-width="4.0"/>
	<path d="M -328.47,29.870000000000022 L -328.47,1.4000000000000201" fill="none" stroke="black" stroke-width="4.0"/>
	<path d="M -328.47,1.4000000000000201 L -271.53,1.4000000000000166 L -328.47,1.4000000000000201" fill="none" stroke="black" stroke-width="4.0"/>
	<path d="M -271.53,1.4000000000000166 L -271.53,29.87000000000002" fill="none" stroke="black" stroke-width="4.0"/>
	<path d="M -271.53,29.87000000000002 L -319.93,29.870000000000022 L -271.53,29.87000000000002" fill="none" stroke="black" stroke-width="4.0"/>
	<path d="M -319.93,24.170000000000023 L -322.78,24.170000000000023 L -319.93,24.170000000000023" fill="none" stroke="black" stroke-width="4.0"/>
	<path d="M -322.78,24.170000000000023 L -322.78,7.090000000000019" fill="none" stroke="black" stroke-width="4.0"/>
	<path d="M -322.78,7.090000000000019 L -277.22,7.090000000000017 L -322.78,7.090000000000019" fill="none" stroke="black" stroke-width="4.0"/>
	<path d="M -277.22,7.090000000000017 L -277.22,24.17000000000002" fill="none" stroke="black" stroke-width="4.0"/>
	<path d="M -277.22,24.17000000000002 L -322.78,24.170000000000023 L -277.22,24.17000000000002" fill="none" stroke="black" stroke-width="4.0"/>
</svg>