<svg xmlns="http://www.w3.org/2000/svg" xmlns:ev="http://www.w3.org/2001/xml-events" xmlns:xlink="http://www.w3.org/1999/xlink" baseProfile="full" version="1.1" viewBox="-436.25 147.9 270.06 503.81">
	<defs/>
	<path d="M -430.47,267.55 A 363.695,363.695 0.0 0,0 -434.25,318.79" fill="none" stroke="black" stroke-width="4.0"/>
	<path d="M -433.9599999999999,480.17 L -434.25,318.79" fill="none" stroke="black" stroke-width="4.0"/>
	<path d="M -426.28,263.98 A 4.172,4.172 0.0 0,0 -430.47,267.55" fill="none" stroke="black" stroke-width="4.0"/>
	<path d="M -409.1,278.14 L -343.05,279.14" fill="none" stroke="black" stroke-width="4.0"/>
	<path d="M -343.01,265.23 L -343.05,279.14" fill="none" stroke="black" stroke-width="4.0"/>
	<path d="M -409.1,278.14 L -409.06,264.24" fill="none" stroke="black" stroke-width="4.0"/>
	<path d="M -430.46999999999997,531.43 A 4.172,4.172 0.0 0,0 -426.29999999999995,535.02" fill="none" stroke="black" stroke-width="4.0"/>
	<path d="M -409.03999999999996,520.96 L -409.0799999999999,534.86" fill="none" stroke="black" stroke-width="4.0"/>
	<path d="M -433.9599999999999,480.17 A 363.695,363.695 0.0 0,0 -430.46999999999997,531.43" fill="none" stroke="black" stroke-width="4.0"/>
	<path d="M -343.0299999999999,534.25 L -342.98999999999995,520.34" fill="none" stroke="black" stroke-width="4.0"/>
	<path d="M -409.03999999999996,520.96 L -342.98999999999995,520.34" fill="none" stroke="black" stroke-width="4.0"/>
	<path d="M -417.66,264.11 L -417.16999999999996,534.94" fill="none" stroke="black" stroke-width="4.0"/>
	<path d="M -399.80999999999995,520.87 L -400.25,278.28" fill="none" stroke="black" stroke-width="4.0"/>
	<path d="M -320.07,268.32 A 2.781,2.781 0.0 0,0 -322.81,265.53" fill="none" stroke="black" stroke-width="4.0"/>
	<path d="M -322.8299999999999,534.06 A 2.781,2.781 0.0 0,0 -320.06999999999994,531.28" fill="none" stroke="black" stroke-width="4.0"/>
	<path d="M -320.06999999999994,531.28 L -320.07,268.32" fill="none" stroke="black" stroke-width="4.0"/>
	<path d="M -426.29999999999995,535.02 L -322.8299999999999,534.06" fill="none" stroke="black" stroke-width="4.0"/>
	<path d="M -320.31,444.29 L -400.34,444.06" fill="none" stroke="black" stroke-width="4.0"/>
	<path d="M -320.06,355.32 L -400.09,355.09" fill="none" stroke="black" stroke-width="4.0"/>
	<path d="M -426.28,263.98 L -322.81,265.53" fill="none" stroke="black" stroke-width="4.0"/>
	<path d="M -416.2799999999999,631.88 L -416.2799999999999,548.45" fill="none" stroke="black" stroke-width="4.0"/>
	<path d="M -416.2799999999999,548.45 L -332.84999999999997,548.45 L -416.2799999999999,548.45" fill="none" stroke="black" stroke-width="4.0"/>
	<path d="M -332.84999999999997,548.45 L -332.84999999999997,631.88" fill="none" stroke="black" stroke-width="4.0"/>
	<path d="M -332.84999999999997,631.88 L -416.2799999999999,631.88 L -332.84999999999997,631.88" fill="none" stroke="black" stroke-width="4.0"/>
	<path d="M -171.76999999999998,646.08 A 4.172,4.172 0.0 0,0 -168.18999999999997,641.9" fill="none" stroke="black" stroke-width="4.0"/>
	<path d="M -169.44999999999996,538.43 L -168.18999999999997,641.9" fill="none" stroke="black" stroke-width="4.0"/>
	<path d="M -182.41999999999996,615.64 L -263.62999999999994,615.64 L -182.41999999999996,615.64" fill="none" stroke="black" stroke-width="4.0"/>
	<path d="M -263.73999999999995,624.68 L -262.92999999999995,558.63" fill="none" stroke="black" stroke-width="4.0"/>
	<path d="M -183.10999999999999,558.63 L -182.30999999999997,624.68" fill="none" stroke="black" stroke-width="4.0"/>
	<path d="M -274.2699999999999,646.08 A 363.695,363.695 0.0 0,0 -171.76999999999998,646.08" fill="none" stroke="black" stroke-width="4.0"/>
	<path d="M -183.10999999999999,558.63 L -169.20999999999998,558.63 L -183.10999999999999,558.63" fill="none" stroke="black" stroke-width="4.0"/>
	<path d="M -168.39999999999998,624.68 L -182.30999999999997,624.68 L -168.39999999999998,624.68" fill="none" stroke="black" stroke-width="4.0"/>
	<path d="M -273.80999999999995,535.68 L -172.22999999999996,535.68 L -273.80999999999995,535.68" fill="none" stroke="black" stroke-width="4.0"/>
	<path d="M -169.44999999999996,538.43 A 2.781,2.781 0.0 0,0 -172.22999999999996,535.68" fill="none" stroke="black" stroke-width="4.0"/>
	<path d="M -277.85999999999996,641.9 L -276.5899999999999,538.43" fill="none" stroke="black" stroke-width="4.0"/>
	<path d="M -273.80999999999995,535.68 A 2.781,2.781 0.0 0,0 -276.5899999999999,538.43" fill="none" stroke="black" stroke-width="4.0"/>
	<path d="M -168.29999999999998,633.02 L -277.74999999999994,633.02 L -168.29999999999998,633.02" fill="none" stroke="black" stroke-width="4.0"/>
	<path d="M -276.8399999999999,558.63 L -262.92999999999995,558.63 L -276.8399999999999,558.63" fill="none" stroke="black" stroke-width="4.0"/>
	<path d="M -263.73999999999995,624.68 L -277.6499999999999,624.68 L -263.73999999999995,624.68" fill="none" stroke="black" stroke-width="4.0"/>
	<path d="M -277.85999999999996,641.9 A 4.172,4.172 0.0 0,0 -274.2699999999999,646.08" fill="none" stroke="black" stroke-width="4.0"/>
	<path d="M -416.28,167.73000000000002 L -416.28,251.16000000000003" fill="none" stroke="black" stroke-width="4.0"/>
	<path d="M -416.28,251.16000000000003 L -332.85,251.16000000000003 L -416.28,251.16000000000003" fill="none" stroke="black" stroke-width="4.0"/>
	<path d="M -332.85,251.16000000000003 L -332.85,167.73000000000002" fill="none" stroke="black" stroke-width="4.0"/>
	<path d="M -332.85,167.73000000000002 L -416.28,167.73000000000002 L -332.85,167.73000000000002" fill="none" stroke="black" stroke-width="4.0"/>
	<path d="M -168.19,157.71 A 4.172,4.172 0.0 0,0 -171.77,153.53" fill="none" stroke="black" stroke-width="4.0"/>
	<path d="M -169.44999999999996,261.18 L -168.19,157.71" fill="none" stroke="black" stroke-width="4.0"/>
	<path d="M -182.42,183.97 L -263.63,183.97000000000003 L -182.42,183.97" fill="none" stroke="black" stroke-width="4.0"/>
	<path d="M -263.74,174.93000000000004 L -262.93,240.98000000000002" fill="none" stroke="black" stroke-width="4.0"/>
	<path d="M -183.10999999999999,240.98 L -182.31,174.93" fill="none" stroke="black" stroke-width="4.0"/>
	<path d="M -171.77,153.53 A 363.695,363.695 0.0 0,0 -274.27,153.53000000000003" fill="none" stroke="black" stroke-width="4.0"/>
	<path d="M -183.10999999999999,240.98 L -169.20999999999998,240.98 L -183.10999999999999,240.98" fill="none" stroke="black" stroke-width="4.0"/>
	<path d="M -168.4,174.93 L -182.31,174.93 L -168.4,174.93" fill="none" stroke="black" stroke-width="4.0"/>
	<path d="M -273.81,263.93 L -172.22999999999996,263.93 L -273.81,263.93" fill="none" stroke="black" stroke-width="4.0"/>
	<path d="M -172.22999999999996,263.93 A 2.781,2.781 0.0 0,0 -169.44999999999996,261.18" fill="none" stroke="black" stroke-width="4.0"/>
	<path d="M -277.86,157.71000000000004 L -276.59,261.18" fill="none" stroke="black" stroke-width="4.0"/>
	<path d="M -276.59,261.18 A 2.781,2.781 0.0 0,0 -273.81,263.93" fill="none" stroke="black" stroke-width="4.0"/>
	<path d="M -168.3,166.58 L -277.75,166.58000000000004 L -168.3,166.58" fill="none" stroke="black" stroke-width="4.0"/>
	<path d="M -276.84,240.98000000000002 L -262.93,240.98000000000002 L -276.84,240.98000000000002" fill="none" stroke="black" stroke-width="4.0"/>
	<path d="M -263.74,174.93000000000004 L -277.65,174.93000000000004 L -263.74,174.93000000000004" fill="none" stroke="black" stroke-width="4.0"/>
	<path d="M -274.27,153.53000000000003 A 4.172,4.172 0.0 0,0 -277.86,157.71000000000004" fill="none" stroke="black" stroke-width="4.0"/>
	<path d="M -264.74,330.27 L -264.73999999999995,469.33" fill="none" stroke="black" stroke-width="4.0"/>
	<path d="M -264.73999999999995,469.33 L -181.30999999999997,469.33 L -264.73999999999995,469.33" fill="none" stroke="black" stroke-width="4.0"/>
	<path d="M -181.30999999999997,469.33 L -181.30999999999997,330.27" fill="none" stroke="black" stroke-width="4.0"/>
	<path d="M -181.30999999999997,330.27 L -264.74,330.27 L -181.30999999999997,330.27" fill="none" stroke="black" stroke-width="4.0"/>
</svg>