<svg xmlns="http://www.w3.org/2000/svg" version="1.1" viewBox="149.65 167.94 500.31 266.56">
  <desc>Produce by Acme CAD Converter</desc>
<path d="M 267.55 430.47 A 363.695 363.695 0 0 0 318.79 434.25" fill="none" stroke="black" stroke-width="4.0"/>
<path d="M480.17 433.96L318.79 434.25" fill="none" stroke="black" stroke-width="4.0"/>
<path d="M 263.98 426.28 A 4.172 4.172 0 0 0 267.55 430.47" fill="none" stroke="black" stroke-width="4.0"/>
<path d="M278.14 409.1L279.14 343.05" fill="none" stroke="black" stroke-width="4.0"/>
<path d="M265.23 343.01L279.14 343.05" fill="none" stroke="black" stroke-width="4.0"/>
<path d="M278.14 409.1L264.24 409.06" fill="none" stroke="black" stroke-width="4.0"/>
<path d="M 531.43 430.47 A 4.172 4.172 0 0 0 535.02 426.3" fill="none" stroke="black" stroke-width="4.0"/>
<path d="M520.96 409.04L534.86 409.08" fill="none" stroke="black" stroke-width="4.0"/>
<path d="M 480.17 433.96 A 363.695 363.695 0 0 0 531.43 430.47" fill="none" stroke="black" stroke-width="4.0"/>
<path d="M534.25 343.03L520.34 342.99" fill="none" stroke="black" stroke-width="4.0"/>
<path d="M520.96 409.04L520.34 342.99" fill="none" stroke="black" stroke-width="4.0"/>
<path d="M264.11 417.66L534.94 417.17" fill="none" stroke="black" stroke-width="4.0"/>
<path d="M520.87 399.81L278.28 400.25" fill="none" stroke="black" stroke-width="4.0"/>
<path d="M 268.32 320.07 A 2.781 2.781 0 0 0 265.53 322.81" fill="none" stroke="black" stroke-width="4.0"/>
<path d="M 534.06 322.83 A 2.781 2.781 0 0 0 531.28 320.07" fill="none" stroke="black" stroke-width="4.0"/>
<path d="M531.28 320.07L268.32 320.07" fill="none" stroke="black" stroke-width="4.0"/>
<path d="M535.02 426.3L534.06 322.83" fill="none" stroke="black" stroke-width="4.0"/>
<path d="M444.29 320.31L444.06 400.34" fill="none" stroke="black" stroke-width="4.0"/>
<path d="M355.32 320.06L355.09 400.09" fill="none" stroke="black" stroke-width="4.0"/>
<path d="M263.98 426.28L265.53 322.81" fill="none" stroke="black" stroke-width="4.0"/>
<path d="M631.88 416.28L548.45 416.28" fill="none" stroke="black" stroke-width="4.0"/>
<path d="M548.45 416.28L548.45 332.85Z" fill="none" stroke="black" stroke-width="4.0"/>
<path d="M548.45 332.85L631.88 332.85" fill="none" stroke="black" stroke-width="4.0"/>
<path d="M631.88 332.85L631.88 416.28Z" fill="none" stroke="black" stroke-width="4.0"/>
<path d="M 646.08 171.77 A 4.172 4.172 0 0 0 641.9 168.19" fill="none" stroke="black" stroke-width="4.0"/>
<path d="M538.43 169.45L641.9 168.19" fill="none" stroke="black" stroke-width="4.0"/>
<path d="M615.64 182.42L615.64 263.63Z" fill="none" stroke="black" stroke-width="4.0"/>
<path d="M624.68 263.74L558.63 262.93" fill="none" stroke="black" stroke-width="4.0"/>
<path d="M558.63 183.11L624.68 182.31" fill="none" stroke="black" stroke-width="4.0"/>
<path d="M 646.08 274.27 A 363.695 363.695 0 0 0 646.08 171.77" fill="none" stroke="black" stroke-width="4.0"/>
<path d="M558.63 183.11L558.63 169.21Z" fill="none" stroke="black" stroke-width="4.0"/>
<path d="M624.68 168.4L624.68 182.31Z" fill="none" stroke="black" stroke-width="4.0"/>
<path d="M535.68 273.81L535.68 172.23Z" fill="none" stroke="black" stroke-width="4.0"/>
<path d="M 538.43 169.45 A 2.781 2.781 0 0 0 535.68 172.23" fill="none" stroke="black" stroke-width="4.0"/>
<path d="M641.9 277.86L538.43 276.59" fill="none" stroke="black" stroke-width="4.0"/>
<path d="M 535.68 273.81 A 2.781 2.781 0 0 0 538.43 276.59" fill="none" stroke="black" stroke-width="4.0"/>
<path d="M633.02 168.3L633.02 277.75Z" fill="none" stroke="black" stroke-width="4.0"/>
<path d="M558.63 276.84L558.63 262.93Z" fill="none" stroke="black" stroke-width="4.0"/>
<path d="M624.68 263.74L624.68 277.65Z" fill="none" stroke="black" stroke-width="4.0"/>
<path d="M 641.9 277.86 A 4.172 4.172 0 0 0 646.08 274.27" fill="none" stroke="black" stroke-width="4.0"/>
<path d="M167.73 416.28L251.16 416.28" fill="none" stroke="black" stroke-width="4.0"/>
<path d="M251.16 416.28L251.16 332.85Z" fill="none" stroke="black" stroke-width="4.0"/>
<path d="M251.16 332.85L167.73 332.85" fill="none" stroke="black" stroke-width="4.0"/>
<path d="M167.73 332.85L167.73 416.28Z" fill="none" stroke="black" stroke-width="4.0"/>
<path d="M 157.71 168.19 A 4.172 4.172 0 0 0 153.53 171.77" fill="none" stroke="black" stroke-width="4.0"/>
<path d="M261.18 169.45L157.71 168.19" fill="none" stroke="black" stroke-width="4.0"/>
<path d="M183.97 182.42L183.97 263.63Z" fill="none" stroke="black" stroke-width="4.0"/>
<path d="M174.93 263.74L240.98 262.93" fill="none" stroke="black" stroke-width="4.0"/>
<path d="M240.98 183.11L174.93 182.31" fill="none" stroke="black" stroke-width="4.0"/>
<path d="M 153.53 171.77 A 363.695 363.695 0 0 0 153.53 274.27" fill="none" stroke="black" stroke-width="4.0"/>
<path d="M240.98 183.11L240.98 169.21Z" fill="none" stroke="black" stroke-width="4.0"/>
<path d="M174.93 168.4L174.93 182.31Z" fill="none" stroke="black" stroke-width="4.0"/>
<path d="M263.93 273.81L263.93 172.23Z" fill="none" stroke="black" stroke-width="4.0"/>
<path d="M 263.93 172.23 A 2.781 2.781 0 0 0 261.18 169.45" fill="none" stroke="black" stroke-width="4.0"/>
<path d="M157.71 277.86L261.18 276.59" fill="none" stroke="black" stroke-width="4.0"/>
<path d="M 261.18 276.59 A 2.781 2.781 0 0 0 263.93 273.81" fill="none" stroke="black" stroke-width="4.0"/>
<path d="M166.58 168.3L166.58 277.75Z" fill="none" stroke="black" stroke-width="4.0"/>
<path d="M240.98 276.84L240.98 262.93Z" fill="none" stroke="black" stroke-width="4.0"/>
<path d="M174.93 263.74L174.93 277.65Z" fill="none" stroke="black" stroke-width="4.0"/>
<path d="M 153.53 274.27 A 4.172 4.172 0 0 0 157.71 277.86" fill="none" stroke="black" stroke-width="4.0"/>
<path d="M330.27 264.74L469.33 264.74" fill="none" stroke="black" stroke-width="4.0"/>
<path d="M469.33 264.74L469.33 181.31Z" fill="none" stroke="black" stroke-width="4.0"/>
<path d="M469.33 181.31L330.27 181.31" fill="none" stroke="black" stroke-width="4.0"/>
<path d="M330.27 181.31L330.27 264.74Z" fill="none" stroke="black" stroke-width="4.0"/>
</svg>