<svg xmlns="http://www.w3.org/2000/svg" xmlns:ev="http://www.w3.org/2001/xml-events" xmlns:xlink="http://www.w3.org/1999/xlink" baseProfile="full" version="1.1" viewBox="-461.8 264.83 323.6 270.34">
	<defs/>
	<path d="M -339.58,420.93 L -335.22,421.13" fill="none" stroke="black" stroke-width="4.0"/>
	<path d="M -335.22,421.13 L -330.9,421.72" fill="none" stroke="black" stroke-width="4.0"/>
	<path d="M -330.9,421.72 L -326.64,422.69" fill="none" stroke="black" stroke-width="4.0"/>
	<path d="M -326.64,422.69 L -322.49,424.03" fill="none" stroke="black" stroke-width="4.0"/>
	<path d="M -322.49,424.03 L -318.48,425.75" fill="none" stroke="black" stroke-width="4.0"/>
	<path d="M -318.48,425.75 L -314.64,427.82" fill="none" stroke="black" stroke-width="4.0"/>
	<path d="M -314.64,427.82 L -311.0,430.22" fill="none" stroke="black" stroke-width="4.0"/>
	<path d="M -311.0,430.22 L -307.59,432.94" fill="none" stroke="black" stroke-width="4.0"/>
	<path d="M -307.59,432.94 L -304.43,435.95" fill="none" stroke="black" stroke-width="4.0"/>
	<path d="M -304.43,435.95 L -301.56,439.24" fill="none" stroke="black" stroke-width="4.0"/>
	<path d="M -301.56,439.24 L -299.0,442.77" fill="none" stroke="black" stroke-width="4.0"/>
	<path d="M -299.0,442.77 L -296.76,446.52" fill="none" stroke="black" stroke-width="4.0"/>
	<path d="M -296.76,446.52 L -294.87,450.45" fill="none" stroke="black" stroke-width="4.0"/>
	<path d="M -294.87,450.45 L -293.34,454.53" fill="none" stroke="black" stroke-width="4.0"/>
	<path d="M -293.34,454.53 L -292.17,458.74" fill="none" stroke="black" stroke-width="4.0"/>
	<path d="M -292.17,458.74 L -291.4,463.03" fill="none" stroke="black" stroke-width="4.0"/>
	<path d="M -291.4,463.03 L -290.99999999999994,467.37" fill="none" stroke="black" stroke-width="4.0"/>
	<path d="M -290.99999999999994,467.37 L -290.99999999999994,471.74" fill="none" stroke="black" stroke-width="4.0"/>
	<path d="M -290.99999999999994,471.74 L -291.3999999999999,476.08" fill="none" stroke="black" stroke-width="4.0"/>
	<path d="M -291.3999999999999,476.08 L -292.16999999999996,480.37" fill="none" stroke="black" stroke-width="4.0"/>
	<path d="M -292.16999999999996,480.37 L -293.3399999999999,484.58" fill="none" stroke="black" stroke-width="4.0"/>
	<path d="M -293.3399999999999,484.58 L -294.86999999999995,488.66" fill="none" stroke="black" stroke-width="4.0"/>
	<path d="M -294.86999999999995,488.66 L -296.75999999999993,492.6" fill="none" stroke="black" stroke-width="4.0"/>
	<path d="M -296.75999999999993,492.6 L -298.99999999999994,496.34" fill="none" stroke="black" stroke-width="4.0"/>
	<path d="M -298.99999999999994,496.34 L -301.55999999999995,499.87" fill="none" stroke="black" stroke-width="4.0"/>
	<path d="M -301.55999999999995,499.87 L -304.42999999999995,503.16" fill="none" stroke="black" stroke-width="4.0"/>
	<path d="M -304.42999999999995,503.16 L -307.5899999999999,506.17" fill="none" stroke="black" stroke-width="4.0"/>
	<path d="M -307.5899999999999,506.17 L -310.99999999999994,508.89" fill="none" stroke="black" stroke-width="4.0"/>
	<path d="M -310.99999999999994,508.89 L -314.63999999999993,511.29" fill="none" stroke="black" stroke-width="4.0"/>
	<path d="M -314.63999999999993,511.29 L -318.47999999999996,513.36" fill="none" stroke="black" stroke-width="4.0"/>
	<path d="M -318.47999999999996,513.36 L -322.48999999999995,515.08" fill="none" stroke="black" stroke-width="4.0"/>
	<path d="M -322.48999999999995,515.08 L -326.63999999999993,516.42" fill="none" stroke="black" stroke-width="4.0"/>
	<path d="M -326.63999999999993,516.42 L -330.8999999999999,517.4" fill="none" stroke="black" stroke-width="4.0"/>
	<path d="M -330.8999999999999,517.4 L -335.21999999999997,517.98" fill="none" stroke="black" stroke-width="4.0"/>
	<path d="M -335.21999999999997,517.98 L -339.5799999999999,518.18" fill="none" stroke="black" stroke-width="4.0"/>
	<path d="M -339.5799999999999,518.18 L -343.93999999999994,517.98" fill="none" stroke="black" stroke-width="4.0"/>
	<path d="M -343.93999999999994,517.98 L -348.25999999999993,517.4" fill="none" stroke="black" stroke-width="4.0"/>
	<path d="M -348.25999999999993,517.4 L -352.50999999999993,516.42" fill="none" stroke="black" stroke-width="4.0"/>
	<path d="M -352.50999999999993,516.42 L -356.65999999999997,515.08" fill="none" stroke="black" stroke-width="4.0"/>
	<path d="M -356.65999999999997,515.08 L -360.66999999999996,513.36" fill="none" stroke="black" stroke-width="4.0"/>
	<path d="M -360.66999999999996,513.36 L -364.50999999999993,511.29" fill="none" stroke="black" stroke-width="4.0"/>
	<path d="M -364.50999999999993,511.29 L -368.15999999999997,508.89" fill="none" stroke="black" stroke-width="4.0"/>
	<path d="M -368.15999999999997,508.89 L -371.56999999999994,506.17" fill="none" stroke="black" stroke-width="4.0"/>
	<path d="M -371.56999999999994,506.17 L -374.71999999999997,503.16" fill="none" stroke="black" stroke-width="4.0"/>
	<path d="M -374.71999999999997,503.16 L -377.5899999999999,499.87" fill="none" stroke="black" stroke-width="4.0"/>
	<path d="M -377.5899999999999,499.87 L -380.15999999999997,496.34" fill="none" stroke="black" stroke-width="4.0"/>
	<path d="M -380.15999999999997,496.34 L -382.38999999999993,492.6" fill="none" stroke="black" stroke-width="4.0"/>
	<path d="M -382.38999999999993,492.6 L -384.28999999999996,488.66" fill="none" stroke="black" stroke-width="4.0"/>
	<path d="M -384.28999999999996,488.66 L -385.81999999999994,484.58" fill="none" stroke="black" stroke-width="4.0"/>
	<path d="M -385.81999999999994,484.58 L -386.97999999999996,480.37" fill="none" stroke="black" stroke-width="4.0"/>
	<path d="M -386.97999999999996,480.37 L -387.75999999999993,476.08" fill="none" stroke="black" stroke-width="4.0"/>
	<path d="M -387.75999999999993,476.08 L -388.1499999999999,471.74" fill="none" stroke="black" stroke-width="4.0"/>
	<path d="M -388.1499999999999,471.74 L -388.1499999999999,467.37" fill="none" stroke="black" stroke-width="4.0"/>
	<path d="M -388.1499999999999,467.37 L -387.76,463.03" fill="none" stroke="black" stroke-width="4.0"/>
	<path d="M -387.76,463.03 L -386.98,458.74" fill="none" stroke="black" stroke-width="4.0"/>
	<path d="M -386.98,458.74 L -385.82,454.53" fill="none" stroke="black" stroke-width="4.0"/>
	<path d="M -385.82,454.53 L -384.29,450.45" fill="none" stroke="black" stroke-width="4.0"/>
	<path d="M -384.29,450.45 L -382.39,446.52" fill="none" stroke="black" stroke-width="4.0"/>
	<path d="M -382.39,446.52 L -380.16,442.77" fill="none" stroke="black" stroke-width="4.0"/>
	<path d="M -380.16,442.77 L -377.59,439.24" fill="none" stroke="black" stroke-width="4.0"/>
	<path d="M -377.59,439.24 L -374.72,435.95" fill="none" stroke="black" stroke-width="4.0"/>
	<path d="M -374.72,435.95 L -371.57,432.94" fill="none" stroke="black" stroke-width="4.0"/>
	<path d="M -371.57,432.94 L -368.16,430.22" fill="none" stroke="black" stroke-width="4.0"/>
	<path d="M -368.16,430.22 L -364.51,427.82" fill="none" stroke="black" stroke-width="4.0"/>
	<path d="M -364.51,427.82 L -360.67,425.75" fill="none" stroke="black" stroke-width="4.0"/>
	<path d="M -360.67,425.75 L -356.66,424.03" fill="none" stroke="black" stroke-width="4.0"/>
	<path d="M -356.66,424.03 L -352.51,422.69" fill="none" stroke="black" stroke-width="4.0"/>
	<path d="M -352.51,422.69 L -348.26,421.72" fill="none" stroke="black" stroke-width="4.0"/>
	<path d="M -348.26,421.72 L -343.94,421.13" fill="none" stroke="black" stroke-width="4.0"/>
	<path d="M -343.94,421.13 L -339.58,420.93" fill="none" stroke="black" stroke-width="4.0"/>
	<path d="M -296.2799999999999,469.56 L -317.92999999999995,469.56 L -296.2799999999999,469.56" fill="none" stroke="black" stroke-width="4.0"/>
	<path d="M -339.58,426.26 L -335.46,426.46" fill="none" stroke="black" stroke-width="4.0"/>
	<path d="M -335.46,426.46 L -331.38,427.04" fill="none" stroke="black" stroke-width="4.0"/>
	<path d="M -331.38,427.04 L -327.38,428.01" fill="none" stroke="black" stroke-width="4.0"/>
	<path d="M -327.38,428.01 L -323.49,429.36" fill="none" stroke="black" stroke-width="4.0"/>
	<path d="M -323.49,429.36 L -319.74,431.07" fill="none" stroke="black" stroke-width="4.0"/>
	<path d="M -319.74,431.07 L -316.17,433.13" fill="none" stroke="black" stroke-width="4.0"/>
	<path d="M -316.17,433.13 L -312.81,435.52" fill="none" stroke="black" stroke-width="4.0"/>
	<path d="M -312.81,435.52 L -309.7,438.22" fill="none" stroke="black" stroke-width="4.0"/>
	<path d="M -309.7,438.22 L -306.86,441.2" fill="none" stroke="black" stroke-width="4.0"/>
	<path d="M -306.86,441.2 L -304.31,444.44" fill="none" stroke="black" stroke-width="4.0"/>
	<path d="M -304.31,444.44 L -302.08,447.91" fill="none" stroke="black" stroke-width="4.0"/>
	<path d="M -302.08,447.91 L -300.19,451.57" fill="none" stroke="black" stroke-width="4.0"/>
	<path d="M -300.19,451.57 L -298.66,455.39" fill="none" stroke="black" stroke-width="4.0"/>
	<path d="M -298.66,455.39 L -297.5,459.35" fill="none" stroke="black" stroke-width="4.0"/>
	<path d="M -297.5,459.35 L -296.72,463.39" fill="none" stroke="black" stroke-width="4.0"/>
	<path d="M -296.72,463.39 L -296.3299999999999,467.5" fill="none" stroke="black" stroke-width="4.0"/>
	<path d="M -296.3299999999999,467.5 L -296.3299999999999,471.62" fill="none" stroke="black" stroke-width="4.0"/>
	<path d="M -296.3299999999999,471.62 L -296.71999999999997,475.72" fill="none" stroke="black" stroke-width="4.0"/>
	<path d="M -296.71999999999997,475.72 L -297.49999999999994,479.76" fill="none" stroke="black" stroke-width="4.0"/>
	<path d="M -297.49999999999994,479.76 L -298.65999999999997,483.72" fill="none" stroke="black" stroke-width="4.0"/>
	<path d="M -298.65999999999997,483.72 L -300.18999999999994,487.54" fill="none" stroke="black" stroke-width="4.0"/>
	<path d="M -300.18999999999994,487.54 L -302.0799999999999,491.2" fill="none" stroke="black" stroke-width="4.0"/>
	<path d="M -302.0799999999999,491.2 L -304.30999999999995,494.67" fill="none" stroke="black" stroke-width="4.0"/>
	<path d="M -304.30999999999995,494.67 L -306.85999999999996,497.91" fill="none" stroke="black" stroke-width="4.0"/>
	<path d="M -306.85999999999996,497.91 L -309.69999999999993,500.89" fill="none" stroke="black" stroke-width="4.0"/>
	<path d="M -309.69999999999993,500.89 L -312.80999999999995,503.59" fill="none" stroke="black" stroke-width="4.0"/>
	<path d="M -312.80999999999995,503.59 L -316.16999999999996,505.98" fill="none" stroke="black" stroke-width="4.0"/>
	<path d="M -316.16999999999996,505.98 L -319.73999999999995,508.04" fill="none" stroke="black" stroke-width="4.0"/>
	<path d="M -319.73999999999995,508.04 L -323.48999999999995,509.75" fill="none" stroke="black" stroke-width="4.0"/>
	<path d="M -323.48999999999995,509.75 L -327.37999999999994,511.1" fill="none" stroke="black" stroke-width="4.0"/>
	<path d="M -327.37999999999994,511.1 L -331.37999999999994,512.07" fill="none" stroke="black" stroke-width="4.0"/>
	<path d="M -331.37999999999994,512.07 L -335.4599999999999,512.65" fill="none" stroke="black" stroke-width="4.0"/>
	<path d="M -335.4599999999999,512.65 L -339.5799999999999,512.85" fill="none" stroke="black" stroke-width="4.0"/>
	<path d="M -339.5799999999999,512.85 L -343.68999999999994,512.65" fill="none" stroke="black" stroke-width="4.0"/>
	<path d="M -343.68999999999994,512.65 L -347.7699999999999,512.07" fill="none" stroke="black" stroke-width="4.0"/>
	<path d="M -347.7699999999999,512.07 L -351.7699999999999,511.1" fill="none" stroke="black" stroke-width="4.0"/>
	<path d="M -351.7699999999999,511.1 L -355.66999999999996,509.75" fill="none" stroke="black" stroke-width="4.0"/>
	<path d="M -355.66999999999996,509.75 L -359.41999999999996,508.04" fill="none" stroke="black" stroke-width="4.0"/>
	<path d="M -359.41999999999996,508.04 L -362.97999999999996,505.98" fill="none" stroke="black" stroke-width="4.0"/>
	<path d="M -362.97999999999996,505.98 L -366.3399999999999,503.59" fill="none" stroke="black" stroke-width="4.0"/>
	<path d="M -366.3399999999999,503.59 L -369.44999999999993,500.89" fill="none" stroke="black" stroke-width="4.0"/>
	<path d="M -369.44999999999993,500.89 L -372.29999999999995,497.91" fill="none" stroke="black" stroke-width="4.0"/>
	<path d="M -372.29999999999995,497.91 L -374.8399999999999,494.67" fill="none" stroke="black" stroke-width="4.0"/>
	<path d="M -374.8399999999999,494.67 L -377.06999999999994,491.2" fill="none" stroke="black" stroke-width="4.0"/>
	<path d="M -377.06999999999994,491.2 L -378.9599999999999,487.54" fill="none" stroke="black" stroke-width="4.0"/>
	<path d="M -378.9599999999999,487.54 L -380.48999999999995,483.72" fill="none" stroke="black" stroke-width="4.0"/>
	<path d="M -380.48999999999995,483.72 L -381.6499999999999,479.76" fill="none" stroke="black" stroke-width="4.0"/>
	<path d="M -381.6499999999999,479.76 L -382.42999999999995,475.72" fill="none" stroke="black" stroke-width="4.0"/>
	<path d="M -382.42999999999995,475.72 L -382.81999999999994,471.62" fill="none" stroke="black" stroke-width="4.0"/>
	<path d="M -382.81999999999994,471.62 L -382.81999999999994,467.5" fill="none" stroke="black" stroke-width="4.0"/>
	<path d="M -382.81999999999994,467.5 L -382.43,463.39" fill="none" stroke="black" stroke-width="4.0"/>
	<path d="M -382.43,463.39 L -381.65,459.35" fill="none" stroke="black" stroke-width="4.0"/>
	<path d="M -381.65,459.35 L -380.49,455.39" fill="none" stroke="black" stroke-width="4.0"/>
	<path d="M -380.49,455.39 L -378.96,451.57" fill="none" stroke="black" stroke-width="4.0"/>
	<path d="M -378.96,451.57 L -377.07,447.91" fill="none" stroke="black" stroke-width="4.0"/>
	<path d="M -377.07,447.91 L -374.84,444.44" fill="none" stroke="black" stroke-width="4.0"/>
	<path d="M -374.84,444.44 L -372.3,441.2" fill="none" stroke="black" stroke-width="4.0"/>
	<path d="M -372.3,441.2 L -369.45,438.22" fill="none" stroke="black" stroke-width="4.0"/>
	<path d="M -369.45,438.22 L -366.34,435.52" fill="none" stroke="black" stroke-width="4.0"/>
	<path d="M -366.34,435.52 L -362.98,433.13" fill="none" stroke="black" stroke-width="4.0"/>
	<path d="M -362.98,433.13 L -359.42,431.07" fill="none" stroke="black" stroke-width="4.0"/>
	<path d="M -359.42,431.07 L -355.67,429.36" fill="none" stroke="black" stroke-width="4.0"/>
	<path d="M -355.67,429.36 L -351.77,428.01" fill="none" stroke="black" stroke-width="4.0"/>
	<path d="M -351.77,428.01 L -347.77,427.04" fill="none" stroke="black" stroke-width="4.0"/>
	<path d="M -347.77,427.04 L -343.69,426.46" fill="none" stroke="black" stroke-width="4.0"/>
	<path d="M -343.69,426.46 L -339.58,426.26" fill="none" stroke="black" stroke-width="4.0"/>
	<path d="M -459.8,266.83 L -140.19999999999996,266.83 L -459.8,266.83" fill="none" stroke="black" stroke-width="4.0"/>
	<path d="M -459.79999999999995,533.17 L -140.19999999999996,533.17 L -459.79999999999995,533.17" fill="none" stroke="black" stroke-width="4.0"/>
	<path d="M -459.8,266.83 L -140.19999999999996,266.83 L -459.8,266.83" fill="none" stroke="black" stroke-width="4.0"/>
	<path d="M -206.03999999999996,429.59 L -202.05999999999997,429.79" fill="none" stroke="black" stroke-width="4.0"/>
	<path d="M -202.05999999999997,429.79 L -198.11999999999998,430.39" fill="none" stroke="black" stroke-width="4.0"/>
	<path d="M -198.11999999999998,430.39 L -194.25999999999996,431.37" fill="none" stroke="black" stroke-width="4.0"/>
	<path d="M -194.25999999999996,431.37 L -190.51999999999998,432.73" fill="none" stroke="black" stroke-width="4.0"/>
	<path d="M -190.51999999999998,432.73 L -186.92999999999998,434.46" fill="none" stroke="black" stroke-width="4.0"/>
	<path d="M -186.92999999999998,434.46 L -183.52999999999997,436.54" fill="none" stroke="black" stroke-width="4.0"/>
	<path d="M -183.52999999999997,436.54 L -180.34999999999997,438.94" fill="none" stroke="black" stroke-width="4.0"/>
	<path d="M -180.34999999999997,438.94 L -177.42999999999998,441.65" fill="none" stroke="black" stroke-width="4.0"/>
	<path d="M -177.42999999999998,441.65 L -174.78999999999996,444.64" fill="none" stroke="black" stroke-width="4.0"/>
	<path d="M -174.78999999999996,444.64 L -172.46999999999997,447.87" fill="none" stroke="black" stroke-width="4.0"/>
	<path d="M -172.46999999999997,447.87 L -170.47999999999996,451.32" fill="none" stroke="black" stroke-width="4.0"/>
	<path d="M -170.47999999999996,451.32 L -168.83999999999997,454.96" fill="none" stroke="black" stroke-width="4.0"/>
	<path d="M -168.83999999999997,454.96 L -167.56999999999996,458.73" fill="none" stroke="black" stroke-width="4.0"/>
	<path d="M -167.56999999999996,458.73 L -166.67999999999998,462.62" fill="none" stroke="black" stroke-width="4.0"/>
	<path d="M -166.67999999999998,462.62 L -166.18999999999997,466.57" fill="none" stroke="black" stroke-width="4.0"/>
	<path d="M -166.18999999999997,466.57 L -166.08999999999997,470.55" fill="none" stroke="black" stroke-width="4.0"/>
	<path d="M -166.08999999999997,470.55 L -166.38999999999996,474.52" fill="none" stroke="black" stroke-width="4.0"/>
	<path d="M -166.38999999999996,474.52 L -167.07999999999998,478.45" fill="none" stroke="black" stroke-width="4.0"/>
	<path d="M -167.07999999999998,478.45 L -168.15999999999997,482.28" fill="none" stroke="black" stroke-width="4.0"/>
	<path d="M -168.15999999999997,482.28 L -169.60999999999999,485.99" fill="none" stroke="black" stroke-width="4.0"/>
	<path d="M -169.60999999999999,485.99 L -171.42999999999998,489.54" fill="none" stroke="black" stroke-width="4.0"/>
	<path d="M -171.42999999999998,489.54 L -173.58999999999997,492.88" fill="none" stroke="black" stroke-width="4.0"/>
	<path d="M -173.58999999999997,492.88 L -176.06999999999996,496.0" fill="none" stroke="black" stroke-width="4.0"/>
	<path d="M -176.06999999999996,496.0 L -178.85999999999999,498.85" fill="none" stroke="black" stroke-width="4.0"/>
	<path d="M -178.85999999999999,498.85 L -181.90999999999997,501.41" fill="none" stroke="black" stroke-width="4.0"/>
	<path d="M -181.90999999999997,501.41 L -185.19999999999996,503.66" fill="none" stroke="black" stroke-width="4.0"/>
	<path d="M -185.19999999999996,503.66 L -188.69999999999996,505.56" fill="none" stroke="black" stroke-width="4.0"/>
	<path d="M -188.69999999999996,505.56 L -192.36999999999998,507.11" fill="none" stroke="black" stroke-width="4.0"/>
	<path d="M -192.36999999999998,507.11 L -196.17999999999998,508.28" fill="none" stroke="black" stroke-width="4.0"/>
	<path d="M -196.17999999999998,508.28 L -200.07999999999998,509.07" fill="none" stroke="black" stroke-width="4.0"/>
	<path d="M -200.07999999999998,509.07 L -204.04999999999998,509.47" fill="none" stroke="black" stroke-width="4.0"/>
	<path d="M -204.04999999999998,509.47 L -208.02999999999997,509.47 L -204.04999999999998,509.47" fill="none" stroke="black" stroke-width="4.0"/>
	<path d="M -208.02999999999997,509.47 L -211.98999999999998,509.07" fill="none" stroke="black" stroke-width="4.0"/>
	<path d="M -211.98999999999998,509.07 L -215.89999999999998,508.28" fill="none" stroke="black" stroke-width="4.0"/>
	<path d="M -215.89999999999998,508.28 L -219.70999999999998,507.11" fill="none" stroke="black" stroke-width="4.0"/>
	<path d="M -219.70999999999998,507.11 L -223.37999999999997,505.56" fill="none" stroke="black" stroke-width="4.0"/>
	<path d="M -223.37999999999997,505.56 L -226.87999999999997,503.66" fill="none" stroke="black" stroke-width="4.0"/>
	<path d="M -226.87999999999997,503.66 L -230.16999999999996,501.41" fill="none" stroke="black" stroke-width="4.0"/>
	<path d="M -230.16999999999996,501.41 L -233.21999999999997,498.85" fill="none" stroke="black" stroke-width="4.0"/>
	<path d="M -233.21999999999997,498.85 L -235.99999999999997,496.0" fill="none" stroke="black" stroke-width="4.0"/>
	<path d="M -235.99999999999997,496.0 L -238.48999999999998,492.88" fill="none" stroke="black" stroke-width="4.0"/>
	<path d="M -238.48999999999998,492.88 L -240.64999999999998,489.54" fill="none" stroke="black" stroke-width="4.0"/>
	<path d="M -240.64999999999998,489.54 L -242.45999999999998,485.99" fill="none" stroke="black" stroke-width="4.0"/>
	<path d="M -242.45999999999998,485.99 L -243.91999999999996,482.28" fill="none" stroke="black" stroke-width="4.0"/>
	<path d="M -243.91999999999996,482.28 L -244.99999999999997,478.45" fill="none" stroke="black" stroke-width="4.0"/>
	<path d="M -244.99999999999997,478.45 L -245.68999999999997,474.52" fill="none" stroke="black" stroke-width="4.0"/>
	<path d="M -245.68999999999997,474.52 L -245.98999999999998,470.55" fill="none" stroke="black" stroke-width="4.0"/>
	<path d="M -245.98999999999998,470.55 L -245.88999999999996,466.57" fill="none" stroke="black" stroke-width="4.0"/>
	<path d="M -245.88999999999996,466.57 L -245.38999999999996,462.62" fill="none" stroke="black" stroke-width="4.0"/>
	<path d="M -245.38999999999996,462.62 L -244.50999999999996,458.73" fill="none" stroke="black" stroke-width="4.0"/>
	<path d="M -244.50999999999996,458.73 L -243.23999999999998,454.96" fill="none" stroke="black" stroke-width="4.0"/>
	<path d="M -243.23999999999998,454.96 L -241.59999999999997,451.32" fill="none" stroke="black" stroke-width="4.0"/>
	<path d="M -241.59999999999997,451.32 L -239.60999999999999,447.87" fill="none" stroke="black" stroke-width="4.0"/>
	<path d="M -239.60999999999999,447.87 L -237.27999999999997,444.64" fill="none" stroke="black" stroke-width="4.0"/>
	<path d="M -237.27999999999997,444.64 L -234.64999999999998,441.65" fill="none" stroke="black" stroke-width="4.0"/>
	<path d="M -234.64999999999998,441.65 L -231.72999999999996,438.94" fill="none" stroke="black" stroke-width="4.0"/>
	<path d="M -231.72999999999996,438.94 L -228.54999999999998,436.54" fill="none" stroke="black" stroke-width="4.0"/>
	<path d="M -228.54999999999998,436.54 L -225.14999999999998,434.46" fill="none" stroke="black" stroke-width="4.0"/>
	<path d="M -225.14999999999998,434.46 L -221.55999999999997,432.73" fill="none" stroke="black" stroke-width="4.0"/>
	<path d="M -221.55999999999997,432.73 L -217.81999999999996,431.37" fill="none" stroke="black" stroke-width="4.0"/>
	<path d="M -217.81999999999996,431.37 L -213.95999999999998,430.39" fill="none" stroke="black" stroke-width="4.0"/>
	<path d="M -213.95999999999998,430.39 L -210.01999999999998,429.79" fill="none" stroke="black" stroke-width="4.0"/>
	<path d="M -210.01999999999998,429.79 L -206.03999999999996,429.59" fill="none" stroke="black" stroke-width="4.0"/>
	<path d="M -216.85999999999999,291.05 L -212.49999999999997,291.24" fill="none" stroke="black" stroke-width="4.0"/>
	<path d="M -212.49999999999997,291.24 L -208.17999999999998,291.83" fill="none" stroke="black" stroke-width="4.0"/>
	<path d="M -208.17999999999998,291.83 L -203.92999999999998,292.8" fill="none" stroke="black" stroke-width="4.0"/>
	<path d="M -203.92999999999998,292.8 L -199.77999999999997,294.15" fill="none" stroke="black" stroke-width="4.0"/>
	<path d="M -199.77999999999997,294.15 L -195.76999999999998,295.86" fill="none" stroke="black" stroke-width="4.0"/>
	<path d="M -195.76999999999998,295.86 L -191.91999999999996,297.93" fill="none" stroke="black" stroke-width="4.0"/>
	<path d="M -191.91999999999996,297.93 L -188.27999999999997,300.33" fill="none" stroke="black" stroke-width="4.0"/>
	<path d="M -188.27999999999997,300.33 L -184.86999999999998,303.05" fill="none" stroke="black" stroke-width="4.0"/>
	<path d="M -184.86999999999998,303.05 L -181.71999999999997,306.07" fill="none" stroke="black" stroke-width="4.0"/>
	<path d="M -181.71999999999997,306.07 L -178.84999999999997,309.36" fill="none" stroke="black" stroke-width="4.0"/>
	<path d="M -178.84999999999997,309.36 L -176.27999999999997,312.88" fill="none" stroke="black" stroke-width="4.0"/>
	<path d="M -176.27999999999997,312.88 L -174.04999999999998,316.63" fill="none" stroke="black" stroke-width="4.0"/>
	<path d="M -174.04999999999998,316.63 L -172.14999999999998,320.56" fill="none" stroke="black" stroke-width="4.0"/>
	<path d="M -172.14999999999998,320.56 L -170.61999999999998,324.65" fill="none" stroke="black" stroke-width="4.0"/>
	<path d="M -170.61999999999998,324.65 L -169.45999999999998,328.85" fill="none" stroke="black" stroke-width="4.0"/>
	<path d="M -169.45999999999998,328.85 L -168.67999999999998,333.14" fill="none" stroke="black" stroke-width="4.0"/>
	<path d="M -168.67999999999998,333.14 L -168.28999999999996,337.49" fill="none" stroke="black" stroke-width="4.0"/>
	<path d="M -168.28999999999996,337.49 L -168.28999999999996,341.85" fill="none" stroke="black" stroke-width="4.0"/>
	<path d="M -168.28999999999996,341.85 L -168.67999999999998,346.2" fill="none" stroke="black" stroke-width="4.0"/>
	<path d="M -168.67999999999998,346.2 L -169.45999999999998,350.49" fill="none" stroke="black" stroke-width="4.0"/>
	<path d="M -169.45999999999998,350.49 L -170.61999999999998,354.7" fill="none" stroke="black" stroke-width="4.0"/>
	<path d="M -170.61999999999998,354.7 L -172.14999999999998,358.78" fill="none" stroke="black" stroke-width="4.0"/>
	<path d="M -172.14999999999998,358.78 L -174.04999999999998,362.71" fill="none" stroke="black" stroke-width="4.0"/>
	<path d="M -174.04999999999998,362.71 L -176.27999999999997,366.46" fill="none" stroke="black" stroke-width="4.0"/>
	<path d="M -176.27999999999997,366.46 L -178.84999999999997,369.99" fill="none" stroke="black" stroke-width="4.0"/>
	<path d="M -178.84999999999997,369.99 L -181.71999999999997,373.27" fill="none" stroke="black" stroke-width="4.0"/>
	<path d="M -181.71999999999997,373.27 L -184.86999999999998,376.29" fill="none" stroke="black" stroke-width="4.0"/>
	<path d="M -184.86999999999998,376.29 L -188.27999999999997,379.01" fill="none" stroke="black" stroke-width="4.0"/>
	<path d="M -188.27999999999997,379.01 L -191.91999999999996,381.41" fill="none" stroke="black" stroke-width="4.0"/>
	<path d="M -191.91999999999996,381.41 L -195.76999999999998,383.48" fill="none" stroke="black" stroke-width="4.0"/>
	<path d="M -195.76999999999998,383.48 L -199.77999999999997,385.19" fill="none" stroke="black" stroke-width="4.0"/>
	<path d="M -199.77999999999997,385.19 L -203.92999999999998,386.54" fill="none" stroke="black" stroke-width="4.0"/>
	<path d="M -203.92999999999998,386.54 L -208.17999999999998,387.51" fill="none" stroke="black" stroke-width="4.0"/>
	<path d="M -208.17999999999998,387.51 L -212.49999999999997,388.1" fill="none" stroke="black" stroke-width="4.0"/>
	<path d="M -212.49999999999997,388.1 L -216.85999999999999,388.29" fill="none" stroke="black" stroke-width="4.0"/>
	<path d="M -216.85999999999999,388.29 L -221.21999999999997,388.1" fill="none" stroke="black" stroke-width="4.0"/>
	<path d="M -221.21999999999997,388.1 L -225.53999999999996,387.51" fill="none" stroke="black" stroke-width="4.0"/>
	<path d="M -225.53999999999996,387.51 L -229.79999999999998,386.54" fill="none" stroke="black" stroke-width="4.0"/>
	<path d="M -229.79999999999998,386.54 L -233.94999999999996,385.19" fill="none" stroke="black" stroke-width="4.0"/>
	<path d="M -233.94999999999996,385.19 L -237.95999999999998,383.48" fill="none" stroke="black" stroke-width="4.0"/>
	<path d="M -237.95999999999998,383.48 L -241.79999999999998,381.41" fill="none" stroke="black" stroke-width="4.0"/>
	<path d="M -241.79999999999998,381.41 L -245.43999999999997,379.01" fill="none" stroke="black" stroke-width="4.0"/>
	<path d="M -245.43999999999997,379.01 L -248.84999999999997,376.29" fill="none" stroke="black" stroke-width="4.0"/>
	<path d="M -248.84999999999997,376.29 L -252.00999999999996,373.27" fill="none" stroke="black" stroke-width="4.0"/>
	<path d="M -252.00999999999996,373.27 L -254.87999999999997,369.99" fill="none" stroke="black" stroke-width="4.0"/>
	<path d="M -254.87999999999997,369.99 L -257.44,366.46" fill="none" stroke="black" stroke-width="4.0"/>
	<path d="M -257.44,366.46 L -259.68,362.71" fill="none" stroke="black" stroke-width="4.0"/>
	<path d="M -259.68,362.71 L -261.57,358.78" fill="none" stroke="black" stroke-width="4.0"/>
	<path d="M -261.57,358.78 L -263.1,354.7" fill="none" stroke="black" stroke-width="4.0"/>
	<path d="M -263.1,354.7 L -264.26,350.49" fill="none" stroke="black" stroke-width="4.0"/>
	<path d="M -264.26,350.49 L -265.04,346.2" fill="none" stroke="black" stroke-width="4.0"/>
	<path d="M -265.04,346.2 L -265.43,341.85" fill="none" stroke="black" stroke-width="4.0"/>
	<path d="M -265.43,341.85 L -265.43,337.49" fill="none" stroke="black" stroke-width="4.0"/>
	<path d="M -265.43,337.49 L -265.04,333.14" fill="none" stroke="black" stroke-width="4.0"/>
	<path d="M -265.04,333.14 L -264.26,328.85" fill="none" stroke="black" stroke-width="4.0"/>
	<path d="M -264.26,328.85 L -263.1,324.65" fill="none" stroke="black" stroke-width="4.0"/>
	<path d="M -263.1,324.65 L -261.57,320.56" fill="none" stroke="black" stroke-width="4.0"/>
	<path d="M -261.57,320.56 L -259.68,316.63" fill="none" stroke="black" stroke-width="4.0"/>
	<path d="M -259.68,316.63 L -257.44,312.88" fill="none" stroke="black" stroke-width="4.0"/>
	<path d="M -257.44,312.88 L -254.87999999999997,309.36" fill="none" stroke="black" stroke-width="4.0"/>
	<path d="M -254.87999999999997,309.36 L -252.00999999999996,306.07" fill="none" stroke="black" stroke-width="4.0"/>
	<path d="M -252.00999999999996,306.07 L -248.84999999999997,303.05" fill="none" stroke="black" stroke-width="4.0"/>
	<path d="M -248.84999999999997,303.05 L -245.43999999999997,300.33" fill="none" stroke="black" stroke-width="4.0"/>
	<path d="M -245.43999999999997,300.33 L -241.79999999999998,297.93" fill="none" stroke="black" stroke-width="4.0"/>
	<path d="M -241.79999999999998,297.93 L -237.95999999999998,295.86" fill="none" stroke="black" stroke-width="4.0"/>
	<path d="M -237.95999999999998,295.86 L -233.94999999999996,294.15" fill="none" stroke="black" stroke-width="4.0"/>
	<path d="M -233.94999999999996,294.15 L -229.79999999999998,292.8" fill="none" stroke="black" stroke-width="4.0"/>
	<path d="M -229.79999999999998,292.8 L -225.53999999999996,291.83" fill="none" stroke="black" stroke-width="4.0"/>
	<path d="M -225.53999999999996,291.83 L -221.21999999999997,291.24" fill="none" stroke="black" stroke-width="4.0"/>
	<path d="M -221.21999999999997,291.24 L -216.85999999999999,291.05" fill="none" stroke="black" stroke-width="4.0"/>
	<path d="M -171.39999999999998,469.56 L -188.71999999999997,469.56 L -171.39999999999998,469.56" fill="none" stroke="black" stroke-width="4.0"/>
	<path d="M -173.56999999999996,339.67 L -195.20999999999998,339.67 L -173.56999999999996,339.67" fill="none" stroke="black" stroke-width="4.0"/>
	<path d="M -206.03999999999996,504.19 L -206.03999999999996,486.87" fill="none" stroke="black" stroke-width="4.0"/>
	<path d="M -216.85999999999999,382.97 L -216.85999999999999,361.32" fill="none" stroke="black" stroke-width="4.0"/>
	<path d="M -216.85999999999999,296.38 L -216.85999999999999,318.02" fill="none" stroke="black" stroke-width="4.0"/>
	<path d="M -206.03999999999996,434.92 L -202.35999999999999,435.12" fill="none" stroke="black" stroke-width="4.0"/>
	<path d="M -202.35999999999999,435.12 L -198.71999999999997,435.7" fill="none" stroke="black" stroke-width="4.0"/>
	<path d="M -198.71999999999997,435.7 L -195.15999999999997,436.67" fill="none" stroke="black" stroke-width="4.0"/>
	<path d="M -195.15999999999997,436.67 L -191.72999999999996,438.01" fill="none" stroke="black" stroke-width="4.0"/>
	<path d="M -191.72999999999996,438.01 L -188.44999999999996,439.71" fill="none" stroke="black" stroke-width="4.0"/>
	<path d="M -188.44999999999996,439.71 L -185.37999999999997,441.75" fill="none" stroke="black" stroke-width="4.0"/>
	<path d="M -185.37999999999997,441.75 L -182.53999999999996,444.11" fill="none" stroke="black" stroke-width="4.0"/>
	<path d="M -182.53999999999996,444.11 L -179.96999999999997,446.75" fill="none" stroke="black" stroke-width="4.0"/>
	<path d="M -179.96999999999997,446.75 L -177.69999999999996,449.65" fill="none" stroke="black" stroke-width="4.0"/>
	<path d="M -177.69999999999996,449.65 L -175.73999999999998,452.77" fill="none" stroke="black" stroke-width="4.0"/>
	<path d="M -175.73999999999998,452.77 L -174.12999999999997,456.09" fill="none" stroke="black" stroke-width="4.0"/>
	<path d="M -174.12999999999997,456.09 L -172.87999999999997,459.56" fill="none" stroke="black" stroke-width="4.0"/>
	<path d="M -172.87999999999997,459.56 L -171.99999999999997,463.14" fill="none" stroke="black" stroke-width="4.0"/>
	<path d="M -171.99999999999997,463.14 L -171.50999999999996,466.79" fill="none" stroke="black" stroke-width="4.0"/>
	<path d="M -171.50999999999996,466.79 L -171.40999999999997,470.48" fill="none" stroke="black" stroke-width="4.0"/>
	<path d="M -171.40999999999997,470.48 L -171.70999999999998,474.15" fill="none" stroke="black" stroke-width="4.0"/>
	<path d="M -171.70999999999998,474.15 L -172.38999999999996,477.78" fill="none" stroke="black" stroke-width="4.0"/>
	<path d="M -172.38999999999996,477.78 L -173.45999999999998,481.31" fill="none" stroke="black" stroke-width="4.0"/>
	<path d="M -173.45999999999998,481.31 L -174.88999999999996,484.7" fill="none" stroke="black" stroke-width="4.0"/>
	<path d="M -174.88999999999996,484.7 L -176.67999999999998,487.93" fill="none" stroke="black" stroke-width="4.0"/>
	<path d="M -176.67999999999998,487.93 L -178.78999999999996,490.94" fill="none" stroke="black" stroke-width="4.0"/>
	<path d="M -178.78999999999996,490.94 L -181.21999999999997,493.72" fill="none" stroke="black" stroke-width="4.0"/>
	<path d="M -181.21999999999997,493.72 L -183.92999999999998,496.22" fill="none" stroke="black" stroke-width="4.0"/>
	<path d="M -183.92999999999998,496.22 L -186.88999999999996,498.42" fill="none" stroke="black" stroke-width="4.0"/>
	<path d="M -186.88999999999996,498.42 L -190.06999999999996,500.29" fill="none" stroke="black" stroke-width="4.0"/>
	<path d="M -190.06999999999996,500.29 L -193.41999999999996,501.81" fill="none" stroke="black" stroke-width="4.0"/>
	<path d="M -193.41999999999996,501.81 L -196.92999999999998,502.97" fill="none" stroke="black" stroke-width="4.0"/>
	<path d="M -196.92999999999998,502.97 L -200.52999999999997,503.75" fill="none" stroke="black" stroke-width="4.0"/>
	<path d="M -200.52999999999997,503.75 L -204.18999999999997,504.14" fill="none" stroke="black" stroke-width="4.0"/>
	<path d="M -204.18999999999997,504.14 L -207.87999999999997,504.14 L -204.18999999999997,504.14" fill="none" stroke="black" stroke-width="4.0"/>
	<path d="M -207.87999999999997,504.14 L -211.54999999999998,503.75" fill="none" stroke="black" stroke-width="4.0"/>
	<path d="M -211.54999999999998,503.75 L -215.14999999999998,502.97" fill="none" stroke="black" stroke-width="4.0"/>
	<path d="M -215.14999999999998,502.97 L -218.64999999999998,501.81" fill="none" stroke="black" stroke-width="4.0"/>
	<path d="M -218.64999999999998,501.81 L -222.00999999999996,500.29" fill="none" stroke="black" stroke-width="4.0"/>
	<path d="M -222.00999999999996,500.29 L -225.17999999999998,498.42" fill="none" stroke="black" stroke-width="4.0"/>
	<path d="M -225.17999999999998,498.42 L -228.13999999999996,496.22" fill="none" stroke="black" stroke-width="4.0"/>
	<path d="M -228.13999999999996,496.22 L -230.84999999999997,493.72" fill="none" stroke="black" stroke-width="4.0"/>
	<path d="M -230.84999999999997,493.72 L -233.27999999999997,490.94" fill="none" stroke="black" stroke-width="4.0"/>
	<path d="M -233.27999999999997,490.94 L -235.39999999999998,487.93" fill="none" stroke="black" stroke-width="4.0"/>
	<path d="M -235.39999999999998,487.93 L -237.18999999999997,484.7" fill="none" stroke="black" stroke-width="4.0"/>
	<path d="M -237.18999999999997,484.7 L -238.61999999999998,481.31" fill="none" stroke="black" stroke-width="4.0"/>
	<path d="M -238.61999999999998,481.31 L -239.67999999999998,477.78" fill="none" stroke="black" stroke-width="4.0"/>
	<path d="M -239.67999999999998,477.78 L -240.36999999999998,474.15" fill="none" stroke="black" stroke-width="4.0"/>
	<path d="M -240.36999999999998,474.15 L -240.65999999999997,470.48" fill="none" stroke="black" stroke-width="4.0"/>
	<path d="M -240.65999999999997,470.48 L -240.55999999999997,466.79" fill="none" stroke="black" stroke-width="4.0"/>
	<path d="M -240.55999999999997,466.79 L -240.06999999999996,463.14" fill="none" stroke="black" stroke-width="4.0"/>
	<path d="M -240.06999999999996,463.14 L -239.19999999999996,459.56" fill="none" stroke="black" stroke-width="4.0"/>
	<path d="M -239.19999999999996,459.56 L -237.94999999999996,456.09" fill="none" stroke="black" stroke-width="4.0"/>
	<path d="M -237.94999999999996,456.09 L -236.33999999999997,452.77" fill="none" stroke="black" stroke-width="4.0"/>
	<path d="M -236.33999999999997,452.77 L -234.37999999999997,449.65" fill="none" stroke="black" stroke-width="4.0"/>
	<path d="M -234.37999999999997,449.65 L -232.09999999999997,446.75" fill="none" stroke="black" stroke-width="4.0"/>
	<path d="M -232.09999999999997,446.75 L -229.52999999999997,444.11" fill="none" stroke="black" stroke-width="4.0"/>
	<path d="M -229.52999999999997,444.11 L -226.68999999999997,441.75" fill="none" stroke="black" stroke-width="4.0"/>
	<path d="M -226.68999999999997,441.75 L -223.61999999999998,439.71" fill="none" stroke="black" stroke-width="4.0"/>
	<path d="M -223.61999999999998,439.71 L -220.34999999999997,438.01" fill="none" stroke="black" stroke-width="4.0"/>
	<path d="M -220.34999999999997,438.01 L -216.91999999999996,436.67" fill="none" stroke="black" stroke-width="4.0"/>
	<path d="M -216.91999999999996,436.67 L -213.35999999999999,435.7" fill="none" stroke="black" stroke-width="4.0"/>
	<path d="M -213.35999999999999,435.7 L -209.71999999999997,435.12" fill="none" stroke="black" stroke-width="4.0"/>
	<path d="M -209.71999999999997,435.12 L -206.03999999999996,434.92" fill="none" stroke="black" stroke-width="4.0"/>
	<path d="M -240.66999999999996,469.56 L -223.35999999999999,469.56 L -240.66999999999996,469.56" fill="none" stroke="black" stroke-width="4.0"/>
	<path d="M -206.03999999999996,434.92 L -206.03999999999996,452.24" fill="none" stroke="black" stroke-width="4.0"/>
	<path d="M -216.85999999999999,296.38 L -212.74999999999997,296.57" fill="none" stroke="black" stroke-width="4.0"/>
	<path d="M -212.74999999999997,296.57 L -208.66999999999996,297.16" fill="none" stroke="black" stroke-width="4.0"/>
	<path d="M -208.66999999999996,297.16 L -204.65999999999997,298.13" fill="none" stroke="black" stroke-width="4.0"/>
	<path d="M -204.65999999999997,298.13 L -200.76999999999998,299.48" fill="none" stroke="black" stroke-width="4.0"/>
	<path d="M -200.76999999999998,299.48 L -197.01999999999998,301.19" fill="none" stroke="black" stroke-width="4.0"/>
	<path d="M -197.01999999999998,301.19 L -193.44999999999996,303.25" fill="none" stroke="black" stroke-width="4.0"/>
	<path d="M -193.44999999999996,303.25 L -190.09999999999997,305.64" fill="none" stroke="black" stroke-width="4.0"/>
	<path d="M -190.09999999999997,305.64 L -186.97999999999996,308.34" fill="none" stroke="black" stroke-width="4.0"/>
	<path d="M -186.97999999999996,308.34 L -184.13999999999996,311.32" fill="none" stroke="black" stroke-width="4.0"/>
	<path d="M -184.13999999999996,311.32 L -181.58999999999997,314.56" fill="none" stroke="black" stroke-width="4.0"/>
	<path d="M -181.58999999999997,314.56 L -179.36999999999998,318.02" fill="none" stroke="black" stroke-width="4.0"/>
	<path d="M -179.36999999999998,318.02 L -177.47999999999996,321.68" fill="none" stroke="black" stroke-width="4.0"/>
	<path d="M -177.47999999999996,321.68 L -175.94999999999996,325.51" fill="none" stroke="black" stroke-width="4.0"/>
	<path d="M -175.94999999999996,325.51 L -174.78999999999996,329.46" fill="none" stroke="black" stroke-width="4.0"/>
	<path d="M -174.78999999999996,329.46 L -174.00999999999996,333.51" fill="none" stroke="black" stroke-width="4.0"/>
	<path d="M -174.00999999999996,333.51 L -173.61999999999998,337.61" fill="none" stroke="black" stroke-width="4.0"/>
	<path d="M -173.61999999999998,337.61 L -173.61999999999998,341.73" fill="none" stroke="black" stroke-width="4.0"/>
	<path d="M -173.61999999999998,341.73 L -174.00999999999996,345.83" fill="none" stroke="black" stroke-width="4.0"/>
	<path d="M -174.00999999999996,345.83 L -174.78999999999996,349.88" fill="none" stroke="black" stroke-width="4.0"/>
	<path d="M -174.78999999999996,349.88 L -175.94999999999996,353.83" fill="none" stroke="black" stroke-width="4.0"/>
	<path d="M -175.94999999999996,353.83 L -177.47999999999996,357.66" fill="none" stroke="black" stroke-width="4.0"/>
	<path d="M -177.47999999999996,357.66 L -179.36999999999998,361.32" fill="none" stroke="black" stroke-width="4.0"/>
	<path d="M -179.36999999999998,361.32 L -181.58999999999997,364.78" fill="none" stroke="black" stroke-width="4.0"/>
	<path d="M -181.58999999999997,364.78 L -184.13999999999996,368.02" fill="none" stroke="black" stroke-width="4.0"/>
	<path d="M -184.13999999999996,368.02 L -186.97999999999996,371.0" fill="none" stroke="black" stroke-width="4.0"/>
	<path d="M -186.97999999999996,371.0 L -190.09999999999997,373.7" fill="none" stroke="black" stroke-width="4.0"/>
	<path d="M -190.09999999999997,373.7 L -193.44999999999996,376.09" fill="none" stroke="black" stroke-width="4.0"/>
	<path d="M -193.44999999999996,376.09 L -197.01999999999998,378.15" fill="none" stroke="black" stroke-width="4.0"/>
	<path d="M -197.01999999999998,378.15 L -200.76999999999998,379.86" fill="none" stroke="black" stroke-width="4.0"/>
	<path d="M -200.76999999999998,379.86 L -204.65999999999997,381.21" fill="none" stroke="black" stroke-width="4.0"/>
	<path d="M -204.65999999999997,381.21 L -208.66999999999996,382.18" fill="none" stroke="black" stroke-width="4.0"/>
	<path d="M -208.66999999999996,382.18 L -212.74999999999997,382.77" fill="none" stroke="black" stroke-width="4.0"/>
	<path d="M -212.74999999999997,382.77 L -216.85999999999999,382.97" fill="none" stroke="black" stroke-width="4.0"/>
	<path d="M -216.85999999999999,382.97 L -220.97999999999996,382.77" fill="none" stroke="black" stroke-width="4.0"/>
	<path d="M -220.97999999999996,382.77 L -225.05999999999997,382.18" fill="none" stroke="black" stroke-width="4.0"/>
	<path d="M -225.05999999999997,382.18 L -229.05999999999997,381.21" fill="none" stroke="black" stroke-width="4.0"/>
	<path d="M -229.05999999999997,381.21 L -232.94999999999996,379.86" fill="none" stroke="black" stroke-width="4.0"/>
	<path d="M -232.94999999999996,379.86 L -236.69999999999996,378.15" fill="none" stroke="black" stroke-width="4.0"/>
	<path d="M -236.69999999999996,378.15 L -240.26999999999998,376.09" fill="none" stroke="black" stroke-width="4.0"/>
	<path d="M -240.26999999999998,376.09 L -243.61999999999998,373.7" fill="none" stroke="black" stroke-width="4.0"/>
	<path d="M -243.61999999999998,373.7 L -246.73999999999998,371.0" fill="none" stroke="black" stroke-width="4.0"/>
	<path d="M -246.73999999999998,371.0 L -249.57999999999998,368.02" fill="none" stroke="black" stroke-width="4.0"/>
	<path d="M -249.57999999999998,368.02 L -252.12999999999997,364.78" fill="none" stroke="black" stroke-width="4.0"/>
	<path d="M -252.12999999999997,364.78 L -254.35999999999999,361.32" fill="none" stroke="black" stroke-width="4.0"/>
	<path d="M -254.35999999999999,361.32 L -256.24,357.66" fill="none" stroke="black" stroke-width="4.0"/>
	<path d="M -256.24,357.66 L -257.78,353.83" fill="none" stroke="black" stroke-width="4.0"/>
	<path d="M -257.78,353.83 L -258.94,349.88" fill="none" stroke="black" stroke-width="4.0"/>
	<path d="M -258.94,349.88 L -259.72,345.83" fill="none" stroke="black" stroke-width="4.0"/>
	<path d="M -259.72,345.83 L -260.11,341.73" fill="none" stroke="black" stroke-width="4.0"/>
	<path d="M -260.11,341.73 L -260.11,337.61" fill="none" stroke="black" stroke-width="4.0"/>
	<path d="M -260.11,337.61 L -259.72,333.51" fill="none" stroke="black" stroke-width="4.0"/>
	<path d="M -259.72,333.51 L -258.94,329.46" fill="none" stroke="black" stroke-width="4.0"/>
	<path d="M -258.94,329.46 L -257.78,325.51" fill="none" stroke="black" stroke-width="4.0"/>
	<path d="M -257.78,325.51 L -256.24,321.68" fill="none" stroke="black" stroke-width="4.0"/>
	<path d="M -256.24,321.68 L -254.35999999999999,318.02" fill="none" stroke="black" stroke-width="4.0"/>
	<path d="M -254.35999999999999,318.02 L -252.12999999999997,314.56" fill="none" stroke="black" stroke-width="4.0"/>
	<path d="M -252.12999999999997,314.56 L -249.57999999999998,311.32" fill="none" stroke="black" stroke-width="4.0"/>
	<path d="M -249.57999999999998,311.32 L -246.73999999999998,308.34" fill="none" stroke="black" stroke-width="4.0"/>
	<path d="M -246.73999999999998,308.34 L -243.61999999999998,305.64" fill="none" stroke="black" stroke-width="4.0"/>
	<path d="M -243.61999999999998,305.64 L -240.26999999999998,303.25" fill="none" stroke="black" stroke-width="4.0"/>
	<path d="M -240.26999999999998,303.25 L -236.69999999999996,301.19" fill="none" stroke="black" stroke-width="4.0"/>
	<path d="M -236.69999999999996,301.19 L -232.94999999999996,299.48" fill="none" stroke="black" stroke-width="4.0"/>
	<path d="M -232.94999999999996,299.48 L -229.05999999999997,298.13" fill="none" stroke="black" stroke-width="4.0"/>
	<path d="M -229.05999999999997,298.13 L -225.05999999999997,297.16" fill="none" stroke="black" stroke-width="4.0"/>
	<path d="M -225.05999999999997,297.16 L -220.97999999999996,296.57" fill="none" stroke="black" stroke-width="4.0"/>
	<path d="M -220.97999999999996,296.57 L -216.85999999999999,296.38" fill="none" stroke="black" stroke-width="4.0"/>
	<path d="M -260.16,339.67 L -238.50999999999996,339.67 L -260.16,339.67" fill="none" stroke="black" stroke-width="4.0"/>
	<path d="M -140.19999999999996,533.17 L -140.19999999999996,266.83" fill="none" stroke="black" stroke-width="4.0"/>
	<path d="M -350.4,299.71 L -346.42,299.91" fill="none" stroke="black" stroke-width="4.0"/>
	<path d="M -346.42,299.91 L -342.48,300.5" fill="none" stroke="black" stroke-width="4.0"/>
	<path d="M -342.48,300.5 L -338.62,301.48" fill="none" stroke="black" stroke-width="4.0"/>
	<path d="M -338.62,301.48 L -334.88,302.85" fill="none" stroke="black" stroke-width="4.0"/>
	<path d="M -334.88,302.85 L -331.29,304.57" fill="none" stroke="black" stroke-width="4.0"/>
	<path d="M -331.29,304.57 L -327.89,306.65" fill="none" stroke="black" stroke-width="4.0"/>
	<path d="M -327.89,306.65 L -324.71,309.06" fill="none" stroke="black" stroke-width="4.0"/>
	<path d="M -324.71,309.06 L -321.79,311.77" fill="none" stroke="black" stroke-width="4.0"/>
	<path d="M -321.79,311.77 L -319.16,314.75" fill="none" stroke="black" stroke-width="4.0"/>
	<path d="M -319.16,314.75 L -316.83,317.99" fill="none" stroke="black" stroke-width="4.0"/>
	<path d="M -316.83,317.99 L -314.84,321.44" fill="none" stroke="black" stroke-width="4.0"/>
	<path d="M -314.84,321.44 L -313.2,325.07" fill="none" stroke="black" stroke-width="4.0"/>
	<path d="M -313.2,325.07 L -311.93,328.85" fill="none" stroke="black" stroke-width="4.0"/>
	<path d="M -311.93,328.85 L -311.05,332.73" fill="none" stroke="black" stroke-width="4.0"/>
	<path d="M -311.05,332.73 L -310.55,336.68" fill="none" stroke="black" stroke-width="4.0"/>
	<path d="M -310.55,336.68 L -310.45,340.67" fill="none" stroke="black" stroke-width="4.0"/>
	<path d="M -310.45,340.67 L -310.75,344.64" fill="none" stroke="black" stroke-width="4.0"/>
	<path d="M -310.75,344.64 L -311.44,348.56" fill="none" stroke="black" stroke-width="4.0"/>
	<path d="M -311.44,348.56 L -312.52,352.4" fill="none" stroke="black" stroke-width="4.0"/>
	<path d="M -312.52,352.4 L -313.97,356.11" fill="none" stroke="black" stroke-width="4.0"/>
	<path d="M -313.97,356.11 L -315.79,359.65" fill="none" stroke="black" stroke-width="4.0"/>
	<path d="M -315.79,359.65 L -317.95,363.0" fill="none" stroke="black" stroke-width="4.0"/>
	<path d="M -317.95,363.0 L -320.44,366.11" fill="none" stroke="black" stroke-width="4.0"/>
	<path d="M -320.44,366.11 L -323.22,368.97" fill="none" stroke="black" stroke-width="4.0"/>
	<path d="M -323.22,368.97 L -326.27,371.53" fill="none" stroke="black" stroke-width="4.0"/>
	<path d="M -326.27,371.53 L -329.56,373.77" fill="none" stroke="black" stroke-width="4.0"/>
	<path d="M -329.56,373.77 L -333.06,375.68" fill="none" stroke="black" stroke-width="4.0"/>
	<path d="M -333.06,375.68 L -336.73,377.22" fill="none" stroke="black" stroke-width="4.0"/>
	<path d="M -336.73,377.22 L -340.54,378.4" fill="none" stroke="black" stroke-width="4.0"/>
	<path d="M -340.54,378.4 L -344.44,379.19" fill="none" stroke="black" stroke-width="4.0"/>
	<path d="M -344.44,379.19 L -348.41,379.58" fill="none" stroke="black" stroke-width="4.0"/>
	<path d="M -348.41,379.58 L -352.39,379.58 L -348.41,379.58" fill="none" stroke="black" stroke-width="4.0"/>
	<path d="M -352.39,379.58 L -356.36,379.19" fill="none" stroke="black" stroke-width="4.0"/>
	<path d="M -356.36,379.19 L -360.26,378.4" fill="none" stroke="black" stroke-width="4.0"/>
	<path d="M -360.26,378.4 L -364.07,377.22" fill="none" stroke="black" stroke-width="4.0"/>
	<path d="M -364.07,377.22 L -367.74,375.68" fill="none" stroke="black" stroke-width="4.0"/>
	<path d="M -367.74,375.68 L -371.24,373.77" fill="none" stroke="black" stroke-width="4.0"/>
	<path d="M -371.24,373.77 L -374.53,371.53" fill="none" stroke="black" stroke-width="4.0"/>
	<path d="M -374.53,371.53 L -377.58,368.97" fill="none" stroke="black" stroke-width="4.0"/>
	<path d="M -377.58,368.97 L -380.36,366.11" fill="none" stroke="black" stroke-width="4.0"/>
	<path d="M -380.36,366.11 L -382.85,363.0" fill="none" stroke="black" stroke-width="4.0"/>
	<path d="M -382.85,363.0 L -385.01,359.65" fill="none" stroke="black" stroke-width="4.0"/>
	<path d="M -385.01,359.65 L -386.83,356.11" fill="none" stroke="black" stroke-width="4.0"/>
	<path d="M -386.83,356.11 L -388.28,352.4" fill="none" stroke="black" stroke-width="4.0"/>
	<path d="M -388.28,352.4 L -389.36,348.56" fill="none" stroke="black" stroke-width="4.0"/>
	<path d="M -389.36,348.56 L -390.05,344.64" fill="none" stroke="black" stroke-width="4.0"/>
	<path d="M -390.05,344.64 L -390.35,340.67" fill="none" stroke="black" stroke-width="4.0"/>
	<path d="M -390.35,340.67 L -390.25,336.68" fill="none" stroke="black" stroke-width="4.0"/>
	<path d="M -390.25,336.68 L -389.76,332.73" fill="none" stroke="black" stroke-width="4.0"/>
	<path d="M -389.76,332.73 L -388.87,328.85" fill="none" stroke="black" stroke-width="4.0"/>
	<path d="M -388.87,328.85 L -387.6,325.07" fill="none" stroke="black" stroke-width="4.0"/>
	<path d="M -387.6,325.07 L -385.96,321.44" fill="none" stroke="black" stroke-width="4.0"/>
	<path d="M -385.96,321.44 L -383.97,317.99" fill="none" stroke="black" stroke-width="4.0"/>
	<path d="M -383.97,317.99 L -381.64,314.75" fill="none" stroke="black" stroke-width="4.0"/>
	<path d="M -381.64,314.75 L -379.01,311.77" fill="none" stroke="black" stroke-width="4.0"/>
	<path d="M -379.01,311.77 L -376.09,309.06" fill="none" stroke="black" stroke-width="4.0"/>
	<path d="M -376.09,309.06 L -372.91,306.65" fill="none" stroke="black" stroke-width="4.0"/>
	<path d="M -372.91,306.65 L -369.51,304.57" fill="none" stroke="black" stroke-width="4.0"/>
	<path d="M -369.51,304.57 L -365.92,302.85" fill="none" stroke="black" stroke-width="4.0"/>
	<path d="M -365.92,302.85 L -362.18,301.48" fill="none" stroke="black" stroke-width="4.0"/>
	<path d="M -362.18,301.48 L -358.32,300.5" fill="none" stroke="black" stroke-width="4.0"/>
	<path d="M -358.32,300.5 L -354.38,299.91" fill="none" stroke="black" stroke-width="4.0"/>
	<path d="M -354.38,299.91 L -350.4,299.71" fill="none" stroke="black" stroke-width="4.0"/>
	<path d="M -441.51,353.03 L -439.44,353.23" fill="none" stroke="black" stroke-width="4.0"/>
	<path d="M -439.44,353.23 L -437.44,353.82" fill="none" stroke="black" stroke-width="4.0"/>
	<path d="M -437.44,353.82 L -435.59,354.77" fill="none" stroke="black" stroke-width="4.0"/>
	<path d="M -435.59,354.77 L -433.96,356.06" fill="none" stroke="black" stroke-width="4.0"/>
	<path d="M -433.96,356.06 L -432.59,357.63" fill="none" stroke="black" stroke-width="4.0"/>
	<path d="M -432.59,357.63 L -431.55,359.43" fill="none" stroke="black" stroke-width="4.0"/>
	<path d="M -431.55,359.43 L -430.87,361.4" fill="none" stroke="black" stroke-width="4.0"/>
	<path d="M -430.87,361.4 L -430.58,363.46" fill="none" stroke="black" stroke-width="4.0"/>
	<path d="M -430.58,363.46 L -430.68,365.54" fill="none" stroke="black" stroke-width="4.0"/>
	<path d="M -430.68,365.54 L -431.17,367.56" fill="none" stroke="black" stroke-width="4.0"/>
	<path d="M -431.17,367.56 L -432.03,369.46" fill="none" stroke="black" stroke-width="4.0"/>
	<path d="M -432.03,369.46 L -433.24,371.15" fill="none" stroke="black" stroke-width="4.0"/>
	<path d="M -433.24,371.15 L -434.74,372.59" fill="none" stroke="black" stroke-width="4.0"/>
	<path d="M -434.74,372.59 L -436.5,373.71" fill="none" stroke="black" stroke-width="4.0"/>
	<path d="M -436.5,373.71 L -438.43,374.49" fill="none" stroke="black" stroke-width="4.0"/>
	<path d="M -438.43,374.49 L -440.47,374.88" fill="none" stroke="black" stroke-width="4.0"/>
	<path d="M -440.47,374.88 L -442.55,374.88 L -440.47,374.88" fill="none" stroke="black" stroke-width="4.0"/>
	<path d="M -442.55,374.88 L -444.6,374.49" fill="none" stroke="black" stroke-width="4.0"/>
	<path d="M -444.6,374.49 L -446.53,373.71" fill="none" stroke="black" stroke-width="4.0"/>
	<path d="M -446.53,373.71 L -448.28,372.59" fill="none" stroke="black" stroke-width="4.0"/>
	<path d="M -448.28,372.59 L -449.79,371.15" fill="none" stroke="black" stroke-width="4.0"/>
	<path d="M -449.79,371.15 L -450.99,369.46" fill="none" stroke="black" stroke-width="4.0"/>
	<path d="M -450.99,369.46 L -451.86,367.56" fill="none" stroke="black" stroke-width="4.0"/>
	<path d="M -451.86,367.56 L -452.35,365.54" fill="none" stroke="black" stroke-width="4.0"/>
	<path d="M -452.35,365.54 L -452.45,363.46" fill="none" stroke="black" stroke-width="4.0"/>
	<path d="M -452.45,363.46 L -452.15,361.4" fill="none" stroke="black" stroke-width="4.0"/>
	<path d="M -452.15,361.4 L -451.47,359.43" fill="none" stroke="black" stroke-width="4.0"/>
	<path d="M -451.47,359.43 L -450.43,357.63" fill="none" stroke="black" stroke-width="4.0"/>
	<path d="M -450.43,357.63 L -449.07,356.06" fill="none" stroke="black" stroke-width="4.0"/>
	<path d="M -449.07,356.06 L -447.43,354.77" fill="none" stroke="black" stroke-width="4.0"/>
	<path d="M -447.43,354.77 L -445.58,353.82" fill="none" stroke="black" stroke-width="4.0"/>
	<path d="M -445.58,353.82 L -443.58,353.23" fill="none" stroke="black" stroke-width="4.0"/>
	<path d="M -443.58,353.23 L -441.51,353.03" fill="none" stroke="black" stroke-width="4.0"/>
	<path d="M -441.51,304.5 L -439.44,304.7" fill="none" stroke="black" stroke-width="4.0"/>
	<path d="M -439.44,304.7 L -437.44,305.29" fill="none" stroke="black" stroke-width="4.0"/>
	<path d="M -437.44,305.29 L -435.59,306.24" fill="none" stroke="black" stroke-width="4.0"/>
	<path d="M -435.59,306.24 L -433.96,307.53" fill="none" stroke="black" stroke-width="4.0"/>
	<path d="M -433.96,307.53 L -432.59,309.1" fill="none" stroke="black" stroke-width="4.0"/>
	<path d="M -432.59,309.1 L -431.55,310.9" fill="none" stroke="black" stroke-width="4.0"/>
	<path d="M -431.55,310.9 L -430.87,312.87" fill="none" stroke="black" stroke-width="4.0"/>
	<path d="M -430.87,312.87 L -430.58,314.93" fill="none" stroke="black" stroke-width="4.0"/>
	<path d="M -430.58,314.93 L -430.68,317.01" fill="none" stroke="black" stroke-width="4.0"/>
	<path d="M -430.68,317.01 L -431.17,319.03" fill="none" stroke="black" stroke-width="4.0"/>
	<path d="M -431.17,319.03 L -432.03,320.93" fill="none" stroke="black" stroke-width="4.0"/>
	<path d="M -432.03,320.93 L -433.24,322.62" fill="none" stroke="black" stroke-width="4.0"/>
	<path d="M -433.24,322.62 L -434.74,324.06" fill="none" stroke="black" stroke-width="4.0"/>
	<path d="M -434.74,324.06 L -436.5,325.18" fill="none" stroke="black" stroke-width="4.0"/>
	<path d="M -436.5,325.18 L -438.43,325.96" fill="none" stroke="black" stroke-width="4.0"/>
	<path d="M -438.43,325.96 L -440.47,326.35" fill="none" stroke="black" stroke-width="4.0"/>
	<path d="M -440.47,326.35 L -442.55,326.35 L -440.47,326.35" fill="none" stroke="black" stroke-width="4.0"/>
	<path d="M -442.55,326.35 L -444.6,325.96" fill="none" stroke="black" stroke-width="4.0"/>
	<path d="M -444.6,325.96 L -446.53,325.18" fill="none" stroke="black" stroke-width="4.0"/>
	<path d="M -446.53,325.18 L -448.28,324.06" fill="none" stroke="black" stroke-width="4.0"/>
	<path d="M -448.28,324.06 L -449.79,322.62" fill="none" stroke="black" stroke-width="4.0"/>
	<path d="M -449.79,322.62 L -450.99,320.93" fill="none" stroke="black" stroke-width="4.0"/>
	<path d="M -450.99,320.93 L -451.86,319.03" fill="none" stroke="black" stroke-width="4.0"/>
	<path d="M -451.86,319.03 L -452.35,317.01" fill="none" stroke="black" stroke-width="4.0"/>
	<path d="M -452.35,317.01 L -452.45,314.93" fill="none" stroke="black" stroke-width="4.0"/>
	<path d="M -452.45,314.93 L -452.15,312.87" fill="none" stroke="black" stroke-width="4.0"/>
	<path d="M -452.15,312.87 L -451.47,310.9" fill="none" stroke="black" stroke-width="4.0"/>
	<path d="M -451.47,310.9 L -450.43,309.1" fill="none" stroke="black" stroke-width="4.0"/>
	<path d="M -450.43,309.1 L -449.07,307.53" fill="none" stroke="black" stroke-width="4.0"/>
	<path d="M -449.07,307.53 L -447.43,306.24" fill="none" stroke="black" stroke-width="4.0"/>
	<path d="M -447.43,306.24 L -445.58,305.29" fill="none" stroke="black" stroke-width="4.0"/>
	<path d="M -445.58,305.29 L -443.58,304.7" fill="none" stroke="black" stroke-width="4.0"/>
	<path d="M -443.58,304.7 L -441.51,304.5" fill="none" stroke="black" stroke-width="4.0"/>
	<path d="M -441.51,431.01 L -439.44,431.21" fill="none" stroke="black" stroke-width="4.0"/>
	<path d="M -439.44,431.21 L -437.44,431.8" fill="none" stroke="black" stroke-width="4.0"/>
	<path d="M -437.44,431.8 L -435.59,432.75" fill="none" stroke="black" stroke-width="4.0"/>
	<path d="M -435.59,432.75 L -433.96,434.04" fill="none" stroke="black" stroke-width="4.0"/>
	<path d="M -433.96,434.04 L -432.59,435.61" fill="none" stroke="black" stroke-width="4.0"/>
	<path d="M -432.59,435.61 L -431.55,437.41" fill="none" stroke="black" stroke-width="4.0"/>
	<path d="M -431.55,437.41 L -430.87,439.38" fill="none" stroke="black" stroke-width="4.0"/>
	<path d="M -430.87,439.38 L -430.58,441.44" fill="none" stroke="black" stroke-width="4.0"/>
	<path d="M -430.58,441.44 L -430.68,443.52" fill="none" stroke="black" stroke-width="4.0"/>
	<path d="M -430.68,443.52 L -431.17,445.54" fill="none" stroke="black" stroke-width="4.0"/>
	<path d="M -431.17,445.54 L -432.03,447.43" fill="none" stroke="black" stroke-width="4.0"/>
	<path d="M -432.03,447.43 L -433.24,449.13" fill="none" stroke="black" stroke-width="4.0"/>
	<path d="M -433.24,449.13 L -434.74,450.57" fill="none" stroke="black" stroke-width="4.0"/>
	<path d="M -434.74,450.57 L -436.5,451.69" fill="none" stroke="black" stroke-width="4.0"/>
	<path d="M -436.5,451.69 L -438.43,452.47" fill="none" stroke="black" stroke-width="4.0"/>
	<path d="M -438.43,452.47 L -440.47,452.86" fill="none" stroke="black" stroke-width="4.0"/>
	<path d="M -440.47,452.86 L -442.55,452.86 L -440.47,452.86" fill="none" stroke="black" stroke-width="4.0"/>
	<path d="M -442.55,452.86 L -444.6,452.47" fill="none" stroke="black" stroke-width="4.0"/>
	<path d="M -444.6,452.47 L -446.53,451.69" fill="none" stroke="black" stroke-width="4.0"/>
	<path d="M -446.53,451.69 L -448.28,450.57" fill="none" stroke="black" stroke-width="4.0"/>
	<path d="M -448.28,450.57 L -449.79,449.13" fill="none" stroke="black" stroke-width="4.0"/>
	<path d="M -449.79,449.13 L -450.99,447.43" fill="none" stroke="black" stroke-width="4.0"/>
	<path d="M -450.99,447.43 L -451.86,445.54" fill="none" stroke="black" stroke-width="4.0"/>
	<path d="M -451.86,445.54 L -452.35,443.52" fill="none" stroke="black" stroke-width="4.0"/>
	<path d="M -452.35,443.52 L -452.45,441.44" fill="none" stroke="black" stroke-width="4.0"/>
	<path d="M -452.45,441.44 L -452.15,439.38" fill="none" stroke="black" stroke-width="4.0"/>
	<path d="M -452.15,439.38 L -451.47,437.41" fill="none" stroke="black" stroke-width="4.0"/>
	<path d="M -451.47,437.41 L -450.43,435.61" fill="none" stroke="black" stroke-width="4.0"/>
	<path d="M -450.43,435.61 L -449.07,434.04" fill="none" stroke="black" stroke-width="4.0"/>
	<path d="M -449.07,434.04 L -447.43,432.75" fill="none" stroke="black" stroke-width="4.0"/>
	<path d="M -447.43,432.75 L -445.58,431.8" fill="none" stroke="black" stroke-width="4.0"/>
	<path d="M -445.58,431.8 L -443.58,431.21" fill="none" stroke="black" stroke-width="4.0"/>
	<path d="M -443.58,431.21 L -441.51,431.01" fill="none" stroke="black" stroke-width="4.0"/>
	<path d="M -441.50999999999993,479.54 L -439.43999999999994,479.74" fill="none" stroke="black" stroke-width="4.0"/>
	<path d="M -439.43999999999994,479.74 L -437.43999999999994,480.33" fill="none" stroke="black" stroke-width="4.0"/>
	<path d="M -437.43999999999994,480.33 L -435.5899999999999,481.28" fill="none" stroke="black" stroke-width="4.0"/>
	<path d="M -435.5899999999999,481.28 L -433.9599999999999,482.57" fill="none" stroke="black" stroke-width="4.0"/>
	<path d="M -433.9599999999999,482.57 L -432.5899999999999,484.14" fill="none" stroke="black" stroke-width="4.0"/>
	<path d="M -432.5899999999999,484.14 L -431.54999999999995,485.94" fill="none" stroke="black" stroke-width="4.0"/>
	<path d="M -431.54999999999995,485.94 L -430.86999999999995,487.91" fill="none" stroke="black" stroke-width="4.0"/>
	<path d="M -430.86999999999995,487.91 L -430.5799999999999,489.97" fill="none" stroke="black" stroke-width="4.0"/>
	<path d="M -430.5799999999999,489.97 L -430.67999999999995,492.05" fill="none" stroke="black" stroke-width="4.0"/>
	<path d="M -430.67999999999995,492.05 L -431.16999999999996,494.07" fill="none" stroke="black" stroke-width="4.0"/>
	<path d="M -431.16999999999996,494.07 L -432.0299999999999,495.96" fill="none" stroke="black" stroke-width="4.0"/>
	<path d="M -432.0299999999999,495.96 L -433.23999999999995,497.66" fill="none" stroke="black" stroke-width="4.0"/>
	<path d="M -433.23999999999995,497.66 L -434.73999999999995,499.1" fill="none" stroke="black" stroke-width="4.0"/>
	<path d="M -434.73999999999995,499.1 L -436.49999999999994,500.22" fill="none" stroke="black" stroke-width="4.0"/>
	<path d="M -436.49999999999994,500.22 L -438.42999999999995,500.99" fill="none" stroke="black" stroke-width="4.0"/>
	<path d="M -438.42999999999995,500.99 L -440.46999999999997,501.39" fill="none" stroke="black" stroke-width="4.0"/>
	<path d="M -440.46999999999997,501.39 L -442.54999999999995,501.39 L -440.46999999999997,501.39" fill="none" stroke="black" stroke-width="4.0"/>
	<path d="M -442.54999999999995,501.39 L -444.59999999999997,500.99" fill="none" stroke="black" stroke-width="4.0"/>
	<path d="M -444.59999999999997,500.99 L -446.5299999999999,500.22" fill="none" stroke="black" stroke-width="4.0"/>
	<path d="M -446.5299999999999,500.22 L -448.2799999999999,499.1" fill="none" stroke="black" stroke-width="4.0"/>
	<path d="M -448.2799999999999,499.1 L -449.78999999999996,497.66" fill="none" stroke="black" stroke-width="4.0"/>
	<path d="M -449.78999999999996,497.66 L -450.98999999999995,495.96" fill="none" stroke="black" stroke-width="4.0"/>
	<path d="M -450.98999999999995,495.96 L -451.85999999999996,494.07" fill="none" stroke="black" stroke-width="4.0"/>
	<path d="M -451.85999999999996,494.07 L -452.34999999999997,492.05" fill="none" stroke="black" stroke-width="4.0"/>
	<path d="M -452.34999999999997,492.05 L -452.44999999999993,489.97" fill="none" stroke="black" stroke-width="4.0"/>
	<path d="M -452.44999999999993,489.97 L -452.1499999999999,487.91" fill="none" stroke="black" stroke-width="4.0"/>
	<path d="M -452.1499999999999,487.91 L -451.46999999999997,485.94" fill="none" stroke="black" stroke-width="4.0"/>
	<path d="M -451.46999999999997,485.94 L -450.42999999999995,484.14" fill="none" stroke="black" stroke-width="4.0"/>
	<path d="M -450.42999999999995,484.14 L -449.06999999999994,482.57" fill="none" stroke="black" stroke-width="4.0"/>
	<path d="M -449.06999999999994,482.57 L -447.42999999999995,481.28" fill="none" stroke="black" stroke-width="4.0"/>
	<path d="M -447.42999999999995,481.28 L -445.5799999999999,480.33" fill="none" stroke="black" stroke-width="4.0"/>
	<path d="M -445.5799999999999,480.33 L -443.5799999999999,479.74" fill="none" stroke="black" stroke-width="4.0"/>
	<path d="M -443.5799999999999,479.74 L -441.50999999999993,479.54" fill="none" stroke="black" stroke-width="4.0"/>
	<path d="M -437.68,322.13 L -448.98,310.83" fill="none" stroke="black" stroke-width="4.0"/>
	<path d="M -448.98,310.83 L -445.96,307.81" fill="none" stroke="black" stroke-width="4.0"/>
	<path d="M -445.96,307.81 L -434.66,319.11" fill="none" stroke="black" stroke-width="4.0"/>
	<path d="M -434.66,319.11 L -437.68,322.13" fill="none" stroke="black" stroke-width="4.0"/>
	<path d="M -433.83,437.91 L -445.13,449.21" fill="none" stroke="black" stroke-width="4.0"/>
	<path d="M -445.13,449.21 L -448.14,446.2" fill="none" stroke="black" stroke-width="4.0"/>
	<path d="M -448.14,446.2 L -436.84,434.9" fill="none" stroke="black" stroke-width="4.0"/>
	<path d="M -436.84,434.9 L -433.83,437.91" fill="none" stroke="black" stroke-width="4.0"/>
	<path d="M -433.83,359.35 L -445.13,370.65" fill="none" stroke="black" stroke-width="4.0"/>
	<path d="M -445.13,370.65 L -448.14,367.63" fill="none" stroke="black" stroke-width="4.0"/>
	<path d="M -448.14,367.63 L -436.84,356.33" fill="none" stroke="black" stroke-width="4.0"/>
	<path d="M -436.84,356.33 L -433.83,359.35" fill="none" stroke="black" stroke-width="4.0"/>
	<path d="M -437.13999999999993,497.91 L -448.43999999999994,486.61" fill="none" stroke="black" stroke-width="4.0"/>
	<path d="M -448.43999999999994,486.61 L -445.42999999999995,483.59" fill="none" stroke="black" stroke-width="4.0"/>
	<path d="M -445.42999999999995,483.59 L -434.12999999999994,494.89" fill="none" stroke="black" stroke-width="4.0"/>
	<path d="M -434.12999999999994,494.89 L -437.13999999999993,497.91" fill="none" stroke="black" stroke-width="4.0"/>
	<path d="M -417.38,266.83 L -417.37999999999994,533.17" fill="none" stroke="black" stroke-width="4.0"/>
	<path d="M -339.58,426.26 L -339.58,447.91" fill="none" stroke="black" stroke-width="4.0"/>
	<path d="M -339.5799999999999,512.85 L -339.5799999999999,491.2" fill="none" stroke="black" stroke-width="4.0"/>
	<path d="M -350.4,305.03 L -350.4,322.35" fill="none" stroke="black" stroke-width="4.0"/>
	<path d="M -385.04,339.67 L -367.72,339.67 L -385.04,339.67" fill="none" stroke="black" stroke-width="4.0"/>
	<path d="M -350.4,374.31 L -350.4,356.99" fill="none" stroke="black" stroke-width="4.0"/>
	<path d="M -382.86999999999995,469.56 L -361.21999999999997,469.56 L -382.86999999999995,469.56" fill="none" stroke="black" stroke-width="4.0"/>
	<path d="M -350.4,305.03 L -346.72,305.23" fill="none" stroke="black" stroke-width="4.0"/>
	<path d="M -346.72,305.23 L -343.08,305.82" fill="none" stroke="black" stroke-width="4.0"/>
	<path d="M -343.08,305.82 L -339.52,306.79" fill="none" stroke="black" stroke-width="4.0"/>
	<path d="M -339.52,306.79 L -336.09,308.13" fill="none" stroke="black" stroke-width="4.0"/>
	<path d="M -336.09,308.13 L -332.82,309.83" fill="none" stroke="black" stroke-width="4.0"/>
	<path d="M -332.82,309.83 L -329.74,311.87" fill="none" stroke="black" stroke-width="4.0"/>
	<path d="M -329.74,311.87 L -326.91,314.22" fill="none" stroke="black" stroke-width="4.0"/>
	<path d="M -326.91,314.22 L -324.33,316.86" fill="none" stroke="black" stroke-width="4.0"/>
	<path d="M -324.33,316.86 L -322.06,319.76" fill="none" stroke="black" stroke-width="4.0"/>
	<path d="M -322.06,319.76 L -320.1,322.89" fill="none" stroke="black" stroke-width="4.0"/>
	<path d="M -320.1,322.89 L -318.49,326.2" fill="none" stroke="black" stroke-width="4.0"/>
	<path d="M -318.49,326.2 L -317.24,329.67" fill="none" stroke="black" stroke-width="4.0"/>
	<path d="M -317.24,329.67 L -316.36,333.25" fill="none" stroke="black" stroke-width="4.0"/>
	<path d="M -316.36,333.25 L -315.88,336.91" fill="none" stroke="black" stroke-width="4.0"/>
	<path d="M -315.88,336.91 L -315.78,340.59" fill="none" stroke="black" stroke-width="4.0"/>
	<path d="M -315.78,340.59 L -316.07,344.27" fill="none" stroke="black" stroke-width="4.0"/>
	<path d="M -316.07,344.27 L -316.75,347.89" fill="none" stroke="black" stroke-width="4.0"/>
	<path d="M -316.75,347.89 L -317.82,351.42" fill="none" stroke="black" stroke-width="4.0"/>
	<path d="M -317.82,351.42 L -319.25,354.82" fill="none" stroke="black" stroke-width="4.0"/>
	<path d="M -319.25,354.82 L -321.04,358.04" fill="none" stroke="black" stroke-width="4.0"/>
	<path d="M -321.04,358.04 L -323.16,361.06" fill="none" stroke="black" stroke-width="4.0"/>
	<path d="M -323.16,361.06 L -325.59,363.83" fill="none" stroke="black" stroke-width="4.0"/>
	<path d="M -325.59,363.83 L -328.29,366.33" fill="none" stroke="black" stroke-width="4.0"/>
	<path d="M -328.29,366.33 L -331.25,368.53" fill="none" stroke="black" stroke-width="4.0"/>
	<path d="M -331.25,368.53 L -334.43,370.4" fill="none" stroke="black" stroke-width="4.0"/>
	<path d="M -334.43,370.4 L -337.79,371.93" fill="none" stroke="black" stroke-width="4.0"/>
	<path d="M -337.79,371.93 L -341.29,373.09" fill="none" stroke="black" stroke-width="4.0"/>
	<path d="M -341.29,373.09 L -344.89,373.87" fill="none" stroke="black" stroke-width="4.0"/>
	<path d="M -344.89,373.87 L -348.56,374.26" fill="none" stroke="black" stroke-width="4.0"/>
	<path d="M -348.56,374.26 L -352.24,374.26 L -348.56,374.26" fill="none" stroke="black" stroke-width="4.0"/>
	<path d="M -352.24,374.26 L -355.91,373.87" fill="none" stroke="black" stroke-width="4.0"/>
	<path d="M -355.91,373.87 L -359.51,373.09" fill="none" stroke="black" stroke-width="4.0"/>
	<path d="M -359.51,373.09 L -363.01,371.93" fill="none" stroke="black" stroke-width="4.0"/>
	<path d="M -363.01,371.93 L -366.37,370.4" fill="none" stroke="black" stroke-width="4.0"/>
	<path d="M -366.37,370.4 L -369.55,368.53" fill="none" stroke="black" stroke-width="4.0"/>
	<path d="M -369.55,368.53 L -372.51,366.33" fill="none" stroke="black" stroke-width="4.0"/>
	<path d="M -372.51,366.33 L -375.22,363.83" fill="none" stroke="black" stroke-width="4.0"/>
	<path d="M -375.22,363.83 L -377.64,361.06" fill="none" stroke="black" stroke-width="4.0"/>
	<path d="M -377.64,361.06 L -379.76,358.04" fill="none" stroke="black" stroke-width="4.0"/>
	<path d="M -379.76,358.04 L -381.55,354.82" fill="none" stroke="black" stroke-width="4.0"/>
	<path d="M -381.55,354.82 L -382.98,351.42" fill="none" stroke="black" stroke-width="4.0"/>
	<path d="M -382.98,351.42 L -384.05,347.89" fill="none" stroke="black" stroke-width="4.0"/>
	<path d="M -384.05,347.89 L -384.73,344.27" fill="none" stroke="black" stroke-width="4.0"/>
	<path d="M -384.73,344.27 L -385.02,340.59" fill="none" stroke="black" stroke-width="4.0"/>
	<path d="M -385.02,340.59 L -384.93,336.91" fill="none" stroke="black" stroke-width="4.0"/>
	<path d="M -384.93,336.91 L -384.44,333.25" fill="none" stroke="black" stroke-width="4.0"/>
	<path d="M -384.44,333.25 L -383.56,329.67" fill="none" stroke="black" stroke-width="4.0"/>
	<path d="M -383.56,329.67 L -382.31,326.2" fill="none" stroke="black" stroke-width="4.0"/>
	<path d="M -382.31,326.2 L -380.7,322.89" fill="none" stroke="black" stroke-width="4.0"/>
	<path d="M -380.7,322.89 L -378.74,319.76" fill="none" stroke="black" stroke-width="4.0"/>
	<path d="M -378.74,319.76 L -376.47,316.86" fill="none" stroke="black" stroke-width="4.0"/>
	<path d="M -376.47,316.86 L -373.89,314.22" fill="none" stroke="black" stroke-width="4.0"/>
	<path d="M -373.89,314.22 L -371.06,311.87" fill="none" stroke="black" stroke-width="4.0"/>
	<path d="M -371.06,311.87 L -367.98,309.83" fill="none" stroke="black" stroke-width="4.0"/>
	<path d="M -367.98,309.83 L -364.71,308.13" fill="none" stroke="black" stroke-width="4.0"/>
	<path d="M -364.71,308.13 L -361.28,306.79" fill="none" stroke="black" stroke-width="4.0"/>
	<path d="M -361.28,306.79 L -357.72,305.82" fill="none" stroke="black" stroke-width="4.0"/>
	<path d="M -357.72,305.82 L -354.08,305.23" fill="none" stroke="black" stroke-width="4.0"/>
	<path d="M -354.08,305.23 L -350.4,305.03" fill="none" stroke="black" stroke-width="4.0"/>
	<path d="M -315.76,339.67 L -333.08,339.67 L -315.76,339.67" fill="none" stroke="black" stroke-width="4.0"/>
	<path d="M -459.8,273.4 L -459.79999999999995,533.17" fill="none" stroke="black" stroke-width="4.0"/>
	<path d="M -459.79999999999995,533.17 L -459.8,266.83" fill="none" stroke="black" stroke-width="4.0"/>
	<path d="M -459.79999999999995,533.17 L -459.8,266.83" fill="none" stroke="black" stroke-width="4.0"/>
</svg>