<svg xmlns="http://www.w3.org/2000/svg" xmlns:ev="http://www.w3.org/2001/xml-events" xmlns:xlink="http://www.w3.org/1999/xlink" baseProfile="full" version="1.1" viewBox="-436.34 319.97 272.68 160.06">
	<defs/>
	<path d="M -197.26999999999998,415.8 L -199.73999999999998,415.61" fill="none" stroke="black" stroke-width="4.0"/>
	<path d="M -199.73999999999998,415.61 L -202.15999999999997,415.03" fill="none" stroke="black" stroke-width="4.0"/>
	<path d="M -202.15999999999997,415.03 L -204.44999999999996,414.08" fill="none" stroke="black" stroke-width="4.0"/>
	<path d="M -204.44999999999996,414.08 L -206.55999999999997,412.79" fill="none" stroke="black" stroke-width="4.0"/>
	<path d="M -206.55999999999997,412.79 L -208.44999999999996,411.18" fill="none" stroke="black" stroke-width="4.0"/>
	<path d="M -208.44999999999996,411.18 L -210.05999999999997,409.29" fill="none" stroke="black" stroke-width="4.0"/>
	<path d="M -210.05999999999997,409.29 L -211.34999999999997,407.18" fill="none" stroke="black" stroke-width="4.0"/>
	<path d="M -211.34999999999997,407.18 L -212.29999999999998,404.88" fill="none" stroke="black" stroke-width="4.0"/>
	<path d="M -212.29999999999998,404.88 L -212.87999999999997,402.47" fill="none" stroke="black" stroke-width="4.0"/>
	<path d="M -212.87999999999997,402.47 L -213.07999999999998,400.0" fill="none" stroke="black" stroke-width="4.0"/>
	<path d="M -213.07999999999998,400.0 L -212.87999999999997,397.53" fill="none" stroke="black" stroke-width="4.0"/>
	<path d="M -212.87999999999997,397.53 L -212.29999999999998,395.12" fill="none" stroke="black" stroke-width="4.0"/>
	<path d="M -212.29999999999998,395.12 L -211.34999999999997,392.82" fill="none" stroke="black" stroke-width="4.0"/>
	<path d="M -211.34999999999997,392.82 L -210.05999999999997,390.71" fill="none" stroke="black" stroke-width="4.0"/>
	<path d="M -210.05999999999997,390.71 L -208.44999999999996,388.82" fill="none" stroke="black" stroke-width="4.0"/>
	<path d="M -208.44999999999996,388.82 L -206.55999999999997,387.21" fill="none" stroke="black" stroke-width="4.0"/>
	<path d="M -206.55999999999997,387.21 L -204.44999999999996,385.92" fill="none" stroke="black" stroke-width="4.0"/>
	<path d="M -204.44999999999996,385.92 L -202.15999999999997,384.97" fill="none" stroke="black" stroke-width="4.0"/>
	<path d="M -202.15999999999997,384.97 L -199.73999999999998,384.39" fill="none" stroke="black" stroke-width="4.0"/>
	<path d="M -199.73999999999998,384.39 L -197.26999999999998,384.2" fill="none" stroke="black" stroke-width="4.0"/>
	<path d="M -197.26999999999998,384.2 L -194.79999999999998,384.39" fill="none" stroke="black" stroke-width="4.0"/>
	<path d="M -194.79999999999998,384.39 L -192.38999999999996,384.97" fill="none" stroke="black" stroke-width="4.0"/>
	<path d="M -192.38999999999996,384.97 L -190.09999999999997,385.92" fill="none" stroke="black" stroke-width="4.0"/>
	<path d="M -190.09999999999997,385.92 L -187.97999999999996,387.21" fill="none" stroke="black" stroke-width="4.0"/>
	<path d="M -187.97999999999996,387.21 L -186.09999999999997,388.82" fill="none" stroke="black" stroke-width="4.0"/>
	<path d="M -186.09999999999997,388.82 L -184.48999999999998,390.71" fill="none" stroke="black" stroke-width="4.0"/>
	<path d="M -184.48999999999998,390.71 L -183.18999999999997,392.82" fill="none" stroke="black" stroke-width="4.0"/>
	<path d="M -183.18999999999997,392.82 L -182.23999999999998,395.12" fill="none" stroke="black" stroke-width="4.0"/>
	<path d="M -182.23999999999998,395.12 L -181.65999999999997,397.53" fill="none" stroke="black" stroke-width="4.0"/>
	<path d="M -181.65999999999997,397.53 L -181.46999999999997,400.0" fill="none" stroke="black" stroke-width="4.0"/>
	<path d="M -181.46999999999997,400.0 L -181.65999999999997,402.47" fill="none" stroke="black" stroke-width="4.0"/>
	<path d="M -181.65999999999997,402.47 L -182.23999999999998,404.88" fill="none" stroke="black" stroke-width="4.0"/>
	<path d="M -182.23999999999998,404.88 L -183.18999999999997,407.18" fill="none" stroke="black" stroke-width="4.0"/>
	<path d="M -183.18999999999997,407.18 L -184.48999999999998,409.29" fill="none" stroke="black" stroke-width="4.0"/>
	<path d="M -184.48999999999998,409.29 L -186.09999999999997,411.18" fill="none" stroke="black" stroke-width="4.0"/>
	<path d="M -186.09999999999997,411.18 L -187.97999999999996,412.79" fill="none" stroke="black" stroke-width="4.0"/>
	<path d="M -187.97999999999996,412.79 L -190.09999999999997,414.08" fill="none" stroke="black" stroke-width="4.0"/>
	<path d="M -190.09999999999997,414.08 L -192.38999999999996,415.03" fill="none" stroke="black" stroke-width="4.0"/>
	<path d="M -192.38999999999996,415.03 L -194.79999999999998,415.61" fill="none" stroke="black" stroke-width="4.0"/>
	<path d="M -194.79999999999998,415.61 L -197.26999999999998,415.8" fill="none" stroke="black" stroke-width="4.0"/>
	<path d="M -197.26999999999998,407.9 L -199.02999999999997,407.7" fill="none" stroke="black" stroke-width="4.0"/>
	<path d="M -199.02999999999997,407.7 L -200.69999999999996,407.12" fill="none" stroke="black" stroke-width="4.0"/>
	<path d="M -200.69999999999996,407.12 L -202.19999999999996,406.18" fill="none" stroke="black" stroke-width="4.0"/>
	<path d="M -202.19999999999996,406.18 L -203.44999999999996,404.93" fill="none" stroke="black" stroke-width="4.0"/>
	<path d="M -203.44999999999996,404.93 L -204.38999999999996,403.43" fill="none" stroke="black" stroke-width="4.0"/>
	<path d="M -204.38999999999996,403.43 L -204.97999999999996,401.76" fill="none" stroke="black" stroke-width="4.0"/>
	<path d="M -204.97999999999996,401.76 L -205.16999999999996,400.0" fill="none" stroke="black" stroke-width="4.0"/>
	<path d="M -205.16999999999996,400.0 L -204.97999999999996,398.24" fill="none" stroke="black" stroke-width="4.0"/>
	<path d="M -204.97999999999996,398.24 L -204.38999999999996,396.57" fill="none" stroke="black" stroke-width="4.0"/>
	<path d="M -204.38999999999996,396.57 L -203.44999999999996,395.07" fill="none" stroke="black" stroke-width="4.0"/>
	<path d="M -203.44999999999996,395.07 L -202.19999999999996,393.82" fill="none" stroke="black" stroke-width="4.0"/>
	<path d="M -202.19999999999996,393.82 L -200.69999999999996,392.88" fill="none" stroke="black" stroke-width="4.0"/>
	<path d="M -200.69999999999996,392.88 L -199.02999999999997,392.3" fill="none" stroke="black" stroke-width="4.0"/>
	<path d="M -199.02999999999997,392.3 L -197.26999999999998,392.1" fill="none" stroke="black" stroke-width="4.0"/>
	<path d="M -197.26999999999998,392.1 L -195.50999999999996,392.3" fill="none" stroke="black" stroke-width="4.0"/>
	<path d="M -195.50999999999996,392.3 L -193.83999999999997,392.88" fill="none" stroke="black" stroke-width="4.0"/>
	<path d="M -193.83999999999997,392.88 L -192.33999999999997,393.82" fill="none" stroke="black" stroke-width="4.0"/>
	<path d="M -192.33999999999997,393.82 L -191.08999999999997,395.07" fill="none" stroke="black" stroke-width="4.0"/>
	<path d="M -191.08999999999997,395.07 L -190.14999999999998,396.57" fill="none" stroke="black" stroke-width="4.0"/>
	<path d="M -190.14999999999998,396.57 L -189.56999999999996,398.24" fill="none" stroke="black" stroke-width="4.0"/>
	<path d="M -189.56999999999996,398.24 L -189.36999999999998,400.0" fill="none" stroke="black" stroke-width="4.0"/>
	<path d="M -189.36999999999998,400.0 L -189.56999999999996,401.76" fill="none" stroke="black" stroke-width="4.0"/>
	<path d="M -189.56999999999996,401.76 L -190.14999999999998,403.43" fill="none" stroke="black" stroke-width="4.0"/>
	<path d="M -190.14999999999998,403.43 L -191.08999999999997,404.93" fill="none" stroke="black" stroke-width="4.0"/>
	<path d="M -191.08999999999997,404.93 L -192.33999999999997,406.18" fill="none" stroke="black" stroke-width="4.0"/>
	<path d="M -192.33999999999997,406.18 L -193.83999999999997,407.12" fill="none" stroke="black" stroke-width="4.0"/>
	<path d="M -193.83999999999997,407.12 L -195.50999999999996,407.7" fill="none" stroke="black" stroke-width="4.0"/>
	<path d="M -195.50999999999996,407.7 L -197.26999999999998,407.9" fill="none" stroke="black" stroke-width="4.0"/>
	<path d="M -414.58,427.66 A 19.756,19.756 0.0 0,0 -394.83,447.41" fill="none" stroke="black" stroke-width="4.0"/>
	<path d="M -394.83,352.59 A 19.756,19.756 0.0 0,0 -414.58,372.34" fill="none" stroke="black" stroke-width="4.0"/>
	<path d="M -414.58,427.66 L -414.58,372.34" fill="none" stroke="black" stroke-width="4.0"/>
	<path d="M -394.83,332.83 A 39.511,39.511 0.0 0,0 -434.34,372.34" fill="none" stroke="black" stroke-width="4.0"/>
	<path d="M -434.34,427.66 A 39.511,39.511 0.0 0,0 -394.8299999999999,467.17" fill="none" stroke="black" stroke-width="4.0"/>
	<path d="M -288.15,360.49 A 7.902,7.902 0.0 0,0 -296.05,352.59" fill="none" stroke="black" stroke-width="4.0"/>
	<path d="M -296.05,447.41 A 7.902,7.902 0.0 0,0 -288.15,439.51" fill="none" stroke="black" stroke-width="4.0"/>
	<path d="M -256.54,344.68 A 11.853,11.853 0.0 0,0 -268.39,332.83" fill="none" stroke="black" stroke-width="4.0"/>
	<path d="M -268.38999999999993,467.17 A 11.853,11.853 0.0 0,0 -256.54,455.32" fill="none" stroke="black" stroke-width="4.0"/>
	<path d="M -296.05,352.59 L -394.83,352.59 L -296.05,352.59" fill="none" stroke="black" stroke-width="4.0"/>
	<path d="M -296.05,447.41 L -394.83,447.41 L -296.05,447.41" fill="none" stroke="black" stroke-width="4.0"/>
	<path d="M -288.15,439.51 L -288.15,360.49" fill="none" stroke="black" stroke-width="4.0"/>
	<path d="M -256.54,455.32 L -256.54,344.68" fill="none" stroke="black" stroke-width="4.0"/>
	<path d="M -165.65999999999997,325.92 A 3.951,3.951 0.0 0,0 -169.60999999999999,321.97" fill="none" stroke="black" stroke-width="4.0"/>
	<path d="M -169.60999999999999,478.03 A 3.951,3.951 0.0 0,0 -165.65999999999997,474.08" fill="none" stroke="black" stroke-width="4.0"/>
	<path d="M -218.99999999999997,321.97 A 9.878,9.878 0.0 0,0 -228.87999999999997,331.84" fill="none" stroke="black" stroke-width="4.0"/>
	<path d="M -228.87999999999997,468.16 A 9.878,9.878 0.0 0,0 -218.99999999999997,478.03" fill="none" stroke="black" stroke-width="4.0"/>
	<path d="M -228.87999999999997,468.16 L -228.87999999999997,331.84" fill="none" stroke="black" stroke-width="4.0"/>
	<path d="M -169.60999999999999,321.97 L -218.99999999999997,321.97 L -169.60999999999999,321.97" fill="none" stroke="black" stroke-width="4.0"/>
	<path d="M -169.60999999999999,478.03 L -218.99999999999997,478.03 L -169.60999999999999,478.03" fill="none" stroke="black" stroke-width="4.0"/>
	<path d="M -228.87999999999997,332.83 L -394.83,332.83 L -228.87999999999997,332.83" fill="none" stroke="black" stroke-width="4.0"/>
	<path d="M -228.87999999999997,467.17 L -394.8299999999999,467.17 L -228.87999999999997,467.17" fill="none" stroke="black" stroke-width="4.0"/>
	<path d="M -434.34,427.66 L -434.34,372.34" fill="none" stroke="black" stroke-width="4.0"/>
	<path d="M -165.65999999999997,474.08 L -165.65999999999997,325.92" fill="none" stroke="black" stroke-width="4.0"/>
</svg>