<svg xmlns="http://www.w3.org/2000/svg" version="1.1" viewBox="321.72 165.41 156.56 269.18">
  <desc>Produce by Acme CAD Converter</desc>
<path d="M415.8 197.27L415.61 199.74" fill="none" stroke="black" stroke-width="4.0"/>
<path d="M415.61 199.74L415.03 202.16" fill="none" stroke="black" stroke-width="4.0"/>
<path d="M415.03 202.16L414.08 204.45" fill="none" stroke="black" stroke-width="4.0"/>
<path d="M414.08 204.45L412.79 206.56" fill="none" stroke="black" stroke-width="4.0"/>
<path d="M412.79 206.56L411.18 208.45" fill="none" stroke="black" stroke-width="4.0"/>
<path d="M411.18 208.45L409.29 210.06" fill="none" stroke="black" stroke-width="4.0"/>
<path d="M409.29 210.06L407.18 211.35" fill="none" stroke="black" stroke-width="4.0"/>
<path d="M407.18 211.35L404.88 212.3" fill="none" stroke="black" stroke-width="4.0"/>
<path d="M404.88 212.3L402.47 212.88" fill="none" stroke="black" stroke-width="4.0"/>
<path d="M402.47 212.88L400 213.08" fill="none" stroke="black" stroke-width="4.0"/>
<path d="M400 213.08L397.53 212.88" fill="none" stroke="black" stroke-width="4.0"/>
<path d="M397.53 212.88L395.12 212.3" fill="none" stroke="black" stroke-width="4.0"/>
<path d="M395.12 212.3L392.82 211.35" fill="none" stroke="black" stroke-width="4.0"/>
<path d="M392.82 211.35L390.71 210.06" fill="none" stroke="black" stroke-width="4.0"/>
<path d="M390.71 210.06L388.82 208.45" fill="none" stroke="black" stroke-width="4.0"/>
<path d="M388.82 208.45L387.21 206.56" fill="none" stroke="black" stroke-width="4.0"/>
<path d="M387.21 206.56L385.92 204.45" fill="none" stroke="black" stroke-width="4.0"/>
<path d="M385.92 204.45L384.97 202.16" fill="none" stroke="black" stroke-width="4.0"/>
<path d="M384.97 202.16L384.39 199.74" fill="none" stroke="black" stroke-width="4.0"/>
<path d="M384.39 199.74L384.2 197.27" fill="none" stroke="black" stroke-width="4.0"/>
<path d="M384.2 197.27L384.39 194.8" fill="none" stroke="black" stroke-width="4.0"/>
<path d="M384.39 194.8L384.97 192.39" fill="none" stroke="black" stroke-width="4.0"/>
<path d="M384.97 192.39L385.92 190.1" fill="none" stroke="black" stroke-width="4.0"/>
<path d="M385.92 190.1L387.21 187.98" fill="none" stroke="black" stroke-width="4.0"/>
<path d="M387.21 187.98L388.82 186.1" fill="none" stroke="black" stroke-width="4.0"/>
<path d="M388.82 186.1L390.71 184.49" fill="none" stroke="black" stroke-width="4.0"/>
<path d="M390.71 184.49L392.82 183.19" fill="none" stroke="black" stroke-width="4.0"/>
<path d="M392.82 183.19L395.12 182.24" fill="none" stroke="black" stroke-width="4.0"/>
<path d="M395.12 182.24L397.53 181.66" fill="none" stroke="black" stroke-width="4.0"/>
<path d="M397.53 181.66L400 181.47" fill="none" stroke="black" stroke-width="4.0"/>
<path d="M400 181.47L402.47 181.66" fill="none" stroke="black" stroke-width="4.0"/>
<path d="M402.47 181.66L404.88 182.24" fill="none" stroke="black" stroke-width="4.0"/>
<path d="M404.88 182.24L407.18 183.19" fill="none" stroke="black" stroke-width="4.0"/>
<path d="M407.18 183.19L409.29 184.49" fill="none" stroke="black" stroke-width="4.0"/>
<path d="M409.29 184.49L411.18 186.1" fill="none" stroke="black" stroke-width="4.0"/>
<path d="M411.18 186.1L412.79 187.98" fill="none" stroke="black" stroke-width="4.0"/>
<path d="M412.79 187.98L414.08 190.1" fill="none" stroke="black" stroke-width="4.0"/>
<path d="M414.08 190.1L415.03 192.39" fill="none" stroke="black" stroke-width="4.0"/>
<path d="M415.03 192.39L415.61 194.8" fill="none" stroke="black" stroke-width="4.0"/>
<path d="M415.61 194.8L415.8 197.27" fill="none" stroke="black" stroke-width="4.0"/>
<path d="M407.9 197.27L407.7 199.03" fill="none" stroke="black" stroke-width="4.0"/>
<path d="M407.7 199.03L407.12 200.7" fill="none" stroke="black" stroke-width="4.0"/>
<path d="M407.12 200.7L406.18 202.2" fill="none" stroke="black" stroke-width="4.0"/>
<path d="M406.18 202.2L404.93 203.45" fill="none" stroke="black" stroke-width="4.0"/>
<path d="M404.93 203.45L403.43 204.39" fill="none" stroke="black" stroke-width="4.0"/>
<path d="M403.43 204.39L401.76 204.98" fill="none" stroke="black" stroke-width="4.0"/>
<path d="M401.76 204.98L400 205.17" fill="none" stroke="black" stroke-width="4.0"/>
<path d="M400 205.17L398.24 204.98" fill="none" stroke="black" stroke-width="4.0"/>
<path d="M398.24 204.98L396.57 204.39" fill="none" stroke="black" stroke-width="4.0"/>
<path d="M396.57 204.39L395.07 203.45" fill="none" stroke="black" stroke-width="4.0"/>
<path d="M395.07 203.45L393.82 202.2" fill="none" stroke="black" stroke-width="4.0"/>
<path d="M393.82 202.2L392.88 200.7" fill="none" stroke="black" stroke-width="4.0"/>
<path d="M392.88 200.7L392.3 199.03" fill="none" stroke="black" stroke-width="4.0"/>
<path d="M392.3 199.03L392.1 197.27" fill="none" stroke="black" stroke-width="4.0"/>
<path d="M392.1 197.27L392.3 195.51" fill="none" stroke="black" stroke-width="4.0"/>
<path d="M392.3 195.51L392.88 193.84" fill="none" stroke="black" stroke-width="4.0"/>
<path d="M392.88 193.84L393.82 192.34" fill="none" stroke="black" stroke-width="4.0"/>
<path d="M393.82 192.34L395.07 191.09" fill="none" stroke="black" stroke-width="4.0"/>
<path d="M395.07 191.09L396.57 190.15" fill="none" stroke="black" stroke-width="4.0"/>
<path d="M396.57 190.15L398.24 189.57" fill="none" stroke="black" stroke-width="4.0"/>
<path d="M398.24 189.57L400 189.37" fill="none" stroke="black" stroke-width="4.0"/>
<path d="M400 189.37L401.76 189.57" fill="none" stroke="black" stroke-width="4.0"/>
<path d="M401.76 189.57L403.43 190.15" fill="none" stroke="black" stroke-width="4.0"/>
<path d="M403.43 190.15L404.93 191.09" fill="none" stroke="black" stroke-width="4.0"/>
<path d="M404.93 191.09L406.18 192.34" fill="none" stroke="black" stroke-width="4.0"/>
<path d="M406.18 192.34L407.12 193.84" fill="none" stroke="black" stroke-width="4.0"/>
<path d="M407.12 193.84L407.7 195.51" fill="none" stroke="black" stroke-width="4.0"/>
<path d="M407.7 195.51L407.9 197.27" fill="none" stroke="black" stroke-width="4.0"/>
<path d="M 427.66 414.58 A 19.756 19.756 0 0 0 447.41 394.83" fill="none" stroke="black" stroke-width="4.0"/>
<path d="M 352.59 394.83 A 19.756 19.756 0 0 0 372.34 414.58" fill="none" stroke="black" stroke-width="4.0"/>
<path d="M427.66 414.58L372.34 414.58" fill="none" stroke="black" stroke-width="4.0"/>
<path d="M 332.83 394.83 A 39.511 39.511 0 0 0 372.34 434.34" fill="none" stroke="black" stroke-width="4.0"/>
<path d="M 427.66 434.34 A 39.511 39.511 0 0 0 467.17 394.83" fill="none" stroke="black" stroke-width="4.0"/>
<path d="M 360.49 288.15 A 7.902 7.902 0 0 0 352.59 296.05" fill="none" stroke="black" stroke-width="4.0"/>
<path d="M 447.41 296.05 A 7.902 7.902 0 0 0 439.51 288.15" fill="none" stroke="black" stroke-width="4.0"/>
<path d="M 344.68 256.54 A 11.853 11.853 0 0 0 332.83 268.39" fill="none" stroke="black" stroke-width="4.0"/>
<path d="M 467.17 268.39 A 11.853 11.853 0 0 0 455.32 256.54" fill="none" stroke="black" stroke-width="4.0"/>
<path d="M352.59 296.05L352.59 394.83Z" fill="none" stroke="black" stroke-width="4.0"/>
<path d="M447.41 296.05L447.41 394.83Z" fill="none" stroke="black" stroke-width="4.0"/>
<path d="M439.51 288.15L360.49 288.15" fill="none" stroke="black" stroke-width="4.0"/>
<path d="M455.32 256.54L344.68 256.54" fill="none" stroke="black" stroke-width="4.0"/>
<path d="M 325.92 165.66 A 3.951 3.951 0 0 0 321.97 169.61" fill="none" stroke="black" stroke-width="4.0"/>
<path d="M 478.03 169.61 A 3.951 3.951 0 0 0 474.08 165.66" fill="none" stroke="black" stroke-width="4.0"/>
<path d="M 321.97 219 A 9.878 9.878 0 0 0 331.84 228.88" fill="none" stroke="black" stroke-width="4.0"/>
<path d="M 468.16 228.88 A 9.878 9.878 0 0 0 478.03 219" fill="none" stroke="black" stroke-width="4.0"/>
<path d="M468.16 228.88L331.84 228.88" fill="none" stroke="black" stroke-width="4.0"/>
<path d="M321.97 169.61L321.97 219Z" fill="none" stroke="black" stroke-width="4.0"/>
<path d="M478.03 169.61L478.03 219Z" fill="none" stroke="black" stroke-width="4.0"/>
<path d="M332.83 228.88L332.83 394.83Z" fill="none" stroke="black" stroke-width="4.0"/>
<path d="M467.17 228.88L467.17 394.83Z" fill="none" stroke="black" stroke-width="4.0"/>
<path d="M427.66 434.34L372.34 434.34" fill="none" stroke="black" stroke-width="4.0"/>
<path d="M474.08 165.66L325.92 165.66" fill="none" stroke="black" stroke-width="4.0"/>
</svg>