<svg xmlns="http://www.w3.org/2000/svg" version="1.1" viewBox="1.18 267.31 797.17 65.78">
  <desc>Produce by Acme CAD Converter</desc>
<path d="M698.39 267.56L101.25 267.56" fill="none" stroke="black" stroke-width="4.0"/>
<path d="M698.39 277.15L101.25 277.15" fill="none" stroke="black" stroke-width="4.0"/>
<path d="M691.01 267.56L691.01 277.15Z" fill="none" stroke="black" stroke-width="4.0"/>
<path d="M688.36 267.56L688.36 277.15Z" fill="none" stroke="black" stroke-width="4.0"/>
<path d="M670.07 267.56L670.07 277.15Z" fill="none" stroke="black" stroke-width="4.0"/>
<path d="M667.42 267.56L667.42 277.15Z" fill="none" stroke="black" stroke-width="4.0"/>
<path d="M698.58 267.56L698.58 277.15Z" fill="none" stroke="black" stroke-width="4.0"/>
<path d="M607.68 267.56L607.68 277.15Z" fill="none" stroke="black" stroke-width="4.0"/>
<path d="M605.03 267.56L605.03 277.15Z" fill="none" stroke="black" stroke-width="4.0"/>
<path d="M627.74 267.56L627.74 277.15Z" fill="none" stroke="black" stroke-width="4.0"/>
<path d="M625.09 267.56L625.09 277.15Z" fill="none" stroke="black" stroke-width="4.0"/>
<path d="M269.59 267.56L269.59 277.15Z" fill="none" stroke="black" stroke-width="4.0"/>
<path d="M272.24 267.56L272.24 277.15Z" fill="none" stroke="black" stroke-width="4.0"/>
<path d="M530.25 267.56L530.25 277.15Z" fill="none" stroke="black" stroke-width="4.0"/>
<path d="M527.6 267.56L527.6 277.15Z" fill="none" stroke="black" stroke-width="4.0"/>
<path d="M172.1 267.56L172.1 277.15Z" fill="none" stroke="black" stroke-width="4.0"/>
<path d="M174.74 267.56L174.74 277.15Z" fill="none" stroke="black" stroke-width="4.0"/>
<path d="M192.16 267.56L192.16 277.15Z" fill="none" stroke="black" stroke-width="4.0"/>
<path d="M194.8 267.56L194.8 277.15Z" fill="none" stroke="black" stroke-width="4.0"/>
<path d="M614.66 283.29L614.48 284" fill="none" stroke="black" stroke-width="4.0"/>
<path d="M614.48 284L614 284.55" fill="none" stroke="black" stroke-width="4.0"/>
<path d="M614 284.55L613.31 284.81" fill="none" stroke="black" stroke-width="4.0"/>
<path d="M613.31 284.81L612.58 284.72" fill="none" stroke="black" stroke-width="4.0"/>
<path d="M612.58 284.72L611.97 284.31" fill="none" stroke="black" stroke-width="4.0"/>
<path d="M611.97 284.31L611.63 283.66" fill="none" stroke="black" stroke-width="4.0"/>
<path d="M611.63 283.66L611.63 282.92Z" fill="none" stroke="black" stroke-width="4.0"/>
<path d="M611.63 282.92L611.97 282.27" fill="none" stroke="black" stroke-width="4.0"/>
<path d="M611.97 282.27L612.58 281.85" fill="none" stroke="black" stroke-width="4.0"/>
<path d="M612.58 281.85L613.31 281.77" fill="none" stroke="black" stroke-width="4.0"/>
<path d="M613.31 281.77L614 282.03" fill="none" stroke="black" stroke-width="4.0"/>
<path d="M614 282.03L614.48 282.58" fill="none" stroke="black" stroke-width="4.0"/>
<path d="M614.48 282.58L614.66 283.29" fill="none" stroke="black" stroke-width="4.0"/>
<path d="M621.57 283.29L621.39 284" fill="none" stroke="black" stroke-width="4.0"/>
<path d="M621.39 284L620.9 284.55" fill="none" stroke="black" stroke-width="4.0"/>
<path d="M620.9 284.55L620.22 284.81" fill="none" stroke="black" stroke-width="4.0"/>
<path d="M620.22 284.81L619.49 284.72" fill="none" stroke="black" stroke-width="4.0"/>
<path d="M619.49 284.72L618.88 284.31" fill="none" stroke="black" stroke-width="4.0"/>
<path d="M618.88 284.31L618.54 283.66" fill="none" stroke="black" stroke-width="4.0"/>
<path d="M618.54 283.66L618.54 282.92Z" fill="none" stroke="black" stroke-width="4.0"/>
<path d="M618.54 282.92L618.88 282.27" fill="none" stroke="black" stroke-width="4.0"/>
<path d="M618.88 282.27L619.49 281.85" fill="none" stroke="black" stroke-width="4.0"/>
<path d="M619.49 281.85L620.22 281.77" fill="none" stroke="black" stroke-width="4.0"/>
<path d="M620.22 281.77L620.9 282.03" fill="none" stroke="black" stroke-width="4.0"/>
<path d="M620.9 282.03L621.39 282.58" fill="none" stroke="black" stroke-width="4.0"/>
<path d="M621.39 282.58L621.57 283.29" fill="none" stroke="black" stroke-width="4.0"/>
<path d="M605.83 285.59L605.83 272.35Z" fill="none" stroke="black" stroke-width="4.0"/>
<path d="M606.6 285.59L606.6 272.35Z" fill="none" stroke="black" stroke-width="4.0"/>
<path d="M625.02 286.36L625.02 272.35Z" fill="none" stroke="black" stroke-width="4.0"/>
<path d="M608.14 286.36L608.14 272.35Z" fill="none" stroke="black" stroke-width="4.0"/>
<path d="M626.55 285.59L626.55 272.35Z" fill="none" stroke="black" stroke-width="4.0"/>
<path d="M627.32 285.59L627.32 272.35Z" fill="none" stroke="black" stroke-width="4.0"/>
<path d="M625.79 287.13L607.37 287.13" fill="none" stroke="black" stroke-width="4.0"/>
<path d="M 625.79 286.36 A 0.767 0.767 0 0 0 626.55 285.59" fill="none" stroke="black" stroke-width="4.0"/>
<path d="M 625.79 287.13 A 1.535 1.535 0 0 0 627.32 285.59" fill="none" stroke="black" stroke-width="4.0"/>
<path d="M625.79 286.36L625.02 286.36" fill="none" stroke="black" stroke-width="4.0"/>
<path d="M 606.6 285.59 A 0.767 0.767 0 0 0 607.37 286.36" fill="none" stroke="black" stroke-width="4.0"/>
<path d="M 605.83 285.59 A 1.535 1.535 0 0 0 607.37 287.13" fill="none" stroke="black" stroke-width="4.0"/>
<path d="M608.14 286.36L607.37 286.36" fill="none" stroke="black" stroke-width="4.0"/>
<path d="M625.02 272.35L608.14 272.35" fill="none" stroke="black" stroke-width="4.0"/>
<path d="M627.32 272.35L626.55 272.35" fill="none" stroke="black" stroke-width="4.0"/>
<path d="M 617.34 276.96 A 1.151 1.151 0 0 0 617.34 274.66" fill="none" stroke="black" stroke-width="4.0"/>
<path d="M 615.81 274.66 A 1.151 1.151 0 0 0 615.81 276.96" fill="none" stroke="black" stroke-width="4.0"/>
<path d="M617.34 276.96L615.81 276.96" fill="none" stroke="black" stroke-width="4.0"/>
<path d="M617.34 274.66L615.81 274.66" fill="none" stroke="black" stroke-width="4.0"/>
<path d="M606.6 272.35L605.83 272.35" fill="none" stroke="black" stroke-width="4.0"/>
<path d="M181.09 283.29L180.91 284" fill="none" stroke="black" stroke-width="4.0"/>
<path d="M180.91 284L180.43 284.55" fill="none" stroke="black" stroke-width="4.0"/>
<path d="M180.43 284.55L179.74 284.81" fill="none" stroke="black" stroke-width="4.0"/>
<path d="M179.74 284.81L179.01 284.72" fill="none" stroke="black" stroke-width="4.0"/>
<path d="M179.01 284.72L178.4 284.31" fill="none" stroke="black" stroke-width="4.0"/>
<path d="M178.4 284.31L178.06 283.66" fill="none" stroke="black" stroke-width="4.0"/>
<path d="M178.06 283.66L178.06 282.92Z" fill="none" stroke="black" stroke-width="4.0"/>
<path d="M178.06 282.92L178.4 282.27" fill="none" stroke="black" stroke-width="4.0"/>
<path d="M178.4 282.27L179.01 281.85" fill="none" stroke="black" stroke-width="4.0"/>
<path d="M179.01 281.85L179.74 281.77" fill="none" stroke="black" stroke-width="4.0"/>
<path d="M179.74 281.77L180.43 282.03" fill="none" stroke="black" stroke-width="4.0"/>
<path d="M180.43 282.03L180.91 282.58" fill="none" stroke="black" stroke-width="4.0"/>
<path d="M180.91 282.58L181.09 283.29" fill="none" stroke="black" stroke-width="4.0"/>
<path d="M188 283.29L187.82 284" fill="none" stroke="black" stroke-width="4.0"/>
<path d="M187.82 284L187.33 284.55" fill="none" stroke="black" stroke-width="4.0"/>
<path d="M187.33 284.55L186.65 284.81" fill="none" stroke="black" stroke-width="4.0"/>
<path d="M186.65 284.81L185.92 284.72" fill="none" stroke="black" stroke-width="4.0"/>
<path d="M185.92 284.72L185.31 284.31" fill="none" stroke="black" stroke-width="4.0"/>
<path d="M185.31 284.31L184.97 283.66" fill="none" stroke="black" stroke-width="4.0"/>
<path d="M184.97 283.66L184.97 282.92Z" fill="none" stroke="black" stroke-width="4.0"/>
<path d="M184.97 282.92L185.31 282.27" fill="none" stroke="black" stroke-width="4.0"/>
<path d="M185.31 282.27L185.92 281.85" fill="none" stroke="black" stroke-width="4.0"/>
<path d="M185.92 281.85L186.65 281.77" fill="none" stroke="black" stroke-width="4.0"/>
<path d="M186.65 281.77L187.33 282.03" fill="none" stroke="black" stroke-width="4.0"/>
<path d="M187.33 282.03L187.82 282.58" fill="none" stroke="black" stroke-width="4.0"/>
<path d="M187.82 282.58L188 283.29" fill="none" stroke="black" stroke-width="4.0"/>
<path d="M172.26 285.59L172.26 272.35Z" fill="none" stroke="black" stroke-width="4.0"/>
<path d="M173.03 285.59L173.03 272.35Z" fill="none" stroke="black" stroke-width="4.0"/>
<path d="M191.45 286.36L191.45 272.35Z" fill="none" stroke="black" stroke-width="4.0"/>
<path d="M174.57 286.36L174.57 272.35Z" fill="none" stroke="black" stroke-width="4.0"/>
<path d="M192.98 285.59L192.98 272.35Z" fill="none" stroke="black" stroke-width="4.0"/>
<path d="M193.75 285.59L193.75 272.35Z" fill="none" stroke="black" stroke-width="4.0"/>
<path d="M192.22 287.13L173.8 287.13" fill="none" stroke="black" stroke-width="4.0"/>
<path d="M 192.22 286.36 A 0.767 0.767 0 0 0 192.98 285.59" fill="none" stroke="black" stroke-width="4.0"/>
<path d="M 192.22 287.13 A 1.535 1.535 0 0 0 193.75 285.59" fill="none" stroke="black" stroke-width="4.0"/>
<path d="M192.22 286.36L191.45 286.36" fill="none" stroke="black" stroke-width="4.0"/>
<path d="M 173.03 285.59 A 0.767 0.767 0 0 0 173.8 286.36" fill="none" stroke="black" stroke-width="4.0"/>
<path d="M 172.26 285.59 A 1.535 1.535 0 0 0 173.8 287.13" fill="none" stroke="black" stroke-width="4.0"/>
<path d="M174.57 286.36L173.8 286.36" fill="none" stroke="black" stroke-width="4.0"/>
<path d="M191.45 272.35L174.57 272.35" fill="none" stroke="black" stroke-width="4.0"/>
<path d="M193.75 272.35L192.98 272.35" fill="none" stroke="black" stroke-width="4.0"/>
<path d="M 183.77 276.96 A 1.151 1.151 0 0 0 183.77 274.66" fill="none" stroke="black" stroke-width="4.0"/>
<path d="M 182.24 274.66 A 1.151 1.151 0 0 0 182.24 276.96" fill="none" stroke="black" stroke-width="4.0"/>
<path d="M183.77 276.96L182.24 276.96" fill="none" stroke="black" stroke-width="4.0"/>
<path d="M183.77 274.66L182.24 274.66" fill="none" stroke="black" stroke-width="4.0"/>
<path d="M173.03 272.35L172.26 272.35" fill="none" stroke="black" stroke-width="4.0"/>
<path d="M108.63 267.56L108.63 277.15Z" fill="none" stroke="black" stroke-width="4.0"/>
<path d="M111.28 267.56L111.28 277.15Z" fill="none" stroke="black" stroke-width="4.0"/>
<path d="M129.57 267.56L129.57 277.15Z" fill="none" stroke="black" stroke-width="4.0"/>
<path d="M132.22 267.56L132.22 277.15Z" fill="none" stroke="black" stroke-width="4.0"/>
<path d="M101.06 267.56L101.06 277.15Z" fill="none" stroke="black" stroke-width="4.0"/>
<path d="M767.72 304.4L767.72 295.71Z" fill="none" stroke="black" stroke-width="4.0"/>
<path d="M 767.72 295.71 A 5.756 5.756 0 0 0 761.96 289.96" fill="none" stroke="black" stroke-width="4.0"/>
<path d="M767.72 287.13L31.87 287.13" fill="none" stroke="black" stroke-width="4.0"/>
<path d="M761.96 289.96L37.62 289.96" fill="none" stroke="black" stroke-width="4.0"/>
<path d="M786.47 301.81L781.15 301.81" fill="none" stroke="black" stroke-width="4.0"/>
<path d="M794.14 310.16L773.47 310.16" fill="none" stroke="black" stroke-width="4.0"/>
<path d="M775.39 294.8L775.39 296.06Z" fill="none" stroke="black" stroke-width="4.0"/>
<path d="M 794.14 309.49 A 7.674 7.674 0 0 0 786.47 301.81" fill="none" stroke="black" stroke-width="4.0"/>
<path d="M 775.39 294.8 A 7.674 7.674 0 0 0 767.72 287.13" fill="none" stroke="black" stroke-width="4.0"/>
<path d="M 775.39 296.06 A 5.756 5.756 0 0 0 781.15 301.81" fill="none" stroke="black" stroke-width="4.0"/>
<path d="M 767.72 304.4 A 5.756 5.756 0 0 0 773.47 310.16" fill="none" stroke="black" stroke-width="4.0"/>
<path d="M798.1 316.16L1.43 316.16" fill="none" stroke="black" stroke-width="4.0"/>
<path d="M1.43 332.84L798.1 332.84" fill="none" stroke="black" stroke-width="4.0"/>
<path d="M798.1 332.84L798.1 316.16Z" fill="none" stroke="black" stroke-width="4.0"/>
<path d="M794.14 309.49L794.14 316.16Z" fill="none" stroke="black" stroke-width="4.0"/>
<path d="M1.43 332.84L1.43 316.16Z" fill="none" stroke="black" stroke-width="4.0"/>
<path d="M9.22 310.16L26.11 310.16" fill="none" stroke="black" stroke-width="4.0"/>
<path d="M9.22 309.49L9.22 316.16Z" fill="none" stroke="black" stroke-width="4.0"/>
<path d="M 16.89 301.81 A 7.674 7.674 0 0 0 9.22 309.49" fill="none" stroke="black" stroke-width="4.0"/>
<path d="M 26.11 310.16 A 5.756 5.756 0 0 0 31.87 304.4" fill="none" stroke="black" stroke-width="4.0"/>
<path d="M16.89 301.81L18.44 301.81" fill="none" stroke="black" stroke-width="4.0"/>
<path d="M24.19 294.8L24.19 296.06Z" fill="none" stroke="black" stroke-width="4.0"/>
<path d="M 31.87 287.13 A 7.674 7.674 0 0 0 24.19 294.8" fill="none" stroke="black" stroke-width="4.0"/>
<path d="M31.87 304.4L31.87 295.71Z" fill="none" stroke="black" stroke-width="4.0"/>
<path d="M 18.44 301.81 A 5.756 5.756 0 0 0 24.19 296.06" fill="none" stroke="black" stroke-width="4.0"/>
<path d="M 37.62 289.96 A 5.756 5.756 0 0 0 31.87 295.71" fill="none" stroke="black" stroke-width="4.0"/>
</svg>