<svg xmlns="http://www.w3.org/2000/svg" xmlns:ev="http://www.w3.org/2001/xml-events" xmlns:xlink="http://www.w3.org/1999/xlink" baseProfile="full" version="1.1" viewBox="-334.84 -0.57 69.28 800.67">
	<defs/>
	<path d="M -267.55999999999995,698.39 L -267.56,101.25000000000001" fill="none" stroke="black" stroke-width="4.0"/>
	<path d="M -277.1499999999999,698.39 L -277.15,101.25000000000001" fill="none" stroke="black" stroke-width="4.0"/>
	<path d="M -267.55999999999995,691.01 L -277.1499999999999,691.01 L -267.55999999999995,691.01" fill="none" stroke="black" stroke-width="4.0"/>
	<path d="M -267.55999999999995,688.36 L -277.1499999999999,688.36 L -267.55999999999995,688.36" fill="none" stroke="black" stroke-width="4.0"/>
	<path d="M -267.55999999999995,670.07 L -277.1499999999999,670.07 L -267.55999999999995,670.07" fill="none" stroke="black" stroke-width="4.0"/>
	<path d="M -267.55999999999995,667.42 L -277.1499999999999,667.42 L -267.55999999999995,667.42" fill="none" stroke="black" stroke-width="4.0"/>
	<path d="M -267.55999999999995,698.58 L -277.1499999999999,698.58 L -267.55999999999995,698.58" fill="none" stroke="black" stroke-width="4.0"/>
	<path d="M -267.55999999999995,607.68 L -277.1499999999999,607.68 L -267.55999999999995,607.68" fill="none" stroke="black" stroke-width="4.0"/>
	<path d="M -267.55999999999995,605.03 L -277.1499999999999,605.03 L -267.55999999999995,605.03" fill="none" stroke="black" stroke-width="4.0"/>
	<path d="M -267.55999999999995,627.74 L -277.1499999999999,627.74 L -267.55999999999995,627.74" fill="none" stroke="black" stroke-width="4.0"/>
	<path d="M -267.55999999999995,625.09 L -277.1499999999999,625.09 L -267.55999999999995,625.09" fill="none" stroke="black" stroke-width="4.0"/>
	<path d="M -267.56,269.59 L -277.15,269.59 L -267.56,269.59" fill="none" stroke="black" stroke-width="4.0"/>
	<path d="M -267.56,272.24 L -277.15,272.24 L -267.56,272.24" fill="none" stroke="black" stroke-width="4.0"/>
	<path d="M -267.55999999999995,530.25 L -277.1499999999999,530.25 L -267.55999999999995,530.25" fill="none" stroke="black" stroke-width="4.0"/>
	<path d="M -267.55999999999995,527.6 L -277.1499999999999,527.6 L -267.55999999999995,527.6" fill="none" stroke="black" stroke-width="4.0"/>
	<path d="M -267.56,172.10000000000002 L -277.15,172.10000000000002 L -267.56,172.10000000000002" fill="none" stroke="black" stroke-width="4.0"/>
	<path d="M -267.56,174.74000000000004 L -277.15,174.74000000000004 L -267.56,174.74000000000004" fill="none" stroke="black" stroke-width="4.0"/>
	<path d="M -267.56,192.16000000000003 L -277.15,192.16000000000003 L -267.56,192.16000000000003" fill="none" stroke="black" stroke-width="4.0"/>
	<path d="M -267.56,194.80000000000004 L -277.15,194.80000000000004 L -267.56,194.80000000000004" fill="none" stroke="black" stroke-width="4.0"/>
	<path d="M -283.28999999999996,614.66 L -283.99999999999994,614.48" fill="none" stroke="black" stroke-width="4.0"/>
	<path d="M -283.99999999999994,614.48 L -284.54999999999995,614.0" fill="none" stroke="black" stroke-width="4.0"/>
	<path d="M -284.54999999999995,614.0 L -284.80999999999995,613.31" fill="none" stroke="black" stroke-width="4.0"/>
	<path d="M -284.80999999999995,613.31 L -284.71999999999997,612.58" fill="none" stroke="black" stroke-width="4.0"/>
	<path d="M -284.71999999999997,612.58 L -284.30999999999995,611.97" fill="none" stroke="black" stroke-width="4.0"/>
	<path d="M -284.30999999999995,611.97 L -283.65999999999997,611.63" fill="none" stroke="black" stroke-width="4.0"/>
	<path d="M -283.65999999999997,611.63 L -282.91999999999996,611.63 L -283.65999999999997,611.63" fill="none" stroke="black" stroke-width="4.0"/>
	<path d="M -282.91999999999996,611.63 L -282.2699999999999,611.97" fill="none" stroke="black" stroke-width="4.0"/>
	<path d="M -282.2699999999999,611.97 L -281.84999999999997,612.58" fill="none" stroke="black" stroke-width="4.0"/>
	<path d="M -281.84999999999997,612.58 L -281.7699999999999,613.31" fill="none" stroke="black" stroke-width="4.0"/>
	<path d="M -281.7699999999999,613.31 L -282.0299999999999,614.0" fill="none" stroke="black" stroke-width="4.0"/>
	<path d="M -282.0299999999999,614.0 L -282.5799999999999,614.48" fill="none" stroke="black" stroke-width="4.0"/>
	<path d="M -282.5799999999999,614.48 L -283.28999999999996,614.66" fill="none" stroke="black" stroke-width="4.0"/>
	<path d="M -283.28999999999996,621.57 L -283.99999999999994,621.39" fill="none" stroke="black" stroke-width="4.0"/>
	<path d="M -283.99999999999994,621.39 L -284.54999999999995,620.9" fill="none" stroke="black" stroke-width="4.0"/>
	<path d="M -284.54999999999995,620.9 L -284.80999999999995,620.22" fill="none" stroke="black" stroke-width="4.0"/>
	<path d="M -284.80999999999995,620.22 L -284.71999999999997,619.49" fill="none" stroke="black" stroke-width="4.0"/>
	<path d="M -284.71999999999997,619.49 L -284.30999999999995,618.88" fill="none" stroke="black" stroke-width="4.0"/>
	<path d="M -284.30999999999995,618.88 L -283.65999999999997,618.54" fill="none" stroke="black" stroke-width="4.0"/>
	<path d="M -283.65999999999997,618.54 L -282.91999999999996,618.54 L -283.65999999999997,618.54" fill="none" stroke="black" stroke-width="4.0"/>
	<path d="M -282.91999999999996,618.54 L -282.2699999999999,618.88" fill="none" stroke="black" stroke-width="4.0"/>
	<path d="M -282.2699999999999,618.88 L -281.84999999999997,619.49" fill="none" stroke="black" stroke-width="4.0"/>
	<path d="M -281.84999999999997,619.49 L -281.7699999999999,620.22" fill="none" stroke="black" stroke-width="4.0"/>
	<path d="M -281.7699999999999,620.22 L -282.0299999999999,620.9" fill="none" stroke="black" stroke-width="4.0"/>
	<path d="M -282.0299999999999,620.9 L -282.5799999999999,621.39" fill="none" stroke="black" stroke-width="4.0"/>
	<path d="M -282.5799999999999,621.39 L -283.28999999999996,621.57" fill="none" stroke="black" stroke-width="4.0"/>
	<path d="M -285.5899999999999,605.83 L -272.34999999999997,605.83 L -285.5899999999999,605.83" fill="none" stroke="black" stroke-width="4.0"/>
	<path d="M -285.5899999999999,606.6 L -272.34999999999997,606.6 L -285.5899999999999,606.6" fill="none" stroke="black" stroke-width="4.0"/>
	<path d="M -286.35999999999996,625.02 L -272.34999999999997,625.02 L -286.35999999999996,625.02" fill="none" stroke="black" stroke-width="4.0"/>
	<path d="M -286.35999999999996,608.14 L -272.34999999999997,608.14 L -286.35999999999996,608.14" fill="none" stroke="black" stroke-width="4.0"/>
	<path d="M -285.5899999999999,626.55 L -272.34999999999997,626.55 L -285.5899999999999,626.55" fill="none" stroke="black" stroke-width="4.0"/>
	<path d="M -285.5899999999999,627.32 L -272.34999999999997,627.32 L -285.5899999999999,627.32" fill="none" stroke="black" stroke-width="4.0"/>
	<path d="M -287.12999999999994,625.79 L -287.12999999999994,607.37" fill="none" stroke="black" stroke-width="4.0"/>
	<path d="M -286.35999999999996,625.79 A 0.767,0.767 0.0 0,0 -285.5899999999999,626.55" fill="none" stroke="black" stroke-width="4.0"/>
	<path d="M -287.12999999999994,625.79 A 1.535,1.535 0.0 0,0 -285.5899999999999,627.32" fill="none" stroke="black" stroke-width="4.0"/>
	<path d="M -286.35999999999996,625.79 L -286.35999999999996,625.02" fill="none" stroke="black" stroke-width="4.0"/>
	<path d="M -285.5899999999999,606.6 A 0.767,0.767 0.0 0,0 -286.35999999999996,607.37" fill="none" stroke="black" stroke-width="4.0"/>
	<path d="M -285.5899999999999,605.83 A 1.535,1.535 0.0 0,0 -287.12999999999994,607.37" fill="none" stroke="black" stroke-width="4.0"/>
	<path d="M -286.35999999999996,608.14 L -286.35999999999996,607.37" fill="none" stroke="black" stroke-width="4.0"/>
	<path d="M -272.34999999999997,625.02 L -272.34999999999997,608.14" fill="none" stroke="black" stroke-width="4.0"/>
	<path d="M -272.34999999999997,627.32 L -272.34999999999997,626.55" fill="none" stroke="black" stroke-width="4.0"/>
	<path d="M -276.9599999999999,617.34 A 1.151,1.151 0.0 0,0 -274.65999999999997,617.34" fill="none" stroke="black" stroke-width="4.0"/>
	<path d="M -274.65999999999997,615.81 A 1.151,1.151 0.0 0,0 -276.9599999999999,615.81" fill="none" stroke="black" stroke-width="4.0"/>
	<path d="M -276.9599999999999,617.34 L -276.9599999999999,615.81" fill="none" stroke="black" stroke-width="4.0"/>
	<path d="M -274.65999999999997,617.34 L -274.65999999999997,615.81" fill="none" stroke="black" stroke-width="4.0"/>
	<path d="M -272.34999999999997,606.6 L -272.34999999999997,605.83" fill="none" stroke="black" stroke-width="4.0"/>
	<path d="M -283.29,181.09000000000003 L -284.0,180.91000000000003" fill="none" stroke="black" stroke-width="4.0"/>
	<path d="M -284.0,180.91000000000003 L -284.55,180.43000000000004" fill="none" stroke="black" stroke-width="4.0"/>
	<path d="M -284.55,180.43000000000004 L -284.81,179.74000000000004" fill="none" stroke="black" stroke-width="4.0"/>
	<path d="M -284.81,179.74000000000004 L -284.72,179.01000000000002" fill="none" stroke="black" stroke-width="4.0"/>
	<path d="M -284.72,179.01000000000002 L -284.31,178.40000000000003" fill="none" stroke="black" stroke-width="4.0"/>
	<path d="M -284.31,178.40000000000003 L -283.66,178.06000000000003" fill="none" stroke="black" stroke-width="4.0"/>
	<path d="M -283.66,178.06000000000003 L -282.92,178.06000000000003 L -283.66,178.06000000000003" fill="none" stroke="black" stroke-width="4.0"/>
	<path d="M -282.92,178.06000000000003 L -282.27,178.40000000000003" fill="none" stroke="black" stroke-width="4.0"/>
	<path d="M -282.27,178.40000000000003 L -281.85,179.01000000000002" fill="none" stroke="black" stroke-width="4.0"/>
	<path d="M -281.85,179.01000000000002 L -281.77,179.74000000000004" fill="none" stroke="black" stroke-width="4.0"/>
	<path d="M -281.77,179.74000000000004 L -282.03,180.43000000000004" fill="none" stroke="black" stroke-width="4.0"/>
	<path d="M -282.03,180.43000000000004 L -282.58,180.91000000000003" fill="none" stroke="black" stroke-width="4.0"/>
	<path d="M -282.58,180.91000000000003 L -283.29,181.09000000000003" fill="none" stroke="black" stroke-width="4.0"/>
	<path d="M -283.29,188.00000000000003 L -284.0,187.82000000000002" fill="none" stroke="black" stroke-width="4.0"/>
	<path d="M -284.0,187.82000000000002 L -284.55,187.33000000000004" fill="none" stroke="black" stroke-width="4.0"/>
	<path d="M -284.55,187.33000000000004 L -284.81,186.65000000000003" fill="none" stroke="black" stroke-width="4.0"/>
	<path d="M -284.81,186.65000000000003 L -284.72,185.92000000000002" fill="none" stroke="black" stroke-width="4.0"/>
	<path d="M -284.72,185.92000000000002 L -284.31,185.31000000000003" fill="none" stroke="black" stroke-width="4.0"/>
	<path d="M -284.31,185.31000000000003 L -283.66,184.97000000000003" fill="none" stroke="black" stroke-width="4.0"/>
	<path d="M -283.66,184.97000000000003 L -282.92,184.97000000000003 L -283.66,184.97000000000003" fill="none" stroke="black" stroke-width="4.0"/>
	<path d="M -282.92,184.97000000000003 L -282.27,185.31000000000003" fill="none" stroke="black" stroke-width="4.0"/>
	<path d="M -282.27,185.31000000000003 L -281.85,185.92000000000002" fill="none" stroke="black" stroke-width="4.0"/>
	<path d="M -281.85,185.92000000000002 L -281.77,186.65000000000003" fill="none" stroke="black" stroke-width="4.0"/>
	<path d="M -281.77,186.65000000000003 L -282.03,187.33000000000004" fill="none" stroke="black" stroke-width="4.0"/>
	<path d="M -282.03,187.33000000000004 L -282.58,187.82000000000002" fill="none" stroke="black" stroke-width="4.0"/>
	<path d="M -282.58,187.82000000000002 L -283.29,188.00000000000003" fill="none" stroke="black" stroke-width="4.0"/>
	<path d="M -285.59,172.26000000000002 L -272.35,172.26000000000002 L -285.59,172.26000000000002" fill="none" stroke="black" stroke-width="4.0"/>
	<path d="M -285.59,173.03000000000003 L -272.35,173.03000000000003 L -285.59,173.03000000000003" fill="none" stroke="black" stroke-width="4.0"/>
	<path d="M -286.36,191.45000000000002 L -272.35,191.45000000000002 L -286.36,191.45000000000002" fill="none" stroke="black" stroke-width="4.0"/>
	<path d="M -286.36,174.57000000000002 L -272.35,174.57000000000002 L -286.36,174.57000000000002" fill="none" stroke="black" stroke-width="4.0"/>
	<path d="M -285.59,192.98000000000002 L -272.35,192.98000000000002 L -285.59,192.98000000000002" fill="none" stroke="black" stroke-width="4.0"/>
	<path d="M -285.59,193.75000000000003 L -272.35,193.75000000000003 L -285.59,193.75000000000003" fill="none" stroke="black" stroke-width="4.0"/>
	<path d="M -287.13,192.22000000000003 L -287.13,173.80000000000004" fill="none" stroke="black" stroke-width="4.0"/>
	<path d="M -286.36,192.22000000000003 A 0.767,0.767 0.0 0,0 -285.59,192.98000000000002" fill="none" stroke="black" stroke-width="4.0"/>
	<path d="M -287.13,192.22000000000003 A 1.535,1.535 0.0 0,0 -285.59,193.75000000000003" fill="none" stroke="black" stroke-width="4.0"/>
	<path d="M -286.36,192.22000000000003 L -286.36,191.45000000000002" fill="none" stroke="black" stroke-width="4.0"/>
	<path d="M -285.59,173.03000000000003 A 0.767,0.767 0.0 0,0 -286.36,173.80000000000004" fill="none" stroke="black" stroke-width="4.0"/>
	<path d="M -285.59,172.26000000000002 A 1.535,1.535 0.0 0,0 -287.13,173.80000000000004" fill="none" stroke="black" stroke-width="4.0"/>
	<path d="M -286.36,174.57000000000002 L -286.36,173.80000000000004" fill="none" stroke="black" stroke-width="4.0"/>
	<path d="M -272.35,191.45000000000002 L -272.35,174.57000000000002" fill="none" stroke="black" stroke-width="4.0"/>
	<path d="M -272.35,193.75000000000003 L -272.35,192.98000000000002" fill="none" stroke="black" stroke-width="4.0"/>
	<path d="M -276.96,183.77000000000004 A 1.151,1.151 0.0 0,0 -274.66,183.77000000000004" fill="none" stroke="black" stroke-width="4.0"/>
	<path d="M -274.66,182.24000000000004 A 1.151,1.151 0.0 0,0 -276.96,182.24000000000004" fill="none" stroke="black" stroke-width="4.0"/>
	<path d="M -276.96,183.77000000000004 L -276.96,182.24000000000004" fill="none" stroke="black" stroke-width="4.0"/>
	<path d="M -274.66,183.77000000000004 L -274.66,182.24000000000004" fill="none" stroke="black" stroke-width="4.0"/>
	<path d="M -272.35,173.03000000000003 L -272.35,172.26000000000002" fill="none" stroke="black" stroke-width="4.0"/>
	<path d="M -267.56,108.63000000000001 L -277.15,108.63000000000001 L -267.56,108.63000000000001" fill="none" stroke="black" stroke-width="4.0"/>
	<path d="M -267.56,111.28000000000002 L -277.15,111.28000000000002 L -267.56,111.28000000000002" fill="none" stroke="black" stroke-width="4.0"/>
	<path d="M -267.56,129.57000000000002 L -277.15,129.57000000000002 L -267.56,129.57000000000002" fill="none" stroke="black" stroke-width="4.0"/>
	<path d="M -267.56,132.22000000000003 L -277.15,132.22000000000003 L -267.56,132.22000000000003" fill="none" stroke="black" stroke-width="4.0"/>
	<path d="M -267.56,101.06000000000002 L -277.15,101.06000000000002 L -267.56,101.06000000000002" fill="none" stroke="black" stroke-width="4.0"/>
	<path d="M -304.3999999999999,767.72 L -295.7099999999999,767.72 L -304.3999999999999,767.72" fill="none" stroke="black" stroke-width="4.0"/>
	<path d="M -295.7099999999999,767.72 A 5.756,5.756 0.0 0,0 -289.9599999999999,761.96" fill="none" stroke="black" stroke-width="4.0"/>
	<path d="M -287.12999999999994,767.72 L -287.13,31.87000000000002" fill="none" stroke="black" stroke-width="4.0"/>
	<path d="M -289.9599999999999,761.96 L -289.96,37.62000000000001" fill="none" stroke="black" stroke-width="4.0"/>
	<path d="M -301.80999999999995,786.47 L -301.80999999999995,781.15" fill="none" stroke="black" stroke-width="4.0"/>
	<path d="M -310.15999999999997,794.14 L -310.15999999999997,773.47" fill="none" stroke="black" stroke-width="4.0"/>
	<path d="M -294.79999999999995,775.39 L -296.05999999999995,775.39 L -294.79999999999995,775.39" fill="none" stroke="black" stroke-width="4.0"/>
	<path d="M -309.48999999999995,794.14 A 7.674,7.674 0.0 0,0 -301.80999999999995,786.47" fill="none" stroke="black" stroke-width="4.0"/>
	<path d="M -294.79999999999995,775.39 A 7.674,7.674 0.0 0,0 -287.12999999999994,767.72" fill="none" stroke="black" stroke-width="4.0"/>
	<path d="M -296.05999999999995,775.39 A 5.756,5.756 0.0 0,0 -301.80999999999995,781.15" fill="none" stroke="black" stroke-width="4.0"/>
	<path d="M -304.3999999999999,767.72 A 5.756,5.756 0.0 0,0 -310.15999999999997,773.47" fill="none" stroke="black" stroke-width="4.0"/>
	<path d="M -316.15999999999997,798.1 L -316.16,1.4300000000000193" fill="none" stroke="black" stroke-width="4.0"/>
	<path d="M -332.84,1.4300000000000204 L -332.8399999999999,798.1" fill="none" stroke="black" stroke-width="4.0"/>
	<path d="M -332.8399999999999,798.1 L -316.15999999999997,798.1 L -332.8399999999999,798.1" fill="none" stroke="black" stroke-width="4.0"/>
	<path d="M -309.48999999999995,794.14 L -316.15999999999997,794.14 L -309.48999999999995,794.14" fill="none" stroke="black" stroke-width="4.0"/>
	<path d="M -332.84,1.4300000000000204 L -316.16,1.4300000000000193 L -332.84,1.4300000000000204" fill="none" stroke="black" stroke-width="4.0"/>
	<path d="M -310.16,9.22000000000002 L -310.16,26.110000000000017" fill="none" stroke="black" stroke-width="4.0"/>
	<path d="M -309.49,9.22000000000002 L -316.16,9.22000000000002 L -309.49,9.22000000000002" fill="none" stroke="black" stroke-width="4.0"/>
	<path d="M -301.81,16.89000000000002 A 7.674,7.674 0.0 0,0 -309.49,9.22000000000002" fill="none" stroke="black" stroke-width="4.0"/>
	<path d="M -310.16,26.110000000000017 A 5.756,5.756 0.0 0,0 -304.4,31.87000000000002" fill="none" stroke="black" stroke-width="4.0"/>
	<path d="M -301.81,16.89000000000002 L -301.81,18.44000000000002" fill="none" stroke="black" stroke-width="4.0"/>
	<path d="M -294.8,24.19000000000002 L -296.06,24.19000000000002 L -294.8,24.19000000000002" fill="none" stroke="black" stroke-width="4.0"/>
	<path d="M -287.13,31.87000000000002 A 7.674,7.674 0.0 0,0 -294.8,24.19000000000002" fill="none" stroke="black" stroke-width="4.0"/>
	<path d="M -304.4,31.87000000000002 L -295.71,31.87000000000002 L -304.4,31.87000000000002" fill="none" stroke="black" stroke-width="4.0"/>
	<path d="M -301.81,18.44000000000002 A 5.756,5.756 0.0 0,0 -296.06,24.19000000000002" fill="none" stroke="black" stroke-width="4.0"/>
	<path d="M -289.96,37.62000000000001 A 5.756,5.756 0.0 0,0 -295.71,31.87000000000002" fill="none" stroke="black" stroke-width="4.0"/>
</svg>